<?xml version="1.0" standalone="no"?>
<!DOCTYPE svg PUBLIC "-//W3C//DTD SVG 1.1//EN" "http://www.w3.org/Graphics/SVG/1.1/DTD/svg11.dtd" >
<svg xmlns="http://www.w3.org/2000/svg" xmlns:xlink="http://www.w3.org/1999/xlink" version="1.1">
<metadata>
Created by FontForge 20201107 at Thu May 20 11:56:05 2021
 By 
Copyright (c) 2014 by Type Dynamic. All rights reserved.
</metadata>
<defs>
<font id="TBCContractica-Black" horiz-adv-x="309" >
  <font-face 
    font-family="TBC Contractica Black"
    font-weight="900"
    font-stretch="normal"
    units-per-em="1000"
    panose-1="0 0 3 0 0 0 0 0 0 0"
    ascent="800"
    descent="-200"
    x-height="521"
    cap-height="748"
    bbox="-221 -422 1302 1089"
    underline-thickness="50"
    underline-position="-125"
    unicode-range="U+0020-FB02"
  />
<missing-glyph horiz-adv-x="755" 
d="M58 748h639v-748h-639v748zM296 372l-100 149v-298zM380 488l81 131h-162zM458 129l-78 126l-78 -126h156zM559 231v282l-95 -141z" />
    <glyph glyph-name="fi" unicode="fi" horiz-adv-x="711" 
d="M90 365h-89v156h89v34q0 68 29.5 120t83.5 80.5t125 28.5q35 0 58 -4v-157q-15 3 -37 3q-33 0 -54.5 -19t-21.5 -48v-38h113v-156h-113v-365h-183v365zM482.5 756.5q31.5 31.5 74.5 31.5q44 0 75 -31.5t31 -75.5t-31 -75t-75 -31t-75 31t-31 75t31.5 75.5zM466 521h182
v-521h-182v521z" />
    <glyph glyph-name="f_j" unicode="fj" horiz-adv-x="711" 
d="M90 365h-89v156h89v34q0 68 29.5 120t83.5 80.5t125 28.5q35 0 58 -4v-157q-15 3 -37 3q-33 0 -54.5 -19t-21.5 -48v-38h113v-156h-113v-365h-183v365zM352 -102q15 -3 38 -3q32 0 54 19.5t22 47.5v559h182v-555q0 -68 -29.5 -120t-83.5 -80.5t-125 -28.5q-35 0 -58 4
v157zM482 756.5q31 31.5 75 31.5t75 -31.5t31 -75.5t-31 -75t-75 -31t-75 31t-31 75t31 75.5z" />
    <glyph glyph-name=".notdef" horiz-adv-x="755" 
d="M58 748h639v-748h-639v748zM296 372l-100 149v-298zM380 488l81 131h-162zM458 129l-78 126l-78 -126h156zM559 231v282l-95 -141z" />
    <glyph glyph-name=".null" horiz-adv-x="0" 
 />
    <glyph glyph-name="nonmarkingreturn" horiz-adv-x="600" 
 />
    <glyph glyph-name="space" unicode=" " horiz-adv-x="218" 
 />
    <glyph glyph-name="space" unicode="&#xa0;" horiz-adv-x="218" 
 />
    <glyph glyph-name="exclam" unicode="!" horiz-adv-x="350" 
d="M68 748h214l-10 -504h-193zM100 170q31 31 75 31t75 -31t31 -75q0 -45 -31 -75.5t-75 -30.5t-75 30.5t-31 75.5q0 44 31 75z" />
    <glyph glyph-name="quotedbl" unicode="&#x22;" horiz-adv-x="473" 
d="M39 763h170l-17 -314h-137zM434 763l-16 -314h-137l-17 314h170z" />
    <glyph glyph-name="numbersign" unicode="#" horiz-adv-x="689" 
d="M650 431h-98l-29 -121h98l-34 -145h-98l-40 -165h-148l39 165h-91l-39 -165h-148l39 165h-96l34 145h97l28 121h-96l35 145h96l41 172h148l-41 -172h91l41 172h148l-41 -172h98zM375 310l28 121h-91l-28 -121h91z" />
    <glyph glyph-name="dollar" unicode="$" horiz-adv-x="668" 
d="M570 66.5q-59 -58.5 -156 -72.5v-112h-151v114q-105 18 -165 82t-59 164l197 10q-1 -43 30.5 -69.5t81.5 -26.5q84 0 84 60q0 27 -30 45.5t-97 35.5q-81 21 -133 44.5t-84 66.5t-32 112q0 89 53.5 153t153.5 81v111h151v-114q94 -20 148.5 -81t55.5 -154l-197 -10
q0 39 -23 62.5t-66 23.5q-36 0 -57.5 -17.5t-21.5 -48.5q0 -19 11 -31.5t37 -22.5t76 -21q82 -22 136 -49t85 -69.5t31 -106.5q0 -101 -59 -159.5z" />
    <glyph glyph-name="percent" unicode="%" horiz-adv-x="924" 
d="M306.5 735q41.5 -24 65 -68t23.5 -101q0 -58 -23.5 -102t-65 -68t-94.5 -24t-95 24t-66 68t-24 102q0 57 24 101t66 68t95 24t94.5 -24zM611 748h175l-472 -748h-175zM174 516q14 -18 38 -18t37 17.5t13 50.5q0 32 -13 49.5t-37 17.5q-25 0 -38.5 -17.5t-13.5 -49.5
t14 -50zM553 284q24 44 66 68t95 24t94.5 -24t65 -67.5t23.5 -101.5t-23.5 -102t-65 -68t-94.5 -24t-95 24t-66 68t-24 102q0 57 24 101zM676 133q14 -18 38 -18t37 17.5t13 50.5q0 32 -13 49.5t-37 17.5q-25 0 -38.5 -17.5t-13.5 -49.5t14 -50z" />
    <glyph glyph-name="ampersand" unicode="&#x26;" horiz-adv-x="734" 
d="M314 -11q-91 0 -153 29.5t-93 80t-31 111.5q0 64 27.5 110t80.5 85q-55 64 -55 134q0 106 68 163t182 57q100 0 167.5 -53.5t83.5 -148.5l-187 -16q-8 63 -64 63q-27 0 -42.5 -16.5t-15.5 -45.5q0 -20 10 -36.5t23 -28t43 -36.5l138 -112q12 33 26 95l171 -43
q-26 -96 -58 -163l117 -95l-101 -134l-111 90q-91 -90 -226 -90zM255 171.5q23 -19.5 62 -19.5q50 0 92 33l-115 93l-31 25q-31 -29 -31 -76q0 -36 23 -55.5z" />
    <glyph glyph-name="quotesingle" unicode="'" horiz-adv-x="247" 
d="M39 763h170l-17 -314h-137z" />
    <glyph glyph-name="parenleft" unicode="(" horiz-adv-x="324" 
d="M241.5 514q-24.5 -89 -24.5 -194q0 -106 24.5 -195t68.5 -170l-158 -55q-54 83 -85.5 189t-31.5 231t31.5 230.5t85.5 189.5l158 -55q-44 -82 -68.5 -171z" />
    <glyph glyph-name="parenright" unicode=")" horiz-adv-x="324" 
d="M258 550.5q32 -105.5 32 -230.5t-32 -231t-86 -189l-157 55q43 81 67.5 170.5t24.5 194.5t-24.5 194t-67.5 171l157 55q54 -84 86 -189.5z" />
    <glyph glyph-name="asterisk" unicode="*" horiz-adv-x="390" 
d="M386 594l-115 -36l73 -93l-81 -60l-68 99l-68 -100l-80 60l72 94l-114 36l31 94l112 -40l-3 120h100l-3 -120l113 40z" />
    <glyph glyph-name="plus" unicode="+" horiz-adv-x="548" 
d="M518 288h-155v-162h-177v162h-156v164h156v163h177v-163h155v-164z" />
    <glyph glyph-name="comma" unicode="," horiz-adv-x="270" 
d="M129 -10q-41 4 -68 33.5t-27 71.5q0 44 29.5 75t74.5 31q46 0 72 -32.5t26 -85.5q-2 -164 -177 -252v75q53 31 70 84z" />
    <glyph glyph-name="hyphen" unicode="-" horiz-adv-x="408" 
d="M45 348h318v-171h-318v171z" />
    <glyph glyph-name="period" unicode="." horiz-adv-x="281" 
d="M215 170q31 -31 31 -75q0 -45 -31 -75.5t-75 -30.5t-75 30.5t-31 75.5q0 44 31 75t75 31t75 -31z" />
    <glyph glyph-name="slash" unicode="/" horiz-adv-x="455" 
d="M260 748h190l-255 -815h-190z" />
    <glyph glyph-name="zero" unicode="0" horiz-adv-x="655" 
d="M479 714q66 -45 103.5 -131.5t37.5 -208.5t-37.5 -208.5t-103.5 -131.5t-152 -45q-85 0 -151 45t-103.5 131.5t-37.5 208.5t37.5 208.5t103.5 131.5t151 45q86 0 152 -45zM254 212.5q22 -52.5 73 -52.5q52 0 74 52.5t22 161.5t-22 161.5t-74 52.5q-51 0 -73 -52.5
t-22 -161.5t22 -161.5z" />
    <glyph glyph-name="one" unicode="1" horiz-adv-x="406" 
d="M147 515l-75 -50l-80 153l206 132h142v-750h-193v515z" />
    <glyph glyph-name="two" unicode="2" horiz-adv-x="546" 
d="M455.5 704.5q62.5 -54.5 62.5 -159.5q0 -57 -17.5 -103.5t-43.5 -81.5t-66 -77l-106 -112h235v-171h-476v146l197 223q49 56 66 89t17 78q0 52 -41 52q-26 0 -35.5 -18.5t-10.5 -57.5l-193 10q2 112 63.5 174.5t171.5 62.5q114 0 176.5 -54.5z" />
    <glyph glyph-name="three" unicode="3" horiz-adv-x="575" 
d="M463.5 697.5q63.5 -61.5 63.5 -166.5q0 -52 -16 -83.5t-48 -61.5q32 -19 52.5 -60.5t20.5 -97.5q0 -75 -32 -128.5t-89 -82t-131 -28.5q-122 0 -187.5 62.5t-66.5 170.5l193 11q0 -35 15 -54t45 -19q59 0 59 74q0 34 -18.5 52t-50.5 18h-79v161h77q28 0 45 17t17 47
q0 59 -49 59q-25 0 -38.5 -17.5t-13.5 -50.5l-193 11q2 108 65 168t181 60q115 0 178.5 -61.5z" />
    <glyph glyph-name="four" unicode="4" horiz-adv-x="608" 
d="M585 103h-104v-103h-163v103h-291v159l308 488h146v-476h104v-171zM318 274v169l-106 -169h106z" />
    <glyph glyph-name="five" unicode="5" horiz-adv-x="577" 
d="M427 458q53 -27 83.5 -81.5t30.5 -133.5q0 -78 -32 -135t-90.5 -88t-137.5 -31q-116 0 -182 59.5t-67 159.5l193 12q0 -28 14.5 -44t42.5 -16q32 0 48.5 20.5t16.5 57.5t-15 56t-44 19q-32 0 -53 -15h-178v452h454v-171h-261v-102q26 8 57 8q67 0 120 -27z" />
    <glyph glyph-name="six" unicode="6" horiz-adv-x="617" 
d="M170.5 21q-62.5 32 -98 89.5t-35.5 133.5q0 46 14.5 84t43.5 82l229 338h231l-180 -257l19 -4q86 -23 137.5 -87.5t51.5 -155.5q0 -76 -35 -133.5t-97 -89.5t-140 -32t-140.5 32zM253.5 184.5q20.5 -24.5 56.5 -24.5t56.5 24.5t20.5 66.5q0 43 -20.5 67t-56.5 24
q-39 0 -62 -31q-15 -25 -15 -60q0 -42 20.5 -66.5z" />
    <glyph glyph-name="seven" unicode="7" horiz-adv-x="541" 
d="M41 0l257 579h-280v171h492v-155l-256 -595h-213z" />
    <glyph glyph-name="eight" unicode="8" horiz-adv-x="624" 
d="M440.5 733q57.5 -26 90.5 -75t33 -116q0 -83 -50 -139q34 -32 52 -76t18 -97q0 -74 -35.5 -128.5t-97 -83.5t-139.5 -29t-139.5 29t-97 83.5t-35.5 128.5q0 52 17.5 96t50.5 76q-49 57 -49 140q0 67 32.5 116t90 75t129.5 26t129.5 -26zM255 181.5q22 -21.5 57 -21.5
t57 21.5t22 58.5q0 38 -22 60t-57 22t-57 -22t-22 -60q0 -37 22 -58.5zM270 483q17 -17 42 -17q26 0 42.5 16.5t16.5 44.5q0 29 -16 45t-43 16q-26 0 -42.5 -16.5t-16.5 -44.5q0 -27 17 -44z" />
    <glyph glyph-name="nine" unicode="9" horiz-adv-x="617" 
d="M446.5 727q62.5 -32 98 -89.5t35.5 -133.5q0 -46 -14.5 -84t-43.5 -82l-229 -338h-231l180 257q-12 2 -18 4q-86 22 -138 86.5t-52 156.5q0 76 35 133.5t97 89.5t140 32t140.5 -32zM250.5 430q20.5 -24 56.5 -24q39 0 62 31q15 25 15 60q0 42 -20.5 66.5t-56.5 24.5
t-56.5 -24.5t-20.5 -66.5q0 -43 20.5 -67z" />
    <glyph glyph-name="colon" unicode=":" horiz-adv-x="281" 
d="M204.5 500.5q31.5 -31.5 31.5 -75.5t-31.5 -74.5t-75.5 -30.5t-74.5 30.5t-30.5 74.5t30.5 75.5t74.5 31.5t75.5 -31.5zM54.5 170q30.5 31 74.5 31t75.5 -31t31.5 -75q0 -45 -31 -75.5t-76 -30.5q-44 0 -74.5 30.5t-30.5 75.5q0 44 30.5 75z" />
    <glyph glyph-name="semicolon" unicode=";" horiz-adv-x="281" 
d="M54.5 350.5q-30.5 30.5 -30.5 74.5t30.5 75.5t74.5 31.5t75.5 -31.5t31.5 -75.5t-31.5 -74.5t-75.5 -30.5t-74.5 30.5zM63.5 170q29.5 31 74.5 31q46 0 72 -32.5t26 -83.5q-2 -166 -177 -254v75q53 31 70 84q-41 4 -68 33.5t-27 71.5q0 44 29.5 75z" />
    <glyph glyph-name="less" unicode="&#x3c;" horiz-adv-x="550" 
d="M521 289v-208l-491 288l491 287v-207l-136 -80z" />
    <glyph glyph-name="equal" unicode="=" horiz-adv-x="548" 
d="M30 581h488v-171h-488v171zM30 332h488v-170h-488v170z" />
    <glyph glyph-name="greater" unicode="&#x3e;" horiz-adv-x="550" 
d="M30 289l135 80l-135 80v207l490 -287l-490 -288v208z" />
    <glyph glyph-name="question" unicode="?" horiz-adv-x="555" 
d="M469.5 698.5q70.5 -62.5 70.5 -171.5q0 -54 -24.5 -88.5t-69.5 -71.5q-5 -4 -26.5 -21.5t-32 -34t-10.5 -33.5v-34h-192v41q0 41 24 71.5t71 72.5q34 33 49 52.5t15 42.5q0 33 -18 49.5t-48 16.5q-31 0 -50.5 -21.5t-20.5 -59.5l-192 11q1 72 34.5 126.5t93 84.5
t135.5 30q121 0 191.5 -62.5zM206 170q31 31 75 31t75 -31t31 -75q0 -45 -31 -75.5t-75 -30.5t-75 30.5t-31 75.5q0 44 31 75z" />
    <glyph glyph-name="at" unicode="@" horiz-adv-x="793" 
d="M210.5 -65q-81.5 45 -129 126.5t-47.5 185.5q0 102 46.5 184t129 128.5t186.5 46.5q103 0 186 -46.5t130 -128.5t47 -184q0 -106 -44.5 -159.5t-123.5 -53.5q-78 0 -109 48q-23 -25 -51 -37.5t-67 -12.5q-56 0 -100 27t-68.5 75.5t-24.5 110.5q0 63 24.5 111t68.5 75
t100 27q34 0 60.5 -10t43.5 -26v20h131v-299q0 -29 29 -29q25 0 41.5 33t16.5 100q0 82 -37.5 148t-104 104t-148.5 38q-83 0 -149 -38t-103 -104t-37 -148q0 -86 39 -152t104 -101.5t138 -35.5q55 0 97 10t79 30l28 -65q-41 -23 -88 -33t-116 -10q-96 0 -177.5 45z
M333 178.5q20 -24.5 54 -24.5t54 23t20 61v14q0 38 -20 60.5t-54 22.5t-54 -23.5t-20 -66.5q0 -42 20 -66.5z" />
    <glyph glyph-name="A" unicode="A" horiz-adv-x="823" 
d="M555 119h-287l-52 -119h-212l326 748h163l326 -748h-212zM490 267l-79 182l-78 -182h157z" />
    <glyph glyph-name="B" unicode="B" horiz-adv-x="718" 
d="M573.5 694.5q65.5 -53.5 65.5 -159.5q0 -81 -61 -140q39 -20 64.5 -64t25.5 -106q0 -107 -67.5 -166t-181.5 -59h-353v748h333q109 0 174.5 -53.5zM396 171q75 0 75 64q0 65 -76 65h-136v-129h137zM375 464q32 0 49.5 14t17.5 42q0 57 -65 57h-118v-113h116z" />
    <glyph glyph-name="C" unicode="C" horiz-adv-x="837" 
d="M602.5 724q77.5 -35 128.5 -100.5t65 -153.5l-202 -19q-16 69 -59 103t-109 34q-85 0 -135 -58.5t-50 -155.5q0 -103 51.5 -158.5t133.5 -55.5q66 0 110.5 35t57.5 102l202 -17q-14 -89 -65 -155t-128.5 -101t-169.5 -35q-112 0 -200.5 46.5t-138.5 133.5t-50 205t50 205
t138.5 133.5t200.5 46.5q92 0 169.5 -35z" />
    <glyph glyph-name="D" unicode="D" horiz-adv-x="805" 
d="M578 703q86 -45 134.5 -129.5t48.5 -199.5t-48.5 -199.5t-134.5 -129.5t-195 -45h-317v748h317q109 0 195 -45zM385 166q88 0 136.5 52t48.5 156t-48.5 156t-136.5 52h-126v-416h126z" />
    <glyph glyph-name="E" unicode="E" horiz-adv-x="608" 
d="M259 465h254v-167h-254v-127h298v-171h-491v748h490v-171h-297v-112z" />
    <glyph glyph-name="F" unicode="F" horiz-adv-x="592" 
d="M259 468h237v-171h-237v-297h-193v748h490v-171h-297v-109z" />
    <glyph glyph-name="G" unicode="G" horiz-adv-x="843" 
d="M752 169q-44 -85 -126 -132.5t-193 -47.5q-112 0 -200.5 46.5t-138.5 133.5t-50 205t50 205t138.5 133.5t200.5 46.5q132 0 226.5 -66t128.5 -186l-200 -33q-17 54 -56 84t-101 30q-91 0 -140.5 -53.5t-49.5 -160.5t49.5 -160.5t140.5 -53.5q112 0 149 95h-149v171h365
v-62q0 -110 -44 -195z" />
    <glyph glyph-name="H" unicode="H" horiz-adv-x="768" 
d="M509 296h-250v-296h-193v748h193v-281h250v281h193v-748h-193v296z" />
    <glyph glyph-name="I" unicode="I" horiz-adv-x="325" 
d="M66 748h193v-748h-193v748z" />
    <glyph glyph-name="J" unicode="J" horiz-adv-x="635" 
d="M499.5 67.5q-74.5 -78.5 -207.5 -78.5q-121 0 -195 69t-82 194l193 32q4 -59 25.5 -91.5t60.5 -32.5q87 0 87 118v470h193v-463q0 -139 -74.5 -217.5z" />
    <glyph glyph-name="K" unicode="K" horiz-adv-x="749" 
d="M521 0l-169 293l-93 -116v-177h-193v748h193v-280l214 280h248l-241 -298l262 -450h-221z" />
    <glyph glyph-name="L" unicode="L" horiz-adv-x="591" 
d="M556 0h-490v748h193v-577h297v-171z" />
    <glyph glyph-name="M" unicode="M" horiz-adv-x="969" 
d="M710 319l-161 -309h-127l-163 309v-319h-193v748h172l248 -455l245 455h172v-748h-193v319z" />
    <glyph glyph-name="N" unicode="N" horiz-adv-x="773" 
d="M259 392v-392h-193v748h164l284 -394v394h193v-748h-165z" />
    <glyph glyph-name="O" unicode="O" horiz-adv-x="880" 
d="M645 711.5q90 -47.5 140.5 -135t50.5 -202.5t-50.5 -202.5t-140.5 -135t-204 -47.5q-115 0 -205.5 47.5t-141 135t-50.5 202.5t50.5 202.5t141 135t205.5 47.5q114 0 204 -47.5zM295 217.5q54 -57.5 146 -57.5q91 0 144.5 57.5t53.5 156.5t-53.5 156.5t-144.5 57.5
q-92 0 -146 -57.5t-54 -156.5t54 -156.5z" />
    <glyph glyph-name="P" unicode="P" horiz-adv-x="678" 
d="M589.5 681.5q67.5 -66.5 67.5 -183.5q0 -116 -67.5 -182.5t-181.5 -66.5h-149v-249h-193v748h342q114 0 181.5 -66.5zM384 419q35 0 56 21t21 58t-21 58t-56 21h-125v-158h125z" />
    <glyph glyph-name="Q" unicode="Q" horiz-adv-x="886" 
d="M441 -11q-115 0 -205.5 47.5t-141 135t-50.5 202.5t50.5 202.5t141 135t205.5 47.5q114 0 204 -47.5t140.5 -135t50.5 -202.5q0 -124 -59 -216l102 -100l-135 -136l-110 109q-87 -42 -193 -42zM295 217.5q54 -57.5 146 -57.5q30 0 55 6l-86 85l136 135l85 -83q8 34 8 71
q0 99 -53.5 156.5t-144.5 57.5q-92 0 -146 -57.5t-54 -156.5t54 -156.5z" />
    <glyph glyph-name="R" unicode="R" horiz-adv-x="720" 
d="M66 748h338q114 0 181.5 -66t67.5 -183q0 -75 -29 -130.5t-83 -85.5l151 -283h-218l-133 250h-12h-70v-250h-193v748zM381 421q36 0 56 21t20 57t-20 57t-56 21h-122v-156h122z" />
    <glyph glyph-name="S" unicode="S" horiz-adv-x="668" 
d="M479.5 730q65.5 -29 101.5 -84t37 -130l-197 -10q0 39 -23 62.5t-66 23.5q-36 0 -57.5 -17.5t-21.5 -48.5q0 -19 11 -31.5t37 -22.5t76 -21q82 -22 136 -49t85 -69.5t31 -106.5q0 -118 -79 -177.5t-202 -59.5q-92 0 -162 29.5t-108.5 86.5t-38.5 137l197 10
q-1 -43 30.5 -69.5t81.5 -26.5q84 0 84 60q0 27 -30 45.5t-97 35.5q-81 21 -133 44.5t-84 66.5t-32 112q0 66 30.5 120.5t92 86.5t149.5 32q86 0 151.5 -29z" />
    <glyph glyph-name="T" unicode="T" horiz-adv-x="700" 
d="M447 0h-193v577h-234v171h660v-171h-233v-577z" />
    <glyph glyph-name="U" unicode="U" horiz-adv-x="785" 
d="M683.5 141q-39.5 -74 -114 -113t-176.5 -39q-103 0 -177.5 39t-114.5 113t-40 177v430h193v-427q0 -78 34.5 -119.5t104.5 -41.5q69 0 103.5 41.5t34.5 119.5v427h192v-430q0 -103 -39.5 -177z" />
    <glyph glyph-name="V" unicode="V" horiz-adv-x="807" 
d="M7 748h211l185 -449l185 449h212l-315 -748h-163z" />
    <glyph glyph-name="W" unicode="W" horiz-adv-x="1129" 
d="M564 413l-134 -413h-162l-261 748h212l132 -430l134 430h159l133 -430l133 430h212l-261 -748h-163z" />
    <glyph glyph-name="X" unicode="X" horiz-adv-x="749" 
d="M512 0l-137 252l-138 -252h-223l217 380l-204 368h223l125 -239l124 239h223l-204 -368l217 -380h-223z" />
    <glyph glyph-name="Y" unicode="Y" horiz-adv-x="776" 
d="M292 0v274l-284 474h224l156 -282l156 282h224l-283 -474v-274h-193z" />
    <glyph glyph-name="Z" unicode="Z" horiz-adv-x="631" 
d="M598 171v-171h-560v146l301 431h-301v171h549v-146l-302 -431h313z" />
    <glyph glyph-name="bracketleft" unicode="[" horiz-adv-x="333" 
d="M232 74h81v-151h-264v795h264v-151h-81v-493z" />
    <glyph glyph-name="backslash" unicode="\" horiz-adv-x="455" 
d="M5 748h190l255 -815h-190z" />
    <glyph glyph-name="bracketright" unicode="]" horiz-adv-x="333" 
d="M20 74h81v493h-81v151h264v-795h-264v151z" />
    <glyph glyph-name="asciicircum" unicode="^" horiz-adv-x="621" 
d="M310 486l-78 -115h-207l285 397l286 -397h-207z" />
    <glyph glyph-name="underscore" unicode="_" horiz-adv-x="690" 
d="M45 0h600v-171h-600v171z" />
    <glyph glyph-name="grave" unicode="`" horiz-adv-x="287" 
d="M4 791h206l73 -191h-142z" />
    <glyph glyph-name="a" unicode="a" horiz-adv-x="566" 
d="M450.5 478.5q57.5 -53.5 57.5 -159.5v-319h-171v37q-19 -21 -51 -34.5t-75 -13.5q-81 0 -126.5 39.5t-45.5 114.5q0 85 63 121t165 40l59 2v27q0 49 -41 49q-24 0 -37 -14.5t-13 -31.5l-182 6q0 47 28.5 91t81 71.5t119.5 27.5q111 0 168.5 -53.5zM232 131q11 -9 30 -9
q25 0 44 15t19 38v25l-46 -2q-58 -3 -58 -40q0 -18 11 -27z" />
    <glyph glyph-name="b" unicode="b" horiz-adv-x="662" 
d="M299 522q33 10 73 10q74 0 131 -34.5t88.5 -96t31.5 -141.5q0 -79 -31.5 -140.5t-88.5 -96t-131 -34.5q-45 0 -80 13t-57 32v-34h-172v777h182v-281q21 16 54 26zM271.5 174.5q26.5 -29.5 69.5 -29.5q45 0 71.5 30.5t26.5 84.5q0 55 -26.5 85.5t-71.5 30.5
q-43 0 -69.5 -29.5t-26.5 -76.5v-19q0 -47 26.5 -76.5z" />
    <glyph glyph-name="c" unicode="c" horiz-adv-x="601" 
d="M481 477q70 -55 86 -150l-179 -16q-4 30 -24 47.5t-51 17.5q-41 0 -65.5 -31t-24.5 -85t24.5 -84.5t65.5 -30.5q31 0 51 17.5t24 47.5l178 -15q-15 -95 -85 -150.5t-168 -55.5q-79 0 -141.5 32.5t-97.5 94t-35 144.5q0 84 35 145.5t97.5 94t141.5 32.5q98 0 168 -55z" />
    <glyph glyph-name="d" unicode="d" horiz-adv-x="662" 
d="M370 2q-35 -13 -80 -13q-74 0 -131 34.5t-88.5 96t-31.5 140.5q0 80 31.5 141.5t88.5 96t131 34.5q40 0 73 -10t54 -26v281h182v-777h-172v34q-22 -19 -57 -32zM249.5 175.5q26.5 -30.5 71.5 -30.5q43 0 69.5 29.5t26.5 76.5v19q0 47 -26.5 76.5t-69.5 29.5
q-45 0 -71.5 -30.5t-26.5 -85.5q0 -54 26.5 -84.5z" />
    <glyph glyph-name="e" unicode="e" horiz-adv-x="603" 
d="M251.5 151.5q18.5 -22.5 57.5 -22.5q53 0 67 40l183 -9q-12 -78 -81.5 -124.5t-163.5 -46.5q-82 0 -144.5 33t-96.5 94.5t-34 143.5t34 143.5t95 95t141 33.5q76 0 133.5 -30.5t89.5 -90t32 -141.5v-59h-331q0 -37 18.5 -59.5zM380 318q-2 38 -20 59t-53 21
q-33 0 -52.5 -21.5t-21.5 -58.5h147z" />
    <glyph glyph-name="f" unicode="f" horiz-adv-x="403" 
d="M386 780v-157q-15 3 -37 3q-33 0 -54.5 -19t-21.5 -48v-38h113v-156h-113v-365h-183v365h-89v156h89v34q0 68 29.5 120t83.5 80.5t125 28.5q35 0 58 -4z" />
    <glyph glyph-name="g" unicode="g" horiz-adv-x="650" 
d="M370 519q35 -13 57 -32v34h172v-534q0 -75 -33.5 -132t-95 -88.5t-143.5 -31.5q-126 0 -195 55.5t-83 153.5l182 6q2 -28 25 -44.5t64 -16.5q46 0 71.5 21.5t25.5 63.5v51q-22 -16 -54.5 -26t-72.5 -10q-74 0 -131 34.5t-88.5 96t-31.5 140.5q0 80 31.5 141.5t88.5 96
t131 34.5q45 0 80 -13zM249.5 175.5q26.5 -30.5 71.5 -30.5q43 0 69.5 29.5t26.5 76.5v19q0 47 -26.5 76.5t-69.5 29.5q-45 0 -71.5 -30.5t-26.5 -85.5q0 -54 26.5 -84.5z" />
    <glyph glyph-name="h" unicode="h" horiz-adv-x="625" 
d="M363 532q93 0 148 -54t55 -153v-325h-182v281q0 40 -17.5 60.5t-50.5 20.5t-52 -21.5t-19 -60.5v-280h-182v777h182v-285q44 40 118 40z" />
    <glyph glyph-name="i" unicode="i" 
d="M229 756.5q31 -31.5 31 -75.5t-31 -75t-75 -31t-75 31t-31 75t31.5 75.5t74.5 31.5q44 0 75 -31.5zM63 521h182v-521h-182v521z" />
    <glyph glyph-name="j" unicode="j" 
d="M229 756.5q31 -31.5 31 -75.5t-31 -75t-75 -31t-75 31t-31 75t31 75.5t75 31.5t75 -31.5zM-51 -102q15 -3 38 -3q32 0 54 19.5t22 47.5v559h182v-555q0 -68 -29.5 -120t-83.5 -80.5t-125 -28.5q-35 0 -58 4v157z" />
    <glyph glyph-name="k" unicode="k" horiz-adv-x="609" 
d="M598 521l-183 -220l190 -301h-215l-104 164l-41 -47v-117h-182v777h182v-415l131 159h222z" />
    <glyph glyph-name="l" unicode="l" 
d="M63 777h182v-777h-182v777z" />
    <glyph glyph-name="m" unicode="m" horiz-adv-x="927" 
d="M815.5 478q53.5 -54 53.5 -154v-324h-182v281q0 81 -63 81q-33 0 -50 -21t-17 -61v-280h-182v281q0 41 -15.5 61t-48.5 20q-32 0 -49 -21t-17 -61v-280h-182v521h172v-36q38 47 122 47q53 0 94 -18t67 -53q52 71 151 71q93 0 146.5 -54z" />
    <glyph glyph-name="n" unicode="n" horiz-adv-x="624" 
d="M511 478q55 -54 55 -153v-325h-182v281q0 40 -17.5 60.5t-50.5 20.5t-52 -21.5t-19 -60.5v-280h-182v521h172v-36q16 20 49 33.5t79 13.5q93 0 148 -54z" />
    <glyph glyph-name="o" unicode="o" horiz-adv-x="643" 
d="M467.5 498q64.5 -34 100.5 -96t36 -142t-36 -141.5t-100.5 -95.5t-146.5 -34q-81 0 -145.5 34t-100.5 95.5t-36 141.5t36 142t100.5 96t145.5 34q82 0 146.5 -34zM249.5 175.5q26.5 -30.5 71.5 -30.5q46 0 72.5 30.5t26.5 84.5t-26.5 85t-72.5 31q-45 0 -71.5 -31
t-26.5 -85t26.5 -84.5z" />
    <glyph glyph-name="p" unicode="p" horiz-adv-x="662" 
d="M503 497.5q57 -34.5 88.5 -96t31.5 -141.5q0 -79 -31.5 -140.5t-88.5 -96t-131 -34.5q-40 0 -73 10t-54 26v-280h-182v776h172v-34q22 19 57 32t80 13q74 0 131 -34.5zM271.5 174.5q26.5 -29.5 69.5 -29.5q45 0 71.5 30.5t26.5 84.5q0 55 -26.5 85.5t-71.5 30.5
q-43 0 -69.5 -29.5t-26.5 -76.5v-19q0 -47 26.5 -76.5z" />
    <glyph glyph-name="q" unicode="q" horiz-adv-x="662" 
d="M370 519q35 -13 57 -32v34h172v-776h-182v280q-21 -16 -54 -26t-73 -10q-74 0 -131 34.5t-88.5 96t-31.5 140.5q0 80 31.5 141.5t88.5 96t131 34.5q45 0 80 -13zM249.5 175.5q26.5 -30.5 71.5 -30.5q43 0 69.5 29.5t26.5 76.5v19q0 47 -26.5 76.5t-69.5 29.5
q-45 0 -71.5 -30.5t-26.5 -85.5q0 -54 26.5 -84.5z" />
    <glyph glyph-name="r" unicode="r" horiz-adv-x="402" 
d="M280.5 321q-35.5 -29 -35.5 -78v-243h-182v521h176v-44q21 23 53 36t84 13v-176q-60 0 -95.5 -29z" />
    <glyph glyph-name="s" unicode="s" horiz-adv-x="510" 
d="M412 486q57 -46 63 -125l-182 -10q1 24 -9 38.5t-32 14.5q-18 0 -28 -8t-10 -23q0 -18 18.5 -26.5t71.5 -22.5q57 -16 94 -33t59 -46.5t22 -74.5q0 -83 -58.5 -132t-165.5 -49q-216 0 -231 171l183 10q-2 -53 48 -53q41 0 41 34q0 15 -14.5 24.5t-60.5 21.5
q-68 17 -106.5 34t-60.5 47.5t-22 82.5q0 79 59 125t161 46q103 0 160 -46z" />
    <glyph glyph-name="t" unicode="t" horiz-adv-x="433" 
d="M157.5 34.5q-55.5 45.5 -54.5 136.5l1 194h-94v156h95l1 168h182l-1 -168h111v-156h-112l-1 -146q0 -32 20.5 -49.5t49.5 -17.5q21 0 43 4v-161q-48 -6 -88 -6q-97 0 -152.5 45.5z" />
    <glyph glyph-name="u" unicode="u" horiz-adv-x="609" 
d="M252 -11q-92 0 -143 51t-51 147v334h182v-289q0 -39 13.5 -56t46.5 -17q64 0 64 71v291h182v-521h-172v36q-38 -47 -122 -47z" />
    <glyph glyph-name="v" unicode="v" horiz-adv-x="599" 
d="M1 521h203l96 -261l96 261h202l-226 -521h-145z" />
    <glyph glyph-name="w" unicode="w" horiz-adv-x="862" 
d="M432 218l-84 -218h-146l-201 521h203l77 -258l86 258h128l86 -258l77 258h203l-201 -521h-145z" />
    <glyph glyph-name="x" unicode="x" horiz-adv-x="577" 
d="M364 0l-77 136l-74 -136h-204l155 260l-155 261h202l76 -138l79 138h201l-155 -260l155 -261h-203z" />
    <glyph glyph-name="y" unicode="y" horiz-adv-x="599" 
d="M202 57l-201 464h202l97 -260l96 260h202l-336 -776h-199z" />
    <glyph glyph-name="z" unicode="z" horiz-adv-x="459" 
d="M425 147v-147h-391v120l176 254h-172v147h382v-120l-174 -254h179z" />
    <glyph glyph-name="braceleft" unicode="{" horiz-adv-x="334" 
d="M260.5 553.5q-13.5 -13.5 -13.5 -50.5q0 -19 3 -46q3 -22 3 -44q0 -41 -18.5 -64.5t-63.5 -27.5q45 -4 63.5 -27.5t18.5 -65.5q0 -21 -3 -44q-3 -27 -3 -46q0 -37 13.5 -50.5t48.5 -13.5h6v-151h-6q-109 0 -176.5 47.5t-67.5 138.5q0 27 6 57q9 40 9 50q0 18 -12.5 24
t-44.5 6h-8v149h8q32 0 44.5 6t12.5 24q0 10 -9 50q-6 30 -6 57q0 91 67.5 138.5t176.5 47.5h6v-151h-6q-35 0 -48.5 -13.5z" />
    <glyph glyph-name="bar" unicode="|" 
d="M63 748h183v-815h-183v815z" />
    <glyph glyph-name="braceright" unicode="}" horiz-adv-x="334" 
d="M202.5 671q67.5 -47 67.5 -138q0 -21 -7 -58q-8 -35 -8 -50q0 -18 12 -24t45 -6h8v-149h-8q-33 0 -45 -6t-12 -24q0 -15 8 -50q7 -37 7 -58q0 -91 -67.5 -138t-176.5 -47h-6v151h6q34 0 47.5 13.5t13.5 50.5q0 19 -3 46q-3 23 -3 42q0 43 18.5 67t64.5 28q-46 4 -64.5 28
t-18.5 67q0 19 3 41q3 27 3 46q0 37 -13.5 50.5t-47.5 13.5h-6v151h6q109 0 176.5 -47z" />
    <glyph glyph-name="asciitilde" unicode="~" horiz-adv-x="549" 
d="M378 259q-27 0 -49.5 7t-51.5 21q-27 13 -46 19.5t-41 6.5q-34 0 -58.5 -11t-46.5 -38l-81 121q72 98 167 98q27 0 49.5 -7.5t53.5 -21.5q26 -12 45 -18.5t40 -6.5q34 0 58.5 11t46.5 38l81 -121q-72 -98 -167 -98z" />
    <glyph glyph-name="exclamdown" unicode="&#xa1;" horiz-adv-x="350" 
d="M100.5 330.5q-31.5 31.5 -31.5 75.5t31.5 74.5t75.5 30.5t74.5 -30.5t30.5 -74.5t-30.5 -75.5t-74.5 -31.5t-75.5 31.5zM79 256h192l11 -504h-214z" />
    <glyph glyph-name="cent" unicode="&#xa2;" horiz-adv-x="601" 
d="M91 89.5q-52 68.5 -52 170.5q0 103 52 171.5t140 90.5v105h151v-103q73 -17 122.5 -68.5t62.5 -128.5l-179 -16q-4 30 -24 47.5t-51 17.5q-41 0 -65.5 -31t-24.5 -85t24.5 -84.5t65.5 -30.5q31 0 51 17.5t24 47.5l178 -15q-12 -77 -61.5 -129t-122.5 -69v-115h-151v117
q-88 22 -140 90.5z" />
    <glyph glyph-name="sterling" unicode="&#xa3;" horiz-adv-x="577" 
d="M97 193.5q19 30.5 16 97.5v1h-86v151h72l-4 37q-2 16 -2 47q0 112 59 172t172 60q108 0 167.5 -57t63.5 -162l-192 -10q-1 28 -12.5 43t-30.5 15q-25 0 -37 -19t-9 -55l8 -71h135v-151h-120v-3q0 -42 -10 -69.5t-30 -48.5h303v-171h-536v157q54 6 73 36.5z" />
    <glyph glyph-name="currency" unicode="&#xa4;" horiz-adv-x="610" 
d="M487 174l108 -108l-114 -115l-110 110q-30 -9 -66 -9q-32 0 -65 10l-111 -111l-115 115l110 110q-13 37 -13 76q0 38 13 77l-110 111l115 114l111 -111q33 10 65 10t65 -10l111 111l114 -114l-110 -110q14 -37 14 -78q0 -42 -12 -78zM305 180q22 0 34 19t12 53t-12 53
t-34 19q-23 0 -34.5 -19t-11.5 -53q0 -72 46 -72z" />
    <glyph glyph-name="yen" unicode="&#xa5;" horiz-adv-x="776" 
d="M614 245h-129v-51h129v-112h-129v-82h-193v82h-129v112h129v51h-129v113h79l-234 390h224l156 -282l156 282h224l-233 -390h79v-113z" />
    <glyph glyph-name="brokenbar" unicode="&#xa6;" 
d="M63 748h183v-319h-183v319zM63 252h183v-319h-183v319z" />
    <glyph glyph-name="section" unicode="&#xa7;" horiz-adv-x="538" 
d="M91.5 19q-62.5 47 -61.5 127l182 7q0 -24 14 -40t45 -16q25 0 38.5 11.5t13.5 30.5q0 16 -15.5 27t-64.5 23q-81 17 -127.5 33.5t-72.5 45.5t-26 77q0 42 19.5 72t54.5 53q-55 36 -55 115q0 50 27 89.5t78 62t121 22.5q110 0 169.5 -44.5t60.5 -120.5l-182 -7
q0 47 -46 47q-23 0 -34.5 -9.5t-11.5 -27.5q0 -16 15.5 -27.5t61.5 -23.5q84 -18 130 -34.5t71 -45t25 -77.5q0 -42 -19 -71.5t-54 -51.5q28 -18 42.5 -46t14.5 -70q0 -50 -28 -90.5t-81 -64t-126 -23.5q-116 0 -178.5 47zM205 339.5q20 -11.5 67 -21.5l42 -9q20 12 29.5 24
t9.5 31q0 18 -16.5 29t-54.5 20q-24 6 -57 12q-20 -12 -30 -24t-10 -31t20 -30.5z" />
    <glyph glyph-name="dieresis" unicode="&#xa8;" horiz-adv-x="418" 
d="M167 745.5q28 -27.5 28 -67.5t-27.5 -68t-68.5 -28q-40 0 -67.5 28t-27.5 68t27.5 67.5t67.5 27.5t68 -27.5zM250.5 745.5q27.5 27.5 67.5 27.5q41 0 69 -27.5t28 -67.5t-28 -68t-69 -28q-40 0 -67.5 28t-27.5 68t27.5 67.5z" />
    <glyph glyph-name="copyright" unicode="&#xa9;" horiz-adv-x="603" 
d="M443 728.5q63 -33.5 99 -92t36 -131.5q0 -74 -36 -133t-99 -92.5t-141 -33.5q-80 0 -143 33.5t-98.5 92.5t-35.5 133q0 73 35.5 131.5t98.5 92t143 33.5q78 0 141 -33.5zM120.5 402.5q25.5 -44.5 72.5 -69.5t109 -25q60 0 107 25t73 69.5t26 102.5q0 57 -26 101.5
t-73 69.5t-107 25q-62 0 -109 -24.5t-72.5 -69t-25.5 -102.5t25.5 -102.5zM189 621q44 42 114 42q57 0 97.5 -31.5t50.5 -85.5l-104 -8q-7 38 -46 38q-25 0 -39.5 -18.5t-14.5 -50.5q0 -34 15.5 -52t38.5 -18q19 0 31 10t15 29l103 -7q-9 -55 -49.5 -87t-97.5 -32
q-70 0 -114 42.5t-44 114.5t44 114z" />
    <glyph glyph-name="ordfeminine" unicode="&#xaa;" horiz-adv-x="466" 
d="M424 586v-257h-154v21q-36 -30 -99 -30q-69 0 -107.5 32t-38.5 93q0 67 51 95t138 33l47 3v22q0 15 -8.5 24.5t-22.5 9.5q-18 0 -27 -10t-9 -27l-159 5q0 38 24 74.5t68.5 59.5t101.5 23q195 0 195 -171zM218 433q18 0 30.5 9.5t12.5 23.5v19l-34 -2q-17 -2 -27.5 -9
t-10.5 -19q0 -22 29 -22z" />
    <glyph glyph-name="guillemotleft" unicode="&#xab;" horiz-adv-x="612" 
d="M314 105l-146 -89l-153 244l153 245l146 -89l-97 -156zM452 505l146 -89l-97 -156l97 -155l-146 -89l-153 244z" />
    <glyph glyph-name="logicalnot" unicode="&#xac;" horiz-adv-x="631" 
d="M455 331h-426v141h568v-336h-142v195z" />
    <glyph glyph-name="registered" unicode="&#xae;" horiz-adv-x="603" 
d="M159 279.5q-63 33.5 -98.5 92.5t-35.5 133q0 73 35.5 131.5t98.5 92t143 33.5q78 0 141 -33.5t99 -92t36 -131.5q0 -74 -36 -133t-99 -92.5t-141 -33.5q-80 0 -143 33.5zM120.5 402.5q25.5 -44.5 72.5 -69.5t109 -25q61 0 108 25t72.5 70t25.5 102t-26 101.5t-73 69.5
t-107 25q-62 0 -109 -24.5t-72.5 -69t-25.5 -102.5t25.5 -102.5zM177 659h150q47 0 74.5 -28t27.5 -76q0 -59 -39 -86l49 -110l-7 -6h-99l-42 97h-15v-97h-99v306zM300 529q28 0 28 25t-28 25h-24v-50h24z" />
    <glyph glyph-name="macron" unicode="&#xaf;" horiz-adv-x="331" 
d="M4 749h323v-140h-323v140z" />
    <glyph glyph-name="degree" unicode="&#xb0;" horiz-adv-x="395" 
d="M322 716.5q48 -41.5 48 -114.5v-22q0 -73 -48 -114.5t-125 -41.5t-124.5 41.5t-47.5 114.5v22q0 73 47.5 114.5t124.5 41.5t125 -41.5zM161 547.5q13 -13.5 36 -13.5q22 0 35.5 14t13.5 38v10q0 24 -13.5 38t-35.5 14q-23 0 -36 -13.5t-13 -38.5v-10q0 -25 13 -38.5z" />
    <glyph glyph-name="plusminus" unicode="&#xb1;" horiz-adv-x="548" 
d="M518 406h-155v-162h-177v162h-156v165h156v162h177v-162h155v-165zM30 200h488v-171h-488v171z" />
    <glyph glyph-name="acute" unicode="&#xb4;" horiz-adv-x="287" 
d="M77 791h206l-137 -191h-142z" />
    <glyph glyph-name="paragraph" unicode="&#xb6;" horiz-adv-x="737" 
d="M653 -67h-141v681h-75v-681h-140v429h-51q-100 0 -158.5 49.5t-58.5 143.5t58.5 143.5t158.5 49.5h477v-134h-70v-681z" />
    <glyph glyph-name="periodcentered" unicode="&#xb7;" horiz-adv-x="301" 
d="M215 416q31 -31 31 -75q0 -45 -31 -75.5t-75 -30.5t-75 30.5t-31 75.5q0 44 31 75t75 31t75 -31z" />
    <glyph glyph-name="cedilla" unicode="&#xb8;" horiz-adv-x="274" 
d="M228.5 -72.5q35.5 -29.5 35.5 -79.5q0 -51 -43 -77.5t-103 -26.5q-65 0 -103 19l27 86q20 -10 44 -10q16 0 29 7t13 22t-12 23.5t-29 8.5q-24 0 -38 -7l42 121h71l-15 -55q46 -2 81.5 -31.5z" />
    <glyph glyph-name="ordmasculine" unicode="&#xba;" horiz-adv-x="517" 
d="M377 729.5q52 -27.5 81.5 -77t29.5 -113.5q0 -65 -29 -114.5t-81.5 -77t-119.5 -27.5q-66 0 -118.5 27.5t-81.5 77t-29 114.5q0 64 29 113.5t81.5 77t118.5 27.5q67 0 119 -27.5zM210.5 480q16.5 -21 47.5 -21t48.5 21t17.5 59t-17.5 59t-48.5 21t-47.5 -21t-16.5 -59
t16.5 -59z" />
    <glyph glyph-name="guillemotright" unicode="&#xbb;" horiz-adv-x="612" 
d="M15 105l97 155l-97 156l145 89l154 -245l-154 -244zM395 260l-97 156l146 89l153 -245l-153 -244l-146 89z" />
    <glyph glyph-name="onequarter" unicode="&#xbc;" horiz-adv-x="761" 
d="M534 748h185l-494 -748h-185zM131 733h87v-411h-139v229l-32 -17l-59 113zM419 154l160 257h134v-242h33v-123h-33v-46h-139v46h-155v108zM574 169v56l-35 -56h35z" />
    <glyph glyph-name="onehalf" unicode="&#xbd;" horiz-adv-x="812" 
d="M534 748h185l-494 -748h-185zM131 733h87v-411h-139v229l-32 -17l-59 113zM504 96l131 142q10 11 14 20.5t4 23.5q0 6 -1.5 9t-3.5 3q-8 0 -8 -17l-136 8q1 62 39.5 97.5t101.5 35.5q73 0 110.5 -38t37.5 -100q0 -36 -15.5 -66.5t-41.5 -61.5l-23 -28h79v-124h-288v96z
" />
    <glyph glyph-name="threequarters" unicode="&#xbe;" horiz-adv-x="832" 
d="M606 748h185l-494 -748h-185zM157 456q-1 -3 -1 -9q0 -9 5 -9q8 0 8 17q0 20 -13 20h-46v108h44q7 0 12 4.5t5 12.5q0 7 -2.5 11t-5.5 4q-7 0 -6 -15l-136 8q-1 62 35.5 96.5t106.5 34.5t106.5 -34t36.5 -96q0 -26 -8 -43t-25 -33q16 -12 25.5 -33.5t9.5 -49.5
q0 -64 -40.5 -100t-105.5 -36q-71 0 -109 36t-37 97zM491 154l160 257h134v-242h33v-123h-33v-46h-139v46h-155v108zM646 169v56l-35 -56h35z" />
    <glyph glyph-name="questiondown" unicode="&#xbf;" horiz-adv-x="555" 
d="M199 351q-31 31 -31 75t31 75t75 31t75 -31t31 -75t-31 -75t-75 -31t-75 31zM39.5 82.5q24.5 34.5 69.5 71.5q5 4 26.5 21.5t32 34t10.5 33.5v34h192v-41q0 -29 -13.5 -54t-30.5 -42.5t-51 -48.5q-33 -31 -48.5 -51t-15.5 -43q0 -33 18 -50t48 -17q31 0 50.5 22t20.5 60
l192 -11q-1 -72 -34.5 -126.5t-93 -84.5t-135.5 -30q-121 0 -191.5 62t-70.5 172q0 54 24.5 88.5z" />
    <glyph glyph-name="Agrave" unicode="&#xc0;" horiz-adv-x="823" 
d="M123 957h248l115 -162h-164zM330 748h163l326 -748h-212l-52 119h-287l-52 -119h-212zM490 267l-79 182l-78 -182h157z" />
    <glyph glyph-name="Aacute" unicode="&#xc1;" horiz-adv-x="823" 
d="M444 957h247l-199 -162h-164zM330 748h163l326 -748h-212l-52 119h-287l-52 -119h-212zM490 267l-79 182l-78 -182h157z" />
    <glyph glyph-name="Acircumflex" unicode="&#xc2;" horiz-adv-x="823" 
d="M411 861l-51 -66h-152l115 170h177l114 -170h-151zM330 748h163l326 -748h-212l-52 119h-287l-52 -119h-212zM490 267l-79 182l-78 -182h157z" />
    <glyph glyph-name="Atilde" unicode="&#xc3;" horiz-adv-x="823" 
d="M377 966.5q18 -7.5 39 -21.5q19 -11 28.5 -15.5t21.5 -4.5q37 0 37 42h102q1 -8 1 -23q0 -65 -32.5 -110.5t-86.5 -45.5q-25 0 -43 7.5t-41 22.5q-29 20 -47 20q-37 0 -37 -43h-102q-1 8 -1 23q0 66 32.5 111t86.5 45q24 0 42 -7.5zM330 748h163l326 -748h-212l-52 119
h-287l-52 -119h-212zM490 267l-79 182l-78 -182h157z" />
    <glyph glyph-name="Adieresis" unicode="&#xc4;" horiz-adv-x="823" 
d="M369 952q28 -28 28 -68t-27.5 -67.5t-68.5 -27.5q-40 0 -67.5 27.5t-27.5 67.5t27.5 68t67.5 28t68 -28zM330 748h163l326 -748h-212l-52 119h-287l-52 -119h-212zM490 267l-79 182l-78 -182h157zM452.5 952q27.5 28 67.5 28t68.5 -28t28.5 -68t-28 -67.5t-69 -27.5
q-40 0 -67.5 27.5t-27.5 67.5t27.5 68z" />
    <glyph glyph-name="Aring" unicode="&#xc5;" horiz-adv-x="823" 
d="M497 987q35 -32 35 -81t-35 -81t-86 -32q-52 0 -87 32t-35 81q0 50 35 81.5t87 31.5q51 0 86 -32zM330 748h163l326 -748h-212l-52 119h-287l-52 -119h-212zM490 267l-79 182l-78 -182h157zM385.5 881.5q9.5 -9.5 25.5 -9.5q15 0 24.5 9.5t9.5 24.5t-9.5 25t-24.5 10
q-16 0 -25.5 -10t-9.5 -25t9.5 -24.5z" />
    <glyph glyph-name="AE" unicode="&#xc6;" horiz-adv-x="1073" 
d="M531 0v119h-211l-82 -119h-235l507 748h511v-171h-297v-112h254v-167h-254v-127h298v-171h-491zM531 267v171l-113 -171h113z" />
    <glyph glyph-name="Ccedilla" unicode="&#xc7;" horiz-adv-x="837" 
d="M312 -242l27 86q20 -10 44 -10q16 0 29 7t13 22t-12 23.5t-29 8.5q-24 0 -38 -7l36 104q-99 10 -175.5 59t-119.5 131.5t-43 191.5q0 118 50 205t138.5 133.5t200.5 46.5q92 0 169.5 -35t128.5 -100.5t65 -153.5l-202 -19q-16 69 -59 103t-109 34q-85 0 -135 -58.5
t-50 -155.5q0 -103 51.5 -158.5t133.5 -55.5q66 0 110.5 35t57.5 102l202 -17q-14 -85 -61.5 -149.5t-120.5 -101t-160 -40.5l-10 -35q46 -2 81.5 -31.5t35.5 -79.5q0 -51 -43 -77.5t-103 -26.5q-65 0 -103 19z" />
    <glyph glyph-name="Egrave" unicode="&#xc8;" horiz-adv-x="608" 
d="M27 957h248l115 -162h-164zM66 748h490v-171h-297v-112h254v-167h-254v-127h298v-171h-491v748z" />
    <glyph glyph-name="Eacute" unicode="&#xc9;" horiz-adv-x="608" 
d="M348 957h247l-199 -162h-164zM66 748h490v-171h-297v-112h254v-167h-254v-127h298v-171h-491v748z" />
    <glyph glyph-name="Ecircumflex" unicode="&#xca;" horiz-adv-x="608" 
d="M315 861l-51 -66h-152l115 170h177l114 -170h-151zM66 748h490v-171h-297v-112h254v-167h-254v-127h298v-171h-491v748z" />
    <glyph glyph-name="Edieresis" unicode="&#xcb;" horiz-adv-x="608" 
d="M273 952q28 -28 28 -68t-27.5 -67.5t-68.5 -27.5q-40 0 -67.5 27.5t-27.5 67.5t27.5 68t67.5 28t68 -28zM66 748h490v-171h-297v-112h254v-167h-254v-127h298v-171h-491v748zM356.5 952q27.5 28 67.5 28t68.5 -28t28.5 -68t-28 -67.5t-69 -27.5q-40 0 -67.5 27.5
t-27.5 67.5t27.5 68z" />
    <glyph glyph-name="Igrave" unicode="&#xcc;" horiz-adv-x="325" 
d="M-120 957h248l115 -162h-164zM66 748h193v-748h-193v748z" />
    <glyph glyph-name="Iacute" unicode="&#xcd;" horiz-adv-x="325" 
d="M201 957h247l-199 -162h-164zM66 748h193v-748h-193v748z" />
    <glyph glyph-name="Icircumflex" unicode="&#xce;" horiz-adv-x="325" 
d="M168 861l-51 -66h-152l115 170h177l114 -170h-151zM66 748h193v-748h-193v748z" />
    <glyph glyph-name="Idieresis" unicode="&#xcf;" horiz-adv-x="325" 
d="M126 952q28 -28 28 -68t-27.5 -67.5t-68.5 -27.5q-40 0 -67.5 27.5t-27.5 67.5t27.5 68t67.5 28t68 -28zM66 748h193v-748h-193v748zM209.5 952q27.5 28 67.5 28t68.5 -28t28.5 -68t-28 -67.5t-69 -27.5q-40 0 -67.5 27.5t-27.5 67.5t27.5 68z" />
    <glyph glyph-name="Eth" unicode="&#xd0;" horiz-adv-x="812" 
d="M594 703q86 -45 134.5 -129.5t48.5 -199.5t-48.5 -199.5t-134.5 -129.5t-195 -45h-317v300h-71v147h71v301h317q109 0 195 -45zM401 166q88 0 136.5 52t48.5 156t-48.5 156t-136.5 52h-126v-135h84v-147h-84v-134h126z" />
    <glyph glyph-name="Ntilde" unicode="&#xd1;" horiz-adv-x="773" 
d="M342 966.5q18 -7.5 39 -21.5q19 -11 28.5 -15.5t21.5 -4.5q37 0 37 42h102q1 -8 1 -23q0 -65 -32.5 -110.5t-86.5 -45.5q-25 0 -43 7.5t-41 22.5q-29 20 -47 20q-37 0 -37 -43h-102q-1 8 -1 23q0 66 32.5 111t86.5 45q24 0 42 -7.5zM66 748h164l284 -394v394h193v-748
h-165l-283 392v-392h-193v748z" />
    <glyph glyph-name="Ograve" unicode="&#xd2;" horiz-adv-x="880" 
d="M153 957h248l115 -162h-164zM94.5 576.5q50.5 87.5 141 135t205.5 47.5q114 0 204 -47.5t140.5 -135t50.5 -202.5t-50.5 -202.5t-140.5 -135t-204 -47.5q-115 0 -205.5 47.5t-141 135t-50.5 202.5t50.5 202.5zM295 217.5q54 -57.5 146 -57.5q91 0 144.5 57.5t53.5 156.5
t-53.5 156.5t-144.5 57.5q-92 0 -146 -57.5t-54 -156.5t54 -156.5z" />
    <glyph glyph-name="Oacute" unicode="&#xd3;" horiz-adv-x="880" 
d="M474 957h247l-199 -162h-164zM94.5 576.5q50.5 87.5 141 135t205.5 47.5q114 0 204 -47.5t140.5 -135t50.5 -202.5t-50.5 -202.5t-140.5 -135t-204 -47.5q-115 0 -205.5 47.5t-141 135t-50.5 202.5t50.5 202.5zM295 217.5q54 -57.5 146 -57.5q91 0 144.5 57.5t53.5 156.5
t-53.5 156.5t-144.5 57.5q-92 0 -146 -57.5t-54 -156.5t54 -156.5z" />
    <glyph glyph-name="Ocircumflex" unicode="&#xd4;" horiz-adv-x="880" 
d="M441 861l-51 -66h-152l115 170h177l114 -170h-151zM94.5 576.5q50.5 87.5 141 135t205.5 47.5q114 0 204 -47.5t140.5 -135t50.5 -202.5t-50.5 -202.5t-140.5 -135t-204 -47.5q-115 0 -205.5 47.5t-141 135t-50.5 202.5t50.5 202.5zM295 217.5q54 -57.5 146 -57.5
q91 0 144.5 57.5t53.5 156.5t-53.5 156.5t-144.5 57.5q-92 0 -146 -57.5t-54 -156.5t54 -156.5z" />
    <glyph glyph-name="Otilde" unicode="&#xd5;" horiz-adv-x="880" 
d="M407 966.5q18 -7.5 39 -21.5q19 -11 28.5 -15.5t21.5 -4.5q37 0 37 42h102q1 -8 1 -23q0 -65 -32.5 -110.5t-86.5 -45.5q-25 0 -43 7.5t-41 22.5q-29 20 -47 20q-37 0 -37 -43h-102q-1 8 -1 23q0 66 32.5 111t86.5 45q24 0 42 -7.5zM94.5 576.5q50.5 87.5 141 135
t205.5 47.5q114 0 204 -47.5t140.5 -135t50.5 -202.5t-50.5 -202.5t-140.5 -135t-204 -47.5q-115 0 -205.5 47.5t-141 135t-50.5 202.5t50.5 202.5zM295 217.5q54 -57.5 146 -57.5q91 0 144.5 57.5t53.5 156.5t-53.5 156.5t-144.5 57.5q-92 0 -146 -57.5t-54 -156.5
t54 -156.5z" />
    <glyph glyph-name="Odieresis" unicode="&#xd6;" horiz-adv-x="880" 
d="M400 952q28 -28 28 -68t-27.5 -67.5t-68.5 -27.5q-40 0 -67.5 27.5t-27.5 67.5t27.5 68t67.5 28t68 -28zM94.5 576.5q50.5 87.5 141 135t205.5 47.5q114 0 204 -47.5t140.5 -135t50.5 -202.5t-50.5 -202.5t-140.5 -135t-204 -47.5q-115 0 -205.5 47.5t-141 135
t-50.5 202.5t50.5 202.5zM295 217.5q54 -57.5 146 -57.5q91 0 144.5 57.5t53.5 156.5t-53.5 156.5t-144.5 57.5q-92 0 -146 -57.5t-54 -156.5t54 -156.5zM483.5 952q27.5 28 67.5 28t68.5 -28t28.5 -68t-28 -67.5t-69 -27.5q-40 0 -67.5 27.5t-27.5 67.5t27.5 68z" />
    <glyph glyph-name="multiply" unicode="&#xd7;" horiz-adv-x="565" 
d="M526 248l-121 -120l-122 122l-123 -122l-121 121l123 122l-123 123l121 121l123 -123l122 123l121 -121l-123 -123z" />
    <glyph glyph-name="Oslash" unicode="&#xd8;" horiz-adv-x="882" 
d="M810.5 523q25.5 -68 25.5 -149q0 -115 -50.5 -202.5t-140.5 -135t-204 -47.5q-97 0 -177 34l-62 -81l-118 90l58 75q-47 51 -72.5 119t-25.5 148q0 115 50.5 202.5t141 135t205.5 47.5q95 0 175 -34l63 83l118 -89l-59 -78q47 -50 72.5 -118zM263 265l241 315
q-30 8 -63 8q-92 0 -146 -57.5t-54 -156.5q0 -60 22 -109zM441 160q91 0 144.5 57.5t53.5 156.5q0 65 -22 110l-241 -315q30 -9 65 -9z" />
    <glyph glyph-name="Ugrave" unicode="&#xd9;" horiz-adv-x="785" 
d="M105 957h248l115 -162h-164zM61 748h193v-427q0 -78 34.5 -119.5t104.5 -41.5q69 0 103.5 41.5t34.5 119.5v427h192v-430q0 -103 -39.5 -177t-114 -113t-176.5 -39q-103 0 -177.5 39t-114.5 113t-40 177v430z" />
    <glyph glyph-name="Uacute" unicode="&#xda;" horiz-adv-x="785" 
d="M426 957h247l-199 -162h-164zM61 748h193v-427q0 -78 34.5 -119.5t104.5 -41.5q69 0 103.5 41.5t34.5 119.5v427h192v-430q0 -103 -39.5 -177t-114 -113t-176.5 -39q-103 0 -177.5 39t-114.5 113t-40 177v430z" />
    <glyph glyph-name="Ucircumflex" unicode="&#xdb;" horiz-adv-x="785" 
d="M393 861l-51 -66h-152l115 170h177l114 -170h-151zM61 748h193v-427q0 -78 34.5 -119.5t104.5 -41.5q69 0 103.5 41.5t34.5 119.5v427h192v-430q0 -103 -39.5 -177t-114 -113t-176.5 -39q-103 0 -177.5 39t-114.5 113t-40 177v430z" />
    <glyph glyph-name="Udieresis" unicode="&#xdc;" horiz-adv-x="785" 
d="M351 952q28 -28 28 -68t-27.5 -67.5t-68.5 -27.5q-40 0 -67.5 27.5t-27.5 67.5t27.5 68t67.5 28t68 -28zM61 748h193v-427q0 -78 34.5 -119.5t104.5 -41.5q69 0 103.5 41.5t34.5 119.5v427h192v-430q0 -103 -39.5 -177t-114 -113t-176.5 -39q-103 0 -177.5 39t-114.5 113
t-40 177v430zM434.5 952q27.5 28 67.5 28t68.5 -28t28.5 -68t-28 -67.5t-69 -27.5q-40 0 -67.5 27.5t-27.5 67.5t27.5 68z" />
    <glyph glyph-name="Yacute" unicode="&#xdd;" horiz-adv-x="776" 
d="M421 957h247l-199 -162h-164zM232 748l156 -282l156 282h224l-283 -474v-274h-193v274l-284 474h224z" />
    <glyph glyph-name="Thorn" unicode="&#xde;" horiz-adv-x="669" 
d="M580 592.5q68 -66.5 68 -183.5t-68 -183.5t-182 -66.5h-139v-159h-193v748h193v-89h139q114 0 182 -66.5zM374 330q36 0 56.5 21t20.5 58t-20.5 58t-56.5 21h-115v-158h115z" />
    <glyph glyph-name="germandbls" unicode="&#xdf;" horiz-adv-x="674" 
d="M453 762q59 -23 91.5 -65t32.5 -97q0 -38 -12.5 -60t-36.5 -45q-19 -18 -27.5 -31t-8.5 -33q0 -23 14 -39.5t43 -39.5q28 -23 45.5 -41t30 -45.5t12.5 -65.5q0 -66 -32 -113t-87.5 -71t-124.5 -24q-59 0 -112 19l34 146q33 -13 60 -13q32 0 55 19.5t23 54.5
q0 25 -16.5 45t-50.5 48q-38 31 -58 56t-20 60t13 53.5t36 35.5q18 13 26.5 24t8.5 28q0 31 -18 48.5t-54 17.5t-55.5 -23t-19.5 -67v-544h-183v549q0 72 31.5 125t89 82t134.5 29t136 -23z" />
    <glyph glyph-name="agrave" unicode="&#xe0;" horiz-adv-x="566" 
d="M80 791h206l73 -191h-142zM102 264q63 36 165 40l59 2v27q0 49 -41 49q-24 0 -37 -14.5t-13 -31.5l-182 6q0 47 28.5 91t81 71.5t119.5 27.5q111 0 168.5 -53.5t57.5 -159.5v-319h-171v37q-19 -21 -51 -34.5t-75 -13.5q-81 0 -126.5 39.5t-45.5 114.5q0 85 63 121z
M232 131q11 -9 30 -9q25 0 44 15t19 38v25l-46 -2q-58 -3 -58 -40q0 -18 11 -27z" />
    <glyph glyph-name="aacute" unicode="&#xe1;" horiz-adv-x="566" 
d="M293 791h206l-137 -191h-142zM102 264q63 36 165 40l59 2v27q0 49 -41 49q-24 0 -37 -14.5t-13 -31.5l-182 6q0 47 28.5 91t81 71.5t119.5 27.5q111 0 168.5 -53.5t57.5 -159.5v-319h-171v37q-19 -21 -51 -34.5t-75 -13.5q-81 0 -126.5 39.5t-45.5 114.5q0 85 63 121z
M232 131q11 -9 30 -9q25 0 44 15t19 38v25l-46 -2q-58 -3 -58 -40q0 -18 11 -27z" />
    <glyph glyph-name="acircumflex" unicode="&#xe2;" horiz-adv-x="566" 
d="M293 665l-51 -65h-152l115 182h177l114 -182h-151zM102 264q63 36 165 40l59 2v27q0 49 -41 49q-24 0 -37 -14.5t-13 -31.5l-182 6q0 47 28.5 91t81 71.5t119.5 27.5q111 0 168.5 -53.5t57.5 -159.5v-319h-171v37q-19 -21 -51 -34.5t-75 -13.5q-81 0 -126.5 39.5
t-45.5 114.5q0 85 63 121zM232 131q11 -9 30 -9q25 0 44 15t19 38v25l-46 -2q-58 -3 -58 -40q0 -18 11 -27z" />
    <glyph glyph-name="atilde" unicode="&#xe3;" horiz-adv-x="566" 
d="M259 768.5q18 -7.5 39 -21.5q19 -11 28.5 -15.5t21.5 -4.5q37 0 37 42h102q1 -8 1 -23q0 -65 -32.5 -110t-86.5 -45q-25 0 -43 7.5t-41 22.5q-15 10 -25.5 14.5t-21.5 4.5q-37 0 -37 -42h-102q-1 8 -1 23q0 65 32.5 110t86.5 45q24 0 42 -7.5zM102 264q63 36 165 40l59 2
v27q0 49 -41 49q-24 0 -37 -14.5t-13 -31.5l-182 6q0 47 28.5 91t81 71.5t119.5 27.5q111 0 168.5 -53.5t57.5 -159.5v-319h-171v37q-19 -21 -51 -34.5t-75 -13.5q-81 0 -126.5 39.5t-45.5 114.5q0 85 63 121zM232 131q11 -9 30 -9q25 0 44 15t19 38v25l-46 -2
q-58 -3 -58 -40q0 -18 11 -27z" />
    <glyph glyph-name="adieresis" unicode="&#xe4;" horiz-adv-x="566" 
d="M251 745.5q28 -27.5 28 -67.5t-27.5 -68t-68.5 -28q-40 0 -67.5 28t-27.5 68t27.5 67.5t67.5 27.5t68 -27.5zM102 264q63 36 165 40l59 2v27q0 49 -41 49q-24 0 -37 -14.5t-13 -31.5l-182 6q0 47 28.5 91t81 71.5t119.5 27.5q111 0 168.5 -53.5t57.5 -159.5v-319h-171v37
q-19 -21 -51 -34.5t-75 -13.5q-81 0 -126.5 39.5t-45.5 114.5q0 85 63 121zM232 131q11 -9 30 -9q25 0 44 15t19 38v25l-46 -2q-58 -3 -58 -40q0 -18 11 -27zM334.5 745.5q27.5 27.5 67.5 27.5q41 0 69 -27.5t28 -67.5t-28 -68t-69 -28q-40 0 -67.5 28t-27.5 68t27.5 67.5z
" />
    <glyph glyph-name="aring" unicode="&#xe5;" horiz-adv-x="566" 
d="M394 800.5q41 -37.5 41 -93.5q0 -57 -41 -94.5t-100 -37.5q-60 0 -101 37.5t-41 94.5q0 56 41 93.5t101 37.5q59 0 100 -37.5zM102 264q63 36 165 40l59 2v27q0 49 -41 49q-24 0 -37 -14.5t-13 -31.5l-182 6q0 47 28.5 91t81 71.5t119.5 27.5q111 0 168.5 -53.5
t57.5 -159.5v-319h-171v37q-19 -21 -51 -34.5t-75 -13.5q-81 0 -126.5 39.5t-45.5 114.5q0 85 63 121zM232 131q11 -9 30 -9q25 0 44 15t19 38v25l-46 -2q-58 -3 -58 -40q0 -18 11 -27zM265.5 679q10.5 -11 28.5 -11q17 0 27.5 11t10.5 28t-10.5 27.5t-27.5 10.5
q-18 0 -28.5 -10.5t-10.5 -27.5t10.5 -28z" />
    <glyph glyph-name="ae" unicode="&#xe6;" horiz-adv-x="891" 
d="M540 151.5q19 -22.5 58 -22.5q53 0 66 40l184 -9q-12 -78 -81.5 -124.5t-164.5 -46.5q-59 0 -108.5 17.5t-85.5 50.5q-78 -68 -176 -68q-92 0 -142.5 40.5t-50.5 115.5q0 85 62.5 120t165.5 39l59 2v23q0 52 -43 52q-23 0 -35.5 -14t-12.5 -31l-182 6q0 48 27.5 91.5
t78 71t117.5 27.5q99 0 155 -49q69 49 167 49q75 0 133 -30.5t90 -90t32 -141.5v-59h-332q0 -37 19 -59.5zM262 122q26 0 44.5 15.5t18.5 37.5v25l-46 -2q-58 -3 -58 -41q0 -35 41 -35zM668 318q-2 38 -20 59t-52 21t-53.5 -21.5t-21.5 -58.5h147z" />
    <glyph glyph-name="ccedilla" unicode="&#xe7;" horiz-adv-x="601" 
d="M190 -241l27 86q20 -10 44 -10q16 0 29 7t13 22t-12 23.5t-29 8.5q-24 0 -38 -7l36 104q-100 15 -160.5 86t-60.5 181q0 84 35 145.5t97.5 94t141.5 32.5q98 0 168 -55t86 -150l-179 -16q-4 30 -24 47.5t-51 17.5q-41 0 -65.5 -31t-24.5 -85t24.5 -84.5t65.5 -30.5
q31 0 51 17.5t24 47.5l178 -15q-14 -91 -78 -145.5t-157 -59.5l-9 -35q46 -2 81.5 -31.5t35.5 -79.5q0 -51 -43 -77.5t-103 -26.5q-65 0 -103 19z" />
    <glyph glyph-name="egrave" unicode="&#xe8;" horiz-adv-x="603" 
d="M298 791l73 -191h-142l-137 191h206zM73 403.5q34 61.5 95 95t141 33.5q76 0 133.5 -30.5t89.5 -90t32 -141.5v-59h-331q0 -37 18.5 -59.5t57.5 -22.5q53 0 67 40l183 -9q-12 -78 -81.5 -124.5t-163.5 -46.5q-82 0 -144.5 33t-96.5 94.5t-34 143.5t34 143.5zM380 318
q-2 38 -20 59t-53 21q-33 0 -52.5 -21.5t-21.5 -58.5h147z" />
    <glyph glyph-name="eacute" unicode="&#xe9;" horiz-adv-x="603" 
d="M304 791h206l-137 -191h-142zM73 403.5q34 61.5 95 95t141 33.5q76 0 133.5 -30.5t89.5 -90t32 -141.5v-59h-331q0 -37 18.5 -59.5t57.5 -22.5q53 0 67 40l183 -9q-12 -78 -81.5 -124.5t-163.5 -46.5q-82 0 -144.5 33t-96.5 94.5t-34 143.5t34 143.5zM380 318
q-2 38 -20 59t-53 21q-33 0 -52.5 -21.5t-21.5 -58.5h147z" />
    <glyph glyph-name="ecircumflex" unicode="&#xea;" horiz-adv-x="603" 
d="M217 782h177l114 -182h-151l-52 65l-51 -65h-152zM73 403.5q34 61.5 95 95t141 33.5q76 0 133.5 -30.5t89.5 -90t32 -141.5v-59h-331q0 -37 18.5 -59.5t57.5 -22.5q53 0 67 40l183 -9q-12 -78 -81.5 -124.5t-163.5 -46.5q-82 0 -144.5 33t-96.5 94.5t-34 143.5t34 143.5z
M380 318q-2 38 -20 59t-53 21q-33 0 -52.5 -21.5t-21.5 -58.5h147z" />
    <glyph glyph-name="edieresis" unicode="&#xeb;" horiz-adv-x="603" 
d="M127.5 610q-27.5 28 -27.5 68t27.5 67.5t67.5 27.5t68 -27.5t28 -67.5t-27.5 -68t-68.5 -28q-40 0 -67.5 28zM73 403.5q34 61.5 95 95t141 33.5q76 0 133.5 -30.5t89.5 -90t32 -141.5v-59h-331q0 -37 18.5 -59.5t57.5 -22.5q53 0 67 40l183 -9q-12 -78 -81.5 -124.5
t-163.5 -46.5q-82 0 -144.5 33t-96.5 94.5t-34 143.5t34 143.5zM380 318q-2 38 -20 59t-53 21q-33 0 -52.5 -21.5t-21.5 -58.5h147zM346.5 745.5q27.5 27.5 67.5 27.5q41 0 69 -27.5t28 -67.5t-28 -68t-69 -28q-40 0 -67.5 28t-27.5 68t27.5 67.5z" />
    <glyph glyph-name="igrave" unicode="&#xec;" 
d="M-55 791h206l73 -191h-142zM63 521h182v-521h-182v521z" />
    <glyph glyph-name="iacute" unicode="&#xed;" 
d="M157 791h206l-137 -191h-142zM63 521h182v-521h-182v521z" />
    <glyph glyph-name="icircumflex" unicode="&#xee;" 
d="M158 665l-51 -65h-152l115 182h177l114 -182h-151zM63 521h182v-521h-182v521z" />
    <glyph glyph-name="idieresis" unicode="&#xef;" 
d="M115 745.5q28 -27.5 28 -67.5t-27.5 -68t-68.5 -28q-40 0 -67.5 28t-27.5 68t27.5 67.5t67.5 27.5t68 -27.5zM63 521h182v-521h-182v521zM198.5 745.5q27.5 27.5 67.5 27.5q41 0 69 -27.5t28 -67.5t-28 -68t-69 -28q-40 0 -67.5 28t-27.5 68t27.5 67.5z" />
    <glyph glyph-name="eth" unicode="&#xf0;" horiz-adv-x="610" 
d="M538 506q35 -101 35 -229q0 -137 -73 -212.5t-200 -75.5q-70 0 -130 29.5t-95.5 86t-35.5 133.5q0 74 35.5 129t95 83.5t129.5 28.5q39 0 75 -9q-19 58 -47 92l-58 -61l-82 80l44 46q-45 15 -100 18v132q118 0 205 -41l69 72l84 -78l-56 -58q70 -65 105 -166z
M242.5 162.5q25.5 -27.5 65.5 -27.5q42 0 64.5 29.5t22.5 71.5q0 48 -22.5 75.5t-64.5 27.5q-40 0 -65.5 -28t-25.5 -74q0 -47 25.5 -74.5z" />
    <glyph glyph-name="ntilde" unicode="&#xf1;" horiz-adv-x="624" 
d="M291 768.5q18 -7.5 39 -21.5q19 -11 28.5 -15.5t21.5 -4.5q37 0 37 42h102q1 -8 1 -23q0 -65 -32.5 -110t-86.5 -45q-25 0 -43 7.5t-41 22.5q-15 10 -25.5 14.5t-21.5 4.5q-37 0 -37 -42h-102q-1 8 -1 23q0 65 32.5 110t86.5 45q24 0 42 -7.5zM63 521h172v-36
q16 20 49 33.5t79 13.5q93 0 148 -54t55 -153v-325h-182v281q0 40 -17.5 60.5t-50.5 20.5t-52 -21.5t-19 -60.5v-280h-182v521z" />
    <glyph glyph-name="ograve" unicode="&#xf2;" horiz-adv-x="643" 
d="M107 791h206l73 -191h-142zM75 402q36 62 100.5 96t145.5 34q82 0 146.5 -34t100.5 -96t36 -142t-36 -141.5t-100.5 -95.5t-146.5 -34q-81 0 -145.5 34t-100.5 95.5t-36 141.5t36 142zM249.5 175.5q26.5 -30.5 71.5 -30.5q46 0 72.5 30.5t26.5 84.5t-26.5 85t-72.5 31
q-45 0 -71.5 -31t-26.5 -85t26.5 -84.5z" />
    <glyph glyph-name="oacute" unicode="&#xf3;" horiz-adv-x="643" 
d="M320 791h206l-137 -191h-142zM75 402q36 62 100.5 96t145.5 34q82 0 146.5 -34t100.5 -96t36 -142t-36 -141.5t-100.5 -95.5t-146.5 -34q-81 0 -145.5 34t-100.5 95.5t-36 141.5t36 142zM249.5 175.5q26.5 -30.5 71.5 -30.5q46 0 72.5 30.5t26.5 84.5t-26.5 85t-72.5 31
q-45 0 -71.5 -31t-26.5 -85t26.5 -84.5z" />
    <glyph glyph-name="ocircumflex" unicode="&#xf4;" horiz-adv-x="643" 
d="M320 665l-51 -65h-152l115 182h177l114 -182h-151zM75 402q36 62 100.5 96t145.5 34q82 0 146.5 -34t100.5 -96t36 -142t-36 -141.5t-100.5 -95.5t-146.5 -34q-81 0 -145.5 34t-100.5 95.5t-36 141.5t36 142zM249.5 175.5q26.5 -30.5 71.5 -30.5q46 0 72.5 30.5
t26.5 84.5t-26.5 85t-72.5 31q-45 0 -71.5 -31t-26.5 -85t26.5 -84.5z" />
    <glyph glyph-name="otilde" unicode="&#xf5;" horiz-adv-x="643" 
d="M286 768.5q18 -7.5 39 -21.5q19 -11 28.5 -15.5t21.5 -4.5q37 0 37 42h102q1 -8 1 -23q0 -65 -32.5 -110t-86.5 -45q-25 0 -43 7.5t-41 22.5q-15 10 -25.5 14.5t-21.5 4.5q-37 0 -37 -42h-102q-1 8 -1 23q0 65 32.5 110t86.5 45q24 0 42 -7.5zM75 402q36 62 100.5 96
t145.5 34q82 0 146.5 -34t100.5 -96t36 -142t-36 -141.5t-100.5 -95.5t-146.5 -34q-81 0 -145.5 34t-100.5 95.5t-36 141.5t36 142zM249.5 175.5q26.5 -30.5 71.5 -30.5q46 0 72.5 30.5t26.5 84.5t-26.5 85t-72.5 31q-45 0 -71.5 -31t-26.5 -85t26.5 -84.5z" />
    <glyph glyph-name="odieresis" unicode="&#xf6;" horiz-adv-x="643" 
d="M278 745.5q28 -27.5 28 -67.5t-27.5 -68t-68.5 -28q-40 0 -67.5 28t-27.5 68t27.5 67.5t67.5 27.5t68 -27.5zM75 402q36 62 100.5 96t145.5 34q82 0 146.5 -34t100.5 -96t36 -142t-36 -141.5t-100.5 -95.5t-146.5 -34q-81 0 -145.5 34t-100.5 95.5t-36 141.5t36 142z
M249.5 175.5q26.5 -30.5 71.5 -30.5q46 0 72.5 30.5t26.5 84.5t-26.5 85t-72.5 31q-45 0 -71.5 -31t-26.5 -85t26.5 -84.5zM361.5 745.5q27.5 27.5 67.5 27.5q41 0 69 -27.5t28 -67.5t-28 -68t-69 -28q-40 0 -67.5 28t-27.5 68t27.5 67.5z" />
    <glyph glyph-name="divide" unicode="&#xf7;" horiz-adv-x="548" 
d="M349.5 707q31.5 -31 31.5 -75t-31.5 -75t-75.5 -31t-74.5 31t-30.5 75t30.5 75t74.5 31t75.5 -31zM30 458h488v-171h-488v171zM199.5 187.5q30.5 30.5 74.5 30.5t75.5 -30.5t31.5 -74.5t-31.5 -75.5t-75.5 -31.5t-74.5 31.5t-30.5 75.5t30.5 74.5z" />
    <glyph glyph-name="oslash" unicode="&#xf8;" horiz-adv-x="643" 
d="M587 361.5q17 -46.5 17 -101.5q0 -80 -36 -141.5t-100.5 -95.5t-146.5 -34q-60 0 -110 18l-46 -61l-100 74l42 55q-68 74 -68 185q0 80 36 142t100.5 96t145.5 34q59 0 114 -19l36 48l100 -74l-33 -44q32 -35 49 -81.5zM225 233l107 143h-11q-45 0 -71.5 -31t-26.5 -85
q0 -9 2 -27zM321 145q46 0 72.5 30.5t26.5 84.5q0 8 -2 24l-104 -139h7z" />
    <glyph glyph-name="ugrave" unicode="&#xf9;" horiz-adv-x="609" 
d="M91 791h206l73 -191h-142zM58 521h182v-289q0 -39 13.5 -56t46.5 -17q64 0 64 71v291h182v-521h-172v36q-38 -47 -122 -47q-92 0 -143 51t-51 147v334z" />
    <glyph glyph-name="uacute" unicode="&#xfa;" horiz-adv-x="609" 
d="M304 791h206l-137 -191h-142zM58 521h182v-289q0 -39 13.5 -56t46.5 -17q64 0 64 71v291h182v-521h-172v36q-38 -47 -122 -47q-92 0 -143 51t-51 147v334z" />
    <glyph glyph-name="ucircumflex" unicode="&#xfb;" horiz-adv-x="609" 
d="M304 665l-51 -65h-152l115 182h177l114 -182h-151zM58 521h182v-289q0 -39 13.5 -56t46.5 -17q64 0 64 71v291h182v-521h-172v36q-38 -47 -122 -47q-92 0 -143 51t-51 147v334z" />
    <glyph glyph-name="udieresis" unicode="&#xfc;" horiz-adv-x="609" 
d="M262 745.5q28 -27.5 28 -67.5t-27.5 -68t-68.5 -28q-40 0 -67.5 28t-27.5 68t27.5 67.5t67.5 27.5t68 -27.5zM58 521h182v-289q0 -39 13.5 -56t46.5 -17q64 0 64 71v291h182v-521h-172v36q-38 -47 -122 -47q-92 0 -143 51t-51 147v334zM345.5 745.5q27.5 27.5 67.5 27.5
q41 0 69 -27.5t28 -67.5t-28 -68t-69 -28q-40 0 -67.5 28t-27.5 68t27.5 67.5z" />
    <glyph glyph-name="yacute" unicode="&#xfd;" horiz-adv-x="599" 
d="M299 791h206l-137 -191h-142zM203 521l97 -260l96 260h202l-336 -776h-199l139 312l-201 464h202z" />
    <glyph glyph-name="thorn" unicode="&#xfe;" horiz-adv-x="662" 
d="M299 522q33 10 73 10q74 0 131 -34.5t88.5 -96t31.5 -141.5q0 -79 -31.5 -140.5t-88.5 -96t-131 -34.5q-40 0 -73 10t-54 26v-280h-182v1032h182v-281q21 16 54 26zM271.5 174.5q26.5 -29.5 69.5 -29.5q45 0 71.5 30.5t26.5 84.5q0 55 -26.5 85.5t-71.5 30.5
q-43 0 -69.5 -29.5t-26.5 -76.5v-19q0 -47 26.5 -76.5z" />
    <glyph glyph-name="ydieresis" unicode="&#xff;" horiz-adv-x="599" 
d="M257 745.5q28 -27.5 28 -67.5t-27.5 -68t-68.5 -28q-40 0 -67.5 28t-27.5 68t27.5 67.5t67.5 27.5t68 -27.5zM203 521l97 -260l96 260h202l-336 -776h-199l139 312l-201 464h202zM340.5 745.5q27.5 27.5 67.5 27.5q41 0 69 -27.5t28 -67.5t-28 -68t-69 -28
q-40 0 -67.5 28t-27.5 68t27.5 67.5z" />
    <glyph glyph-name="Amacron" unicode="&#x100;" horiz-adv-x="823" 
d="M250 942h323v-139h-323v139zM330 748h163l326 -748h-212l-52 119h-287l-52 -119h-212zM490 267l-79 182l-78 -182h157z" />
    <glyph glyph-name="amacron" unicode="&#x101;" horiz-adv-x="566" 
d="M132 749h323v-140h-323v140zM102 264q63 36 165 40l59 2v27q0 49 -41 49q-24 0 -37 -14.5t-13 -31.5l-182 6q0 47 28.5 91t81 71.5t119.5 27.5q111 0 168.5 -53.5t57.5 -159.5v-319h-171v37q-19 -21 -51 -34.5t-75 -13.5q-81 0 -126.5 39.5t-45.5 114.5q0 85 63 121z
M232 131q11 -9 30 -9q25 0 44 15t19 38v25l-46 -2q-58 -3 -58 -40q0 -18 11 -27z" />
    <glyph glyph-name="Abreve" unicode="&#x102;" horiz-adv-x="823" 
d="M559 838q-56 -47 -148 -47t-147.5 47t-55.5 138h148q0 -28 15 -44t40 -16q26 0 41 16t15 44h148q0 -91 -56 -138zM330 748h163l326 -748h-212l-52 119h-287l-52 -119h-212zM490 267l-79 182l-78 -182h157z" />
    <glyph glyph-name="abreve" unicode="&#x103;" horiz-adv-x="566" 
d="M441 636q-56 -47 -148 -47t-147.5 47t-55.5 138h148q0 -28 15 -44t40 -16q26 0 41 16t15 44h148q0 -91 -56 -138zM102 264q63 36 165 40l59 2v27q0 49 -41 49q-24 0 -37 -14.5t-13 -31.5l-182 6q0 47 28.5 91t81 71.5t119.5 27.5q111 0 168.5 -53.5t57.5 -159.5v-319
h-171v37q-19 -21 -51 -34.5t-75 -13.5q-81 0 -126.5 39.5t-45.5 114.5q0 85 63 121zM232 131q11 -9 30 -9q25 0 44 15t19 38v25l-46 -2q-58 -3 -58 -40q0 -18 11 -27z" />
    <glyph glyph-name="Aogonek" unicode="&#x104;" horiz-adv-x="823" 
d="M537 -168.5q-38 25.5 -38 76.5q0 39 26 66t74 45l-44 100h-287l-52 -119h-212l326 748h163l326 -748h-124q-32 -19 -46 -34t-14 -36q0 -14 8.5 -21.5t23.5 -7.5q23 0 45 11l16 -87q-21 -9 -42.5 -14t-50.5 -5q-60 0 -98 25.5zM490 267l-79 182l-78 -182h157z" />
    <glyph glyph-name="aogonek" unicode="&#x105;" horiz-adv-x="566" 
d="M315 -167.5q-38 25.5 -38 76.5q0 56 60 92v36q-19 -21 -51 -34.5t-75 -13.5q-81 0 -126.5 39.5t-45.5 114.5q0 85 63 121t165 40l59 2v27q0 49 -41 49q-24 0 -37 -14.5t-13 -31.5l-182 6q0 47 28.5 91t81 71.5t119.5 27.5q111 0 168.5 -53.5t57.5 -159.5v-319h-36
q-31 -19 -45 -34t-14 -35q0 -14 8.5 -21.5t23.5 -7.5q23 0 45 11l16 -87q-21 -9 -42.5 -14t-50.5 -5q-60 0 -98 25.5zM232 131q11 -9 30 -9q25 0 44 15t19 38v25l-46 -2q-58 -3 -58 -40q0 -18 11 -27z" />
    <glyph glyph-name="Cacute" unicode="&#x106;" horiz-adv-x="837" 
d="M458 957h247l-199 -162h-164zM94 579q50 87 138.5 133.5t200.5 46.5q92 0 169.5 -35t128.5 -100.5t65 -153.5l-202 -19q-16 69 -59 103t-109 34q-85 0 -135 -58.5t-50 -155.5q0 -103 51.5 -158.5t133.5 -55.5q66 0 110.5 35t57.5 102l202 -17q-14 -89 -65 -155
t-128.5 -101t-169.5 -35q-112 0 -200.5 46.5t-138.5 133.5t-50 205t50 205z" />
    <glyph glyph-name="cacute" unicode="&#x107;" horiz-adv-x="601" 
d="M305 791h206l-137 -191h-142zM74 405.5q35 61.5 97.5 94t141.5 32.5q98 0 168 -55t86 -150l-179 -16q-4 30 -24 47.5t-51 17.5q-41 0 -65.5 -31t-24.5 -85t24.5 -84.5t65.5 -30.5q31 0 51 17.5t24 47.5l178 -15q-15 -95 -85 -150.5t-168 -55.5q-79 0 -141.5 32.5
t-97.5 94t-35 144.5q0 84 35 145.5z" />
    <glyph glyph-name="Ccircumflex" unicode="&#x108;" horiz-adv-x="837" 
d="M425 861l-51 -66h-152l115 170h177l114 -170h-151zM94 579q50 87 138.5 133.5t200.5 46.5q92 0 169.5 -35t128.5 -100.5t65 -153.5l-202 -19q-16 69 -59 103t-109 34q-85 0 -135 -58.5t-50 -155.5q0 -103 51.5 -158.5t133.5 -55.5q66 0 110.5 35t57.5 102l202 -17
q-14 -89 -65 -155t-128.5 -101t-169.5 -35q-112 0 -200.5 46.5t-138.5 133.5t-50 205t50 205z" />
    <glyph glyph-name="ccircumflex" unicode="&#x109;" horiz-adv-x="601" 
d="M305 665l-51 -65h-152l115 182h177l114 -182h-151zM74 405.5q35 61.5 97.5 94t141.5 32.5q98 0 168 -55t86 -150l-179 -16q-4 30 -24 47.5t-51 17.5q-41 0 -65.5 -31t-24.5 -85t24.5 -84.5t65.5 -30.5q31 0 51 17.5t24 47.5l178 -15q-15 -95 -85 -150.5t-168 -55.5
q-79 0 -141.5 32.5t-97.5 94t-35 144.5q0 84 35 145.5z" />
    <glyph glyph-name="Cdotaccent" unicode="&#x10a;" horiz-adv-x="837" 
d="M500 971.5q31 -31.5 31 -75.5t-31 -74.5t-76 -30.5q-44 0 -74.5 30.5t-30.5 74.5t31 75.5t74 31.5q45 0 76 -31.5zM94 579q50 87 138.5 133.5t200.5 46.5q92 0 169.5 -35t128.5 -100.5t65 -153.5l-202 -19q-16 69 -59 103t-109 34q-85 0 -135 -58.5t-50 -155.5
q0 -103 51.5 -158.5t133.5 -55.5q66 0 110.5 35t57.5 102l202 -17q-14 -89 -65 -155t-128.5 -101t-169.5 -35q-112 0 -200.5 46.5t-138.5 133.5t-50 205t50 205z" />
    <glyph glyph-name="cdotaccent" unicode="&#x10b;" horiz-adv-x="601" 
d="M381 757.5q31 -31.5 31 -75.5t-31 -74.5t-76 -30.5q-44 0 -74.5 30.5t-30.5 74.5t31 75.5t74 31.5q45 0 76 -31.5zM74 405.5q35 61.5 97.5 94t141.5 32.5q98 0 168 -55t86 -150l-179 -16q-4 30 -24 47.5t-51 17.5q-41 0 -65.5 -31t-24.5 -85t24.5 -84.5t65.5 -30.5
q31 0 51 17.5t24 47.5l178 -15q-15 -95 -85 -150.5t-168 -55.5q-79 0 -141.5 32.5t-97.5 94t-35 144.5q0 84 35 145.5z" />
    <glyph glyph-name="Ccaron" unicode="&#x10c;" horiz-adv-x="837" 
d="M222 965h152l51 -66l52 66h151l-114 -170h-177zM94 579q50 87 138.5 133.5t200.5 46.5q92 0 169.5 -35t128.5 -100.5t65 -153.5l-202 -19q-16 69 -59 103t-109 34q-85 0 -135 -58.5t-50 -155.5q0 -103 51.5 -158.5t133.5 -55.5q66 0 110.5 35t57.5 102l202 -17
q-14 -89 -65 -155t-128.5 -101t-169.5 -35q-112 0 -200.5 46.5t-138.5 133.5t-50 205t50 205z" />
    <glyph glyph-name="ccaron" unicode="&#x10d;" horiz-adv-x="601" 
d="M102 780h152l51 -64l52 64h151l-114 -182h-177zM74 405.5q35 61.5 97.5 94t141.5 32.5q98 0 168 -55t86 -150l-179 -16q-4 30 -24 47.5t-51 17.5q-41 0 -65.5 -31t-24.5 -85t24.5 -84.5t65.5 -30.5q31 0 51 17.5t24 47.5l178 -15q-15 -95 -85 -150.5t-168 -55.5
q-79 0 -141.5 32.5t-97.5 94t-35 144.5q0 84 35 145.5z" />
    <glyph glyph-name="Dcaron" unicode="&#x10e;" horiz-adv-x="805" 
d="M143 965h152l51 -66l52 66h151l-114 -170h-177zM66 748h317q109 0 195 -45t134.5 -129.5t48.5 -199.5t-48.5 -199.5t-134.5 -129.5t-195 -45h-317v748zM385 166q88 0 136.5 52t48.5 156t-48.5 156t-136.5 52h-126v-416h126z" />
    <glyph glyph-name="dcaron" unicode="&#x10f;" horiz-adv-x="853" 
d="M159 23.5q-57 34.5 -88.5 96t-31.5 140.5q0 80 31.5 141.5t88.5 96t131 34.5q40 0 73 -10t54 -26v281h182v-777h-172v34q-22 -19 -57 -32t-80 -13q-74 0 -131 34.5zM249.5 175.5q26.5 -30.5 71.5 -30.5q43 0 69.5 29.5t26.5 76.5v19q0 47 -26.5 76.5t-69.5 29.5
q-45 0 -71.5 -30.5t-26.5 -85.5q0 -54 26.5 -84.5zM663.5 760q29.5 31 74.5 31q46 0 72 -32.5t26 -84.5q0 -164 -177 -253v75q53 32 70 84q-41 4 -68 33.5t-27 71.5q0 44 29.5 75z" />
    <glyph glyph-name="Dcroat" unicode="&#x110;" horiz-adv-x="812" 
d="M594 703q86 -45 134.5 -129.5t48.5 -199.5t-48.5 -199.5t-134.5 -129.5t-195 -45h-317v300h-71v147h71v301h317q109 0 195 -45zM401 166q88 0 136 52t48 156t-48 156t-136 52h-126v-135h84v-147h-84v-134h126z" />
    <glyph glyph-name="dcroat" unicode="&#x111;" horiz-adv-x="663" 
d="M599 0h-172v34q-22 -19 -57 -32t-80 -13q-74 0 -131 34.5t-88.5 96t-31.5 140.5q0 80 31.5 141.5t88.5 96t131 34.5q40 0 73 -10t54 -26v90h-77v140h77v51h182v-51h64v-140h-64v-586zM249.5 175.5q26.5 -30.5 71.5 -30.5q43 0 69.5 29.5t26.5 76.5v19q0 47 -26.5 76.5
t-69.5 29.5q-45 0 -71.5 -30.5t-26.5 -85.5q0 -54 26.5 -84.5z" />
    <glyph glyph-name="Emacron" unicode="&#x112;" horiz-adv-x="608" 
d="M154 942h323v-139h-323v139zM66 748h490v-171h-297v-112h254v-167h-254v-127h298v-171h-491v748z" />
    <glyph glyph-name="emacron" unicode="&#x113;" horiz-adv-x="603" 
d="M144 749h323v-140h-323v140zM73 403.5q34 61.5 95 95t141 33.5q76 0 133.5 -30.5t89.5 -90t32 -141.5v-59h-331q0 -37 18.5 -59.5t57.5 -22.5q53 0 67 40l183 -9q-12 -78 -81.5 -124.5t-163.5 -46.5q-82 0 -144.5 33t-96.5 94.5t-34 143.5t34 143.5zM380 318
q-2 38 -20 59t-53 21q-33 0 -52.5 -21.5t-21.5 -58.5h147z" />
    <glyph glyph-name="Ebreve" unicode="&#x114;" horiz-adv-x="608" 
d="M463 838q-56 -47 -148 -47t-147.5 47t-55.5 138h148q0 -28 15 -44t40 -16q26 0 41 16t15 44h148q0 -91 -56 -138zM66 748h490v-171h-297v-112h254v-167h-254v-127h298v-171h-491v748z" />
    <glyph glyph-name="ebreve" unicode="&#x115;" horiz-adv-x="603" 
d="M157.5 636q-55.5 47 -55.5 138h148q0 -28 15 -44t40 -16q26 0 41 16t15 44h148q0 -91 -56 -138t-148 -47t-147.5 47zM73 403.5q34 61.5 95 95t141 33.5q76 0 133.5 -30.5t89.5 -90t32 -141.5v-59h-331q0 -37 18.5 -59.5t57.5 -22.5q53 0 67 40l183 -9
q-12 -78 -81.5 -124.5t-163.5 -46.5q-82 0 -144.5 33t-96.5 94.5t-34 143.5t34 143.5zM380 318q-2 38 -20 59t-53 21q-33 0 -52.5 -21.5t-21.5 -58.5h147z" />
    <glyph glyph-name="Edotaccent" unicode="&#x116;" horiz-adv-x="608" 
d="M391 971.5q31 -31.5 31 -75.5t-31 -74.5t-76 -30.5q-44 0 -74.5 30.5t-30.5 74.5t31 75.5t74 31.5q45 0 76 -31.5zM66 748h490v-171h-297v-112h254v-167h-254v-127h298v-171h-491v748z" />
    <glyph glyph-name="edotaccent" unicode="&#x117;" horiz-adv-x="603" 
d="M230.5 607.5q-30.5 30.5 -30.5 74.5t31 75.5t74 31.5q45 0 76 -31.5t31 -75.5t-31 -74.5t-76 -30.5q-44 0 -74.5 30.5zM73 403.5q34 61.5 95 95t141 33.5q76 0 133.5 -30.5t89.5 -90t32 -141.5v-59h-331q0 -37 18.5 -59.5t57.5 -22.5q53 0 67 40l183 -9
q-12 -78 -81.5 -124.5t-163.5 -46.5q-82 0 -144.5 33t-96.5 94.5t-34 143.5t34 143.5zM380 318q-2 38 -20 59t-53 21q-33 0 -52.5 -21.5t-21.5 -58.5h147z" />
    <glyph glyph-name="Eogonek" unicode="&#x118;" horiz-adv-x="608" 
d="M398 -168.5q-38 25.5 -38 76.5q0 56 60 92h-354v748h490v-171h-297v-112h254v-167h-254v-127h298v-171h-1q-32 -19 -46 -34t-14 -36q0 -14 8.5 -21.5t23.5 -7.5q23 0 45 11l16 -87q-21 -9 -42.5 -14t-50.5 -5q-60 0 -98 25.5z" />
    <glyph glyph-name="eogonek" unicode="&#x119;" horiz-adv-x="603" 
d="M251.5 151.5q18.5 -22.5 57.5 -22.5q53 0 67 40l183 -9q-10 -60 -54.5 -102t-110.5 -59q-31 -19 -44.5 -34t-13.5 -35q0 -14 8.5 -21.5t23.5 -7.5q23 0 45 11l16 -87q-21 -9 -42.5 -14t-50.5 -5q-60 0 -98 25.5t-38 76.5t51 86q-98 18 -155 88.5t-57 177.5q0 82 34 143.5
t95 95t141 33.5q76 0 133.5 -30.5t89.5 -90t32 -141.5v-59h-331q0 -37 18.5 -59.5zM380 318q-2 38 -20 59t-53 21q-33 0 -52.5 -21.5t-21.5 -58.5h147z" />
    <glyph glyph-name="Ecaron" unicode="&#x11a;" horiz-adv-x="608" 
d="M112 965h152l51 -66l52 66h151l-114 -170h-177zM66 748h490v-171h-297v-112h254v-167h-254v-127h298v-171h-491v748z" />
    <glyph glyph-name="ecaron" unicode="&#x11b;" horiz-adv-x="603" 
d="M254 780l51 -64l52 64h151l-114 -182h-177l-115 182h152zM73 403.5q34 61.5 95 95t141 33.5q76 0 133.5 -30.5t89.5 -90t32 -141.5v-59h-331q0 -37 18.5 -59.5t57.5 -22.5q53 0 67 40l183 -9q-12 -78 -81.5 -124.5t-163.5 -46.5q-82 0 -144.5 33t-96.5 94.5t-34 143.5
t34 143.5zM380 318q-2 38 -20 59t-53 21q-33 0 -52.5 -21.5t-21.5 -58.5h147z" />
    <glyph glyph-name="Gcircumflex" unicode="&#x11c;" horiz-adv-x="843" 
d="M337 965h177l114 -170h-151l-52 66l-51 -66h-152zM94 579q50 87 138.5 133.5t200.5 46.5q132 0 226.5 -66t128.5 -186l-200 -33q-17 54 -56 84t-101 30q-91 0 -140.5 -53.5t-49.5 -160.5t49.5 -160.5t140.5 -53.5q112 0 149 95h-149v171h365v-62q0 -110 -44 -195
t-126 -132.5t-193 -47.5q-112 0 -200.5 46.5t-138.5 133.5t-50 205t50 205z" />
    <glyph glyph-name="gcircumflex" unicode="&#x11d;" horiz-adv-x="650" 
d="M319 665l-51 -65h-152l115 182h177l114 -182h-151zM70.5 401.5q31.5 61.5 88.5 96t131 34.5q45 0 80 -13t57 -32v34h172v-534q0 -75 -33.5 -132t-95 -88.5t-143.5 -31.5q-126 0 -195 55.5t-83 153.5l182 6q2 -28 25 -44.5t64 -16.5q46 0 71.5 21.5t25.5 63.5v51
q-22 -16 -54.5 -26t-72.5 -10q-74 0 -131 34.5t-88.5 96t-31.5 140.5q0 80 31.5 141.5zM249.5 175.5q26.5 -30.5 71.5 -30.5q43 0 69.5 29.5t26.5 76.5v19q0 47 -26.5 76.5t-69.5 29.5q-45 0 -71.5 -30.5t-26.5 -85.5q0 -54 26.5 -84.5z" />
    <glyph glyph-name="Gbreve" unicode="&#x11e;" horiz-adv-x="843" 
d="M277.5 838q-55.5 47 -55.5 138h148q0 -28 15 -44t40 -16q26 0 41 16t15 44h148q0 -91 -56 -138t-148 -47t-147.5 47zM94 579q50 87 138.5 133.5t200.5 46.5q132 0 226.5 -66t128.5 -186l-200 -33q-17 54 -56 84t-101 30q-91 0 -140.5 -53.5t-49.5 -160.5t49.5 -160.5
t140.5 -53.5q112 0 149 95h-149v171h365v-62q0 -110 -44 -195t-126 -132.5t-193 -47.5q-112 0 -200.5 46.5t-138.5 133.5t-50 205t50 205z" />
    <glyph glyph-name="gbreve" unicode="&#x11f;" horiz-adv-x="650" 
d="M467 636q-56 -47 -148 -47t-147.5 47t-55.5 138h148q0 -28 15 -44t40 -16q26 0 41 16t15 44h148q0 -91 -56 -138zM70.5 401.5q31.5 61.5 88.5 96t131 34.5q45 0 80 -13t57 -32v34h172v-534q0 -75 -33.5 -132t-95 -88.5t-143.5 -31.5q-126 0 -195 55.5t-83 153.5l182 6
q2 -28 25 -44.5t64 -16.5q46 0 71.5 21.5t25.5 63.5v51q-22 -16 -54.5 -26t-72.5 -10q-74 0 -131 34.5t-88.5 96t-31.5 140.5q0 80 31.5 141.5zM249.5 175.5q26.5 -30.5 71.5 -30.5q43 0 69.5 29.5t26.5 76.5v19q0 47 -26.5 76.5t-69.5 29.5q-45 0 -71.5 -30.5t-26.5 -85.5
q0 -54 26.5 -84.5z" />
    <glyph glyph-name="Gdotaccent" unicode="&#x120;" horiz-adv-x="843" 
d="M350.5 821.5q-30.5 30.5 -30.5 74.5t31 75.5t74 31.5q45 0 76 -31.5t31 -75.5t-31 -74.5t-76 -30.5q-44 0 -74.5 30.5zM94 579q50 87 138.5 133.5t200.5 46.5q132 0 226.5 -66t128.5 -186l-200 -33q-17 54 -56 84t-101 30q-91 0 -140.5 -53.5t-49.5 -160.5t49.5 -160.5
t140.5 -53.5q112 0 149 95h-149v171h365v-62q0 -110 -44 -195t-126 -132.5t-193 -47.5q-112 0 -200.5 46.5t-138.5 133.5t-50 205t50 205z" />
    <glyph glyph-name="gdotaccent" unicode="&#x121;" horiz-adv-x="650" 
d="M395 757.5q31 -31.5 31 -75.5t-31 -74.5t-76 -30.5q-44 0 -74.5 30.5t-30.5 74.5t31 75.5t74 31.5q45 0 76 -31.5zM70.5 401.5q31.5 61.5 88.5 96t131 34.5q45 0 80 -13t57 -32v34h172v-534q0 -75 -33.5 -132t-95 -88.5t-143.5 -31.5q-126 0 -195 55.5t-83 153.5l182 6
q2 -28 25 -44.5t64 -16.5q46 0 71.5 21.5t25.5 63.5v51q-22 -16 -54.5 -26t-72.5 -10q-74 0 -131 34.5t-88.5 96t-31.5 140.5q0 80 31.5 141.5zM249.5 175.5q26.5 -30.5 71.5 -30.5q43 0 69.5 29.5t26.5 76.5v19q0 47 -26.5 76.5t-69.5 29.5q-45 0 -71.5 -30.5t-26.5 -85.5
q0 -54 26.5 -84.5z" />
    <glyph glyph-name="uni0122" unicode="&#x122;" horiz-adv-x="843" 
d="M232.5 35.5q-88.5 46.5 -138.5 133.5t-50 205t50 205t138.5 133.5t200.5 46.5q132 0 226.5 -66t128.5 -186l-200 -33q-17 54 -56 84t-101 30q-91 0 -140.5 -53.5t-49.5 -160.5t49.5 -160.5t140.5 -53.5q112 0 149 95h-149v171h365v-62q0 -110 -44 -195t-126 -132.5
t-193 -47.5q-112 0 -200.5 46.5zM353.5 -80q29.5 31 74.5 31q44 0 71 -32t27 -86q-2 -164 -177 -252v75q53 31 70 84q-41 4 -68 33.5t-27 70.5q0 45 29.5 76z" />
    <glyph glyph-name="uni0123" unicode="&#x123;" horiz-adv-x="650" 
d="M132 -209.5q-69 55.5 -83 153.5l182 6q2 -28 25 -44.5t64 -16.5q46 0 71.5 21.5t25.5 63.5v51q-22 -16 -54.5 -26t-72.5 -10q-74 0 -131 34.5t-88.5 96t-31.5 140.5q0 80 31.5 141.5t88.5 96t131 34.5q45 0 80 -13t57 -32v34h172v-534q0 -75 -33.5 -132t-95 -88.5
t-143.5 -31.5q-126 0 -195 55.5zM249.5 175.5q26.5 -30.5 71.5 -30.5q43 0 69.5 29.5t26.5 76.5v19q0 47 -26.5 76.5t-69.5 29.5q-45 0 -71.5 -30.5t-26.5 -85.5q0 -54 26.5 -84.5zM258.5 907q29.5 31 74.5 31q46 0 72 -32.5t26 -85.5q-2 -164 -177 -252v75q53 32 70 84
q-41 4 -68 33.5t-27 71.5q0 44 29.5 75z" />
    <glyph glyph-name="Hcircumflex" unicode="&#x124;" horiz-adv-x="768" 
d="M384 861l-51 -66h-152l115 170h177l114 -170h-151zM66 748h193v-281h250v281h193v-748h-193v296h-250v-296h-193v748z" />
    <glyph glyph-name="hcircumflex" unicode="&#x125;" horiz-adv-x="625" 
d="M157 870l-51 -67h-152l114 171h177l115 -171h-152zM63 777h182v-285q44 40 118 40q93 0 148 -54t55 -153v-325h-182v281q0 40 -17.5 60.5t-50.5 20.5t-52 -21.5t-19 -60.5v-280h-182v777z" />
    <glyph glyph-name="Hbar" unicode="&#x126;" horiz-adv-x="789" 
d="M712 0h-192v296h-251v-296h-192v532h-67v146h67v70h192v-70h251v70h192v-70h67v-146h-67v-532zM520 467v65h-251v-65h251z" />
    <glyph glyph-name="hbar" unicode="&#x127;" horiz-adv-x="625" 
d="M511 478q55 -54 55 -153v-325h-182v281q0 40 -17.5 60.5t-50.5 20.5t-52 -21.5t-19 -60.5v-280h-182v586h-60v140h60v51h182v-51h80v-140h-80v-94q44 40 118 40q93 0 148 -54z" />
    <glyph glyph-name="Itilde" unicode="&#x128;" horiz-adv-x="325" 
d="M134 966.5q18 -7.5 39 -21.5q19 -11 28.5 -15.5t21.5 -4.5q37 0 37 42h102q1 -8 1 -23q0 -65 -32.5 -110.5t-86.5 -45.5q-25 0 -43 7.5t-41 22.5q-29 20 -47 20q-37 0 -37 -43h-102q-1 8 -1 23q0 66 32.5 111t86.5 45q24 0 42 -7.5zM66 748h193v-748h-193v748z" />
    <glyph glyph-name="itilde" unicode="&#x129;" 
d="M124 768.5q18 -7.5 39 -21.5q19 -11 28.5 -15.5t21.5 -4.5q37 0 37 42h102q1 -8 1 -23q0 -65 -32.5 -110t-86.5 -45q-25 0 -43 7.5t-41 22.5q-15 10 -25.5 14.5t-21.5 4.5q-37 0 -37 -42h-102q-1 8 -1 23q0 65 32.5 110t86.5 45q24 0 42 -7.5zM63 521h182v-521h-182v521z
" />
    <glyph glyph-name="Imacron" unicode="&#x12a;" horiz-adv-x="325" 
d="M7 942h323v-139h-323v139zM66 748h193v-748h-193v748z" />
    <glyph glyph-name="imacron" unicode="&#x12b;" 
d="M-4 749h323v-140h-323v140zM63 521h182v-521h-182v521z" />
    <glyph glyph-name="Ibreve" unicode="&#x12c;" horiz-adv-x="325" 
d="M316 838q-56 -47 -148 -47t-147.5 47t-55.5 138h148q0 -28 15 -44t40 -16q26 0 41 16t15 44h148q0 -91 -56 -138zM66 748h193v-748h-193v748z" />
    <glyph glyph-name="ibreve" unicode="&#x12d;" 
d="M306 636q-56 -47 -148 -47t-147.5 47t-55.5 138h148q0 -28 15 -44t40 -16q26 0 41 16t15 44h148q0 -91 -56 -138zM63 521h182v-521h-182v521z" />
    <glyph glyph-name="Iogonek" unicode="&#x12e;" horiz-adv-x="325" 
d="M25 -167.5q-38 25.5 -38 76.5q0 34 20.5 59t58.5 43v737h193v-748h-77q-31 -19 -45 -34t-14 -35q0 -14 8.5 -21.5t23.5 -7.5q23 0 45 11l16 -87q-21 -9 -42.5 -14t-50.5 -5q-60 0 -98 25.5z" />
    <glyph glyph-name="iogonek" unicode="&#x12f;" 
d="M42 -167.5q-38 25.5 -38 76.5q0 57 59 91v521h182v-521h-46q-31 -19 -45 -34t-14 -35q0 -14 8.5 -21.5t23.5 -7.5q23 0 45 11l16 -87q-21 -9 -42.5 -14t-50.5 -5q-60 0 -98 25.5zM83 757.5q31 31.5 74 31.5q45 0 76 -31.5t31 -75.5t-31 -74.5t-76 -30.5q-44 0 -74.5 30.5
t-30.5 74.5t31 75.5z" />
    <glyph glyph-name="Idotaccent" unicode="&#x130;" horiz-adv-x="325" 
d="M244 971.5q31 -31.5 31 -75.5t-31 -74.5t-76 -30.5q-44 0 -74.5 30.5t-30.5 74.5t31 75.5t74 31.5q45 0 76 -31.5zM66 748h193v-748h-193v748z" />
    <glyph glyph-name="dotlessi" unicode="&#x131;" 
d="M63 521h182v-521h-182v521z" />
    <glyph glyph-name="Jcircumflex" unicode="&#x134;" horiz-adv-x="635" 
d="M487 861l-51 -66h-152l115 170h177l114 -170h-151zM208 284q4 -59 25.5 -91.5t60.5 -32.5q87 0 87 118v470h193v-463q0 -139 -74.5 -217.5t-207.5 -78.5q-121 0 -195 69t-82 194z" />
    <glyph glyph-name="jcircumflex" unicode="&#x135;" 
d="M152 665l-51 -65h-152l115 182h177l114 -182h-151zM-53 -76q15 -14 29 -22t34 -8q53 0 53 61v566h182v-556q0 -116 -59.5 -173.5t-156.5 -57.5t-155 41z" />
    <glyph glyph-name="uni0136" unicode="&#x136;" horiz-adv-x="749" 
d="M66 748h193v-280l214 280h248l-241 -298l262 -450h-221l-169 293l-93 -116v-177h-193v748zM308.5 -75q29.5 31 74.5 31q46 0 72 -32.5t26 -83.5q0 -165 -177 -254v75q53 31 70 84q-41 4 -68 33.5t-27 70.5q0 45 29.5 76z" />
    <glyph glyph-name="uni0137" unicode="&#x137;" horiz-adv-x="609" 
d="M63 777h182v-415l131 159h222l-183 -220l190 -301h-215l-104 164l-41 -47v-117h-182v777zM236.5 -75q29.5 31 74.5 31q46 0 72 -32.5t26 -85.5q0 -163 -177 -252v75q53 31 70 84q-41 4 -68 33.5t-27 70.5q0 45 29.5 76z" />
    <glyph glyph-name="Lacute" unicode="&#x139;" horiz-adv-x="591" 
d="M203 957h247l-199 -162h-164zM66 748h193v-577h297v-171h-490v748z" />
    <glyph glyph-name="lacute" unicode="&#x13a;" 
d="M195 976h247l-199 -162h-164zM63 777h182v-777h-182v777z" />
    <glyph glyph-name="uni013B" unicode="&#x13b;" horiz-adv-x="591" 
d="M66 0v748h193v-577h297v-171h-490zM244.5 -75q29.5 31 74.5 31q46 0 72 -32.5t26 -83.5q0 -165 -177 -254v75q53 31 70 84q-41 4 -68 33.5t-27 70.5q0 45 29.5 76z" />
    <glyph glyph-name="uni013C" unicode="&#x13c;" 
d="M63 777h182v-777h-182v777zM81.5 -75q29.5 31 74.5 31q46 0 72 -32.5t26 -84.5q-2 -165 -177 -253v75q53 31 70 84q-41 4 -68 33.5t-27 70.5q0 45 29.5 76z" />
    <glyph glyph-name="Lcaron" unicode="&#x13d;" horiz-adv-x="591" 
d="M66 748h193v-577h297v-171h-490v748zM440.5 760q29.5 31 74.5 31q46 0 72 -32.5t26 -84.5q-2 -165 -177 -253v75q53 32 70 84q-41 4 -68 33.5t-27 71.5q0 44 29.5 75z" />
    <glyph glyph-name="lcaron" unicode="&#x13e;" horiz-adv-x="500" 
d="M63 777h182v-777h-182v777zM317.5 760q29.5 31 74.5 31q46 0 72 -32.5t26 -85.5q0 -163 -177 -252v75q53 32 70 84q-41 4 -68 33.5t-27 71.5q0 44 29.5 75z" />
    <glyph glyph-name="Ldot" unicode="&#x13f;" horiz-adv-x="591" 
d="M556 0h-490v748h193v-577h297v-171zM397 506q31 31 75 31t75 -31t31 -75q0 -45 -31 -75.5t-75 -30.5t-75 30.5t-31 75.5q0 44 31 75z" />
    <glyph glyph-name="ldot" unicode="&#x140;" horiz-adv-x="517" 
d="M63 777h182v-777h-182v777zM312 416q31 31 75 31t75 -31t31 -75q0 -45 -31 -75.5t-75 -30.5t-75 30.5t-31 75.5q0 44 31 75z" />
    <glyph glyph-name="Lslash" unicode="&#x141;" horiz-adv-x="601" 
d="M76 0v282l-62 -8l-20 146l82 11v317h193v-292l73 9l20 -146l-93 -12v-136h297v-171h-490z" />
    <glyph glyph-name="lslash" unicode="&#x142;" horiz-adv-x="334" 
d="M78 0v211l-66 -14l-32 144l98 21v415h183v-375l62 13l32 -143l-94 -21v-251h-183z" />
    <glyph glyph-name="Nacute" unicode="&#x143;" horiz-adv-x="773" 
d="M409 957h247l-199 -162h-164zM66 748h164l284 -394v394h193v-748h-165l-283 392v-392h-193v748z" />
    <glyph glyph-name="nacute" unicode="&#x144;" horiz-adv-x="624" 
d="M324 791h206l-137 -191h-142zM63 521h172v-36q16 20 49 33.5t79 13.5q93 0 148 -54t55 -153v-325h-182v281q0 40 -17.5 60.5t-50.5 20.5t-52 -21.5t-19 -60.5v-280h-182v521z" />
    <glyph glyph-name="uni0145" unicode="&#x145;" horiz-adv-x="773" 
d="M66 748h164l284 -394v394h193v-748h-165l-283 392v-392h-193v748zM331.5 -75q29.5 31 74.5 31q46 0 72 -32.5t26 -84.5q0 -164 -177 -253v75q53 31 70 84q-41 4 -68 33.5t-27 70.5q0 45 29.5 76z" />
    <glyph glyph-name="uni0146" unicode="&#x146;" horiz-adv-x="624" 
d="M511 478q55 -54 55 -153v-325h-182v281q0 40 -17.5 60.5t-50.5 20.5t-52 -21.5t-19 -60.5v-280h-182v521h172v-36q16 20 49 33.5t79 13.5q93 0 148 -54zM240.5 -75q29.5 31 74.5 31q46 0 72 -32.5t26 -83.5q-2 -166 -177 -254v75q53 31 70 84q-41 4 -68 33.5t-27 70.5
q0 45 29.5 76z" />
    <glyph glyph-name="Ncaron" unicode="&#x147;" horiz-adv-x="773" 
d="M173 965h152l51 -66l52 66h151l-114 -170h-177zM66 748h164l284 -394v394h193v-748h-165l-283 392v-392h-193v748z" />
    <glyph glyph-name="ncaron" unicode="&#x148;" horiz-adv-x="624" 
d="M121 780h152l51 -64l52 64h151l-114 -182h-177zM63 521h172v-36q16 20 49 33.5t79 13.5q93 0 148 -54t55 -153v-325h-182v281q0 40 -17.5 60.5t-50.5 20.5t-52 -21.5t-19 -60.5v-280h-182v521z" />
    <glyph glyph-name="Eng" unicode="&#x14a;" horiz-adv-x="773" 
d="M672.5 -135q-34.5 -55 -98.5 -87.5t-149 -32.5v171q44 0 66.5 30t22.5 89v4l-255 353v-392h-193v748h164l284 -394v394h193v-762q0 -66 -34.5 -121z" />
    <glyph glyph-name="eng" unicode="&#x14b;" horiz-adv-x="624" 
d="M364 -85.5q20 19.5 20 47.5v319q0 40 -17.5 60.5t-50.5 20.5t-52 -21.5t-19 -60.5v-280h-182v521h172v-36q16 20 49 33.5t79 13.5q93 0 148 -54t55 -153v-359q0 -68 -30 -120t-86.5 -80.5t-131.5 -28.5v158q26 0 46 19.5z" />
    <glyph glyph-name="Omacron" unicode="&#x14c;" horiz-adv-x="880" 
d="M280 942h323v-139h-323v139zM94.5 576.5q50.5 87.5 141 135t205.5 47.5q114 0 204 -47.5t140.5 -135t50.5 -202.5t-50.5 -202.5t-140.5 -135t-204 -47.5q-115 0 -205.5 47.5t-141 135t-50.5 202.5t50.5 202.5zM295 217.5q54 -57.5 146 -57.5q91 0 144.5 57.5t53.5 156.5
t-53.5 156.5t-144.5 57.5q-92 0 -146 -57.5t-54 -156.5t54 -156.5z" />
    <glyph glyph-name="omacron" unicode="&#x14d;" horiz-adv-x="643" 
d="M159 749h323v-140h-323v140zM75 402q36 62 100.5 96t145.5 34q82 0 146.5 -34t100.5 -96t36 -142t-36 -141.5t-100.5 -95.5t-146.5 -34q-81 0 -145.5 34t-100.5 95.5t-36 141.5t36 142zM249.5 175.5q26.5 -30.5 71.5 -30.5q46 0 72.5 30.5t26.5 84.5t-26.5 85t-72.5 31
q-45 0 -71.5 -31t-26.5 -85t26.5 -84.5z" />
    <glyph glyph-name="Obreve" unicode="&#x14e;" horiz-adv-x="880" 
d="M589 838q-56 -47 -148 -47t-147.5 47t-55.5 138h148q0 -28 15 -44t40 -16q26 0 41 16t15 44h148q0 -91 -56 -138zM94.5 576.5q50.5 87.5 141 135t205.5 47.5q114 0 204 -47.5t140.5 -135t50.5 -202.5t-50.5 -202.5t-140.5 -135t-204 -47.5q-115 0 -205.5 47.5t-141 135
t-50.5 202.5t50.5 202.5zM295 217.5q54 -57.5 146 -57.5q91 0 144.5 57.5t53.5 156.5t-53.5 156.5t-144.5 57.5q-92 0 -146 -57.5t-54 -156.5t54 -156.5z" />
    <glyph glyph-name="obreve" unicode="&#x14f;" horiz-adv-x="643" 
d="M468 636q-56 -47 -148 -47t-147.5 47t-55.5 138h148q0 -28 15 -44t40 -16q26 0 41 16t15 44h148q0 -91 -56 -138zM75 402q36 62 100.5 96t145.5 34q82 0 146.5 -34t100.5 -96t36 -142t-36 -141.5t-100.5 -95.5t-146.5 -34q-81 0 -145.5 34t-100.5 95.5t-36 141.5t36 142z
M249.5 175.5q26.5 -30.5 71.5 -30.5q46 0 72.5 30.5t26.5 84.5t-26.5 85t-72.5 31q-45 0 -71.5 -31t-26.5 -85t26.5 -84.5z" />
    <glyph glyph-name="Ohungarumlaut" unicode="&#x150;" horiz-adv-x="880" 
d="M315 980h172l-92 -182h-142zM94.5 576.5q50.5 87.5 141 135t205.5 47.5q114 0 204 -47.5t140.5 -135t50.5 -202.5t-50.5 -202.5t-140.5 -135t-204 -47.5q-115 0 -205.5 47.5t-141 135t-50.5 202.5t50.5 202.5zM295 217.5q54 -57.5 146 -57.5q91 0 144.5 57.5t53.5 156.5
t-53.5 156.5t-144.5 57.5q-92 0 -146 -57.5t-54 -156.5t54 -156.5zM537 980h172l-92 -182h-142z" />
    <glyph glyph-name="ohungarumlaut" unicode="&#x151;" horiz-adv-x="643" 
d="M199 793h172l-92 -193h-142zM75 402q36 62 100.5 96t145.5 34q82 0 146.5 -34t100.5 -96t36 -142t-36 -141.5t-100.5 -95.5t-146.5 -34q-81 0 -145.5 34t-100.5 95.5t-36 141.5t36 142zM249.5 175.5q26.5 -30.5 71.5 -30.5q46 0 72.5 30.5t26.5 84.5t-26.5 85t-72.5 31
q-45 0 -71.5 -31t-26.5 -85t26.5 -84.5zM421 793h172l-92 -193h-142z" />
    <glyph glyph-name="OE" unicode="&#x152;" horiz-adv-x="1181" 
d="M235.5 36.5q-90.5 47.5 -141 135t-50.5 202.5t50.5 202.5t141 135t205.5 47.5q108 0 198 -44v33h490v-171h-297v-112h254v-167h-254v-127h298v-171h-491v33q-90 -44 -198 -44q-115 0 -205.5 47.5zM295 217.5q54 -57.5 146 -57.5q91 0 144.5 57.5t53.5 156.5t-53.5 156.5
t-144.5 57.5q-92 0 -146 -57.5t-54 -156.5t54 -156.5z" />
    <glyph glyph-name="oe" unicode="&#x153;" horiz-adv-x="984" 
d="M175.5 23q-64.5 34 -100.5 95.5t-36 141.5t36 142t100.5 96t145.5 34q55 0 103 -16t84 -45q74 61 182 61q76 0 133.5 -30.5t89.5 -90t32 -141.5v-59h-331q0 -37 18.5 -59.5t57.5 -22.5q53 0 66 40l184 -9q-12 -78 -81.5 -124.5t-164.5 -46.5q-111 0 -185 61
q-37 -30 -85 -45.5t-103 -15.5q-81 0 -145.5 34zM249.5 175.5q26.5 -30.5 71.5 -30.5q46 0 72.5 30.5t26.5 84.5t-26.5 85t-72.5 31q-45 0 -71.5 -31t-26.5 -85t26.5 -84.5zM760 318q-2 38 -20 59t-52 21q-33 0 -52.5 -21.5t-21.5 -58.5h146z" />
    <glyph glyph-name="Racute" unicode="&#x154;" horiz-adv-x="720" 
d="M66 748h338q114 0 181.5 -66t67.5 -183q0 -75 -29 -130.5t-83 -85.5l151 -283h-218l-133 250h-12h-70v-250h-193v748zM353 957h247l-199 -162h-164zM381 421q36 0 56 21t20 57t-20 57t-56 21h-122v-156h122z" />
    <glyph glyph-name="racute" unicode="&#x155;" horiz-adv-x="402" 
d="M240 791h206l-137 -191h-142zM63 521h176v-44q21 23 53 36t84 13v-176q-60 0 -95.5 -29t-35.5 -78v-243h-182v521z" />
    <glyph glyph-name="uni0156" unicode="&#x156;" horiz-adv-x="720" 
d="M66 748h338q114 0 181.5 -66t67.5 -183q0 -75 -29 -130.5t-83 -85.5l151 -283h-218l-133 250h-12h-70v-250h-193v748zM381 421q36 0 56 21t20 57t-20 57t-56 21h-122v-156h122zM289.5 -75q29.5 31 74.5 31q46 0 72 -32.5t26 -84.5q-2 -165 -177 -253v75q53 31 70 84
q-41 4 -68 33.5t-27 70.5q0 45 29.5 76z" />
    <glyph glyph-name="uni0157" unicode="&#x157;" horiz-adv-x="402" 
d="M63 521h176v-44q21 23 53 36t84 13v-176q-60 0 -95.5 -29t-35.5 -78v-243h-182v521zM80.5 -75q29.5 31 74.5 31q46 0 72 -32.5t26 -83.5q0 -165 -177 -254v75q53 31 70 84q-41 4 -68 33.5t-27 70.5q0 45 29.5 76z" />
    <glyph glyph-name="Rcaron" unicode="&#x158;" horiz-adv-x="720" 
d="M66 748h338q114 0 181.5 -66t67.5 -183q0 -75 -29 -130.5t-83 -85.5l151 -283h-218l-133 250h-12h-70v-250h-193v748zM269 965l51 -66l52 66h151l-114 -170h-177l-115 170h152zM381 421q36 0 56 21t20 57t-20 57t-56 21h-122v-156h122z" />
    <glyph glyph-name="rcaron" unicode="&#x159;" horiz-adv-x="402" 
d="M37 780h152l51 -64l52 64h151l-114 -182h-177zM63 521h176v-44q21 23 53 36t84 13v-176q-60 0 -95.5 -29t-35.5 -78v-243h-182v521z" />
    <glyph glyph-name="Sacute" unicode="&#x15a;" horiz-adv-x="668" 
d="M365 957h247l-199 -162h-164zM236 252q-1 -43 30.5 -69.5t81.5 -26.5q84 0 84 60q0 27 -30 45.5t-97 35.5q-81 21 -133 44.5t-84 66.5t-32 112q0 66 30.5 120.5t92 86.5t149.5 32q86 0 151.5 -29t101.5 -84t37 -130l-197 -10q0 39 -23 62.5t-66 23.5q-36 0 -57.5 -17.5
t-21.5 -48.5q0 -19 11 -31.5t37 -22.5t76 -21q82 -22 136 -49t85 -69.5t31 -106.5q0 -118 -79 -177.5t-202 -59.5q-92 0 -162 29.5t-108.5 86.5t-38.5 137z" />
    <glyph glyph-name="sacute" unicode="&#x15b;" horiz-adv-x="510" 
d="M247 791h206l-137 -191h-142zM207 170q-2 -53 48 -53q41 0 41 34q0 15 -14.5 24.5t-60.5 21.5q-68 17 -106.5 34t-60.5 47.5t-22 82.5q0 79 59 125t161 46q103 0 160 -46t63 -125l-182 -10q1 24 -9 38.5t-32 14.5q-18 0 -28 -8t-10 -23q0 -18 18.5 -26.5t71.5 -22.5
q57 -16 94 -33t59 -46.5t22 -74.5q0 -83 -58.5 -132t-165.5 -49q-216 0 -231 171z" />
    <glyph glyph-name="Scircumflex" unicode="&#x15c;" horiz-adv-x="668" 
d="M332 861l-51 -66h-152l115 170h177l114 -170h-151zM236 252q-1 -43 30.5 -69.5t81.5 -26.5q84 0 84 60q0 27 -30 45.5t-97 35.5q-81 21 -133 44.5t-84 66.5t-32 112q0 66 30.5 120.5t92 86.5t149.5 32q86 0 151.5 -29t101.5 -84t37 -130l-197 -10q0 39 -23 62.5t-66 23.5
q-36 0 -57.5 -17.5t-21.5 -48.5q0 -19 11 -31.5t37 -22.5t76 -21q82 -22 136 -49t85 -69.5t31 -106.5q0 -118 -79 -177.5t-202 -59.5q-92 0 -162 29.5t-108.5 86.5t-38.5 137z" />
    <glyph glyph-name="scircumflex" unicode="&#x15d;" horiz-adv-x="510" 
d="M247 665l-51 -65h-152l115 182h177l114 -182h-151zM207 170q-2 -53 48 -53q41 0 41 34q0 15 -14.5 24.5t-60.5 21.5q-68 17 -106.5 34t-60.5 47.5t-22 82.5q0 79 59 125t161 46q103 0 160 -46t63 -125l-182 -10q1 24 -9 38.5t-32 14.5q-18 0 -28 -8t-10 -23
q0 -18 18.5 -26.5t71.5 -22.5q57 -16 94 -33t59 -46.5t22 -74.5q0 -83 -58.5 -132t-165.5 -49q-216 0 -231 171z" />
    <glyph glyph-name="Scedilla" unicode="&#x15e;" horiz-adv-x="668" 
d="M558 55q-71 -59 -184 -65l-10 -36q46 -2 81.5 -31.5t35.5 -79.5q0 -51 -43 -77.5t-103 -26.5q-65 0 -103 19l27 86q20 -10 44 -10q16 0 29 7t13 22t-12 23.5t-29 8.5q-24 0 -38 -7l36 103q-121 11 -192.5 76t-70.5 175l197 10q-1 -43 30.5 -69.5t81.5 -26.5q84 0 84 60
q0 27 -30 45.5t-97 35.5q-81 21 -133 44.5t-84 66.5t-32 112q0 66 30.5 120.5t92 86.5t149.5 32q86 0 151.5 -29t101.5 -84t37 -130l-197 -10q0 39 -23 62.5t-66 23.5q-36 0 -57.5 -17.5t-21.5 -48.5q0 -19 11 -31.5t37 -22.5t76 -21q82 -22 136 -49t85 -69.5t31 -106.5
q0 -112 -71 -171z" />
    <glyph glyph-name="scedilla" unicode="&#x15f;" horiz-adv-x="510" 
d="M429 45.5q-50 -48.5 -143 -55.5l-10 -36q46 -2 81.5 -31.5t35.5 -79.5q0 -51 -43 -77.5t-103 -26.5q-65 0 -103 19l27 86q20 -10 44 -10q16 0 29 7t13 22t-12 23.5t-29 8.5q-24 0 -38 -7l36 103q-176 15 -190 169l183 10q-2 -53 48 -53q41 0 41 34q0 15 -14.5 24.5
t-60.5 21.5q-68 17 -106.5 34t-60.5 47.5t-22 82.5q0 79 59 125t161 46q103 0 160 -46t63 -125l-182 -10q1 24 -9 38.5t-32 14.5q-18 0 -28 -8t-10 -23q0 -18 18.5 -26.5t71.5 -22.5q57 -16 94 -33t59 -46.5t22 -74.5q0 -76 -50 -124.5z" />
    <glyph glyph-name="Scaron" unicode="&#x160;" horiz-adv-x="668" 
d="M129 965h152l51 -66l52 66h151l-114 -170h-177zM236 252q-1 -43 30.5 -69.5t81.5 -26.5q84 0 84 60q0 27 -30 45.5t-97 35.5q-81 21 -133 44.5t-84 66.5t-32 112q0 66 30.5 120.5t92 86.5t149.5 32q86 0 151.5 -29t101.5 -84t37 -130l-197 -10q0 39 -23 62.5t-66 23.5
q-36 0 -57.5 -17.5t-21.5 -48.5q0 -19 11 -31.5t37 -22.5t76 -21q82 -22 136 -49t85 -69.5t31 -106.5q0 -118 -79 -177.5t-202 -59.5q-92 0 -162 29.5t-108.5 86.5t-38.5 137z" />
    <glyph glyph-name="scaron" unicode="&#x161;" horiz-adv-x="510" 
d="M44 780h152l51 -64l52 64h151l-114 -182h-177zM207 170q-2 -53 48 -53q41 0 41 34q0 15 -14.5 24.5t-60.5 21.5q-68 17 -106.5 34t-60.5 47.5t-22 82.5q0 79 59 125t161 46q103 0 160 -46t63 -125l-182 -10q1 24 -9 38.5t-32 14.5q-18 0 -28 -8t-10 -23q0 -18 18.5 -26.5
t71.5 -22.5q57 -16 94 -33t59 -46.5t22 -74.5q0 -83 -58.5 -132t-165.5 -49q-216 0 -231 171z" />
    <glyph glyph-name="Tcaron" unicode="&#x164;" horiz-adv-x="700" 
d="M151 965h152l51 -66l52 66h151l-114 -170h-177zM20 748h660v-171h-233v-577h-193v577h-234v171z" />
    <glyph glyph-name="tcaron" unicode="&#x165;" horiz-adv-x="629" 
d="M157.5 34.5q-55.5 45.5 -54.5 136.5l1 194h-94v156h95l1 168h182l-1 -168h111v-156h-112l-1 -146q0 -32 20.5 -49.5t49.5 -17.5q21 0 43 4v-161q-48 -6 -88 -6q-97 0 -152.5 45.5zM445.5 760q29.5 31 74.5 31q46 0 72 -32.5t26 -85.5q-2 -164 -177 -252v75q53 32 70 84
q-41 4 -68 33.5t-27 71.5q0 44 29.5 75z" />
    <glyph glyph-name="Tbar" unicode="&#x166;" horiz-adv-x="700" 
d="M559 420v-147h-112v-273h-193v273h-113v147h113v157h-234v171h660v-171h-233v-157h112z" />
    <glyph glyph-name="tbar" unicode="&#x167;" horiz-adv-x="433" 
d="M157.5 34.5q-55.5 45.5 -54.5 136.5v23h-93v130h94v41h-94v156h95l1 168h182l-1 -168h111v-156h-112v-41h112v-130h-109v-5q0 -18 21.5 -27.5t44.5 -9.5q21 0 43 4v-161q-48 -6 -88 -6q-97 0 -152.5 45.5z" />
    <glyph glyph-name="Utilde" unicode="&#x168;" horiz-adv-x="785" 
d="M358 966.5q18 -7.5 39 -21.5q19 -11 28.5 -15.5t21.5 -4.5q37 0 37 42h102q1 -8 1 -23q0 -65 -32.5 -110.5t-86.5 -45.5q-25 0 -43 7.5t-41 22.5q-29 20 -47 20q-37 0 -37 -43h-102q-1 8 -1 23q0 66 32.5 111t86.5 45q24 0 42 -7.5zM61 748h193v-427q0 -78 34.5 -119.5
t104.5 -41.5q69 0 103.5 41.5t34.5 119.5v427h192v-430q0 -103 -39.5 -177t-114 -113t-176.5 -39q-103 0 -177.5 39t-114.5 113t-40 177v430z" />
    <glyph glyph-name="utilde" unicode="&#x169;" horiz-adv-x="609" 
d="M270 768.5q18 -7.5 39 -21.5q19 -11 28.5 -15.5t21.5 -4.5q37 0 37 42h102q1 -8 1 -23q0 -65 -32.5 -110t-86.5 -45q-25 0 -43 7.5t-41 22.5q-15 10 -25.5 14.5t-21.5 4.5q-37 0 -37 -42h-102q-1 8 -1 23q0 65 32.5 110t86.5 45q24 0 42 -7.5zM58 521h182v-289
q0 -39 13.5 -56t46.5 -17q64 0 64 71v291h182v-521h-172v36q-38 -47 -122 -47q-92 0 -143 51t-51 147v334z" />
    <glyph glyph-name="Umacron" unicode="&#x16a;" horiz-adv-x="785" 
d="M231 942h323v-139h-323v139zM61 748h193v-427q0 -78 34.5 -119.5t104.5 -41.5q69 0 103.5 41.5t34.5 119.5v427h192v-430q0 -103 -39.5 -177t-114 -113t-176.5 -39q-103 0 -177.5 39t-114.5 113t-40 177v430z" />
    <glyph glyph-name="umacron" unicode="&#x16b;" horiz-adv-x="609" 
d="M143 749h323v-140h-323v140zM58 521h182v-289q0 -39 13.5 -56t46.5 -17q64 0 64 71v291h182v-521h-172v36q-38 -47 -122 -47q-92 0 -143 51t-51 147v334z" />
    <glyph glyph-name="Ubreve" unicode="&#x16c;" horiz-adv-x="785" 
d="M540 838q-56 -47 -148 -47t-147.5 47t-55.5 138h148q0 -28 15 -44t40 -16q26 0 41 16t15 44h148q0 -91 -56 -138zM61 748h193v-427q0 -78 34.5 -119.5t104.5 -41.5q69 0 103.5 41.5t34.5 119.5v427h192v-430q0 -103 -39.5 -177t-114 -113t-176.5 -39q-103 0 -177.5 39
t-114.5 113t-40 177v430z" />
    <glyph glyph-name="ubreve" unicode="&#x16d;" horiz-adv-x="609" 
d="M452 636q-56 -47 -148 -47t-147.5 47t-55.5 138h148q0 -28 15 -44t40 -16q26 0 41 16t15 44h148q0 -91 -56 -138zM58 521h182v-289q0 -39 13.5 -56t46.5 -17q64 0 64 71v291h182v-521h-172v36q-38 -47 -122 -47q-92 0 -143 51t-51 147v334z" />
    <glyph glyph-name="Uring" unicode="&#x16e;" horiz-adv-x="785" 
d="M479 987q35 -32 35 -81t-35 -81t-86 -32q-52 0 -87 32t-35 81q0 50 35 81.5t87 31.5q51 0 86 -32zM61 748h193v-427q0 -78 34.5 -119.5t104.5 -41.5q69 0 103.5 41.5t34.5 119.5v427h192v-430q0 -103 -39.5 -177t-114 -113t-176.5 -39q-103 0 -177.5 39t-114.5 113
t-40 177v430zM367.5 881.5q9.5 -9.5 25.5 -9.5q15 0 24.5 9.5t9.5 24.5t-9.5 25t-24.5 10q-16 0 -25.5 -10t-9.5 -25t9.5 -24.5z" />
    <glyph glyph-name="uring" unicode="&#x16f;" horiz-adv-x="609" 
d="M405 800.5q41 -37.5 41 -93.5q0 -57 -41 -94.5t-100 -37.5q-60 0 -101 37.5t-41 94.5q0 56 41 93.5t101 37.5q59 0 100 -37.5zM58 521h182v-289q0 -39 13.5 -56t46.5 -17q64 0 64 71v291h182v-521h-172v36q-38 -47 -122 -47q-92 0 -143 51t-51 147v334zM276.5 679
q10.5 -11 28.5 -11q17 0 27.5 11t10.5 28t-10.5 27.5t-27.5 10.5q-18 0 -28.5 -10.5t-10.5 -27.5t10.5 -28z" />
    <glyph glyph-name="Uhungarumlaut" unicode="&#x170;" horiz-adv-x="785" 
d="M266 980h172l-92 -182h-142zM61 748h193v-427q0 -78 34.5 -119.5t104.5 -41.5q69 0 103.5 41.5t34.5 119.5v427h192v-430q0 -103 -39.5 -177t-114 -113t-176.5 -39q-103 0 -177.5 39t-114.5 113t-40 177v430zM488 980h172l-92 -182h-142z" />
    <glyph glyph-name="uhungarumlaut" unicode="&#x171;" horiz-adv-x="609" 
d="M183 793h172l-92 -193h-142zM58 521h182v-289q0 -39 13.5 -56t46.5 -17q64 0 64 71v291h182v-521h-172v36q-38 -47 -122 -47q-92 0 -143 51t-51 147v334zM405 793h172l-92 -193h-142z" />
    <glyph glyph-name="Uogonek" unicode="&#x172;" horiz-adv-x="785" 
d="M334 -167.5q-38 25.5 -38 76.5q0 50 46 83l-13 1q-127 17 -197.5 102.5t-70.5 222.5v430h193v-427q0 -78 34.5 -119.5t104.5 -41.5q69 0 103.5 41.5t34.5 119.5v427h192v-430q0 -128 -61 -211t-173 -108q-30 -18 -43.5 -33t-13.5 -35q0 -14 8.5 -21.5t23.5 -7.5
q23 0 45 11l16 -87q-21 -9 -42.5 -14t-50.5 -5q-60 0 -98 25.5z" />
    <glyph glyph-name="uogonek" unicode="&#x173;" horiz-adv-x="609" 
d="M352 -168.5q-38 25.5 -38 76.5q0 56 60 92v36q-38 -47 -122 -47q-92 0 -143 51t-51 147v334h182v-289q0 -39 13.5 -56t46.5 -17q64 0 64 71v291h182v-521h-36q-32 -19 -46 -34t-14 -36q0 -14 8.5 -21.5t23.5 -7.5q23 0 45 11l16 -87q-21 -9 -42.5 -14t-50.5 -5
q-60 0 -98 25.5z" />
    <glyph glyph-name="Wcircumflex" unicode="&#x174;" horiz-adv-x="1129" 
d="M565 861l-51 -66h-152l115 170h177l114 -170h-151zM219 748l132 -430l134 430h159l133 -430l133 430h212l-261 -748h-163l-134 413l-134 -413h-162l-261 748h212z" />
    <glyph glyph-name="wcircumflex" unicode="&#x175;" horiz-adv-x="862" 
d="M434 665l-51 -65h-152l115 182h177l114 -182h-151zM204 521l77 -258l86 258h128l86 -258l77 258h203l-201 -521h-145l-83 218l-84 -218h-146l-201 521h203z" />
    <glyph glyph-name="Ycircumflex" unicode="&#x176;" horiz-adv-x="776" 
d="M388 861l-51 -66h-152l115 170h177l114 -170h-151zM232 748l156 -282l156 282h224l-283 -474v-274h-193v274l-284 474h224z" />
    <glyph glyph-name="ycircumflex" unicode="&#x177;" horiz-adv-x="599" 
d="M299 665l-51 -65h-152l115 182h177l114 -182h-151zM203 521l97 -260l96 260h202l-336 -776h-199l139 312l-201 464h202z" />
    <glyph glyph-name="Ydieresis" unicode="&#x178;" horiz-adv-x="776" 
d="M346 952q28 -28 28 -68t-27.5 -67.5t-68.5 -27.5q-40 0 -67.5 27.5t-27.5 67.5t27.5 68t67.5 28t68 -28zM232 748l156 -282l156 282h224l-283 -474v-274h-193v274l-284 474h224zM429.5 952q27.5 28 67.5 28t68.5 -28t28.5 -68t-28 -67.5t-69 -27.5q-40 0 -67.5 27.5
t-27.5 67.5t27.5 68z" />
    <glyph glyph-name="Zacute" unicode="&#x179;" horiz-adv-x="631" 
d="M345 957h247l-199 -162h-164zM38 146l301 431h-301v171h549v-146l-302 -431h313v-171h-560v146z" />
    <glyph glyph-name="zacute" unicode="&#x17a;" horiz-adv-x="459" 
d="M231 791h206l-137 -191h-142zM34 120l176 254h-172v147h382v-120l-174 -254h179v-147h-391v120z" />
    <glyph glyph-name="Zdotaccent" unicode="&#x17b;" horiz-adv-x="631" 
d="M388 971.5q31 -31.5 31 -75.5t-31 -74.5t-76 -30.5q-44 0 -74.5 30.5t-30.5 74.5t31 75.5t74 31.5q45 0 76 -31.5zM38 146l301 431h-301v171h549v-146l-302 -431h313v-171h-560v146z" />
    <glyph glyph-name="zdotaccent" unicode="&#x17c;" horiz-adv-x="459" 
d="M308 757.5q31 -31.5 31 -75.5t-31 -74.5t-76 -30.5q-44 0 -74.5 30.5t-30.5 74.5t31 75.5t74 31.5q45 0 76 -31.5zM34 120l176 254h-172v147h382v-120l-174 -254h179v-147h-391v120z" />
    <glyph glyph-name="Zcaron" unicode="&#x17d;" horiz-adv-x="631" 
d="M109 965h152l51 -66l52 66h151l-114 -170h-177zM38 146l301 431h-301v171h549v-146l-302 -431h313v-171h-560v146z" />
    <glyph glyph-name="zcaron" unicode="&#x17e;" horiz-adv-x="459" 
d="M29 780h152l51 -64l52 64h151l-114 -182h-177zM34 120l176 254h-172v147h382v-120l-174 -254h179v-147h-391v120z" />
    <glyph glyph-name="florin" unicode="&#x192;" horiz-adv-x="452" 
d="M537 746l-73 -149q-10 12 -26.5 20.5t-36.5 8.5q-53 0 -63 -52l-9 -53h109v-151h-136l-91 -512h-186l91 512h-86v151h113l15 83q16 91 75.5 136.5t147.5 45.5q94 0 156 -40z" />
    <glyph glyph-name="Aringacute" unicode="&#x1fa;" horiz-adv-x="823" 
d="M335.5 804q-35.5 32 -35.5 81q0 25 9 46t26 35l118 123h227l-181 -115q21 -15 32.5 -38t11.5 -51q0 -49 -34.5 -81t-85.5 -32q-52 0 -87.5 32zM330 748h163l326 -748h-212l-52 119h-287l-52 -119h-212zM490 267l-79 182l-78 -182h157zM397 860.5q9 -9.5 26 -9.5
q15 0 24.5 10t9.5 24q0 15 -9.5 25t-24.5 10q-17 0 -26 -9.5t-9 -25.5q0 -15 9 -24.5z" />
    <glyph glyph-name="aringacute" unicode="&#x1fb;" horiz-adv-x="566" 
d="M199 603q-35 32 -35 81q0 27 10.5 49.5t30.5 37.5l112 117h226l-181 -114q44 -34 44 -90q0 -48 -34.5 -80.5t-85.5 -32.5q-52 0 -87 32zM102 264q63 36 165 40l59 2v27q0 49 -41 49q-24 0 -37 -14.5t-13 -31.5l-182 6q0 47 28.5 91t81 71.5t119.5 27.5q111 0 168.5 -53.5
t57.5 -159.5v-319h-171v37q-19 -21 -51 -34.5t-75 -13.5q-81 0 -126.5 39.5t-45.5 114.5q0 85 63 121zM232 131q11 -9 30 -9q25 0 44 15t19 38v25l-46 -2q-58 -3 -58 -40q0 -18 11 -27zM260.5 660q9.5 -9 25.5 -9q15 0 24.5 9.5t9.5 23.5q0 16 -9.5 25.5t-24.5 9.5
q-16 0 -25.5 -9.5t-9.5 -25.5q0 -15 9.5 -24z" />
    <glyph glyph-name="AEacute" unicode="&#x1fc;" horiz-adv-x="1073" 
d="M728 957h247l-199 -162h-164zM510 748h511v-171h-297v-112h254v-167h-254v-127h298v-171h-491v119h-211l-82 -119h-235zM531 267v171l-113 -171h113z" />
    <glyph glyph-name="aeacute" unicode="&#x1fd;" horiz-adv-x="891" 
d="M429 791h206l-137 -191h-142zM101.5 265q62.5 35 165.5 39l59 2v23q0 52 -43 52q-23 0 -35.5 -14t-12.5 -31l-182 6q0 48 27.5 91.5t78 71t117.5 27.5q99 0 155 -49q69 49 167 49q75 0 133 -30.5t90 -90t32 -141.5v-59h-332q0 -37 19 -59.5t58 -22.5q53 0 66 40l184 -9
q-12 -78 -81.5 -124.5t-164.5 -46.5q-59 0 -108.5 17.5t-85.5 50.5q-78 -68 -176 -68q-92 0 -142.5 40.5t-50.5 115.5q0 85 62.5 120zM262 122q26 0 44.5 15.5t18.5 37.5v25l-46 -2q-58 -3 -58 -41q0 -35 41 -35zM668 318q-2 38 -20 59t-52 21t-53.5 -21.5t-21.5 -58.5h147z
" />
    <glyph glyph-name="Oslashacute" unicode="&#x1fe;" horiz-adv-x="882" 
d="M474 957h247l-199 -162h-164zM94.5 576.5q50.5 87.5 141 135t205.5 47.5q95 0 175 -34l63 83l118 -89l-59 -78q47 -50 72.5 -118t25.5 -149q0 -115 -50.5 -202.5t-140.5 -135t-204 -47.5q-97 0 -177 34l-62 -81l-118 90l58 75q-47 51 -72.5 119t-25.5 148
q0 115 50.5 202.5zM263 265l241 315q-30 8 -63 8q-92 0 -146 -57.5t-54 -156.5q0 -60 22 -109zM441 160q91 0 144.5 57.5t53.5 156.5q0 65 -22 110l-241 -315q30 -9 65 -9z" />
    <glyph glyph-name="oslashacute" unicode="&#x1ff;" horiz-adv-x="643" 
d="M320 791h206l-137 -191h-142zM75 402q36 62 100.5 96t145.5 34q59 0 114 -19l36 48l100 -74l-33 -44q32 -35 49 -81.5t17 -101.5q0 -80 -36 -141.5t-100.5 -95.5t-146.5 -34q-60 0 -110 18l-46 -61l-100 74l42 55q-68 74 -68 185q0 80 36 142zM225 233l107 143h-11
q-45 0 -71.5 -31t-26.5 -85q0 -9 2 -27zM321 145q46 0 72.5 30.5t26.5 84.5q0 8 -2 24l-104 -139h7z" />
    <glyph glyph-name="uni0218" unicode="&#x218;" horiz-adv-x="668" 
d="M513 402q54 -27 85 -69.5t31 -106.5q0 -118 -79 -177.5t-202 -59.5q-92 0 -162 29.5t-108.5 86.5t-38.5 137l197 10q-1 -43 30.5 -69.5t81.5 -26.5q84 0 84 60q0 27 -30 45.5t-97 35.5q-81 21 -133 44.5t-84 66.5t-32 112q0 66 30.5 120.5t92 86.5t149.5 32
q86 0 151.5 -29t101.5 -84t37 -130l-197 -10q0 39 -23 62.5t-66 23.5q-36 0 -57.5 -17.5t-21.5 -48.5q0 -19 11 -31.5t37 -22.5t76 -21q82 -22 136 -49zM265.5 -80q29.5 31 74.5 31q46 0 72 -32.5t26 -85.5q-2 -164 -177 -252v75q53 31 70 84q-41 4 -68 33.5t-27 70.5
q0 45 29.5 76z" />
    <glyph glyph-name="uni0219" unicode="&#x219;" horiz-adv-x="510" 
d="M24 160l183 10q-2 -53 48 -53q41 0 41 34q0 15 -14.5 24.5t-60.5 21.5q-68 17 -106.5 34t-60.5 47.5t-22 82.5q0 79 59 125t161 46q103 0 160 -46t63 -125l-182 -10q1 24 -9 38.5t-32 14.5q-18 0 -28 -8t-10 -23q0 -18 18.5 -26.5t71.5 -22.5q57 -16 94 -33t59 -46.5
t22 -74.5q0 -83 -58.5 -132t-165.5 -49q-216 0 -231 171zM178.5 -80q29.5 31 74.5 31q46 0 72 -32.5t26 -84.5q0 -164 -177 -253v75q53 31 70 84q-41 4 -68 33.5t-27 70.5q0 45 29.5 76z" />
    <glyph glyph-name="uni021A" unicode="&#x21a;" horiz-adv-x="700" 
d="M447 577v-577h-193v577h-234v171h660v-171h-233zM277.5 -75q29.5 31 74.5 31q44 0 71 -32t27 -86q0 -163 -177 -252v75q53 31 70 84q-41 4 -68 33.5t-27 70.5q0 45 29.5 76z" />
    <glyph glyph-name="uni021B" unicode="&#x21b;" horiz-adv-x="433" 
d="M157.5 34.5q-55.5 45.5 -54.5 136.5l1 194h-94v156h95l1 168h182l-1 -168h111v-156h-112l-1 -146q0 -32 20.5 -49.5t49.5 -17.5q21 0 43 4v-161q-48 -6 -88 -6q-97 0 -152.5 45.5zM172.5 -83q29.5 31 74.5 31q46 0 72 -32.5t26 -84.5q0 -164 -177 -253v75q53 31 70 84
q-41 4 -68 33.5t-27 70.5q0 45 29.5 76z" />
    <glyph glyph-name="uni0237" unicode="&#x237;" 
d="M185.5 -208.5q-59.5 -57.5 -156.5 -57.5t-155 41l73 149q15 -14 29 -22t34 -8q53 0 53 61v566h182v-556q0 -116 -59.5 -173.5z" />
    <glyph glyph-name="circumflex" unicode="&#x2c6;" horiz-adv-x="415" 
d="M207 665l-51 -65h-152l115 182h177l114 -182h-151z" />
    <glyph glyph-name="caron" unicode="&#x2c7;" horiz-adv-x="415" 
d="M4 780h152l51 -64l52 64h151l-114 -182h-177z" />
    <glyph glyph-name="breve" unicode="&#x2d8;" horiz-adv-x="415" 
d="M355 636q-56 -47 -148 -47t-147.5 47t-55.5 138h148q0 -28 15 -44t40 -16q26 0 41 16t15 44h148q0 -91 -56 -138z" />
    <glyph glyph-name="dotaccent" unicode="&#x2d9;" horiz-adv-x="220" 
d="M185 757.5q31 -31.5 31 -75.5t-31 -74.5t-76 -30.5q-44 0 -74.5 30.5t-30.5 74.5t31 75.5t74 31.5q45 0 76 -31.5z" />
    <glyph glyph-name="ring" unicode="&#x2da;" horiz-adv-x="291" 
d="M246 800.5q41 -37.5 41 -93.5q0 -57 -41 -94.5t-100 -37.5q-60 0 -101 37.5t-41 94.5q0 56 41 93.5t101 37.5q59 0 100 -37.5zM117.5 679q10.5 -11 28.5 -11q17 0 27.5 11t10.5 28t-10.5 27.5t-27.5 10.5q-18 0 -28.5 -10.5t-10.5 -27.5t10.5 -28z" />
    <glyph glyph-name="ogonek" unicode="&#x2db;" horiz-adv-x="236" 
d="M153.5 -31q-14.5 -15 -14.5 -36q0 -14 8.5 -21.5t23.5 -7.5q23 0 45 11l16 -87q-21 -9 -42.5 -14t-50.5 -5q-60 0 -98 25.5t-38 76.5t44 81.5t125 50.5l29 -39q-33 -20 -47.5 -35z" />
    <glyph glyph-name="tilde" unicode="&#x2dc;" horiz-adv-x="398" 
d="M165 768.5q18 -7.5 39 -21.5q19 -11 28.5 -15.5t21.5 -4.5q37 0 37 42h102q1 -8 1 -23q0 -65 -32.5 -110t-86.5 -45q-25 0 -43 7.5t-41 22.5q-15 10 -25.5 14.5t-21.5 4.5q-37 0 -37 -42h-102q-1 8 -1 23q0 65 32.5 110t86.5 45q24 0 42 -7.5z" />
    <glyph glyph-name="hungarumlaut" unicode="&#x2dd;" horiz-adv-x="464" 
d="M66 793h172l-92 -193h-142zM288 793h172l-92 -193h-142z" />
    <glyph glyph-name="uni0326" unicode="&#x326;" horiz-adv-x="0" 
d="M129 -256q-41 4 -68 34t-27 71q0 45 29.5 76t74.5 31q46 0 72 -32.5t26 -84.5q0 -165 -177 -253v75q53 32 70 83z" />
    <glyph glyph-name="uni03A9" unicode="&#x3a9;" horiz-adv-x="807" 
d="M581.5 684q76.5 -46 117.5 -125.5t41 -176.5q0 -75 -25 -139.5t-63 -103.5h135v-139h-327v129q58 35 92.5 104t34.5 142q0 96 -49.5 155.5t-133.5 59.5q-85 0 -134.5 -59t-49.5 -156q0 -73 34.5 -142t91.5 -104v-129h-326v139h135q-38 38 -62.5 103t-24.5 140
q0 97 41 176.5t117 125.5t178 46q101 0 177.5 -46z" />
    <glyph glyph-name="uni03BC" unicode="&#x3bc;" horiz-adv-x="614" 
d="M63 521h182v-289q0 -39 13.5 -56t46.5 -17q64 0 64 71v291h182v-521h-172v36q-38 -47 -118 -47q-10 0 -16 2v-246h-182v776z" />
    <glyph glyph-name="pi" unicode="&#x3c0;" horiz-adv-x="758" 
d="M434.5 27.5q-34.5 36.5 -34.5 100.5q0 9 2 31l16 144h-75l-23 -178q-8 -67 -38 -125h-170l13 27q20 41 30.5 68t15.5 58l19 150h-3q-52 0 -85 -52l-83 124q30 31 55.5 49.5t61 29t87.5 10.5h247q59 0 85 17t43 54l140 -81q-15 -63 -55.5 -107t-109.5 -44h-11l-16 -132
q-1 -3 -1 -9q0 -20 17 -20q7 0 15.5 4.5t15.5 9.5l80 -106q-26 -29 -59.5 -44t-78.5 -15q-66 0 -100.5 36.5z" />
    <glyph glyph-name="uni10D0" unicode="&#x10d0;" horiz-adv-x="564" 
d="M389.5 416.5q15.5 -21.5 47.5 -49.5q29 -25 47.5 -46t31.5 -54t13 -80q0 -61 -33.5 -106t-90.5 -69t-126 -24q-108 0 -176 50t-68 141q0 27 8 54l188 -8q-3 -15 -3 -29q0 -28 12.5 -45.5t40.5 -17.5q27 0 40.5 16.5t13.5 43.5t-14.5 45t-45.5 41q-30 23 -48.5 41.5
t-31.5 49t-13 75.5q0 16 1 25h191q0 -32 15.5 -53.5z" />
    <glyph glyph-name="uni10D1" unicode="&#x10d1;" horiz-adv-x="616" 
d="M172.5 18.5q-60.5 30.5 -94.5 86t-34 129.5q0 88 48.5 150t129.5 85v51q0 21 -12.5 35t-38.5 31q-28 19 -46 36t-29.5 48.5t-7.5 79.5h190q0 -32 15 -50t46 -39q24 -17 38.5 -29.5t24.5 -34t10 -53.5v-82q73 -26 116.5 -86t43.5 -142q0 -74 -34.5 -130t-95 -86
t-134.5 -30q-75 0 -135.5 30.5zM256.5 160.5q17.5 -25.5 51.5 -25.5t51.5 25t17.5 74q0 48 -17.5 74t-51.5 26t-51.5 -26t-17.5 -74t17.5 -73.5z" />
    <glyph glyph-name="uni10D2" unicode="&#x10d2;" horiz-adv-x="616" 
d="M171.5 -279.5q-61.5 32.5 -97 91.5t-35.5 135q0 69 29 125t82 91.5t123 44.5q24 3 45 3q13 15 18.5 30.5t5.5 38.5q0 55 -41 55q-43 0 -43 -59l-203 5q0 57 30.5 103t86.5 72t130 26q72 0 126.5 -24.5t83.5 -66.5t29 -92q0 -41 -18.5 -71t-59.5 -53v-10q62 -37 88 -92
t26 -125q0 -77 -36 -136t-97.5 -91.5t-135.5 -32.5q-75 0 -136.5 32.5zM253 -136.5q19 -28.5 54 -28.5q36 0 55.5 28.5t19.5 84.5q0 55 -20 85t-55 30t-54 -29.5t-19 -85.5t19 -84.5z" />
    <glyph glyph-name="uni10D3" unicode="&#x10d3;" horiz-adv-x="887" 
d="M462.5 -229.5q-47.5 28.5 -113.5 28.5h-10q-40 0 -75.5 -7.5t-75.5 -26.5l-53 111q33 15 65.5 22t77.5 8v10q-102 26 -168 106t-66 206q0 83 29.5 140.5t78 85.5t107.5 28q46 0 80.5 -18t62.5 -58h10q63 76 188 76q66 0 121.5 -29.5t88.5 -83t33 -122.5q0 -68 -33 -121
t-90.5 -82.5t-128.5 -29.5q-70 0 -128 29t-91.5 82t-33.5 122q0 45 14 76q-22 11 -40 11q-75 0 -75 -113q0 -188 209 -253l42 -13q95 -29 154 -95t66 -160l-190 -6q-8 48 -55.5 76.5zM544 180.5q16 -23.5 47 -23.5t46.5 23.5t15.5 66.5q0 44 -15.5 68.5t-46.5 24.5
t-47 -24.5t-16 -68.5q0 -43 16 -66.5z" />
    <glyph glyph-name="uni10D4" unicode="&#x10d4;" horiz-adv-x="607" 
d="M160 -280.5q-59 31.5 -90 87t-31 127.5q0 50 16 95l188 -8q-9 -45 -9 -78q0 -55 17.5 -81.5t47.5 -26.5q29 0 47 25.5t18 76.5v320q0 78 -56 78q-25 0 -39 -19t-14 -56q0 -28 7 -68l-195 -6q-9 47 -9 86q0 63 31 110.5t86 73.5t127 26q74 0 131 -28t89 -80.5t32 -125.5
v-311q0 -112 -65 -180.5t-188 -68.5q-82 0 -141 31.5z" />
    <glyph glyph-name="uni10D5" unicode="&#x10d5;" horiz-adv-x="615" 
d="M161.5 -281.5q-60.5 30.5 -91.5 83t-31 116.5q0 34 7 63l189 -7q-3 -20 -3 -40q0 -48 20.5 -73.5t55.5 -25.5t54 25t19 73q0 46 -21 71t-56 25h-15v149h19q28 0 43.5 20t15.5 54q0 36 -17 56t-44 20q-24 0 -40 -20.5t-16 -54.5q0 -15 3 -30l-191 -6q-5 30 -5 52
q0 63 32 111t88.5 74.5t127.5 26.5q72 0 130 -26.5t91.5 -74.5t33.5 -112q0 -121 -114 -162v-10q65 -17 97.5 -66t32.5 -121q0 -60 -31 -110t-92.5 -80.5t-147.5 -30.5q-83 0 -143.5 30.5z" />
    <glyph glyph-name="uni10D6" unicode="&#x10d6;" horiz-adv-x="676" 
d="M232.5 18.5q-60.5 30.5 -94.5 86t-34 129.5q0 62 27 116q-62 26 -96 76.5t-34 117.5q0 64 31 113.5t87 77t128 27.5t127 -26t85.5 -71t30.5 -99q0 -59 -30 -99q78 -25 125 -86.5t47 -146.5q0 -74 -34.5 -130t-95 -86t-134.5 -30q-75 0 -135.5 30.5zM199.5 489
q13.5 -23 41.5 -35q27 12 50 17q15 30 15 72q0 74 -61 74q-28 0 -43.5 -19t-15.5 -54q0 -32 13.5 -55zM316.5 160.5q17.5 -25.5 51.5 -25.5t51.5 25t17.5 74q0 48 -17.5 74t-51.5 26t-51.5 -26t-17.5 -74t17.5 -73.5z" />
    <glyph glyph-name="uni10D7" unicode="&#x10d7;" horiz-adv-x="900" 
d="M171 18.5q-59 30.5 -93 87t-34 130.5q0 73 33 129t91 86.5t129 30.5q64 0 113.5 -20.5t78.5 -61.5h10q61 82 161 82q88 0 142 -63.5t54 -199.5q0 -63 -13 -114.5t-35 -104.5h-186q21 55 31 103t10 103q0 71 -17 99.5t-52 28.5q-25 0 -47 -18q15 -37 15 -82
q0 -74 -34.5 -130t-93.5 -86t-131 -30q-73 0 -132 30.5zM303 135q64 0 64 99q0 102 -64 102t-64 -102q0 -99 64 -99z" />
    <glyph glyph-name="uni10D8" unicode="&#x10d8;" horiz-adv-x="604" 
d="M51 104q-12 52 -12 112q0 130 71.5 198t190.5 68t191.5 -67.5t72.5 -198.5q0 -105 -46 -216h-174q14 58 20.5 102t6.5 103q0 65 -17.5 97.5t-53.5 32.5q-69 0 -69 -130q0 -55 7 -101t21 -104h-176q-21 52 -33 104z" />
    <glyph glyph-name="uni10D9" unicode="&#x10d9;" horiz-adv-x="609" 
d="M514 402.5q9 -32.5 9 -74.5q0 -66 -29 -106.5t-89 -64.5v-10q75 -18 117.5 -73.5t42.5 -135.5q0 -75 -31.5 -131t-93 -87.5t-147.5 -31.5q-85 0 -145 30.5t-90 83.5t-30 119q0 31 7 60l188 -7q-2 -19 -2 -34q0 -105 72 -105q36 0 56.5 29.5t20.5 88.5q0 121 -87 121h-45
v149h19q36 0 55 27t19 76q0 37 -7 69.5t-24 74.5l183 11q22 -46 31 -78.5z" />
    <glyph glyph-name="uni10DA" unicode="&#x10da;" horiz-adv-x="1165" 
d="M619.5 -223q-58.5 20 -139.5 22l-30 1q-128 4 -246 -58l-55 119q42 19 75 28t84 13v10q-123 17 -193.5 94.5t-70.5 209.5q0 87 29 147t77.5 89.5t107.5 29.5t101.5 -28t61.5 -76h10q14 47 55.5 75.5t96.5 28.5q57 0 103.5 -29t57.5 -75h10q16 48 57.5 76t101.5 28
t107 -29t74 -86.5t27 -140.5q0 -78 -29 -194l-189 11q11 36 18 84.5t7 90.5q0 108 -57 108q-22 0 -35.5 -17t-13.5 -54v-146h-185v146q0 34 -15.5 52.5t-38.5 18.5q-26 0 -41.5 -19.5t-15.5 -51.5v-146h-186v146q0 37 -13 54t-34 17q-25 0 -40.5 -26.5t-15.5 -86.5
q0 -89 36 -140.5t91 -74t132 -33.5l72 -10q296 -41 310 -255l-190 -6q-10 63 -68.5 83z" />
    <glyph glyph-name="uni10DB" unicode="&#x10db;" horiz-adv-x="624" 
d="M166 20q-60 32 -91 88t-31 128q0 71 26.5 127t73.5 87.5t106 31.5q44 0 78 -17t53 -45h10q-12 45 -10 86l2 39q2 35 -18 53t-51 18q-30 0 -49.5 -17t-19.5 -45l-194 5q0 56 34.5 102.5t94 73.5t130.5 27q74 0 133.5 -29t93.5 -81t34 -118v-298q0 -72 -31 -128t-90 -88
t-141 -32q-83 0 -143 32zM257.5 161.5q18.5 -26.5 51.5 -26.5t52.5 25t19.5 67v17q0 42 -19 66.5t-53 24.5q-33 0 -51.5 -25.5t-18.5 -73.5t18.5 -74.5z" />
    <glyph glyph-name="uni10DC" unicode="&#x10dc;" horiz-adv-x="624" 
d="M174 20q-59 32 -90 88t-31 128v298q0 104 63.5 165t170.5 61q38 0 85 -5q10 -1 37 -3t48 -2q49 0 85 9v-165q-39 -14 -76 -14q-28 0 -54 6t-31 7q-7 1 -29.5 6t-42.5 5q-34 0 -52 -17.5t-16 -48.5l2 -32q3 -36 -10 -86h10q19 28 52.5 44.5t78.5 16.5q59 0 106 -31.5
t73.5 -87t26.5 -126.5q0 -72 -31 -128t-91 -88t-143 -32q-82 0 -141 32zM262.5 160q19.5 -25 52.5 -25t51.5 26.5t18.5 74.5t-18.5 73.5t-51.5 25.5q-34 0 -53 -24.5t-19 -66.5v-17q0 -42 19.5 -67z" />
    <glyph glyph-name="uni10DD" unicode="&#x10dd;" horiz-adv-x="958" 
d="M56.5 106.5q-12.5 51.5 -12.5 111.5q0 92 30.5 151t80.5 86t111 27q59 0 105 -26.5t69 -85.5h10q22 56 66 84t107 28q60 0 108.5 -25.5t77 -78t28.5 -129.5q0 -34 -3.5 -57.5t-11.5 -51.5v-3h119l-14 -137h-324q21 55 31 103t10 103q0 129 -59 129q-52 0 -52 -88v-139
h-186v139q0 88 -51 88q-28 0 -43.5 -29.5t-15.5 -100.5q0 -55 9.5 -103.5t29.5 -101.5h-186q-21 55 -33.5 106.5z" />
    <glyph glyph-name="uni10DE" unicode="&#x10de;" horiz-adv-x="607" 
d="M165.5 15q-59.5 27 -93 75.5t-33.5 112.5q0 18 5 45l189 -7q-1 -8 -1 -24q0 -36 16.5 -59t51.5 -23q36 0 52 22.5t16 67.5q0 38 -21 58.5t-55 20.5h-34v154h31q57 0 57 46q0 23 -15 37t-46 31q-36 20 -58.5 38.5t-39 53.5t-16.5 90l203 8q0 -31 19 -51.5t58 -46.5
q32 -21 51.5 -38t33.5 -43t14 -62q0 -109 -118 -138v-10q62 -15 96.5 -63t34.5 -111q0 -57 -30 -105t-89.5 -77t-142.5 -29q-76 0 -135.5 27z" />
    <glyph glyph-name="uni10DF" unicode="&#x10df;" horiz-adv-x="643" 
d="M184.5 -281.5q-59.5 30.5 -89.5 83t-30 119.5q0 31 7 60l189 -7q-3 -20 -3 -40q0 -48 19 -73.5t53 -25.5q69 0 69 98v396l-157 -27v-10q49 -13 74 -39t25 -69q0 -64 -49.5 -98.5t-128.5 -34.5q-67 0 -119 28l31 102q24 -11 45 -11t35 11t14 33q0 21 -14.5 32t-36.5 11
q-17 0 -35 -4l-6 159l322 58h190v-558q0 -60 -29 -111t-88 -82t-144 -31q-84 0 -143.5 30.5z" />
    <glyph glyph-name="uni10E0" unicode="&#x10e0;" horiz-adv-x="880" 
d="M57 130q-13 81 -13 178q1 220 116.5 322t282.5 117l170 15v-168l-161 -14q-129 -11 -195.5 -52t-89.5 -111h10q27 37 59 51t69 14q45 0 82.5 -29t51.5 -83h10q22 56 66 84t107 28q93 0 153.5 -64.5t60.5 -196.5q0 -61 -12.5 -113t-33.5 -108h-186q20 53 29.5 101
t10.5 104q-1 130 -60 130q-52 0 -52 -88v-139h-186v139q0 88 -51 88q-28 0 -43.5 -29.5t-15.5 -100.5q0 -55 9.5 -103.5t29.5 -101.5h-186q-19 49 -32 130z" />
    <glyph glyph-name="uni10E1" unicode="&#x10e1;" horiz-adv-x="619" 
d="M124.5 53q-67.5 65 -67.5 175v522h190v-527q0 -44 18.5 -66t49.5 -22q29 0 48 22t19 60q0 30 -6.5 51t-19.5 49q-14 32 -21.5 57.5t-7.5 64.5q0 20 1 31h190q0 -38 6.5 -64t20.5 -58q15 -34 22.5 -64.5t7.5 -78.5q0 -60 -31.5 -109.5t-90.5 -78.5t-137 -29
q-124 0 -191.5 65z" />
    <glyph glyph-name="uni10E2" unicode="&#x10e2;" horiz-adv-x="858" 
d="M229 -262q-90 49 -142 139t-52 208q0 103 40.5 185.5t112 134.5t162.5 69q-12 35 -12 71v65h182v-65q0 -35 -11 -71q91 -17 162 -69t111.5 -134.5t40.5 -185.5q0 -119 -52 -208.5t-142 -138.5t-200 -49t-200 49zM284.5 -98q54.5 -66 145.5 -66q90 0 143.5 66t53.5 183
q0 198 -123 241q16 -43 16 -97v-155h-182v155q0 51 15 96q-123 -43 -123 -240q0 -117 54.5 -183z" />
    <glyph glyph-name="uni10E3" unicode="&#x10e3;" horiz-adv-x="661" 
d="M197 -281q-61 31 -92.5 87t-31.5 128q0 50 16 95l188 -8q-9 -45 -9 -78q0 -52 19.5 -80t55.5 -28q35 0 55 27t20 75v354q0 21 -12.5 33t-30.5 12t-30 -12t-12 -33v-145h-180v118q0 24 -12 37.5t-36 13.5q-7 0 -25 -2q-16 -2 -26 -2q-15 0 -26 4v161q15 -4 33 -4
q12 0 36 2q22 2 31 2q41 0 74 -20t50 -66h10q18 46 61.5 69t94.5 23q56 0 99.5 -25t67 -69t23.5 -99v-352q0 -113 -66.5 -181t-196.5 -68q-87 0 -148 31z" />
    <glyph glyph-name="uni10E4" unicode="&#x10e4;" horiz-adv-x="886" 
d="M363.5 -281.5q-70.5 30.5 -109 83t-38.5 116.5l193 16q0 -47 31.5 -73t80.5 -26q51 0 79 27.5t28 75.5q0 39 -16.5 60.5t-40.5 26.5l-20 4l25 149h16q28 0 45 22t17 58q0 38 -21 57t-53 19q-28 0 -50 -11q14 -31 14 -74q0 -70 -33.5 -123.5t-91.5 -82.5t-128 -29
q-71 0 -128.5 29.5t-90.5 82.5t-33 122t33 122t89.5 82.5t126.5 29.5q59 0 106.5 -20.5t75.5 -55.5h10q27 38 70.5 57t91.5 19q57 0 103.5 -25.5t74 -70.5t27.5 -101q0 -66 -37 -114t-102 -65v-10q58 -17 86.5 -61.5t28.5 -106.5q0 -73 -36.5 -127.5t-103.5 -83.5t-156 -29
q-93 0 -163.5 30.5zM244.5 180.5q15.5 -23.5 46.5 -23.5t47 23.5t16 66.5q0 44 -16 68.5t-47 24.5t-46.5 -24.5t-15.5 -68.5q0 -43 15.5 -66.5z" />
    <glyph glyph-name="uni10E5" unicode="&#x10e5;" horiz-adv-x="613" 
d="M160 -280.5q-59 31.5 -90 87t-31 127.5q0 50 16 95l188 -8q-9 -45 -9 -78q0 -55 17.5 -81.5t47.5 -26.5q29 0 47 25.5t18 76.5v307q0 41 -16.5 66t-39.5 25q-25 0 -39 -19t-14 -56q0 -28 7 -68l-195 -6q-9 47 -9 86q0 96 48.5 153t128.5 57q43 0 76.5 -17t52.5 -45h10
q-10 39 -10 86v107h-118l14 137h294v-813q0 -112 -65 -180.5t-188 -68.5q-82 0 -141 31.5z" />
    <glyph glyph-name="uni10E6" unicode="&#x10e6;" horiz-adv-x="881" 
d="M454 -229.5q-46 28.5 -105 28.5h-10q-40 0 -75.5 -7.5t-75.5 -26.5l-53 111q33 15 65.5 22t77.5 8v10q-234 59 -234 306q0 89 30.5 147.5t80.5 85.5t111 27q59 0 105 -26.5t69 -85.5h10q22 56 66 84t107 28q94 0 154 -63t60 -193q0 -78 -29 -194l-189 11q11 37 18 83.5
t7 88.5q0 62 -16 91t-44 29q-51 0 -51 -88v-139h-186v139q0 88 -50 88q-28 0 -44 -29t-16 -90q0 -80 28 -130t70.5 -75.5t100.5 -43.5l43 -13q95 -29 153.5 -94.5t65.5 -159.5l-190 -6q-8 48 -54 76.5z" />
    <glyph glyph-name="uni10E7" unicode="&#x10e7;" horiz-adv-x="608" 
d="M109 -254.5q-70 57.5 -70 165.5q0 21 7 49l188 -11q-2 -18 -2 -26q0 -42 17 -65t51 -23q36 0 54 25.5t16 76.5l-3 68q-2 41 10 86h-10q-19 -27 -50 -44.5t-67 -17.5q-94 0 -152.5 61.5t-58.5 176.5q0 69 8 110t25 93h188q-26 -99 -26 -181q0 -113 65 -113q32 0 50 24.5
t18 66.5v203h190v-523q0 -119 -67.5 -189t-190.5 -70q-120 0 -190 57.5z" />
    <glyph glyph-name="uni10E8" unicode="&#x10e8;" horiz-adv-x="676" 
d="M217.5 19.5q-59.5 31.5 -90.5 87t-31 125.5q0 66 26.5 120t73.5 85.5t106 31.5q44 0 78 -17t53 -45h10q-4 18 -7.5 43.5t-2.5 42.5l2 78q1 20 -9 32.5t-28 12.5t-28 -11.5t-10 -33.5v-50h-180v50q0 41 -36 41q-14 0 -24.5 -8t-16.5 -21l-133 77q56 102 170 102
q48 0 85 -21.5t56 -64.5h10q21 43 62 64.5t93 21.5q54 0 94 -22.5t61.5 -61t21.5 -85.5v-364q0 -69 -31 -123.5t-90.5 -86t-142.5 -31.5q-82 0 -141.5 31.5zM307 160.5q19 -25.5 51 -25.5q33 0 52.5 24t19.5 61v17q0 38 -19.5 61.5t-52.5 23.5t-51.5 -24.5t-18.5 -68.5
q0 -43 19 -68.5z" />
    <glyph glyph-name="uni10E9" unicode="&#x10e9;" horiz-adv-x="628" 
d="M124 704q67 58 177 58q63 0 115 -21.5t81.5 -61t29.5 -90.5q0 -86 -82 -133v-10q75 -22 107 -74.5t32 -141.5q0 -58 -13.5 -119t-34.5 -111h-174q12 48 19.5 103.5t7.5 105.5q0 69 -16.5 98t-52.5 29q-35 0 -54 -24.5t-19 -66.5v-245h-190v543q0 103 67 161zM247 421
q17 23 41 41q51 37 51 99q0 29 -13.5 43t-32.5 14q-21 0 -35 -14.5t-13 -44.5l2 -52q2 -41 -10 -86h10z" />
    <glyph glyph-name="uni10EA" unicode="&#x10ea;" horiz-adv-x="776" 
d="M218 -268q-84 44 -133.5 140t-49.5 245q0 111 26.5 201t68.5 153h186q-86 -161 -86 -354q0 -159 54 -220.5t133 -61.5q58 0 94 29.5t36 72.5q0 47 -29.5 70.5t-81.5 23.5h-73v148h107q34 0 51 16t17 45q0 22 -10.5 37t-32.5 35q-23 22 -37 40t-24 47.5t-10 71.5h192
q3 -29 16.5 -49t37.5 -44q31 -33 46.5 -59.5t15.5 -70.5t-30 -82.5t-101 -56.5v-10q73 -19 106.5 -65.5t33.5 -112.5q0 -61 -40.5 -114.5t-116 -86t-174.5 -32.5q-108 0 -192 44z" />
    <glyph glyph-name="uni10EB" unicode="&#x10eb;" horiz-adv-x="628" 
d="M166 20q-60 32 -91 88t-31 128q0 71 26.5 127t73.5 87.5t106 31.5q44 0 78 -17t53 -45h10q-10 39 -10 86v244h190v-514q0 -72 -31 -128t-90 -88t-141 -32q-83 0 -143 32zM257.5 161.5q18.5 -26.5 51.5 -26.5t52.5 25t19.5 67v17q0 42 -19 66.5t-53 24.5
q-33 0 -51.5 -25.5t-18.5 -73.5t18.5 -74.5z" />
    <glyph glyph-name="uni10EC" unicode="&#x10ec;" horiz-adv-x="711" 
d="M32 480.5q-8 41.5 -8 92.5q0 56 25.5 99t70.5 66.5t104 23.5q52 0 93 -21.5t62 -64.5h10q19 43 56.5 64.5t85.5 21.5q63 0 100.5 -24.5t62.5 -77.5l-143 -77q-6 13 -16.5 21t-24.5 8q-36 0 -36 -41v-50h-180v50q0 22 -10 33.5t-28 11.5q-17 0 -27 -12t-10 -30
q0 -36 14 -90l14 -50q7 -25 12 -65h10q53 101 173 101q64 0 110 -28t69.5 -76t23.5 -107q0 -95 -44 -196l-158 -363h-178l-211 692q-14 47 -22 88.5zM380 -104h10l48 240q10 47 10 89q0 45 -18.5 71t-54.5 26q-32 0 -52.5 -20.5t-20.5 -62.5q0 -23 7 -50z" />
    <glyph glyph-name="uni10ED" unicode="&#x10ed;" horiz-adv-x="759" 
d="M184 -281.5q-59 30.5 -90 83t-31 118.5q0 32 7 61l189 -7q-3 -20 -3 -40q0 -48 18.5 -73.5t49.5 -25.5q30 0 47 25.5t17 73.5v111q0 55 10 89l-48 -28q-27 -15 -60.5 -23.5t-63.5 -8.5q-49 0 -93 25.5t-71 72t-27 105.5t27 106t71 73t93 26q29 0 63.5 -8t60.5 -23l48 -28
q-10 39 -10 101v226h190v-225q0 -45 -1.5 -77t-8.5 -60l138 94l13 -142l-156 -57v-10l156 -57l-13 -142l-138 94q7 -26 8.5 -57t1.5 -74v-100q0 -73 -29.5 -129t-86.5 -88t-138 -32t-140 30.5zM234 234.5q18 -16.5 47 -16.5q14 0 28 5.5t28.5 13t21.5 11.5l49 25v10l-49 25
q-7 4 -24.5 13t-29.5 13t-23 4q-30 0 -48 -16.5t-18 -43.5t18 -43.5z" />
    <glyph glyph-name="uni10EE" unicode="&#x10ee;" horiz-adv-x="628" 
d="M178 20q-59 32 -90 88t-31 128v514h190v-244q0 -47 -10 -86h10q19 28 52 44.5t77 16.5l51 121l136 -54l-64 -109q40 -33 62.5 -85.5t22.5 -117.5q0 -72 -31 -128t-91 -88t-143 -32q-82 0 -141 32zM266.5 160q19.5 -25 52.5 -25t51.5 26.5t18.5 74.5t-18.5 73.5
t-51.5 25.5q-34 0 -53 -24.5t-19 -66.5v-17q0 -42 19.5 -67z" />
    <glyph glyph-name="uni10EF" unicode="&#x10ef;" horiz-adv-x="833" 
d="M35 -260l62 121q18 -12 46.5 -19t55.5 -7q44 0 73.5 18.5t29.5 52.5q0 31 -24.5 47.5t-66.5 16.5h-96v144l227 139l-20 20q-13 13 -25 33q-10 16 -17 22.5t-19 6.5q-17 0 -27 -11.5t-10 -33.5q0 -12 3 -27h-187q-7 25 -7 48q0 44 24.5 83t76.5 63.5t128 24.5
q60 0 106 -18.5t84 -56.5l53 -54l36 22q30 19 46.5 43.5t16.5 51.5h195q0 -61 -18.5 -101.5t-72.5 -71.5l-96 -55l67 -68q38 -40 82 -40q13 0 33 5v-137q-51 -14 -87 -14q-50 0 -94 17t-75 49l-92 93l-115 -66v-10q41 -5 79 -26.5t62 -60t24 -90.5q0 -55 -29.5 -101.5
t-91 -75.5t-153.5 -29q-118 0 -187 52z" />
    <glyph glyph-name="uni10F0" unicode="&#x10f0;" horiz-adv-x="612" 
d="M163 12q-61 24 -93.5 69t-28.5 105l204 -5q0 -24 16.5 -38.5t43.5 -14.5q28 0 44.5 14t16.5 36q0 53 -59 53h-38v122h46q17 0 29 9t12 26t-12 26t-29 9h-46v121h46q33 0 33 27q0 14 -11 22.5t-35 19.5q-29 14 -49 28t-34.5 40.5t-14.5 68.5l204 8q1 -22 16.5 -36.5
t45.5 -31.5q39 -24 58.5 -44.5t19.5 -56.5q0 -63 -87 -86v-10q46 -6 71.5 -33t25.5 -69q0 -41 -25.5 -68.5t-71.5 -36.5v-10q48 -8 77.5 -40.5t29.5 -82.5q0 -46 -31 -83.5t-90.5 -59.5t-141.5 -22q-81 0 -142 24z" />
    <glyph glyph-name="uni1C90" unicode="&#x1c90;" horiz-adv-x="636" 
d="M421.5 670.5q10.5 -33.5 26 -58t42.5 -59.5q33 -43 53.5 -76t34.5 -84t14 -121q0 -91 -37.5 -155t-101 -96t-140.5 -32q-80 0 -142 32.5t-98 96.5t-36 157q0 54 12 105l189 -6q-8 -45 -8 -82q0 -60 20.5 -95.5t64.5 -35.5q39 0 60 30.5t21 85.5q0 51 -18 86t-57 85
q-35 44 -56.5 80t-36 90.5t-11.5 129.5h194q0 -44 10.5 -77.5z" />
    <glyph glyph-name="uni1C91" unicode="&#x1c91;" horiz-adv-x="642" 
d="M174.5 20q-64.5 31 -101 88t-36.5 132q0 94 56 159t149 86v46q0 22 -9.5 36t-29.5 32q-27 25 -41.5 50t-14.5 71q0 18 1 28h191q0 -31 11 -48t33 -36q26 -23 39 -44t13 -63v-83q78 -27 124 -88.5t46 -145.5q0 -75 -37 -132t-102 -88t-146 -31t-145.5 31zM255 177
q24 -23 65 -23q42 0 66.5 23t24.5 63t-25 64t-66 24q-40 0 -64.5 -24.5t-24.5 -63.5q0 -40 24 -63z" />
    <glyph glyph-name="uni1C92" unicode="&#x1c92;" horiz-adv-x="648" 
d="M177.5 20q-64.5 31 -101 88t-36.5 132q0 103 65 169.5t174 81.5q40 5 58 18.5t18 41.5q0 45 -40 45q-19 0 -29 -13t-9 -37l-200 5q1 58 31.5 105.5t84.5 75t124 27.5t123 -26t81.5 -67.5t28.5 -86.5q0 -85 -69 -124q60 -32 93.5 -88t33.5 -127q0 -75 -37 -132t-102 -88
t-146 -31t-145.5 31zM258 177q24 -23 65 -23q42 0 66.5 23t24.5 63t-25 64t-66 24q-40 0 -64.5 -24.5t-24.5 -63.5q0 -40 24 -63z" />
    <glyph glyph-name="uni1C93" unicode="&#x1c93;" horiz-adv-x="920" 
d="M492.5 66.5q-48.5 16.5 -112.5 16.5h-261v142h65q-64 42 -102 112.5t-38 151.5q0 90 32.5 151t87.5 90t123 29q52 0 100.5 -20.5t74.5 -59.5q25 37 73 58.5t103 21.5q70 0 126.5 -30.5t89 -85.5t32.5 -126q0 -69 -33 -122.5t-92.5 -83.5t-134.5 -30t-135 29t-94 80.5
t-34 116.5v19q0 28 -13 49t-41 21q-34 0 -51.5 -27t-17.5 -86q0 -123 66 -177t154 -64l36 -4q112 -13 179 -72.5t72 -165.5h-196q-10 50 -58.5 66.5zM572.5 463.5q19.5 -21.5 52.5 -21.5t52 21.5t19 56.5q0 36 -19 57t-52 21t-52.5 -21.5t-19.5 -56.5t19.5 -56.5z" />
    <glyph glyph-name="uni1C94" unicode="&#x1c94;" horiz-adv-x="655" 
d="M171 21.5q-63 32.5 -97 89.5t-34 129q0 39 12 82l187 -8q-5 -35 -5 -57q0 -46 21 -72t63 -26q40 0 64 22t24 67v267q0 36 -21 55t-53 19q-37 0 -56 -21t-19 -58q0 -17 3 -38l-193 -6q-6 38 -6 71q0 67 35.5 117.5t97.5 77.5t138 27q77 0 138 -29t95 -84.5t34 -131.5v-266
q0 -78 -33 -136.5t-96.5 -90.5t-152.5 -32q-83 0 -146 32.5z" />
    <glyph glyph-name="uni1C95" unicode="&#x1c95;" horiz-adv-x="658" 
d="M469.5 731q62.5 -28 98.5 -80.5t36 -124.5q0 -107 -94 -148q52 -18 78 -61.5t26 -101.5q0 -62 -33.5 -113.5t-97.5 -82t-152 -30.5q-90 0 -156 32t-100.5 89t-34.5 130q0 32 7 61l188 -7q-2 -13 -2 -37q0 -52 25.5 -78.5t70.5 -26.5q42 0 66 23t24 61q0 40 -25 59t-68 19
h-19v152h28q34 0 54 17.5t20 46.5q0 30 -22 48.5t-56 18.5q-38 0 -57 -20.5t-19 -55.5q0 -11 2 -31l-193 -6q-4 36 -4 52q0 65 35.5 116t97 79t138.5 28q76 0 138.5 -28z" />
    <glyph glyph-name="uni1C96" unicode="&#x1c96;" horiz-adv-x="688" 
d="M220.5 20q-64.5 31 -101 88t-36.5 132q0 84 55 145q-45 19 -76.5 61.5t-31.5 97.5q0 63 31.5 111t88.5 75t130 27t131 -25t90.5 -70t32.5 -102q0 -65 -37 -108q69 -23 111.5 -80.5t42.5 -131.5q0 -75 -37 -132t-102 -88t-146 -31t-145.5 31zM236 499.5q17 -17.5 45 -17.5
q29 0 46.5 17.5t17.5 40.5t-17.5 40.5t-46.5 17.5q-28 0 -45 -17.5t-17 -40.5t17 -40.5zM301.5 177.5q24.5 -23.5 64.5 -23.5q42 0 66.5 23t24.5 63t-25 64t-66 24q-40 0 -64.5 -24.5t-24.5 -63.5t24.5 -62.5z" />
    <glyph glyph-name="uni1C97" unicode="&#x1c97;" horiz-adv-x="956" 
d="M182 24q-62 35 -96.5 99.5t-34.5 150.5v201q0 87 32.5 151.5t91.5 99t137 34.5q58 0 106.5 -20.5t77.5 -66.5q26 45 74.5 66t99.5 21q112 0 173 -70.5t61 -198.5v-127q0 -107 -13.5 -193.5t-37.5 -170.5h-189q47 181 47 358v151q0 81 -61 81q-58 0 -58 -81v-239
q0 -85 -35 -149t-96.5 -98t-138.5 -34q-78 0 -140 35zM322 159q77 0 77 110v211q0 110 -77 110q-78 0 -78 -111v-209q0 -111 78 -111z" />
    <glyph glyph-name="uni1C98" unicode="&#x1c98;" horiz-adv-x="654" 
d="M64.5 170q-13.5 86 -13.5 188v117q0 87 35 151.5t97.5 99t143.5 34.5q79 0 141.5 -34t98 -98t35.5 -149v-121q0 -103 -14 -189.5t-38 -168.5h-187q46 177 46 348v122q0 57 -21 88.5t-61 31.5q-41 0 -62 -31.5t-21 -89.5v-121q0 -167 47 -348h-189q-24 84 -37.5 170z" />
    <glyph glyph-name="uni1C99" unicode="&#x1c99;" horiz-adv-x="644" 
d="M163 21q-65 32 -99.5 89t-34.5 130q0 32 7 61l188 -7q-2 -13 -2 -37q0 -52 25 -78.5t68 -26.5q41 0 65.5 24t24.5 63q0 40 -25 61t-68 21h-39v159h49q36 0 54.5 15t18.5 42q0 26 -19.5 44.5t-53.5 19.5l10 158q78 0 136.5 -27.5t90 -77t31.5 -112.5q0 -49 -22 -91
t-70 -63q49 -17 75.5 -64t26.5 -103q0 -65 -33.5 -118t-97.5 -83.5t-152 -30.5q-89 0 -154 32z" />
    <glyph glyph-name="uni1C9A" unicode="&#x1c9a;" horiz-adv-x="1196" 
d="M672.5 63.5q-34.5 20.5 -76.5 25t-101 4.5h-354v142h71q-82 36 -125 107.5t-43 165.5q0 78 32 135t87 87t120 30q52 0 95.5 -20.5t67.5 -64.5q24 44 65 64.5t90 20.5q46 0 90 -21.5t66 -63.5q25 45 68.5 65t95.5 20q67 0 120.5 -30.5t85.5 -94.5t32 -162q0 -49 -8 -93.5
t-21 -92.5l-192 11q26 81 26 178q0 59 -16 87.5t-44 28.5q-27 0 -40.5 -20.5t-13.5 -59.5v-133h-192v149q0 28 -15 46t-42 18q-29 0 -42 -17.5t-13 -46.5v-149h-194v133q0 38 -13 59t-39 21q-29 0 -45 -27t-16 -80q0 -96 46.5 -146t105 -64.5t124.5 -16.5l62 -2
q150 -5 238.5 -72t93.5 -184h-196q-6 43 -40.5 63.5z" />
    <glyph glyph-name="uni1C9B" unicode="&#x1c9b;" horiz-adv-x="667" 
d="M175 21.5q-64 32.5 -97.5 90.5t-33.5 132q0 73 31.5 131t89 90t132.5 32q36 0 68 -11t54 -31v74q0 34 -25 53.5t-62 19.5q-36 0 -61 -17.5t-26 -46.5l-197 6q0 64 37 113.5t101.5 76t143.5 26.5t143 -31t101 -86t37 -126v-263q0 -123 -74 -194t-209 -71q-89 0 -153 32.5z
M264 178q25 -24 66 -24q39 0 64 23t25 59v14q0 36 -25 59t-64 23q-41 0 -66 -24t-25 -64q0 -42 25 -66z" />
    <glyph glyph-name="uni1C9C" unicode="&#x1c9c;" horiz-adv-x="666" 
d="M129 60q-74 71 -74 194v281q0 109 65 161t182 52h267v-168h-262q-28 0 -44 -16.5t-16 -43.5v-65q22 20 54 31t68 11q75 0 132.5 -32t89 -90t31.5 -131q0 -74 -33.5 -132t-97.5 -90.5t-153 -32.5q-135 0 -209 71zM272 177q25 -23 64 -23q41 0 66 24t25 66q0 40 -25 64
t-66 24q-39 0 -64 -23t-25 -59v-14q0 -36 25 -59z" />
    <glyph glyph-name="uni1C9D" unicode="&#x1c9d;" horiz-adv-x="920" 
d="M64.5 170.5q-13.5 86.5 -13.5 193.5v127q0 127 65.5 198t178.5 71q52 0 94 -19t71 -68q50 87 174 87q112 0 173 -70.5t61 -198.5v-127q0 -107 -13.5 -193.5t-37.5 -170.5h-189q47 181 47 358v151q0 81 -61 81q-58 0 -58 -81v-300h-193v300q0 81 -58 81q-61 0 -61 -81
v-151q0 -177 47 -358h-189q-24 84 -37.5 170.5z" />
    <glyph glyph-name="uni1C9E" unicode="&#x1c9e;" horiz-adv-x="638" 
d="M166 16.5q-65 28.5 -101 80.5t-36 120q2 26 6 53l191 -7q-1 -7 -1 -21q0 -43 23.5 -67t65.5 -24q40 0 64 20.5t24 54.5q0 35 -23.5 55t-63.5 20h-36v156h45q27 0 42 10t15 29q0 21 -16.5 37.5t-49.5 38.5q-45 30 -71.5 69t-26.5 107h196q1 -23 14.5 -38t47.5 -42
q49 -37 74 -77t25 -88q0 -41 -21.5 -76t-67.5 -54q52 -18 80.5 -60.5t28.5 -104.5q0 -60 -33 -110.5t-96.5 -80t-150.5 -29.5q-83 0 -148 28.5z" />
    <glyph glyph-name="uni1C9F" unicode="&#x1c9f;" horiz-adv-x="664" 
d="M176 15q-65 27 -102 76.5t-37 113.5q0 32 6 65l191 -7q-1 -7 -1 -21q0 -43 23.5 -67t65.5 -24q41 0 64.5 23t23.5 68v364l-166 -22q19 -3 40 -17t35 -38.5t14 -57.5q0 -133 -181 -133q-62 0 -108 24l30 117q26 -10 47 -10q18 0 31.5 9t13.5 30q0 39 -54 39q-14 0 -31 -3
l-5 160l334 45h192v-519q0 -71 -33 -125.5t-96 -85.5t-151 -31q-81 0 -146 27z" />
    <glyph glyph-name="uni1CA0" unicode="&#x1ca0;" horiz-adv-x="904" 
d="M748 457q54 -29 86.5 -91t32.5 -156q0 -97 -47 -210h-191q22 60 32.5 104.5t10.5 98.5q0 61 -16.5 88t-47.5 27q-30 0 -43 -25t-13 -62v-122h-194v122q0 87 -54 87q-31 0 -47.5 -27t-16.5 -89q0 -56 10 -100t32 -102h-190q-24 71 -36 137.5t-12 148.5q0 142 49.5 224
t114.5 116t158 61q55 15 80.5 27t30.5 34h200q-2 -72 -44.5 -114.5t-100 -62.5t-149.5 -40q-86 -19 -130.5 -35.5t-58.5 -48.5q20 20 52 29.5t62 9.5q49 0 85 -17.5t62 -58.5q53 76 171 76q68 0 122 -29z" />
    <glyph glyph-name="uni1CA1" unicode="&#x1ca1;" horiz-adv-x="657" 
d="M135 58.5q-74 69.5 -74 196.5v491h193v-495q0 -49 24.5 -73.5t60.5 -24.5q35 0 60 20.5t25 53.5q0 28 -8 48t-25 49q-20 34 -30 62.5t-10 70.5q0 19 1 29h190q0 -39 9 -64t28 -58q20 -36 30.5 -66t10.5 -80q0 -62 -35 -114.5t-98.5 -83.5t-146.5 -31q-131 0 -205 69.5z
" />
    <glyph glyph-name="uni1CA2" unicode="&#x1ca2;" horiz-adv-x="869" 
d="M359 578q-58 -20 -89.5 -72t-31.5 -137q0 -98 53 -154.5t144 -56.5q90 0 143 56.5t53 154.5q0 83 -29.5 134.5t-84.5 72.5q7 -18 10 -40.5t3 -57.5v-189h-188v186q0 63 17 103zM80.5 541.5q36.5 75.5 103.5 123t156 64.5v48h192v-48q134 -27 213.5 -121.5t79.5 -238.5
q0 -114 -50 -200t-138.5 -133t-201.5 -47t-202 47t-139 133t-50 200q0 97 36.5 172.5z" />
    <glyph glyph-name="uni1CA3" unicode="&#x1ca3;" horiz-adv-x="667" 
d="M183 21.5q-63 32.5 -97 89.5t-34 129q0 39 12 82l187 -8q-5 -35 -5 -57q0 -46 21 -72t63 -26q40 0 64 22t24 67v293q0 23 -13 35.5t-31 12.5t-30 -12.5t-12 -35.5v-119h-190v96q0 27 -15.5 42.5t-45.5 15.5h-44v177h79q91 0 131 -74q22 39 66 59.5t96 20.5q59 0 105 -25
t71.5 -69t25.5 -99v-318q0 -78 -33 -136.5t-96.5 -90.5t-152.5 -32q-83 0 -146 32.5z" />
    <glyph glyph-name="uni1CA4" unicode="&#x1ca4;" horiz-adv-x="921" 
d="M362.5 19q-72.5 28 -110.5 78.5t-38 117.5q0 17 1 25l194 -4q-3 -39 28 -62.5t95 -23.5q66 0 97.5 25.5t31.5 65.5q0 28 -16.5 47.5t-45.5 23.5l-8 1v156h17q34 0 53.5 13.5t19.5 48.5q0 27 -16 46t-45 19t-44.5 -19t-15.5 -46v-24q0 -65 -34 -116.5t-94 -80.5t-135 -29
t-134.5 30t-92.5 83.5t-33 122.5q0 71 32.5 126t89 85.5t126.5 30.5q55 0 103 -21.5t73 -58.5q26 39 74.5 59.5t100.5 20.5q65 0 120.5 -26t88 -73.5t32.5 -109.5q0 -67 -35.5 -111.5t-89.5 -64.5q48 -17 76 -59.5t28 -100.5q0 -62 -35.5 -112.5t-107.5 -80.5t-177 -30
q-101 0 -173.5 28zM246 463q19 -21 52 -21t52.5 21.5t19.5 56.5t-19.5 56.5t-52.5 21.5q-34 0 -52.5 -21t-18.5 -57t19 -57z" />
    <glyph glyph-name="uni1CA5" unicode="&#x1ca5;" horiz-adv-x="664" 
d="M174 16.5q-65 28.5 -101 80.5t-36 120q2 26 6 53l191 -7q-1 -7 -1 -21q0 -43 23.5 -67t65.5 -24q41 0 64.5 23t23.5 68v148q0 36 -21.5 59t-57.5 23q-33 0 -55.5 -18t-22.5 -53q0 -7 1 -13l-192 -4q-2 12 -2 34q0 63 30.5 113t81.5 78t111 28q38 0 71 -11.5t56 -32.5v155
h192v-518q0 -71 -33 -125.5t-96 -85.5t-151 -31q-83 0 -148 28.5z" />
    <glyph glyph-name="uni1CA6" unicode="&#x1ca6;" horiz-adv-x="905" 
d="M512.5 63.5q-27.5 20.5 -59.5 25.5t-76 5h-269v142h69q-69 40 -101 109t-32 144q0 91 32.5 151.5t87 89.5t121.5 29q119 0 170 -80q54 80 172 80q67 0 121.5 -29.5t87 -92t32.5 -157.5q0 -52 -8.5 -103t-23.5 -91l-189 11q26 83 26 173q0 67 -17 96t-48 29
q-28 0 -41.5 -25.5t-13.5 -64.5v-127h-194v127q0 40 -13 65t-42 25q-31 0 -47.5 -28t-16.5 -94q0 -90 31.5 -137t72 -61.5t92.5 -18.5l36 -3q113 -10 187.5 -74t79.5 -179h-193q-6 43 -33.5 63.5z" />
    <glyph glyph-name="uni1CA7" unicode="&#x1ca7;" horiz-adv-x="669" 
d="M180 17q-65 29 -100.5 81t-35.5 119q0 29 4 53l191 -7q-1 -10 -1 -21q0 -43 24.5 -67t64.5 -24q41 0 64.5 23t23.5 68v106q-46 -29 -122 -29q-64 0 -120.5 29.5t-90.5 86t-34 133.5q0 62 8.5 102t24.5 79h191q-12 -38 -20 -82.5t-8 -79.5q0 -50 21.5 -75t63.5 -25
q44 0 65 22t21 68v172h192v-519q0 -71 -33 -125.5t-96 -85.5t-150 -31q-83 0 -148 29z" />
    <glyph glyph-name="uni1CA8" unicode="&#x1ca8;" horiz-adv-x="667" 
d="M175.5 21q-64.5 32 -98 88.5t-33.5 127.5q0 72 31.5 128.5t89 88.5t132.5 32q36 0 68 -11t54 -31v115q0 22 -13 34t-30 12q-19 0 -31.5 -12t-12.5 -34v-31h-190v15q0 21 -16.5 33t-42.5 12q-22 0 -39 -3v166q28 7 66 7q45 0 80 -19t56 -57q22 37 66 57t99 20
q59 0 104.5 -24.5t70.5 -68t25 -96.5v-316q0 -123 -74 -194t-209 -71q-88 0 -152.5 32zM264.5 177q25.5 -23 65.5 -23q38 0 63.5 22t25.5 53v10q0 36 -25 59t-64 23q-40 0 -65.5 -23.5t-25.5 -60.5t25.5 -60z" />
    <glyph glyph-name="uni1CA9" unicode="&#x1ca9;" horiz-adv-x="655" 
d="M126.5 702q65.5 57 180.5 57q71 0 124 -23t81 -64t28 -94q0 -73 -72 -121q73 -19 108 -76.5t35 -147.5q0 -128 -47 -232l-191 -1q23 60 33 108t10 120q0 50 -21.5 75.5t-60.5 25.5q-36 0 -58 -23t-22 -57v-249h-193v545q0 100 65.5 157zM301 485q26 10 39.5 26.5
t13.5 42.5q0 24 -13 36.5t-36 12.5t-38 -12t-15 -40v-91q21 13 49 25z" />
    <glyph glyph-name="uni1CAA" unicode="&#x1caa;" horiz-adv-x="760" 
d="M222 29.5q-81 40.5 -129.5 130t-48.5 230.5q0 115 22 206.5t49 154.5h189q-30 -84 -48.5 -164t-18.5 -197q0 -142 49.5 -190t118.5 -48q55 0 89 24.5t34 61.5t-26.5 57.5t-72.5 20.5h-66v156h86q34 0 51 15.5t17 39.5q0 18 -9.5 31.5t-30.5 33.5q-34 32 -53 65.5
t-19 93.5h193q3 -27 16.5 -47.5t37.5 -45.5q29 -32 44 -58.5t15 -66.5q0 -47 -24.5 -87t-75.5 -58q51 -18 80 -63t29 -108q0 -62 -37 -114t-108.5 -83t-169.5 -31q-102 0 -183 40.5z" />
    <glyph glyph-name="uni1CAB" unicode="&#x1cab;" horiz-adv-x="666" 
d="M168 21.5q-64 32.5 -97.5 90.5t-33.5 132q0 73 31.5 131t89 90t132.5 32q36 0 68 -11t54 -31v293h192v-494q0 -123 -74 -194t-209 -71q-89 0 -153 32.5zM257 178q25 -24 66 -24q39 0 64 23t25 59v14q0 36 -25 59t-64 23q-41 0 -66 -24t-25 -64q0 -42 25 -66z" />
    <glyph glyph-name="uni1CAC" unicode="&#x1cac;" horiz-adv-x="667" 
d="M130 60q-74 71 -74 194v316q0 53 25 96.5t70.5 68t104.5 24.5q55 0 99 -20t66 -57q21 38 56 57t80 19q38 0 66 -7v-166q-16 3 -39 3q-26 0 -42.5 -12t-16.5 -33v-15h-190v31q0 22 -12.5 34t-31.5 12q-17 0 -30 -12t-13 -34v-115q22 20 54 31t68 11q75 0 132.5 -32
t89 -88.5t31.5 -128.5q0 -71 -33.5 -127.5t-98 -88.5t-152.5 -32q-135 0 -209 71zM273.5 176q25.5 -22 63.5 -22q40 0 65.5 23t25.5 60t-25.5 60.5t-65.5 23.5q-39 0 -64 -23t-25 -59v-10q0 -31 25.5 -53z" />
    <glyph glyph-name="uni1CAD" unicode="&#x1cad;" horiz-adv-x="749" 
d="M181 16.5q-65 28.5 -101 80.5t-36 120q0 26 6 53l191 -7q-1 -7 -1 -21q0 -43 23.5 -67t65.5 -24q41 0 64.5 23t23.5 68v115l-39 -18q-28 -13 -63 -20t-69 -7q-51 0 -97.5 21t-75.5 62t-29 98t29 98t75.5 62t97.5 21q79 0 132 -26l39 -19v119h187v-130l112 55l13 -138
l-125 -42l125 -42l-13 -138l-112 55v-138q0 -71 -32 -126t-94 -85.5t-149 -30.5q-83 0 -148 28.5zM250.5 470q16.5 -8 44.5 -8q46 0 88 17l34 14l-34 14q-39 16 -88 16q-28 0 -44.5 -7.5t-16.5 -22.5t16.5 -23z" />
    <glyph glyph-name="uni1CAE" unicode="&#x1cae;" horiz-adv-x="666" 
d="M136 60q-74 71 -74 194v494h192v-293q22 20 54 31t68 11q75 0 132.5 -32t89 -90t31.5 -131q0 -74 -33.5 -132t-97.5 -90.5t-153 -32.5q-135 0 -209 71zM279 177q25 -23 64 -23q41 0 66 24t25 66q0 40 -25 64t-66 24q-39 0 -64 -23t-25 -59v-14q0 -36 25 -59z" />
    <glyph glyph-name="uni1CAF" unicode="&#x1caf;" horiz-adv-x="647" 
d="M177 16.5q-65 28.5 -101 80.5t-36 120q0 26 6 53l191 -7q-1 -7 -1 -21q0 -43 23.5 -67t65.5 -24q40 0 64 20.5t24 52.5q0 35 -25.5 55t-67.5 20h-90v174q-56 -8 -104 -8q-37 0 -76 6l8 159q39 -6 77 -6q39 0 95 7v117h187v-87q45 6 93 6q42 0 87 -6l-7 -159q-43 6 -86 6
q-40 0 -87 -5v-60q95 -16 142.5 -78.5t47.5 -144.5q0 -107 -74.5 -169.5t-207.5 -62.5q-83 0 -148 28.5z" />
    <glyph glyph-name="uni1CB0" unicode="&#x1cb0;" horiz-adv-x="646" 
d="M571.5 244.5q30.5 -32.5 30.5 -82.5q0 -47 -34 -86.5t-97 -63t-146 -23.5q-91 0 -157 26.5t-100 77t-30 119.5l193 -5q0 -26 24.5 -41t63.5 -15q41 0 64.5 9t23.5 28q0 15 -15 24.5t-49 9.5h-59v134h74q18 0 28 8t10 22q0 13 -10 21t-28 8h-74v134h71q16 0 23.5 4t7.5 13
q0 10 -11.5 17.5t-34.5 16.5q-36 15 -59.5 30t-41.5 43.5t-18 74.5h195q3 -17 18.5 -28t47.5 -27t52 -29t34.5 -34t14.5 -52q0 -80 -92 -103q49 -5 75 -30.5t26 -66.5t-25 -63t-76 -32q50 -6 80.5 -38.5z" />
    <glyph glyph-name="uni1CB1" unicode="&#x1cb1;" horiz-adv-x="600" 
 />
    <glyph glyph-name="uni1CB2" unicode="&#x1cb2;" horiz-adv-x="600" 
 />
    <glyph glyph-name="uni1CB3" unicode="&#x1cb3;" horiz-adv-x="600" 
 />
    <glyph glyph-name="uni1CB4" unicode="&#x1cb4;" horiz-adv-x="600" 
 />
    <glyph glyph-name="uni1CB5" unicode="&#x1cb5;" horiz-adv-x="600" 
 />
    <glyph glyph-name="uni1CB6" unicode="&#x1cb6;" horiz-adv-x="600" 
 />
    <glyph glyph-name="uni1CB7" unicode="&#x1cb7;" horiz-adv-x="600" 
 />
    <glyph glyph-name="uni1CB8" unicode="&#x1cb8;" horiz-adv-x="600" 
 />
    <glyph glyph-name="Wgrave" unicode="&#x1e80;" horiz-adv-x="1129" 
d="M277 957h248l115 -162h-164zM219 748l132 -430l134 430h159l133 -430l133 430h212l-261 -748h-163l-134 413l-134 -413h-162l-261 748h212z" />
    <glyph glyph-name="wgrave" unicode="&#x1e81;" horiz-adv-x="862" 
d="M221 791h206l73 -191h-142zM204 521l77 -258l86 258h128l86 -258l77 258h203l-201 -521h-145l-83 218l-84 -218h-146l-201 521h203z" />
    <glyph glyph-name="Wacute" unicode="&#x1e82;" horiz-adv-x="1129" 
d="M598 957h247l-199 -162h-164zM219 748l132 -430l134 430h159l133 -430l133 430h212l-261 -748h-163l-134 413l-134 -413h-162l-261 748h212z" />
    <glyph glyph-name="wacute" unicode="&#x1e83;" horiz-adv-x="862" 
d="M433 791h206l-137 -191h-142zM204 521l77 -258l86 258h128l86 -258l77 258h203l-201 -521h-145l-83 218l-84 -218h-146l-201 521h203z" />
    <glyph glyph-name="Wdieresis" unicode="&#x1e84;" horiz-adv-x="1129" 
d="M524 952q28 -28 28 -68t-27.5 -67.5t-68.5 -27.5q-40 0 -67.5 27.5t-27.5 67.5t27.5 68t67.5 28t68 -28zM219 748l132 -430l134 430h159l133 -430l133 430h212l-261 -748h-163l-134 413l-134 -413h-162l-261 748h212zM607.5 952q27.5 28 67.5 28t68.5 -28t28.5 -68
t-28 -67.5t-69 -27.5q-40 0 -67.5 27.5t-27.5 67.5t27.5 68z" />
    <glyph glyph-name="wdieresis" unicode="&#x1e85;" horiz-adv-x="862" 
d="M391 745.5q28 -27.5 28 -67.5t-27.5 -68t-68.5 -28q-40 0 -67.5 28t-27.5 68t27.5 67.5t67.5 27.5t68 -27.5zM204 521l77 -258l86 258h128l86 -258l77 258h203l-201 -521h-145l-83 218l-84 -218h-146l-201 521h203zM474.5 745.5q27.5 27.5 67.5 27.5q41 0 69 -27.5
t28 -67.5t-28 -68t-69 -28q-40 0 -67.5 28t-27.5 68t27.5 67.5z" />
    <glyph glyph-name="Ygrave" unicode="&#x1ef2;" horiz-adv-x="776" 
d="M100 957h248l115 -162h-164zM232 748l156 -282l156 282h224l-283 -474v-274h-193v274l-284 474h224z" />
    <glyph glyph-name="ygrave" unicode="&#x1ef3;" horiz-adv-x="599" 
d="M86 791h206l73 -191h-142zM203 521l97 -260l96 260h202l-336 -776h-199l139 312l-201 464h202z" />
    <glyph glyph-name="endash" unicode="&#x2013;" horiz-adv-x="568" 
d="M45 348h478v-171h-478v171z" />
    <glyph glyph-name="emdash" unicode="&#x2014;" horiz-adv-x="800" 
d="M45 348h710v-171h-710v171z" />
    <glyph glyph-name="quoteleft" unicode="&#x2018;" horiz-adv-x="250" 
d="M61 454q-26 32 -26 85q0 165 176 252v-75q-54 -33 -69 -83q40 -4 67 -34t27 -71q0 -45 -29 -75.5t-74 -30.5q-46 0 -72 32z" />
    <glyph glyph-name="quoteright" unicode="&#x2019;" horiz-adv-x="250" 
d="M108 580q-40 4 -67 33.5t-27 71.5q0 45 29 75.5t74 30.5q46 0 72.5 -32t26.5 -84q-2 -166 -177 -253v74q53 33 69 84z" />
    <glyph glyph-name="quotesinglbase" unicode="&#x201a;" horiz-adv-x="250" 
d="M108 -10q-40 4 -67 33.5t-27 71.5q0 44 29 75t74 31q46 0 72.5 -32.5t26.5 -84.5q-2 -165 -177 -253v75q53 33 69 84z" />
    <glyph glyph-name="quotedblleft" unicode="&#x201c;" horiz-adv-x="485" 
d="M296 454.5q-26 32.5 -26 83.5q2 166 177 254v-75q-52 -31 -70 -84q41 -4 68 -33.5t27 -70.5q0 -45 -29.5 -76t-74.5 -31q-46 0 -72 32.5zM212 792v-75q-52 -31 -70 -84q41 -4 68 -33.5t27 -70.5q0 -45 -29.5 -76t-74.5 -31q-46 0 -72 32.5t-26 83.5q2 166 177 254z" />
    <glyph glyph-name="quotedblright" unicode="&#x201d;" horiz-adv-x="485" 
d="M344 580q-41 4 -68 33.5t-27 71.5q0 44 29.5 75t74.5 31q46 0 72 -32.5t26 -84.5q0 -164 -177 -253v75q53 32 70 84zM43.5 760q29.5 31 74.5 31q46 0 72 -32.5t26 -85.5q-2 -164 -177 -252v75q53 32 70 84q-41 4 -68 33.5t-27 71.5q0 44 29.5 75z" />
    <glyph glyph-name="quotedblbase" unicode="&#x201e;" horiz-adv-x="485" 
d="M344 -10q-41 4 -68 33.5t-27 71.5q0 44 29 75t75 31t72 -32.5t26 -85.5q-2 -164 -177 -252v75q53 31 70 84zM43 170q29 31 74 31q46 0 72.5 -32.5t26.5 -83.5q-2 -166 -177 -254v75q53 33 69 84q-40 4 -67 33.5t-27 71.5q0 44 29 75z" />
    <glyph glyph-name="dagger" unicode="&#x2020;" horiz-adv-x="560" 
d="M545 401h-174v-468h-182v468h-174v164h174v183h182v-183h174v-164z" />
    <glyph glyph-name="daggerdbl" unicode="&#x2021;" horiz-adv-x="560" 
d="M545 401h-174v-121h174v-164h-174v-183h-182v183h-174v164h174v121h-174v164h174v183h182v-183h174v-164z" />
    <glyph glyph-name="bullet" unicode="&#x2022;" horiz-adv-x="349" 
d="M240 367.5q30 -17.5 47.5 -47.5t17.5 -65t-17.5 -65.5t-47.5 -48t-65 -17.5t-65.5 17.5t-48 48t-17.5 65.5t17.5 65t48 47.5t65.5 17.5t65 -17.5z" />
    <glyph glyph-name="ellipsis" unicode="&#x2026;" horiz-adv-x="874" 
d="M215 170q31 -31 31 -75q0 -45 -31 -75.5t-75 -30.5t-75 30.5t-31 75.5q0 44 31 75t75 31t75 -31zM351 170q31 31 75 31t75.5 -31t31.5 -75q0 -45 -31 -75.5t-76 -30.5q-44 0 -75 30.5t-31 75.5q0 44 31 75zM637.5 170q30.5 31 74.5 31t75.5 -31t31.5 -75q0 -45 -31 -75.5
t-76 -30.5q-44 0 -74.5 30.5t-30.5 75.5q0 44 30.5 75z" />
    <glyph glyph-name="perthousand" unicode="&#x2030;" horiz-adv-x="1329" 
d="M306.5 735q41.5 -24 65 -68t23.5 -101q0 -58 -23.5 -102t-65 -68t-94.5 -24t-95 24t-66 68t-24 102q0 57 24 101t66 68t95 24t94.5 -24zM611 748h175l-472 -748h-175zM174 516q14 -18 38 -18t37 17.5t13 50.5q0 32 -13 49.5t-37 17.5q-25 0 -38.5 -17.5t-13.5 -49.5
t14 -50zM553 284q24 44 66 68t95 24t94.5 -24t65 -67.5t23.5 -101.5t-23.5 -102t-65 -68t-94.5 -24t-95 24t-66 68t-24 102q0 57 24 101zM676 133q14 -18 38 -18t37 17.5t13 50.5q0 32 -13 49.5t-37 17.5q-25 0 -38.5 -17.5t-13.5 -49.5t14 -50zM957 284q24 44 66 68t95 24
t95 -24t65.5 -67.5t23.5 -101.5t-23.5 -102t-65.5 -68t-95 -24t-95 24t-66 68t-24 102q0 57 24 101zM1080.5 133q13.5 -18 37.5 -18t37 17.5t13 50.5q0 32 -13 49.5t-37 17.5q-25 0 -38 -17.5t-13 -49.5t13.5 -50z" />
    <glyph glyph-name="guilsinglleft" unicode="&#x2039;" horiz-adv-x="357" 
d="M342 134l-130 -114l-197 240l197 241l130 -114l-108 -127z" />
    <glyph glyph-name="guilsinglright" unicode="&#x203a;" horiz-adv-x="357" 
d="M15 134l108 126l-108 127l130 114l197 -241l-197 -240z" />
    <glyph glyph-name="fraction" unicode="&#x2044;" horiz-adv-x="237" 
d="M273 748h185l-494 -748h-185z" />
    <glyph glyph-name="Euro" unicode="&#x20ac;" horiz-adv-x="706" 
d="M580 2.5q-48 -13.5 -119 -13.5q-112 0 -200.5 64t-124.5 181h-125l42 112h65l-1 28v21h-106l42 113h82q23 81 72.5 137.5t116 85t140.5 28.5q67 0 111.5 -14.5t92.5 -47.5l-60 -159q-28 24 -60.5 37t-75.5 13q-44 0 -77.5 -20t-53.5 -60h257l-42 -113h-242v-21
q0 -19 1 -28h223l-41 -112h-153q41 -74 128 -74q71 0 130 48l80 -161q-54 -31 -102 -44.5z" />
    <glyph glyph-name="uni20BE" unicode="&#x20be;" horiz-adv-x="865" 
d="M80 153h84q-55 44 -87.5 105t-32.5 149q0 80 33 148.5t92.5 116.5t139.5 70v123h96v-107q10 1 30 1t30 -1v107h96v-123q120 -35 191.5 -132.5t71.5 -235.5h-191q0 136 -72 189v-189h-96v223q-10 1 -30 1t-30 -1v-223h-96v191q-74 -52 -74 -181q0 -65 28 -113t78.5 -74
t116.5 -26h324v-171h-702v153z" />
    <glyph glyph-name="trademark" unicode="&#x2122;" horiz-adv-x="903" 
d="M254 389h-133v230h-107v129h348v-129h-108v-230zM412 748h114l104 -197l105 197h114v-359h-134v113l-55 -108h-60l-55 108v-113h-133v359z" />
    <glyph glyph-name="estimated" unicode="&#x212e;" horiz-adv-x="598" 
d="M441 512.5q57 -29.5 90 -89t33 -145.5h-369v-180q0 -23 7.5 -39t32.5 -27q10 -4 31 -6.5t45 -2.5q68 0 123.5 32.5t92.5 93.5l32 -21q-43 -67 -107 -104.5t-141 -37.5q-79 0 -142 34.5t-99 97.5t-36 145q0 84 36 147t99 97.5t142 34.5q73 0 130 -29.5zM417 314v112
q0 31 -6.5 46t-29.5 23q-35 10 -70 10q-23 0 -45 -3.5t-34 -8.5q-23 -9 -30 -26.5t-7 -38.5v-114h222z" />
    <glyph glyph-name="partialdiff" unicode="&#x2202;" horiz-adv-x="615" 
d="M506 651q73 -108 73 -311q0 -171 -72.5 -261t-200.5 -90q-78 0 -139.5 31.5t-96 89.5t-34.5 136q0 72 32.5 126.5t90.5 83.5t133 29q52 0 95 -20q-3 71 -29 97t-73 26q-39 0 -69 -13.5t-57 -39.5l-102 159q51 32 102.5 48.5t119.5 16.5q154 0 227 -108zM253 184
q20 -24 56 -24q35 0 56.5 23.5t21.5 60.5v10q-2 37 -23 59t-55 22t-55 -23.5t-21 -62.5q0 -41 20 -65z" />
    <glyph glyph-name="product" unicode="&#x220f;" horiz-adv-x="672" 
d="M567 -164h-165v741h-132v-741h-165v741h-91v171h644v-171h-91v-741z" />
    <glyph glyph-name="summation" unicode="&#x2211;" horiz-adv-x="600" 
d="M418 374l-151 -203h295v-171h-516v142l172 232l-172 232v142h516v-171h-295z" />
    <glyph glyph-name="minus" unicode="&#x2212;" horiz-adv-x="548" 
d="M30 457h488v-171h-488v171z" />
    <glyph glyph-name="radical" unicode="&#x221a;" horiz-adv-x="702" 
d="M203 230l-100 -61l-89 143l257 156l87 -176l182 401l149 -64l-326 -706z" />
    <glyph glyph-name="infinity" unicode="&#x221e;" horiz-adv-x="771" 
d="M645.5 485q45.5 -28 70.5 -76t25 -106t-25 -106.5t-70.5 -77t-102.5 -28.5q-52 0 -92 21.5t-73 57.5l-8 9l-9 -8q-37 -32 -71.5 -49t-79.5 -17q-53 0 -94 26t-63.5 71t-22.5 100q0 54 22.5 100t63.5 72.5t94 26.5q47 0 80.5 -18t69.5 -53l7 -6l6 6q42 41 79 62t91 21
q57 0 102.5 -28zM183 266.5q11 -14.5 31 -14.5q38 0 63 38l7 11l-7 7q-20 23 -34.5 34t-28.5 11q-20 0 -31 -14.5t-11 -36.5q0 -21 11 -35.5zM469 291q24 -24 40 -35t34 -11q22 0 34 16.5t12 41.5q0 24 -12 40t-34 16q-19 0 -36 -11t-38 -34l-9 -12z" />
    <glyph glyph-name="integral" unicode="&#x222b;" horiz-adv-x="335" 
d="M297.5 754q26.5 -5 54.5 -15l-30 -138q-30 11 -52 11q-10 0 -17 -7t-7 -17v-595q0 -78 -37.5 -121t-105.5 -43q-67 0 -120 21l30 137q4 -1 17 -6t28 -5q12 0 21 7t9 16v595q0 78 37.5 121.5t105.5 43.5q40 0 66.5 -5z" />
    <glyph glyph-name="approxequal" unicode="&#x2248;" horiz-adv-x="549" 
d="M378 386q-27 0 -49.5 7t-51.5 21q-27 13 -46 19.5t-41 6.5q-34 0 -58.5 -11t-46.5 -38l-81 121q74 98 167 98q27 0 49.5 -7.5t53.5 -21.5q28 -13 46 -19.5t39 -6.5q33 0 57.5 11t47.5 39l81 -121q-72 -98 -167 -98zM171 357q27 0 49.5 -7.5t53.5 -21.5q26 -12 45 -18.5
t40 -6.5q34 0 58.5 11t46.5 38l81 -121q-73 -98 -167 -98q-26 0 -48 7t-53 22q-27 13 -46 19.5t-41 6.5q-33 0 -57.5 -11t-47.5 -39l-81 121q72 98 167 98z" />
    <glyph glyph-name="notequal" unicode="&#x2260;" horiz-adv-x="548" 
d="M518 332v-170h-208l-24 -112l-155 36l16 76h-117v170h154l17 78h-171v171h208l23 108l156 -35l-16 -73h117v-171h-154l-17 -78h171z" />
    <glyph glyph-name="lessequal" unicode="&#x2264;" horiz-adv-x="550" 
d="M521 426v-188l-491 247l491 245v-186l-127 -59zM30 202h491v-171h-491v171z" />
    <glyph glyph-name="greaterequal" unicode="&#x2265;" horiz-adv-x="550" 
d="M30 426l127 59l-127 59v186l490 -245l-490 -247v188zM30 202h490v-171h-490v171z" />
    <glyph glyph-name="triagup" unicode="&#x25b2;" horiz-adv-x="930" 
d="M405 513q0 116 26 224q1 4 1 9q0 10 -7 10q-4 0 -9 -6q-17 -22 -81.5 -126.5t-119.5 -198.5q-3 -4 -16 -28q-125 -215 -155 -297q-4 -12 -4 -17q0 -8 4 -15q7 -13 23 -13q9 0 33 8q39 14 110 53q55 32 107 71t76 64q15 16 20.5 29t5.5 29q0 7 -2 27q-12 101 -12 177z
M79 10q28 -3 151.5 -7.5t230.5 -4.5h32q122 1 204 4t132 11q19 2 27 15q3 6 3 12q0 17 -27 39q-35 30 -101 69q-54 32 -114 57.5t-94 33.5q-13 4 -27 4q-16 0 -27.5 -6t-31.5 -20q-89 -66 -174.5 -113.5t-179.5 -74.5l-8 -2q-7 -2 -7 -8t11 -9zM450.5 455.5
q7.5 -64.5 17.5 -97.5q8 -28 20.5 -39t41.5 -24q102 -44 186 -95t154 -118l6 -6q3 -3 7 -3q5 0 6 5t-1 10q-9 24 -66.5 132t-113.5 205q-3 4 -16 28q-63 106 -105.5 175t-75.5 108q-14 16 -27 16q-15 0 -22 -12t-10 -34q-9 -45 -9 -122q0 -64 7.5 -128.5z" />
    <glyph glyph-name="lozenge" unicode="&#x25ca;" horiz-adv-x="572" 
d="M228 -55l-204 401l204 402h117l203 -402l-203 -401h-117zM286 203l73 143l-73 142l-72 -142z" />
    <glyph glyph-name="uni2605" unicode="&#x2605;" horiz-adv-x="850" 
d="M450 751q-11 7 -24 7t-24.5 -7t-17.5 -21l-83 -193q-5 -12 -15.5 -19t-22.5 -8l-191 -15q-19 -1 -30.5 -14.5t-11.5 -30.5q0 -22 17 -35l152 -121q17 -12 17 -34q0 -4 -2 -12l-50 -201q-1 -4 -1 -11q0 -19 13.5 -32t31.5 -13q13 0 24 7l169 108q11 7 25 7t24 -7l169 -108
q11 -7 24 -7q18 0 32 13t14 31q0 4 -2 12l-51 201q-1 3 -1 10q0 22 17 36l151 121q17 13 17 35q0 17 -11 30.5t-30 14.5l-191 15q-12 1 -22.5 8t-15.5 19l-83 193q-6 14 -17 21z" />
    <glyph glyph-name="fl" unicode="&#xfb02;" horiz-adv-x="711" 
d="M386 780v-157q-15 3 -37 3q-33 0 -54.5 -19t-21.5 -48v-38h113v-156h-113v-365h-183v365h-89v156h89v34q0 68 29.5 120t83.5 80.5t125 28.5q35 0 58 -4zM466 777h182v-777h-182v777z" />
    <glyph glyph-name="null" horiz-adv-x="600" 
 />
    <glyph glyph-name="n.001" horiz-adv-x="624" 
d="M510.5 477q55.5 -55 55.5 -154v-323h-182v281q0 40 -17.5 60.5t-50.5 20.5t-52 -21.5t-19 -60.5v-280h-182v521h172v-35q17 20 49.5 33t77.5 13q93 0 148.5 -55z" />
    <glyph glyph-name="germandbls.cap" horiz-adv-x="712" 
d="M509 725.5q70 -30.5 123 -90.5l-107 -179q70 -31 110 -81t40 -131q0 -76 -35.5 -133t-100 -88t-147.5 -31q-60 0 -109 11l37 170q27 -10 64 -10q39 0 65.5 25t26.5 67q0 40 -20.5 65t-55 39t-90.5 27l96 175q-11 10 -29.5 17t-40.5 7q-37 0 -61 -23t-24 -65v-497h-193
v495q0 79 37 138.5t102 91t147 31.5q95 0 165 -30.5z" />
    <glyph glyph-name="a.sups" horiz-adv-x="466" 
d="M424 586v-257h-154v21q-36 -30 -99 -30q-69 0 -107.5 32t-38.5 93q0 67 51 95t138 33l47 3v22q0 15 -8.5 24.5t-22.5 9.5q-18 0 -27 -10t-9 -27l-159 5q0 38 24 74.5t68.5 59.5t101.5 23q195 0 195 -171zM218 433q18 0 30.5 9.5t12.5 23.5v19l-34 -2q-17 -2 -27.5 -9
t-10.5 -19q0 -22 29 -22z" />
    <glyph glyph-name="b.sups" horiz-adv-x="532" 
d="M253 752.5q21 4.5 47 4.5q60 0 106 -28t71.5 -77.5t25.5 -112.5q0 -64 -25.5 -113.5t-71.5 -77.5t-106 -28q-51 0 -101 26v-17h-153v622h163v-211q23 8 44 12.5zM226.5 480q17.5 -21 46.5 -21q32 0 49 21t17 59q0 37 -17.5 58.5t-48.5 21.5q-29 0 -46.5 -21t-17.5 -53
v-13q0 -31 17.5 -52z" />
    <glyph glyph-name="c.sups" horiz-adv-x="486" 
d="M389 712q57 -45 70 -122l-158 -13q-3 19 -16 30.5t-33 11.5q-27 0 -42.5 -21.5t-15.5 -58.5q0 -38 15.5 -59t42.5 -21q20 0 33 11.5t16 31.5l158 -13q-12 -78 -69.5 -123.5t-137.5 -45.5q-65 0 -115.5 26.5t-79 76t-28.5 116.5t29 116t79.5 75.5t114.5 26.5q80 0 137 -45
z" />
    <glyph glyph-name="d.sups" horiz-adv-x="533" 
d="M232 320q-60 0 -106 28t-71.5 77.5t-25.5 113.5q0 63 25.5 112.5t71.5 77.5t106 28q42 0 91 -17v211h163v-622h-154v17q-47 -26 -100 -26zM211 480q17 -21 48 -21q29 0 46.5 20.5t17.5 52.5v13q0 32 -17.5 53t-46.5 21q-31 0 -48 -21.5t-17 -58.5q0 -38 17 -59z" />
    <glyph glyph-name="e.sups" horiz-adv-x="485" 
d="M248 445q33 0 40 24l164 -8q-10 -63 -66.5 -102t-132.5 -39q-102 0 -163 59.5t-61 159.5q0 66 27.5 115.5t77.5 76t115 26.5q93 0 150 -55.5t57 -156.5v-51h-254q0 -49 46 -49zM291 589q-3 49 -44 49q-43 0 -45 -49h89z" />
    <glyph glyph-name="f.sups" horiz-adv-x="327" 
d="M321 953v-139q-8 2 -32 2q-23 0 -39.5 -13.5t-16.5 -32.5v-22h88v-139h-88v-280h-162v280h-70v139h70v19q0 56 25 99t70.5 67t104.5 24q29 0 50 -4z" />
    <glyph glyph-name="g.sups" horiz-adv-x="528" 
d="M332 731v17h154v-427q0 -60 -27 -106.5t-77.5 -72t-117.5 -25.5q-105 0 -161 45.5t-66 126.5l161 6q0 -41 59 -41q66 0 66 56v28q-47 -18 -91 -18q-60 0 -106 28t-71.5 77.5t-25.5 113.5q0 63 25.5 112.5t71.5 77.5t106 28q53 0 100 -26zM211 480q17 -21 48 -21
q29 0 46.5 20.5t17.5 52.5v13q0 32 -17.5 53t-46.5 21q-31 0 -48 -21.5t-17 -58.5q0 -38 17 -59z" />
    <glyph glyph-name="h.sups" horiz-adv-x="502" 
d="M295 757q76 0 120.5 -44t44.5 -124v-260h-163v222q0 28 -10.5 41.5t-32.5 13.5q-21 0 -33 -14t-12 -42v-221h-163v622h163v-216q34 22 86 22z" />
    <glyph glyph-name="i.sups" horiz-adv-x="255" 
d="M194 938.5q27 -27.5 27 -67.5q0 -38 -27 -65t-66 -27t-66.5 27t-27.5 65q0 40 28 67.5t66 27.5q39 0 66 -27.5zM46 748h163v-419h-163v419z" />
    <glyph glyph-name="j.sups" horiz-adv-x="255" 
d="M194 938.5q27 -27.5 27 -67.5q0 -38 -27 -65t-67 -27q-39 0 -66 27t-27 65q0 40 27 67.5t66 27.5q40 0 67 -27.5zM-43 262q12 -3 32 -3q24 0 40.5 14t16.5 33v442h163v-439q0 -56 -25.5 -99.5t-71 -67.5t-105.5 -24q-28 0 -50 3v141z" />
    <glyph glyph-name="k.sups" horiz-adv-x="500" 
d="M494 748l-140 -176l143 -243h-191l-67 121l-30 -36v-85h-163v622h163v-320l89 117h196z" />
    <glyph glyph-name="l.sups" horiz-adv-x="255" 
d="M46 951h163v-622h-163v622z" />
    <glyph glyph-name="m.sups" horiz-adv-x="740" 
d="M654.5 713.5q43.5 -43.5 43.5 -124.5v-260h-162v222q0 29 -9.5 42t-30.5 13q-22 0 -32 -13.5t-10 -42.5v-221h-162v222q0 29 -9.5 42t-31.5 13q-42 0 -42 -56v-221h-163v419h153v-20q31 29 93 29q83 0 127 -52q20 25 47.5 38.5t69.5 13.5q75 0 118.5 -43.5z" />
    <glyph glyph-name="n.sups" horiz-adv-x="502" 
d="M415.5 713q44.5 -44 44.5 -124v-260h-163v222q0 28 -10.5 41.5t-32.5 13.5q-21 0 -33 -14t-12 -42v-221h-163v419h153v-20q31 29 96 29q76 0 120.5 -44z" />
    <glyph glyph-name="o.sups" horiz-adv-x="517" 
d="M377 729.5q52 -27.5 81.5 -77t29.5 -113.5q0 -65 -29 -114.5t-81.5 -77t-119.5 -27.5q-66 0 -118.5 27.5t-81.5 77t-29 114.5q0 64 29 113.5t81.5 77t118.5 27.5q67 0 119 -27.5zM210.5 480q16.5 -21 47.5 -21t48.5 21t17.5 59t-17.5 59t-48.5 21t-47.5 -21t-16.5 -59
t16.5 -59z" />
    <glyph glyph-name="p.sups" horiz-adv-x="532" 
d="M406 729q46 -28 71.5 -77.5t25.5 -112.5q0 -64 -25.5 -113.5t-71.5 -77.5t-106 -28q-44 0 -91 18v-213h-163v623h153v-17q50 26 101 26q60 0 106 -28zM226.5 480q17.5 -21 46.5 -21q32 0 49 21t17 59q0 37 -17.5 58.5t-48.5 21.5q-29 0 -46.5 -21t-17.5 -53v-13
q0 -31 17.5 -52z" />
    <glyph glyph-name="q.sups" horiz-adv-x="532" 
d="M332 731v17h154v-623h-163v213q-45 -18 -91 -18q-60 0 -106 28t-71.5 77.5t-25.5 113.5q0 63 25.5 112.5t71.5 77.5t106 28q53 0 100 -26zM211 480q17 -21 48 -21q29 0 46.5 20.5t17.5 52.5v13q0 32 -17.5 53t-46.5 21q-31 0 -48 -21.5t-17 -58.5q0 -38 17 -59z" />
    <glyph glyph-name="r.sups" horiz-adv-x="325" 
d="M236 574q-27 -21 -27 -59v-186h-163v419h157v-31q17 17 41.5 26t66.5 9v-157q-48 0 -75 -21z" />
    <glyph glyph-name="s.sups" horiz-adv-x="410" 
d="M336 719q47 -38 52 -102l-162 -10q2 36 -23 36q-19 0 -19 -15q0 -11 13.5 -17t52.5 -17q69 -19 104 -45.5t35 -79.5q0 -68 -47.5 -108.5t-136.5 -40.5t-137 35.5t-53 105.5l163 9q-1 -3 -1 -10q0 -26 28 -26q11 0 16.5 5t5.5 12q0 9 -10 15.5t-41 14.5q-57 15 -88 29
t-49 39t-18 68q0 65 49 102.5t133 37.5q86 0 133 -38z" />
    <glyph glyph-name="t.sups" horiz-adv-x="353" 
d="M129.5 357q-47.5 38 -46.5 112l1 140h-75v139h76l1 133h163l-1 -133h84v-139h-85l-1 -97q0 -23 15.5 -35t36.5 -12q7 0 34 3v-144q-7 -1 -26 -3t-48 -2q-81 0 -128.5 38z" />
    <glyph glyph-name="u.sups" horiz-adv-x="491" 
d="M199 320q-75 0 -116 41t-41 118v269h163v-229q0 -27 8 -37.5t29 -10.5q40 0 40 47v230h163v-419h-153v20q-33 -29 -93 -29z" />
    <glyph glyph-name="v.sups" horiz-adv-x="491" 
d="M0 748h177l68 -167l68 167h177l-181 -419h-127z" />
    <glyph glyph-name="w.sups" horiz-adv-x="701" 
d="M351 520l-62 -191h-127l-162 419h177l59 -176l58 176h113l58 -176l59 176h177l-162 -419h-127z" />
    <glyph glyph-name="x.sups" horiz-adv-x="471" 
d="M285 329l-50 98l-48 -98h-180l118 208l-121 211h179l52 -102l53 102h179l-121 -210l119 -209h-180z" />
    <glyph glyph-name="y.sups" horiz-adv-x="491" 
d="M157 386l-157 362h177l68 -167l68 167h177l-269 -623h-177z" />
    <glyph glyph-name="z.sups" horiz-adv-x="375" 
d="M347 459v-130h-319v112l128 176h-125v131h312v-112l-128 -177h132z" />
    <glyph glyph-name="zero.onum" horiz-adv-x="657" 
d="M480.5 564q66.5 -37 104 -106.5t37.5 -161.5q0 -93 -37.5 -162.5t-104 -107t-152.5 -37.5q-85 0 -151.5 37.5t-104 107t-37.5 162.5q0 92 37.5 161.5t104 106.5t151.5 37q86 0 152.5 -37zM259.5 196q25.5 -36 68.5 -36q44 0 69.5 35.5t25.5 100.5q0 64 -25.5 99t-69.5 35
q-43 0 -68.5 -35t-25.5 -99t25.5 -100z" />
    <glyph glyph-name="one.onum" horiz-adv-x="406" 
d="M147 354l-74 -47l-81 153l206 130h142v-590h-193v354z" />
    <glyph glyph-name="two.onum" horiz-adv-x="546" 
d="M457 543q61 -58 61 -155q0 -61 -29.5 -106t-82.5 -81l-46 -30h160v-171h-476v147l201 131q42 27 60.5 50.5t18.5 55.5q0 46 -41 46q-22 0 -33.5 -17t-12.5 -49l-193 11q1 106 64.5 166t170.5 60q117 0 178 -58z" />
    <glyph glyph-name="three.onum" horiz-adv-x="575" 
d="M463.5 539.5q63.5 -61.5 63.5 -166.5q0 -52 -16 -83.5t-48 -61.5q32 -19 52.5 -60.5t20.5 -97.5q0 -75 -32 -128.5t-89 -82t-131 -28.5q-122 0 -187.5 62.5t-66.5 170.5l193 11q0 -35 15 -54t45 -19q59 0 59 74q0 34 -18.5 52t-50.5 18h-79v161h77q28 0 45 17t17 47
q0 59 -49 59q-25 0 -38.5 -17.5t-13.5 -50.5l-193 11q2 108 65 168t181 60q115 0 178.5 -61.5z" />
    <glyph glyph-name="four.onum" horiz-adv-x="608" 
d="M585 -55h-104v-103h-163v103h-291v159l308 486h146v-474h104v-171zM318 116v167l-106 -167h106z" />
    <glyph glyph-name="five.onum" horiz-adv-x="577" 
d="M427 300q53 -27 83.5 -81.5t30.5 -133.5q0 -78 -32 -135t-90.5 -88t-137.5 -31q-116 0 -182 59.5t-67 159.5l193 12q0 -28 14.5 -44t42.5 -16q32 0 48.5 20.5t16.5 57.5t-15 56t-44 19q-32 0 -53 -15h-178v450h454v-171h-261v-100q26 8 57 8q67 0 120 -27z" />
    <glyph glyph-name="six.onum" horiz-adv-x="617" 
d="M170.5 21q-62.5 32 -98 89.5t-35.5 133.5q0 46 14.5 84t43.5 82l229 338h231l-180 -257q4 -1 11 -2.5t12 -3.5q84 -23 134.5 -87t50.5 -154q0 -76 -35 -133.5t-97 -89.5t-140 -32t-140.5 32zM253.5 184.5q20.5 -24.5 56.5 -24.5t56.5 24.5t20.5 66.5q0 43 -20.5 67
t-56.5 24q-39 0 -62 -31q-15 -25 -15 -60q0 -42 20.5 -66.5z" />
    <glyph glyph-name="seven.onum" horiz-adv-x="541" 
d="M41 -158l257 577h-280v171h492v-155l-256 -593h-213z" />
    <glyph glyph-name="eight.onum" horiz-adv-x="624" 
d="M440.5 733q57.5 -26 90.5 -75t33 -116q0 -83 -50 -139q34 -32 52 -76t18 -97q0 -74 -35.5 -128.5t-97 -83.5t-139.5 -29t-139.5 29t-97 83.5t-35.5 128.5q0 52 17.5 96t50.5 76q-49 57 -49 140q0 67 32.5 116t90 75t129.5 26t129.5 -26zM255 181.5q22 -21.5 57 -21.5
t57 21.5t22 58.5q0 38 -22 60t-57 22t-57 -22t-22 -60q0 -37 22 -58.5zM270 483q17 -17 42 -17q26 0 42.5 16.5t16.5 44.5q0 29 -16 45t-43 16q-26 0 -42.5 -16.5t-16.5 -44.5q0 -27 17 -44z" />
    <glyph glyph-name="nine.onum" horiz-adv-x="617" 
d="M446.5 569q62.5 -32 98 -89.5t35.5 -133.5q0 -46 -14.5 -84t-43.5 -82l-229 -338h-231l180 257q-18 3 -45 13q-75 28 -119 89t-44 145q0 76 35 133.5t97 89.5t140 32t140.5 -32zM250.5 272q20.5 -24 56.5 -24q39 0 62 31q15 25 15 60q0 42 -20.5 66.5t-56.5 24.5
t-56.5 -24.5t-20.5 -66.5q0 -43 20.5 -67z" />
    <glyph glyph-name="zero.slash" horiz-adv-x="656" 
d="M479 714q66 -45 103.5 -131.5t37.5 -208.5t-37.5 -208.5t-103.5 -131.5t-152 -45q-85 0 -151 45t-103.5 131.5t-37.5 208.5t37.5 208.5t103.5 131.5t151 45q86 0 152 -45zM233 322l128 259q-14 7 -34 7q-51 0 -73 -52.5t-22 -161.5q0 -36 1 -52zM327 160q52 0 74 52.5
t22 161.5l-1 49l-127 -257q14 -6 32 -6z" />
    <glyph glyph-name="zero.subs" horiz-adv-x="373" 
d="M273 313q38 -25 60 -72.5t22 -114.5t-22 -115t-60 -73t-86 -25t-86.5 25t-60.5 73t-22 115t22 114.5t60.5 72.5t86.5 25t86 -25zM165.5 56.5q4.5 -19.5 21.5 -19.5t21.5 19.5t4.5 69.5q0 49 -4.5 68.5t-21.5 19.5t-21.5 -19.5t-4.5 -68.5q0 -50 4.5 -69.5z" />
    <glyph glyph-name="one.subs" horiz-adv-x="241" 
d="M79 149l-32 -17l-59 113l143 86h87v-411h-139v229z" />
    <glyph glyph-name="two.subs" horiz-adv-x="323" 
d="M266.5 300q37.5 -38 37.5 -100q0 -36 -15.5 -66.5t-41.5 -61.5l-23 -28h79v-124h-288v96l131 142q10 11 14 20.5t4 23.5q0 6 -1.5 9t-3.5 3q-8 0 -8 -17l-136 8q1 62 39.5 97.5t101.5 35.5q73 0 110.5 -38z" />
    <glyph glyph-name="three.subs" horiz-adv-x="333" 
d="M269.5 304q36.5 -34 36.5 -96q0 -26 -8 -43t-25 -33q16 -12 25.5 -33.5t9.5 -49.5q0 -64 -40.5 -100t-105.5 -36q-71 0 -109 36t-37 97l141 9q-1 -3 -1 -9q0 -9 5 -9q8 0 8 17q0 20 -13 20h-46v108h44q7 0 12 4.5t5 12.5q0 7 -2.5 11t-5.5 4q-7 0 -6 -15l-136 8
q-1 62 35.5 96.5t106.5 34.5t106.5 -34z" />
    <glyph glyph-name="four.subs" horiz-adv-x="354" 
d="M339 -34h-33v-46h-139v46h-155v108l160 257h134v-242h33v-123zM167 89v56l-35 -56h35z" />
    <glyph glyph-name="five.subs" horiz-adv-x="325" 
d="M274 161q37 -34 37 -102q0 -69 -41 -107.5t-110 -38.5q-67 0 -105.5 33.5t-37.5 89.5l135 9v-1q0 -3 3 -5t6 -2q5 0 9 4.5t4 13.5t-3.5 13.5t-8.5 4.5q-9 0 -12 -5h-119v263h263v-124h-123v-12h8q58 0 95 -34z" />
    <glyph glyph-name="six.subs" horiz-adv-x="357" 
d="M66 -46.5q-45 40.5 -45 104.5q0 26 8.5 47t25.5 47l112 179h169l-95 -140l7 -3q41 -17 64.5 -51t23.5 -79q0 -65 -44.5 -105t-112.5 -40t-113 40.5zM178 37q17 0 17 26q0 25 -17 25q-7 0 -11 -7.5t-4 -17.5q0 -26 15 -26z" />
    <glyph glyph-name="seven.subs" horiz-adv-x="316" 
d="M24 -80l110 287h-120v124h279v-109l-115 -302h-154z" />
    <glyph glyph-name="eight.subs" horiz-adv-x="359" 
d="M285 304q42 -34 42 -92q0 -39 -23 -70q35 -38 35 -90q0 -64 -45 -101.5t-115 -37.5q-69 0 -114 37.5t-45 101.5q0 51 34 89q-23 32 -23 71q0 58 41.5 92t105.5 34q65 0 107 -34zM165 43.5q6 -6.5 14 -6.5q9 0 14.5 6.5t5.5 17.5q0 12 -5.5 18.5t-14.5 6.5q-8 0 -14 -7
t-6 -18t6 -17.5zM167.5 176.5q5.5 -6.5 11.5 -6.5q8 0 12.5 6t4.5 16t-4.5 16t-12.5 6q-7 0 -12 -6t-5 -16q0 -9 5.5 -15.5z" />
    <glyph glyph-name="nine.subs" horiz-adv-x="357" 
d="M291 298q45 -40 45 -105q0 -26 -8.5 -47t-25.5 -47l-112 -179h-169l95 140l-7 3q-40 16 -64 50.5t-24 79.5q0 65 44 105t112 40q69 0 114 -40zM178 163q8 0 12 7t4 18q0 26 -16 26t-16 -26q0 -25 16 -25z" />
    <glyph glyph-name="zero.sups" horiz-adv-x="373" 
d="M273 795q38 -25 60 -72.5t22 -114.5t-22 -115t-60 -73t-86 -25t-86.5 25t-60.5 73t-22 115t22 114.5t60.5 72.5t86.5 25t86 -25zM165.5 538.5q4.5 -19.5 21.5 -19.5t21.5 19.5t4.5 69.5q0 49 -4.5 68.5t-21.5 19.5t-21.5 -19.5t-4.5 -68.5q0 -50 4.5 -69.5z" />
    <glyph glyph-name="one.sups" horiz-adv-x="241" 
d="M79 631l-32 -17l-59 113l143 86h87v-411h-139v229z" />
    <glyph glyph-name="two.sups" horiz-adv-x="323" 
d="M266.5 782q37.5 -38 37.5 -100q0 -36 -15.5 -66.5t-41.5 -61.5l-23 -28h79v-124h-288v96l131 142q10 11 14 20.5t4 23.5q0 6 -1.5 9t-3.5 3q-8 0 -8 -17l-136 8q1 62 39.5 97.5t101.5 35.5q73 0 110.5 -38z" />
    <glyph glyph-name="three.sups" horiz-adv-x="333" 
d="M269.5 786q36.5 -34 36.5 -96q0 -26 -8 -43t-25 -33q16 -12 25.5 -33.5t9.5 -49.5q0 -64 -40.5 -100t-105.5 -36q-71 0 -109 36t-37 97l141 9q-1 -3 -1 -9q0 -9 5 -9q8 0 8 17q0 20 -13 20h-46v108h44q7 0 12 4.5t5 12.5q0 7 -2.5 11t-5.5 4q-7 0 -6 -15l-136 8
q-1 62 35.5 96.5t106.5 34.5t106.5 -34z" />
    <glyph glyph-name="four.sups" horiz-adv-x="354" 
d="M339 448h-33v-46h-139v46h-155v108l160 257h134v-242h33v-123zM167 571v56l-35 -56h35z" />
    <glyph glyph-name="five.sups" horiz-adv-x="325" 
d="M274 643q37 -34 37 -102q0 -69 -41 -107.5t-110 -38.5q-67 0 -105.5 33.5t-37.5 89.5l134 9q0 -3 3.5 -5.5t6.5 -2.5q5 0 9.5 4.5t4.5 13.5q0 8 -4 12t-9 4q-4 0 -10 -3h-121v263h263v-124h-123v-12h8q58 0 95 -34z" />
    <glyph glyph-name="six.sups" horiz-adv-x="357" 
d="M66 435.5q-45 40.5 -45 104.5q0 26 8.5 47t25.5 47l112 179h169l-95 -140q6 -2 9 -4q40 -17 63 -51t23 -78q0 -65 -44.5 -105t-112.5 -40t-113 40.5zM178 519q17 0 17 26q0 25 -17 25q-7 0 -11 -7.5t-4 -17.5q0 -26 15 -26z" />
    <glyph glyph-name="seven.sups" horiz-adv-x="316" 
d="M24 402l110 287h-120v124h279v-109l-115 -302h-154z" />
    <glyph glyph-name="eight.sups" horiz-adv-x="359" 
d="M285 786q42 -34 42 -92q0 -39 -23 -70q35 -38 35 -90q0 -64 -45 -101.5t-115 -37.5q-69 0 -114 37.5t-45 101.5q0 51 34 89q-23 32 -23 71q0 58 41.5 92t105.5 34q65 0 107 -34zM165 525.5q6 -6.5 14 -6.5q9 0 14.5 6.5t5.5 17.5q0 12 -5.5 18.5t-14.5 6.5q-8 0 -14 -7
t-6 -18t6 -17.5zM167.5 658.5q5.5 -6.5 11.5 -6.5q8 0 12.5 6t4.5 16t-4.5 16t-12.5 6q-7 0 -12 -6t-5 -16q0 -9 5.5 -15.5z" />
    <glyph glyph-name="nine.sups" horiz-adv-x="357" 
d="M107 545q-40 17 -63 51t-23 79q0 65 44 105t112 40q69 0 114 -40t45 -105q0 -26 -8.5 -47t-25.5 -47l-112 -179h-169l95 140zM178 645q8 0 12 7t4 18q0 26 -16 26t-16 -26q0 -25 16 -25z" />
    <glyph glyph-name="zero.tnum" horiz-adv-x="650" 
d="M475.5 714q66.5 -45 104 -131.5t37.5 -208.5t-37.5 -208.5t-104 -131.5t-151.5 -45q-86 0 -152 45t-103.5 131.5t-37.5 208.5t37.5 208.5t103.5 131.5t152 45q85 0 151.5 -45zM250 212.5q22 -52.5 74 -52.5t74 52.5t22 161.5t-22 161.5t-74 52.5t-74 -52.5t-22 -161.5
t22 -161.5z" />
    <glyph glyph-name="one.tnum" horiz-adv-x="650" 
d="M569 0h-439v171h132v342l-74 -48l-80 153l205 130h142v-577h114v-171z" />
    <glyph glyph-name="two.tnum" horiz-adv-x="650" 
d="M507.5 704.5q62.5 -54.5 62.5 -159.5q0 -57 -17.5 -103.5t-43.5 -81.5t-66 -77l-106 -112h235v-171h-476v146l197 223q49 56 66 89t17 78q0 52 -41 52q-26 0 -35.5 -18.5t-10.5 -57.5l-193 10q2 112 63.5 174.5t171.5 62.5q114 0 176.5 -54.5z" />
    <glyph glyph-name="three.tnum" horiz-adv-x="650" 
d="M504.5 697.5q63.5 -61.5 63.5 -166.5q0 -53 -16 -84.5t-47 -60.5q31 -19 52 -60.5t21 -97.5q0 -75 -32 -128.5t-89 -82t-131 -28.5q-122 0 -187.5 62.5t-66.5 170.5l192 11q1 -35 16 -54t45 -19q59 0 59 74q0 34 -19 52t-50 18h-80v161h78q28 0 45 17t17 47q0 59 -50 59
q-24 0 -37.5 -17.5t-14.5 -50.5l-193 11q2 108 65.5 168t180.5 60q115 0 178.5 -61.5z" />
    <glyph glyph-name="four.tnum" horiz-adv-x="650" 
d="M597 103h-103v-103h-164v103h-291v159l308 486h147v-474h103v-171zM330 274v167l-106 -167h106z" />
    <glyph glyph-name="five.tnum" horiz-adv-x="650" 
d="M465 457.5q53 -27.5 83.5 -82t30.5 -132.5t-32 -135t-90.5 -88t-137.5 -31q-116 0 -182 59.5t-67 159.5l192 12q1 -28 15.5 -44t42.5 -16q32 0 48.5 20.5t16.5 57.5t-15.5 56t-44.5 19q-31 0 -52 -15h-179v450h455v-171h-262v-100q26 8 58 8q67 0 120 -27.5z" />
    <glyph glyph-name="six.tnum" horiz-adv-x="650" 
d="M186 21q-62 32 -97.5 89.5t-35.5 133.5q0 46 14 84.5t43 81.5l229 338h231l-180 -257l25 -6q83 -24 133 -87.5t50 -153.5q0 -76 -35 -133.5t-97 -89.5t-140 -32t-140 32zM269 184.5q21 -24.5 56 -24.5q36 0 56.5 24.5t20.5 66.5q0 43 -20.5 67t-56.5 24t-56.5 -24.5
t-20.5 -66.5t21 -66.5z" />
    <glyph glyph-name="seven.tnum" horiz-adv-x="650" 
d="M85 0l257 577h-281v171h492v-155l-256 -593h-212z" />
    <glyph glyph-name="eight.tnum" horiz-adv-x="650" 
d="M453.5 733q57.5 -26 90.5 -75t33 -116q0 -82 -49 -139q33 -32 51 -76t18 -97q0 -74 -35.5 -128.5t-97 -83.5t-139.5 -29t-139.5 29t-97 83.5t-35.5 128.5q0 52 17.5 96t50.5 76q-49 57 -49 140q0 67 32.5 116t90 75t129.5 26t129.5 -26zM268 181.5q22 -21.5 57 -21.5
t57.5 21.5t22.5 58.5q0 38 -22.5 60t-57.5 22t-57 -22t-22 -60q0 -37 22 -58.5zM283 483q17 -17 42 -17q26 0 42.5 16.5t16.5 44.5q0 29 -16 45t-43 16q-26 0 -42.5 -16.5t-16.5 -44.5q0 -27 17 -44z" />
    <glyph glyph-name="nine.tnum" horiz-adv-x="650" 
d="M464 727q62 -32 97.5 -89.5t35.5 -133.5q0 -46 -14 -84.5t-43 -81.5l-229 -338h-231l180 257q-4 1 -10 2t-14 4q-83 23 -133.5 87t-50.5 154q0 76 35 133.5t97 89.5t140 32t140 -32zM268.5 430q20.5 -24 56.5 -24t56.5 24.5t20.5 66.5t-21 66.5t-56 24.5
q-36 0 -56.5 -24.5t-20.5 -66.5q0 -43 20.5 -67z" />
    <glyph glyph-name="zero.dnom" horiz-adv-x="373" 
d="M273 393q38 -25 60 -72.5t22 -114.5t-22 -115t-60 -73t-86 -25t-86.5 25t-60.5 73t-22 115t22 114.5t60.5 72.5t86.5 25t86 -25zM165.5 136.5q4.5 -19.5 21.5 -19.5t21.5 19.5t4.5 69.5q0 49 -4.5 68.5t-21.5 19.5t-21.5 -19.5t-4.5 -68.5q0 -50 4.5 -69.5z" />
    <glyph glyph-name="one.dnom" horiz-adv-x="241" 
d="M79 229l-32 -17l-59 113l143 86h87v-411h-139v229z" />
    <glyph glyph-name="two.dnom" horiz-adv-x="323" 
d="M266.5 380q37.5 -38 37.5 -100q0 -36 -15.5 -66.5t-41.5 -61.5l-23 -28h79v-124h-288v96l131 142q10 11 14 20.5t4 23.5q0 6 -1.5 9t-3.5 3q-8 0 -8 -17l-136 8q1 62 39.5 97.5t101.5 35.5q73 0 110.5 -38z" />
    <glyph glyph-name="three.dnom" horiz-adv-x="333" 
d="M269.5 384q36.5 -34 36.5 -96q0 -26 -8 -43t-25 -33q16 -12 25.5 -33.5t9.5 -49.5q0 -64 -40.5 -100t-105.5 -36q-71 0 -109 36t-37 97l141 9q-1 -3 -1 -9q0 -9 5 -9q8 0 8 17q0 20 -13 20h-46v108h44q7 0 12 4.5t5 12.5q0 7 -2.5 11t-5.5 4q-7 0 -6 -15l-136 8
q-1 62 35.5 96.5t106.5 34.5t106.5 -34z" />
    <glyph glyph-name="four.dnom" horiz-adv-x="354" 
d="M339 46h-33v-46h-139v46h-155v108l160 257h134v-242h33v-123zM167 169v56l-35 -56h35z" />
    <glyph glyph-name="five.dnom" horiz-adv-x="325" 
d="M274 241q37 -34 37 -102q0 -69 -41 -107.5t-110 -38.5q-67 0 -105.5 33.5t-37.5 89.5l135 9v-1q0 -3 3 -5t6 -2q10 0 10 18t-9 18q-6 0 -8.5 -2.5t-3.5 -2.5h-119v263h263v-124h-123v-12h8q58 0 95 -34z" />
    <glyph glyph-name="six.dnom" horiz-adv-x="357" 
d="M66 33.5q-45 40.5 -45 104.5q0 26 8.5 47t25.5 47l112 179h169l-95 -140l8 -3q41 -18 64 -51.5t23 -78.5q0 -65 -44.5 -105t-112.5 -40t-113 40.5zM178 117q17 0 17 26q0 25 -17 25q-7 0 -11 -7.5t-4 -17.5q0 -26 15 -26z" />
    <glyph glyph-name="seven.dnom" horiz-adv-x="316" 
d="M24 0l110 287h-120v124h279v-109l-115 -302h-154z" />
    <glyph glyph-name="eight.dnom" horiz-adv-x="359" 
d="M285 384q42 -34 42 -92q0 -39 -23 -70q35 -38 35 -90q0 -64 -45 -101.5t-115 -37.5q-69 0 -114 37.5t-45 101.5q0 51 34 89q-23 32 -23 71q0 58 41.5 92t105.5 34q65 0 107 -34zM165 123.5q6 -6.5 14 -6.5q9 0 14.5 6.5t5.5 17.5q0 12 -5.5 18.5t-14.5 6.5q-8 0 -14 -7
t-6 -18t6 -17.5zM167.5 256.5q5.5 -6.5 11.5 -6.5q8 0 12.5 6t4.5 16t-4.5 16t-12.5 6q-7 0 -12 -6t-5 -16q0 -9 5.5 -15.5z" />
    <glyph glyph-name="nine.dnom" horiz-adv-x="357" 
d="M291 378q45 -40 45 -105q0 -26 -8.5 -47t-25.5 -47l-112 -179h-169l95 140l-7 3q-40 16 -64 50.5t-24 79.5q0 65 44 105t112 40q69 0 114 -40zM178 243q8 0 12 7t4 18q0 26 -16 26t-16 -26q0 -25 16 -25z" />
    <glyph glyph-name="zero.numr" horiz-adv-x="373" 
d="M273 714q38 -25 60 -72.5t22 -114.5t-22 -115t-60 -73t-86 -25t-86.5 25t-60.5 73t-22 115t22 114.5t60.5 72.5t86.5 25t86 -25zM165.5 457.5q4.5 -19.5 21.5 -19.5t21.5 19.5t4.5 69.5q0 49 -4.5 68.5t-21.5 19.5t-21.5 -19.5t-4.5 -68.5q0 -50 4.5 -69.5z" />
    <glyph glyph-name="one.numr" horiz-adv-x="241" 
d="M79 551l-32 -17l-59 113l143 86h87v-411h-139v229z" />
    <glyph glyph-name="two.numr" horiz-adv-x="323" 
d="M266.5 701q37.5 -38 37.5 -100q0 -36 -15.5 -66.5t-41.5 -61.5l-23 -28h79v-124h-288v96l131 142q10 11 14 20.5t4 23.5q0 6 -1.5 9t-3.5 3q-8 0 -8 -17l-136 8q1 62 39.5 97.5t101.5 35.5q73 0 110.5 -38z" />
    <glyph glyph-name="three.numr" horiz-adv-x="333" 
d="M269.5 705q36.5 -34 36.5 -96q0 -26 -8 -43t-25 -33q16 -12 25.5 -33.5t9.5 -49.5q0 -64 -40.5 -100t-105.5 -36q-71 0 -109 36t-37 97l141 9q-1 -3 -1 -9q0 -9 5 -9q8 0 8 17q0 20 -13 20h-46v108h44q7 0 12 4.5t5 12.5q0 7 -2.5 11t-5.5 4q-7 0 -6 -15l-136 8
q-1 62 35.5 96.5t106.5 34.5t106.5 -34z" />
    <glyph glyph-name="four.numr" horiz-adv-x="354" 
d="M339 367h-33v-46h-139v46h-155v108l160 257h134v-242h33v-123zM167 490v56l-35 -56h35z" />
    <glyph glyph-name="five.numr" horiz-adv-x="325" 
d="M274 563q37 -34 37 -102q0 -69 -41 -107.5t-110 -38.5q-67 0 -105.5 33.5t-37.5 89.5l134 9q0 -8 10 -8t10 18t-11 18q-7 0 -10 -5h-119v263h263v-124h-123v-12h8q58 0 95 -34z" />
    <glyph glyph-name="six.numr" horiz-adv-x="357" 
d="M66 354.5q-45 40.5 -45 104.5q0 26 8.5 47t25.5 47l112 179h169l-95 -140l5 -2q41 -17 65.5 -51t24.5 -80q0 -65 -44.5 -105t-112.5 -40t-113 40.5zM178 438q17 0 17 26q0 25 -17 25q-7 0 -11 -7.5t-4 -17.5q0 -26 15 -26z" />
    <glyph glyph-name="seven.numr" horiz-adv-x="316" 
d="M24 322l110 287h-120v124h279v-109l-115 -302h-154z" />
    <glyph glyph-name="eight.numr" horiz-adv-x="359" 
d="M285 705q42 -34 42 -92q0 -39 -23 -70q35 -38 35 -90q0 -64 -45 -101.5t-115 -37.5q-69 0 -114 37.5t-45 101.5q0 51 34 89q-23 32 -23 71q0 58 41.5 92t105.5 34q65 0 107 -34zM165 444.5q6 -6.5 14 -6.5q9 0 14.5 6.5t5.5 17.5q0 12 -5.5 18.5t-14.5 6.5q-8 0 -14 -7
t-6 -18t6 -17.5zM167.5 577.5q5.5 -6.5 11.5 -6.5q8 0 12.5 6t4.5 16t-4.5 16t-12.5 6q-7 0 -12 -6t-5 -16q0 -9 5.5 -15.5z" />
    <glyph glyph-name="nine.numr" horiz-adv-x="357" 
d="M291 699q45 -40 45 -105q0 -26 -8.5 -47t-25.5 -47l-112 -179h-169l95 140l-8 3q-40 17 -63.5 51t-23.5 79q0 65 44 105t112 40q69 0 114 -40zM178 564q8 0 12 7t4 18q0 26 -16 26t-16 -26q0 -25 16 -25z" />
    <glyph glyph-name="periodcentered.cap" horiz-adv-x="301" 
d="M215 533q31 -31 31 -75q0 -45 -31 -75.5t-75 -30.5t-75 30.5t-31 75.5q0 44 31 75t75 31t75 -31z" />
    <glyph glyph-name="exclamdown.cap" horiz-adv-x="350" 
d="M100.5 578.5q-31.5 31.5 -31.5 75.5t31.5 74.5t75.5 30.5t74.5 -30.5t30.5 -74.5t-30.5 -75.5t-74.5 -31.5t-75.5 31.5zM79 504h192l11 -504h-214z" />
    <glyph glyph-name="questiondown.cap" horiz-adv-x="555" 
d="M199 578.5q-31 31.5 -31 75.5t31 74.5t75 30.5t75 -30.5t31 -74.5t-31 -75.5t-75 -31.5t-75 31.5zM39.5 309.5q24.5 34.5 69.5 71.5q5 4 26.5 21.5t32 34t10.5 33.5v34h192v-41q0 -41 -24 -71.5t-71 -72.5q-34 -33 -49 -52.5t-15 -42.5q0 -33 18 -49.5t48 -16.5
q31 0 50.5 21.5t20.5 59.5l192 -11q-1 -72 -34.5 -126.5t-93 -84.5t-135.5 -30q-121 0 -191.5 62.5t-70.5 171.5q0 54 24.5 88.5z" />
    <glyph glyph-name="braceleft.cap" horiz-adv-x="334" 
d="M260.5 605.5q-13.5 -13.5 -13.5 -50.5q0 -19 3 -46q3 -22 3 -44q0 -41 -18.5 -64.5t-63.5 -27.5q45 -4 63.5 -27.5t18.5 -65.5q0 -21 -3 -44q-3 -27 -3 -46q0 -37 13.5 -50.5t48.5 -13.5h6v-151h-6q-109 0 -176.5 47.5t-67.5 138.5q0 27 6 57q9 40 9 50q0 18 -12.5 24
t-44.5 6h-8v149h8q32 0 44.5 6t12.5 24q0 10 -9 50q-6 30 -6 57q0 91 67.5 138.5t176.5 47.5h6v-151h-6q-35 0 -48.5 -13.5z" />
    <glyph glyph-name="braceright.cap" horiz-adv-x="334" 
d="M202.5 723q67.5 -47 67.5 -138q0 -21 -7 -58q-8 -35 -8 -50q0 -18 12 -24t45 -6h8v-149h-8q-33 0 -45 -6t-12 -24q0 -15 8 -50q7 -37 7 -58q0 -91 -67.5 -138t-176.5 -47h-6v151h6q34 0 47.5 13.5t13.5 50.5q0 19 -3 46q-3 23 -3 42q0 43 18.5 67t64.5 28q-46 4 -64.5 28
t-18.5 67q0 19 3 41q3 27 3 46q0 37 -13.5 50.5t-47.5 13.5h-6v151h6q109 0 176.5 -47z" />
    <glyph glyph-name="bracketleft.cap" horiz-adv-x="333" 
d="M232 126h81v-151h-264v795h264v-151h-81v-493z" />
    <glyph glyph-name="bracketright.cap" horiz-adv-x="348" 
d="M20 126h81v493h-81v151h264v-795h-264v151z" />
    <glyph glyph-name="parenleft.cap" horiz-adv-x="324" 
d="M241.5 556q-24.5 -89 -24.5 -194q0 -106 24.5 -195t68.5 -170l-158 -55q-54 83 -85.5 189t-31.5 231t31.5 230.5t85.5 189.5l158 -55q-44 -82 -68.5 -171z" />
    <glyph glyph-name="parenright.cap" horiz-adv-x="318" 
d="M258 592.5q32 -105.5 32 -230.5t-32 -231t-86 -189l-157 55q43 81 67.5 170.5t24.5 194.5t-24.5 194t-67.5 171l157 55q54 -84 86 -189.5z" />
    <glyph glyph-name="emdash.cap" horiz-adv-x="800" 
d="M45 463h710v-171h-710v171z" />
    <glyph glyph-name="endash.cap" horiz-adv-x="568" 
d="M45 463h478v-171h-478v171z" />
    <glyph glyph-name="hyphen.cap" horiz-adv-x="408" 
d="M45 463h318v-171h-318v171z" />
    <glyph glyph-name="guillemotleft.cap" horiz-adv-x="612" 
d="M314 234l-146 -89l-153 244l153 245l146 -89l-97 -156zM452 634l146 -89l-97 -156l97 -155l-146 -89l-153 244z" />
    <glyph glyph-name="guillemotright.cap" horiz-adv-x="612" 
d="M15 234l97 155l-97 156l145 89l154 -245l-154 -244zM395 389l-97 156l146 89l153 -245l-153 -244l-146 89z" />
    <glyph glyph-name="guilsinglleft.cap" horiz-adv-x="357" 
d="M342 263l-130 -114l-197 240l197 241l130 -114l-108 -127z" />
    <glyph glyph-name="guilsinglright.cap" horiz-adv-x="357" 
d="M15 263l108 126l-108 127l130 114l197 -241l-197 -240z" />
    <glyph glyph-name="emdash_guilsinglright" horiz-adv-x="905" 
d="M499 95l82 92h-536v150h532l-78 88l128 115l243 -280l-243 -279z" />
    <glyph glyph-name="endash_guilsinglright" horiz-adv-x="630" 
d="M224 95l82 92h-261v150h257l-78 88l128 115l243 -280l-243 -279z" />
    <glyph glyph-name="guilsinglleft_emdash" horiz-adv-x="905" 
d="M860 337v-150h-536l82 -92l-128 -114l-243 279l243 280l128 -115l-78 -88h532z" />
    <glyph glyph-name="guilsinglleft_endash" horiz-adv-x="630" 
d="M585 337v-150h-261l82 -92l-128 -114l-243 279l243 280l128 -115l-78 -88h257z" />
    <glyph glyph-name="at.cap" horiz-adv-x="793" 
d="M210.5 62q-81.5 45 -129 126.5t-47.5 185.5q0 102 46.5 184t129 128.5t186.5 46.5q103 0 186 -46.5t130 -128.5t47 -184q0 -106 -44.5 -159.5t-123.5 -53.5q-78 0 -109 48q-23 -25 -51 -37.5t-67 -12.5q-56 0 -100 27t-68.5 75.5t-24.5 110.5q0 63 24.5 111t68.5 75
t100 27q34 0 60.5 -10t43.5 -26v20h131v-299q0 -29 29 -29q25 0 41.5 33t16.5 100q0 82 -37.5 148t-104 104t-148.5 38q-83 0 -149 -38t-103 -104t-37 -148q0 -86 39 -152t104 -101.5t138 -35.5q55 0 97 10t79 30l28 -65q-41 -23 -88 -33t-116 -10q-96 0 -177.5 45z
M333 305.5q20 -24.5 54 -24.5t54 23t20 61v14q0 38 -20 60.5t-54 22.5t-54 -23.5t-20 -66.5q0 -42 20 -66.5z" />
    <glyph glyph-name="acute.case" horiz-adv-x="371" 
d="M119 959h248l-199 -162h-164z" />
    <glyph glyph-name="breve.case" horiz-adv-x="415" 
d="M355 840q-56 -47 -148 -47t-147.5 47t-55.5 138h148q0 -28 15 -44t40 -16q26 0 41 16t15 44h148q0 -91 -56 -138z" />
    <glyph glyph-name="caron.case" horiz-adv-x="414" 
d="M4 967h152l51 -66l52 66h151l-114 -170h-177z" />
    <glyph glyph-name="circumflex.case" horiz-adv-x="414" 
d="M207 863l-51 -66h-152l115 170h177l114 -170h-151z" />
    <glyph glyph-name="dieresis.case" horiz-adv-x="418" 
d="M167 954q28 -28 28 -68t-27.5 -67.5t-68.5 -27.5q-40 0 -67.5 27.5t-27.5 67.5t27.5 68t67.5 28t68 -28zM250.5 954q27.5 28 67.5 28t68.5 -28t28.5 -68t-28 -67.5t-69 -27.5q-40 0 -67.5 27.5t-27.5 67.5t27.5 68z" />
    <glyph glyph-name="dotaccent.case" horiz-adv-x="220" 
d="M185 973.5q31 -31.5 31 -75.5t-31 -74.5t-76 -30.5q-44 0 -74.5 30.5t-30.5 74.5t31 75.5t74 31.5q45 0 76 -31.5z" />
    <glyph glyph-name="grave.case" horiz-adv-x="371" 
d="M4 959h248l115 -162h-164z" />
    <glyph glyph-name="hungarumlaut.case" horiz-adv-x="464" 
d="M66 982h172l-92 -182h-142zM288 982h172l-92 -182h-142z" />
    <glyph glyph-name="macron.case" horiz-adv-x="331" 
d="M4 944h323v-139h-323v139z" />
    <glyph glyph-name="ring.case" horiz-adv-x="250" 
d="M212 989q35 -32 35 -81t-35 -81t-86 -32q-52 0 -87 32t-35 81q0 50 35 81.5t87 31.5q51 0 86 -32zM100.5 883.5q9.5 -9.5 25.5 -9.5q15 0 24.5 9.5t9.5 24.5t-9.5 25t-24.5 10q-16 0 -25.5 -10t-9.5 -25t9.5 -24.5z" />
    <glyph glyph-name="tilde.case" horiz-adv-x="398" 
d="M165 968.5q18 -7.5 39 -21.5q19 -11 28.5 -15.5t21.5 -4.5q37 0 37 42h102q1 -8 1 -23q0 -65 -32.5 -110.5t-86.5 -45.5q-25 0 -43 7.5t-41 22.5q-29 20 -47 20q-37 0 -37 -43h-102q-1 8 -1 23q0 66 32.5 111t86.5 45q24 0 42 -7.5z" />
    <glyph glyph-name="anneau" horiz-adv-x="603" 
d="M443 728.5q63 -33.5 99 -92t36 -131.5q0 -74 -36 -133t-99 -92.5t-141 -33.5q-80 0 -143 33.5t-98.5 92.5t-35.5 133q0 73 35.5 131.5t98.5 92t143 33.5q78 0 141 -33.5zM120.5 402.5q25.5 -44.5 72.5 -69.5t109 -25q60 0 107 25t73 69.5t26 102.5q0 57 -26 101.5
t-73 69.5t-107 25q-62 0 -109 -24.5t-72.5 -69t-25.5 -102.5t25.5 -102.5z" />
    <glyph glyph-name="uni10D3.001" horiz-adv-x="877" 
d="M465.5 -188q-44.5 18 -109.5 18h-248v142h62q-65 41 -98 111t-33 159t31 150t82.5 90.5t114.5 29.5q53 0 97.5 -20.5t65.5 -62.5q21 40 67.5 61.5t102.5 21.5q66 0 120.5 -30.5t86 -86t31.5 -125.5t-31.5 -124.5t-88 -84.5t-128.5 -30t-128.5 30t-89 84t-32.5 125v17
q0 28 -12 49t-40 21q-66 0 -66 -121q0 -125 64 -183.5t146 -68.5l34 -4q106 -12 168.5 -71t67.5 -164l-183 -6q-9 55 -53.5 73zM539.5 207.5q17.5 -23.5 49.5 -23.5t49.5 23.5t17.5 63.5t-17.5 63t-49.5 23t-49.5 -23t-17.5 -63t17.5 -63.5z" />
    <glyph glyph-name="uni10D6.001" horiz-adv-x="655" 
d="M203 21q-62 32 -97 89.5t-35 131.5q0 41 11.5 75t36.5 65q-51 21 -84.5 69.5t-33.5 111.5q0 67 30 117t84.5 77.5t124.5 27.5q71 0 126 -26t86 -73.5t31 -109.5q0 -28 -6.5 -51t-21.5 -49q76 -22 118.5 -82.5t42.5 -144.5q0 -78 -35.5 -137t-97.5 -91t-140 -32t-140 32z
M191.5 515q17.5 -20 48.5 -20q32 0 50 20t18 49t-18 49.5t-50 20.5q-31 0 -48.5 -20.5t-17.5 -49.5t17.5 -49zM278.5 172.5q23.5 -27.5 64.5 -27.5t65 28t24 76q0 49 -24 77.5t-65 28.5q-40 0 -64 -28.5t-24 -77.5t23.5 -76.5z" />
    <glyph glyph-name="uni10DD.001" horiz-adv-x="944" 
d="M51.5 106.5q-12.5 51.5 -12.5 111.5q0 92 30.5 151t80.5 86t111 27q59 0 105 -26.5t69 -85.5h10q22 56 66 84t107 28q94 0 154 -64t60 -199v-18q77 -33 157 -41l-47 -150q-73 29 -128 76q-9 -37 -30 -86h-186q21 55 31 103t10 103q0 129 -59 129q-52 0 -52 -88v-139h-186
v139q0 88 -51 88q-28 0 -43.5 -29.5t-15.5 -100.5q0 -55 9.5 -103.5t29.5 -101.5h-186q-21 55 -33.5 106.5z" />
    <glyph glyph-name="uni10E6.001" horiz-adv-x="863" 
d="M464.5 -180q-44.5 20 -109.5 20h-258v142h62q-63 40 -92 107t-29 149q0 92 31 153.5t82.5 91t114.5 29.5q115 0 164 -84q51 84 165 84q64 0 115.5 -30t82.5 -93.5t31 -158.5q0 -105 -31 -198l-177 10q25 87 25 179q0 136 -63 136q-31 0 -43.5 -26t-12.5 -75v-141h-183
v141q0 50 -11.5 75.5t-43.5 25.5q-31 0 -47 -31.5t-16 -102.5q0 -100 34.5 -150t72 -62.5t83.5 -16.5l34 -3q108 -10 179.5 -73t76.5 -173l-183 -6q-9 61 -53.5 81z" />
    <glyph glyph-name="uni10ED.001" horiz-adv-x="752" 
d="M182 -281.5q-59 30.5 -90 83t-31 118.5q0 32 7 61l189 -7q-3 -20 -3 -40q0 -48 18.5 -73.5t49.5 -25.5q30 0 47 25.5t17 73.5v111q0 55 10 89l-48 -28q-27 -15 -60.5 -23.5t-63.5 -8.5q-49 0 -93 25.5t-71 72t-27 105.5t27 106t71 73t93 26q29 0 63.5 -8t60.5 -23l48 -28
q-10 39 -10 101v226h190v-352l128 84l13 -142l-141 -57v-10l141 -57l-13 -142l-128 84v-221q0 -73 -29.5 -129t-86.5 -88t-138 -32t-140 30.5zM232 234.5q18 -16.5 47 -16.5q17 0 33.5 7t44.5 23l44 25v10l-44 25q-29 16 -45 23t-32 7q-30 0 -48 -16.5t-18 -43.5t18 -43.5z
" />
    <glyph glyph-name="uni10EF.001" horiz-adv-x="614" 
d="M533 114q46 -63 46 -148q0 -66 -31 -118.5t-92.5 -83t-148.5 -30.5q-82 0 -143.5 29.5t-95 83.5t-33.5 124q0 20 3 43l181 -4q-1 -9 -1 -29q0 -42 23.5 -66.5t64.5 -24.5q43 0 66 20.5t23 59.5t-24.5 61.5t-66.5 22.5h-86v170q-53 -8 -100 -8q-35 0 -73 6l7 155
q38 -6 74 -6q40 0 92 7v122h177v-93q45 6 92 6q48 0 82 -6l-7 -155q-43 6 -83 6q-39 0 -84 -5v-62q92 -14 138 -77z" />
    </font>
</defs>
</svg>
