<?xml version="1.0" standalone="no"?>
<!DOCTYPE svg PUBLIC "-//W3C//DTD SVG 1.1//EN" "http://www.w3.org/Graphics/SVG/1.1/DTD/svg11.dtd" >
<svg xmlns="http://www.w3.org/2000/svg" xmlns:xlink="http://www.w3.org/1999/xlink" version="1.1">
<metadata>
Created by FontForge 20201107 at Thu May 20 11:56:05 2021
 By 
Copyright (c) 2014 by Type Dynamic. All rights reserved.
</metadata>
<defs>
<font id="TBCContractica-Bold" horiz-adv-x="601" >
  <font-face 
    font-family="TBC Contractica"
    font-weight="700"
    font-stretch="normal"
    units-per-em="1000"
    panose-1="0 0 3 0 0 0 0 0 0 0"
    ascent="800"
    descent="-200"
    x-height="516"
    cap-height="748"
    bbox="-216 -371 1252 1078"
    underline-thickness="50"
    underline-position="-125"
    unicode-range="U+0020-FB02"
  />
<missing-glyph horiz-adv-x="732" 
d="M68 748h596v-748h-596v748zM303 373l-128 199v-399zM368 463l114 185h-228zM480 100l-112 182l-112 -182h224zM558 179v387l-125 -193z" />
    <glyph glyph-name="fi" unicode="fi" horiz-adv-x="664" 
d="M99 396h-93v120h93v57q0 96 58.5 153t154.5 57q30 0 49 -4v-121q-13 3 -33 3q-39 0 -63.5 -23.5t-24.5 -61.5v-60h121v-120h-121v-396h-141v396zM461 747q25 25 59 25q35 0 60 -25t25 -60t-25 -60t-60 -25t-59.5 25t-24.5 60t25 60zM450 516h140v-516h-140v516z" />
    <glyph glyph-name="f_j" unicode="fj" horiz-adv-x="664" 
d="M99 396h-93v120h93v57q0 96 58.5 153t154.5 57q30 0 49 -4v-121q-13 3 -33 3q-39 0 -63.5 -23.5t-24.5 -61.5v-60h121v-120h-121v-396h-141v396zM331 -137q14 -3 34 -3q39 0 62.5 23t23.5 62v571h140v-568q0 -96 -57.5 -153t-152.5 -57q-30 0 -50 4v121zM460.5 747
q24.5 25 59.5 25t60 -25t25 -60t-25 -60t-60 -25t-59.5 25t-24.5 60t24.5 60z" />
    <glyph glyph-name=".notdef" horiz-adv-x="732" 
d="M68 748h596v-748h-596v748zM303 373l-128 199v-399zM368 463l114 185h-228zM480 100l-112 182l-112 -182h224zM558 179v387l-125 -193z" />
    <glyph glyph-name=".null" horiz-adv-x="0" 
 />
    <glyph glyph-name="nonmarkingreturn" horiz-adv-x="600" 
 />
    <glyph glyph-name="space" unicode=" " horiz-adv-x="227" 
 />
    <glyph glyph-name="space" unicode="&#xa0;" horiz-adv-x="227" 
 />
    <glyph glyph-name="exclam" unicode="!" horiz-adv-x="319" 
d="M77 748h164l-7 -522h-149zM99 135q25 25 60 25q36 0 61 -25t25 -60q0 -36 -25 -60.5t-61 -24.5q-35 0 -60 24.5t-25 60.5q0 35 25 60z" />
    <glyph glyph-name="quotedbl" unicode="&#x22;" horiz-adv-x="411" 
d="M42 754h135l-14 -277h-108zM369 754l-13 -277h-108l-14 277h135z" />
    <glyph glyph-name="numbersign" unicode="#" horiz-adv-x="666" 
d="M633 449h-109l-37 -155h111l-26 -112h-111l-44 -182h-115l43 182h-117l-43 -182h-115l43 182h-107l27 112h107l36 155h-109l27 112h109l45 187h115l-45 -187h118l44 187h115l-44 -187h108zM372 294l37 155h-118l-36 -155h117z" />
    <glyph glyph-name="dollar" unicode="$" horiz-adv-x="663" 
d="M557 60.5q-62 -56.5 -163 -67.5v-111h-116v113q-105 15 -167.5 75t-64.5 157l152 8q1 -53 42.5 -85t104.5 -32q56 0 89 22.5t33 68.5q0 42 -36 63.5t-122 42.5q-81 20 -131.5 42.5t-82 64t-31.5 109.5q0 87 55 149t159 75v110h116v-112q94 -16 150 -74t59 -148l-151 -8
q-2 49 -34.5 78t-87.5 29q-54 0 -84.5 -26t-30.5 -68q0 -30 15.5 -47.5t45.5 -28.5t88 -25q86 -22 140 -47t84.5 -66t30.5 -105q0 -100 -62 -156.5z" />
    <glyph glyph-name="percent" unicode="%" horiz-adv-x="887" 
d="M297.5 735q39.5 -23 62 -65t22.5 -98t-22.5 -98.5t-62 -65.5t-89.5 -23t-90 23t-63 65.5t-23 98.5q0 55 23 97.5t63 65.5t90 23t89.5 -23zM624 748h136l-497 -748h-135zM155 506.5q20 -24.5 52 -24.5q33 0 52.5 24t19.5 66t-19.5 65.5t-52.5 23.5t-52.5 -24t-19.5 -65
t20 -65.5zM527.5 275q22.5 42 62.5 65t90 23q77 0 126 -50.5t49 -135.5t-49 -136t-126 -51q-50 0 -90 23t-62.5 65.5t-22.5 98.5t22.5 98zM628 111.5q20 -24.5 52 -24.5q33 0 52.5 24t19.5 66q0 41 -19.5 65t-52.5 24t-52.5 -24t-19.5 -65t20 -65.5z" />
    <glyph glyph-name="ampersand" unicode="&#x26;" horiz-adv-x="718" 
d="M302 -10q-85 0 -144.5 28.5t-89 77.5t-29.5 110q0 67 30.5 115.5t87.5 89.5q-28 32 -43.5 66t-15.5 75q0 99 63 152.5t167 53.5q92 0 154 -49.5t75 -137.5l-144 -11q-5 37 -26.5 57.5t-58.5 20.5q-38 0 -60 -22t-22 -62q0 -25 12 -46.5t28 -37t51 -46.5l162 -139
q24 53 42 126l132 -33q-31 -108 -68 -179l122 -105l-79 -104l-118 100q-93 -100 -228 -100zM220 143.5q31 -27.5 84 -27.5q72 0 126 57l-149 129l-34 29q-28 -21 -43 -48t-15 -64q0 -48 31 -75.5z" />
    <glyph glyph-name="quotesingle" unicode="'" horiz-adv-x="218" 
d="M42 754h135l-14 -277h-108z" />
    <glyph glyph-name="parenleft" unicode="(" horiz-adv-x="294" 
d="M177 320q0 -199 100 -372l-121 -43q-54 82 -86.5 187t-32.5 228t32.5 227.5t86.5 187.5l121 -43q-100 -173 -100 -372z" />
    <glyph glyph-name="parenright" unicode=")" horiz-adv-x="294" 
d="M224.5 547.5q32.5 -104.5 32.5 -227.5t-32.5 -228t-86.5 -187l-121 43q100 173 100 372t-100 372l121 43q54 -83 86.5 -187.5z" />
    <glyph glyph-name="asterisk" unicode="*" horiz-adv-x="365" 
d="M358 608l-116 -37l73 -95l-63 -47l-70 100l-69 -101l-63 47l73 96l-116 37l24 73l115 -40l-2 122h77l-2 -122l115 40z" />
    <glyph glyph-name="plus" unicode="+" horiz-adv-x="547" 
d="M516 307h-174v-180h-136v180h-175v126h175v178h136v-178h174v-126z" />
    <glyph glyph-name="comma" unicode="," horiz-adv-x="240" 
d="M117 -9q-33 2 -55.5 26t-22.5 58q0 36 23.5 60.5t59.5 24.5q38 0 58.5 -26t20.5 -70q0 -146 -148 -224v59q50 33 64 92z" />
    <glyph glyph-name="hyphen" unicode="-" horiz-adv-x="406" 
d="M45 328h316v-132h-316v132z" />
    <glyph glyph-name="period" unicode="." horiz-adv-x="249" 
d="M184.5 135q24.5 -25 24.5 -60q0 -36 -24.5 -60.5t-60.5 -24.5t-60.5 24.5t-24.5 60.5q0 35 24.5 60t60.5 25t60.5 -25z" />
    <glyph glyph-name="slash" unicode="/" horiz-adv-x="416" 
d="M263 748h145l-254 -815h-147z" />
    <glyph glyph-name="zero" unicode="0" horiz-adv-x="650" 
d="M472.5 713.5q63.5 -44.5 99 -131t35.5 -208.5t-35.5 -208.5t-99 -131t-147.5 -44.5t-147.5 44.5t-99 131.5t-35.5 208t35.5 208t99 131.5t147.5 44.5t147.5 -44.5zM226 184.5q32 -63.5 99 -63.5t99 63.5t32 189.5t-32 189.5t-99 63.5t-99 -63.5t-32 -189.5t32 -189.5z
" />
    <glyph glyph-name="one" unicode="1" horiz-adv-x="391" 
d="M166 566l-101 -75l-64 117l204 142h109v-750h-148v566z" />
    <glyph glyph-name="two" unicode="2" horiz-adv-x="542" 
d="M446 703q60 -55 60 -157q0 -83 -35 -144.5t-101 -130.5l-133 -139h274v-132h-462v113l206 226q58 64 80 105t22 96q0 41 -20 64t-57 23q-81 0 -83 -109l-149 8q2 110 62 171t168 61t168 -55z" />
    <glyph glyph-name="three" unicode="3" horiz-adv-x="567" 
d="M450 699.5q61 -58.5 61 -159.5t-81 -153q42 -17 68 -60.5t26 -105.5q0 -72 -30.5 -124t-85.5 -79.5t-127 -27.5q-115 0 -178.5 60.5t-67.5 166.5l149 8q3 -49 27.5 -76.5t69.5 -27.5q46 0 70 27t24 77q0 48 -28 73t-75 25h-77v125h75q41 0 66.5 24.5t25.5 66.5
q0 43 -21.5 65.5t-60.5 22.5t-62 -25.5t-24 -72.5l-149 9q3 104 64 162t172 58q108 0 169 -58.5z" />
    <glyph glyph-name="four" unicode="4" horiz-adv-x="603" 
d="M579 136h-117v-136h-128v136h-307v122l322 492h113v-483h117v-131zM334 267v243l-162 -243h162z" />
    <glyph glyph-name="five" unicode="5" horiz-adv-x="569" 
d="M417 446.5q52 -27.5 81.5 -81t29.5 -128.5q0 -113 -66.5 -180t-182.5 -67q-111 0 -174.5 58t-67.5 158l149 9q3 -44 27 -69t67 -25q48 0 74 30.5t26 81.5t-25.5 79.5t-69.5 28.5q-48 0 -85 -28h-137v437h436v-131h-288v-167q38 22 88 22q66 0 118 -27.5z" />
    <glyph glyph-name="six" unicode="6" horiz-adv-x="606" 
d="M169.5 21q-60.5 31 -94.5 87.5t-34 130.5q0 45 14 83.5t41 78.5l247 347h177l-193 -266q22 0 34 -1q92 -15 149.5 -80t57.5 -162q0 -74 -34 -130.5t-94 -87.5t-135 -31t-135.5 31zM223 154.5q31 -33.5 82 -33.5q50 0 81 33.5t31 89.5q0 58 -31 90.5t-81 32.5
q-59 0 -90 -42q-23 -33 -23 -81q0 -56 31 -89.5z" />
    <glyph glyph-name="seven" unicode="7" horiz-adv-x="540" 
d="M51 0l298 619h-329v131h492v-119l-297 -631h-164z" />
    <glyph glyph-name="eight" unicode="8" horiz-adv-x="613" 
d="M429 733q55 -25 86.5 -72.5t31.5 -111.5q0 -48 -19 -86.5t-52 -63.5q42 -28 66 -73.5t24 -104.5q0 -71 -33.5 -123t-93 -80t-133.5 -28t-133 28t-92.5 80t-33.5 123q0 58 23.5 103.5t64.5 74.5q-32 24 -51 63t-19 87q0 64 31 111.5t86 72.5t124 25q68 0 123 -25z
M226.5 150.5q31.5 -29.5 79.5 -29.5q49 0 80 29t31 78q0 50 -31 79t-80 29q-48 0 -79.5 -29t-31.5 -79q0 -48 31.5 -77.5zM240.5 473.5q26.5 -24.5 66.5 -24.5t65.5 24t25.5 65t-25.5 65t-65.5 24t-66.5 -24t-26.5 -65q0 -40 26.5 -64.5z" />
    <glyph glyph-name="nine" unicode="9" horiz-adv-x="606" 
d="M436.5 727q60.5 -31 94.5 -87.5t34 -130.5q0 -45 -14 -83.5t-41 -78.5l-247 -347h-177l193 266h-16q-11 0 -17 1q-93 15 -150.5 80t-57.5 162q0 74 34 130.5t94 87.5t135 31t135.5 -31zM220 413.5q31 -32.5 81 -32.5q59 0 90 42q23 33 23 81q0 56 -31 89.5t-82 33.5
q-50 0 -81 -33.5t-31 -89.5q0 -58 31 -90.5z" />
    <glyph glyph-name="colon" unicode=":" horiz-adv-x="249" 
d="M176.5 501q25.5 -25 25.5 -61q0 -35 -25.5 -60t-61.5 -25q-35 0 -59.5 25t-24.5 60q0 36 24.5 61t59.5 25q36 0 61.5 -25zM55.5 135q24.5 25 59.5 25q36 0 61.5 -25t25.5 -60q0 -36 -25.5 -60.5t-61.5 -24.5q-35 0 -59.5 24.5t-24.5 60.5q0 35 24.5 60z" />
    <glyph glyph-name="semicolon" unicode=";" horiz-adv-x="249" 
d="M55.5 380q-24.5 25 -24.5 60q0 36 24.5 61t59.5 25q36 0 61.5 -25t25.5 -61q0 -35 -25.5 -60t-61.5 -25q-35 0 -59.5 25zM62.5 135.5q23.5 24.5 59.5 24.5q37 0 58 -26t21 -68q0 -148 -148 -226v59q50 33 64 92q-33 2 -55.5 26t-22.5 58q0 36 23.5 60.5z" />
    <glyph glyph-name="less" unicode="&#x3c;" horiz-adv-x="536" 
d="M506 265l-1 -159l-476 263l476 263l1 -159l-203 -104z" />
    <glyph glyph-name="equal" unicode="=" horiz-adv-x="547" 
d="M31 558h485v-132h-485v132zM31 313h485v-131h-485v131z" />
    <glyph glyph-name="greater" unicode="&#x3e;" horiz-adv-x="536" 
d="M31 265l202 104l-202 104l1 159l475 -263l-475 -263z" />
    <glyph glyph-name="question" unicode="?" horiz-adv-x="532" 
d="M398 732q56 -28 86 -79t30 -119q0 -57 -25.5 -93.5t-73.5 -73.5q-39 -31 -57 -54.5t-18 -55.5v-31h-148v37q0 45 24 79t72 74q38 33 56.5 58t18.5 58q0 45 -25.5 70.5t-71.5 25.5t-72.5 -26.5t-29.5 -74.5l-148 8q2 68 34 119t88 78.5t128 27.5q76 0 132 -28zM205 135
q25 25 61 25q35 0 60 -25t25 -60q0 -36 -25 -60.5t-60 -24.5q-36 0 -61 24.5t-25 60.5q0 35 25 60z" />
    <glyph glyph-name="at" unicode="@" horiz-adv-x="795" 
d="M213 -64.5q-81 45.5 -128.5 126.5t-47.5 184q0 101 46.5 183t128.5 128.5t185 46.5t185 -46.5t129 -128.5t47 -183q0 -102 -41.5 -155t-114.5 -53q-38 0 -64 14.5t-38 41.5q-45 -58 -128 -58q-56 0 -99.5 26t-67.5 73.5t-24 110.5q0 64 24 111.5t67.5 73.5t99.5 26
q41 0 71.5 -14t47.5 -36v36h101v-298q0 -41 37 -41q30 0 48.5 36.5t18.5 105.5q0 85 -39 153.5t-107 107.5t-153 39t-153 -39t-106.5 -107.5t-38.5 -153.5q0 -88 40 -156t107 -105t145 -37q56 0 98.5 11.5t81.5 33.5l22 -56q-42 -25 -89 -36t-113 -11q-97 0 -178 45.5z
M317 160.5q27 -30.5 72 -30.5q44 0 70 28.5t26 78.5v19q0 50 -26 78t-70 28q-45 0 -72 -30.5t-27 -85.5t27 -85.5z" />
    <glyph glyph-name="A" unicode="A" horiz-adv-x="784" 
d="M548 152h-312l-64 -152h-163l320 748h126l320 -748h-163zM498 267l-106 251l-105 -251h211z" />
    <glyph glyph-name="B" unicode="B" horiz-adv-x="704" 
d="M555.5 695.5q63.5 -52.5 63.5 -154.5q0 -51 -19 -87.5t-50 -60.5q42 -19 70.5 -64.5t28.5 -111.5q0 -105 -65.5 -161t-174.5 -56h-332v748h309q106 0 169.5 -52.5zM391 132q49 0 78 23t29 70q0 48 -28.5 71t-75.5 23h-169v-187h166zM379 446q41 0 64.5 20.5t23.5 63.5
t-26 65t-72 22h-144v-171h154z" />
    <glyph glyph-name="C" unicode="C" horiz-adv-x="824" 
d="M595 723.5q76 -34.5 125 -98.5t62 -150l-155 -15q-15 81 -69 124t-135 43q-66 0 -116.5 -31t-78 -88t-27.5 -134q0 -81 29 -138t79.5 -86t114.5 -29q80 0 134 42t69 120l155 -13q-14 -86 -63 -149.5t-124 -97t-165 -33.5q-110 0 -196.5 46t-135.5 133t-49 205t49 205
t135 133t196 46q90 0 166 -34.5z" />
    <glyph glyph-name="D" unicode="D" horiz-adv-x="802" 
d="M573 703q84 -45 132 -129.5t48 -199.5t-48 -199.5t-132.5 -129.5t-190.5 -45h-305v748h306q106 0 190 -45zM383 128q103 0 163 63t60 183t-59.5 183t-162.5 63h-159v-492h158z" />
    <glyph glyph-name="E" unicode="E" 
d="M225 448h286v-129h-286v-187h330v-132h-478v748h477v-131h-329v-169z" />
    <glyph glyph-name="F" unicode="F" horiz-adv-x="588" 
d="M225 448h269v-132h-269v-316h-148v748h478v-131h-330v-169z" />
    <glyph glyph-name="G" unicode="G" horiz-adv-x="833" 
d="M740 164q-43 -83 -123.5 -128.5t-188.5 -45.5q-109 0 -195 46t-135 133t-49 205t49 205t135 133t195 46q132 0 225.5 -67.5t122.5 -189.5l-154 -25q-15 70 -66.5 110.5t-129.5 40.5q-105 0 -165 -64.5t-60 -188.5t60.5 -188.5t164.5 -64.5q75 0 126 38t66 115h-190v132
h355v-49q0 -110 -43 -193z" />
    <glyph glyph-name="H" unicode="H" horiz-adv-x="761" 
d="M536 318h-311v-318h-148v748h148v-298h311v298h149v-748h-149v318z" />
    <glyph glyph-name="I" unicode="I" horiz-adv-x="302" 
d="M77 748h148v-748h-148v748z" />
    <glyph glyph-name="J" unicode="J" horiz-adv-x="610" 
d="M470 62q-69 -72 -191 -72q-115 0 -184 66t-76 183l148 25q4 -68 33 -105.5t80 -37.5q54 0 82.5 35t28.5 103v489h148v-484q0 -130 -69 -202z" />
    <glyph glyph-name="K" unicode="K" horiz-adv-x="717" 
d="M533 0l-216 322l-92 -110v-212h-148v748h148v-313l260 313h191l-261 -306l290 -442h-172z" />
    <glyph glyph-name="L" unicode="L" horiz-adv-x="591" 
d="M556 0h-479v748h148v-616h331v-132z" />
    <glyph glyph-name="M" unicode="M" horiz-adv-x="974" 
d="M749 417l-212 -409h-98l-214 409v-417h-148v748h131l280 -523l278 523h132v-748h-149v417z" />
    <glyph glyph-name="N" unicode="N" horiz-adv-x="763" 
d="M225 474v-474h-148v748h125l336 -475v475h148v-748h-126z" />
    <glyph glyph-name="O" unicode="O" horiz-adv-x="874" 
d="M636.5 711q87.5 -47 137.5 -134t50 -203t-50 -203t-137.5 -134t-198.5 -47q-112 0 -200.5 47t-138.5 134t-50 203t50 203t138.5 134t200.5 47q111 0 198.5 -47zM231 239q30 -57 83.5 -87.5t123.5 -30.5q69 0 122.5 30.5t83 87.5t29.5 135t-29.5 135t-83 87.5t-122.5 30.5
q-70 0 -123.5 -30.5t-83.5 -87.5t-30 -135t30 -135z" />
    <glyph glyph-name="P" unicode="P" horiz-adv-x="665" 
d="M572 684.5q66 -63.5 66 -176.5q0 -75 -30.5 -129t-85 -82t-125.5 -28h-172v-269h-148v748h320q109 0 175 -63.5zM379 400q47 0 77.5 28.5t30.5 79.5q0 52 -30.5 80.5t-77.5 28.5h-154v-217h154z" />
    <glyph glyph-name="Q" unicode="Q" horiz-adv-x="878" 
d="M438 -10q-112 0 -200.5 47t-138.5 134t-50 203t50 203t138.5 134t200.5 47q111 0 198.5 -47t137.5 -134t50 -203q0 -138 -71 -234l114 -112l-103 -105l-121 119q-89 -52 -205 -52zM231 239q30 -57 83.5 -87.5t123.5 -30.5q55 0 100 25l-113 112l104 104l113 -111
q31 52 31 123q0 78 -29.5 135t-83 87.5t-122.5 30.5q-70 0 -123.5 -30.5t-83.5 -87.5t-30 -135t30 -135z" />
    <glyph glyph-name="R" unicode="R" horiz-adv-x="705" 
d="M77 748h316q108 0 174 -63t66 -175q0 -77 -32 -131.5t-90 -81.5l162 -297h-168l-148 272h-14h-118v-272h-148v748zM375 403q48 0 78 28t30 79t-30 79t-78 28h-150v-214h150z" />
    <glyph glyph-name="S" unicode="S" horiz-adv-x="663" 
d="M525 697.5q75 -60.5 78 -166.5l-151 -8q-2 49 -34.5 78t-87.5 29q-54 0 -84.5 -26t-30.5 -68q0 -30 15.5 -47.5t45.5 -28.5t88 -25q86 -22 140 -47t84.5 -66t30.5 -105q0 -113 -77 -170t-197 -57q-87 0 -154 27.5t-105.5 81t-39.5 128.5l152 8q1 -53 42.5 -85t104.5 -32
q56 0 89 22.5t33 68.5q0 42 -36 63.5t-122 42.5q-81 20 -131.5 42.5t-82 64t-31.5 109.5q0 63 29.5 114.5t89 82t144.5 30.5q123 0 198 -60.5z" />
    <glyph glyph-name="T" unicode="T" horiz-adv-x="692" 
d="M421 0h-149v617h-253v131h654v-131h-252v-617z" />
    <glyph glyph-name="U" unicode="U" horiz-adv-x="776" 
d="M619.5 72q-84.5 -82 -231.5 -82q-148 0 -232.5 82t-84.5 230v446h148v-444q0 -89 43.5 -136t125.5 -47q81 0 124.5 47t43.5 136v444h148v-446q0 -148 -84.5 -230z" />
    <glyph glyph-name="V" unicode="V" horiz-adv-x="780" 
d="M13 748h162l215 -518l214 518h163l-314 -748h-126z" />
    <glyph glyph-name="W" unicode="W" horiz-adv-x="1124" 
d="M562 488l-163 -488h-125l-261 748h163l162 -502l163 502h122l163 -502l163 502h162l-261 -748h-125z" />
    <glyph glyph-name="X" unicode="X" horiz-adv-x="724" 
d="M533 0l-171 281l-172 -281h-171l233 380l-221 368h172l159 -268l159 268h172l-221 -368l233 -380h-172z" />
    <glyph glyph-name="Y" unicode="Y" horiz-adv-x="739" 
d="M296 0v290l-284 458h172l186 -311l185 311h172l-283 -458v-290h-148z" />
    <glyph glyph-name="Z" unicode="Z" horiz-adv-x="625" 
d="M592 132v-132h-554v112l353 505h-347v131h538v-112l-354 -504h364z" />
    <glyph glyph-name="bracketleft" unicode="[" horiz-adv-x="303" 
d="M194 39h88v-116h-229v795h229v-116h-88v-563z" />
    <glyph glyph-name="backslash" unicode="\" horiz-adv-x="416" 
d="M7 748h146l255 -815h-146z" />
    <glyph glyph-name="bracketright" unicode="]" horiz-adv-x="303" 
d="M21 39h89v563h-89v116h229v-795h-229v116z" />
    <glyph glyph-name="asciicircum" unicode="^" horiz-adv-x="592" 
d="M296 547l-110 -175h-159l269 393l268 -393h-159z" />
    <glyph glyph-name="underscore" unicode="_" horiz-adv-x="688" 
d="M45 0h598v-132h-598v132z" />
    <glyph glyph-name="grave" unicode="`" horiz-adv-x="265" 
d="M10 789h159l86 -191h-110z" />
    <glyph glyph-name="a" unicode="a" horiz-adv-x="556" 
d="M433 473.5q54 -52.5 54 -153.5v-320h-133v50q-22 -28 -57.5 -44t-82.5 -16q-79 0 -124 38t-45 111q0 147 214 156l87 4v30q0 80 -69 80q-36 0 -56.5 -22t-20.5 -50l-141 4q0 46 26.5 89t76 69.5t113.5 26.5q104 0 158 -52.5zM250 95q41 0 68.5 24t27.5 69v25l-77 -4
q-84 -5 -84 -60q0 -54 65 -54z" />
    <glyph glyph-name="b" unicode="b" horiz-adv-x="656" 
d="M273.5 510q38.5 16 88.5 16q72 0 128.5 -33.5t88.5 -94.5t32 -141q0 -79 -32 -139.5t-88.5 -94t-128.5 -33.5q-54 0 -94 18t-62 47v-55h-132v777h140v-309q21 26 59.5 42zM248.5 146.5q34.5 -36.5 91.5 -36.5q58 0 94 39t36 109t-36 109t-94 39q-57 0 -91.5 -36.5
t-34.5 -99.5v-24q0 -63 34.5 -99.5z" />
    <glyph glyph-name="c" unicode="c" horiz-adv-x="591" 
d="M471.5 472.5q67.5 -53.5 80.5 -144.5l-137 -13q-5 42 -33.5 66.5t-72.5 24.5q-55 0 -88.5 -39t-33.5 -109q0 -69 34 -108.5t88 -39.5q44 0 72 23.5t34 63.5l137 -11q-15 -91 -81 -143.5t-162 -52.5q-76 0 -136 32t-94 92.5t-34 143.5t34 143.5t94 92.5t136 32
q95 0 162.5 -53.5z" />
    <glyph glyph-name="d" unicode="d" horiz-adv-x="656" 
d="M388 8q-40 -18 -94 -18q-72 0 -128.5 33.5t-88.5 94t-32 139.5q0 80 32 141t88.5 94.5t128.5 33.5q50 0 89 -16t60 -42v309h140v-777h-133v55q-22 -29 -62 -47zM223 149q36 -39 94 -39q56 0 90.5 36.5t34.5 99.5v24q0 63 -34.5 99.5t-90.5 36.5q-58 0 -94 -39t-36 -109
t36 -109z" />
    <glyph glyph-name="e" unicode="e" horiz-adv-x="598" 
d="M224.5 131q29.5 -32 82.5 -32q39 0 65 17t35 47l141 -7q-14 -76 -80 -121t-157 -45q-78 0 -138.5 32.5t-94 93t-33.5 142.5t33 142.5t92.5 93t136.5 32.5q74 0 129.5 -31t86 -89t30.5 -137v-51h-359q1 -55 30.5 -87zM412 305q-2 53 -29 84t-78 31q-48 0 -78 -30.5
t-33 -84.5h218z" />
    <glyph glyph-name="f" unicode="f" horiz-adv-x="377" 
d="M361 779v-121q-13 3 -33 3q-39 0 -63.5 -23.5t-24.5 -61.5v-60h121v-120h-121v-396h-141v396h-93v120h93v57q0 96 58.5 153t154.5 57q30 0 49 -4z" />
    <glyph glyph-name="g" unicode="g" horiz-adv-x="647" 
d="M388 508q40 -18 62 -47v55h133v-536q0 -74 -32 -129t-91 -85t-137 -30q-117 0 -183.5 52.5t-81.5 143.5l140 5q5 -38 37 -60.5t82 -22.5q58 0 92 30t34 86v78q-22 -26 -60.5 -42t-88.5 -16q-72 0 -128.5 33.5t-88.5 94t-32 140.5t32 140.5t88.5 94t128.5 33.5
q54 0 94 -18zM223 149q36 -39 94 -39q56 0 90.5 36.5t34.5 99.5v24q0 63 -34.5 99.5t-90.5 36.5q-58 0 -94 -39.5t-36 -109.5q0 -69 36 -108z" />
    <glyph glyph-name="h" unicode="h" horiz-adv-x="615" 
d="M265.5 509.5q33.5 16.5 82.5 16.5q90 0 145 -54.5t55 -151.5v-320h-140v289q0 50 -25.5 78.5t-69.5 28.5t-71.5 -30t-27.5 -78v-288h-140v777h140v-308q18 24 51.5 40.5z" />
    <glyph glyph-name="i" unicode="i" horiz-adv-x="288" 
d="M203.5 747q24.5 -25 24.5 -60t-24.5 -60t-59.5 -25t-60 25t-25 60t25 60t60 25t59.5 -25zM74 516h140v-516h-140v516z" />
    <glyph glyph-name="j" unicode="j" horiz-adv-x="288" 
d="M203.5 747q24.5 -25 24.5 -60t-24.5 -60t-59.5 -25t-60 25t-25 60t25 60t60 25t59.5 -25zM-46 -137q15 -3 35 -3q38 0 61.5 23t23.5 62v571h140v-568q0 -96 -57.5 -153t-152.5 -57q-30 0 -50 4v121z" />
    <glyph glyph-name="k" unicode="k" horiz-adv-x="578" 
d="M557 516l-197 -221l211 -295h-168l-143 191l-46 -51v-140h-140v777h140v-448l171 187h172z" />
    <glyph glyph-name="l" unicode="l" horiz-adv-x="288" 
d="M74 777h140v-777h-140v777z" />
    <glyph glyph-name="m" unicode="m" horiz-adv-x="930" 
d="M808.5 471.5q53.5 -54.5 53.5 -151.5v-320h-140v289q0 51 -23.5 79t-66.5 28q-44 0 -69 -29.5t-25 -78.5v-288h-141v289q0 51 -23 79t-66 28q-44 0 -69 -29.5t-25 -78.5v-288h-140v516h132v-53q18 28 52 45.5t84 17.5q55 0 97.5 -21.5t66.5 -62.5q24 39 63.5 61.5
t95.5 22.5q90 0 143.5 -54.5z" />
    <glyph glyph-name="n" unicode="n" horiz-adv-x="617" 
d="M493 471.5q55 -54.5 55 -151.5v-320h-140v289q0 50 -25.5 78.5t-69.5 28.5t-71.5 -30t-27.5 -78v-288h-140v516h132v-53q17 27 54 45t88 18q90 0 145 -54.5z" />
    <glyph glyph-name="o" unicode="o" horiz-adv-x="638" 
d="M459 492.5q62 -33.5 97.5 -94t35.5 -140.5t-35.5 -141t-97.5 -94t-141 -33q-78 0 -140.5 33t-97.5 94t-35 141t35.5 140.5t97.5 94t140 33.5q79 0 141 -33.5zM223.5 150q36.5 -40 94.5 -40q60 0 96.5 39.5t36.5 108.5t-36.5 108.5t-96.5 39.5q-58 0 -94.5 -40t-36.5 -108
t36.5 -108z" />
    <glyph glyph-name="p" unicode="p" horiz-adv-x="656" 
d="M490.5 492.5q56.5 -33.5 88.5 -94t32 -140.5t-32 -140.5t-88.5 -94t-128.5 -33.5q-50 0 -88.5 16t-59.5 42v-303h-140v771h132v-55q22 28 62.5 46.5t93.5 18.5q72 0 128.5 -33.5zM248.5 146.5q34.5 -36.5 91.5 -36.5q58 0 94 39t36 108q0 70 -36 109.5t-94 39.5
q-57 0 -91.5 -36.5t-34.5 -99.5v-24q0 -63 34.5 -99.5z" />
    <glyph glyph-name="q" unicode="q" horiz-adv-x="656" 
d="M388 508q40 -18 62 -47v55h133v-771h-140v303q-21 -26 -60 -42t-89 -16q-72 0 -128.5 33.5t-88.5 94t-32 140.5t32 140.5t88.5 94t128.5 33.5q54 0 94 -18zM223 149q36 -39 94 -39q56 0 90.5 36.5t34.5 99.5v24q0 63 -34.5 99.5t-90.5 36.5q-58 0 -94 -39.5t-36 -109.5
q0 -69 36 -108z" />
    <glyph glyph-name="r" unicode="r" horiz-adv-x="375" 
d="M251.5 352.5q-37.5 -33.5 -37.5 -87.5v-265h-140v516h135v-57q43 63 143 63v-136q-63 0 -100.5 -33.5z" />
    <glyph glyph-name="s" unicode="s" horiz-adv-x="505" 
d="M395 482.5q53 -43.5 61 -117.5l-140 -8q-2 30 -18 48.5t-48 18.5q-33 0 -50 -13t-17 -38q0 -19 12 -29.5t27.5 -15.5t64.5 -17q59 -15 96 -32t58.5 -45.5t21.5 -73.5q0 -79 -55.5 -124.5t-155.5 -45.5q-99 0 -154.5 41t-63.5 121l141 8q2 -33 21.5 -51t56.5 -18
q33 0 51 14t18 41q0 25 -19.5 38t-78.5 27q-65 16 -101.5 31t-58 43.5t-21.5 78.5q0 75 54.5 118.5t150.5 43.5q94 0 147 -43.5z" />
    <glyph glyph-name="t" unicode="t" horiz-adv-x="400" 
d="M153.5 34q-49.5 43 -48.5 129l1 233h-95v120h95l1 172h141l-1 -172h122v-120h-123l-1 -197q0 -42 22 -62t56 -20q23 0 47 4v-124q-42 -6 -80 -6q-87 0 -136.5 43z" />
    <glyph glyph-name="u" unicode="u" 
d="M344.5 8q-33.5 -18 -84.5 -18q-90 0 -140.5 52t-50.5 147v327h140v-295q0 -100 86 -100q44 0 68 27t24 73v295h140v-516h-132v53q-17 -27 -50.5 -45z" />
    <glyph glyph-name="v" unicode="v" horiz-adv-x="569" 
d="M5 516h156l124 -314l123 314h156l-224 -516h-111z" />
    <glyph glyph-name="w" unicode="w" horiz-adv-x="843" 
d="M423 282l-108 -282h-112l-198 516h156l103 -311l108 311h99l109 -311l103 311h155l-197 -516h-112z" />
    <glyph glyph-name="x" unicode="x" horiz-adv-x="550" 
d="M379 0l-105 165l-103 -165h-158l165 261l-162 255h157l101 -161l102 161h156l-161 -255l166 -261h-158z" />
    <glyph glyph-name="y" unicode="y" horiz-adv-x="569" 
d="M209 44l-201 472h155l122 -315l121 315h156l-330 -771h-154z" />
    <glyph glyph-name="z" unicode="z" horiz-adv-x="454" 
d="M421 113v-113h-388v93l218 310h-213v113h375v-92l-216 -311h224z" />
    <glyph glyph-name="braceleft" unicode="{" horiz-adv-x="298" 
d="M219.5 584q-15.5 -17 -15.5 -57q0 -20 5 -58q5 -35 5 -58q0 -39 -15.5 -62t-54.5 -28q39 -5 54.5 -28t15.5 -62q0 -24 -5 -59q-5 -38 -5 -58q0 -41 15.5 -58t51.5 -17h6v-116h-6q-94 0 -150.5 44.5t-56.5 129.5q0 31 7 62q10 43 10 63q0 22 -12.5 31.5t-43.5 9.5h-8v115
h8q31 0 43.5 9.5t12.5 31.5q0 20 -10 63q-7 31 -7 62q0 85 56.5 129.5t150.5 44.5h6v-117h-6q-36 0 -51.5 -17z" />
    <glyph glyph-name="bar" unicode="|" horiz-adv-x="285" 
d="M72 748h140v-815h-140v815z" />
    <glyph glyph-name="braceright" unicode="}" horiz-adv-x="298" 
d="M176.5 673.5q56.5 -44.5 56.5 -128.5q0 -31 -7 -63q-10 -43 -10 -63q0 -22 12.5 -31.5t44.5 -9.5h8v-115h-8q-32 0 -44.5 -9.5t-12.5 -31.5q0 -20 10 -63q7 -32 7 -63q0 -84 -56.5 -128.5t-149.5 -44.5h-6v116h6q36 0 51.5 17t15.5 58q0 21 -5 58q-5 33 -5 57
q0 40 16 63.5t54 28.5q-38 5 -54 28t-16 63q0 24 5 57q5 37 5 57q0 41 -15.5 58t-51.5 17h-6v117h6q93 0 149.5 -44.5z" />
    <glyph glyph-name="asciitilde" unicode="~" horiz-adv-x="543" 
d="M459.5 299.5q-38.5 -23.5 -87.5 -23.5q-29 0 -50.5 7.5t-53.5 23.5q-25 13 -44 20t-41 7q-35 0 -59.5 -12t-49.5 -41l-63 93q35 45 73 68t85 23q27 0 48 -7.5t50 -22.5q26 -14 46.5 -21t44.5 -7q36 0 61 12.5t50 41.5l63 -93q-34 -45 -72.5 -68.5z" />
    <glyph glyph-name="exclamdown" unicode="&#xa1;" horiz-adv-x="319" 
d="M99.5 365q-25.5 25 -25.5 61q0 35 25.5 59.5t60.5 24.5q36 0 60.5 -24.5t24.5 -59.5q0 -36 -24.5 -61t-60.5 -25q-35 0 -60.5 25zM86 274h147l9 -522h-164z" />
    <glyph glyph-name="cent" unicode="&#xa2;" horiz-adv-x="591" 
d="M99.5 83.5q-54.5 68.5 -54.5 174.5t54.5 174.5t146.5 86.5v108h116v-106q76 -14 127.5 -65t62.5 -128l-137 -13q-5 42 -33.5 66.5t-72.5 24.5q-55 0 -88.5 -39t-33.5 -109q0 -69 34 -108.5t88 -39.5q44 0 72 23.5t34 63.5l137 -11q-13 -78 -63.5 -128t-126.5 -63v-113
h-116v115q-92 18 -146.5 86.5z" />
    <glyph glyph-name="sterling" unicode="&#xa3;" horiz-adv-x="564" 
d="M106.5 171q21.5 37 17.5 108l-2 29h-94v116h83l-5 68q-2 16 -2 46q0 106 55 163t161 57q101 0 156.5 -53.5t57.5 -149.5l-147 -8q-1 37 -19 58.5t-51 21.5q-41 0 -59.5 -28t-14.5 -81l9 -94h151v-116h-140l2 -30q2 -51 -13 -85.5t-43 -60.5h333v-132h-513v121
q56 13 77.5 50z" />
    <glyph glyph-name="currency" unicode="&#xa4;" horiz-adv-x="600" 
d="M468 159l113 -113l-88 -88l-114 113q-36 -17 -79 -17q-40 0 -78 18l-114 -114l-89 88l114 114q-20 40 -20 92q0 51 20 93l-114 115l89 88l114 -115q38 18 78 18t78 -18l115 115l88 -88l-115 -114q22 -42 22 -94q0 -51 -20 -93zM246 261q0 -31 24 -60q17 -23 35 -23
q21 0 38 26q11 18 11 40q0 31 -23 59q-18 22 -37 22q-21 0 -36 -25q-12 -18 -12 -39z" />
    <glyph glyph-name="yen" unicode="&#xa5;" horiz-adv-x="739" 
d="M578 266h-134v-68h134v-87h-134v-111h-148v111h-134v87h134v68h-134v88h95l-245 394h172l186 -311l185 311h172l-244 -394h95v-88z" />
    <glyph glyph-name="brokenbar" unicode="&#xa6;" horiz-adv-x="285" 
d="M72 748h140v-319h-140v319zM72 252h140v-319h-140v319z" />
    <glyph glyph-name="section" unicode="&#xa7;" horiz-adv-x="529" 
d="M97.5 16.5q-60.5 44.5 -60.5 122.5l140 6q1 -33 24 -54t65 -21q38 0 60 17t22 47q0 28 -22.5 42.5t-82.5 28.5q-73 15 -116.5 31.5t-68.5 45t-25 75.5q0 42 18.5 71t53.5 52q-58 34 -58 113q0 75 57 120t153 45q101 0 158 -42.5t58 -115.5l-140 -5q-1 29 -20 47t-54 18
q-34 0 -53 -15t-19 -44q0 -26 21 -40t76 -27q76 -17 119 -33t67 -44.5t24 -76.5q0 -42 -18 -70t-52 -50q32 -18 48 -46t16 -71q0 -50 -27 -89t-77.5 -60.5t-117.5 -21.5q-108 0 -168.5 44.5zM187 331.5q25 -14.5 82 -26.5l49 -11q24 14 35.5 29t11.5 40q0 28 -22.5 41.5
t-73.5 25.5l-36 9q-8 1 -24 5q-24 -16 -35.5 -31t-11.5 -38q0 -29 25 -43.5z" />
    <glyph glyph-name="dieresis" unicode="&#xa8;" horiz-adv-x="363" 
d="M141.5 733q22.5 -22 22.5 -54t-22.5 -54t-54.5 -22t-54 22t-22 54t22 54t54 22t54.5 -22zM222 733q22 22 54 22t54.5 -22t22.5 -54t-22.5 -54t-54.5 -22t-54 22t-22 54t22 54z" />
    <glyph glyph-name="copyright" unicode="&#xa9;" horiz-adv-x="594" 
d="M435 727.5q62 -33.5 97 -91.5t35 -130q0 -73 -35 -131.5t-97 -92t-138 -33.5q-77 0 -138.5 33.5t-96.5 92t-35 131.5q0 72 35 130t96.5 91.5t138.5 33.5q76 0 138 -33.5zM109.5 398.5q27.5 -47.5 76 -74t111.5 -26.5q62 0 111 26.5t76.5 74t27.5 107.5q0 59 -27.5 106
t-76.5 73.5t-111 26.5q-63 0 -111.5 -26.5t-76 -73.5t-27.5 -106q0 -60 27.5 -107.5zM187.5 621q43.5 42 110.5 42q56 0 96 -31t48 -84l-80 -6q-4 26 -22 39.5t-43 13.5q-33 0 -53 -23.5t-20 -64.5q0 -42 20.5 -65t52.5 -23q26 0 43.5 13.5t21.5 37.5l80 -5
q-9 -53 -48.5 -84t-94.5 -31q-67 0 -111 43t-44 114q0 72 43.5 114z" />
    <glyph glyph-name="ordfeminine" unicode="&#xaa;" horiz-adv-x="455" 
d="M403 590v-256h-118v36q-16 -20 -45 -32.5t-67 -12.5q-66 0 -103.5 30.5t-37.5 89.5q0 64 48 92.5t130 33.5l68 4v24q0 28 -14 44t-39 16q-29 0 -44.5 -16.5t-15.5 -41.5l-122 4q0 37 22 72t63.5 57t95.5 22q179 0 179 -166zM209 415q29 0 49 17.5t20 49.5v20l-58 -4
q-61 -5 -61 -45q0 -38 50 -38z" />
    <glyph glyph-name="guillemotleft" unicode="&#xab;" horiz-adv-x="576" 
d="M291 93l-112 -69l-164 233l164 234l112 -69l-120 -165zM448 491l112 -69l-120 -165l120 -164l-112 -69l-165 233z" />
    <glyph glyph-name="logicalnot" unicode="&#xac;" horiz-adv-x="598" 
d="M450 338h-417v109h526v-298h-109v189z" />
    <glyph glyph-name="registered" unicode="&#xae;" horiz-adv-x="594" 
d="M158.5 282.5q-61.5 33.5 -96.5 92t-35 131.5q0 72 35 130t96.5 91.5t138.5 33.5q76 0 138 -33.5t97 -91.5t35 -130q0 -73 -35 -131.5t-97 -92t-138 -33.5q-77 0 -138.5 33.5zM109.5 398.5q27.5 -47.5 76 -74t111.5 -26.5t111.5 27t76 74.5t27.5 106.5t-27.5 106
t-76.5 73.5t-111 26.5q-63 0 -111.5 -26.5t-76 -73.5t-27.5 -106q0 -60 27.5 -107.5zM180 659h139q45 0 72 -26t27 -73q0 -30 -12 -52.5t-33 -33.5l57 -116l-5 -5h-78l-51 106h-39v-106h-77v306zM298 522q41 0 41 37t-41 37h-41v-74h41z" />
    <glyph glyph-name="macron" unicode="&#xaf;" horiz-adv-x="315" 
d="M9 728h297v-108h-297v108z" />
    <glyph glyph-name="degree" unicode="&#xb0;" horiz-adv-x="374" 
d="M302.5 717.5q44.5 -39.5 44.5 -108.5v-22q0 -70 -44.5 -109.5t-116.5 -39.5q-71 0 -115 39.5t-44 109.5v22q0 69 43.5 108.5t115.5 39.5t116.5 -39.5zM140 541q17 -18 46 -18q30 0 47.5 18t17.5 50v13q0 32 -17.5 50t-47.5 18t-46.5 -17.5t-16.5 -50.5v-13q0 -32 17 -50z
" />
    <glyph glyph-name="plusminus" unicode="&#xb1;" horiz-adv-x="547" 
d="M516 417h-174v-180h-136v180h-175v127h175v178h136v-178h174v-127zM31 185h485v-132h-485v132z" />
    <glyph glyph-name="acute" unicode="&#xb4;" horiz-adv-x="265" 
d="M96 789h158l-134 -191h-110z" />
    <glyph glyph-name="paragraph" unicode="&#xb6;" horiz-adv-x="706" 
d="M620 -67h-109v711h-99v-711h-109v436h-56q-97 0 -154 49t-57 141t57 140.5t154 48.5h442v-104h-69v-711z" />
    <glyph glyph-name="periodcentered" unicode="&#xb7;" horiz-adv-x="264" 
d="M184.5 381q24.5 -25 24.5 -60q0 -36 -24.5 -60.5t-60.5 -24.5t-60.5 24.5t-24.5 60.5q0 35 24.5 60t60.5 25t60.5 -25z" />
    <glyph glyph-name="cedilla" unicode="&#xb8;" horiz-adv-x="274" 
d="M223 -76.5q34 -27.5 34 -74.5q0 -49 -40 -74.5t-96 -25.5q-62 0 -101 21l21 68q28 -14 57 -14q22 0 38 9.5t16 28.5q0 20 -16 30.5t-41 10.5q-22 0 -33 -5l36 113h58l-15 -58q48 -2 82 -29.5z" />
    <glyph glyph-name="ordmasculine" unicode="&#xba;" horiz-adv-x="512" 
d="M369.5 729.5q50.5 -26.5 79 -75.5t28.5 -113t-28.5 -113t-79 -76t-114.5 -27q-63 0 -113.5 27t-79 76t-28.5 113t28.5 112.5t79 75.5t113.5 27q64 0 114.5 -26.5zM187.5 462q25.5 -29 68.5 -29t69 29t26 79q0 51 -26 80t-69 29q-42 0 -68 -29.5t-26 -79.5t25.5 -79z" />
    <glyph glyph-name="guillemotright" unicode="&#xbb;" horiz-adv-x="576" 
d="M17 93l120 164l-120 165l112 69l165 -234l-165 -233zM405 257l-120 165l112 69l164 -234l-164 -233l-112 69z" />
    <glyph glyph-name="onequarter" unicode="&#xbc;" horiz-adv-x="729" 
d="M541 748h142l-508 -748h-143zM131 733h68v-411h-108v269l-48 -32l-46 86zM394 149l169 262h103v-250h46v-96h-46v-65h-107v65h-165v84zM559 161v105l-72 -105h72z" />
    <glyph glyph-name="onehalf" unicode="&#xbd;" horiz-adv-x="774" 
d="M541 748h142l-508 -748h-143zM131 733h68v-411h-108v269l-48 -32l-46 86zM477 74l130 139q19 19 27 35.5t8 38.5q0 16 -7.5 25t-20.5 9q-15 0 -23.5 -10t-8.5 -30l-105 7q1 60 37.5 94.5t97.5 34.5q68 0 103 -36t35 -96q0 -39 -16.5 -71.5t-47.5 -66.5l-47 -51h112v-96
h-274v74z" />
    <glyph glyph-name="threequarters" unicode="&#xbe;" horiz-adv-x="809" 
d="M621 748h143l-508 -748h-143zM130 451q0 -19 7.5 -29.5t22.5 -10.5t24 10t9 28q0 19 -10 29t-28 10h-43v85h42q15 0 26 10t11 26t-8 25t-22 9q-13 0 -21 -9t-8 -27l-106 6q1 59 36 92.5t99 33.5q65 0 100 -33t35 -91q0 -52 -42 -81q20 -10 33.5 -34t13.5 -55
q0 -60 -38.5 -95t-101.5 -35q-67 0 -103 34.5t-37 93.5zM474 149l170 262h103v-250h46v-96h-46v-65h-107v65h-166v84zM640 161v105l-72 -105h72z" />
    <glyph glyph-name="questiondown" unicode="&#xbf;" horiz-adv-x="532" 
d="M205 380q-25 25 -25 61q0 35 25 60t61 25q35 0 60 -25t25 -60q0 -36 -25 -61t-60 -25q-36 0 -61 25zM42.5 75.5q25.5 36.5 73.5 73.5q39 31 57 54.5t18 55.5v31h148v-37q0 -44 -24 -78.5t-71 -74.5q-39 -33 -57.5 -58t-18.5 -58q0 -44 26 -70.5t71 -26.5q46 0 73 27
t30 75l147 -8q-2 -68 -34 -119t-88 -78.5t-128 -27.5q-114 0 -181 61t-67 165q0 57 25.5 93.5z" />
    <glyph glyph-name="Agrave" unicode="&#xc0;" horiz-adv-x="784" 
d="M129 948h192l130 -153h-128zM329 748h126l320 -748h-163l-64 152h-312l-64 -152h-163zM498 267l-106 251l-105 -251h211z" />
    <glyph glyph-name="Aacute" unicode="&#xc1;" horiz-adv-x="784" 
d="M457 948h192l-194 -153h-128zM329 748h126l320 -748h-163l-64 152h-312l-64 -152h-163zM498 267l-106 251l-105 -251h211z" />
    <glyph glyph-name="Acircumflex" unicode="&#xc2;" horiz-adv-x="784" 
d="M392 872l-66 -77h-118l117 158h135l116 -158h-117zM329 748h126l320 -748h-163l-64 152h-312l-64 -152h-163zM498 267l-106 251l-105 -251h211z" />
    <glyph glyph-name="Atilde" unicode="&#xc3;" horiz-adv-x="784" 
d="M358 949q18 -8 39 -23q18 -12 29.5 -17.5t24.5 -5.5q21 0 31.5 12.5t10.5 34.5h79q1 -6 1 -17q0 -57 -29 -96.5t-77 -39.5q-24 0 -41.5 8.5t-39.5 23.5q-18 12 -29 17.5t-24 5.5q-22 0 -32 -13t-10 -35h-79q-1 6 -1 18q0 57 28.5 96t77.5 39q23 0 41 -8zM329 748h126
l320 -748h-163l-64 152h-312l-64 -152h-163zM498 267l-106 251l-105 -251h211z" />
    <glyph glyph-name="Adieresis" unicode="&#xc4;" horiz-adv-x="784" 
d="M352.5 931.5q22.5 -22.5 22.5 -54.5t-22.5 -54t-54.5 -22t-54 22t-22 54t22 54.5t54 22.5t54.5 -22.5zM329 748h126l320 -748h-163l-64 152h-312l-64 -152h-163zM498 267l-106 251l-105 -251h211zM432.5 931.5q22.5 22.5 53.5 22.5q32 0 55 -22.5t23 -54.5t-23 -54
t-55 -22t-54 22t-22 54t22.5 54.5z" />
    <glyph glyph-name="Aring" unicode="&#xc5;" horiz-adv-x="784" 
d="M472 976q33 -30 33 -77q0 -46 -33 -76t-80 -30q-48 0 -81 30t-33 76q0 47 32.5 77t81.5 30q47 0 80 -30zM329 748h126l320 -748h-163l-64 152h-312l-64 -152h-163zM498 267l-106 251l-105 -251h211zM360.5 869q12.5 -12 31.5 -12t31 12t12 30q0 19 -12 31t-31 12
t-31.5 -12t-12.5 -31q0 -18 12.5 -30z" />
    <glyph glyph-name="AE" unicode="&#xc6;" horiz-adv-x="1049" 
d="M662 138v62h-210l47 67h26v37l4 6h127l149 125v-89h67v-208h-210zM369 82l-19 -64h-26zM499 267l26 37v6h4l133 189h190v-42h-294l-33 -101v154l-160 -243h134zM452 200h-48l-35 -118zM525 310v46l-15 -46h15z" />
    <glyph glyph-name="Ccedilla" unicode="&#xc7;" horiz-adv-x="824" 
d="M317 -235l22 68q26 -14 56 -14q22 0 38 9.5t16 28.5q0 20 -15.5 30.5t-40.5 10.5q-23 0 -34 -5l32 99q-100 8 -177.5 55.5t-121 131.5t-43.5 195q0 118 49 205t135 133t196 46q90 0 166 -34.5t125 -98.5t62 -150l-155 -15q-15 81 -69 124t-135 43q-66 0 -116.5 -31
t-78 -88t-27.5 -134q0 -81 29 -138t79.5 -86t114.5 -29q80 0 134 42t69 120l155 -13q-13 -83 -59.5 -145t-117 -96.5t-156.5 -38.5l-11 -42q48 -2 82 -29.5t34 -74.5q0 -49 -40 -74.5t-96 -25.5q-61 0 -101 21z" />
    <glyph glyph-name="Egrave" unicode="&#xc8;" 
d="M57 948h192l129 -153h-128zM77 748h477v-131h-329v-169h286v-129h-286v-187h330v-132h-478v748z" />
    <glyph glyph-name="Eacute" unicode="&#xc9;" 
d="M385 948h191l-194 -153h-127zM77 748h477v-131h-329v-169h286v-129h-286v-187h330v-132h-478v748z" />
    <glyph glyph-name="Ecircumflex" unicode="&#xca;" 
d="M319 872l-66 -77h-118l117 158h136l116 -158h-118zM77 748h477v-131h-329v-169h286v-129h-286v-187h330v-132h-478v748z" />
    <glyph glyph-name="Edieresis" unicode="&#xcb;" 
d="M279.5 931.5q22.5 -22.5 22.5 -54.5t-22.5 -54t-54.5 -22t-54 22t-22 54t22.5 54.5t53.5 22.5q32 0 54.5 -22.5zM77 748h477v-131h-329v-169h286v-129h-286v-187h330v-132h-478v748zM360 931.5q22 22.5 54 22.5t54.5 -22.5t22.5 -54.5t-22.5 -54t-54.5 -22t-54 22t-22 54
t22 54.5z" />
    <glyph glyph-name="Igrave" unicode="&#xcc;" horiz-adv-x="302" 
d="M-108 948h192l130 -153h-128zM77 748h148v-748h-148v748z" />
    <glyph glyph-name="Iacute" unicode="&#xcd;" horiz-adv-x="302" 
d="M220 948h192l-194 -153h-128zM77 748h148v-748h-148v748z" />
    <glyph glyph-name="Icircumflex" unicode="&#xce;" horiz-adv-x="302" 
d="M155 872l-66 -77h-118l117 158h135l116 -158h-117zM77 748h148v-748h-148v748z" />
    <glyph glyph-name="Idieresis" unicode="&#xcf;" horiz-adv-x="302" 
d="M115.5 931.5q22.5 -22.5 22.5 -54.5t-22.5 -54t-54.5 -22t-54 22t-22 54t22 54.5t54 22.5t54.5 -22.5zM77 748h148v-748h-148v748zM195.5 931.5q22.5 22.5 53.5 22.5q32 0 55 -22.5t23 -54.5t-23 -54t-55 -22t-54 22t-22 54t22.5 54.5z" />
    <glyph glyph-name="Eth" unicode="&#xd0;" horiz-adv-x="804" 
d="M591 703q84 -45 131.5 -129.5t47.5 -199.5t-48 -199.5t-132 -129.5t-190 -45h-306v317h-86v113h86v318h306q107 0 191 -45zM401 128q103 0 162.5 63t59.5 183t-59.5 183t-161.5 63h-159v-190h113v-113h-113v-189h158z" />
    <glyph glyph-name="Ntilde" unicode="&#xd1;" horiz-adv-x="763" 
d="M340 949q18 -8 39 -23q18 -12 29.5 -17.5t24.5 -5.5q21 0 31.5 12.5t10.5 34.5h79q1 -6 1 -17q0 -57 -29 -96.5t-77 -39.5q-24 0 -41.5 8.5t-39.5 23.5q-18 12 -29 17.5t-24 5.5q-22 0 -32 -13t-10 -35h-79q-1 6 -1 18q0 57 28.5 96t77.5 39q23 0 41 -8zM77 748h125
l336 -475v475h148v-748h-126l-335 474v-474h-148v748z" />
    <glyph glyph-name="Ograve" unicode="&#xd2;" horiz-adv-x="874" 
d="M170 948h192l130 -153h-128zM99 577q50 87 138.5 134t200.5 47q111 0 198.5 -47t137.5 -134t50 -203t-50 -203t-137.5 -134t-198.5 -47q-112 0 -200.5 47t-138.5 134t-50 203t50 203zM231 239q30 -57 83.5 -87.5t123.5 -30.5q69 0 122.5 30.5t83 87.5t29.5 135t-29.5 135
t-83 87.5t-122.5 30.5q-70 0 -123.5 -30.5t-83.5 -87.5t-30 -135t30 -135z" />
    <glyph glyph-name="Oacute" unicode="&#xd3;" horiz-adv-x="874" 
d="M499 948h191l-194 -153h-128zM99 577q50 87 138.5 134t200.5 47q111 0 198.5 -47t137.5 -134t50 -203t-50 -203t-137.5 -134t-198.5 -47q-112 0 -200.5 47t-138.5 134t-50 203t50 203zM231 239q30 -57 83.5 -87.5t123.5 -30.5q69 0 122.5 30.5t83 87.5t29.5 135
t-29.5 135t-83 87.5t-122.5 30.5q-70 0 -123.5 -30.5t-83.5 -87.5t-30 -135t30 -135z" />
    <glyph glyph-name="Ocircumflex" unicode="&#xd4;" horiz-adv-x="874" 
d="M433 872l-66 -77h-118l117 158h135l116 -158h-117zM99 577q50 87 138.5 134t200.5 47q111 0 198.5 -47t137.5 -134t50 -203t-50 -203t-137.5 -134t-198.5 -47q-112 0 -200.5 47t-138.5 134t-50 203t50 203zM231 239q30 -57 83.5 -87.5t123.5 -30.5q69 0 122.5 30.5
t83 87.5t29.5 135t-29.5 135t-83 87.5t-122.5 30.5q-70 0 -123.5 -30.5t-83.5 -87.5t-30 -135t30 -135z" />
    <glyph glyph-name="Otilde" unicode="&#xd5;" horiz-adv-x="874" 
d="M399.5 949q17.5 -8 38.5 -23q18 -12 29.5 -17.5t24.5 -5.5q21 0 31.5 12.5t10.5 34.5h80q3 -40 -9 -75t-37.5 -56.5t-59.5 -21.5q-24 0 -41.5 8t-40.5 24q-17 12 -27.5 17.5t-23.5 5.5q-22 0 -32.5 -13t-10.5 -35h-79q-1 6 -1 18q0 56 29 95.5t78 39.5q23 0 40.5 -8z
M99 577q50 87 138.5 134t200.5 47q111 0 198.5 -47t137.5 -134t50 -203t-50 -203t-137.5 -134t-198.5 -47q-112 0 -200.5 47t-138.5 134t-50 203t50 203zM231 239q30 -57 83.5 -87.5t123.5 -30.5q69 0 122.5 30.5t83 87.5t29.5 135t-29.5 135t-83 87.5t-122.5 30.5
q-70 0 -123.5 -30.5t-83.5 -87.5t-30 -135t30 -135z" />
    <glyph glyph-name="Odieresis" unicode="&#xd6;" horiz-adv-x="874" 
d="M393.5 931.5q22.5 -22.5 22.5 -54.5t-22.5 -54t-54.5 -22t-54 22t-22 54t22.5 54.5t53.5 22.5q32 0 54.5 -22.5zM99 577q50 87 138.5 134t200.5 47q111 0 198.5 -47t137.5 -134t50 -203t-50 -203t-137.5 -134t-198.5 -47q-112 0 -200.5 47t-138.5 134t-50 203t50 203z
M231 239q30 -57 83.5 -87.5t123.5 -30.5q69 0 122.5 30.5t83 87.5t29.5 135t-29.5 135t-83 87.5t-122.5 30.5q-70 0 -123.5 -30.5t-83.5 -87.5t-30 -135t30 -135zM474.5 931.5q22.5 22.5 53.5 22.5q32 0 54.5 -22.5t22.5 -54.5t-22.5 -54t-54.5 -22t-54 22t-22 54t22.5 54.5
z" />
    <glyph glyph-name="multiply" unicode="&#xd7;" horiz-adv-x="547" 
d="M503 234l-93 -93l-136 136l-137 -136l-93 93l137 136l-136 137l93 93l136 -137l135 136l93 -94l-135 -135z" />
    <glyph glyph-name="Oslash" unicode="&#xd8;" horiz-adv-x="867" 
d="M796 530.5q28 -70.5 28 -156.5q0 -116 -50 -203t-137.5 -134t-198.5 -47q-108 0 -193 45l-64 -83l-91 69l61 80q-49 51 -75.5 120.5t-26.5 152.5q0 116 50 203t138.5 134t200.5 47q103 0 185 -41l62 81l91 -69l-59 -77q51 -51 79 -121.5zM244 222l293 383q-46 22 -99 22
q-70 0 -123.5 -30.5t-83.5 -87.5t-30 -135q0 -88 43 -152zM438 121q69 0 122.5 30.5t83 87.5t29.5 135q0 95 -49 158l-293 -384q45 -27 107 -27z" />
    <glyph glyph-name="Ugrave" unicode="&#xd9;" horiz-adv-x="776" 
d="M125 948h192l130 -153h-128zM71 748h148v-444q0 -89 43.5 -136t125.5 -47q81 0 124.5 47t43.5 136v444h148v-446q0 -148 -84.5 -230t-231.5 -82q-148 0 -232.5 82t-84.5 230v446z" />
    <glyph glyph-name="Uacute" unicode="&#xda;" horiz-adv-x="776" 
d="M453 948h191l-194 -153h-127zM71 748h148v-444q0 -89 43.5 -136t125.5 -47q81 0 124.5 47t43.5 136v444h148v-446q0 -148 -84.5 -230t-231.5 -82q-148 0 -232.5 82t-84.5 230v446z" />
    <glyph glyph-name="Ucircumflex" unicode="&#xdb;" horiz-adv-x="776" 
d="M388 872l-66 -77h-118l117 158h135l116 -158h-117zM71 748h148v-444q0 -89 43.5 -136t125.5 -47q81 0 124.5 47t43.5 136v444h148v-446q0 -148 -84.5 -230t-231.5 -82q-148 0 -232.5 82t-84.5 230v446z" />
    <glyph glyph-name="Udieresis" unicode="&#xdc;" horiz-adv-x="776" 
d="M347.5 931.5q22.5 -22.5 22.5 -54.5t-22.5 -54t-54.5 -22t-54 22t-22 54t22.5 54.5t53.5 22.5q32 0 54.5 -22.5zM71 748h148v-444q0 -89 43.5 -136t125.5 -47q81 0 124.5 47t43.5 136v444h148v-446q0 -148 -84.5 -230t-231.5 -82q-148 0 -232.5 82t-84.5 230v446z
M428.5 931.5q22.5 22.5 53.5 22.5q32 0 54.5 -22.5t22.5 -54.5t-22.5 -54t-54.5 -22t-54 22t-22 54t22.5 54.5z" />
    <glyph glyph-name="Yacute" unicode="&#xdd;" horiz-adv-x="739" 
d="M435 948h191l-194 -153h-127zM184 748l186 -311l185 311h172l-283 -458v-290h-148v290l-284 458h172z" />
    <glyph glyph-name="Thorn" unicode="&#xde;" horiz-adv-x="654" 
d="M510 624q54 -28 84.5 -82t30.5 -128q0 -75 -30.5 -129t-84.5 -82t-125 -28h-160v-175h-148v748h148v-96h160q71 0 125 -28zM366 306q48 0 78 28.5t30 79.5t-30 79t-78 28h-141v-215h141z" />
    <glyph glyph-name="germandbls" unicode="&#xdf;" horiz-adv-x="656" 
d="M431.5 763q53.5 -22 83 -61t29.5 -91q0 -37 -13 -60t-37 -46q-20 -20 -29 -34t-9 -35q0 -23 15 -41t46 -42t50 -43.5t33 -49.5t14 -70q0 -94 -65 -146t-166 -52q-60 0 -107 18l27 113q35 -14 67 -14q44 0 73 25t29 69q0 34 -20 58.5t-58 55.5q-39 31 -59 56t-20 60
q0 34 12.5 53.5t36.5 38.5q19 17 28 29.5t9 32.5q0 38 -23.5 59.5t-67.5 21.5q-45 0 -71 -27t-26 -76v-565h-141v569q0 65 29.5 114t82.5 75.5t123 26.5q71 0 124.5 -22z" />
    <glyph glyph-name="agrave" unicode="&#xe0;" horiz-adv-x="556" 
d="M94 789h158l86 -191h-109zM259 295l87 4v30q0 80 -69 80q-36 0 -56.5 -22t-20.5 -50l-141 4q0 46 26.5 89t76 69.5t113.5 26.5q104 0 158 -52.5t54 -153.5v-320h-133v50q-22 -28 -57.5 -44t-82.5 -16q-79 0 -124 38t-45 111q0 147 214 156zM250 95q41 0 68.5 24t27.5 69
v25l-77 -4q-84 -5 -84 -60q0 -54 65 -54z" />
    <glyph glyph-name="aacute" unicode="&#xe1;" horiz-adv-x="556" 
d="M317 789h158l-135 -191h-110zM259 295l87 4v30q0 80 -69 80q-36 0 -56.5 -22t-20.5 -50l-141 4q0 46 26.5 89t76 69.5t113.5 26.5q104 0 158 -52.5t54 -153.5v-320h-133v50q-22 -28 -57.5 -44t-82.5 -16q-79 0 -124 38t-45 111q0 147 214 156zM250 95q41 0 68.5 24
t27.5 69v25l-77 -4q-84 -5 -84 -60q0 -54 65 -54z" />
    <glyph glyph-name="acircumflex" unicode="&#xe2;" horiz-adv-x="556" 
d="M287 683l-67 -85h-117l117 177h135l117 -177h-117zM259 295l87 4v30q0 80 -69 80q-36 0 -56.5 -22t-20.5 -50l-141 4q0 46 26.5 89t76 69.5t113.5 26.5q104 0 158 -52.5t54 -153.5v-320h-133v50q-22 -28 -57.5 -44t-82.5 -16q-79 0 -124 38t-45 111q0 147 214 156z
M250 95q41 0 68.5 24t27.5 69v25l-77 -4q-84 -5 -84 -60q0 -54 65 -54z" />
    <glyph glyph-name="atilde" unicode="&#xe3;" horiz-adv-x="556" 
d="M252.5 750q17.5 -8 38.5 -23q18 -12 29.5 -17.5t24.5 -5.5q21 0 31.5 13t10.5 34h80q3 -40 -9 -75t-37.5 -56t-59.5 -21q-24 0 -40.5 7.5t-41.5 23.5q-17 12 -27.5 17.5t-23.5 5.5q-22 0 -32.5 -12.5t-10.5 -34.5h-79q-1 6 -1 18q0 56 29 95t78 39q23 0 40.5 -8zM259 295
l87 4v30q0 80 -69 80q-36 0 -56.5 -22t-20.5 -50l-141 4q0 46 26.5 89t76 69.5t113.5 26.5q104 0 158 -52.5t54 -153.5v-320h-133v50q-22 -28 -57.5 -44t-82.5 -16q-79 0 -124 38t-45 111q0 147 214 156zM250 95q41 0 68.5 24t27.5 69v25l-77 -4q-84 -5 -84 -60
q0 -54 65 -54z" />
    <glyph glyph-name="adieresis" unicode="&#xe4;" horiz-adv-x="556" 
d="M245.5 733q22.5 -22 22.5 -54t-22.5 -54t-54.5 -22t-54 22t-22 54t22 54t54 22t54.5 -22zM259 295l87 4v30q0 80 -69 80q-36 0 -56.5 -22t-20.5 -50l-141 4q0 46 26.5 89t76 69.5t113.5 26.5q104 0 158 -52.5t54 -153.5v-320h-133v50q-22 -28 -57.5 -44t-82.5 -16
q-79 0 -124 38t-45 111q0 147 214 156zM250 95q41 0 68.5 24t27.5 69v25l-77 -4q-84 -5 -84 -60q0 -54 65 -54zM326 733q22 22 54 22t54.5 -22t22.5 -54t-22.5 -54t-54.5 -22t-54 22t-22 54t22 54z" />
    <glyph glyph-name="aring" unicode="&#xe5;" horiz-adv-x="556" 
d="M379 786.5q37 -34.5 37 -86.5t-37 -86.5t-91 -34.5q-55 0 -92.5 34.5t-37.5 86.5t37.5 86.5t92.5 34.5q54 0 91 -34.5zM259 295l87 4v30q0 80 -69 80q-36 0 -56.5 -22t-20.5 -50l-141 4q0 46 26.5 89t76 69.5t113.5 26.5q104 0 158 -52.5t54 -153.5v-320h-133v50
q-22 -28 -57.5 -44t-82.5 -16q-79 0 -124 38t-45 111q0 147 214 156zM250 95q41 0 68.5 24t27.5 69v25l-77 -4q-84 -5 -84 -60q0 -54 65 -54zM252 667q13 -13 35 -13q21 0 34.5 13t13.5 33q0 21 -13.5 33.5t-34.5 12.5q-22 0 -35 -12.5t-13 -33.5q0 -20 13 -33z" />
    <glyph glyph-name="ae" unicode="&#xe6;" horiz-adv-x="900" 
d="M527 131q30 -32 82 -32q40 0 65.5 16.5t34.5 47.5l142 -7q-14 -76 -80 -121t-158 -45q-63 0 -115 22t-86 64q-33 -41 -80 -63.5t-104 -22.5q-86 0 -134.5 39t-48.5 111q0 81 58 116t156 39l87 4v23q0 40 -17 63.5t-53 23.5t-56 -22t-20 -50l-141 4q0 47 26 89.5t74 69
t112 26.5q107 0 158 -69q33 34 79 51.5t101 17.5q74 0 130 -31t86.5 -89t30.5 -137v-51h-360q1 -55 31 -87zM250 95q41 0 68.5 24t27.5 69v25l-77 -4q-84 -5 -84 -60q0 -54 65 -54zM714 305q-2 54 -28.5 84.5t-77.5 30.5q-49 0 -79 -30.5t-33 -84.5h218z" />
    <glyph glyph-name="ccedilla" unicode="&#xe7;" horiz-adv-x="591" 
d="M195 -234l22 68q26 -14 56 -14q22 0 38 9.5t16 28.5q0 20 -15.5 30.5t-40.5 10.5q-23 0 -34 -5l31 98q-100 12 -161.5 82.5t-61.5 183.5q0 83 34 143.5t94 92.5t136 32q95 0 162.5 -53.5t80.5 -144.5l-137 -13q-5 42 -33.5 66.5t-72.5 24.5q-55 0 -88.5 -39t-33.5 -109
q0 -69 34 -108.5t88 -39.5q44 0 72 23.5t34 63.5l137 -11q-14 -87 -75 -139t-151 -57l-10 -41q48 -2 82 -29.5t34 -74.5q0 -49 -40 -74.5t-96 -25.5q-61 0 -101 21z" />
    <glyph glyph-name="egrave" unicode="&#xe8;" horiz-adv-x="598" 
d="M269 789l86 -191h-110l-135 191h159zM78 400.5q33 60.5 92.5 93t136.5 32.5q74 0 129.5 -31t86 -89t30.5 -137v-51h-359q1 -55 30.5 -87t82.5 -32q39 0 65 17t35 47l141 -7q-14 -76 -80 -121t-157 -45q-78 0 -138.5 32.5t-94 93t-33.5 142.5t33 142.5zM412 305
q-2 53 -29 84t-78 31q-48 0 -78 -30.5t-33 -84.5h218z" />
    <glyph glyph-name="eacute" unicode="&#xe9;" horiz-adv-x="598" 
d="M332 789h159l-135 -191h-110zM78 400.5q33 60.5 92.5 93t136.5 32.5q74 0 129.5 -31t86 -89t30.5 -137v-51h-359q1 -55 30.5 -87t82.5 -32q39 0 65 17t35 47l141 -7q-14 -76 -80 -121t-157 -45q-78 0 -138.5 32.5t-94 93t-33.5 142.5t33 142.5zM412 305q-2 53 -29 84
t-78 31q-48 0 -78 -30.5t-33 -84.5h218z" />
    <glyph glyph-name="ecircumflex" unicode="&#xea;" horiz-adv-x="598" 
d="M236 775h135l117 -177h-117l-68 85l-66 -85h-118zM78 400.5q33 60.5 92.5 93t136.5 32.5q74 0 129.5 -31t86 -89t30.5 -137v-51h-359q1 -55 30.5 -87t82.5 -32q39 0 65 17t35 47l141 -7q-14 -76 -80 -121t-157 -45q-78 0 -138.5 32.5t-94 93t-33.5 142.5t33 142.5z
M412 305q-2 53 -29 84t-78 31q-48 0 -78 -30.5t-33 -84.5h218z" />
    <glyph glyph-name="edieresis" unicode="&#xeb;" horiz-adv-x="598" 
d="M154 625q-22 22 -22 54t22 54t54 22t54.5 -22t22.5 -54t-22.5 -54t-54.5 -22t-54 22zM78 400.5q33 60.5 92.5 93t136.5 32.5q74 0 129.5 -31t86 -89t30.5 -137v-51h-359q1 -55 30.5 -87t82.5 -32q39 0 65 17t35 47l141 -7q-14 -76 -80 -121t-157 -45q-78 0 -138.5 32.5
t-94 93t-33.5 142.5t33 142.5zM412 305q-2 53 -29 84t-78 31q-48 0 -78 -30.5t-33 -84.5h218zM342 733q22 22 54 22t55 -22t23 -54t-23 -54t-55 -22t-54 22t-22 54t22 54z" />
    <glyph glyph-name="igrave" unicode="&#xec;" horiz-adv-x="288" 
d="M-47 789h159l86 -191h-110zM74 516h140v-516h-140v516z" />
    <glyph glyph-name="iacute" unicode="&#xed;" horiz-adv-x="288" 
d="M176 789h158l-135 -191h-110zM74 516h140v-516h-140v516z" />
    <glyph glyph-name="icircumflex" unicode="&#xee;" horiz-adv-x="288" 
d="M147 683l-67 -85h-118l117 177h136l116 -177h-117zM74 516h140v-516h-140v516z" />
    <glyph glyph-name="idieresis" unicode="&#xef;" horiz-adv-x="288" 
d="M104.5 733q22.5 -22 22.5 -54t-22.5 -54t-54.5 -22t-54 22t-22 54t22 54t54 22t54.5 -22zM74 516h140v-516h-140v516zM185 733q22 22 54 22t54.5 -22t22.5 -54t-22.5 -54t-54.5 -22t-54 22t-22 54t22 54z" />
    <glyph glyph-name="eth" unicode="&#xf0;" horiz-adv-x="608" 
d="M523 505.5q36 -104.5 36 -237.5t-70.5 -205.5t-190.5 -72.5q-69 0 -127 29.5t-92 85.5t-34 132q0 75 34 130t91.5 84t126.5 29q59 0 106 -28q-23 92 -72 141l-75 -67l-63 63l64 55q-57 28 -127 29v104q123 0 211 -50l83 74l64 -60l-73 -65q72 -66 108 -170.5zM216 139.5
q34 -36.5 88 -36.5q53 0 85.5 37.5t32.5 96.5q0 62 -31.5 98t-86.5 36q-54 0 -88 -36.5t-34 -97.5t34 -97.5z" />
    <glyph glyph-name="ntilde" unicode="&#xf1;" horiz-adv-x="617" 
d="M285.5 750q17.5 -8 39.5 -23q16 -11 28 -17t25 -6q41 0 43 47h79q1 -6 1 -17q0 -56 -29.5 -95.5t-77.5 -39.5q-23 0 -41 8t-40 23q-16 12 -27.5 17.5t-24.5 5.5q-42 0 -42 -47h-80q-5 62 24.5 107t81.5 45q23 0 40.5 -8zM74 516h132v-53q17 27 54 45t88 18
q90 0 145 -54.5t55 -151.5v-320h-140v289q0 50 -25.5 78.5t-69.5 28.5t-71.5 -30t-27.5 -78v-288h-140v516z" />
    <glyph glyph-name="ograve" unicode="&#xf2;" horiz-adv-x="638" 
d="M124 789h159l86 -191h-110zM80.5 398.5q35.5 60.5 97.5 94t140 33.5q79 0 141 -33.5t97.5 -94t35.5 -140.5t-35.5 -141t-97.5 -94t-141 -33q-78 0 -140.5 33t-97.5 94t-35 141t35.5 140.5zM223.5 150q36.5 -40 94.5 -40q60 0 96.5 39.5t36.5 108.5t-36.5 108.5
t-96.5 39.5q-58 0 -94.5 -40t-36.5 -108t36.5 -108z" />
    <glyph glyph-name="oacute" unicode="&#xf3;" horiz-adv-x="638" 
d="M347 789h159l-135 -191h-110zM80.5 398.5q35.5 60.5 97.5 94t140 33.5q79 0 141 -33.5t97.5 -94t35.5 -140.5t-35.5 -141t-97.5 -94t-141 -33q-78 0 -140.5 33t-97.5 94t-35 141t35.5 140.5zM223.5 150q36.5 -40 94.5 -40q60 0 96.5 39.5t36.5 108.5t-36.5 108.5
t-96.5 39.5q-58 0 -94.5 -40t-36.5 -108t36.5 -108z" />
    <glyph glyph-name="ocircumflex" unicode="&#xf4;" horiz-adv-x="638" 
d="M318 683l-67 -85h-118l117 177h136l116 -177h-117zM80.5 398.5q35.5 60.5 97.5 94t140 33.5q79 0 141 -33.5t97.5 -94t35.5 -140.5t-35.5 -141t-97.5 -94t-141 -33q-78 0 -140.5 33t-97.5 94t-35 141t35.5 140.5zM223.5 150q36.5 -40 94.5 -40q60 0 96.5 39.5t36.5 108.5
t-36.5 108.5t-96.5 39.5q-58 0 -94.5 -40t-36.5 -108t36.5 -108z" />
    <glyph glyph-name="otilde" unicode="&#xf5;" horiz-adv-x="638" 
d="M283 750q18 -8 39 -23q18 -12 29.5 -17.5t24.5 -5.5q21 0 31.5 13t10.5 34h79q1 -6 1 -17q0 -56 -29 -95.5t-77 -39.5q-24 0 -42 8t-39 23q-18 12 -29 17.5t-24 5.5q-42 0 -42 -47h-79q-1 6 -1 18q0 56 28.5 95t77.5 39q23 0 41 -8zM80.5 398.5q35.5 60.5 97.5 94
t140 33.5q79 0 141 -33.5t97.5 -94t35.5 -140.5t-35.5 -141t-97.5 -94t-141 -33q-78 0 -140.5 33t-97.5 94t-35 141t35.5 140.5zM223.5 150q36.5 -40 94.5 -40q60 0 96.5 39.5t36.5 108.5t-36.5 108.5t-96.5 39.5q-58 0 -94.5 -40t-36.5 -108t36.5 -108z" />
    <glyph glyph-name="odieresis" unicode="&#xf6;" horiz-adv-x="638" 
d="M276.5 733q22.5 -22 22.5 -54t-22.5 -54t-54.5 -22t-54 22t-22 54t22 54t54 22t54.5 -22zM80.5 398.5q35.5 60.5 97.5 94t140 33.5q79 0 141 -33.5t97.5 -94t35.5 -140.5t-35.5 -141t-97.5 -94t-141 -33q-78 0 -140.5 33t-97.5 94t-35 141t35.5 140.5zM223.5 150
q36.5 -40 94.5 -40q60 0 96.5 39.5t36.5 108.5t-36.5 108.5t-96.5 39.5q-58 0 -94.5 -40t-36.5 -108t36.5 -108zM356 733q22 22 54 22t55 -22t23 -54t-23 -54t-55 -22t-54 22t-22 54t22 54z" />
    <glyph glyph-name="divide" unicode="&#xf7;" horiz-adv-x="547" 
d="M334.5 671q25.5 -25 25.5 -60q0 -36 -25.5 -61t-61.5 -25q-35 0 -59.5 25t-24.5 61q0 35 24.5 60t59.5 25q36 0 61.5 -25zM31 437h485v-131h-485v131zM213.5 192.5q24.5 24.5 59.5 24.5q36 0 61.5 -24.5t25.5 -60.5q0 -35 -25.5 -60t-61.5 -25q-35 0 -59.5 25t-24.5 60
q0 36 24.5 60.5z" />
    <glyph glyph-name="oslash" unicode="&#xf8;" horiz-adv-x="638" 
d="M574 362.5q18 -47.5 18 -104.5q0 -80 -35.5 -141t-97.5 -94t-141 -33q-69 0 -120 25l-46 -60l-77 57l43 56q-73 75 -73 190q0 80 35.5 140.5t97.5 94t140 33.5q68 0 125 -26l37 50l78 -57l-36 -48q34 -35 52 -82.5zM207 188l156 207q-20 11 -45 11q-58 0 -94.5 -40
t-36.5 -108q0 -40 20 -70zM318 110q60 0 96.5 39.5t36.5 108.5q0 37 -20 67l-154 -205q20 -10 41 -10z" />
    <glyph glyph-name="ugrave" unicode="&#xf9;" 
d="M108 789h158l86 -191h-109zM69 516h140v-295q0 -100 86 -100q44 0 68 27t24 73v295h140v-516h-132v53q-17 -27 -50.5 -45t-84.5 -18q-90 0 -140.5 52t-50.5 147v327z" />
    <glyph glyph-name="uacute" unicode="&#xfa;" 
d="M331 789h158l-135 -191h-110zM69 516h140v-295q0 -100 86 -100q44 0 68 27t24 73v295h140v-516h-132v53q-17 -27 -50.5 -45t-84.5 -18q-90 0 -140.5 52t-50.5 147v327z" />
    <glyph glyph-name="ucircumflex" unicode="&#xfb;" 
d="M301 683l-67 -85h-117l117 177h135l117 -177h-117zM69 516h140v-295q0 -100 86 -100q44 0 68 27t24 73v295h140v-516h-132v53q-17 -27 -50.5 -45t-84.5 -18q-90 0 -140.5 52t-50.5 147v327z" />
    <glyph glyph-name="udieresis" unicode="&#xfc;" 
d="M259.5 733q22.5 -22 22.5 -54t-22.5 -54t-54.5 -22t-54 22t-22 54t22 54t54 22t54.5 -22zM69 516h140v-295q0 -100 86 -100q44 0 68 27t24 73v295h140v-516h-132v53q-17 -27 -50.5 -45t-84.5 -18q-90 0 -140.5 52t-50.5 147v327zM340 733q22 22 54 22t54.5 -22t22.5 -54
t-22.5 -54t-54.5 -22t-54 22t-22 54t22 54z" />
    <glyph glyph-name="yacute" unicode="&#xfd;" horiz-adv-x="569" 
d="M314 789h158l-134 -191h-110zM163 516l122 -315l121 315h156l-330 -771h-154l131 299l-201 472h155z" />
    <glyph glyph-name="thorn" unicode="&#xfe;" horiz-adv-x="656" 
d="M273.5 510q38.5 16 88.5 16q72 0 128.5 -33.5t88.5 -94t32 -140.5t-32 -140.5t-88.5 -94t-128.5 -33.5q-50 0 -88.5 16t-59.5 43v-304h-140v1032h140v-310q21 27 59.5 43zM248.5 146.5q34.5 -36.5 91.5 -36.5q58 0 94 39t36 108q0 70 -36 109.5t-94 39.5
q-57 0 -91.5 -36.5t-34.5 -99.5v-24q0 -63 34.5 -99.5z" />
    <glyph glyph-name="ydieresis" unicode="&#xff;" horiz-adv-x="569" 
d="M242.5 733q22.5 -22 22.5 -54t-22.5 -54t-54.5 -22t-54 22t-22 54t22 54t54 22t54.5 -22zM163 516l122 -315l121 315h156l-330 -771h-154l131 299l-201 472h155zM323 733q22 22 54 22t54.5 -22t22.5 -54t-22.5 -54t-54.5 -22t-54 22t-22 54t22 54z" />
    <glyph glyph-name="Amacron" unicode="&#x100;" horiz-adv-x="784" 
d="M244 924h297v-107h-297v107zM329 748h126l320 -748h-163l-64 152h-312l-64 -152h-163zM498 267l-106 251l-105 -251h211z" />
    <glyph glyph-name="amacron" unicode="&#x101;" horiz-adv-x="556" 
d="M139 728h297v-108h-297v108zM259 295l87 4v30q0 80 -69 80q-36 0 -56.5 -22t-20.5 -50l-141 4q0 46 26.5 89t76 69.5t113.5 26.5q104 0 158 -52.5t54 -153.5v-320h-133v50q-22 -28 -57.5 -44t-82.5 -16q-79 0 -124 38t-45 111q0 147 214 156zM250 95q41 0 68.5 24
t27.5 69v25l-77 -4q-84 -5 -84 -60q0 -54 65 -54z" />
    <glyph glyph-name="Abreve" unicode="&#x102;" horiz-adv-x="784" 
d="M525 838.5q-50 -41.5 -133 -41.5t-133 41.5t-50 120.5h115q0 -30 18.5 -47.5t49.5 -17.5q32 0 50.5 17.5t18.5 47.5h114q0 -79 -50 -120.5zM329 748h126l320 -748h-163l-64 152h-312l-64 -152h-163zM498 267l-106 251l-105 -251h211z" />
    <glyph glyph-name="abreve" unicode="&#x103;" horiz-adv-x="556" 
d="M420 634.5q-50 -41.5 -133 -41.5t-133 41.5t-50 120.5h114q0 -30 18.5 -47.5t50.5 -17.5t50.5 17.5t18.5 47.5h114q0 -79 -50 -120.5zM259 295l87 4v30q0 80 -69 80q-36 0 -56.5 -22t-20.5 -50l-141 4q0 46 26.5 89t76 69.5t113.5 26.5q104 0 158 -52.5t54 -153.5v-320
h-133v50q-22 -28 -57.5 -44t-82.5 -16q-79 0 -124 38t-45 111q0 147 214 156zM250 95q41 0 68.5 24t27.5 69v25l-77 -4q-84 -5 -84 -60q0 -54 65 -54z" />
    <glyph glyph-name="Aogonek" unicode="&#x104;" horiz-adv-x="784" 
d="M537.5 -167.5q-34.5 23.5 -34.5 70.5q0 39 26.5 66t76.5 47l-58 136h-312l-64 -152h-163l320 748h126l320 -748h-92q-39 -20 -57 -38t-18 -43q0 -17 11.5 -26.5t30.5 -9.5q26 0 50 11l13 -68q-41 -17 -86 -17q-55 0 -89.5 23.5zM498 267l-106 251l-105 -251h211z" />
    <glyph glyph-name="aogonek" unicode="&#x105;" horiz-adv-x="556" 
d="M313.5 -166.5q-34.5 23.5 -34.5 70.5q0 59 75 100v46q-22 -28 -57.5 -44t-82.5 -16q-79 0 -124 38t-45 111q0 147 214 156l87 4v30q0 80 -69 80q-36 0 -56.5 -22t-20.5 -50l-141 4q0 46 26.5 89t76 69.5t113.5 26.5q104 0 158 -52.5t54 -153.5v-320h-29q-38 -20 -56 -38
t-18 -42q0 -17 11.5 -26.5t31.5 -9.5q25 0 50 11l12 -68q-39 -17 -86 -17q-55 0 -89.5 23.5zM250 95q41 0 68.5 24t27.5 69v25l-77 -4q-84 -5 -84 -60q0 -54 65 -54z" />
    <glyph glyph-name="Cacute" unicode="&#x106;" horiz-adv-x="824" 
d="M485 948h192l-194 -153h-128zM98 579q49 87 135 133t196 46q90 0 166 -34.5t125 -98.5t62 -150l-155 -15q-15 81 -69 124t-135 43q-66 0 -116.5 -31t-78 -88t-27.5 -134q0 -81 29 -138t79.5 -86t114.5 -29q80 0 134 42t69 120l155 -13q-14 -86 -63 -149.5t-124 -97
t-165 -33.5q-110 0 -196.5 46t-135.5 133t-49 205t49 205z" />
    <glyph glyph-name="cacute" unicode="&#x107;" horiz-adv-x="591" 
d="M331 789h158l-135 -191h-110zM79 401.5q34 60.5 94 92.5t136 32q95 0 162.5 -53.5t80.5 -144.5l-137 -13q-5 42 -33.5 66.5t-72.5 24.5q-55 0 -88.5 -39t-33.5 -109q0 -69 34 -108.5t88 -39.5q44 0 72 23.5t34 63.5l137 -11q-15 -91 -81 -143.5t-162 -52.5q-76 0 -136 32
t-94 92.5t-34 143.5t34 143.5z" />
    <glyph glyph-name="Ccircumflex" unicode="&#x108;" horiz-adv-x="824" 
d="M420 872l-66 -77h-118l117 158h135l116 -158h-117zM98 579q49 87 135 133t196 46q90 0 166 -34.5t125 -98.5t62 -150l-155 -15q-15 81 -69 124t-135 43q-66 0 -116.5 -31t-78 -88t-27.5 -134q0 -81 29 -138t79.5 -86t114.5 -29q80 0 134 42t69 120l155 -13
q-14 -86 -63 -149.5t-124 -97t-165 -33.5q-110 0 -196.5 46t-135.5 133t-49 205t49 205z" />
    <glyph glyph-name="ccircumflex" unicode="&#x109;" horiz-adv-x="591" 
d="M301 683l-67 -85h-117l117 177h135l117 -177h-117zM79 401.5q34 60.5 94 92.5t136 32q95 0 162.5 -53.5t80.5 -144.5l-137 -13q-5 42 -33.5 66.5t-72.5 24.5q-55 0 -88.5 -39t-33.5 -109q0 -69 34 -108.5t88 -39.5q44 0 72 23.5t34 63.5l137 -11q-15 -91 -81 -143.5
t-162 -52.5q-76 0 -136 32t-94 92.5t-34 143.5t34 143.5z" />
    <glyph glyph-name="Cdotaccent" unicode="&#x10a;" horiz-adv-x="824" 
d="M480 943.5q25 -25.5 25 -60.5t-25 -59.5t-60 -24.5q-36 0 -60.5 24.5t-24.5 59.5t25 60.5t60 25.5t60 -25.5zM98 579q49 87 135 133t196 46q90 0 166 -34.5t125 -98.5t62 -150l-155 -15q-15 81 -69 124t-135 43q-66 0 -116.5 -31t-78 -88t-27.5 -134q0 -81 29 -138
t79.5 -86t114.5 -29q80 0 134 42t69 120l155 -13q-14 -86 -63 -149.5t-124 -97t-165 -33.5q-110 0 -196.5 46t-135.5 133t-49 205t49 205z" />
    <glyph glyph-name="cdotaccent" unicode="&#x10b;" horiz-adv-x="591" 
d="M362 741.5q25 -25.5 25 -60.5t-25 -59.5t-61 -24.5q-35 0 -59.5 24.5t-24.5 59.5t25 60.5t59 25.5q36 0 61 -25.5zM79 401.5q34 60.5 94 92.5t136 32q95 0 162.5 -53.5t80.5 -144.5l-137 -13q-5 42 -33.5 66.5t-72.5 24.5q-55 0 -88.5 -39t-33.5 -109q0 -69 34 -108.5
t88 -39.5q44 0 72 23.5t34 63.5l137 -11q-15 -91 -81 -143.5t-162 -52.5q-76 0 -136 32t-94 92.5t-34 143.5t34 143.5z" />
    <glyph glyph-name="Ccaron" unicode="&#x10c;" horiz-adv-x="824" 
d="M236 953h118l66 -76l67 76h117l-116 -158h-135zM98 579q49 87 135 133t196 46q90 0 166 -34.5t125 -98.5t62 -150l-155 -15q-15 81 -69 124t-135 43q-66 0 -116.5 -31t-78 -88t-27.5 -134q0 -81 29 -138t79.5 -86t114.5 -29q80 0 134 42t69 120l155 -13
q-14 -86 -63 -149.5t-124 -97t-165 -33.5q-110 0 -196.5 46t-135.5 133t-49 205t49 205z" />
    <glyph glyph-name="ccaron" unicode="&#x10d;" horiz-adv-x="591" 
d="M117 772h117l67 -84l68 84h117l-117 -176h-135zM79 401.5q34 60.5 94 92.5t136 32q95 0 162.5 -53.5t80.5 -144.5l-137 -13q-5 42 -33.5 66.5t-72.5 24.5q-55 0 -88.5 -39t-33.5 -109q0 -69 34 -108.5t88 -39.5q44 0 72 23.5t34 63.5l137 -11q-15 -91 -81 -143.5
t-162 -52.5q-76 0 -136 32t-94 92.5t-34 143.5t34 143.5z" />
    <glyph glyph-name="Dcaron" unicode="&#x10e;" horiz-adv-x="802" 
d="M164 953h118l66 -76l67 76h117l-116 -158h-135zM77 748h306q106 0 190 -45t132 -129.5t48 -199.5t-48 -199.5t-132.5 -129.5t-190.5 -45h-305v748zM383 128q103 0 163 63t60 183t-59.5 183t-162.5 63h-159v-492h158z" />
    <glyph glyph-name="dcaron" unicode="&#x10f;" horiz-adv-x="810" 
d="M165.5 23.5q-56.5 33.5 -88.5 94t-32 139.5q0 80 32 141t88.5 94.5t128.5 33.5q50 0 89 -16t60 -42v309h140v-777h-133v55q-22 -29 -62 -47t-94 -18q-72 0 -128.5 33.5zM223 149q36 -39 94 -39q56 0 90.5 36.5t34.5 99.5v24q0 63 -34.5 99.5t-90.5 36.5q-58 0 -94 -39
t-36 -109t36 -109zM654.5 748q23.5 25 59.5 25q37 0 58 -26.5t21 -68.5q0 -147 -149 -225v59q51 34 65 91q-33 3 -55.5 27t-22.5 58q0 35 23.5 60z" />
    <glyph glyph-name="Dcroat" unicode="&#x110;" horiz-adv-x="804" 
d="M591 703q84 -45 131.5 -129.5t47.5 -199.5t-48 -199.5t-132 -129.5t-190 -45h-306v317h-86v113h86v318h306q107 0 191 -45zM401 128q103 0 162.5 63t59.5 183t-59.5 183t-161.5 63h-159v-190h113v-113h-113v-189h158z" />
    <glyph glyph-name="dcroat" unicode="&#x111;" horiz-adv-x="654" 
d="M583 0h-133v55q-22 -29 -62 -47t-94 -18q-72 0 -128.5 33.5t-88.5 94t-32 139.5q0 80 32 141t88.5 94.5t128.5 33.5q50 0 89 -16t60 -42v129h-86v108h86v72h140v-72h71v-108h-71v-597zM223 149q36 -39 94 -39q56 0 90.5 36.5t34.5 99.5v24q0 63 -34.5 99.5t-90.5 36.5
q-58 0 -94 -39t-36 -109t36 -109z" />
    <glyph glyph-name="Emacron" unicode="&#x112;" 
d="M171 924h297v-107h-297v107zM77 748h477v-131h-329v-169h286v-129h-286v-187h330v-132h-478v748z" />
    <glyph glyph-name="emacron" unicode="&#x113;" horiz-adv-x="598" 
d="M155 728h297v-108h-297v108zM78 400.5q33 60.5 92.5 93t136.5 32.5q74 0 129.5 -31t86 -89t30.5 -137v-51h-359q1 -55 30.5 -87t82.5 -32q39 0 65 17t35 47l141 -7q-14 -76 -80 -121t-157 -45q-78 0 -138.5 32.5t-94 93t-33.5 142.5t33 142.5zM412 305q-2 53 -29 84
t-78 31q-48 0 -78 -30.5t-33 -84.5h218z" />
    <glyph glyph-name="Ebreve" unicode="&#x114;" 
d="M452.5 838.5q-50.5 -41.5 -133.5 -41.5t-132.5 41.5t-49.5 120.5h114q0 -30 18.5 -47.5t49.5 -17.5q32 0 50.5 17.5t18.5 47.5h115q0 -79 -50.5 -120.5zM77 748h477v-131h-329v-169h286v-129h-286v-187h330v-132h-478v748z" />
    <glyph glyph-name="ebreve" unicode="&#x115;" horiz-adv-x="598" 
d="M170.5 634.5q-49.5 41.5 -49.5 120.5h114q0 -30 18.5 -47.5t49.5 -17.5q32 0 50.5 17.5t18.5 47.5h115q0 -79 -50.5 -120.5t-133.5 -41.5t-132.5 41.5zM78 400.5q33 60.5 92.5 93t136.5 32.5q74 0 129.5 -31t86 -89t30.5 -137v-51h-359q1 -55 30.5 -87t82.5 -32
q39 0 65 17t35 47l141 -7q-14 -76 -80 -121t-157 -45q-78 0 -138.5 32.5t-94 93t-33.5 142.5t33 142.5zM412 305q-2 53 -29 84t-78 31q-48 0 -78 -30.5t-33 -84.5h218z" />
    <glyph glyph-name="Edotaccent" unicode="&#x116;" 
d="M380.5 944q24.5 -25 24.5 -61q0 -35 -24.5 -59.5t-60.5 -24.5q-35 0 -60 24.5t-25 59.5t25 60.5t60 25.5q36 0 60.5 -25zM77 748h477v-131h-329v-169h286v-129h-286v-187h330v-132h-478v748z" />
    <glyph glyph-name="edotaccent" unicode="&#x117;" horiz-adv-x="598" 
d="M244 621.5q-25 24.5 -25 59.5t25 60.5t60 25.5q36 0 60.5 -25t24.5 -61q0 -35 -24.5 -59.5t-60.5 -24.5q-35 0 -60 24.5zM78 400.5q33 60.5 92.5 93t136.5 32.5q74 0 129.5 -31t86 -89t30.5 -137v-51h-359q1 -55 30.5 -87t82.5 -32q39 0 65 17t35 47l141 -7
q-14 -76 -80 -121t-157 -45q-78 0 -138.5 32.5t-94 93t-33.5 142.5t33 142.5zM412 305q-2 53 -29 84t-78 31q-48 0 -78 -30.5t-33 -84.5h218z" />
    <glyph glyph-name="Eogonek" unicode="&#x118;" 
d="M405.5 -167.5q-34.5 23.5 -34.5 70.5q0 58 69 97h-363v748h477v-131h-329v-169h286v-129h-286v-187h330v-132h-5q-39 -20 -56.5 -38t-17.5 -43q0 -17 11.5 -26.5t30.5 -9.5q26 0 50 11l13 -68q-41 -17 -86 -17q-55 0 -89.5 23.5z" />
    <glyph glyph-name="eogonek" unicode="&#x119;" horiz-adv-x="598" 
d="M224.5 131q29.5 -32 82.5 -32q39 0 65 17t35 47l141 -7q-11 -60 -55.5 -101.5t-110.5 -56.5q-37 -21 -54.5 -38.5t-17.5 -40.5q0 -18 11.5 -27.5t30.5 -9.5q28 0 50 12l13 -69q-41 -17 -86 -17q-55 0 -89.5 23.5t-34.5 70.5q0 54 59 91q-99 14 -159 84t-60 181
q0 82 33 142.5t92.5 93t136.5 32.5q74 0 129.5 -31t86 -89t30.5 -137v-51h-359q1 -55 30.5 -87zM412 305q-2 53 -29 84t-78 31q-48 0 -78 -30.5t-33 -84.5h218z" />
    <glyph glyph-name="Ecaron" unicode="&#x11a;" 
d="M135 953h118l66 -76l67 76h118l-116 -158h-136zM77 748h477v-131h-329v-169h286v-129h-286v-187h330v-132h-478v748z" />
    <glyph glyph-name="ecaron" unicode="&#x11b;" horiz-adv-x="598" 
d="M237 772l66 -84l68 84h117l-117 -176h-135l-117 176h118zM78 400.5q33 60.5 92.5 93t136.5 32.5q74 0 129.5 -31t86 -89t30.5 -137v-51h-359q1 -55 30.5 -87t82.5 -32q39 0 65 17t35 47l141 -7q-14 -76 -80 -121t-157 -45q-78 0 -138.5 32.5t-94 93t-33.5 142.5t33 142.5
zM412 305q-2 53 -29 84t-78 31q-48 0 -78 -30.5t-33 -84.5h218z" />
    <glyph glyph-name="Gcircumflex" unicode="&#x11c;" horiz-adv-x="833" 
d="M354 953h135l116 -158h-117l-67 77l-66 -77h-118zM98 579q49 87 135 133t195 46q132 0 225.5 -67.5t122.5 -189.5l-154 -25q-15 70 -66.5 110.5t-129.5 40.5q-105 0 -165 -64.5t-60 -188.5t60.5 -188.5t164.5 -64.5q75 0 126 38t66 115h-190v132h355v-49q0 -110 -43 -193
t-123.5 -128.5t-188.5 -45.5q-109 0 -195 46t-135 133t-49 205t49 205z" />
    <glyph glyph-name="gcircumflex" unicode="&#x11d;" horiz-adv-x="647" 
d="M318 683l-67 -85h-118l117 177h136l116 -177h-117zM77 398.5q32 60.5 88.5 94t128.5 33.5q54 0 94 -18t62 -47v55h133v-536q0 -74 -32 -129t-91 -85t-137 -30q-117 0 -183.5 52.5t-81.5 143.5l140 5q5 -38 37 -60.5t82 -22.5q58 0 92 30t34 86v78q-22 -26 -60.5 -42
t-88.5 -16q-72 0 -128.5 33.5t-88.5 94t-32 140.5t32 140.5zM223 149q36 -39 94 -39q56 0 90.5 36.5t34.5 99.5v24q0 63 -34.5 99.5t-90.5 36.5q-58 0 -94 -39.5t-36 -109.5q0 -69 36 -108z" />
    <glyph glyph-name="Gbreve" unicode="&#x11e;" horiz-adv-x="833" 
d="M288 838.5q-50 41.5 -50 120.5h115q0 -30 18.5 -47.5t49.5 -17.5q32 0 50.5 17.5t18.5 47.5h114q0 -79 -50 -120.5t-133 -41.5t-133 41.5zM98 579q49 87 135 133t195 46q132 0 225.5 -67.5t122.5 -189.5l-154 -25q-15 70 -66.5 110.5t-129.5 40.5q-105 0 -165 -64.5
t-60 -188.5t60.5 -188.5t164.5 -64.5q75 0 126 38t66 115h-190v132h355v-49q0 -110 -43 -193t-123.5 -128.5t-188.5 -45.5q-109 0 -195 46t-135 133t-49 205t49 205z" />
    <glyph glyph-name="gbreve" unicode="&#x11f;" horiz-adv-x="647" 
d="M451 634.5q-50 -41.5 -133 -41.5t-133 41.5t-50 120.5h114q0 -30 18.5 -47.5t50.5 -17.5t50.5 17.5t18.5 47.5h114q0 -79 -50 -120.5zM77 398.5q32 60.5 88.5 94t128.5 33.5q54 0 94 -18t62 -47v55h133v-536q0 -74 -32 -129t-91 -85t-137 -30q-117 0 -183.5 52.5
t-81.5 143.5l140 5q5 -38 37 -60.5t82 -22.5q58 0 92 30t34 86v78q-22 -26 -60.5 -42t-88.5 -16q-72 0 -128.5 33.5t-88.5 94t-32 140.5t32 140.5zM223 149q36 -39 94 -39q56 0 90.5 36.5t34.5 99.5v24q0 63 -34.5 99.5t-90.5 36.5q-58 0 -94 -39.5t-36 -109.5
q0 -69 36 -108z" />
    <glyph glyph-name="Gdotaccent" unicode="&#x120;" horiz-adv-x="833" 
d="M361.5 823.5q-24.5 24.5 -24.5 59.5t25 60.5t60 25.5t60 -25.5t25 -60.5t-25 -59.5t-60 -24.5q-36 0 -60.5 24.5zM98 579q49 87 135 133t195 46q132 0 225.5 -67.5t122.5 -189.5l-154 -25q-15 70 -66.5 110.5t-129.5 40.5q-105 0 -165 -64.5t-60 -188.5t60.5 -188.5
t164.5 -64.5q75 0 126 38t66 115h-190v132h355v-49q0 -110 -43 -193t-123.5 -128.5t-188.5 -45.5q-109 0 -195 46t-135 133t-49 205t49 205z" />
    <glyph glyph-name="gdotaccent" unicode="&#x121;" horiz-adv-x="647" 
d="M379 741.5q25 -25.5 25 -60.5t-25 -59.5t-61 -24.5q-35 0 -59.5 24.5t-24.5 59.5t25 60.5t59 25.5q36 0 61 -25.5zM77 398.5q32 60.5 88.5 94t128.5 33.5q54 0 94 -18t62 -47v55h133v-536q0 -74 -32 -129t-91 -85t-137 -30q-117 0 -183.5 52.5t-81.5 143.5l140 5
q5 -38 37 -60.5t82 -22.5q58 0 92 30t34 86v78q-22 -26 -60.5 -42t-88.5 -16q-72 0 -128.5 33.5t-88.5 94t-32 140.5t32 140.5zM223 149q36 -39 94 -39q56 0 90.5 36.5t34.5 99.5v24q0 63 -34.5 99.5t-90.5 36.5q-58 0 -94 -39.5t-36 -109.5q0 -69 36 -108z" />
    <glyph glyph-name="uni0122" unicode="&#x122;" horiz-adv-x="833" 
d="M233 36q-86 46 -135 133t-49 205t49 205t135 133t195 46q132 0 225.5 -67.5t122.5 -189.5l-154 -25q-15 70 -66.5 110.5t-129.5 40.5q-105 0 -165 -64.5t-60 -188.5t60.5 -188.5t164.5 -64.5q75 0 126 38t66 115h-190v132h355v-49q0 -110 -43 -193t-123.5 -128.5
t-188.5 -45.5q-109 0 -195 46zM364 -72.5q24 24.5 60 24.5t57.5 -26t21.5 -69q-2 -147 -149 -225v59q52 36 64 92q-33 2 -55.5 26t-22.5 58q0 36 24 60.5z" />
    <glyph glyph-name="uni0123" unicode="&#x123;" horiz-adv-x="647" 
d="M139.5 -211.5q-66.5 52.5 -81.5 143.5l140 5q5 -38 37 -60.5t82 -22.5q58 0 92 30t34 86v78q-22 -26 -60.5 -42t-88.5 -16q-72 0 -128.5 33.5t-88.5 94t-32 140.5t32 140.5t88.5 94t128.5 33.5q54 0 94 -18t62 -47v55h133v-536q0 -74 -32 -129t-91 -85t-137 -30
q-117 0 -183.5 52.5zM223 149q36 -39 94 -39q56 0 90.5 36.5t34.5 99.5v24q0 63 -34.5 99.5t-90.5 36.5q-58 0 -94 -39.5t-36 -109.5q0 -69 36 -108zM272 869.5q24 24.5 60 24.5q37 0 58 -26t21 -69q-2 -147 -149 -225v59q52 36 64 92q-33 2 -55.5 26t-22.5 58q0 36 24 60.5
z" />
    <glyph glyph-name="Hcircumflex" unicode="&#x124;" horiz-adv-x="761" 
d="M380 872l-66 -77h-118l117 158h136l116 -158h-118zM77 748h148v-298h311v298h149v-748h-149v318h-311v-318h-148v748z" />
    <glyph glyph-name="hcircumflex" unicode="&#x125;" horiz-adv-x="615" 
d="M146 878l-66 -77h-118l116 159h135l117 -159h-118zM74 777h140v-308q18 24 51.5 40.5t82.5 16.5q90 0 145 -54.5t55 -151.5v-320h-140v289q0 50 -25.5 78.5t-69.5 28.5t-71.5 -30t-27.5 -78v-288h-140v777z" />
    <glyph glyph-name="Hbar" unicode="&#x126;" horiz-adv-x="778" 
d="M693 0h-148v318h-312v-318h-148v540h-76v113h76v95h148v-95h312v95h148v-95h76v-113h-76v-540zM545 450v90h-312v-90h312z" />
    <glyph glyph-name="hbar" unicode="&#x127;" horiz-adv-x="615" 
d="M493 471.5q55 -54.5 55 -151.5v-320h-140v289q0 50 -25.5 78.5t-69.5 28.5t-71.5 -30t-27.5 -78v-288h-140v597h-70v108h70v72h140v-72h86v-108h-86v-128q18 24 51.5 40.5t82.5 16.5q90 0 145 -54.5z" />
    <glyph glyph-name="Itilde" unicode="&#x128;" horiz-adv-x="302" 
d="M121 949q18 -8 39 -23q18 -12 29.5 -17.5t24.5 -5.5q21 0 31.5 12.5t10.5 34.5h79q1 -6 1 -17q0 -57 -29 -96.5t-77 -39.5q-24 0 -41.5 8.5t-39.5 23.5q-18 12 -29 17.5t-24 5.5q-22 0 -32 -13t-10 -35h-79q-1 6 -1 18q0 57 28.5 96t77.5 39q23 0 41 -8zM77 748h148v-748
h-148v748z" />
    <glyph glyph-name="itilde" unicode="&#x129;" horiz-adv-x="288" 
d="M112.5 750q17.5 -8 38.5 -23q18 -12 29.5 -17.5t24.5 -5.5q21 0 31.5 13t10.5 34h80q3 -40 -9 -75t-37.5 -56t-59.5 -21q-24 0 -40.5 7.5t-41.5 23.5q-17 12 -27.5 17.5t-23.5 5.5q-22 0 -32.5 -12.5t-10.5 -34.5h-79q-1 6 -1 18q0 56 29 95t78 39q23 0 40.5 -8zM74 516
h140v-516h-140v516z" />
    <glyph glyph-name="Imacron" unicode="&#x12a;" horiz-adv-x="302" 
d="M7 924h297v-107h-297v107zM77 748h148v-748h-148v748z" />
    <glyph glyph-name="imacron" unicode="&#x12b;" horiz-adv-x="288" 
d="M-2 728h297v-108h-297v108zM74 516h140v-516h-140v516z" />
    <glyph glyph-name="Ibreve" unicode="&#x12c;" horiz-adv-x="302" 
d="M288 838.5q-50 -41.5 -133 -41.5t-133 41.5t-50 120.5h115q0 -30 18.5 -47.5t49.5 -17.5q32 0 50.5 17.5t18.5 47.5h114q0 -79 -50 -120.5zM77 748h148v-748h-148v748z" />
    <glyph glyph-name="ibreve" unicode="&#x12d;" horiz-adv-x="288" 
d="M280 634.5q-50 -41.5 -133 -41.5t-133 41.5t-50 120.5h114q0 -30 18.5 -47.5t50.5 -17.5t50.5 17.5t18.5 47.5h114q0 -79 -50 -120.5zM74 516h140v-516h-140v516z" />
    <glyph glyph-name="Iogonek" unicode="&#x12e;" horiz-adv-x="302" 
d="M21.5 -166.5q-34.5 23.5 -34.5 70.5q0 66 90 107v737h148v-748h-60q-38 -21 -55.5 -38.5t-17.5 -41.5q0 -17 11.5 -26.5t30.5 -9.5q26 0 50 11l13 -68q-41 -17 -86 -17q-55 0 -89.5 23.5z" />
    <glyph glyph-name="iogonek" unicode="&#x12f;" horiz-adv-x="288" 
d="M34.5 -166.5q-34.5 23.5 -34.5 70.5q0 60 74 99v513h140v-516h-36q-38 -21 -55.5 -38.5t-17.5 -41.5q0 -17 11.5 -26.5t30.5 -9.5q26 0 50 11l13 -68q-41 -17 -86 -17q-55 0 -89.5 23.5zM87 741.5q25 25.5 60 25.5t60 -25.5t25 -60.5t-25 -59.5t-60 -24.5
q-36 0 -60.5 24.5t-24.5 59.5t25 60.5z" />
    <glyph glyph-name="Idotaccent" unicode="&#x130;" horiz-adv-x="302" 
d="M216 943.5q25 -25.5 25 -60.5t-25 -59.5t-61 -24.5q-35 0 -59.5 24.5t-24.5 59.5t25 60.5t59 25.5q36 0 61 -25.5zM77 748h148v-748h-148v748z" />
    <glyph glyph-name="dotlessi" unicode="&#x131;" horiz-adv-x="288" 
d="M74 516h140v-516h-140v516z" />
    <glyph glyph-name="Jcircumflex" unicode="&#x134;" horiz-adv-x="610" 
d="M472 872l-66 -77h-118l117 158h136l116 -158h-118zM167 264q4 -68 33 -105.5t80 -37.5q54 0 82.5 35t28.5 103v489h148v-484q0 -130 -69 -202t-191 -72q-115 0 -184 66t-76 183z" />
    <glyph glyph-name="jcircumflex" unicode="&#x135;" horiz-adv-x="288" 
d="M142 683l-67 -85h-117l117 177h135l117 -177h-117zM-47 -117q14 -11 25.5 -17.5t27.5 -6.5q68 0 68 81v576h140v-569q0 -106 -52.5 -158.5t-140.5 -52.5q-77 0 -124 32z" />
    <glyph glyph-name="uni0136" unicode="&#x136;" horiz-adv-x="717" 
d="M77 748h148v-313l260 313h191l-261 -306l290 -442h-172l-216 322l-92 -110v-212h-148v748zM308 -67.5q24 24.5 60 24.5q37 0 58 -26t21 -68q0 -147 -149 -226v59q52 36 64 92q-33 2 -55.5 26t-22.5 58q0 36 24 60.5z" />
    <glyph glyph-name="uni0137" unicode="&#x137;" horiz-adv-x="578" 
d="M74 777h140v-448l171 187h172l-197 -221l211 -295h-168l-143 191l-46 -51v-140h-140v777zM240.5 -67.5q23.5 24.5 59.5 24.5q37 0 58 -26t21 -69q0 -147 -148 -225v59q50 35 64 92q-33 2 -55.5 26t-22.5 58q0 36 23.5 60.5z" />
    <glyph glyph-name="Lacute" unicode="&#x139;" horiz-adv-x="591" 
d="M222 948h191l-194 -153h-127zM77 748h148v-616h331v-132h-479v748z" />
    <glyph glyph-name="lacute" unicode="&#x13a;" horiz-adv-x="288" 
d="M215 965h191l-194 -153h-127zM74 777h140v-777h-140v777z" />
    <glyph glyph-name="uni013B" unicode="&#x13b;" horiz-adv-x="591" 
d="M77 0v748h148v-616h331v-132h-479zM265 -67.5q24 24.5 60 24.5q37 0 58 -26t21 -68q0 -147 -149 -226v59q52 36 64 92q-33 2 -55.5 26t-22.5 58q0 36 24 60.5z" />
    <glyph glyph-name="uni013C" unicode="&#x13c;" horiz-adv-x="288" 
d="M74 777h140v-777h-140v777zM85.5 -67.5q23.5 24.5 59.5 24.5q37 0 58 -26t21 -69q-2 -148 -149 -225v59q52 35 65 92q-33 2 -55.5 26t-22.5 58q0 36 23.5 60.5z" />
    <glyph glyph-name="Lcaron" unicode="&#x13d;" horiz-adv-x="591" 
d="M77 748h148v-616h331v-132h-479v748zM457.5 748q23.5 25 59.5 25q37 0 58 -26.5t21 -68.5q-2 -148 -149 -225v59q51 34 65 91q-33 3 -55.5 27t-22.5 58q0 35 23.5 60z" />
    <glyph glyph-name="lcaron" unicode="&#x13e;" horiz-adv-x="444" 
d="M74 777h140v-777h-140v777zM294 748q24 25 60 25q37 0 58 -26.5t21 -69.5q0 -145 -149 -224v59q52 34 64 91q-33 3 -55.5 27t-22.5 58q0 35 24 60z" />
    <glyph glyph-name="Ldot" unicode="&#x13f;" horiz-adv-x="591" 
d="M556 0h-479v748h148v-616h331v-132zM398 471q25 25 60 25q36 0 61 -25t25 -60q0 -36 -25 -60.5t-61 -24.5q-35 0 -60 24.5t-25 60.5q0 35 25 60z" />
    <glyph glyph-name="ldot" unicode="&#x140;" horiz-adv-x="462" 
d="M74 777h140v-777h-140v777zM291.5 381q24.5 25 60.5 25t60.5 -25t24.5 -60q0 -36 -24.5 -60.5t-60.5 -24.5t-60.5 24.5t-24.5 60.5q0 35 24.5 60z" />
    <glyph glyph-name="Lslash" unicode="&#x141;" 
d="M88 0v277l-77 -19l-16 113l93 21v356h148v-332l90 22l16 -112l-106 -25v-169h331v-132h-479z" />
    <glyph glyph-name="lslash" unicode="&#x142;" horiz-adv-x="312" 
d="M87 0v227l-79 -24l-25 111l104 30v433h141v-398l77 23l25 -110l-102 -31v-261h-141z" />
    <glyph glyph-name="Nacute" unicode="&#x143;" horiz-adv-x="763" 
d="M439 948h192l-194 -153h-128zM77 748h125l336 -475v475h148v-748h-126l-335 474v-474h-148v748z" />
    <glyph glyph-name="nacute" unicode="&#x144;" horiz-adv-x="617" 
d="M349 789h158l-134 -191h-110zM74 516h132v-53q17 27 54 45t88 18q90 0 145 -54.5t55 -151.5v-320h-140v289q0 50 -25.5 78.5t-69.5 28.5t-71.5 -30t-27.5 -78v-288h-140v516z" />
    <glyph glyph-name="uni0145" unicode="&#x145;" horiz-adv-x="763" 
d="M77 748h125l336 -475v475h148v-748h-126l-335 474v-474h-148v748zM336.5 -67.5q23.5 24.5 59.5 24.5q37 0 58 -26t21 -69q0 -147 -149 -225v59q52 35 65 92q-33 2 -55.5 26t-22.5 58q0 36 23.5 60.5z" />
    <glyph glyph-name="uni0146" unicode="&#x146;" horiz-adv-x="617" 
d="M493 471.5q55 -54.5 55 -151.5v-320h-140v289q0 50 -25.5 78.5t-69.5 28.5t-71.5 -30t-27.5 -78v-288h-140v516h132v-53q17 27 54 45t88 18q90 0 145 -54.5zM253.5 -67.5q23.5 24.5 59.5 24.5q37 0 58 -26t21 -68q-2 -149 -149 -226v59q52 35 65 92q-33 2 -55.5 26
t-22.5 58q0 36 23.5 60.5z" />
    <glyph glyph-name="Ncaron" unicode="&#x147;" horiz-adv-x="763" 
d="M190 953h118l66 -76l67 76h117l-116 -158h-135zM77 748h125l336 -475v475h148v-748h-126l-335 474v-474h-148v748z" />
    <glyph glyph-name="ncaron" unicode="&#x148;" horiz-adv-x="617" 
d="M135 772h118l66 -84l68 84h117l-117 -176h-135zM74 516h132v-53q17 27 54 45t88 18q90 0 145 -54.5t55 -151.5v-320h-140v289q0 50 -25.5 78.5t-69.5 28.5t-71.5 -30t-27.5 -78v-288h-140v516z" />
    <glyph glyph-name="Eng" unicode="&#x14a;" horiz-adv-x="763" 
d="M654.5 -141q-31.5 -53 -90.5 -83.5t-139 -30.5v131q54 0 83.5 35.5t29.5 103.5v16l-313 443v-474h-148v748h125l336 -475v475h148v-770q0 -66 -31.5 -119z" />
    <glyph glyph-name="eng" unicode="&#x14b;" horiz-adv-x="617" 
d="M385.5 -116.5q22.5 23.5 22.5 61.5v344q0 50 -25.5 78.5t-69.5 28.5t-71.5 -30t-27.5 -78v-288h-140v516h132v-53q17 27 54 45t88 18q90 0 145 -54.5t55 -151.5v-372q0 -96 -58.5 -153t-158.5 -57v122q32 0 54.5 23.5z" />
    <glyph glyph-name="Omacron" unicode="&#x14c;" horiz-adv-x="874" 
d="M285 924h297v-107h-297v107zM99 577q50 87 138.5 134t200.5 47q111 0 198.5 -47t137.5 -134t50 -203t-50 -203t-137.5 -134t-198.5 -47q-112 0 -200.5 47t-138.5 134t-50 203t50 203zM231 239q30 -57 83.5 -87.5t123.5 -30.5q69 0 122.5 30.5t83 87.5t29.5 135t-29.5 135
t-83 87.5t-122.5 30.5q-70 0 -123.5 -30.5t-83.5 -87.5t-30 -135t30 -135z" />
    <glyph glyph-name="omacron" unicode="&#x14d;" horiz-adv-x="638" 
d="M169 728h297v-108h-297v108zM80.5 398.5q35.5 60.5 97.5 94t140 33.5q79 0 141 -33.5t97.5 -94t35.5 -140.5t-35.5 -141t-97.5 -94t-141 -33q-78 0 -140.5 33t-97.5 94t-35 141t35.5 140.5zM223.5 150q36.5 -40 94.5 -40q60 0 96.5 39.5t36.5 108.5t-36.5 108.5
t-96.5 39.5q-58 0 -94.5 -40t-36.5 -108t36.5 -108z" />
    <glyph glyph-name="Obreve" unicode="&#x14e;" horiz-adv-x="874" 
d="M566 838.5q-50 -41.5 -133 -41.5t-133 41.5t-50 120.5h115q0 -30 18.5 -47.5t49.5 -17.5q32 0 50.5 17.5t18.5 47.5h114q0 -79 -50 -120.5zM99 577q50 87 138.5 134t200.5 47q111 0 198.5 -47t137.5 -134t50 -203t-50 -203t-137.5 -134t-198.5 -47q-112 0 -200.5 47
t-138.5 134t-50 203t50 203zM231 239q30 -57 83.5 -87.5t123.5 -30.5q69 0 122.5 30.5t83 87.5t29.5 135t-29.5 135t-83 87.5t-122.5 30.5q-70 0 -123.5 -30.5t-83.5 -87.5t-30 -135t30 -135z" />
    <glyph glyph-name="obreve" unicode="&#x14f;" horiz-adv-x="638" 
d="M450.5 634.5q-50.5 -41.5 -133.5 -41.5t-132.5 41.5t-49.5 120.5h114q0 -30 18.5 -47.5t49.5 -17.5q32 0 50.5 17.5t18.5 47.5h115q0 -79 -50.5 -120.5zM80.5 398.5q35.5 60.5 97.5 94t140 33.5q79 0 141 -33.5t97.5 -94t35.5 -140.5t-35.5 -141t-97.5 -94t-141 -33
q-78 0 -140.5 33t-97.5 94t-35 141t35.5 140.5zM223.5 150q36.5 -40 94.5 -40q60 0 96.5 39.5t36.5 108.5t-36.5 108.5t-96.5 39.5q-58 0 -94.5 -40t-36.5 -108t36.5 -108z" />
    <glyph glyph-name="Ohungarumlaut" unicode="&#x150;" horiz-adv-x="874" 
d="M334 965h133l-84 -167h-110zM99 577q50 87 138.5 134t200.5 47q111 0 198.5 -47t137.5 -134t50 -203t-50 -203t-137.5 -134t-198.5 -47q-112 0 -200.5 47t-138.5 134t-50 203t50 203zM231 239q30 -57 83.5 -87.5t123.5 -30.5q69 0 122.5 30.5t83 87.5t29.5 135t-29.5 135
t-83 87.5t-122.5 30.5q-70 0 -123.5 -30.5t-83.5 -87.5t-30 -135t30 -135zM533 965h133l-84 -167h-110z" />
    <glyph glyph-name="ohungarumlaut" unicode="&#x151;" horiz-adv-x="638" 
d="M223 780h132l-84 -178h-110zM80.5 398.5q35.5 60.5 97.5 94t140 33.5q79 0 141 -33.5t97.5 -94t35.5 -140.5t-35.5 -141t-97.5 -94t-141 -33q-78 0 -140.5 33t-97.5 94t-35 141t35.5 140.5zM223.5 150q36.5 -40 94.5 -40q60 0 96.5 39.5t36.5 108.5t-36.5 108.5
t-96.5 39.5q-58 0 -94.5 -40t-36.5 -108t36.5 -108zM422 780h133l-85 -178h-110z" />
    <glyph glyph-name="OE" unicode="&#x152;" horiz-adv-x="1197" 
d="M237.5 37q-88.5 47 -138.5 134t-50 203t50 203t138.5 134t200.5 47q69 0 129.5 -21.5t105.5 -61.5v73h478v-131h-330v-169h286v-129h-286v-187h330v-132h-478v73q-45 -40 -105.5 -61.5t-129.5 -21.5q-112 0 -200.5 47zM231 239q30 -57 83.5 -87.5t123.5 -30.5
q69 0 122.5 30.5t83 87.5t29.5 135t-29.5 135t-83 87.5t-122.5 30.5q-70 0 -123.5 -30.5t-83.5 -87.5t-30 -135t30 -135z" />
    <glyph glyph-name="oe" unicode="&#x153;" horiz-adv-x="1003" 
d="M177.5 23q-62.5 33 -97.5 94t-35 141t35.5 140.5t97.5 94t140 33.5q62 0 113.5 -21.5t86.5 -62.5q34 41 83.5 62.5t110.5 21.5q74 0 129.5 -31t86 -89t30.5 -137v-51h-358q1 -55 30.5 -87t81.5 -32q39 0 65 17t35 47l141 -7q-14 -76 -80 -121t-158 -45q-61 0 -111.5 21.5
t-84.5 62.5q-35 -41 -87 -62.5t-114 -21.5q-78 0 -140.5 33zM223.5 150q36.5 -40 94.5 -40q60 0 96.5 39.5t36.5 108.5t-36.5 108.5t-96.5 39.5q-58 0 -94.5 -40t-36.5 -108t36.5 -108zM816 305q-1 53 -28 84t-78 31q-49 0 -78.5 -30.5t-31.5 -84.5h216z" />
    <glyph glyph-name="Racute" unicode="&#x154;" horiz-adv-x="705" 
d="M77 748h316q108 0 174 -63t66 -175q0 -77 -32 -131.5t-90 -81.5l162 -297h-168l-148 272h-14h-118v-272h-148v748zM375 403q48 0 78 28t30 79t-30 79t-78 28h-150v-214h150zM383 948h191l-194 -153h-128z" />
    <glyph glyph-name="racute" unicode="&#x155;" horiz-adv-x="375" 
d="M250 789h158l-134 -191h-110zM74 516h135v-57q43 63 143 63v-136q-63 0 -100.5 -33.5t-37.5 -87.5v-265h-140v516z" />
    <glyph glyph-name="uni0156" unicode="&#x156;" horiz-adv-x="705" 
d="M77 748h316q108 0 174 -63t66 -175q0 -77 -32 -131.5t-90 -81.5l162 -297h-168l-148 272h-14h-118v-272h-148v748zM375 403q48 0 78 28t30 79t-30 79t-78 28h-150v-214h150zM299.5 -67.5q23.5 24.5 59.5 24.5q37 0 58 -26t21 -69q0 -147 -148 -225v59q50 35 64 92
q-33 2 -55.5 26t-22.5 58q0 36 23.5 60.5z" />
    <glyph glyph-name="uni0157" unicode="&#x157;" horiz-adv-x="375" 
d="M74 516h135v-57q43 63 143 63v-136q-63 0 -100.5 -33.5t-37.5 -87.5v-265h-140v516zM85.5 -67.5q23.5 24.5 59.5 24.5q37 0 58 -26t21 -68q0 -148 -149 -226v59q52 35 65 92q-33 2 -55.5 26t-22.5 58q0 36 23.5 60.5z" />
    <glyph glyph-name="Rcaron" unicode="&#x158;" horiz-adv-x="705" 
d="M77 748h316q108 0 174 -63t66 -175q0 -77 -32 -131.5t-90 -81.5l162 -297h-168l-148 272h-14h-118v-272h-148v748zM251 953l66 -76l67 76h118l-116 -158h-136l-117 158h118zM375 403q48 0 78 28t30 79t-30 79t-78 28h-150v-214h150z" />
    <glyph glyph-name="rcaron" unicode="&#x159;" horiz-adv-x="375" 
d="M36 772h118l66 -84l68 84h117l-117 -176h-135zM74 516h135v-57q43 63 143 63v-136q-63 0 -100.5 -33.5t-37.5 -87.5v-265h-140v516z" />
    <glyph glyph-name="Sacute" unicode="&#x15a;" horiz-adv-x="663" 
d="M395 948h192l-194 -153h-128zM198 235q1 -53 42.5 -85t104.5 -32q56 0 89 22.5t33 68.5q0 42 -36 63.5t-122 42.5q-81 20 -131.5 42.5t-82 64t-31.5 109.5q0 63 29.5 114.5t89 82t144.5 30.5q123 0 198 -60.5t78 -166.5l-151 -8q-2 49 -34.5 78t-87.5 29q-54 0 -84.5 -26
t-30.5 -68q0 -30 15.5 -47.5t45.5 -28.5t88 -25q86 -22 140 -47t84.5 -66t30.5 -105q0 -113 -77 -170t-197 -57q-87 0 -154 27.5t-105.5 81t-39.5 128.5z" />
    <glyph glyph-name="sacute" unicode="&#x15b;" horiz-adv-x="505" 
d="M274 789h159l-135 -191h-110zM175 160q2 -33 21.5 -51t56.5 -18q33 0 51 14t18 41q0 25 -19.5 38t-78.5 27q-65 16 -101.5 31t-58 43.5t-21.5 78.5q0 75 54.5 118.5t150.5 43.5q94 0 147 -43.5t61 -117.5l-140 -8q-2 30 -18 48.5t-48 18.5q-33 0 -50 -13t-17 -38
q0 -19 12 -29.5t27.5 -15.5t64.5 -17q59 -15 96 -32t58.5 -45.5t21.5 -73.5q0 -79 -55.5 -124.5t-155.5 -45.5q-99 0 -154.5 41t-63.5 121z" />
    <glyph glyph-name="Scircumflex" unicode="&#x15c;" horiz-adv-x="663" 
d="M330 872l-66 -77h-118l117 158h135l116 -158h-117zM198 235q1 -53 42.5 -85t104.5 -32q56 0 89 22.5t33 68.5q0 42 -36 63.5t-122 42.5q-81 20 -131.5 42.5t-82 64t-31.5 109.5q0 63 29.5 114.5t89 82t144.5 30.5q123 0 198 -60.5t78 -166.5l-151 -8q-2 49 -34.5 78
t-87.5 29q-54 0 -84.5 -26t-30.5 -68q0 -30 15.5 -47.5t45.5 -28.5t88 -25q86 -22 140 -47t84.5 -66t30.5 -105q0 -113 -77 -170t-197 -57q-87 0 -154 27.5t-105.5 81t-39.5 128.5z" />
    <glyph glyph-name="scircumflex" unicode="&#x15d;" horiz-adv-x="505" 
d="M245 683l-67 -85h-118l117 177h136l116 -177h-117zM175 160q2 -33 21.5 -51t56.5 -18q33 0 51 14t18 41q0 25 -19.5 38t-78.5 27q-65 16 -101.5 31t-58 43.5t-21.5 78.5q0 75 54.5 118.5t150.5 43.5q94 0 147 -43.5t61 -117.5l-140 -8q-2 30 -18 48.5t-48 18.5
q-33 0 -50 -13t-17 -38q0 -19 12 -29.5t27.5 -15.5t64.5 -17q59 -15 96 -32t58.5 -45.5t21.5 -73.5q0 -79 -55.5 -124.5t-155.5 -45.5q-99 0 -154.5 41t-63.5 121z" />
    <glyph glyph-name="Scedilla" unicode="&#x15e;" horiz-adv-x="663" 
d="M549 52.5q-70 -56.5 -182 -62.5l-10 -42q48 -2 82 -29.5t34 -74.5q0 -49 -40 -74.5t-96 -25.5q-62 0 -102 21l22 68q26 -14 57 -14q21 0 37.5 9.5t16.5 28.5q0 20 -16 30.5t-41 10.5q-22 0 -33 -5l31 98q-117 8 -189 70t-74 166l152 8q1 -53 42.5 -85t104.5 -32
q56 0 89 22.5t33 68.5q0 42 -36 63.5t-122 42.5q-81 20 -131.5 42.5t-82 64t-31.5 109.5q0 63 29.5 114.5t89 82t144.5 30.5q123 0 198 -60.5t78 -166.5l-151 -8q-2 49 -34.5 78t-87.5 29q-54 0 -84.5 -26t-30.5 -68q0 -30 15.5 -47.5t45.5 -28.5t88 -25q86 -22 140 -47
t84.5 -66t30.5 -105q0 -108 -70 -164.5z" />
    <glyph glyph-name="scedilla" unicode="&#x15f;" horiz-adv-x="505" 
d="M414.5 41.5q-48.5 -44.5 -136.5 -51.5l-10 -42q48 -2 82 -29.5t34 -74.5q0 -49 -40 -74.5t-96 -25.5q-62 0 -102 21l22 68q26 -14 57 -14q21 0 37.5 9.5t16.5 28.5q0 20 -16 30.5t-41 10.5q-22 0 -33 -5l31 98q-84 6 -131.5 47t-54.5 114l141 8q2 -33 21.5 -51t56.5 -18
q33 0 51 14t18 41q0 25 -19.5 38t-78.5 27q-65 16 -101.5 31t-58 43.5t-21.5 78.5q0 75 54.5 118.5t150.5 43.5q94 0 147 -43.5t61 -117.5l-140 -8q-2 30 -18 48.5t-48 18.5q-33 0 -50 -13t-17 -38q0 -19 12 -29.5t27.5 -15.5t64.5 -17q59 -15 96 -32t58.5 -45.5t21.5 -73.5
q0 -74 -48.5 -118.5z" />
    <glyph glyph-name="Scaron" unicode="&#x160;" horiz-adv-x="663" 
d="M146 953h118l66 -76l67 76h117l-116 -158h-135zM198 235q1 -53 42.5 -85t104.5 -32q56 0 89 22.5t33 68.5q0 42 -36 63.5t-122 42.5q-81 20 -131.5 42.5t-82 64t-31.5 109.5q0 63 29.5 114.5t89 82t144.5 30.5q123 0 198 -60.5t78 -166.5l-151 -8q-2 49 -34.5 78
t-87.5 29q-54 0 -84.5 -26t-30.5 -68q0 -30 15.5 -47.5t45.5 -28.5t88 -25q86 -22 140 -47t84.5 -66t30.5 -105q0 -113 -77 -170t-197 -57q-87 0 -154 27.5t-105.5 81t-39.5 128.5z" />
    <glyph glyph-name="scaron" unicode="&#x161;" horiz-adv-x="505" 
d="M60 772h118l67 -84l67 84h117l-116 -176h-136zM175 160q2 -33 21.5 -51t56.5 -18q33 0 51 14t18 41q0 25 -19.5 38t-78.5 27q-65 16 -101.5 31t-58 43.5t-21.5 78.5q0 75 54.5 118.5t150.5 43.5q94 0 147 -43.5t61 -117.5l-140 -8q-2 30 -18 48.5t-48 18.5q-33 0 -50 -13
t-17 -38q0 -19 12 -29.5t27.5 -15.5t64.5 -17q59 -15 96 -32t58.5 -45.5t21.5 -73.5q0 -79 -55.5 -124.5t-155.5 -45.5q-99 0 -154.5 41t-63.5 121z" />
    <glyph glyph-name="Tcaron" unicode="&#x164;" horiz-adv-x="692" 
d="M165 953h118l66 -76l67 76h117l-116 -158h-135zM19 748h654v-131h-252v-617h-149v617h-253v131z" />
    <glyph glyph-name="tcaron" unicode="&#x165;" horiz-adv-x="578" 
d="M153.5 34q-49.5 43 -48.5 129l1 233h-95v120h95l1 172h141l-1 -172h122v-120h-123l-1 -197q0 -42 22 -62t56 -20q23 0 47 4v-124q-42 -6 -80 -6q-87 0 -136.5 43zM427 748q24 25 59 25q37 0 58 -26.5t21 -69.5q0 -146 -148 -224v59q50 33 64 91q-33 3 -55.5 27t-22.5 58
q0 35 24 60z" />
    <glyph glyph-name="Tbar" unicode="&#x166;" horiz-adv-x="692" 
d="M545 413v-114h-124v-299h-149v299h-125v114h125v204h-253v131h654v-131h-252v-204h124z" />
    <glyph glyph-name="tbar" unicode="&#x167;" horiz-adv-x="400" 
d="M153.5 34q-49.5 43 -48.5 129v50h-94v101h95v82h-95v120h95l1 172h141l-1 -172h122v-120h-123v-82h123v-101h-121l-1 -34q0 -31 23 -46.5t53 -15.5q23 0 47 4v-124q-42 -6 -80 -6q-87 0 -136.5 43z" />
    <glyph glyph-name="Utilde" unicode="&#x168;" horiz-adv-x="776" 
d="M353.5 949q17.5 -8 38.5 -23q18 -12 29.5 -17.5t24.5 -5.5q21 0 31.5 12.5t10.5 34.5h80q3 -40 -9 -75t-37.5 -56.5t-59.5 -21.5q-24 0 -41.5 8t-40.5 24q-17 12 -27.5 17.5t-23.5 5.5q-22 0 -32.5 -13t-10.5 -35h-79q-1 6 -1 18q0 56 29 95.5t78 39.5q23 0 40.5 -8z
M71 748h148v-444q0 -89 43.5 -136t125.5 -47q81 0 124.5 47t43.5 136v444h148v-446q0 -148 -84.5 -230t-231.5 -82q-148 0 -232.5 82t-84.5 230v446z" />
    <glyph glyph-name="utilde" unicode="&#x169;" 
d="M266.5 750q17.5 -8 39.5 -23q16 -11 28 -17t25 -6q41 0 43 47h79q1 -6 1 -17q0 -56 -29.5 -95.5t-77.5 -39.5q-23 0 -41 8t-40 23q-16 12 -27.5 17.5t-24.5 5.5q-42 0 -42 -47h-80q-5 62 24.5 107t81.5 45q23 0 40.5 -8zM69 516h140v-295q0 -100 86 -100q44 0 68 27
t24 73v295h140v-516h-132v53q-17 -27 -50.5 -45t-84.5 -18q-90 0 -140.5 52t-50.5 147v327z" />
    <glyph glyph-name="Umacron" unicode="&#x16a;" horiz-adv-x="776" 
d="M239 924h297v-107h-297v107zM71 748h148v-444q0 -89 43.5 -136t125.5 -47q81 0 124.5 47t43.5 136v444h148v-446q0 -148 -84.5 -230t-231.5 -82q-148 0 -232.5 82t-84.5 230v446z" />
    <glyph glyph-name="umacron" unicode="&#x16b;" 
d="M153 728h297v-108h-297v108zM69 516h140v-295q0 -100 86 -100q44 0 68 27t24 73v295h140v-516h-132v53q-17 -27 -50.5 -45t-84.5 -18q-90 0 -140.5 52t-50.5 147v327z" />
    <glyph glyph-name="Ubreve" unicode="&#x16c;" horiz-adv-x="776" 
d="M520 838.5q-50 -41.5 -133 -41.5t-133 41.5t-50 120.5h115q0 -30 18.5 -47.5t49.5 -17.5q32 0 50.5 17.5t18.5 47.5h114q0 -79 -50 -120.5zM71 748h148v-444q0 -89 43.5 -136t125.5 -47q81 0 124.5 47t43.5 136v444h148v-446q0 -148 -84.5 -230t-231.5 -82
q-148 0 -232.5 82t-84.5 230v446z" />
    <glyph glyph-name="ubreve" unicode="&#x16d;" 
d="M434 634.5q-50 -41.5 -133 -41.5t-133 41.5t-50 120.5h115q0 -30 18.5 -47.5t49.5 -17.5q32 0 50.5 17.5t18.5 47.5h114q0 -79 -50 -120.5zM69 516h140v-295q0 -100 86 -100q44 0 68 27t24 73v295h140v-516h-132v53q-17 -27 -50.5 -45t-84.5 -18q-90 0 -140.5 52
t-50.5 147v327z" />
    <glyph glyph-name="Uring" unicode="&#x16e;" horiz-adv-x="776" 
d="M467.5 976q32.5 -30 32.5 -77q0 -46 -32.5 -76t-79.5 -30q-49 0 -81.5 30t-32.5 76q0 47 32.5 77t81.5 30q47 0 79.5 -30zM71 748h148v-444q0 -89 43.5 -136t125.5 -47q81 0 124.5 47t43.5 136v444h148v-446q0 -148 -84.5 -230t-231.5 -82q-148 0 -232.5 82t-84.5 230
v446zM356 869q12 -12 32 -12q19 0 30.5 12t11.5 30q0 19 -11.5 31t-30.5 12q-20 0 -32 -12t-12 -31q0 -18 12 -30z" />
    <glyph glyph-name="uring" unicode="&#x16f;" 
d="M393.5 786.5q37.5 -34.5 37.5 -86.5t-37.5 -86.5t-91.5 -34.5q-55 0 -92.5 34.5t-37.5 86.5t37.5 86.5t92.5 34.5q54 0 91.5 -34.5zM69 516h140v-295q0 -100 86 -100q44 0 68 27t24 73v295h140v-516h-132v53q-17 -27 -50.5 -45t-84.5 -18q-90 0 -140.5 52t-50.5 147v327z
M267 667q13 -13 35 -13q21 0 34 13t13 33q0 21 -13 33.5t-34 12.5q-22 0 -35 -12.5t-13 -33.5q0 -20 13 -33z" />
    <glyph glyph-name="Uhungarumlaut" unicode="&#x170;" horiz-adv-x="776" 
d="M288 965h133l-84 -167h-110zM71 748h148v-444q0 -89 43.5 -136t125.5 -47q81 0 124.5 47t43.5 136v444h148v-446q0 -148 -84.5 -230t-231.5 -82q-148 0 -232.5 82t-84.5 230v446zM487 965h133l-84 -167h-110z" />
    <glyph glyph-name="uhungarumlaut" unicode="&#x171;" 
d="M207 780h132l-85 -178h-110zM69 516h140v-295q0 -100 86 -100q44 0 68 27t24 73v295h140v-516h-132v53q-17 -27 -50.5 -45t-84.5 -18q-90 0 -140.5 52t-50.5 147v327zM406 780h133l-85 -178h-110z" />
    <glyph glyph-name="Uogonek" unicode="&#x172;" horiz-adv-x="776" 
d="M338.5 -166.5q-34.5 23.5 -34.5 70.5q0 27 13.5 48.5t40.5 39.5h-13q-129 12 -201.5 92.5t-72.5 217.5v446h148v-444q0 -89 43.5 -136t125.5 -47q81 0 124.5 47t43.5 136v444h148v-446q0 -123 -58.5 -201t-164.5 -102q-37 -19 -54.5 -37t-17.5 -42q0 -17 11.5 -26.5
t30.5 -9.5q26 0 50 11l13 -68q-41 -17 -86 -17q-55 0 -89.5 23.5z" />
    <glyph glyph-name="uogonek" unicode="&#x173;" 
d="M354.5 -167.5q-34.5 23.5 -34.5 70.5q0 59 75 100v50q-17 -27 -50.5 -45t-84.5 -18q-90 0 -140.5 52t-50.5 147v327h140v-295q0 -100 86 -100q44 0 68 27t24 73v295h140v-516h-27q-39 -20 -57 -38t-18 -43q0 -17 11.5 -26.5t30.5 -9.5q26 0 50 11l13 -68q-41 -17 -86 -17
q-55 0 -89.5 23.5z" />
    <glyph glyph-name="Wcircumflex" unicode="&#x174;" horiz-adv-x="1124" 
d="M562 872l-66 -77h-118l117 158h136l116 -158h-118zM176 748l162 -502l163 502h122l163 -502l163 502h162l-261 -748h-125l-163 488l-163 -488h-125l-261 748h163z" />
    <glyph glyph-name="wcircumflex" unicode="&#x175;" horiz-adv-x="843" 
d="M424 683l-67 -85h-118l117 177h136l116 -177h-117zM161 516l103 -311l108 311h99l109 -311l103 311h155l-197 -516h-112l-106 282l-108 -282h-112l-198 516h156z" />
    <glyph glyph-name="Ycircumflex" unicode="&#x176;" horiz-adv-x="739" 
d="M370 872l-66 -77h-118l117 158h135l116 -158h-117zM184 748l186 -311l185 311h172l-283 -458v-290h-148v290l-284 458h172z" />
    <glyph glyph-name="ycircumflex" unicode="&#x177;" horiz-adv-x="569" 
d="M284 683l-66 -85h-118l117 177h135l117 -177h-117zM163 516l122 -315l121 315h156l-330 -771h-154l131 299l-201 472h155z" />
    <glyph glyph-name="Ydieresis" unicode="&#x178;" horiz-adv-x="739" 
d="M329.5 931.5q22.5 -22.5 22.5 -54.5t-22.5 -54t-54.5 -22t-54 22t-22 54t22.5 54.5t53.5 22.5q32 0 54.5 -22.5zM184 748l186 -311l185 311h172l-283 -458v-290h-148v290l-284 458h172zM410.5 931.5q22.5 22.5 53.5 22.5q32 0 54.5 -22.5t22.5 -54.5t-22.5 -54t-54.5 -22
t-54 22t-22 54t22.5 54.5z" />
    <glyph glyph-name="Zacute" unicode="&#x179;" horiz-adv-x="625" 
d="M376 948h191l-194 -153h-127zM38 112l353 505h-347v131h538v-112l-354 -504h364v-132h-554v112z" />
    <glyph glyph-name="zacute" unicode="&#x17a;" horiz-adv-x="454" 
d="M258 789h159l-135 -191h-110zM33 93l218 310h-213v113h375v-92l-216 -311h224v-113h-388v93z" />
    <glyph glyph-name="Zdotaccent" unicode="&#x17b;" horiz-adv-x="625" 
d="M371.5 944q24.5 -25 24.5 -61q0 -35 -24.5 -59.5t-60.5 -24.5q-35 0 -60 24.5t-25 59.5t25 60.5t60 25.5q36 0 60.5 -25zM38 112l353 505h-347v131h538v-112l-354 -504h364v-132h-554v112z" />
    <glyph glyph-name="zdotaccent" unicode="&#x17c;" horiz-adv-x="454" 
d="M290.5 742q24.5 -25 24.5 -61q0 -35 -24.5 -59.5t-60.5 -24.5q-35 0 -60 24.5t-25 59.5t25 60.5t60 25.5q36 0 60.5 -25zM33 93l218 310h-213v113h375v-92l-216 -311h224v-113h-388v93z" />
    <glyph glyph-name="Zcaron" unicode="&#x17d;" horiz-adv-x="625" 
d="M126 953h118l66 -76l67 76h118l-116 -158h-136zM38 112l353 505h-347v131h538v-112l-354 -504h364v-132h-554v112z" />
    <glyph glyph-name="zcaron" unicode="&#x17e;" horiz-adv-x="454" 
d="M45 772h118l66 -84l68 84h117l-117 -176h-135zM33 93l218 310h-213v113h375v-92l-216 -311h224v-113h-388v93z" />
    <glyph glyph-name="florin" unicode="&#x192;" horiz-adv-x="443" 
d="M509 744l-57 -115q-29 33 -74 33q-32 0 -50.5 -16.5t-25.5 -52.5l-13 -77h127v-117h-148l-96 -541h-143l96 541h-96v117h117l18 101q15 85 67 127t131 42q87 0 147 -42z" />
    <glyph glyph-name="Aringacute" unicode="&#x1fa;" horiz-adv-x="784" 
d="M320 802q-33 30 -33 76q0 25 10.5 46t28.5 35l125 119h176l-169 -110q25 -12 40 -36t15 -54q0 -46 -32 -76t-80 -30t-81 30zM329 748h126l320 -748h-163l-64 152h-312l-64 -152h-163zM498 267l-106 251l-105 -251h211zM400 848q10 0 21 8q11 9 11 22q0 10 -8 20
q-11 11 -24 11q-11 0 -19 -7q-12 -9 -12 -22q0 -12 9 -21q9 -11 22 -11z" />
    <glyph glyph-name="aringacute" unicode="&#x1fb;" horiz-adv-x="556" 
d="M199 606.5q-33 30.5 -33 75.5q0 27 11.5 49t32.5 36l121 114h175l-169 -108q25 -13 40 -36.5t15 -54.5q0 -46 -32 -76t-80 -30t-81 30.5zM259 295l87 4v30q0 80 -69 80q-36 0 -56.5 -22t-20.5 -50l-141 4q0 46 26.5 89t76 69.5t113.5 26.5q104 0 158 -52.5t54 -153.5
v-320h-133v50q-22 -28 -57.5 -44t-82.5 -16q-79 0 -124 38t-45 111q0 147 214 156zM250 95q41 0 68.5 24t27.5 69v25l-77 -4q-84 -5 -84 -60q0 -54 65 -54zM279 652q11 0 21 8q11 9 11 22q0 10 -8 20q-10 12 -24 12q-9 0 -19 -8q-12 -9 -12 -22q0 -10 9 -21t22 -11z" />
    <glyph glyph-name="AEacute" unicode="&#x1fc;" horiz-adv-x="1049" 
d="M744 948h191l-194 -153h-128zM369 82l-19 -64h-26zM499 267l26 37v6h131l149 125v-89h67v-208h-210v62h-210l47 67h26v37l137 195h190v-42h-294l-33 -101v154l-160 -243h134zM452 200h-48l-35 -118zM525 310v46l-15 -46h15z" />
    <glyph glyph-name="aeacute" unicode="&#x1fd;" horiz-adv-x="900" 
d="M463 789h158l-134 -191h-110zM103 256q58 35 156 39l87 4v23q0 40 -17 63.5t-53 23.5t-56 -22t-20 -50l-141 4q0 47 26 89.5t74 69t112 26.5q107 0 158 -69q33 34 79 51.5t101 17.5q74 0 130 -31t86.5 -89t30.5 -137v-51h-360q1 -55 31 -87t82 -32q40 0 65.5 16.5
t34.5 47.5l142 -7q-14 -76 -80 -121t-158 -45q-63 0 -115 22t-86 64q-33 -41 -80 -63.5t-104 -22.5q-86 0 -134.5 39t-48.5 111q0 81 58 116zM250 95q41 0 68.5 24t27.5 69v25l-77 -4q-84 -5 -84 -60q0 -54 65 -54zM714 305q-2 54 -28.5 84.5t-77.5 30.5q-49 0 -79 -30.5
t-33 -84.5h218z" />
    <glyph glyph-name="Oslashacute" unicode="&#x1fe;" horiz-adv-x="867" 
d="M499 948h191l-194 -153h-128zM99 577q50 87 138.5 134t200.5 47q103 0 185 -41l62 81l91 -69l-59 -77q51 -51 79 -121.5t28 -156.5q0 -116 -50 -203t-137.5 -134t-198.5 -47q-108 0 -193 45l-64 -83l-91 69l61 80q-49 51 -75.5 120.5t-26.5 152.5q0 116 50 203zM244 222
l293 383q-46 22 -99 22q-70 0 -123.5 -30.5t-83.5 -87.5t-30 -135q0 -88 43 -152zM438 121q69 0 122.5 30.5t83 87.5t29.5 135q0 95 -49 158l-293 -384q45 -27 107 -27z" />
    <glyph glyph-name="oslashacute" unicode="&#x1ff;" horiz-adv-x="638" 
d="M347 789h159l-135 -191h-110zM80.5 398.5q35.5 60.5 97.5 94t140 33.5q68 0 125 -26l37 50l78 -57l-36 -48q34 -35 52 -82.5t18 -104.5q0 -80 -35.5 -141t-97.5 -94t-141 -33q-69 0 -120 25l-46 -60l-77 57l43 56q-73 75 -73 190q0 80 35.5 140.5zM207 188l156 207
q-20 11 -45 11q-58 0 -94.5 -40t-36.5 -108q0 -40 20 -70zM318 110q60 0 96.5 39.5t36.5 108.5q0 37 -20 67l-154 -205q20 -10 41 -10z" />
    <glyph glyph-name="uni0218" unicode="&#x218;" horiz-adv-x="663" 
d="M504 388q54 -25 84.5 -66t30.5 -105q0 -113 -77 -170t-197 -57q-87 0 -154 27.5t-105.5 81t-39.5 128.5l152 8q1 -53 42.5 -85t104.5 -32q56 0 89 22.5t33 68.5q0 42 -36 63.5t-122 42.5q-81 20 -131.5 42.5t-82 64t-31.5 109.5q0 63 29.5 114.5t89 82t144.5 30.5
q123 0 198 -60.5t78 -166.5l-151 -8q-2 49 -34.5 78t-87.5 29q-54 0 -84.5 -26t-30.5 -68q0 -30 15.5 -47.5t45.5 -28.5t88 -25q86 -22 140 -47zM279.5 -72.5q23.5 24.5 59.5 24.5q37 0 58 -26t21 -69q-2 -148 -149 -225v59q52 35 65 92q-33 2 -55.5 26t-22.5 58
q0 36 23.5 60.5z" />
    <glyph glyph-name="uni0219" unicode="&#x219;" horiz-adv-x="505" 
d="M97.5 31q-55.5 41 -63.5 121l141 8q2 -33 21.5 -51t56.5 -18q33 0 51 14t18 41q0 25 -19.5 38t-78.5 27q-65 16 -101.5 31t-58 43.5t-21.5 78.5q0 75 54.5 118.5t150.5 43.5q94 0 147 -43.5t61 -117.5l-140 -8q-2 30 -18 48.5t-48 18.5q-33 0 -50 -13t-17 -38
q0 -19 12 -29.5t27.5 -15.5t64.5 -17q59 -15 96 -32t58.5 -45.5t21.5 -73.5q0 -79 -55.5 -124.5t-155.5 -45.5q-99 0 -154.5 41zM191 -72.5q24 24.5 60 24.5q37 0 58 -26t21 -69q0 -146 -149 -225v59q52 36 64 92q-33 2 -55.5 26t-22.5 58q0 36 24 60.5z" />
    <glyph glyph-name="uni021A" unicode="&#x21a;" horiz-adv-x="692" 
d="M421 617v-617h-149v617h-253v131h654v-131h-252zM288 -67.5q24 24.5 60 24.5t57.5 -26t21.5 -69q0 -146 -149 -225v59q52 36 64 92q-33 2 -55.5 26t-22.5 58q0 36 24 60.5z" />
    <glyph glyph-name="uni021B" unicode="&#x21b;" horiz-adv-x="400" 
d="M153.5 34q-49.5 43 -48.5 129l1 233h-95v120h95l1 172h141l-1 -172h122v-120h-123l-1 -197q0 -42 22 -62t56 -20q23 0 47 4v-124q-42 -6 -80 -6q-87 0 -136.5 43zM172 -75.5q24 24.5 60 24.5q37 0 58 -26t21 -69q0 -146 -149 -225v59q52 36 64 92q-33 2 -55.5 26
t-22.5 58q0 36 24 60.5z" />
    <glyph glyph-name="uni0237" unicode="&#x237;" horiz-adv-x="288" 
d="M161.5 -211.5q-52.5 -52.5 -140.5 -52.5q-77 0 -124 32l56 115q14 -11 25.5 -17.5t27.5 -6.5q68 0 68 81v576h140v-569q0 -106 -52.5 -158.5z" />
    <glyph glyph-name="circumflex" unicode="&#x2c6;" horiz-adv-x="388" 
d="M194 683l-67 -85h-118l117 177h136l116 -177h-117z" />
    <glyph glyph-name="caron" unicode="&#x2c7;" horiz-adv-x="388" 
d="M9 772h118l67 -84l67 84h117l-116 -176h-136z" />
    <glyph glyph-name="breve" unicode="&#x2d8;" horiz-adv-x="388" 
d="M326.5 634.5q-50.5 -41.5 -133.5 -41.5t-132.5 41.5t-49.5 120.5h114q0 -30 18.5 -47.5t49.5 -17.5q32 0 50.5 17.5t18.5 47.5h115q0 -79 -50.5 -120.5z" />
    <glyph glyph-name="dotaccent" unicode="&#x2d9;" horiz-adv-x="191" 
d="M156 741.5q25 -25.5 25 -60.5t-25 -59.5t-61 -24.5q-35 0 -59.5 24.5t-24.5 59.5t25 60.5t59 25.5q36 0 61 -25.5z" />
    <glyph glyph-name="ring" unicode="&#x2da;" horiz-adv-x="280" 
d="M232 786.5q37 -34.5 37 -86.5t-37 -86.5t-91 -34.5q-55 0 -92.5 34.5t-37.5 86.5t37.5 86.5t92.5 34.5q54 0 91 -34.5zM105 667q13 -13 35 -13q21 0 34.5 13t13.5 33q0 21 -13.5 33.5t-34.5 12.5q-22 0 -35 -12.5t-13 -33.5q0 -20 13 -33z" />
    <glyph glyph-name="ogonek" unicode="&#x2db;" horiz-adv-x="234" 
d="M137 -35.5q-18 -17.5 -18 -42.5q0 -17 11.5 -26.5t30.5 -9.5q26 0 50 11l13 -68q-41 -17 -86 -17q-55 0 -89.5 23.5t-34.5 70.5q0 48 41 78t117 53l23 -33q-40 -22 -58 -39.5z" />
    <glyph glyph-name="tilde" unicode="&#x2dc;" horiz-adv-x="382" 
d="M157 750q18 -8 39 -23q18 -12 29.5 -17.5t24.5 -5.5q21 0 31.5 13t10.5 34h79q1 -6 1 -17q0 -56 -29 -95.5t-77 -39.5q-24 0 -42 8t-39 23q-18 12 -29 17.5t-24 5.5q-42 0 -42 -47h-79q-1 6 -1 18q0 56 28.5 95t77.5 39q23 0 41 -8z" />
    <glyph glyph-name="hungarumlaut" unicode="&#x2dd;" horiz-adv-x="413" 
d="M72 780h133l-85 -178h-110zM272 780h132l-85 -178h-110z" />
    <glyph glyph-name="uni0326" unicode="&#x326;" horiz-adv-x="0" 
d="M117 -213q-33 3 -55.5 27t-22.5 58q0 36 23.5 60.5t59.5 24.5q37 0 58 -26t21 -69q0 -147 -148 -225v59q50 33 64 91z" />
    <glyph glyph-name="uni03A9" unicode="&#x3a9;" horiz-adv-x="797" 
d="M574.5 679.5q74.5 -45.5 114.5 -124.5t40 -176q0 -83 -33 -155.5t-77 -115.5h156v-108h-306v99q59 39 100.5 115.5t41.5 158.5q0 71 -25.5 126.5t-73.5 86.5t-113 31q-66 0 -114.5 -31t-74 -86.5t-25.5 -126.5q0 -82 41.5 -158.5t100.5 -115.5v-99h-306v108h157
q-45 43 -77.5 115t-32.5 156q0 98 40 176.5t115 124t176 45.5t175.5 -45.5z" />
    <glyph glyph-name="uni03BC" unicode="&#x3bc;" horiz-adv-x="606" 
d="M74 516h140v-295q0 -100 86 -100q43 0 67.5 27t24.5 73v295h140v-516h-132v53q-17 -27 -50.5 -45t-82.5 -18q-16 0 -30 4.5t-23 13.5v-263h-140v771z" />
    <glyph glyph-name="pi" unicode="&#x3c0;" horiz-adv-x="715" 
d="M415 24q-30 32 -30 88q0 8 2 28l23 197h-96l-25 -196q-6 -45 -16.5 -77.5t-25.5 -63.5h-132q26 52 39 86t20 78l21 173h-17q-52 0 -90 -48l-64 95q39 40 77 58.5t104 18.5h256q53 0 78.5 17t43.5 52l108 -62q-17 -57 -53.5 -94t-99.5 -37h-17l-22 -188q-1 -5 -1 -13
q0 -28 26 -28q17 0 41 18l62 -82q-25 -26 -54.5 -39t-68.5 -13q-59 0 -89 32z" />
    <glyph glyph-name="uni10D0" unicode="&#x10d0;" horiz-adv-x="547" 
d="M360.5 408.5q16.5 -22.5 50.5 -50.5q31 -26 49.5 -47t32 -53t13.5 -77q0 -59 -31.5 -102.5t-85 -66.5t-117.5 -23q-101 0 -166 49.5t-65 138.5q0 26 7 51l144 -6q-3 -16 -3 -32q0 -40 22 -64.5t62 -24.5q38 0 61 23t23 62q0 32 -17 53.5t-52 48.5q-32 25 -51 45.5
t-31 52.5t-9 77h147q0 -32 16.5 -54.5z" />
    <glyph glyph-name="uni10D1" unicode="&#x10d1;" horiz-adv-x="603" 
d="M173.5 19q-57.5 30 -90.5 85t-33 127q0 92 52 155t137 81v65q0 24 -13.5 38t-41.5 32q-28 17 -45 32.5t-28 43.5t-8 72h146q0 -33 15.5 -50.5t47.5 -38.5q36 -22 54.5 -44.5t18.5 -65.5v-90q76 -23 121.5 -84t45.5 -146q0 -73 -33 -128t-90 -84.5t-127 -29.5
q-71 0 -128.5 30zM227.5 136q27.5 -34 74.5 -34q46 0 73 34t27 95t-27 95.5t-73 34.5q-47 0 -74.5 -34.5t-27.5 -95.5t27.5 -95z" />
    <glyph glyph-name="uni10D2" unicode="&#x10d2;" horiz-adv-x="609" 
d="M171.5 -279q-59.5 32 -93 90t-33.5 134q0 69 29 125t83 91t125 41l40 1q20 19 31 39t11 47q0 36 -17.5 54t-49.5 18t-50.5 -19.5t-19.5 -55.5l-155 5q1 52 29 94t78.5 66t117.5 24t117 -22.5t76.5 -62t26.5 -87.5q0 -81 -82 -127v-8q67 -33 98 -91t31 -132
q0 -76 -34 -134t-93 -90t-132 -32q-74 0 -133.5 32zM225 -160.5q30 -37.5 79 -37.5q50 0 80 37.5t30 105.5t-30.5 106.5t-79.5 38.5t-79 -38.5t-30 -106.5t30 -105.5z" />
    <glyph glyph-name="uni10D3" unicode="&#x10d3;" horiz-adv-x="876" 
d="M477.5 -218q-51.5 32 -121.5 32h-14q-39 0 -75.5 -7.5t-78.5 -26.5l-42 88q32 14 64.5 20.5t76.5 7.5v9q-106 25 -171.5 107t-65.5 208q0 84 29 141.5t77.5 85t106.5 27.5q43 0 78.5 -17.5t65.5 -57.5h8q29 37 74.5 56.5t103.5 19.5q65 0 118 -29t84 -81.5t31 -121.5
q0 -67 -31 -119.5t-85.5 -81.5t-122.5 -29q-67 0 -121 29t-85.5 81t-31.5 120q0 52 18 91q-33 26 -68 26q-46 0 -73 -35t-27 -110q0 -209 227 -271l39 -11q94 -26 152.5 -86.5t66.5 -146.5l-146 -5q-9 55 -60.5 87zM519.5 155.5q24.5 -32.5 67.5 -32.5q44 0 68.5 32.5
t24.5 87.5q0 57 -24.5 89.5t-68.5 32.5q-43 0 -67.5 -32.5t-24.5 -89.5q0 -55 24.5 -87.5z" />
    <glyph glyph-name="uni10D4" unicode="&#x10d4;" horiz-adv-x="592" 
d="M157.5 -280.5q-55.5 30.5 -84 84t-28.5 123.5q0 51 16 95l144 -7q-10 -44 -10 -80q0 -66 25 -99.5t70 -33.5q44 0 69 33t25 97v319q0 58 -23 84t-61 26q-37 0 -59 -25.5t-22 -75.5q0 -23 6 -63l-150 -5q-7 44 -7 77q0 62 29 109t81 72t118 25q68 0 121 -27t83 -78.5
t30 -122.5v-316q0 -110 -61.5 -176t-177.5 -66q-78 0 -133.5 30.5z" />
    <glyph glyph-name="uni10D5" unicode="&#x10d5;" horiz-adv-x="597" 
d="M161 -281q-57 30 -86.5 81.5t-29.5 114.5q0 35 8 63l145 -6q-4 -19 -4 -44q0 -59 28.5 -92.5t76.5 -33.5t75 32.5t27 90.5q0 56 -28 87.5t-78 31.5h-18v116h21q45 0 68.5 26t23.5 71t-25.5 72t-65.5 27q-38 0 -62 -27t-24 -71q0 -9 2 -31l-147 -5q-4 28 -4 47
q0 60 30.5 107t84 72.5t120.5 25.5t121.5 -26t86 -73t31.5 -107q0 -127 -122 -164v-8q66 -15 100.5 -64.5t34.5 -122.5q0 -60 -29.5 -110t-87 -80t-137.5 -30q-79 0 -136 30z" />
    <glyph glyph-name="uni10D6" unicode="&#x10d6;" horiz-adv-x="661" 
d="M231.5 19q-57.5 30 -90 85t-32.5 127q0 73 34 129q-64 23 -100.5 74t-36.5 118q0 61 29.5 108.5t81.5 74t119 26.5q66 0 118 -25.5t81 -69.5t29 -97q0 -59 -36 -104q83 -19 133 -81.5t50 -152.5q0 -73 -33 -128t-90 -84.5t-128 -29.5t-128.5 30zM169.5 482
q20.5 -29 60.5 -40q30 17 69 25q23 35 23 84q0 46 -23.5 72t-63.5 26q-39 0 -62.5 -26t-23.5 -71q0 -41 20.5 -70zM286 135.5q27 -33.5 74 -33.5q46 0 73.5 34t27.5 95t-27.5 95.5t-73.5 34.5q-47 0 -74 -34.5t-27 -95.5q0 -62 27 -95.5z" />
    <glyph glyph-name="uni10D7" unicode="&#x10d7;" horiz-adv-x="889" 
d="M169.5 19q-55.5 30 -87.5 85t-32 128q0 72 31.5 127t86.5 85.5t123 30.5q60 0 108 -21t76 -63h8q63 83 162 83q86 0 140 -62t54 -190q0 -62 -13 -114t-37 -108h-143q23 57 33.5 107t10.5 107q0 146 -90 146q-44 0 -79 -35q18 -42 18 -94q0 -73 -32.5 -128t-88 -84.5
t-123.5 -29.5q-70 0 -125.5 30zM225 135.5q25 -33.5 70 -33.5q44 0 69 33.5t25 95.5t-25 96.5t-69 34.5q-45 0 -70 -34.5t-25 -96.5t25 -95.5z" />
    <glyph glyph-name="uni10D8" unicode="&#x10d8;" horiz-adv-x="585" 
d="M57.5 108.5q-12.5 52.5 -12.5 110.5q0 82 31.5 140t87 87t128.5 29q111 0 179 -66t68 -190q0 -58 -12.5 -110.5t-34.5 -108.5h-135q18 58 26 106t8 106q0 73 -25.5 111t-73.5 38q-47 0 -72.5 -38.5t-25.5 -110.5q0 -56 8.5 -105.5t25.5 -106.5h-136q-22 56 -34.5 108.5z
" />
    <glyph glyph-name="uni10D9" unicode="&#x10d9;" horiz-adv-x="585" 
d="M481.5 395q9.5 -34 9.5 -77q0 -61 -29 -103t-85 -62v-8q74 -15 116 -73t42 -137q0 -72 -30 -127.5t-87.5 -87t-137.5 -31.5q-79 0 -135 30t-84.5 81.5t-28.5 116.5q0 33 8 61l144 -6q-3 -18 -3 -40q0 -63 25.5 -96.5t73.5 -33.5q50 0 77.5 37.5t27.5 105.5
q0 67 -29 104.5t-82 37.5h-39v116h18q46 0 68.5 31t22.5 83q0 37 -9 71t-28 75l143 9q22 -43 31.5 -77z" />
    <glyph glyph-name="uni10DA" unicode="&#x10da;" horiz-adv-x="1153" 
d="M483 -186l-37 1q-68 1 -130.5 -14t-113.5 -40l-44 94q39 17 72.5 26t82.5 12v9q-121 16 -192 97t-71 207q0 90 28 150.5t75 89.5t103 29q57 0 100 -28t61 -83h8q15 54 57 82.5t95 28.5q55 0 100.5 -28.5t58.5 -82.5h8q16 55 58.5 83t99.5 28q90 0 145 -64t55 -182
q0 -89 -30 -200l-146 8q13 41 20.5 90.5t7.5 96.5q0 65 -21.5 98t-60.5 33q-34 0 -54.5 -24t-20.5 -76v-144h-142v144q0 51 -22.5 75.5t-55.5 24.5q-35 0 -57.5 -25.5t-22.5 -74.5v-144h-143v144q0 52 -20 76t-52 24q-37 0 -60 -35t-23 -116q0 -232 274 -261l78 -9
q284 -33 302 -234l-146 -5q-18 113 -224 119z" />
    <glyph glyph-name="uni10DB" unicode="&#x10db;" horiz-adv-x="608" 
d="M165.5 20q-56.5 31 -86 86t-29.5 126q0 70 26.5 125.5t74 86.5t107.5 31q48 0 85 -19.5t58 -53.5h8q-10 41 -8 82l1 62q2 50 -26.5 76.5t-72.5 26.5q-43 0 -70.5 -24.5t-28.5 -59.5l-149 4q0 53 32.5 97t88.5 69.5t124 25.5q70 0 126 -28t88 -78t32 -115v-308
q0 -71 -29.5 -126t-85.5 -86t-132 -31q-77 0 -133.5 31zM227.5 136.5q27.5 -34.5 71.5 -34.5q46 0 74 33t28 86v21q0 56 -27.5 87.5t-74.5 31.5q-45 0 -72 -34t-27 -95t27.5 -95.5z" />
    <glyph glyph-name="uni10DC" unicode="&#x10dc;" horiz-adv-x="608" 
d="M177 20q-56 31 -85.5 86t-29.5 126v319q0 96 58.5 152t159.5 56q38 0 81 -5q52 -4 78 -4q43 0 79 8v-127q-36 -12 -72 -12q-32 0 -78 11q-48 10 -73 10q-43 0 -67 -23t-22 -65l1 -68q3 -36 -8 -82h8q21 34 58 53t85 19q60 0 107.5 -31t74 -86t26.5 -125q0 -71 -29.5 -126
t-86 -86t-133.5 -31q-76 0 -132 31zM235 135q28 -33 74 -33q44 0 71.5 34.5t27.5 95.5t-27 95t-72 34q-47 0 -74.5 -31.5t-27.5 -87.5v-21q0 -53 28 -86z" />
    <glyph glyph-name="uni10DD" unicode="&#x10dd;" horiz-adv-x="922" 
d="M62 111q-12 51 -12 111q0 86 29 143t76.5 83.5t105.5 26.5q59 0 104 -27.5t65 -88.5h8q19 58 64 87t104 29q57 0 103.5 -25.5t74.5 -78t28 -129.5q0 -39 -6 -70t-19 -64v-3h120l-11 -105h-277q23 57 33.5 107t10.5 107q0 77 -22.5 112t-61.5 35q-36 0 -56.5 -27.5
t-20.5 -83.5v-140h-143v140q0 57 -20 84t-56 27q-84 0 -84 -148q0 -56 10.5 -107t31.5 -106h-144q-23 60 -35 111z" />
    <glyph glyph-name="uni10DE" unicode="&#x10de;" horiz-adv-x="588" 
d="M164 16q-56 27 -87.5 75t-31.5 109q0 21 6 45l144 -6q-2 -20 -2 -30q0 -45 25 -76t73 -31t72.5 29.5t24.5 83.5q0 52 -27 79t-75 27h-37v120h38q79 0 79 65q0 28 -16.5 44.5t-52.5 37.5q-34 21 -55 38.5t-36.5 48.5t-15.5 78l154 6q0 -31 19 -51.5t59 -46.5
q33 -22 52.5 -39t33.5 -43t14 -62q0 -50 -28.5 -84.5t-88.5 -49.5v-8q61 -13 97 -61t36 -116q0 -58 -29 -105.5t-84.5 -75.5t-132.5 -28q-72 0 -128 27z" />
    <glyph glyph-name="uni10DF" unicode="&#x10df;" horiz-adv-x="626" 
d="M183.5 -281q-56.5 30 -85.5 81.5t-29 116.5q0 33 8 61l144 -6q-4 -28 -4 -44q0 -60 27.5 -93t75.5 -33t73.5 32t25.5 91v428l-186 -38v-8q45 -12 70.5 -39.5t25.5 -70.5q0 -62 -47 -96.5t-121 -34.5q-59 0 -111 26l26 82q28 -13 56 -13q27 0 45.5 15t18.5 44
q0 27 -18.5 42t-47.5 15q-18 0 -36 -4l-5 124l330 66h146v-552q0 -61 -28 -111.5t-83.5 -80.5t-134.5 -30t-135.5 30z" />
    <glyph glyph-name="uni10E0" unicode="&#x10e0;" horiz-adv-x="861" 
d="M63 130q-13 76 -13 171q1 227 113.5 324.5t274.5 116.5l160 19v-130l-157 -19q-132 -16 -203 -67t-93 -154h8q47 84 138 84q47 0 86 -29.5t52 -86.5h9q19 58 63.5 87t104.5 29q57 0 103.5 -26.5t74 -83t27.5 -140.5q0 -61 -12 -114t-35 -111h-144q22 55 32.5 106
t10.5 107q0 76 -23 112t-61 36q-36 0 -56.5 -27.5t-20.5 -84.5v-139h-143v139q0 57 -20.5 84.5t-56.5 27.5q-39 0 -61.5 -35.5t-22.5 -112.5q0 -56 10.5 -107t32.5 -106h-144q-21 54 -34 130z" />
    <glyph glyph-name="uni10E1" unicode="&#x10e1;" horiz-adv-x="605" 
d="M131 52.5q-64 63.5 -64 170.5v527h145v-532q0 -55 27 -85.5t70 -30.5q42 0 69.5 29.5t27.5 77.5q0 32 -7.5 55.5t-21.5 52.5q-18 38 -25.5 68t-4.5 78h146q0 -35 7 -59.5t21 -59.5q16 -37 24.5 -67t8.5 -76q0 -58 -29.5 -106.5t-85 -77t-129.5 -28.5q-115 0 -179 63.5z
" />
    <glyph glyph-name="uni10E2" unicode="&#x10e2;" horiz-adv-x="834" 
d="M228 -264q-86 47 -136.5 135.5t-50.5 209.5q0 109 41 192.5t113 133t163 62.5q-11 33 -11 67v68h140v-68q0 -37 -10 -67q90 -13 162 -62.5t113 -133t41 -192.5q0 -121 -50 -209.5t-135.5 -135.5t-189.5 -47t-190 47zM220.5 -71q29.5 -63 80.5 -94.5t117 -31.5
q65 0 116 31.5t80 94.5t29 152q0 121 -45 190t-126 86q15 -39 15 -91v-185h-139v185q0 52 15 91q-82 -17 -127 -86t-45 -190q0 -89 29.5 -152z" />
    <glyph glyph-name="uni10E3" unicode="&#x10e3;" horiz-adv-x="651" 
d="M200 -280q-58 31 -88 85t-30 122q0 50 15 95l145 -7q-10 -37 -10 -80q0 -62 28 -97.5t78 -35.5q48 0 77 36t29 97v357q0 33 -18 51t-46 18t-45.5 -18t-17.5 -51v-137h-140v125q0 31 -16 48t-45 17q-8 0 -26 -2t-29 -2q-16 0 -29 4v124q15 -4 34 -4q11 0 33 2t32 2
q92 0 122 -89h8q17 49 58.5 72t91.5 23q53 0 94 -24t63 -65.5t22 -92.5v-359q0 -110 -63.5 -177.5t-186.5 -67.5q-82 0 -140 31z" />
    <glyph glyph-name="uni10E4" unicode="&#x10e4;" horiz-adv-x="872" 
d="M356 -281q-68 30 -105 81.5t-37 114.5l148 13q0 -59 40.5 -92.5t107.5 -33.5q66 0 103 34t37 91q0 46 -21.5 73.5t-54.5 33.5l-22 3l16 116h20q42 0 66 30.5t24 76.5q0 48 -27 74t-69 26q-44 0 -77 -26q18 -39 18 -89q0 -69 -31.5 -121.5t-86 -81.5t-121.5 -29
q-68 0 -122.5 29t-85.5 82t-31 121t31 120t84.5 81t120.5 29q57 0 102.5 -20.5t72.5 -55.5h9q28 39 70.5 57t89.5 18q55 0 101.5 -25t73.5 -70t27 -103q0 -65 -38 -115t-106 -65v-9q56 -15 86.5 -60t30.5 -107q0 -67 -35 -119.5t-99.5 -82t-151.5 -29.5q-90 0 -158 30z
M216.5 155.5q24.5 -32.5 67.5 -32.5t67.5 32.5t24.5 88.5q0 57 -24.5 89t-67.5 32t-67.5 -32.5t-24.5 -88.5t24.5 -88.5z" />
    <glyph glyph-name="uni10E5" unicode="&#x10e5;" horiz-adv-x="597" 
d="M157.5 -280.5q-55.5 30.5 -84 84t-28.5 123.5q0 51 16 95l144 -7q-10 -44 -10 -80q0 -66 25 -99.5t70 -33.5q44 0 69 33t25 97v310q0 55 -25 87t-61 32t-57.5 -25.5t-21.5 -75.5q0 -23 6 -63l-150 -5q-7 44 -7 77q0 62 23 109t63.5 72t92.5 25q46 0 81.5 -19.5
t55.5 -53.5h9q-9 39 -9 82v161h-119l11 105h254v-819q0 -110 -61.5 -176t-177.5 -66q-78 0 -133.5 30.5z" />
    <glyph glyph-name="uni10E6" unicode="&#x10e6;" horiz-adv-x="862" 
d="M463.5 -218q-48.5 32 -111.5 32h-11q-39 0 -75.5 -7.5t-77.5 -26.5l-42 88q61 27 140 28v9q-109 25 -172.5 101.5t-63.5 209.5q0 88 29 146t76.5 85t105.5 27q59 0 104 -27.5t65 -87.5h8q19 58 63.5 86.5t104.5 28.5q89 0 147 -61t58 -184q0 -89 -30 -200l-146 8
q28 89 28 185q0 70 -23 104.5t-61 34.5q-36 0 -56.5 -27.5t-20.5 -84.5v-139h-143v139q0 57 -20 84.5t-56 27.5q-38 0 -61 -35.5t-23 -109.5q0 -122 57 -184t157 -88l39 -10q93 -25 150 -86t65 -148l-146 -5q-9 55 -57.5 87z" />
    <glyph glyph-name="uni10E7" unicode="&#x10e7;" 
d="M111 -253.5q-66 57.5 -66 157.5q0 21 7 47l144 -9q-3 -14 -3 -28q0 -51 24.5 -81.5t73.5 -30.5t76.5 33t25.5 97l-3 88q0 43 9 82h-9q-20 -33 -55.5 -53t-78.5 -20q-93 0 -151 61.5t-58 177.5q0 61 8.5 104t27.5 91h145q-31 -89 -31 -178q0 -142 93 -142q45 0 72.5 31.5
t27.5 87.5v201h146v-525q0 -116 -65 -182.5t-181 -66.5q-113 0 -179 57.5z" />
    <glyph glyph-name="uni10E8" unicode="&#x10e8;" horiz-adv-x="648" 
d="M205 20q-56 31 -85.5 85t-29.5 122q0 66 26.5 120t74 85t107.5 31q48 0 85 -19.5t58 -53.5h8q-10 46 -8 82l1 110q1 32 -14.5 49.5t-41.5 17.5t-41.5 -17.5t-15.5 -46.5v-55h-140v55q0 28 -13.5 44.5t-38.5 16.5q-39 0 -61 -37l-99 62q25 45 65 67.5t91 22.5
q46 0 81.5 -22.5t51.5 -66.5h8q17 44 56.5 66.5t89.5 22.5q76 0 121 -45.5t45 -116.5v-374q0 -67 -29.5 -121t-85.5 -84.5t-133 -30.5t-133 31zM265.5 135.5q27.5 -33.5 71.5 -33.5q45 0 73.5 32t28.5 81v21q0 52 -28 82.5t-74 30.5q-45 0 -72 -33t-27 -90t27.5 -90.5z" />
    <glyph glyph-name="uni10E9" unicode="&#x10e9;" horiz-adv-x="612" 
d="M128 706q61 55 160 55q59 0 106.5 -20.5t75 -58t27.5 -86.5q0 -90 -98 -140v-9q82 -12 122 -68.5t40 -150.5q0 -109 -49 -228h-135q34 110 34 215q0 147 -97 147q-47 0 -74.5 -31.5t-27.5 -87.5v-243h-145v557q0 94 61 149zM212 403q12 18 26 31t34 26q40 24 59.5 51.5
t19.5 64.5q0 35 -19 54.5t-49 19.5q-32 0 -52.5 -21.5t-19.5 -62.5l1 -81q2 -41 -8 -82h8z" />
    <glyph glyph-name="uni10EA" unicode="&#x10ea;" horiz-adv-x="753" 
d="M139.5 -210.5q-98.5 100.5 -98.5 311.5q0 209 100 363h143q-93 -166 -93 -363q0 -164 60.5 -231.5t151.5 -67.5q72 0 116 36.5t44 91.5q0 56 -35.5 86t-98.5 30h-73v116h102q48 0 71.5 19.5t23.5 54.5q0 24 -11.5 40.5t-37.5 41.5q-35 32 -53.5 63t-17.5 83h148
q2 -28 15.5 -48t40.5 -47q33 -32 49.5 -59.5t16.5 -70.5q0 -44 -32 -81t-100 -52v-8q70 -17 105.5 -64.5t35.5 -115.5q0 -61 -39 -113.5t-110.5 -84t-163.5 -31.5q-161 0 -259.5 100.5z" />
    <glyph glyph-name="uni10EB" unicode="&#x10eb;" horiz-adv-x="613" 
d="M165.5 20q-56.5 31 -86 86t-29.5 126q0 70 26.5 125.5t74 86.5t107.5 31q48 0 85 -19.5t58 -53.5h8q-8 40 -8 82v266h145v-518q0 -71 -29.5 -126t-85.5 -86t-132 -31q-77 0 -133.5 31zM227.5 136.5q27.5 -34.5 71.5 -34.5q46 0 74 33t28 86v21q0 56 -27.5 87.5
t-74.5 31.5q-45 0 -72 -34t-27 -95t27.5 -95.5z" />
    <glyph glyph-name="uni10EC" unicode="&#x10ec;" horiz-adv-x="667" 
d="M29 582q0 82 50.5 130.5t132.5 48.5q51 0 90.5 -22.5t56.5 -66.5h8q16 44 51.5 66.5t81.5 22.5q56 0 92 -21.5t60 -67.5l-107 -63q-22 37 -60 37q-25 0 -38.5 -16.5t-13.5 -44.5v-55h-140v55q0 29 -15.5 46.5t-41.5 17.5t-41.5 -17.5t-15.5 -49.5q2 -51 16 -106l15 -53
q9 -30 13 -68h8q23 52 66.5 80t105.5 28t106.5 -27t67 -73.5t22.5 -103.5q0 -91 -40 -192l-147 -367h-141l-214 711q-28 91 -28 171zM361 -154h8l63 273q16 66 16 117t-23.5 82t-70.5 31q-39 0 -65 -25t-26 -73q0 -24 7 -51z" />
    <glyph glyph-name="uni10ED" unicode="&#x10ed;" horiz-adv-x="728" 
d="M177.5 -281q-55.5 30 -84.5 81.5t-29 115.5q0 33 7 62l145 -6q-4 -19 -4 -44q0 -59 26.5 -92.5t70.5 -33.5t69 33.5t25 94.5v156q0 50 8 83l-50 -36q-61 -43 -136 -43q-48 0 -90 23.5t-68 67.5t-26 101q0 55 26 99t68 69t90 25q34 0 69.5 -11t66.5 -32l50 -36
q-9 44 -9 97v257h146v-256q0 -40 -1.5 -69.5t-7.5 -54.5l137 105l17 -110l-155 -79v-8l155 -79l-17 -109l-137 105q9 -39 9 -115v-149q0 -109 -62.5 -175.5t-176.5 -66.5q-76 0 -131.5 30zM205 222.5q24 -21.5 60 -21.5q22 0 42 9t51 30l60 38v8l-60 38q-33 21 -52.5 30
t-40.5 9q-37 0 -60.5 -22.5t-23.5 -58.5q0 -38 24 -59.5z" />
    <glyph glyph-name="uni10EE" unicode="&#x10ee;" horiz-adv-x="613" 
d="M182 20q-56 31 -85.5 86t-29.5 126v518h145v-266q0 -42 -8 -82h8q21 34 57.5 53t84.5 19l57 120l108 -39l-67 -106q52 -28 81.5 -85.5t29.5 -131.5q0 -71 -29.5 -126t-86 -86t-133.5 -31q-76 0 -132 31zM240 135q28 -33 74 -33q44 0 71.5 34.5t27.5 95.5t-27 95t-72 34
q-47 0 -74.5 -31.5t-27.5 -87.5v-21q0 -53 28 -86z" />
    <glyph glyph-name="uni10EF" unicode="&#x10ef;" horiz-adv-x="802" 
d="M39 -265l50 95q20 -13 49.5 -20.5t60.5 -7.5q54 0 88.5 23.5t34.5 66.5q0 42 -32 65t-87 23h-87v111l248 155l-40 44l-21 27q-17 23 -29.5 33.5t-32.5 10.5q-27 0 -41.5 -17t-14.5 -46q0 -15 5 -35h-144q-8 24 -8 50q0 42 22.5 79t69 60t113.5 23q57 0 101 -19.5
t80 -61.5l63 -71l52 32q75 47 75 108h148q0 -59 -24.5 -101t-80.5 -75l-90 -54l73 -82q44 -50 92 -50q14 0 34 5v-106q-38 -11 -74 -11q-48 0 -89.5 18.5t-72.5 54.5l-88 97l-152 -90v-8q49 -3 90 -24.5t66 -60.5t25 -90q0 -54 -29 -99t-87 -71.5t-141 -26.5q-110 0 -175 46
z" />
    <glyph glyph-name="uni10F0" unicode="&#x10f0;" horiz-adv-x="586" 
d="M155.5 13.5q-58.5 24.5 -89 68.5t-26.5 101l157 -4q-1 -36 24.5 -58.5t66.5 -22.5q43 0 68 20t25 54q0 33 -22.5 52.5t-64.5 19.5h-42v96h64q24 0 39.5 12.5t15.5 34.5t-15.5 34t-39.5 12h-64v96h59q48 0 48 39q0 18 -13 29t-40 25q-29 15 -48 29t-32.5 38t-13.5 61
l156 6q1 -23 16 -38t48 -35q40 -24 60.5 -45t20.5 -59q0 -30 -21.5 -51.5t-62.5 -31.5v-9q46 -6 71 -32t25 -66t-25 -66.5t-71 -34.5v-9q48 -8 77.5 -41.5t29.5 -82.5q0 -47 -29 -84.5t-85 -59.5t-133 -22q-75 0 -133.5 24.5z" />
    <glyph glyph-name="uni1C90" unicode="&#x1c90;" horiz-adv-x="621" 
d="M393 667q11 -36 28.5 -63t46.5 -65q34 -44 54.5 -77.5t35 -82.5t14.5 -114q0 -88 -35.5 -150t-96 -93.5t-135.5 -31.5t-135 32t-94.5 94t-34.5 150q0 52 14 110l145 -5q-10 -47 -10 -93q0 -72 30.5 -114t85.5 -42q53 0 83.5 37.5t31.5 108.5q0 57 -20.5 97.5t-62.5 95.5
q-35 45 -56.5 81t-36 87t-12.5 119h149q0 -45 11 -81z" />
    <glyph glyph-name="uni1C91" unicode="&#x1c91;" horiz-adv-x="632" 
d="M174.5 20.5q-62.5 30.5 -98 87t-35.5 130.5q0 97 59.5 162.5t156.5 81.5v60q0 23 -9.5 37t-30.5 33q-29 26 -44 54t-10 82h147q0 -30 11 -47.5t33 -36.5q25 -21 38 -42.5t13 -60.5v-86q84 -23 134.5 -86t50.5 -151q0 -74 -36 -130.5t-98.5 -87t-140.5 -30.5t-140.5 30.5z
M225.5 149.5q34.5 -32.5 89.5 -32.5q56 0 90.5 32.5t34.5 88.5q0 55 -34.5 88t-90.5 33q-55 0 -89.5 -33t-34.5 -88q0 -56 34.5 -88.5z" />
    <glyph glyph-name="uni1C92" unicode="&#x1c92;" horiz-adv-x="639" 
d="M178.5 20.5q-62.5 30.5 -98 87t-35.5 130.5q0 104 66 170t174 78q49 5 71 24.5t22 55.5q0 30 -17.5 48t-49.5 18t-50 -18.5t-18 -50.5l-153 5q2 53 30 96.5t78 68.5t114 25t113.5 -24.5t76 -63.5t26.5 -83q0 -91 -74 -129q65 -29 102.5 -86.5t37.5 -133.5
q0 -74 -36 -130.5t-98.5 -87t-140.5 -30.5t-140.5 30.5zM229.5 149.5q34.5 -32.5 89.5 -32.5t90 32.5t35 88.5q0 55 -35 88t-90 33t-89.5 -33t-34.5 -88q0 -56 34.5 -88.5z" />
    <glyph glyph-name="uni1C93" unicode="&#x1c93;" horiz-adv-x="911" 
d="M504 78.5q-52 23.5 -128 23.5h-247v111h75q-70 40 -112.5 114.5t-42.5 164.5q0 89 31 148.5t83 88.5t115 29q56 0 104.5 -24.5t70.5 -70.5q23 44 72 69.5t108 25.5q68 0 122.5 -30t86 -84t31.5 -125q0 -68 -32 -121.5t-88.5 -83t-127.5 -29.5t-127.5 29t-89 80.5
t-32.5 117.5v20q0 45 -22 72.5t-60 27.5q-44 0 -69 -34.5t-25 -107.5q0 -125 68.5 -190t169.5 -75l33 -3q110 -12 174.5 -67.5t71.5 -154.5h-151q-10 55 -62 78.5zM550.5 440q28.5 -31 74.5 -31q45 0 73 30.5t28 81.5t-27.5 81.5t-73.5 30.5t-74.5 -30.5t-28.5 -81.5
q0 -50 28.5 -81z" />
    <glyph glyph-name="uni1C94" unicode="&#x1c94;" horiz-adv-x="642" 
d="M171 21q-60 31 -93 85.5t-33 124.5q0 40 13 82l143 -6q-7 -37 -7 -62q0 -57 31 -90.5t86 -33.5q53 0 85.5 31t32.5 90v277q-1 53 -31 80.5t-76 27.5q-50 0 -78 -28t-28 -78q0 -22 4 -42l-149 -4q-6 33 -6 66q0 65 34 114.5t92.5 76t130.5 26.5q73 0 131 -28.5t91 -82.5
t33 -127v-278q0 -76 -32 -133t-92 -88t-143 -31q-79 0 -139 31z" />
    <glyph glyph-name="uni1C95" unicode="&#x1c95;" horiz-adv-x="644" 
d="M456.5 731q59.5 -27 93.5 -77t34 -118q0 -54 -26 -92.5t-77 -58.5q52 -16 82.5 -62.5t30.5 -109.5t-32.5 -113.5t-94 -80t-144.5 -29.5q-86 0 -148.5 31t-96 86.5t-33.5 125.5q0 33 7 62l145 -6q-4 -19 -4 -42q0 -63 34.5 -97t93.5 -34q57 0 90.5 30.5t33.5 82.5
q0 51 -32.5 78t-90.5 27h-25v118h35q48 0 75 23.5t27 64.5q0 42 -30.5 67.5t-79.5 25.5q-52 0 -80.5 -28t-28.5 -77q0 -10 2 -32l-149 -4q-3 23 -3 47q0 65 34 114.5t93 77t132 27.5t132.5 -27z" />
    <glyph glyph-name="uni1C96" unicode="&#x1c96;" horiz-adv-x="669" 
d="M212.5 20.5q-62.5 30.5 -98 87t-35.5 130.5q0 97 69 158q-51 16 -85 60t-34 101q0 59 29.5 104.5t81.5 70.5t119 25t120.5 -24t83.5 -66.5t30 -96.5q0 -33 -10 -60.5t-34 -51.5q79 -18 128.5 -77.5t49.5 -142.5q0 -74 -36 -130.5t-98 -87t-140 -30.5t-140.5 30.5z
M199 498q25 -23 61 -23q38 0 62.5 23t24.5 56t-24.5 56.5t-62.5 23.5q-37 0 -61.5 -23.5t-24.5 -56.5t25 -56zM262.5 150q34.5 -33 89.5 -33q56 0 91 32.5t35 88.5q0 55 -35 88t-91 33q-55 0 -89.5 -33t-34.5 -88t34.5 -88z" />
    <glyph glyph-name="uni1C97" unicode="&#x1c97;" horiz-adv-x="952" 
d="M183 23q-58 33 -91 96t-33 150v211q0 87 31.5 150t88 96t130.5 33q135 0 188 -102q24 53 72 77.5t102 24.5q101 0 161 -67.5t60 -194.5v-125q0 -110 -14 -197.5t-41 -174.5h-146q26 88 39.5 177.5t13.5 191.5v138q0 61 -23.5 91t-64.5 30t-63 -30t-22 -91v-241
q0 -86 -33.5 -148.5t-91.5 -95t-131 -32.5q-74 0 -132 33zM236 157.5q28 -36.5 79 -36.5t79 36.5t28 110.5v213q0 74 -28 110.5t-79 36.5t-79 -36.5t-28 -111.5v-211q0 -75 28 -111.5z" />
    <glyph glyph-name="uni1C98" unicode="&#x1c98;" horiz-adv-x="644" 
d="M73.5 172.5q-14.5 86.5 -14.5 192.5v115q0 87 34 150t93.5 96t135.5 33q75 0 134.5 -33t93.5 -95.5t34 -148.5v-117q0 -106 -14.5 -193.5t-41.5 -171.5h-144q52 175 52 359v115q0 74 -30.5 114t-83.5 40t-83.5 -40t-30.5 -115v-114q0 -184 52 -359h-145
q-27 86 -41.5 172.5z" />
    <glyph glyph-name="uni1C99" unicode="&#x1c99;" horiz-adv-x="627" 
d="M161 21q-62 31 -95 86.5t-33 125.5q0 33 7 62l145 -6q-4 -19 -4 -42q0 -62 34 -96.5t91 -34.5q55 0 88.5 31.5t33.5 84.5q0 52 -31.5 80.5t-88.5 28.5h-39v123h49q49 0 74.5 21.5t25.5 59.5q0 37 -27 62t-74 27l8 122q72 0 127 -26.5t85 -73.5t30 -108q0 -52 -25.5 -93.5
t-75.5 -60.5q51 -16 81.5 -65t30.5 -112q0 -65 -32.5 -116.5t-94 -81t-144.5 -29.5q-84 0 -146 31z" />
    <glyph glyph-name="uni1C9A" unicode="&#x1c9a;" horiz-adv-x="1183" 
d="M657 87.5q-64 23.5 -166 23.5h-341v111h79q-85 35 -132.5 110.5t-47.5 176.5q0 79 31 135.5t83 85.5t114 29q52 0 95 -22t66 -73q22 50 64.5 72.5t92.5 22.5q48 0 92.5 -23t65.5 -72q24 50 67 72.5t96 22.5q62 0 113 -29.5t81.5 -91.5t30.5 -156q0 -84 -31 -189l-147 8
q28 84 28 183q0 74 -23.5 109.5t-62.5 35.5q-37 0 -58.5 -27.5t-21.5 -81.5v-141h-148v155q0 46 -22.5 70.5t-59.5 24.5q-38 0 -59 -24.5t-21 -70.5v-155h-149v141q0 54 -21.5 81.5t-56.5 27.5q-39 0 -63.5 -34t-24.5 -101q0 -136 84.5 -193t202.5 -61l76 -3q144 -5 228 -67
t91 -170h-151q-10 64 -74 87.5z" />
    <glyph glyph-name="uni1C9B" unicode="&#x1c9b;" horiz-adv-x="657" 
d="M175.5 22q-61.5 32 -94 88.5t-32.5 129.5t31 130t88 88.5t131 31.5q45 0 83.5 -16t61.5 -43v100q-1 50 -35 77.5t-87 27.5q-51 0 -84 -25.5t-34 -63.5l-152 5q0 60 35.5 107.5t97 73.5t136.5 26q76 0 138 -29.5t97 -83t35 -121.5v-279q0 -118 -71.5 -187t-199.5 -69
q-83 0 -144.5 32zM233.5 150.5q33.5 -33.5 88.5 -33.5q54 0 88 31.5t34 81.5v19q0 51 -34 82.5t-88 31.5q-55 0 -88.5 -33.5t-33.5 -89.5t33.5 -89.5z" />
    <glyph glyph-name="uni1C9C" unicode="&#x1c9c;" horiz-adv-x="656" 
d="M190 21.5q-61 31.5 -93.5 89.5t-32.5 135v301q0 100 63 150.5t172 50.5h257v-130h-254q-42 0 -66 -21.5t-24 -62.5v-103q23 27 61.5 43t83.5 16q74 0 130.5 -31.5t87.5 -88.5t31 -130t-32.5 -129.5t-93.5 -88.5t-144 -32q-85 0 -146 31.5zM246 148.5q34 -31.5 88 -31.5
t88 33.5t34 89.5t-33.5 89.5t-88.5 33.5q-54 0 -88 -31.5t-34 -82.5v-19q0 -50 34 -81.5z" />
    <glyph glyph-name="uni1C9D" unicode="&#x1c9d;" horiz-adv-x="911" 
d="M73.5 173.5q-14.5 87.5 -14.5 198.5v125q0 85 29 144t80.5 88.5t118.5 29.5q121 0 168 -101q26 56 72.5 78.5t101.5 22.5q102 0 161.5 -67.5t59.5 -194.5v-125q0 -110 -14 -197.5t-41 -174.5h-146q26 88 39.5 177.5t13.5 191.5v138q0 61 -23.5 91t-63.5 30
q-41 0 -63.5 -30t-22.5 -91v-290h-148v290q0 61 -22.5 91t-63.5 30q-40 0 -63.5 -30t-23.5 -91v-138q0 -194 52 -369h-145q-27 86 -41.5 173.5z" />
    <glyph glyph-name="uni1C9E" unicode="&#x1c9e;" horiz-adv-x="623" 
d="M163 17.5q-62 28.5 -96 79.5t-34 117q0 26 6 56l146 -6q-2 -22 -2 -31q0 -55 33 -86.5t88 -31.5t88.5 28t33.5 75t-31.5 73.5t-86.5 26.5h-37v121h46q87 0 87 58q0 28 -18.5 47t-57.5 44q-45 28 -72 64.5t-26 95.5h150q1 -24 16 -40t52 -43q50 -36 77.5 -74t27.5 -89
q0 -42 -24 -76t-72 -51q52 -16 84.5 -61t32.5 -109q0 -60 -32.5 -109.5t-93.5 -78t-143 -28.5q-80 0 -142 28.5z" />
    <glyph glyph-name="uni1C9F" unicode="&#x1c9f;" horiz-adv-x="654" 
d="M172 16.5q-62 27.5 -96.5 76.5t-34.5 113q0 32 7 64l146 -6q-2 -11 -2 -31q0 -55 33 -86.5t88 -31.5q56 0 88.5 31t32.5 91v400l-200 -32q21 -3 42 -18t35.5 -41t14.5 -59q0 -68 -46.5 -101t-125.5 -33q-57 0 -105 23l25 95q28 -13 59 -13q26 0 44 13.5t18 41.5
t-20.5 43.5t-50.5 15.5q-15 0 -33 -4l-5 126l348 55h148v-523q0 -70 -32 -124t-93 -83.5t-144 -29.5q-79 0 -141 27.5z" />
    <glyph glyph-name="uni1CA0" unicode="&#x1ca0;" horiz-adv-x="886" 
d="M732.5 454.5q51.5 -28.5 82 -87.5t30.5 -148q0 -59 -13.5 -112t-36.5 -107h-147q24 60 35.5 109t11.5 105q0 71 -24.5 105t-66.5 34q-40 0 -61.5 -29.5t-21.5 -82.5v-129h-149v129q0 53 -21 82.5t-60 29.5q-43 0 -67.5 -33.5t-24.5 -105.5q0 -57 11 -105.5t36 -108.5
h-147q-25 70 -37.5 134.5t-12.5 151.5q0 138 48 217t112 112.5t158 60.5q63 18 91.5 32t35.5 40h153q-4 -60 -40.5 -97t-86.5 -56t-131 -40q-66 -17 -106 -30t-71.5 -36t-43.5 -59q21 28 56 40.5t70 12.5q109 0 153 -87q47 87 171 87q63 0 114.5 -28.5z" />
    <glyph glyph-name="uni1CA1" unicode="&#x1ca1;" horiz-adv-x="643" 
d="M142.5 57.5q-71.5 67.5 -71.5 187.5v502h148v-504q0 -61 33 -93.5t83 -32.5q49 0 82.5 28.5t33.5 73.5q0 31 -8.5 53t-26.5 53q-24 40 -35 74t-7 87h146q0 -39 9.5 -65.5t29.5 -61.5q21 -38 32 -68.5t11 -78.5q0 -60 -33 -111t-93.5 -81t-139.5 -30q-122 0 -193.5 67.5z
" />
    <glyph glyph-name="uni1CA2" unicode="&#x1ca2;" horiz-adv-x="850" 
d="M366 614q-78 -17 -122.5 -79.5t-44.5 -167.5q0 -77 28.5 -132.5t80 -85t118.5 -29.5t117.5 29.5t79 85t28.5 132.5q0 104 -43 166.5t-120 79.5q11 -33 11 -98v-223h-146v221q0 60 13 101zM87 545q38 77 106.5 124t158.5 61v47h148v-47q89 -14 156.5 -61.5t105.5 -124.5
t38 -177q0 -114 -48 -199.5t-133 -131.5t-193 -46q-109 0 -194.5 46t-134 131.5t-48.5 199.5q0 101 38 178z" />
    <glyph glyph-name="uni1CA3" unicode="&#x1ca3;" horiz-adv-x="655" 
d="M183 21q-60 31 -93 85.5t-33 124.5q0 40 13 82l143 -6q-7 -37 -7 -62q0 -57 31 -90.5t86 -33.5q53 0 85.5 31.5t32.5 90.5v313q0 34 -18.5 52.5t-47.5 18.5t-47 -18.5t-18 -53.5v-128h-147v112q0 38 -20.5 57.5t-57.5 19.5h-44v137h69q95 0 133 -78q21 42 63.5 62.5
t93.5 20.5q56 0 99 -24t66.5 -65.5t23.5 -94.5v-332q0 -76 -32 -133t-92 -88t-143 -31q-79 0 -139 31z" />
    <glyph glyph-name="uni1CA4" unicode="&#x1ca4;" horiz-adv-x="913" 
d="M373.5 17.5q-69.5 26.5 -107 75t-37.5 112.5q0 15 1 22l149 -4q-5 -48 37 -78.5t119 -30.5t117 32t40 83q0 41 -24 67t-69 28l-14 1v121h26q102 0 102 90q0 44 -24 70t-64 26q-39 0 -62.5 -26t-23.5 -71v-23q0 -66 -32.5 -117.5t-89.5 -80.5t-128 -29t-127.5 29.5
t-88.5 83t-32 121.5q0 71 31.5 125t86 84t122.5 30q59 0 108 -25.5t72 -69.5q23 46 71 70.5t104 24.5q62 0 114 -25t83 -73t31 -112q0 -69 -37 -113.5t-93 -62.5q50 -15 79 -58t29 -103q0 -62 -34.5 -112t-103.5 -79t-167 -29q-94 0 -163.5 26.5zM216 439.5
q28 -30.5 74 -30.5t74 31t28 81q0 51 -28 81.5t-74 30.5t-74 -30.5t-28 -81.5t28 -81.5z" />
    <glyph glyph-name="uni1CA5" unicode="&#x1ca5;" horiz-adv-x="654" 
d="M171 17.5q-62 28.5 -96 79.5t-34 117q2 30 7 56l146 -6q-2 -11 -2 -31q0 -55 33 -86.5t88 -31.5q56 0 88.5 31.5t32.5 88.5v159q0 51 -31 82.5t-79 31.5q-44 0 -74.5 -24.5t-30.5 -71.5q0 -11 2 -20l-148 -4q-2 13 -2 35q0 63 30 111t80.5 74.5t109.5 26.5q44 0 82 -16.5
t61 -43.5v173h148v-523q0 -69 -32 -122.5t-93 -83.5t-144 -30q-80 0 -142 28.5z" />
    <glyph glyph-name="uni1CA6" unicode="&#x1ca6;" horiz-adv-x="887" 
d="M497.5 87.5q-49.5 23.5 -127.5 23.5h-251v111h77q-72 38 -109.5 111.5t-37.5 158.5q0 89 30.5 148.5t82.5 88.5t115 29q125 0 170 -92q47 92 172 92q63 0 114.5 -29t82 -90t30.5 -152q0 -98 -33 -195l-146 8q29 85 29 180q0 78 -24.5 114.5t-66.5 36.5q-39 0 -61 -30.5
t-22 -85.5v-136h-149v136q0 55 -21.5 85.5t-60.5 30.5q-42 0 -66.5 -36t-24.5 -114q0 -226 218 -244l33 -3q109 -9 178.5 -68t76.5 -166h-149q-10 64 -59.5 87.5z" />
    <glyph glyph-name="uni1CA7" unicode="&#x1ca7;" horiz-adv-x="660" 
d="M179 17.5q-62 28.5 -96 80t-34 116.5q0 23 5 56l147 -6q-3 -19 -3 -31q0 -55 33.5 -86.5t88.5 -31.5t88 31.5t33 88.5v136q-24 -25 -61.5 -39t-83.5 -14q-65 0 -119.5 29t-87.5 85t-33 133q0 57 8.5 97.5t26.5 86.5h148q-32 -90 -32 -171q0 -65 29.5 -97.5t84.5 -32.5
q56 0 88 31.5t32 89.5v180h147v-524q0 -69 -32 -122.5t-92.5 -83.5t-142.5 -30q-80 0 -142 28.5z" />
    <glyph glyph-name="uni1CA8" unicode="&#x1ca8;" horiz-adv-x="657" 
d="M175.5 21.5q-61.5 31.5 -94 87t-32.5 126.5q0 72 31.5 128.5t88 88t130.5 31.5q45 0 83.5 -16t61.5 -43v145q0 33 -19 50.5t-47 17.5t-46.5 -17.5t-18.5 -45.5v-39h-147v24q0 31 -21.5 49t-56.5 18q-22 0 -39 -3v127q20 6 59 6q97 0 137 -78q22 40 64 59.5t94 19.5
q56 0 99 -23.5t66.5 -64t23.5 -91.5l-1 -332q0 -118 -71.5 -187t-199.5 -69q-83 0 -144.5 31.5zM234 149.5q34 -32.5 88 -32.5q53 0 87.5 31t34.5 77v17q0 51 -34 82t-88 31q-55 0 -88.5 -32.5t-33.5 -86.5t34 -86.5z" />
    <glyph glyph-name="uni1CA9" unicode="&#x1ca9;" horiz-adv-x="641" 
d="M133 703q62 55 167 55q65 0 113.5 -21.5t74.5 -60t26 -87.5q0 -81 -85 -128q80 -16 121 -76t41 -153q0 -67 -13 -122.5t-36 -108.5l-147 -1q24 62 35 112.5t11 117.5q0 63 -29.5 97t-81.5 34q-48 0 -79.5 -31t-31.5 -81v-249h-148v556q0 92 62 147zM247.5 459
q18.5 12 37.5 19q45 17 65 40t20 55q0 30 -19.5 47t-52.5 17q-35 0 -57.5 -19t-22.5 -59v-125q11 13 29.5 25z" />
    <glyph glyph-name="uni1CAA" unicode="&#x1caa;" horiz-adv-x="740" 
d="M221 30q-78 40 -125 128t-47 225q0 198 81 367h146q-36 -80 -57 -167t-21 -200q0 -151 57.5 -209t140.5 -58q69 0 110 32.5t41 82.5q0 49 -33.5 77t-92.5 28h-66v122h87q48 0 71 18t23 50q0 22 -11 38t-34 38q-34 34 -52 65t-17 83h148q2 -27 14.5 -46t39.5 -48
q30 -31 46 -58t16 -67q0 -46 -28 -84.5t-79 -54.5q53 -16 84.5 -63.5t31.5 -113.5q0 -61 -35.5 -112.5t-103 -82t-159.5 -30.5q-98 0 -176 40z" />
    <glyph glyph-name="uni1CAB" unicode="&#x1cab;" horiz-adv-x="655" 
d="M167.5 22q-61.5 32 -94 88.5t-32.5 129.5t31 130t88 88.5t131 31.5q45 0 83.5 -16t61.5 -43v317h147v-502q0 -118 -71.5 -187t-199.5 -69q-83 0 -144.5 32zM225.5 150.5q33.5 -33.5 88.5 -33.5q54 0 88 31.5t34 81.5v19q0 51 -34 82.5t-88 31.5q-55 0 -88.5 -33.5
t-33.5 -89.5t33.5 -89.5z" />
    <glyph glyph-name="uni1CAC" unicode="&#x1cac;" horiz-adv-x="657" 
d="M137.5 59q-71.5 69 -71.5 187l-1 332q0 51 23.5 91.5t66.5 64t99 23.5q52 0 94 -19.5t64 -59.5q40 78 137 78q40 0 59 -6v-127q-16 3 -39 3q-35 0 -56.5 -18t-21.5 -49v-24h-147v39q0 28 -18.5 45.5t-46.5 17.5t-47 -17.5t-19 -50.5v-145q23 27 61.5 43t83.5 16
q74 0 130.5 -31.5t88 -88t31.5 -128.5q0 -71 -32.5 -126.5t-94 -87t-144.5 -31.5q-128 0 -199.5 69zM247.5 148q34.5 -31 87.5 -31q54 0 88 32.5t34 86.5t-33.5 86.5t-88.5 32.5q-54 0 -88 -31t-34 -82v-17q0 -46 34.5 -77z" />
    <glyph glyph-name="uni1CAD" unicode="&#x1cad;" horiz-adv-x="736" 
d="M179 17.5q-62 28.5 -96 79.5t-34 117q0 28 7 56l146 -6q-2 -11 -2 -31q0 -55 33 -86.5t88 -31.5q56 0 88.5 31.5t32.5 88.5v147l-47 -26q-69 -36 -144 -36q-50 0 -94.5 20.5t-72 59.5t-27.5 93q0 53 27.5 92t72 59.5t94.5 20.5q79 0 143 -35l48 -27v145h144v-153l120 72
l11 -113l-131 -61l131 -62l-11 -113l-120 72v-165q0 -69 -31.5 -122.5t-91 -83.5t-142.5 -30q-80 0 -142 28.5zM226 452q22 -14 59 -14q29 0 54.5 7t53.5 21l49 26l-49 26q-29 14 -54.5 21.5t-53.5 7.5q-37 0 -59 -14t-22 -40q0 -27 22 -41z" />
    <glyph glyph-name="uni1CAE" unicode="&#x1cae;" horiz-adv-x="655" 
d="M143.5 59q-71.5 69 -71.5 187v502h147v-317q23 27 61.5 43t83.5 16q74 0 131 -31.5t88 -88.5t31 -130t-32.5 -129.5t-94 -88.5t-144.5 -32q-128 0 -199.5 69zM253 148.5q34 -31.5 88 -31.5q55 0 88.5 33.5t33.5 89.5t-33.5 89.5t-88.5 33.5q-54 0 -88 -31.5t-34 -82.5
v-19q0 -50 34 -81.5z" />
    <glyph glyph-name="uni1CAF" unicode="&#x1caf;" horiz-adv-x="631" 
d="M175 17.5q-62 28.5 -96 79.5t-34 117q0 26 6 56l147 -6q-3 -16 -3 -31q0 -55 33 -86.5t89 -31.5q54 0 87.5 29.5t33.5 78.5t-32 76.5t-88 27.5h-74v174q-65 -9 -108 -9t-82 7l7 123q31 -6 77 -6q50 0 106 8v124h143v-101q58 7 102 7q42 0 88 -6l-6 -124q-37 6 -88 6
q-49 0 -96 -6v-83q95 -12 147 -74t52 -149q0 -69 -32.5 -121t-93 -80t-143.5 -28q-80 0 -142 28.5z" />
    <glyph glyph-name="uni1CB0" unicode="&#x1cb0;" horiz-adv-x="628" 
d="M548 243.5q30 -32.5 30 -82.5q0 -47 -32.5 -86.5t-93.5 -62.5t-141 -23q-85 0 -148.5 26.5t-96 75.5t-28.5 116l149 -4q-2 -40 31.5 -64t88.5 -24q56 0 88.5 16t32.5 47q0 26 -25 41.5t-74 15.5h-59v107h92q26 0 40.5 11t14.5 31t-14.5 30.5t-40.5 10.5h-92v107h81
q53 0 53 30q0 15 -14 24.5t-45 24.5q-35 15 -59 29.5t-40.5 41t-16.5 66.5h149q2 -19 19.5 -32t52.5 -29q34 -17 54.5 -30t35.5 -34.5t15 -52.5q0 -76 -89 -95q49 -4 75.5 -29.5t26.5 -66.5q0 -40 -25.5 -63t-76.5 -32q52 -8 82 -40.5z" />
    <glyph glyph-name="uni1CB1" unicode="&#x1cb1;" horiz-adv-x="600" 
 />
    <glyph glyph-name="uni1CB2" unicode="&#x1cb2;" horiz-adv-x="600" 
 />
    <glyph glyph-name="uni1CB3" unicode="&#x1cb3;" horiz-adv-x="600" 
 />
    <glyph glyph-name="uni1CB4" unicode="&#x1cb4;" horiz-adv-x="600" 
 />
    <glyph glyph-name="uni1CB5" unicode="&#x1cb5;" horiz-adv-x="600" 
 />
    <glyph glyph-name="uni1CB6" unicode="&#x1cb6;" horiz-adv-x="600" 
 />
    <glyph glyph-name="uni1CB7" unicode="&#x1cb7;" horiz-adv-x="600" 
 />
    <glyph glyph-name="uni1CB8" unicode="&#x1cb8;" horiz-adv-x="600" 
 />
    <glyph glyph-name="Wgrave" unicode="&#x1e80;" horiz-adv-x="1124" 
d="M299 948h192l130 -153h-128zM176 748l162 -502l163 502h122l163 -502l163 502h162l-261 -748h-125l-163 488l-163 -488h-125l-261 748h163z" />
    <glyph glyph-name="wgrave" unicode="&#x1e81;" horiz-adv-x="843" 
d="M230 789h159l86 -191h-110zM161 516l103 -311l108 311h99l109 -311l103 311h155l-197 -516h-112l-106 282l-108 -282h-112l-198 516h156z" />
    <glyph glyph-name="Wacute" unicode="&#x1e82;" horiz-adv-x="1124" 
d="M628 948h191l-194 -153h-128zM176 748l162 -502l163 502h122l163 -502l163 502h162l-261 -748h-125l-163 488l-163 -488h-125l-261 748h163z" />
    <glyph glyph-name="wacute" unicode="&#x1e83;" horiz-adv-x="843" 
d="M453 789h158l-135 -191h-110zM161 516l103 -311l108 311h99l109 -311l103 311h155l-197 -516h-112l-106 282l-108 -282h-112l-198 516h156z" />
    <glyph glyph-name="Wdieresis" unicode="&#x1e84;" horiz-adv-x="1124" 
d="M523.5 931.5q22.5 -22.5 22.5 -54.5t-22.5 -54t-54.5 -22t-54 22t-22 54t22 54.5t54 22.5t54.5 -22.5zM176 748l162 -502l163 502h122l163 -502l163 502h162l-261 -748h-125l-163 488l-163 -488h-125l-261 748h163zM603.5 931.5q22.5 22.5 53.5 22.5q32 0 55 -22.5
t23 -54.5t-23 -54t-55 -22t-54 22t-22 54t22.5 54.5z" />
    <glyph glyph-name="wdieresis" unicode="&#x1e85;" horiz-adv-x="843" 
d="M381.5 733q22.5 -22 22.5 -54t-22.5 -54t-54.5 -22t-54 22t-22 54t22 54t54 22t54.5 -22zM161 516l103 -311l108 311h99l109 -311l103 311h155l-197 -516h-112l-106 282l-108 -282h-112l-198 516h156zM462 733q22 22 54 22t54.5 -22t22.5 -54t-22.5 -54t-54.5 -22t-54 22
t-22 54t22 54z" />
    <glyph glyph-name="Ygrave" unicode="&#x1ef2;" horiz-adv-x="739" 
d="M107 948h192l129 -153h-128zM184 748l186 -311l185 311h172l-283 -458v-290h-148v290l-284 458h172z" />
    <glyph glyph-name="ygrave" unicode="&#x1ef3;" horiz-adv-x="569" 
d="M91 789h159l86 -191h-110zM163 516l122 -315l121 315h156l-330 -771h-154l131 299l-201 472h155z" />
    <glyph glyph-name="endash" unicode="&#x2013;" horiz-adv-x="566" 
d="M45 328h476v-132h-476v132z" />
    <glyph glyph-name="emdash" unicode="&#x2014;" horiz-adv-x="798" 
d="M45 328h708v-132h-708v132z" />
    <glyph glyph-name="quoteleft" unicode="&#x2018;" horiz-adv-x="220" 
d="M58 479q-21 26 -21 69q0 147 148 225v-59q-53 -37 -63 -92q32 -2 54.5 -26t22.5 -58q0 -36 -23.5 -60.5t-59.5 -24.5q-37 0 -58 26z" />
    <glyph glyph-name="quoteright" unicode="&#x2019;" horiz-adv-x="220" 
d="M99 603q-33 3 -55.5 27t-22.5 58q0 36 23.5 60.5t59.5 24.5q37 0 58.5 -26t21.5 -69q-2 -147 -149 -225v58q52 37 64 92z" />
    <glyph glyph-name="quotesinglbase" unicode="&#x201a;" horiz-adv-x="220" 
d="M99 -9q-33 2 -55.5 26t-22.5 58q0 36 23.5 60.5t59.5 24.5q37 0 58.5 -26t21.5 -69q-2 -147 -149 -225v59q52 35 64 92z" />
    <glyph glyph-name="quotedblleft" unicode="&#x201c;" horiz-adv-x="425" 
d="M261 479.5q-21 26.5 -21 68.5q2 148 149 225v-59q-51 -34 -65 -91q33 -3 55.5 -27t22.5 -57q0 -36 -23.5 -61t-59.5 -25q-37 0 -58 26.5zM184 773v-59q-51 -34 -65 -91q33 -3 55.5 -27t22.5 -57q0 -36 -23.5 -61t-59.5 -25q-37 0 -58 26.5t-21 68.5q2 148 149 225z" />
    <glyph glyph-name="quotedblright" unicode="&#x201d;" horiz-adv-x="425" 
d="M302 603q-33 3 -55.5 27t-22.5 58q0 35 24 60t59 25q37 0 58 -26.5t21 -68.5q0 -147 -148 -225v59q50 33 64 91zM43 748q24 25 59 25q37 0 58 -26.5t21 -69.5q0 -146 -148 -224v59q50 33 64 91q-33 3 -55.5 27t-22.5 58q0 35 24 60z" />
    <glyph glyph-name="quotedblbase" unicode="&#x201e;" horiz-adv-x="425" 
d="M305 -9q-34 2 -56 26t-22 58q0 36 23 60.5t60 24.5t58 -26.5t21 -69.5q-2 -146 -149 -224v59q51 34 65 92zM44.5 135.5q23.5 24.5 59.5 24.5q37 0 58.5 -26t21.5 -68q-2 -148 -149 -226v59q52 35 64 92q-33 2 -55.5 26t-22.5 58q0 36 23.5 60.5z" />
    <glyph glyph-name="dagger" unicode="&#x2020;" horiz-adv-x="531" 
d="M513 428h-178v-495h-140v495h-178v127h178v193h140v-193h178v-127z" />
    <glyph glyph-name="daggerdbl" unicode="&#x2021;" horiz-adv-x="531" 
d="M513 428h-178v-175h178v-127h-178v-193h-140v193h-178v127h178v175h-178v127h178v193h140v-193h178v-127z" />
    <glyph glyph-name="bullet" unicode="&#x2022;" horiz-adv-x="349" 
d="M237.5 364q28.5 -17 45.5 -46t17 -63t-17 -63.5t-45.5 -46.5t-62.5 -17t-63.5 17t-46.5 46.5t-17 63.5t17 63t46.5 46t63.5 17t62.5 -17z" />
    <glyph glyph-name="ellipsis" unicode="&#x2026;" horiz-adv-x="764" 
d="M184.5 135q24.5 -25 24.5 -60q0 -36 -24.5 -60.5t-60.5 -24.5t-60.5 24.5t-24.5 60.5q0 35 24.5 60t60.5 25t60.5 -25zM313.5 135q24.5 25 60.5 25q35 0 60.5 -25t25.5 -60q0 -36 -25 -60.5t-61 -24.5t-60.5 24.5t-24.5 60.5q0 35 24.5 60zM564.5 135q24.5 25 59.5 25
q36 0 61 -25t25 -60q0 -36 -25 -60.5t-61 -24.5q-35 0 -59.5 24.5t-24.5 60.5q0 35 24.5 60z" />
    <glyph glyph-name="perthousand" unicode="&#x2030;" horiz-adv-x="1284" 
d="M297.5 735q39.5 -23 62 -65t22.5 -98t-22.5 -98.5t-62 -65.5t-89.5 -23t-90 23t-63 65.5t-23 98.5q0 55 23 97.5t63 65.5t90 23t89.5 -23zM624 748h136l-497 -748h-135zM155 506.5q20 -24.5 52 -24.5q33 0 52.5 24t19.5 66t-19.5 65.5t-52.5 23.5t-52.5 -24t-19.5 -65
t20 -65.5zM527.5 275q22.5 42 62.5 65t90 23q77 0 126 -50.5t49 -135.5t-49 -136t-126 -51q-50 0 -90 23t-62.5 65.5t-22.5 98.5t22.5 98zM628 111.5q20 -24.5 52 -24.5q33 0 52.5 24t19.5 66q0 41 -19.5 65t-52.5 24t-52.5 -24t-19.5 -65t20 -65.5zM924.5 275
q22.5 42 62.5 65t90 23t90 -23t62.5 -65t22.5 -98t-22.5 -98.5t-62.5 -65.5t-90 -23t-90 23t-62.5 65.5t-22.5 98.5t22.5 98zM1024.5 111q19.5 -24 52.5 -24t52 24t19 66t-19 65.5t-52 23.5t-52.5 -23.5t-19.5 -65.5t19.5 -66z" />
    <glyph glyph-name="guilsinglleft" unicode="&#x2039;" horiz-adv-x="335" 
d="M318 115l-101 -88l-202 230l202 231l101 -88l-134 -143z" />
    <glyph glyph-name="guilsinglright" unicode="&#x203a;" horiz-adv-x="335" 
d="M17 115l134 142l-134 143l100 88l203 -231l-203 -230z" />
    <glyph glyph-name="fraction" unicode="&#x2044;" horiz-adv-x="219" 
d="M293 748h142l-508 -748h-143z" />
    <glyph glyph-name="Euro" unicode="&#x20ac;" horiz-adv-x="706" 
d="M571.5 5q-49.5 -15 -119.5 -15q-115 0 -203 67t-121 188h-118l32 87h72q-2 26 -2 42q0 13 2 37h-104l32 88h86q21 82 69.5 140.5t115 88.5t141.5 30q66 0 113 -15.5t92 -47.5l-46 -122q-32 26 -68.5 40t-83.5 14q-62 0 -108 -33t-68 -95h298l-33 -88h-285q-1 -12 -1 -37
q0 -29 2 -42h253l-32 -87h-200q22 -60 67.5 -92t106.5 -32q85 0 149 54l62 -123q-51 -32 -100.5 -47z" />
    <glyph glyph-name="uni20BE" unicode="&#x20be;" horiz-adv-x="858" 
d="M99 119h100q-70 40 -110 110t-40 167q0 126 71 218.5t189 126.5v124h79v-109q30 2 46 2q15 0 45 -2v109h80v-125q117 -35 187 -131.5t70 -234.5h-147q0 88 -28.5 145.5t-81.5 86.5v-232h-80v257q-21 3 -45 3q-23 0 -46 -3v-257h-79v233q-54 -29 -83 -85t-29 -141
q0 -76 32.5 -132.5t91.5 -86.5t135 -30h317v-132h-674v119z" />
    <glyph glyph-name="trademark" unicode="&#x2122;" horiz-adv-x="894" 
d="M242 389h-103v259h-117v100h338v-100h-118v-259zM412 748h87l123 -229l124 229h88v-359h-104v163l-84 -159h-47l-84 159v-163h-103v359z" />
    <glyph glyph-name="estimated" unicode="&#x212e;" horiz-adv-x="605" 
d="M444 510q57 -30 90 -88.5t33 -141.5h-388v-178q0 -21 6.5 -35.5t27.5 -24.5q35 -24 102 -24q70 0 127 33.5t94 92.5l26 -17q-43 -66 -106.5 -103t-140.5 -37q-78 0 -141 34.5t-99 97t-36 143.5q0 83 36 146t99 97.5t141 34.5q72 0 129 -30zM438 309v116q0 28 -6 42
t-27 23q-38 20 -90 20q-31 0 -58.5 -7t-45.5 -19q-32 -14 -32 -59v-116h259z" />
    <glyph glyph-name="partialdiff" unicode="&#x2202;" horiz-adv-x="614" 
d="M503.5 639.5q67.5 -118.5 67.5 -324.5q0 -156 -71.5 -241t-195.5 -85q-75 0 -135 31t-94 89t-34 134q0 72 32.5 127t90 84.5t130.5 29.5q77 0 129 -47q-5 95 -38 142.5t-97 47.5q-44 0 -78.5 -15.5t-65.5 -46.5l-79 122q49 35 100 53t119 18q152 0 219.5 -118.5zM224 155
q32 -34 83 -34q52 0 84.5 33.5t32.5 87.5v8q-1 53 -33.5 85.5t-83.5 32.5q-50 0 -82.5 -34t-32.5 -89q0 -56 32 -90z" />
    <glyph glyph-name="product" unicode="&#x220f;" horiz-adv-x="659" 
d="M544 -164h-127v781h-175v-781h-127v781h-96v131h621v-131h-96v-781z" />
    <glyph glyph-name="summation" unicode="&#x2211;" horiz-adv-x="600" 
d="M399 374l-181 -242h340v-132h-511v109l198 265l-198 265v109h511v-131h-340z" />
    <glyph glyph-name="minus" unicode="&#x2212;" horiz-adv-x="547" 
d="M31 437h485v-132h-485v132z" />
    <glyph glyph-name="radical" unicode="&#x221a;" horiz-adv-x="672" 
d="M195 245l-105 -66l-69 110l227 140l97 -220l192 485l114 -50l-303 -721z" />
    <glyph glyph-name="infinity" unicode="&#x221e;" horiz-adv-x="778" 
d="M656 478q43 -27 67 -73t24 -101q0 -56 -24 -102t-67 -73t-98 -27q-95 0 -172 89l-14 17l-15 -16q-37 -37 -73.5 -56.5t-81.5 -19.5q-50 0 -89 25t-60.5 67.5t-21.5 94.5t21.5 95t60.5 68.5t89 25.5q48 0 83.5 -20.5t71.5 -59.5l13 -15l11 13q43 47 82.5 71t94.5 24
t98 -27zM158.5 251q17.5 -21 46.5 -21q49 0 87 53l14 19l-13 16q-24 30 -44.5 44.5t-43.5 14.5q-29 0 -46.5 -21t-17.5 -53q0 -31 17.5 -52zM456 284q28 -31 51 -47.5t51 -16.5q33 0 52.5 24t19.5 60q0 35 -19.5 58.5t-52.5 23.5q-29 0 -52.5 -16t-50.5 -49l-14 -18z" />
    <glyph glyph-name="integral" unicode="&#x222b;" horiz-adv-x="337" 
d="M298.5 753.5q23.5 -4.5 48.5 -12.5l-23 -106q-30 10 -53 10q-21 0 -31 -12.5t-10 -39.5v-602q0 -80 -34 -121t-101 -41q-58 0 -105 18l23 105q4 -1 18.5 -5.5t29.5 -4.5q47 0 47 54v601q0 79 34 120t100 41q33 0 56.5 -4.5z" />
    <glyph glyph-name="approxequal" unicode="&#x2248;" horiz-adv-x="543" 
d="M459.5 422.5q-38.5 -23.5 -87.5 -23.5q-29 0 -50.5 7.5t-53.5 23.5q-25 13 -44 20t-41 7q-35 0 -59.5 -12t-49.5 -41l-63 93q35 45 73 68t85 23q27 0 48 -7.5t50 -22.5q26 -14 46.5 -21t44.5 -7q36 0 61 12.5t50 41.5l63 -93q-34 -45 -72.5 -68.5zM84 320q38 23 85 23
q27 0 48 -7.5t50 -22.5q26 -14 46.5 -21t44.5 -7q36 0 61 12.5t50 41.5l63 -93q-34 -45 -72.5 -68.5t-87.5 -23.5q-29 0 -51.5 8t-52.5 24q-25 13 -44 20t-41 7q-34 0 -59 -12.5t-50 -41.5l-63 93q35 45 73 68z" />
    <glyph glyph-name="notequal" unicode="&#x2260;" horiz-adv-x="547" 
d="M516 313v-131h-231l-33 -120l-120 28l27 92h-128v131h159l35 113h-194v132h226l33 118l120 -28l-26 -90h132v-132h-164l-35 -113h199z" />
    <glyph glyph-name="lessequal" unicode="&#x2264;" horiz-adv-x="536" 
d="M506 382l-1 -144l-476 232l476 231l1 -143l-196 -88zM29 192h477v-131h-477v131z" />
    <glyph glyph-name="greaterequal" unicode="&#x2265;" horiz-adv-x="536" 
d="M31 382l196 88l-196 88l1 143l475 -231l-475 -232zM31 192h476v-131h-476v131z" />
    <glyph glyph-name="triagup" unicode="&#x25b2;" horiz-adv-x="930" 
d="M405 513q0 116 26 224q1 4 1 9q0 10 -7 10q-4 0 -9 -6q-17 -22 -81.5 -126.5t-119.5 -198.5q-3 -4 -16 -28q-125 -215 -155 -297q-4 -12 -4 -17q0 -8 4 -15q7 -13 23 -13q9 0 33 8q39 14 110 53q55 32 107 71t76 64q15 16 20.5 29t5.5 29q0 7 -2 27q-12 101 -12 177z
M79 10q28 -3 151.5 -7.5t230.5 -4.5h32q122 1 204 4t132 11q19 2 27 15q3 6 3 12q0 17 -27 39q-35 30 -101 69q-54 32 -114 57.5t-94 33.5q-13 4 -27 4q-16 0 -27.5 -6t-31.5 -20q-89 -66 -174.5 -113.5t-179.5 -74.5l-8 -2q-7 -2 -7 -8t11 -9zM450.5 455.5
q7.5 -64.5 17.5 -97.5q8 -28 20.5 -39t41.5 -24q102 -44 186 -95t154 -118l6 -6q3 -3 7 -3q5 0 6 5t-1 10q-9 24 -66.5 132t-113.5 205q-3 4 -16 28q-63 106 -105.5 175t-75.5 108q-14 16 -27 16q-15 0 -22 -12t-10 -34q-9 -45 -9 -122q0 -64 7.5 -128.5z" />
    <glyph glyph-name="lozenge" unicode="&#x25ca;" horiz-adv-x="556" 
d="M234 -55l-205 401l205 402h90l203 -402l-203 -401h-90zM278 144l104 202l-104 201l-103 -201z" />
    <glyph glyph-name="uni2605" unicode="&#x2605;" horiz-adv-x="850" 
d="M450 751q-11 7 -24 7t-24.5 -7t-17.5 -21l-83 -193q-5 -12 -15.5 -19t-22.5 -8l-191 -15q-19 -1 -30.5 -14.5t-11.5 -30.5q0 -22 17 -35l152 -121q17 -12 17 -34q0 -4 -2 -12l-50 -201q-1 -4 -1 -11q0 -19 13.5 -32t31.5 -13q13 0 24 7l169 108q11 7 25 7t24 -7l169 -108
q11 -7 24 -7q18 0 32 13t14 31q0 4 -2 12l-51 201q-1 3 -1 10q0 22 17 36l151 121q17 13 17 35q0 17 -11 30.5t-30 14.5l-191 15q-12 1 -22.5 8t-15.5 19l-83 193q-6 14 -17 21z" />
    <glyph glyph-name="fl" unicode="&#xfb02;" horiz-adv-x="664" 
d="M361 779v-121q-13 3 -33 3q-39 0 -63.5 -23.5t-24.5 -61.5v-60h121v-120h-121v-396h-141v396h-93v120h93v57q0 96 58.5 153t154.5 57q30 0 49 -4zM450 777h140v-777h-140v777z" />
    <glyph glyph-name="null" horiz-adv-x="600" 
 />
    <glyph glyph-name="n.001" horiz-adv-x="617" 
d="M493.5 471.5q54.5 -54.5 54.5 -150.5v-321h-140v289q0 50 -25.5 78.5t-69.5 28.5t-71.5 -30t-27.5 -78v-288h-140v516h132v-59q16 29 53 49t89 20q91 0 145.5 -54.5z" />
    <glyph glyph-name="germandbls.cap" horiz-adv-x="702" 
d="M494 725q67 -31 118 -89l-115 -183q77 -27 121 -78.5t44 -137.5q0 -74 -35 -129.5t-97.5 -85.5t-144.5 -30q-60 0 -99 10l28 131q24 -9 65 -9q57 0 93.5 32.5t36.5 87.5q0 67 -46 101t-138 52l111 186q-42 42 -105 42q-49 0 -81.5 -30t-32.5 -81v-514h-148v513
q0 73 35 128t96 85t137 30q90 0 157 -31z" />
    <glyph glyph-name="a.sups" horiz-adv-x="455" 
d="M403 590v-256h-118v36q-16 -20 -45 -32.5t-67 -12.5q-66 0 -103.5 30.5t-37.5 89.5q0 64 48 92.5t130 33.5l68 4v24q0 28 -14 44t-39 16q-29 0 -44.5 -16.5t-15.5 -41.5l-122 4q0 37 22 72t63.5 57t95.5 22q179 0 179 -166zM209 415q29 0 49 17.5t20 49.5v20l-58 -4
q-61 -5 -61 -45q0 -38 50 -38z" />
    <glyph glyph-name="b.sups" horiz-adv-x="527" 
d="M227.5 745.5q28.5 10.5 63.5 10.5q59 0 104.5 -27t71 -75.5t25.5 -112.5t-25.5 -113t-71.5 -76t-104 -27q-39 0 -69.5 12.5t-47.5 31.5v-35h-119v622h126v-237q18 16 46.5 26.5zM206 460q25 -27 65 -27q44 0 69.5 28t25.5 80q0 51 -26 80t-69 29q-40 0 -65 -27t-25 -73
v-18q0 -45 25 -72z" />
    <glyph glyph-name="c.sups" horiz-adv-x="477" 
d="M380.5 713q54.5 -43 65.5 -118l-122 -10q-4 29 -24.5 47t-51.5 18q-39 0 -63 -29t-24 -80t24 -79.5t64 -28.5q31 0 50.5 16.5t24.5 45.5l122 -10q-11 -73 -65.5 -116.5t-131.5 -43.5q-62 0 -110.5 26t-76.5 75t-28 115t27.5 114.5t76 74.5t110.5 26q78 0 132.5 -43z" />
    <glyph glyph-name="d.sups" horiz-adv-x="528" 
d="M305.5 337.5q-30.5 -12.5 -69.5 -12.5q-59 0 -104.5 27t-71.5 76t-26 113t26 112.5t71.5 75.5t104.5 27q36 0 64.5 -10.5t45.5 -26.5v237h125v-622h-118v35q-17 -19 -47.5 -31.5zM187.5 461.5q25.5 -28.5 68.5 -28.5q40 0 65 27t25 72v18q0 46 -25 73t-65 27
q-42 0 -68 -29.5t-26 -79.5q0 -51 25.5 -79.5z" />
    <glyph glyph-name="e.sups" horiz-adv-x="480" 
d="M188.5 445q20.5 -22 57.5 -22q28 0 46 12t24 33l126 -6q-11 -62 -64.5 -99.5t-127.5 -37.5q-64 0 -113 26t-76 75t-27 115t27 114.5t75.5 74.5t110.5 26q91 0 145 -54.5t54 -152.5v-44h-278q0 -38 20.5 -60zM319 582q-2 38 -20 59.5t-54 21.5q-35 0 -55.5 -21.5
t-21.5 -59.5h151z" />
    <glyph glyph-name="f.sups" horiz-adv-x="305" 
d="M299 957v-107q-7 1 -29 1q-29 0 -47.5 -17t-18.5 -45v-41h94v-108h-94v-306h-126v306h-73v108h73v39q0 79 49 126t129 47q24 0 43 -3z" />
    <glyph glyph-name="g.sups" horiz-adv-x="524" 
d="M305.5 744q30.5 -12 47.5 -31v35h118v-428q0 -90 -57.5 -144t-153.5 -54t-150 43t-66 118l125 5q3 -28 25.5 -44t60.5 -16q42 0 66.5 21t24.5 62v52q-18 -17 -46.5 -27.5t-63.5 -10.5q-59 0 -104.5 27t-71.5 76t-26 113t26 112.5t71.5 75.5t104.5 27q39 0 69.5 -12z
M187.5 461.5q25.5 -28.5 68.5 -28.5q40 0 65 27t25 72v18q0 46 -25 73t-65 27q-43 0 -68.5 -29t-25.5 -80t25.5 -79.5z" />
    <glyph glyph-name="h.sups" horiz-adv-x="494" 
d="M282 756q73 0 117.5 -44t44.5 -121v-257h-126v228q0 37 -17.5 57.5t-49.5 20.5t-51 -21.5t-19 -57.5v-227h-126v622h126v-237q35 37 101 37z" />
    <glyph glyph-name="i.sups" horiz-adv-x="237" 
d="M171.5 934q21.5 -22 21.5 -53t-21.5 -52t-52.5 -21q-32 0 -53.5 21t-21.5 52t22 53t53 22t52.5 -22zM56 748h125v-414h-125v414z" />
    <glyph glyph-name="j.sups" horiz-adv-x="237" 
d="M171.5 934.5q21.5 -21.5 21.5 -53.5q0 -31 -21.5 -52t-53.5 -21q-31 0 -52.5 21t-21.5 52q0 32 21.5 53.5t52.5 21.5q32 0 53.5 -21.5zM-38 235q14 -2 29 -2q29 0 47 17t18 45v453h126v-450q0 -79 -48.5 -126.5t-128.5 -47.5q-17 0 -43 2v109z" />
    <glyph glyph-name="k.sups" horiz-adv-x="472" 
d="M459 748l-154 -177l162 -237h-149l-102 144l-35 -39v-105h-126v622h126v-350l124 142h154z" />
    <glyph glyph-name="l.sups" horiz-adv-x="236" 
d="M55 956h126v-622h-126v622z" />
    <glyph glyph-name="m.sups" horiz-adv-x="743" 
d="M648.5 712.5q42.5 -43.5 42.5 -121.5v-257h-124v228q0 38 -16.5 58t-47.5 20q-32 0 -49.5 -21.5t-17.5 -57.5v-227h-125v228q0 38 -16 58t-47 20q-32 0 -49.5 -21.5t-17.5 -57.5v-227h-126v414h119v-34q14 18 40 30t64 12q43 0 76.5 -16t53.5 -46q41 62 124 62
q74 0 116.5 -43.5z" />
    <glyph glyph-name="n.sups" horiz-adv-x="496" 
d="M399.5 712q44.5 -44 44.5 -121v-257h-126v228q0 37 -17.5 57.5t-49.5 20.5t-51 -21.5t-19 -57.5v-227h-126v414h119v-34q15 18 42.5 30t65.5 12q73 0 117.5 -44z" />
    <glyph glyph-name="o.sups" horiz-adv-x="512" 
d="M369.5 729.5q50.5 -26.5 79 -75.5t28.5 -113t-28.5 -113t-79 -76t-114.5 -27q-63 0 -113.5 27t-79 76t-28.5 113t28.5 112.5t79 75.5t113.5 27q64 0 114.5 -26.5zM187.5 462q25.5 -29 68.5 -29t69 29t26 79q0 51 -26 80t-69 29q-42 0 -68 -29.5t-26 -79.5t25.5 -79z" />
    <glyph glyph-name="p.sups" horiz-adv-x="527" 
d="M395.5 729q45.5 -27 71 -75.5t25.5 -112.5t-25.5 -113t-71.5 -76t-104 -27q-35 0 -63.5 10.5t-46.5 27.5v-233h-126v618h119v-35q17 19 47 31t70 12q59 0 104.5 -27zM206 460q25 -27 65 -27q43 0 69 28.5t26 79.5t-26 80t-69 29q-40 0 -65 -27t-25 -73v-18q0 -45 25 -72z
" />
    <glyph glyph-name="q.sups" horiz-adv-x="527" 
d="M305.5 744q30.5 -12 47.5 -31v35h118v-618h-125v233q-17 -16 -46 -27t-64 -11q-59 0 -104.5 27t-71.5 76t-26 113t26 112.5t71.5 75.5t104.5 27q39 0 69.5 -12zM187.5 461.5q25.5 -28.5 68.5 -28.5q40 0 65 27t25 72v18q0 46 -25 73t-65 27q-43 0 -68.5 -29t-25.5 -80
t25.5 -79.5z" />
    <glyph glyph-name="r.sups" horiz-adv-x="303" 
d="M210 606.5q-29 -25.5 -29 -67.5v-205h-126v414h121v-40q36 45 113 45v-121q-50 0 -79 -25.5z" />
    <glyph glyph-name="s.sups" horiz-adv-x="406" 
d="M321.5 720.5q43.5 -35.5 49.5 -96.5l-125 -8q-3 50 -46 50q-21 0 -32.5 -9t-11.5 -25q0 -13 9 -20.5t28 -13.5t42 -11q72 -19 106 -44.5t34 -77.5q0 -65 -45.5 -102.5t-127.5 -37.5q-81 0 -126.5 34t-51.5 99l125 8q1 -23 14 -36.5t39 -13.5q23 0 35.5 9.5t12.5 26.5
t-14.5 26.5t-56.5 19.5q-54 14 -83.5 26.5t-47 35.5t-17.5 64q0 62 45 97t124 35q78 0 121.5 -35.5z" />
    <glyph glyph-name="t.sups" horiz-adv-x="323" 
d="M123 361.5q-42 35.5 -41 105.5l1 173h-75v108h76l1 136h125l-1 -136h95v-108h-95l-1 -142q0 -30 17 -45t42 -15q10 0 37 3v-111q-36 -4 -67 -4q-72 0 -114 35.5z" />
    <glyph glyph-name="u.sups" horiz-adv-x="484" 
d="M206 325q-73 0 -113.5 41.5t-40.5 117.5v264h125v-234q0 -36 15 -54t46 -18q30 0 47.5 19t17.5 52v235h125v-414h-118v33q-36 -42 -104 -42z" />
    <glyph glyph-name="v.sups" horiz-adv-x="464" 
d="M3 748h137l92 -220l92 220h136l-179 -414h-98z" />
    <glyph glyph-name="w.sups" horiz-adv-x="684" 
d="M342 570l-82 -236h-97l-160 414h137l80 -225l78 225h88l78 -225l80 225h136l-159 -414h-98z" />
    <glyph glyph-name="x.sups" horiz-adv-x="447" 
d="M298 334l-75 122l-73 -122h-140l128 208l-128 206h140l73 -121l74 121h140l-128 -205l129 -209h-140z" />
    <glyph glyph-name="y.sups" horiz-adv-x="465" 
d="M164 378l-159 370h137l90 -220l90 220h137l-265 -618h-136z" />
    <glyph glyph-name="z.sups" horiz-adv-x="369" 
d="M342 434v-100h-315v86l164 227h-160v101h305v-87l-164 -227h170z" />
    <glyph glyph-name="zero.onum" horiz-adv-x="652" 
d="M474 564q64 -37 99.5 -106t35.5 -162t-35.5 -162.5t-99.5 -106.5t-148 -37t-148 37t-99.5 106.5t-35.5 162.5t35.5 162t99.5 106t148 37t148 -37zM231 167.5q35 -46.5 95 -46.5t95 46.5t35 128.5t-35 128t-95 46t-95 -46t-35 -128t35 -128.5z" />
    <glyph glyph-name="one.onum" horiz-adv-x="391" 
d="M166 406l-101 -73l-64 117l204 140h109v-590h-148v406z" />
    <glyph glyph-name="two.onum" horiz-adv-x="542" 
d="M448 544.5q58 -55.5 58 -150.5q0 -64 -33 -111t-93 -90l-86 -61h217v-132h-461v113l208 144q51 35 75 64t24 70q0 38 -19.5 58t-57.5 20q-39 0 -60.5 -26.5t-22.5 -74.5l-149 8q2 105 63.5 164.5t166.5 59.5q112 0 170 -55.5z" />
    <glyph glyph-name="three.onum" horiz-adv-x="567" 
d="M450 541.5q61 -58.5 61 -159.5t-81 -153q42 -17 68 -60.5t26 -105.5q0 -72 -30.5 -124t-85.5 -79.5t-127 -27.5q-115 0 -178.5 60.5t-67.5 166.5l149 8q3 -49 27.5 -76.5t69.5 -27.5q46 0 70 27t24 77q0 48 -28 73t-75 25h-77v125h75q41 0 66.5 24.5t25.5 66.5
q0 43 -21.5 65.5t-60.5 22.5t-62 -25.5t-24 -72.5l-149 9q3 104 64 162t172 58q108 0 169 -58.5z" />
    <glyph glyph-name="four.onum" horiz-adv-x="603" 
d="M579 -22h-117v-136h-128v136h-307v122l322 490h113v-481h117v-131zM334 109v241l-162 -241h162z" />
    <glyph glyph-name="five.onum" horiz-adv-x="569" 
d="M417 288.5q52 -27.5 81.5 -81t29.5 -128.5q0 -113 -66.5 -180t-182.5 -67q-111 0 -174.5 58t-67.5 158l149 9q3 -44 27 -69t67 -25q48 0 74 30.5t26 81.5t-25.5 79.5t-69.5 28.5q-48 0 -85 -28h-137v435h436v-131h-288v-165q38 22 88 22q66 0 118 -27.5z" />
    <glyph glyph-name="six.onum" horiz-adv-x="606" 
d="M169.5 21q-60.5 31 -94.5 87.5t-34 130.5q0 45 14 83.5t41 78.5l247 347h177l-193 -266q24 0 36 -2q92 -15 148.5 -80t56.5 -161q0 -74 -34 -130.5t-94 -87.5t-135 -31t-135.5 31zM223 154.5q31 -33.5 82 -33.5q50 0 81 33.5t31 89.5q0 58 -31 90.5t-81 32.5
q-59 0 -90 -42q-23 -33 -23 -81q0 -56 31 -89.5z" />
    <glyph glyph-name="seven.onum" horiz-adv-x="540" 
d="M51 -158l298 617h-329v131h492v-119l-297 -629h-164z" />
    <glyph glyph-name="eight.onum" horiz-adv-x="613" 
d="M429 733q55 -25 86.5 -72.5t31.5 -111.5q0 -48 -19 -86.5t-52 -63.5q42 -28 66 -73.5t24 -104.5q0 -71 -33.5 -123t-93 -80t-133.5 -28t-133 28t-92.5 80t-33.5 123q0 58 23.5 103.5t64.5 74.5q-32 24 -51 63t-19 87q0 64 31 111.5t86 72.5t124 25q68 0 123 -25z
M226.5 150.5q31.5 -29.5 79.5 -29.5q49 0 80 29t31 78q0 50 -31 79t-80 29q-48 0 -79.5 -29t-31.5 -79q0 -48 31.5 -77.5zM240.5 473.5q26.5 -24.5 66.5 -24.5t65.5 24t25.5 65t-25.5 65t-65.5 24t-66.5 -24t-26.5 -65q0 -40 26.5 -64.5z" />
    <glyph glyph-name="nine.onum" horiz-adv-x="606" 
d="M436.5 569q60.5 -31 94.5 -87.5t34 -130.5q0 -45 -14 -83.5t-41 -78.5l-247 -347h-177l193 266q-28 2 -51 7q-85 18 -137.5 81t-52.5 155q0 74 34 130.5t94 87.5t135 31t135.5 -31zM220 255.5q31 -32.5 81 -32.5q59 0 90 42q23 33 23 81q0 56 -31 89.5t-82 33.5
q-50 0 -81 -33.5t-31 -89.5q0 -58 31 -90.5z" />
    <glyph glyph-name="zero.slash" horiz-adv-x="651" 
d="M472.5 713.5q63.5 -44.5 99 -131t35.5 -208.5t-35.5 -208.5t-99 -131t-147.5 -44.5t-147.5 44.5t-99 131.5t-35.5 208t35.5 208t99 131.5t147.5 44.5t147.5 -44.5zM212 258l177 346q-26 23 -64 23q-67 0 -99 -63.5t-32 -189.5q0 -72 18 -116zM325 121q67 0 99 63.5
t32 189.5q0 70 -17 113l-177 -345q26 -21 63 -21z" />
    <glyph glyph-name="zero.subs" horiz-adv-x="372" 
d="M302.5 281.5q44.5 -55.5 44.5 -155.5t-44.5 -156t-116.5 -56t-116.5 56t-44.5 156t44.5 155.5t116.5 55.5t116.5 -55.5zM146.5 38q11.5 -28 39.5 -28t40 28.5t12 87.5t-12 87t-40 28t-39.5 -28t-11.5 -87q0 -60 11.5 -88z" />
    <glyph glyph-name="one.subs" horiz-adv-x="233" 
d="M91 189l-48 -32l-46 86l134 88h68v-411h-108v269z" />
    <glyph glyph-name="two.subs" horiz-adv-x="319" 
d="M259.5 301q35.5 -36 35.5 -96q0 -39 -17 -71t-48 -67l-46 -51h112v-96h-274v74l130 139q19 19 27 35.5t8 38.5q0 16 -7.5 25t-20.5 9q-32 0 -33 -40l-105 7q1 60 37.5 94.5t97.5 34.5q68 0 103.5 -36z" />
    <glyph glyph-name="three.subs" horiz-adv-x="329" 
d="M261 304.5q35 -32.5 35 -90.5q0 -52 -42 -81q20 -10 33.5 -34t13.5 -55q0 -61 -38.5 -95.5t-101.5 -34.5q-67 0 -103 34t-37 94l109 7q0 -18 7.5 -28.5t22.5 -10.5t24 10t9 28q0 19 -10 29t-28 10h-43v85h42q15 0 26 9.5t11 25.5t-8 25t-22 9q-13 0 -21 -9t-8 -26l-106 6
q1 59 35.5 92t99.5 33t100 -32.5z" />
    <glyph glyph-name="four.subs" horiz-adv-x="350" 
d="M333 -15h-46v-65h-107v65h-165v84l169 262h103v-250h46v-96zM180 81v105l-72 -105h72z" />
    <glyph glyph-name="five.subs" horiz-adv-x="323" 
d="M267 153q36 -34 36 -99t-38.5 -102.5t-104.5 -37.5q-64 0 -100.5 33t-37.5 88l105 6q1 -14 10 -22.5t24 -8.5q16 0 26 11t10 30t-10 30t-26 11q-18 0 -32 -12h-93v251h251v-96h-143v-55q16 7 30 7q57 0 93 -34z" />
    <glyph glyph-name="six.subs" horiz-adv-x="351" 
d="M67.5 -47.5q-42.5 38.5 -42.5 102.5q0 25 8 46.5t24 43.5l125 186h130l-101 -144l11 -1q47 -11 75.5 -46.5t28.5 -84.5q0 -64 -42.5 -102.5t-107.5 -38.5q-66 0 -108.5 38.5zM145.5 23q10.5 -13 29.5 -13q20 0 31 13t11 35t-11 35t-31 13q-19 0 -29.5 -13.5t-10.5 -34.5
q0 -22 10.5 -35z" />
    <glyph glyph-name="seven.subs" horiz-adv-x="315" 
d="M31 -80l139 315h-154v96h277v-84l-143 -327h-119z" />
    <glyph glyph-name="eight.subs" horiz-adv-x="353" 
d="M276.5 304.5q39.5 -32.5 39.5 -87.5q0 -43 -32 -77q43 -38 43 -94q0 -61 -42.5 -96.5t-108.5 -35.5q-65 0 -107.5 35.5t-42.5 96.5q0 55 43 93q-32 35 -32 78q0 55 39 87.5t100 32.5t100.5 -32.5zM146 21q12 -11 30 -11q19 0 31 11t12 31t-12 31.5t-31 11.5
q-18 0 -30 -11.5t-12 -31.5t12 -31zM149 174.5q11 -10.5 27 -10.5q17 0 27.5 10t10.5 28t-10.5 28.5t-27.5 10.5q-16 0 -27 -10.5t-11 -28.5q0 -17 11 -27.5z" />
    <glyph glyph-name="nine.subs" horiz-adv-x="351" 
d="M283 298.5q43 -38.5 43 -102.5q0 -25 -8 -46.5t-24 -43.5l-124 -186h-131l102 144l-12 1q-46 11 -75 46t-29 85q0 64 42 102.5t107 38.5q66 0 109 -38.5zM145 157.5q11 -12.5 30 -12.5q20 0 31 13.5t11 34.5q0 22 -11 35t-31 13q-19 0 -30 -13t-11 -35q0 -23 11 -35.5z
" />
    <glyph glyph-name="zero.sups" horiz-adv-x="372" 
d="M302.5 763.5q44.5 -55.5 44.5 -155.5t-44.5 -156t-116.5 -56t-116.5 56t-44.5 156t44.5 155.5t116.5 55.5t116.5 -55.5zM146.5 520q11.5 -28 39.5 -28t40 28.5t12 87.5t-12 87t-40 28t-39.5 -28t-11.5 -87q0 -60 11.5 -88z" />
    <glyph glyph-name="one.sups" horiz-adv-x="233" 
d="M91 671l-48 -32l-46 86l134 88h68v-411h-108v269z" />
    <glyph glyph-name="two.sups" horiz-adv-x="319" 
d="M259.5 783q35.5 -36 35.5 -96q0 -39 -17 -71t-48 -67l-46 -51h112v-96h-274v74l130 139q19 19 27 35.5t8 38.5q0 16 -7.5 25t-20.5 9q-32 0 -33 -40l-105 7q1 60 37.5 94.5t97.5 34.5q68 0 103.5 -36z" />
    <glyph glyph-name="three.sups" horiz-adv-x="329" 
d="M261 786.5q35 -32.5 35 -90.5q0 -52 -42 -81q20 -10 33.5 -34t13.5 -55q0 -61 -38.5 -95.5t-101.5 -34.5q-67 0 -103 34t-37 94l109 7q0 -18 7.5 -28.5t22.5 -10.5t24 10t9 28q0 19 -10 29t-28 10h-43v85h42q15 0 26 9.5t11 25.5t-8 25t-22 9q-13 0 -21 -9t-8 -26l-106 6
q1 59 35.5 92t99.5 33t100 -32.5z" />
    <glyph glyph-name="four.sups" horiz-adv-x="350" 
d="M333 467h-46v-65h-107v65h-165v84l169 262h103v-250h46v-96zM180 563v105l-72 -105h72z" />
    <glyph glyph-name="five.sups" horiz-adv-x="323" 
d="M267 635q36 -34 36 -99t-38.5 -102.5t-104.5 -37.5q-64 0 -100.5 33t-37.5 88l104 6q2 -14 11 -22.5t24 -8.5q17 0 27 11t10 30t-10.5 29.5t-26.5 10.5q-9 0 -16 -2.5t-15 -8.5h-94v251h251v-96h-143v-55q16 7 30 7q57 0 93 -34z" />
    <glyph glyph-name="six.sups" horiz-adv-x="351" 
d="M67.5 434.5q-42.5 38.5 -42.5 102.5q0 25 8 46.5t24 43.5l125 186h130l-101 -144q3 0 13 -2q46 -11 74 -46t28 -84q0 -64 -42.5 -102.5t-107.5 -38.5q-66 0 -108.5 38.5zM145.5 505q10.5 -13 29.5 -13q20 0 31 13t11 35t-11 35t-31 13q-19 0 -29.5 -13.5t-10.5 -34.5
q0 -22 10.5 -35z" />
    <glyph glyph-name="seven.sups" horiz-adv-x="315" 
d="M31 402l139 315h-154v96h277v-84l-143 -327h-119z" />
    <glyph glyph-name="eight.sups" horiz-adv-x="353" 
d="M276.5 786.5q39.5 -32.5 39.5 -87.5q0 -43 -32 -77q43 -38 43 -94q0 -61 -42.5 -96.5t-108.5 -35.5q-65 0 -107.5 35.5t-42.5 96.5q0 55 43 93q-32 35 -32 78q0 55 39 87.5t100 32.5t100.5 -32.5zM146 503q12 -11 30 -11q19 0 31 11t12 31t-12 31.5t-31 11.5
q-18 0 -30 -11.5t-12 -31.5t12 -31zM149 656.5q11 -10.5 27 -10.5q17 0 27.5 10t10.5 28t-10.5 28.5t-27.5 10.5q-16 0 -27 -10.5t-11 -28.5q0 -17 11 -27.5z" />
    <glyph glyph-name="nine.sups" horiz-adv-x="351" 
d="M128 547q-47 11 -75 46.5t-28 84.5q0 64 42 102.5t107 38.5q66 0 109 -38.5t43 -102.5q0 -25 -8 -46.5t-24 -43.5l-124 -186h-131l102 144zM145 639.5q11 -12.5 30 -12.5q20 0 31 13.5t11 34.5q0 22 -11 35t-31 13q-19 0 -30 -13t-11 -35q0 -23 11 -35.5z" />
    <glyph glyph-name="zero.tnum" horiz-adv-x="650" 
d="M472 713q64 -45 99.5 -131.5t35.5 -207.5t-35.5 -207.5t-99.5 -131.5t-148 -45t-147.5 44.5t-99 131t-35.5 208.5t35.5 208.5t99 131t147.5 44.5t148 -45zM225 184.5q32 -63.5 99 -63.5t99 63.5t32 189.5t-32 189.5t-99 63.5t-99 -63.5t-32 -189.5t32 -189.5z" />
    <glyph glyph-name="one.tnum" horiz-adv-x="650" 
d="M566 0h-430v132h149v433l-106 -78l-63 117l208 144h109v-616h133v-132z" />
    <glyph glyph-name="two.tnum" horiz-adv-x="650" 
d="M498 703q60 -55 60 -157q0 -83 -35 -144.5t-101 -130.5l-133 -139h274v-132h-462v113l207 226q57 64 79 105t22 96q0 41 -20 64t-56 23q-82 0 -84 -109l-149 8q2 110 62 171t168 61t168 -55z" />
    <glyph glyph-name="three.tnum" horiz-adv-x="650" 
d="M494 699.5q61 -58.5 61 -159.5q0 -57 -21.5 -93.5t-59.5 -59.5q42 -17 68.5 -60.5t26.5 -105.5q0 -72 -30.5 -124t-85.5 -79.5t-127 -27.5q-116 0 -179.5 60.5t-66.5 166.5l148 8q3 -49 27.5 -76.5t69.5 -27.5t70 27.5t25 76.5q0 47 -28.5 72.5t-75.5 25.5h-77v125h75
q41 0 67 24.5t26 66.5q0 43 -21.5 65.5t-61.5 22.5q-39 0 -62 -25.5t-24 -72.5l-149 9q3 104 64 162t172 58q108 0 169 -58.5z" />
    <glyph glyph-name="four.tnum" horiz-adv-x="650" 
d="M595 136h-116v-136h-128v136h-308v122l322 490h114v-481h116v-131zM351 267v241l-162 -241h162z" />
    <glyph glyph-name="five.tnum" horiz-adv-x="650" 
d="M457.5 446.5q52.5 -27.5 82 -81t29.5 -128.5t-30 -130.5t-86.5 -86t-132.5 -30.5q-111 0 -175 58.5t-67 157.5l147 9q4 -44 28 -69t67 -25q48 0 74 30.5t26 81.5t-25.5 79.5t-70.5 28.5q-47 0 -84 -28h-137v435h436v-131h-288v-165q38 22 88 22q66 0 118.5 -27.5z" />
    <glyph glyph-name="six.tnum" horiz-adv-x="650" 
d="M189 21q-60 31 -94 87.5t-34 130.5q0 45 13.5 83.5t40.5 78.5l247 347h177l-192 -266q11 0 37 -2q90 -16 146.5 -80.5t56.5 -160.5q0 -74 -34 -130.5t-94 -87.5t-135 -31t-135 31zM242 154.5q31 -33.5 82 -33.5q50 0 81 33.5t31 89.5q0 58 -31 90.5t-81 32.5
q-53 0 -83 -33.5t-30 -89.5t31 -89.5z" />
    <glyph glyph-name="seven.tnum" horiz-adv-x="650" 
d="M98 0l298 616h-329v132h492v-120l-298 -628h-163z" />
    <glyph glyph-name="eight.tnum" horiz-adv-x="650" 
d="M447.5 733q54.5 -25 86 -72.5t31.5 -111.5q0 -48 -19 -86.5t-51 -63.5q41 -28 65 -74t24 -104q0 -71 -33.5 -123t-92.5 -80t-133 -28t-133 28t-92.5 80t-33.5 123q0 58 23.5 103.5t64.5 74.5q-32 24 -51 63t-19 87q0 64 31 111.5t85.5 72.5t123.5 25t123.5 -25z
M245.5 150q31.5 -29 79.5 -29t79.5 29t31.5 78q0 50 -31 79t-80 29t-80 -29t-31 -79q0 -49 31.5 -78zM259 473.5q26 -24.5 66 -24.5t66 24t26 65t-25.5 65t-66.5 24q-40 0 -66 -24t-26 -65q0 -40 26 -64.5z" />
    <glyph glyph-name="nine.tnum" horiz-adv-x="650" 
d="M461 727q60 -31 94 -87.5t34 -130.5q0 -45 -13.5 -83.5t-40.5 -78.5l-247 -347h-177l192 266q-24 0 -36 2q-91 15 -147.5 80t-56.5 161q0 74 34 130.5t94 87.5t135 31t135 -31zM245 413.5q31 -32.5 81 -32.5q53 0 83 33.5t30 89.5t-31 89.5t-82 33.5q-50 0 -81 -33.5
t-31 -89.5q0 -58 31 -90.5z" />
    <glyph glyph-name="zero.dnom" horiz-adv-x="372" 
d="M302.5 361.5q44.5 -55.5 44.5 -155.5t-44.5 -156t-116.5 -56t-116.5 56t-44.5 156t44.5 155.5t116.5 55.5t116.5 -55.5zM146.5 118q11.5 -28 39.5 -28t40 28.5t12 87.5t-12 87t-40 28t-39.5 -28t-11.5 -87q0 -60 11.5 -88z" />
    <glyph glyph-name="one.dnom" horiz-adv-x="233" 
d="M91 269l-48 -32l-46 86l134 88h68v-411h-108v269z" />
    <glyph glyph-name="two.dnom" horiz-adv-x="319" 
d="M259.5 381q35.5 -36 35.5 -96q0 -39 -17 -71t-48 -67l-46 -51h112v-96h-274v74l130 139q19 19 27 35.5t8 38.5q0 16 -7.5 25t-20.5 9q-32 0 -33 -40l-105 7q1 60 37.5 94.5t97.5 34.5q68 0 103.5 -36z" />
    <glyph glyph-name="three.dnom" horiz-adv-x="329" 
d="M261 384.5q35 -32.5 35 -90.5q0 -52 -42 -81q20 -10 33.5 -34t13.5 -55q0 -61 -38.5 -95.5t-101.5 -34.5q-67 0 -103 34t-37 94l109 7q0 -18 7.5 -28.5t22.5 -10.5t24 10t9 28q0 19 -10 29t-28 10h-43v85h42q15 0 26 9.5t11 25.5t-8 25t-22 9q-13 0 -21 -9t-8 -26l-106 6
q1 59 35.5 92t99.5 33t100 -32.5z" />
    <glyph glyph-name="four.dnom" horiz-adv-x="350" 
d="M333 65h-46v-65h-107v65h-165v84l169 262h103v-250h46v-96zM180 161v105l-72 -105h72z" />
    <glyph glyph-name="five.dnom" horiz-adv-x="323" 
d="M267 233q36 -34 36 -99t-38.5 -102.5t-104.5 -37.5q-64 0 -100.5 33t-37.5 88l105 6q1 -14 10 -22.5t24 -8.5q16 0 25 11t9 30t-9 30t-25 11q-10 0 -16 -3t-16 -9h-93v251h251v-96h-143v-55q16 7 30 7q57 0 93 -34z" />
    <glyph glyph-name="six.dnom" horiz-adv-x="351" 
d="M67.5 32.5q-42.5 38.5 -42.5 102.5q0 25 8 46.5t24 43.5l125 186h130l-101 -144l12 -1q47 -12 75 -47t28 -84q0 -64 -42.5 -102.5t-107.5 -38.5q-66 0 -108.5 38.5zM145.5 103q10.5 -13 29.5 -13q20 0 31 13t11 35t-11 35t-31 13q-19 0 -29.5 -13.5t-10.5 -34.5
q0 -22 10.5 -35z" />
    <glyph glyph-name="seven.dnom" horiz-adv-x="315" 
d="M31 0l139 315h-154v96h277v-84l-143 -327h-119z" />
    <glyph glyph-name="eight.dnom" horiz-adv-x="353" 
d="M276.5 384.5q39.5 -32.5 39.5 -87.5q0 -43 -32 -77q43 -38 43 -94q0 -61 -42.5 -96.5t-108.5 -35.5q-65 0 -107.5 35.5t-42.5 96.5q0 55 43 93q-32 35 -32 78q0 55 39 87.5t100 32.5t100.5 -32.5zM146 101q12 -11 30 -11q19 0 31 11t12 31t-12 31.5t-31 11.5
q-18 0 -30 -11.5t-12 -31.5t12 -31zM149 254.5q11 -10.5 27 -10.5q17 0 27.5 10t10.5 28t-10.5 28.5t-27.5 10.5q-16 0 -27 -10.5t-11 -28.5q0 -17 11 -27.5z" />
    <glyph glyph-name="nine.dnom" horiz-adv-x="351" 
d="M283 378.5q43 -38.5 43 -102.5q0 -25 -8 -46.5t-24 -43.5l-124 -186h-131l102 144l-12 1q-46 11 -75 46t-29 85q0 64 42 102.5t107 38.5q66 0 109 -38.5zM145 237.5q11 -12.5 30 -12.5q20 0 31 13.5t11 34.5q0 22 -11 35t-31 13q-19 0 -30 -13t-11 -35q0 -23 11 -35.5z
" />
    <glyph glyph-name="zero.numr" horiz-adv-x="372" 
d="M302.5 682.5q44.5 -55.5 44.5 -155.5t-44.5 -156t-116.5 -56t-116.5 56t-44.5 156t44.5 155.5t116.5 55.5t116.5 -55.5zM146.5 439q11.5 -28 39.5 -28t40 28.5t12 87.5t-12 87t-40 28t-39.5 -28t-11.5 -87q0 -60 11.5 -88z" />
    <glyph glyph-name="one.numr" horiz-adv-x="233" 
d="M91 591l-48 -32l-46 86l134 88h68v-411h-108v269z" />
    <glyph glyph-name="two.numr" horiz-adv-x="319" 
d="M259.5 703q35.5 -36 35.5 -96q0 -39 -17 -71.5t-48 -67.5l-46 -51h112v-96h-274v75l130 138q18 19 26.5 36t8.5 38q0 16 -7.5 25.5t-20.5 9.5q-15 0 -23.5 -10.5t-9.5 -29.5l-105 6q1 60 37.5 95t97.5 35q68 0 103.5 -36z" />
    <glyph glyph-name="three.numr" horiz-adv-x="329" 
d="M261 706q35 -33 35 -91q0 -52 -42 -81q20 -10 33.5 -34t13.5 -55q0 -60 -38.5 -95t-101.5 -35q-67 0 -103 34.5t-37 93.5l109 8q0 -19 7.5 -29.5t22.5 -10.5t24 10t9 28q0 19 -10 29t-28 10h-43v85h42q15 0 26 10t11 26t-8 25t-22 9q-13 0 -21 -9t-8 -27l-106 6
q1 59 36 92.5t99 33.5q65 0 100 -33z" />
    <glyph glyph-name="four.numr" horiz-adv-x="350" 
d="M333 387h-46v-66h-107v66h-165v83l169 262h103v-250h46v-95zM180 482v105l-72 -105h72z" />
    <glyph glyph-name="five.numr" horiz-adv-x="323" 
d="M267 555q36 -34 36 -99t-38.5 -102.5t-104.5 -37.5q-64 0 -100.5 33t-37.5 88l104 6q3 -31 35 -31q16 0 25 11t9 30t-9.5 30t-25.5 11q-17 0 -31 -12h-93v251h251v-96h-143v-55q16 7 30 7q57 0 93 -34z" />
    <glyph glyph-name="six.numr" horiz-adv-x="351" 
d="M68 354q-43 39 -43 102q0 26 8 46.5t24 44.5l125 185h130l-101 -143q3 -1 10 -1q47 -11 76 -46.5t29 -85.5q0 -63 -42.5 -102t-107.5 -39t-108 39zM145.5 424q10.5 -13 29.5 -13t30.5 13t11.5 36q0 22 -11 34.5t-31 12.5q-19 0 -29.5 -13.5t-10.5 -33.5q0 -23 10.5 -36z
" />
    <glyph glyph-name="seven.numr" horiz-adv-x="315" 
d="M31 322l139 315h-154v96h277v-84l-143 -327h-119z" />
    <glyph glyph-name="eight.numr" horiz-adv-x="353" 
d="M276.5 706.5q39.5 -32.5 39.5 -88.5q0 -43 -32 -77q43 -38 43 -94q0 -61 -42.5 -96.5t-108.5 -35.5q-65 0 -107.5 35.5t-42.5 96.5q0 54 43 94q-32 34 -32 77q0 56 39 88.5t100 32.5t100.5 -32.5zM146 422.5q12 -11.5 30 -11.5q19 0 31 11.5t12 30.5q0 20 -12 31.5
t-31 11.5q-18 0 -30 -11.5t-12 -31.5q0 -19 12 -30.5zM149 575.5q11 -10.5 27 -10.5q17 0 27.5 10.5t10.5 28.5t-10.5 28.5t-27.5 10.5q-16 0 -27 -10.5t-11 -28.5t11 -28.5z" />
    <glyph glyph-name="nine.numr" horiz-adv-x="351" 
d="M283 700q43 -39 43 -102q0 -26 -8 -47.5t-24 -43.5l-124 -186h-131l102 144q-3 0 -13 2q-47 11 -75 46t-28 85q0 63 42 102t107 39q66 0 109 -39zM145 559q11 -13 30 -13q20 0 31 13.5t11 34.5q0 23 -11.5 36t-30.5 13t-30 -13.5t-11 -35.5t11 -35z" />
    <glyph glyph-name="periodcentered.cap" horiz-adv-x="264" 
d="M184.5 498q24.5 -25 24.5 -60q0 -36 -24.5 -60.5t-60.5 -24.5t-60.5 24.5t-24.5 60.5q0 35 24.5 60t60.5 25t60.5 -25z" />
    <glyph glyph-name="exclamdown.cap" horiz-adv-x="319" 
d="M99.5 613q-25.5 25 -25.5 61q0 35 25.5 59.5t60.5 24.5q36 0 60.5 -24.5t24.5 -59.5q0 -36 -24.5 -61t-60.5 -25q-35 0 -60.5 25zM86 522h147l9 -522h-164z" />
    <glyph glyph-name="questiondown.cap" horiz-adv-x="532" 
d="M205 613q-25 25 -25 61q0 35 25 59.5t61 24.5q35 0 60 -24.5t25 -59.5q0 -36 -25 -61t-60 -25q-36 0 -61 25zM42.5 307.5q25.5 36.5 73.5 73.5q39 31 57 54.5t18 55.5v31h148v-37q0 -44 -24 -78.5t-71 -74.5q-39 -33 -57.5 -58t-18.5 -58q0 -44 26 -70t71 -26
q46 0 73 26.5t30 74.5l147 -8q-2 -68 -34 -119t-88 -78.5t-128 -27.5q-76 0 -132 28t-86 79t-30 119q0 57 25.5 93.5z" />
    <glyph glyph-name="braceleft.cap" horiz-adv-x="298" 
d="M219.5 636q-15.5 -17 -15.5 -57q0 -20 5 -58q5 -35 5 -58q0 -39 -15.5 -62t-54.5 -28q39 -5 54.5 -28t15.5 -62q0 -24 -5 -59q-5 -38 -5 -58q0 -41 15.5 -58t51.5 -17h6v-116h-6q-94 0 -150.5 44.5t-56.5 129.5q0 31 7 62q10 43 10 63q0 22 -12.5 31.5t-43.5 9.5h-8v115
h8q31 0 43.5 9.5t12.5 31.5q0 20 -10 63q-7 31 -7 62q0 85 56.5 129.5t150.5 44.5h6v-117h-6q-36 0 -51.5 -17z" />
    <glyph glyph-name="braceright.cap" horiz-adv-x="298" 
d="M176.5 725.5q56.5 -44.5 56.5 -128.5q0 -31 -7 -63q-10 -43 -10 -63q0 -22 12.5 -31.5t44.5 -9.5h8v-115h-8q-32 0 -44.5 -9.5t-12.5 -31.5q0 -20 10 -63q7 -32 7 -63q0 -84 -56.5 -128.5t-149.5 -44.5h-6v116h6q36 0 51.5 17t15.5 58q0 21 -5 58q-5 33 -5 57
q0 40 16 63.5t54 28.5q-38 5 -54 28t-16 63q0 24 5 57q5 37 5 57q0 41 -15.5 58t-51.5 17h-6v117h6q93 0 149.5 -44.5z" />
    <glyph glyph-name="bracketleft.cap" horiz-adv-x="303" 
d="M194 91h88v-116h-229v795h229v-116h-88v-563z" />
    <glyph glyph-name="bracketright.cap" horiz-adv-x="314" 
d="M21 91h89v563h-89v116h229v-795h-229v116z" />
    <glyph glyph-name="parenleft.cap" horiz-adv-x="294" 
d="M177 362q0 -199 100 -372l-121 -43q-54 82 -86.5 187t-32.5 228t32.5 227.5t86.5 187.5l121 -43q-100 -173 -100 -372z" />
    <glyph glyph-name="parenright.cap" horiz-adv-x="289" 
d="M224.5 589.5q32.5 -104.5 32.5 -227.5t-32.5 -228t-86.5 -187l-121 43q100 173 100 372t-100 372l121 43q54 -83 86.5 -187.5z" />
    <glyph glyph-name="emdash.cap" horiz-adv-x="798" 
d="M45 443h708v-132h-708v132z" />
    <glyph glyph-name="endash.cap" horiz-adv-x="566" 
d="M45 443h476v-132h-476v132z" />
    <glyph glyph-name="hyphen.cap" horiz-adv-x="406" 
d="M45 443h316v-132h-316v132z" />
    <glyph glyph-name="guillemotleft.cap" horiz-adv-x="576" 
d="M291 222l-112 -69l-164 233l164 234l112 -69l-120 -165zM448 620l112 -69l-120 -165l120 -164l-112 -69l-165 233z" />
    <glyph glyph-name="guillemotright.cap" horiz-adv-x="576" 
d="M17 222l120 164l-120 165l112 69l165 -234l-165 -233zM405 386l-120 165l112 69l164 -234l-164 -233l-112 69z" />
    <glyph glyph-name="guilsinglleft.cap" horiz-adv-x="335" 
d="M318 244l-101 -88l-202 230l202 231l101 -88l-134 -143z" />
    <glyph glyph-name="guilsinglright.cap" horiz-adv-x="335" 
d="M17 244l134 142l-134 143l100 88l203 -231l-203 -230z" />
    <glyph glyph-name="emdash_guilsinglright" horiz-adv-x="882" 
d="M511 87l111 116h-577v115h574l-108 113l98 88l238 -260l-238 -260z" />
    <glyph glyph-name="endash_guilsinglright" horiz-adv-x="613" 
d="M242 87l112 116h-309v115h305l-108 113l99 88l237 -260l-237 -260z" />
    <glyph glyph-name="guilsinglleft_emdash" horiz-adv-x="882" 
d="M837 318v-115h-578l112 -116l-98 -88l-238 260l238 260l98 -88l-109 -113h575z" />
    <glyph glyph-name="guilsinglleft_endash" horiz-adv-x="613" 
d="M568 318v-115h-309l112 -116l-98 -88l-238 260l238 260l98 -88l-109 -113h306z" />
    <glyph glyph-name="at.cap" horiz-adv-x="795" 
d="M213 62.5q-81 45.5 -128.5 126.5t-47.5 184q0 101 46.5 183t128.5 128.5t185 46.5t185 -46.5t129 -128.5t47 -183q0 -102 -41.5 -155t-114.5 -53q-38 0 -64 14.5t-38 41.5q-45 -58 -128 -58q-56 0 -99.5 26t-67.5 73.5t-24 110.5q0 64 24 111.5t67.5 73.5t99.5 26
q41 0 71.5 -14t47.5 -36v36h101v-298q0 -41 37 -41q30 0 48.5 36.5t18.5 105.5q0 85 -39 153.5t-107 107.5t-153 39t-153 -39t-106.5 -107.5t-38.5 -153.5q0 -88 40 -156t107 -105t145 -37q56 0 98.5 11.5t81.5 33.5l22 -56q-42 -25 -89 -36t-113 -11q-97 0 -178 45.5z
M317 287.5q27 -30.5 72 -30.5q44 0 70 28.5t26 78.5v19q0 50 -26 78t-70 28q-45 0 -72 -30.5t-27 -85.5t27 -85.5z" />
    <glyph glyph-name="acute.case" horiz-adv-x="342" 
d="M139 950h192l-194 -153h-127z" />
    <glyph glyph-name="breve.case" horiz-adv-x="388" 
d="M326.5 840.5q-50.5 -41.5 -133.5 -41.5t-132.5 41.5t-49.5 120.5h114q0 -30 18.5 -47.5t49.5 -17.5q32 0 50.5 17.5t18.5 47.5h115q0 -79 -50.5 -120.5z" />
    <glyph glyph-name="caron.case" horiz-adv-x="389" 
d="M10 955h118l66 -76l67 76h117l-116 -158h-135z" />
    <glyph glyph-name="circumflex.case" horiz-adv-x="389" 
d="M194 874l-66 -77h-118l117 158h135l116 -158h-117z" />
    <glyph glyph-name="dieresis.case" horiz-adv-x="363" 
d="M141.5 933.5q22.5 -22.5 22.5 -54.5t-22.5 -54t-54.5 -22t-54 22t-22 54t22.5 54.5t53.5 22.5q32 0 54.5 -22.5zM222 933.5q22 22.5 54 22.5t54.5 -22.5t22.5 -54.5t-22.5 -54t-54.5 -22t-54 22t-22 54t22 54.5z" />
    <glyph glyph-name="dotaccent.case" horiz-adv-x="191" 
d="M156 945.5q25 -25.5 25 -60.5t-25 -59.5t-61 -24.5q-35 0 -59.5 24.5t-24.5 59.5t25 60.5t59 25.5q36 0 61 -25.5z" />
    <glyph glyph-name="grave.case" horiz-adv-x="342" 
d="M11 950h192l129 -153h-128z" />
    <glyph glyph-name="hungarumlaut.case" horiz-adv-x="412" 
d="M71 967h132l-84 -167h-110zM270 967h133l-84 -167h-110z" />
    <glyph glyph-name="macron.case" horiz-adv-x="315" 
d="M9 926h297v-107h-297v107z" />
    <glyph glyph-name="ring.case" horiz-adv-x="249" 
d="M205.5 978q32.5 -30 32.5 -77q0 -46 -32.5 -76t-80.5 -30t-81 30t-33 76q0 47 32.5 77t81.5 30q48 0 80.5 -30zM94 871q12 -12 31 -12t31 12t12 30q0 19 -12 31t-31 12t-31 -12t-12 -31q0 -18 12 -30z" />
    <glyph glyph-name="tilde.case" horiz-adv-x="382" 
d="M157 951q18 -8 39 -23q18 -12 29.5 -17.5t24.5 -5.5q21 0 31.5 12.5t10.5 34.5h79q1 -6 1 -17q0 -57 -29 -96.5t-77 -39.5q-24 0 -41.5 8.5t-39.5 23.5q-18 12 -29 17.5t-24 5.5q-22 0 -32 -13t-10 -35h-79q-1 6 -1 18q0 57 28.5 96t77.5 39q23 0 41 -8z" />
    <glyph glyph-name="anneau" horiz-adv-x="594" 
d="M435 727.5q62 -33.5 97 -91.5t35 -130q0 -73 -35 -131.5t-97 -92t-138 -33.5q-77 0 -138.5 33.5t-96.5 92t-35 131.5q0 72 35 130t96.5 91.5t138.5 33.5q76 0 138 -33.5zM109.5 398.5q27.5 -47.5 76 -74t111.5 -26.5q62 0 111 26.5t76.5 74t27.5 107.5q0 59 -27.5 106
t-76.5 73.5t-111 26.5q-63 0 -111.5 -26.5t-76 -73.5t-27.5 -106q0 -60 27.5 -107.5z" />
    <glyph glyph-name="uni10D3.001" horiz-adv-x="874" 
d="M478.5 -177q-48.5 24 -123.5 24h-236v111h71q-69 39 -107 113t-38 170q0 88 29 147.5t78 88.5t109 29q55 0 100.5 -25t64.5 -72q20 46 67.5 71.5t105.5 25.5q64 0 116.5 -30t83 -84.5t30.5 -124.5q0 -69 -30 -123t-84 -83.5t-122 -29.5t-122.5 29.5t-85 83t-30.5 123.5
v19q0 44 -20.5 72t-58.5 28q-42 0 -66 -36.5t-24 -112.5q0 -85 31.5 -143.5t83 -89.5t113.5 -37l31 -3q105 -11 165.5 -66.5t67.5 -152.5l-141 -5q-10 59 -58.5 83zM521 182.5q26 -32.5 71 -32.5t71 32t26 86t-26 86t-71 32q-44 0 -70.5 -32t-26.5 -86q0 -53 26 -85.5z" />
    <glyph glyph-name="uni10D6.001" horiz-adv-x="642" 
d="M198 21.5q-60 31.5 -94 88.5t-34 132q0 95 62 156q-55 19 -90.5 66.5t-35.5 112.5q0 62 28 109.5t78.5 73.5t114.5 26q65 0 116 -24.5t79.5 -69.5t28.5 -104q0 -33 -8.5 -58.5t-27.5 -50.5q85 -17 133.5 -79.5t48.5 -152.5q0 -77 -34.5 -135.5t-94.5 -90t-135 -31.5
t-135 31.5zM163.5 513q24.5 -26 63.5 -26q40 0 64.5 26t24.5 64q0 39 -24.5 65.5t-64.5 26.5q-39 0 -63.5 -26.5t-24.5 -64.5q0 -39 24.5 -65zM245 147q34 -37 88 -37t88.5 37t34.5 100q0 61 -34.5 98.5t-88.5 37.5t-88 -37t-34 -99q0 -63 34 -100z" />
    <glyph glyph-name="uni10DD.001" horiz-adv-x="906" 
d="M57 111q-12 51 -12 111q0 86 29 142.5t76.5 83t105.5 26.5q59 0 104 -27.5t65 -87.5h8q19 58 63.5 86.5t104.5 28.5q90 0 148 -62.5t58 -189.5q0 -15 -2 -45q66 -30 141 -39l-38 -118q-68 25 -119 67q-12 -41 -32 -87h-143q23 57 33.5 107t10.5 107q0 76 -22.5 111.5
t-61.5 35.5q-36 0 -56.5 -27.5t-20.5 -84.5v-139h-143v139q0 57 -20 84.5t-56 27.5q-84 0 -84 -148q0 -56 10.5 -107t31.5 -106h-144q-23 60 -35 111z" />
    <glyph glyph-name="uni10E6.001" horiz-adv-x="855" 
d="M478 -169.5q-48 25.5 -123 25.5h-242v111h70q-67 38 -101 109.5t-34 161.5t29.5 150t78.5 89t108 29q120 0 165 -94q45 94 165 94q60 0 109 -29t78 -90t29 -153q0 -95 -32 -198l-137 8q28 89 28 184q0 82 -23.5 120t-64.5 38q-82 0 -82 -124v-144h-140v144q0 124 -81 124
q-41 0 -65 -38t-24 -120q0 -135 62 -189.5t150 -62.5l30 -3q106 -9 172 -67t73 -161l-141 -5q-9 65 -57 90.5z" />
    <glyph glyph-name="uni10ED.001" horiz-adv-x="730" 
d="M174.5 -281.5q-56.5 29.5 -86.5 80.5t-30 114q0 27 8 62l145 -7q-4 -19 -4 -44q0 -56 27.5 -89t73.5 -33q45 0 73 34t28 96v144q0 53 8 88l-47 -32q-31 -23 -69 -36t-75 -13q-50 0 -93.5 25t-69 69.5t-25.5 100.5q0 57 26 102t70 70t96 25q35 0 73 -12t67 -35l47 -33
q-9 39 -9 100v255h146v-374l127 99l19 -110l-146 -82v-8l146 -76l-19 -110l-127 94v-249q0 -73 -29 -128.5t-84.5 -86t-132.5 -30.5t-133.5 29.5zM202.5 217.5q23.5 -23.5 62.5 -23.5q25 0 46.5 11t56.5 34l52 35v9l-52 37q-31 22 -54.5 32.5t-46.5 10.5q-41 0 -64.5 -23.5
t-23.5 -60.5q0 -38 23.5 -61.5z" />
    <glyph glyph-name="uni10EF.001" horiz-adv-x="602" 
d="M511 113.5q50 -62.5 50 -151.5q0 -65 -30.5 -116.5t-89.5 -81t-140 -29.5q-79 0 -137.5 29.5t-90.5 82.5t-32 121q0 26 4 50l140 -4q-3 -12 -3 -37q0 -56 32 -89t87 -33t87 29.5t32 82.5q0 52 -31 81.5t-86 29.5h-70v171q-63 -9 -107 -9q-37 0 -76 6l6 120q38 -7 78 -7
t99 9v127h136v-105q56 7 98 7q40 0 85 -6l-6 -120q-35 6 -84 6q-48 0 -93 -6v-85q92 -10 142 -72.5z" />
    </font>
</defs>
</svg>
