<?xml version="1.0" standalone="no"?>
<!DOCTYPE svg PUBLIC "-//W3C//DTD SVG 1.1//EN" "http://www.w3.org/Graphics/SVG/1.1/DTD/svg11.dtd" >
<svg xmlns="http://www.w3.org/2000/svg" xmlns:xlink="http://www.w3.org/1999/xlink" version="1.1">
<metadata>
Created by FontForge 20201107 at Thu May 20 11:56:22 2021
 By 
Copyright (c) 2014 by Type Dynamic. All rights reserved.
</metadata>
<defs>
<font id="TBCContracticaCAPS-Regular" horiz-adv-x="257" >
  <font-face 
    font-family="TBC Contractica CAPS"
    font-weight="400"
    font-variant="small-caps"
    font-stretch="normal"
    units-per-em="1000"
    panose-1="0 0 3 0 0 0 0 0 0 0"
    ascent="800"
    descent="-200"
    x-height="509"
    cap-height="748"
    bbox="-208 -294 1183 1061"
    underline-thickness="50"
    underline-position="-125"
    unicode-range="U+0020-FB02"
  />
<missing-glyph horiz-adv-x="698" 
d="M83 748h532v-748h-532v748zM314 374l-171 275v-552zM350 425l164 267h-327zM513 56l-163 267l-162 -267h325zM556 102v544l-169 -272z" />
    <glyph glyph-name="fi" unicode="fi" horiz-adv-x="594" 
d="M113 442h-100v67h100v90q0 86 47.5 134.5t127.5 48.5q24 0 36 -4v-67q-10 3 -27 3q-49 0 -78 -30t-29 -83v-92h133v-67h-133v-442h-77v442zM429.5 732.5q15.5 15.5 35.5 15.5q22 0 37.5 -15.5t15.5 -37.5q0 -21 -15.5 -36.5t-37.5 -15.5q-21 0 -36 15.5t-15 36.5
q0 22 15.5 37.5zM427 509h77v-509h-77v509z" />
    <glyph glyph-name="f_j" unicode="fj" horiz-adv-x="594" 
d="M113 442h-100v67h100v90q0 86 47.5 134.5t127.5 48.5q24 0 36 -4v-67q-10 3 -27 3q-49 0 -78 -30t-29 -83v-92h133v-67h-133v-442h-77v442zM300 -190q12 -3 28 -3q47 0 73.5 29t26.5 83v590h77v-588q0 -86 -45 -133.5t-123 -47.5q-19 0 -37 3v67zM428.5 732.5
q14.5 15.5 36.5 15.5t37.5 -15.5t15.5 -37.5q0 -21 -15.5 -36.5t-37.5 -15.5q-21 0 -36 15.5t-15 36.5q0 22 14.5 37.5z" />
    <glyph glyph-name=".notdef" horiz-adv-x="698" 
d="M83 748h532v-748h-532v748zM314 374l-171 275v-552zM350 425l164 267h-327zM513 56l-163 267l-162 -267h325zM556 102v544l-169 -272z" />
    <glyph glyph-name=".null" horiz-adv-x="0" 
 />
    <glyph glyph-name="nonmarkingreturn" horiz-adv-x="600" 
 />
    <glyph glyph-name="space" unicode=" " horiz-adv-x="241" 
 />
    <glyph glyph-name="space" unicode="&#xa0;" horiz-adv-x="241" 
 />
    <glyph glyph-name="exclam" unicode="!" horiz-adv-x="273" 
d="M91 748h89l-4 -550h-81zM97.5 83.5q15.5 15.5 38.5 15.5t39 -15.5t16 -38.5t-16 -38.5t-39 -15.5t-38.5 15.5t-15.5 38.5t15.5 38.5z" />
    <glyph glyph-name="quotedbl" unicode="&#x22;" horiz-adv-x="319" 
d="M46 741h83l-10 -223h-63zM272 741l-9 -223h-64l-9 223h82z" />
    <glyph glyph-name="numbersign" unicode="#" horiz-adv-x="631" 
d="M607 476h-124l-49 -205h130l-14 -63h-130l-50 -208h-66l49 208h-156l-49 -208h-67l50 208h-123l15 63h123l49 205h-129l15 63h129l50 209h66l-51 -209h157l50 209h66l-49 -209h123zM368 271l49 205h-157l-48 -205h156z" />
    <glyph glyph-name="dollar" unicode="$" horiz-adv-x="655" 
d="M537 51q-66 -54 -172 -60v-109h-64v111q-105 8 -171.5 64t-72.5 148l83 5q6 -68 61.5 -108t138.5 -40q81 0 130.5 34t49.5 103q0 45 -23 71t-63 40.5t-118 32.5q-82 20 -131 40t-79.5 59t-30.5 106q0 85 58 143.5t168 65.5v108h64v-110q94 -9 152.5 -62t63.5 -139l-82 -5
q-5 64 -51 100.5t-120 36.5q-82 0 -126 -38t-44 -97q0 -45 22 -71t59 -39.5t106 -29.5q91 -21 145 -43.5t83.5 -61.5t29.5 -102q0 -99 -66 -153z" />
    <glyph glyph-name="percent" unicode="%" horiz-adv-x="832" 
d="M317 709q45 -48 45 -128t-45 -128t-116 -48q-70 0 -115.5 48t-45.5 128t45.5 128t115.5 48q71 0 116 -48zM126 492q29 -33 74 -33q46 0 75.5 33t29.5 89t-29 88.5t-76 32.5q-45 0 -74 -32.5t-29 -88.5t29 -89zM644 748h76l-533 -748h-76zM514.5 296.5
q45.5 47.5 115.5 47.5q71 0 116 -47.5t45 -128.5t-45 -129t-116 -48q-46 0 -82.5 21.5t-57.5 62t-21 93.5q0 81 45.5 128.5zM555.5 79q29.5 -33 74.5 -33t74 32.5t29 89.5q0 56 -29 88.5t-74 32.5q-46 0 -75 -32.5t-29 -88.5t29.5 -89z" />
    <glyph glyph-name="ampersand" unicode="&#x26;" horiz-adv-x="693" 
d="M283 -9q-76 0 -130 27t-82 74.5t-28 107.5q0 73 34 125.5t98 95.5q-31 35 -47.5 71t-16.5 80q0 89 54 137t144 48q80 0 133.5 -43.5t63.5 -120.5l-79 -5q-7 48 -38 74.5t-80 26.5q-53 0 -85 -30t-32 -86q0 -34 14.5 -62t35.5 -50t64 -62l198 -180q41 75 66 173l72 -19
q-34 -122 -83 -203l131 -119l-47 -60l-127 116q-96 -116 -233 -116zM168 100.5q43 -39.5 117 -39.5q100 0 177 93l-200 185q2 -2 -38 35q-48 -33 -73.5 -72.5t-25.5 -94.5q0 -67 43 -106.5z" />
    <glyph glyph-name="quotesingle" unicode="'" horiz-adv-x="175" 
d="M46 741h83l-10 -223h-63z" />
    <glyph glyph-name="parenleft" unicode="(" horiz-adv-x="249" 
d="M148.5 528.5q-30.5 -97.5 -30.5 -208.5q0 -110 30.5 -207t79.5 -175l-67 -25q-54 81 -87 185t-33 222t33 222t87 185l67 -24q-49 -77 -79.5 -174.5z" />
    <glyph glyph-name="parenright" unicode=")" horiz-adv-x="249" 
d="M174.5 542.5q33.5 -104.5 33.5 -222.5t-33.5 -222.5t-87.5 -184.5l-66 25q49 78 79.5 175t30.5 207q0 111 -30.5 208.5t-79.5 174.5l66 24q54 -80 87.5 -184.5z" />
    <glyph glyph-name="asterisk" unicode="*" horiz-adv-x="328" 
d="M317 629l-118 -38l73 -98l-36 -28l-73 102l-72 -103l-36 28l74 99l-118 38l13 42l118 -40v125h44l-1 -125l118 40z" />
    <glyph glyph-name="plus" unicode="+" horiz-adv-x="546" 
d="M512 335h-201v-207h-76v207h-202v70h202v201h76v-201h201v-70z" />
    <glyph glyph-name="comma" unicode="," horiz-adv-x="196" 
d="M99 -8q-22 0 -37 15.5t-15 37.5q0 23 15 38.5t37 15.5q24 0 37 -17t13 -46q0 -121 -106 -183v35q50 38 56 104z" />
    <glyph glyph-name="hyphen" unicode="-" horiz-adv-x="402" 
d="M45 298h312v-73h-312v73z" />
    <glyph glyph-name="period" unicode="." horiz-adv-x="200" 
d="M138.5 83.5q15.5 -15.5 15.5 -38.5t-15.5 -38.5t-39.5 -15.5q-23 0 -38 15.5t-15 38.5t15 38.5t38 15.5q24 0 39.5 -15.5z" />
    <glyph glyph-name="slash" unicode="/" horiz-adv-x="357" 
d="M267 748h79l-254 -815h-81z" />
    <glyph glyph-name="zero" unicode="0" horiz-adv-x="643" 
d="M463 712.5q60 -44.5 92.5 -130.5t32.5 -208q0 -121 -32.5 -207.5t-92.5 -131t-141 -44.5t-141.5 44.5t-93 131t-32.5 207.5q0 122 32.5 208t93 130.5t141.5 44.5t141 -44.5zM185 142.5q47 -79.5 136 -79.5q90 0 137.5 79.5t47.5 231.5q0 153 -47.5 232t-137.5 79
q-89 0 -136 -79.5t-47 -231.5t47 -231.5z" />
    <glyph glyph-name="one" unicode="1" horiz-adv-x="369" 
d="M195 642l-141 -112l-39 63l200 157h60v-750h-80v642z" />
    <glyph glyph-name="two" unicode="2" horiz-adv-x="535" 
d="M431.5 701.5q55.5 -55.5 55.5 -153.5q0 -87 -37 -153t-111 -143l-175 -179h333v-73h-440v64l220 230q70 75 99.5 127.5t29.5 123.5q0 64 -33.5 102t-96.5 38q-67 0 -102.5 -41t-37.5 -116l-81 4q2 107 59.5 166t161.5 59q100 0 155.5 -55.5z" />
    <glyph glyph-name="three" unicode="3" horiz-adv-x="555" 
d="M431 702.5q57 -54.5 57 -148.5q0 -63 -30.5 -106.5t-77.5 -59.5q57 -14 92 -60.5t35 -117.5q0 -101 -63 -160t-167 -59q-106 0 -166 57.5t-68 160.5l82 4q8 -71 46 -110.5t106 -39.5q69 0 108.5 39.5t39.5 108.5q0 68 -42 104t-113 36h-73v71h72q61 0 99 36t38 96
q0 62 -35.5 96.5t-95.5 34.5q-62 0 -98.5 -37.5t-40.5 -104.5l-81 5q5 98 62.5 153.5t157.5 55.5q99 0 156 -54.5z" />
    <glyph glyph-name="four" unicode="4" horiz-adv-x="595" 
d="M569 185h-135v-185h-75v185h-333v66l343 499h65v-493h135v-72zM359 257v354l-246 -354h246z" />
    <glyph glyph-name="five" unicode="5" horiz-adv-x="558" 
d="M402.5 429.5q50.5 -27.5 78.5 -79.5t28 -123q0 -69 -27.5 -122.5t-80 -83.5t-124.5 -30q-104 0 -164 56.5t-68 155.5l82 5q8 -69 45.5 -107t104.5 -38q72 0 112 45.5t40 117.5q0 71 -41 114.5t-108 43.5q-39 0 -70.5 -12t-61.5 -36h-76v414h409v-72h-328v-263
q58 42 134 42q65 0 115.5 -27.5z" />
    <glyph glyph-name="six" unicode="6" horiz-adv-x="590" 
d="M169.5 20.5q-56.5 29.5 -89 84.5t-32.5 127q0 86 50 155l274 361h96l-212 -280q30 5 55 5q67 -3 120 -33t83.5 -84t30.5 -124q0 -72 -32.5 -127t-88.5 -84.5t-127 -29.5t-127.5 29.5zM177 109.5q46 -46.5 120 -46.5q72 0 118.5 47t46.5 124q0 79 -46.5 125t-118.5 46
q-87 0 -132 -59q-34 -42 -34 -112q0 -78 46 -124.5z" />
    <glyph glyph-name="seven" unicode="7" horiz-adv-x="539" 
d="M66 0l360 678h-402v72h492v-66l-360 -684h-90z" />
    <glyph glyph-name="eight" unicode="8" horiz-adv-x="597" 
d="M411.5 733.5q50.5 -23.5 80 -68.5t29.5 -106q0 -59 -29 -102t-73 -63q52 -21 85.5 -70t33.5 -116q0 -66 -31 -115.5t-85.5 -75.5t-123.5 -26t-123.5 26t-85.5 75.5t-31 115.5q0 67 33 115.5t85 70.5q-45 20 -73 63t-28 102q0 61 28.5 106t79.5 68.5t115 23.5
q63 0 113.5 -23.5zM184.5 103q45.5 -40 113.5 -40q69 0 114 40t45 107q0 68 -44.5 107t-114.5 39q-69 0 -114 -39t-45 -107q0 -67 45.5 -107zM196.5 459.5q40.5 -35.5 102.5 -35.5q61 0 100.5 35.5t39.5 94.5q0 60 -39.5 95.5t-100.5 35.5q-62 0 -102.5 -35.5t-40.5 -95.5
q0 -59 40.5 -94.5z" />
    <glyph glyph-name="nine" unicode="9" horiz-adv-x="590" 
d="M420.5 727.5q56.5 -29.5 89 -84t32.5 -126.5q0 -87 -51 -156l-273 -361h-96l212 280q-30 -5 -55 -5q-67 3 -120 33t-83.5 84t-30.5 125q0 72 32.5 126.5t89 84t126.5 29.5q71 0 127.5 -29.5zM174 389.5q46 -45.5 119 -45.5q86 0 132 58q34 45 34 112q0 78 -46.5 124.5
t-119.5 46.5q-72 0 -118.5 -46.5t-46.5 -124.5q0 -79 46 -124.5z" />
    <glyph glyph-name="colon" unicode=":" horiz-adv-x="200" 
d="M134 502q16 -16 16 -39t-16 -39t-39 -16q-22 0 -37.5 16t-15.5 39t15.5 39t37.5 16q23 0 39 -16zM57 83.5q15 15.5 38 15.5t39 -15.5t16 -38.5t-16 -38.5t-39 -15.5t-38 15.5t-15 38.5t15 38.5z" />
    <glyph glyph-name="semicolon" unicode=";" horiz-adv-x="200" 
d="M57.5 424q-15.5 16 -15.5 39t15.5 39t37.5 16q23 0 39 -16t16 -39t-16 -39t-39 -16q-22 0 -37.5 16zM43 -112q50 38 56 104q-22 0 -37 15.5t-15 37.5q0 23 15 38.5t37 15.5q24 0 37 -17t13 -45q0 -122 -106 -184v35z" />
    <glyph glyph-name="less" unicode="&#x3c;" horiz-adv-x="515" 
d="M483 229l-2 -86l-453 226l453 226l2 -86l-303 -140z" />
    <glyph glyph-name="equal" unicode="=" horiz-adv-x="546" 
d="M33 524h479v-73h-479v73zM33 285h479v-73h-479v73z" />
    <glyph glyph-name="greater" unicode="&#x3e;" horiz-adv-x="515" 
d="M33 229l302 140l-302 140l1 86l454 -226l-454 -226z" />
    <glyph glyph-name="question" unicode="?" horiz-adv-x="497" 
d="M370.5 731.5q51.5 -27.5 78.5 -76t27 -110.5t-26 -100.5t-81 -77.5q-46 -36 -65 -66t-19 -75v-28h-82v31q0 51 22 88.5t74 78.5q48 35 70.5 67.5t22.5 79.5q0 63 -38 103t-105 40t-105 -35t-44 -98l-82 5q6 93 67.5 147t163.5 54q70 0 121.5 -27.5zM204 83.5
q16 15.5 39 15.5t39 -15.5t16 -38.5t-16 -38.5t-39 -15.5t-39 15.5t-16 38.5t16 38.5z" />
    <glyph glyph-name="at" unicode="@" horiz-adv-x="798" 
d="M216 -63.5q-81 45.5 -127.5 126.5t-46.5 182t46 182t127.5 127.5t183.5 46.5q101 0 182.5 -46.5t128 -127.5t46.5 -182q0 -96 -37 -148.5t-101 -52.5q-37 0 -60.5 17.5t-30.5 49.5q-45 -70 -144 -70q-55 0 -97.5 25t-66.5 72t-24 110q0 97 52 152.5t136 55.5
q53 0 88.5 -19t53.5 -52v60h57v-298q0 -58 49 -58q37 0 58.5 41t21.5 115q0 89 -40.5 161t-112 113t-159.5 41q-90 0 -161 -41t-111.5 -113t-40.5 -161q0 -90 41 -161t112 -110.5t157 -39.5q57 0 101 12.5t85 38.5l13 -41q-43 -27 -89.5 -40t-109.5 -13q-99 0 -180 45.5z
M293.5 134.5q37.5 -40.5 98.5 -40.5q60 0 95 36.5t35 105.5v25q0 69 -35 105.5t-95 36.5q-61 0 -98.5 -40.5t-37.5 -114.5q0 -73 37.5 -113.5z" />
    <glyph glyph-name="A" unicode="A" horiz-adv-x="726" 
d="M538 201h-349l-83 -201h-89l311 748h70l312 -748h-90zM509 267l-145 355l-147 -355h292z" />
    <glyph glyph-name="B" unicode="B" horiz-adv-x="683" 
d="M527.5 697.5q60.5 -50.5 60.5 -146.5q0 -60 -22.5 -100.5t-58.5 -61.5q48 -18 81 -65t33 -118q0 -101 -63.5 -153.5t-164.5 -52.5h-300v748h274q100 0 160.5 -50.5zM384 73q68 0 111 34t43 103q0 70 -42 104t-103 34h-219v-275h210zM385 419q55 0 87.5 30.5t32.5 95.5
q0 64 -40 97.5t-107 33.5h-184v-257h211z" />
    <glyph glyph-name="C" unicode="C" horiz-adv-x="805" 
d="M583 723.5q73 -33.5 120 -95.5t58 -145l-84 -9q-14 98 -85 154.5t-173 56.5q-82 0 -145 -37t-98.5 -107.5t-35.5 -166.5q0 -98 37 -168t101 -106.5t144 -36.5q101 0 169.5 52t85.5 146l85 -7q-14 -81 -60.5 -140.5t-118 -91t-158.5 -31.5q-105 0 -188.5 45.5t-131.5 132
t-48 205.5t47 205.5t129.5 132t188.5 45.5q88 0 161 -33.5z" />
    <glyph glyph-name="D" unicode="D" horiz-adv-x="798" 
d="M566.5 703.5q81.5 -44.5 127.5 -129t46 -200.5q0 -115 -47 -199.5t-128.5 -129.5t-183.5 -45h-288v748h289q103 0 184.5 -44.5zM381 70q81 0 144 35t98.5 103.5t35.5 165.5t-35 165.5t-97.5 103.5t-143.5 35h-209v-608h207z" />
    <glyph glyph-name="E" unicode="E" horiz-adv-x="591" 
d="M174 423h334v-72h-334v-278h378v-73h-459v748h459v-72h-378v-253z" />
    <glyph glyph-name="F" unicode="F" horiz-adv-x="582" 
d="M174 417h316v-72h-316v-345h-81v748h460v-72h-379v-259z" />
    <glyph glyph-name="G" unicode="G" horiz-adv-x="819" 
d="M722 156.5q-42 -80.5 -119.5 -123t-181.5 -42.5t-186.5 45.5t-130 132.5t-47.5 205q0 119 47 205.5t129 132t187 45.5q86 0 158 -31.5t119 -91t61 -142.5l-84 -14q-14 96 -83.5 151.5t-171.5 55.5q-82 0 -145 -36t-98.5 -106t-35.5 -169t36 -169t99 -106t144 -36
q111 0 179.5 61t77.5 179h-253v73h341v-29q0 -110 -42 -190.5z" />
    <glyph glyph-name="H" unicode="H" horiz-adv-x="751" 
d="M577 352h-403v-352h-81v748h81v-323h403v323h83v-748h-83v352z" />
    <glyph glyph-name="I" unicode="I" horiz-adv-x="267" 
d="M93 748h81v-748h-81v748z" />
    <glyph glyph-name="J" unicode="J" horiz-adv-x="573" 
d="M426.5 54.5q-60.5 -63.5 -167.5 -63.5q-105 0 -167 61t-68 168l82 13q4 -81 44.5 -125.5t108.5 -44.5q70 0 108.5 43t38.5 125v517h81v-515q0 -115 -60.5 -178.5z" />
    <glyph glyph-name="K" unicode="K" horiz-adv-x="669" 
d="M552 0l-287 365l-91 -100v-265h-81v748h81v-362l330 362h105l-291 -319l332 -429h-98z" />
    <glyph glyph-name="L" unicode="L" horiz-adv-x="591" 
d="M557 0h-464v748h81v-675h383v-73z" />
    <glyph glyph-name="M" unicode="M" horiz-adv-x="982" 
d="M808 563l-289 -559h-54l-291 559v-563h-81v748h70l329 -624l327 624h71v-748h-82v563z" />
    <glyph glyph-name="N" unicode="N" horiz-adv-x="748" 
d="M174 596v-596h-81v748h68l412 -597v597h82v-748h-69z" />
    <glyph glyph-name="O" unicode="O" horiz-adv-x="864" 
d="M623 710.5q85 -46.5 134 -133t49 -203.5t-49 -203.5t-134 -133t-190 -46.5q-106 0 -191.5 46.5t-135 133t-49.5 203.5t49.5 203.5t135 133t191.5 46.5q105 0 190 -46.5zM179 208.5q38 -70.5 104.5 -108t149.5 -37.5q82 0 148 37.5t104 108t38 165.5q0 96 -38 166
t-104 107.5t-148 37.5q-83 0 -149.5 -37.5t-104.5 -107.5t-38 -166q0 -95 38 -165.5z" />
    <glyph glyph-name="P" unicode="P" horiz-adv-x="646" 
d="M497.5 722.5q51.5 -25.5 81.5 -76t30 -122.5t-30 -122.5t-81.5 -76t-116.5 -25.5h-207v-300h-81v748h288q65 0 116.5 -25.5zM371 372q66 0 110 39t44 113t-43.5 113t-110.5 39h-197v-304h197z" />
    <glyph glyph-name="Q" unicode="Q" horiz-adv-x="867" 
d="M554 8.5q-57 -17.5 -121 -17.5q-106 0 -191.5 46.5t-135 133t-49.5 203.5t49.5 203.5t135 133t191.5 46.5q105 0 190 -46.5t134 -133t49 -203.5q0 -79 -23 -145t-66 -115l133 -132l-57 -58l-136 135q-46 -33 -103 -50.5zM179 208.5q38 -70.5 104.5 -108t149.5 -37.5
q97 0 167 52l-152 153l56 57l155 -153q31 38 47.5 89.5t16.5 112.5q0 96 -38 166t-104 107.5t-148 37.5q-83 0 -149.5 -37.5t-104.5 -107.5t-38 -166q0 -95 38 -165.5z" />
    <glyph glyph-name="R" unicode="R" horiz-adv-x="683" 
d="M93 748h284q64 0 115.5 -25t81.5 -75t30 -121q0 -81 -37.5 -134t-101.5 -74l179 -319h-92l-171 305l-17 -1h-190v-304h-81v748zM367 377q67 0 110.5 38.5t43.5 111.5t-43.5 111t-110.5 38h-193v-299h193z" />
    <glyph glyph-name="S" unicode="S" horiz-adv-x="655" 
d="M506 703q70 -54 75 -149l-82 -5q-5 64 -51 100.5t-120 36.5q-82 0 -126 -38t-44 -97q0 -45 22 -71t59 -39.5t106 -29.5q91 -21 145 -43.5t83.5 -61.5t29.5 -102q0 -106 -74 -159.5t-189 -53.5q-120 0 -198 56.5t-85 157.5l83 5q6 -68 61.5 -108t138.5 -40q81 0 130.5 34
t49.5 103q0 45 -23 71t-63 40.5t-118 32.5q-82 20 -131 40t-79.5 59t-30.5 106q0 59 28 106t84.5 75t138.5 28q110 0 180 -54z" />
    <glyph glyph-name="T" unicode="T" horiz-adv-x="681" 
d="M381 0h-81v676h-282v72h645v-72h-282v-676z" />
    <glyph glyph-name="U" unicode="U" horiz-adv-x="763" 
d="M597 65q-79 -74 -216 -74t-216 74t-79 212v471h81v-469q0 -106 56.5 -161t157.5 -55q100 0 156.5 55.5t56.5 160.5v469h82v-471q0 -138 -79 -212z" />
    <glyph glyph-name="V" unicode="V" horiz-adv-x="739" 
d="M21 748h90l259 -622l258 622h90l-314 -748h-69z" />
    <glyph glyph-name="W" unicode="W" horiz-adv-x="1117" 
d="M558 601l-206 -601h-69l-262 748h90l208 -610l206 610h67l208 -610l208 610h87l-261 -748h-68z" />
    <glyph glyph-name="X" unicode="X" horiz-adv-x="686" 
d="M565 0l-222 325l-223 -325h-93l257 381l-246 367h94l211 -312l211 312h95l-246 -367l257 -381h-95z" />
    <glyph glyph-name="Y" unicode="Y" horiz-adv-x="684" 
d="M301 0v314l-283 434h95l229 -354l230 354h94l-283 -434v-314h-82z" />
    <glyph glyph-name="Z" unicode="Z" horiz-adv-x="617" 
d="M582 73v-73h-545v62l433 614h-418v72h523v-62l-433 -613h440z" />
    <glyph glyph-name="bracketleft" unicode="[" horiz-adv-x="258" 
d="M136 -13h100v-64h-177v795h177v-64h-100v-667z" />
    <glyph glyph-name="backslash" unicode="\" horiz-adv-x="357" 
d="M11 748h80l255 -815h-81z" />
    <glyph glyph-name="bracketright" unicode="]" horiz-adv-x="258" 
d="M23 -13h100v667h-100v64h177v-795h-177v64z" />
    <glyph glyph-name="asciicircum" unicode="^" horiz-adv-x="549" 
d="M274 639l-156 -265h-87l243 387l243 -387h-87z" />
    <glyph glyph-name="underscore" unicode="_" horiz-adv-x="684" 
d="M45 0h594v-73h-594v73z" />
    <glyph glyph-name="grave" unicode="`" horiz-adv-x="231" 
d="M20 785h88l105 -191h-61z" />
    <glyph glyph-name="a" unicode="a" horiz-adv-x="540" 
d="M405.5 467q49.5 -51 49.5 -145v-322h-76v70q-26 -38 -67.5 -58.5t-93.5 -20.5q-75 0 -119 36.5t-44 104.5q0 140 192 150l130 7v35q0 61 -28 93.5t-84 32.5t-87 -33t-31 -79l-78 2q0 45 23.5 86t68 66.5t103.5 25.5q92 0 141.5 -51zM233 54q62 0 103.5 37.5t41.5 116.5
v24l-124 -7q-59 -4 -90.5 -24.5t-31.5 -64.5q0 -82 101 -82z" />
    <glyph glyph-name="b" unicode="b" horiz-adv-x="648" 
d="M236 492.5q47 25.5 111 25.5q70 0 126 -32t88 -92t32 -141q0 -80 -32 -139.5t-88 -91t-126 -31.5q-66 0 -113.5 26.5t-70.5 69.5v-87h-73v777h77v-351q22 41 69 66.5zM214 104.5q47 -46.5 124 -46.5q78 0 128 52t50 144q0 93 -50 144.5t-128 51.5q-77 0 -124 -46
t-47 -134v-31q0 -88 47 -134.5z" />
    <glyph glyph-name="c" unicode="c" horiz-adv-x="575" 
d="M456.5 467q62.5 -51 73.5 -138l-75 -7q-7 60 -48.5 94.5t-103.5 34.5q-76 0 -123 -52t-47 -145q0 -92 48 -144t123 -52q63 0 103 32t49 88l75 -6q-14 -84 -75 -132.5t-152 -48.5q-71 0 -128 31.5t-89 90.5t-32 141t32 141.5t88.5 91t127.5 31.5q91 0 153.5 -51z" />
    <glyph glyph-name="d" unicode="d" horiz-adv-x="648" 
d="M414.5 17.5q-47.5 -26.5 -113.5 -26.5q-70 0 -126 31.5t-88 91t-32 139.5q0 81 32 141t88 92t126 32q64 0 111 -25.5t69 -66.5v351h77v-777h-73v87q-23 -43 -70.5 -69.5zM182 110q50 -52 128 -52q76 0 123 46.5t47 134.5v31q0 88 -47 134t-123 46q-78 0 -128 -51.5
t-50 -144.5q0 -92 50 -144z" />
    <glyph glyph-name="e" unicode="e" horiz-adv-x="590" 
d="M184 101.5q46 -46.5 119 -46.5q59 0 98 26t53 73l77 -5q-17 -72 -77.5 -115t-147.5 -43q-72 0 -129 31.5t-89.5 91t-32.5 140.5t32 141t88 91.5t128 31.5q109 0 171 -68t62 -182v-39h-400q2 -81 48 -127.5zM459 286q0 76 -40.5 122t-116.5 46q-71 0 -117 -44t-49 -124
h323z" />
    <glyph glyph-name="f" unicode="f" horiz-adv-x="337" 
d="M324 778v-67q-10 3 -27 3q-49 0 -78 -30t-29 -83v-92h133v-67h-133v-442h-77v442h-100v67h100v90q0 86 47.5 134.5t127.5 48.5q24 0 36 -4z" />
    <glyph glyph-name="g" unicode="g" horiz-adv-x="643" 
d="M414.5 491q47.5 -27 70.5 -70v88h73v-540q0 -72 -30.5 -124.5t-85 -80t-126.5 -27.5q-102 0 -165 48.5t-79 128.5l77 3q10 -53 55.5 -84.5t108.5 -31.5q76 0 122 42.5t46 120.5v119q-22 -41 -69 -66.5t-111 -25.5q-70 0 -126 32t-88 91.5t-32 139.5q0 81 32 140.5
t88 91.5t126 32q66 0 113.5 -27zM182 109.5q50 -51.5 128 -51.5q76 0 123 46.5t47 133.5v32q0 88 -47 134t-123 46q-78 0 -128 -51.5t-50 -145.5q0 -92 50 -143.5z" />
    <glyph glyph-name="h" unicode="h" horiz-adv-x="601" 
d="M226 493.5q41 24.5 99 24.5q57 0 101.5 -25.5t69.5 -72t25 -107.5v-313h-77v300q0 66 -37.5 106t-97.5 40q-41 0 -73.5 -19.5t-50.5 -53t-18 -73.5v-300h-77v777h77v-342q18 34 59 58.5z" />
    <glyph glyph-name="i" unicode="i" 
d="M165.5 732.5q15.5 -15.5 15.5 -37.5q0 -21 -15.5 -36.5t-37.5 -15.5t-37 15.5t-15 36.5q0 22 15.5 37.5t36.5 15.5q22 0 37.5 -15.5zM90 509h77v-509h-77v509z" />
    <glyph glyph-name="j" unicode="j" 
d="M165.5 732.5q15.5 -15.5 15.5 -37.5q0 -21 -15.5 -36.5t-37.5 -15.5t-37 15.5t-15 36.5q0 22 15 37.5t37 15.5t37.5 -15.5zM-38 -190q13 -3 29 -3q47 0 73.5 29t26.5 83v590h77v-588q0 -86 -45 -133.5t-124 -47.5q-19 0 -37 3v67z" />
    <glyph glyph-name="k" unicode="k" horiz-adv-x="531" 
d="M496 509l-219 -222l243 -287h-97l-201 231l-55 -56v-175h-77v777h77v-498l232 230h97z" />
    <glyph glyph-name="l" unicode="l" 
d="M90 777h77v-777h-77v777z" />
    <glyph glyph-name="m" unicode="m" horiz-adv-x="935" 
d="M760 492.5q43 -25.5 67 -71.5t24 -107v-314h-77v300q0 66 -34.5 106t-94.5 40q-62 0 -99 -42t-37 -104v-300h-78v300q0 66 -34.5 106t-92.5 40q-62 0 -99.5 -42t-37.5 -104v-300h-77v509h73v-79q18 37 58 62.5t98 25.5t102 -27.5t67 -76.5q23 47 67.5 75.5t104.5 28.5
q57 0 100 -25.5z" />
    <glyph glyph-name="n" unicode="n" horiz-adv-x="607" 
d="M426.5 492.5q44.5 -25.5 69.5 -72t25 -107.5v-313h-77v300q0 66 -37.5 106t-97.5 40q-41 0 -73.5 -19.5t-50.5 -53t-18 -73.5v-300h-77v509h73v-78q18 36 60.5 61.5t101.5 25.5q57 0 101.5 -25.5z" />
    <glyph glyph-name="o" unicode="o" horiz-adv-x="630" 
d="M447.5 485.5q59.5 -32.5 93.5 -92.5t34 -139t-34 -139t-93.5 -92t-133.5 -32q-73 0 -132 32t-93 92t-34 139t34 139t93 92.5t132 32.5q74 0 133.5 -32.5zM155.5 149.5q23.5 -44.5 65 -68t93.5 -23.5t93.5 23.5t65.5 68t24 104.5t-24 104.5t-65.5 68t-93.5 23.5
t-93.5 -23.5t-65 -68t-23.5 -104.5t23.5 -104.5z" />
    <glyph glyph-name="p" unicode="p" horiz-adv-x="648" 
d="M473 486q56 -32 88 -91.5t32 -140.5q0 -80 -32 -139.5t-88 -91.5t-126 -32q-64 0 -111 25.5t-69 66.5v-338h-77v764h73v-88q23 43 70.5 70t113.5 27q70 0 126 -32zM214.5 104.5q47.5 -46.5 123.5 -46.5q78 0 128 51.5t50 143.5q0 94 -50 145.5t-128 51.5q-77 0 -124 -46
t-47 -134v-32q0 -87 47.5 -133.5z" />
    <glyph glyph-name="q" unicode="q" horiz-adv-x="648" 
d="M414.5 491q47.5 -27 70.5 -70v88h73v-764h-77v338q-22 -41 -69 -66.5t-111 -25.5q-70 0 -126 32t-88 91.5t-32 139.5q0 81 32 140.5t88 91.5t126 32q66 0 113.5 -27zM182 109.5q50 -51.5 128 -51.5q76 0 123 46.5t47 133.5v32q0 88 -47 134t-123 46q-78 0 -128 -51.5
t-50 -145.5q0 -92 50 -143.5z" />
    <glyph glyph-name="r" unicode="r" horiz-adv-x="335" 
d="M207.5 400q-40.5 -41 -40.5 -103v-297h-77v509h74v-77q15 35 54 59t97 24v-74q-67 0 -107.5 -41z" />
    <glyph glyph-name="s" unicode="s" horiz-adv-x="498" 
d="M372 477q46 -40 55 -107l-77 -5q-5 42 -32 66t-74 24q-53 0 -80 -22t-27 -61q0 -25 12.5 -39.5t33 -21.5t58.5 -15l21 -5q61 -15 98.5 -31t58 -43t20.5 -71q0 -75 -51 -115t-140 -40q-85 0 -137 38t-62 110l77 5q7 -45 39 -68t84 -23t82.5 22t30.5 64q0 28 -13 44
t-39.5 26t-80.5 22q-63 15 -95.5 27t-53 38t-20.5 73q0 69 48.5 108.5t137.5 39.5q80 0 126 -40z" />
    <glyph glyph-name="t" unicode="t" horiz-adv-x="350" 
d="M147.5 32.5q-40.5 38.5 -40.5 119.5l1 290h-95v67h95l1 177h78l-1 -177h140v-67h-140l-2 -274q0 -55 25 -79.5t67 -24.5q21 0 51 5v-70q-27 -5 -68 -5q-71 0 -111.5 38.5z" />
    <glyph glyph-name="u" unicode="u" horiz-adv-x="589" 
d="M370 16.5q-39 -25.5 -98 -25.5q-85 0 -135.5 54.5t-50.5 145.5v318h76v-304q0 -65 33.5 -103.5t92.5 -38.5q61 0 97.5 42t36.5 102v302h77v-509h-72v78q-18 -36 -57 -61.5z" />
    <glyph glyph-name="v" unicode="v" horiz-adv-x="524" 
d="M11 509h86l166 -395l164 395h86l-220 -509h-62z" />
    <glyph glyph-name="w" unicode="w" horiz-adv-x="815" 
d="M409 379l-143 -379h-61l-194 509h85l142 -390l142 390h55l144 -390l141 390h84l-192 -509h-62z" />
    <glyph glyph-name="x" unicode="x" horiz-adv-x="510" 
d="M401 0l-146 209l-148 -209h-89l181 262l-172 247h90l138 -196l136 196h89l-171 -248l182 -261h-90z" />
    <glyph glyph-name="y" unicode="y" horiz-adv-x="524" 
d="M220 25l-202 484h85l160 -397l159 397h85l-321 -764h-85z" />
    <glyph glyph-name="z" unicode="z" horiz-adv-x="447" 
d="M416 63v-63h-384v52l281 394h-274v63h364v-51l-279 -395h292z" />
    <glyph glyph-name="braceleft" unicode="{" horiz-adv-x="243" 
d="M157.5 630.5q-18.5 -22.5 -18.5 -69.5q0 -36 8 -75q10 -50 10 -84q0 -33 -12 -54.5t-41 -27.5q29 -6 41 -26.5t12 -54.5q0 -35 -10 -85q-8 -39 -8 -75q0 -47 18.5 -69.5t56.5 -22.5h6v-64h-6q-71 0 -111 39.5t-40 113.5q0 38 8 73q14 60 14 85q0 28 -13 41.5t-43 13.5h-8
v64h8q30 0 43 13.5t13 40.5t-14 86q-8 35 -8 72q0 74 40 113t111 39h6v-64h-6q-38 0 -56.5 -22.5z" />
    <glyph glyph-name="bar" unicode="|" horiz-adv-x="248" 
d="M86 748h76v-815h-76v815z" />
    <glyph glyph-name="braceright" unicode="}" horiz-adv-x="243" 
d="M140 678.5q40 -38.5 40 -111.5q0 -33 -9 -74q-13 -63 -13 -85q0 -27 13 -41t43 -14h8v-64h-8q-30 0 -43 -14t-13 -42q0 -23 13 -84q9 -40 9 -74q0 -74 -40 -113t-111 -39h-6v64h6q39 0 57.5 23t18.5 70q0 29 -8 74q-11 55 -11 85q0 70 53 81q-53 12 -53 82q0 29 11 84
q8 45 8 74q0 47 -18.5 70t-57.5 23h-6v64h6q71 0 111 -38.5z" />
    <glyph glyph-name="asciitilde" unicode="~" horiz-adv-x="535" 
d="M445 322.5q-34 -20.5 -82 -20.5q-33 0 -56 9t-51 26q-26 15 -43 22t-40 7q-37 0 -61.5 -13.5t-53.5 -45.5l-36 51q33 41 65.5 60.5t78.5 19.5q25 0 44 -7.5t47 -22.5q25 -16 47.5 -24.5t51.5 -8.5q39 0 65.5 14t55.5 47l35 -51q-33 -42 -67 -62.5z" />
    <glyph glyph-name="exclamdown" unicode="&#xa1;" horiz-adv-x="273" 
d="M98 416.5q-16 15.5 -16 38.5t16 38.5t39 15.5t38 -15.5t15 -38.5t-15.5 -38.5t-37.5 -15.5q-23 0 -39 15.5zM97 302h80l4 -550h-89z" />
    <glyph glyph-name="cent" unicode="&#xa2;" horiz-adv-x="575" 
d="M114 73q-59 69 -59 181q0 113 59 181.5t155 79.5v112h64v-111q80 -8 133.5 -58t63.5 -129l-75 -7q-7 60 -48.5 94.5t-103.5 34.5q-76 0 -123 -52t-47 -145q0 -92 48 -144t123 -52q63 0 103 32t49 88l75 -6q-14 -78 -66 -125t-132 -54v-111h-64v111q-96 11 -155 80z" />
    <glyph glyph-name="sterling" unicode="&#xa3;" horiz-adv-x="544" 
d="M120 139.5q26 46.5 21 122.5l-5 69h-107v65h101l-8 113q-2 28 -2 41q0 99 48.5 153t144.5 54q93 0 141 -48.5t49 -130.5l-80 -5q0 51 -28 82t-83 31q-126 0 -115 -162l10 -128h176v-65h-170l5 -69q1 -7 1 -21q0 -57 -22 -97t-60 -71h379v-73h-479v67q57 26 83 72.5z" />
    <glyph glyph-name="currency" unicode="&#xa4;" horiz-adv-x="586" 
d="M440 136l119 -120l-49 -48l-119 119q-43 -30 -98 -30q-54 0 -98 30l-119 -119l-49 48l120 121q-32 48 -32 116q0 66 32 116l-120 121l49 48l120 -120q43 30 97 30t97 -30l120 120l49 -48l-121 -121q33 -47 33 -116q0 -66 -31 -117zM219 158.5q32 -34.5 81 -34.5
q43 0 71 34.5t28 94.5q0 59 -31.5 93.5t-80.5 34.5q-43 0 -71.5 -34.5t-28.5 -94.5q0 -59 32 -93.5z" />
    <glyph glyph-name="yen" unicode="&#xa5;" horiz-adv-x="684" 
d="M525 298h-142v-94h142v-49h-142v-155h-82v155h-140v49h140v94h-140v50h119l-262 400h95l229 -354l230 354h94l-262 -400h121v-50z" />
    <glyph glyph-name="brokenbar" unicode="&#xa6;" horiz-adv-x="248" 
d="M86 748h76v-319h-76v319zM86 252h76v-319h-76v319z" />
    <glyph glyph-name="section" unicode="&#xa7;" horiz-adv-x="515" 
d="M107 13.5q-58 41.5 -59 115.5l77 3q1 -47 37.5 -74.5t96.5 -27.5q57 0 91.5 25t34.5 72q0 32 -16.5 50.5t-46 29.5t-79.5 21q-92 20 -138.5 51.5t-46.5 96.5q0 42 16.5 68.5t50.5 50.5q-61 33 -61 111q0 71 51.5 111t134.5 40q88 0 140.5 -39t53.5 -109l-76 -3
q-1 43 -33 67.5t-84 24.5q-49 0 -79.5 -23t-30.5 -67q0 -29 15 -46.5t41 -27t71 -19.5q63 -14 102 -30.5t61.5 -44.5t22.5 -73q0 -42 -16 -68t-50 -49q37 -18 55.5 -46t18.5 -72q0 -75 -56 -117.5t-147 -42.5q-94 0 -152 41.5zM144.5 335q16.5 -18 44.5 -28t76 -21
q16 -4 24 -5l36 -9q30 18 43.5 37.5t13.5 52.5q0 42 -31.5 60.5t-101.5 33.5q-40 9 -63 16q-29 -19 -43.5 -39t-14.5 -51q0 -29 16.5 -47z" />
    <glyph glyph-name="dieresis" unicode="&#xa8;" horiz-adv-x="281" 
d="M103.5 714.5q14.5 -13.5 14.5 -33.5t-14 -33t-35 -13q-20 0 -33.5 13t-13.5 33t13.5 33.5t33.5 13.5t34.5 -13.5zM178.5 714.5q13.5 13.5 33.5 13.5t34 -13.5t14 -33.5t-14 -33t-34 -13t-33.5 13t-13.5 33t13.5 33.5z" />
    <glyph glyph-name="copyright" unicode="&#xa9;" horiz-adv-x="581" 
d="M422.5 726q59.5 -33 93.5 -90.5t34 -128.5t-34 -128.5t-93.5 -91t-132.5 -33.5q-72 0 -131.5 33.5t-93.5 91t-34 128.5q0 70 34 128t93.5 91t131.5 33q73 0 132.5 -33zM92.5 393q29.5 -51 81.5 -80t116 -29t116 29t81.5 80t29.5 114t-29.5 113.5t-81.5 79.5t-116 29
t-116 -29t-81.5 -79.5t-29.5 -113.5t29.5 -114zM185 621q42 42 106 42q55 0 93.5 -30t44.5 -82l-45 -3q-5 36 -30.5 55.5t-62.5 19.5q-45 0 -73.5 -31t-28.5 -85t29.5 -85t73.5 -31q36 0 61 18.5t32 51.5l45 -3q-8 -49 -46 -78t-92 -29q-64 0 -106.5 43t-42.5 113
q0 72 42 114z" />
    <glyph glyph-name="ordfeminine" unicode="&#xaa;" horiz-adv-x="439" 
d="M333 715q39 -40 39 -118v-256h-65v59q-17 -30 -51.5 -48.5t-79.5 -18.5q-61 0 -97 28.5t-36 83.5q0 59 43 88t117 34l101 7v27q0 47 -22.5 72.5t-64.5 25.5q-45 0 -70 -26.5t-25 -63.5l-67 3q0 36 19.5 69t56 53.5t86.5 20.5q77 0 116 -40zM192 387q46 0 79 29.5t33 90.5
v20l-94 -7q-48 -4 -72.5 -20t-24.5 -51q0 -62 79 -62z" />
    <glyph glyph-name="guillemotleft" unicode="&#xab;" horiz-adv-x="523" 
d="M257 75l-61 -39l-181 217l181 217l61 -39l-154 -178zM441 470l61 -39l-154 -178l154 -178l-61 -39l-181 217z" />
    <glyph glyph-name="logicalnot" unicode="&#xac;" horiz-adv-x="549" 
d="M442 348h-403v61h464v-240h-61v179z" />
    <glyph glyph-name="registered" unicode="&#xae;" horiz-adv-x="581" 
d="M158.5 287.5q-59.5 33.5 -93.5 91t-34 128.5q0 70 34 128t93.5 91t131.5 33q73 0 132.5 -33t93.5 -90.5t34 -128.5t-34 -128.5t-93.5 -91t-132.5 -33.5q-72 0 -131.5 33.5zM92.5 393q29.5 -51 81.5 -80t116 -29t116 29t81.5 80t29.5 114t-29.5 113.5t-81.5 79.5t-116 29
t-116 -29t-81.5 -79.5t-29.5 -113.5t29.5 -114zM185 659h122q42 0 68 -23.5t26 -67.5q0 -33 -14 -55t-39 -31l68 -126l-2 -3h-46l-64 120h-75v-120h-44v306zM296 512q27 0 43.5 13t16.5 42t-16.5 42t-43.5 13h-67v-110h67z" />
    <glyph glyph-name="macron" unicode="&#xaf;" horiz-adv-x="291" 
d="M17 697h258v-60h-258v60z" />
    <glyph glyph-name="degree" unicode="&#xb0;" horiz-adv-x="343" 
d="M274 720q39 -36 39 -101v-22q0 -65 -39 -101.5t-104 -36.5q-63 0 -101 36.5t-38 101.5v22q0 65 38 101t101 36q65 0 104 -36zM108 531.5q23 -24.5 62 -24.5q40 0 64.5 24.5t24.5 67.5v18q0 43 -24.5 67t-64.5 24t-62.5 -23.5t-22.5 -67.5v-18q0 -43 23 -67.5z" />
    <glyph glyph-name="plusminus" unicode="&#xb1;" horiz-adv-x="546" 
d="M512 433h-201v-206h-76v206h-202v71h202v201h76v-201h201v-71zM33 162h479v-73h-479v73z" />
    <glyph glyph-name="acute" unicode="&#xb4;" horiz-adv-x="231" 
d="M125 785h86l-131 -191h-62z" />
    <glyph glyph-name="paragraph" unicode="&#xb6;" horiz-adv-x="660" 
d="M570 -67h-60v757h-136v-757h-61v447h-64q-91 0 -147 48t-56 137q0 88 55.5 135.5t147.5 47.5h390v-58h-69v-757z" />
    <glyph glyph-name="periodcentered" unicode="&#xb7;" horiz-adv-x="209" 
d="M138.5 329.5q15.5 -15.5 15.5 -38.5t-15.5 -38.5t-39.5 -15.5q-23 0 -38 15.5t-15 38.5t15 38.5t38 15.5q24 0 39.5 -15.5z" />
    <glyph glyph-name="cedilla" unicode="&#xb8;" horiz-adv-x="274" 
d="M215.5 -82.5q31.5 -24.5 31.5 -67.5q0 -45 -35.5 -69.5t-85.5 -24.5q-59 0 -99 24l13 42q35 -20 76 -20q30 0 51 13t21 38q0 28 -21 41.5t-59 13.5q-15 0 -26 -3l27 102h37l-14 -63q52 -2 83.5 -26.5z" />
    <glyph glyph-name="ordmasculine" unicode="&#xba;" horiz-adv-x="505" 
d="M359 729q48 -26 75 -73.5t27 -111.5t-27 -111.5t-75 -73.5t-108 -26q-59 0 -106.5 26t-75 73.5t-27.5 111.5t27.5 111.5t75 73.5t106.5 26q60 0 108 -26zM152.5 434q39.5 -41 99.5 -41q61 0 100.5 40.5t39.5 110.5q0 71 -39.5 112t-100.5 41q-60 0 -99.5 -41.5
t-39.5 -111.5q0 -69 39.5 -110z" />
    <glyph glyph-name="guillemotright" unicode="&#xbb;" horiz-adv-x="523" 
d="M21 75l154 178l-154 178l61 39l181 -217l-181 -217zM419 253l-154 178l61 39l182 -217l-182 -217l-61 39z" />
    <glyph glyph-name="onequarter" unicode="&#xbc;" horiz-adv-x="682" 
d="M551 748h79l-530 -748h-79zM132 733h39v-411h-61v329l-73 -55l-27 47zM356 142l184 269h56v-263h66v-54h-66v-94h-59v94h-181v48zM537 148v180l-127 -180h127z" />
    <glyph glyph-name="onehalf" unicode="&#xbd;" horiz-adv-x="718" 
d="M551 748h79l-530 -748h-79zM132 733h39v-411h-61v329l-73 -55l-27 47zM470.5 383q33.5 33 91.5 33q60 0 92 -33.5t32 -89.5q0 -43 -19 -79t-57 -75l-81 -85h161v-54h-253v42l129 134q32 32 46 58t14 61q0 30 -17 48.5t-46 18.5q-32 0 -50 -19t-19 -55l-58 4q1 58 34.5 91
z" />
    <glyph glyph-name="threequarters" unicode="&#xbe;" horiz-adv-x="775" 
d="M644 748h80l-530 -748h-79zM89 443q3 -34 21 -53t49 -19q33 0 52 18.5t19 51.5t-21 50t-55 17h-40v50h40q28 0 48 17.5t20 46.5t-17.5 45.5t-45.5 16.5q-29 0 -46.5 -17t-18.5 -49l-60 3q2 55 35 86t90 31t89 -30t32 -83q0 -33 -16 -56.5t-38 -32.5q27 -8 45.5 -34
t18.5 -64q0 -56 -35.5 -88.5t-94.5 -32.5q-61 0 -95 32.5t-36 88.5zM449 142l185 269h56v-263h66v-54h-66v-94h-60v94h-181v48zM630 148v180l-126 -180h126z" />
    <glyph glyph-name="questiondown" unicode="&#xbf;" horiz-adv-x="497" 
d="M215 424.5q-16 16.5 -16 39.5q0 22 16 38t39 16q22 0 38 -16t16 -38q0 -23 -16 -39.5t-38 -16.5q-23 0 -39 16.5zM47 64.5q26 38.5 80 77.5q47 34 65.5 64.5t18.5 75.5v28h82v-31q0 -51 -22 -88.5t-74 -77.5q-48 -35 -70.5 -67.5t-22.5 -81.5q0 -62 38 -102t106 -40
q67 0 105 35t44 98l81 -5q-6 -93 -67.5 -146.5t-162.5 -53.5q-71 0 -122 27t-78 75.5t-27 110.5q0 63 26 101.5z" />
    <glyph glyph-name="Agrave" unicode="&#xc0;" horiz-adv-x="726" 
d="M138 935h108l152 -140h-74zM328 748h70l312 -748h-90l-82 201h-349l-83 -201h-89zM509 267l-145 355l-147 -355h292z" />
    <glyph glyph-name="Aacute" unicode="&#xc1;" horiz-adv-x="726" 
d="M477 935h108l-186 -140h-73zM328 748h70l312 -748h-90l-82 201h-349l-83 -201h-89zM509 267l-145 355l-147 -355h292z" />
    <glyph glyph-name="Acircumflex" unicode="&#xc2;" horiz-adv-x="726" 
d="M364 888l-89 -93h-67l120 141h73l119 -141h-67zM328 748h70l312 -748h-90l-82 201h-349l-83 -201h-89zM509 267l-145 355l-147 -355h292z" />
    <glyph glyph-name="Atilde" unicode="&#xc3;" horiz-adv-x="726" 
d="M330.5 923q17.5 -9 37.5 -25q20 -14 32.5 -21t27.5 -7q24 0 36.5 15t13.5 40h45q3 -47 -21.5 -80.5t-65.5 -33.5q-22 0 -39.5 9t-37.5 25q-20 15 -32.5 21.5t-27.5 6.5q-24 0 -37 -15.5t-13 -39.5h-45q-2 47 22 80.5t65 33.5q22 0 39.5 -9zM328 748h70l312 -748h-90
l-82 201h-349l-83 -201h-89zM509 267l-145 355l-147 -355h292z" />
    <glyph glyph-name="Adieresis" unicode="&#xc4;" horiz-adv-x="726" 
d="M327 900q14 -14 14 -33q0 -20 -14 -33.5t-34 -13.5t-34 13.5t-14 33.5t14 33.5t34 13.5t34 -14zM328 748h70l312 -748h-90l-82 201h-349l-83 -201h-89zM509 267l-145 355l-147 -355h292zM402 900q14 14 34 14t34 -14t14 -33q0 -20 -14 -33.5t-34 -13.5t-34 13.5t-14 33.5
q0 19 14 33z" />
    <glyph glyph-name="Aring" unicode="&#xc5;" horiz-adv-x="726" 
d="M435 958.5q29 -27.5 29 -69.5q0 -41 -29 -68.5t-71 -27.5q-44 0 -73 27t-29 69t29 69.5t73 27.5q42 0 71 -27.5zM328 748h70l312 -748h-90l-82 201h-349l-83 -201h-89zM509 267l-145 355l-147 -355h292zM323 850q16 -15 41 -15q24 0 39.5 15t15.5 39t-15.5 39.5
t-39.5 15.5q-25 0 -41 -15t-16 -40q0 -24 16 -39z" />
    <glyph glyph-name="AE" unicode="&#xc6;" horiz-adv-x="1014" 
d="M858 345v-23h-327l-2 -45h-12v297l69 99h341v-64h-279v-264h210zM304 267l-114 -189h-18zM304 267l3 5l-3 -5h213v10h-207l207 297v44l-231 -351h18zM310 277l-3 -5zM806 44l85 81h-292v152h-70l-12 -233h289z" />
    <glyph glyph-name="Ccedilla" unicode="&#xc7;" horiz-adv-x="805" 
d="M325 -225l13 42q35 -20 76 -20q30 0 51 13t21 38q0 28 -21 41.5t-59 13.5q-15 0 -27 -3l25 91q-100 5 -179 52t-123.5 132t-44.5 199q0 119 47 205.5t129.5 132t188.5 45.5q88 0 161 -33.5t120 -95.5t58 -145l-84 -9q-14 98 -85 154.5t-173 56.5q-82 0 -145 -37
t-98.5 -107.5t-35.5 -166.5q0 -98 37 -168t101 -106.5t144 -36.5q101 0 169.5 52t85.5 146l85 -7q-20 -118 -107 -188t-213 -75l-12 -52q52 -2 83 -26.5t31 -67.5q0 -45 -35 -69.5t-86 -24.5q-58 0 -98 24z" />
    <glyph glyph-name="Egrave" unicode="&#xc8;" horiz-adv-x="591" 
d="M101 935h108l152 -140h-74zM93 748h459v-72h-378v-253h334v-72h-334v-278h378v-73h-459v748z" />
    <glyph glyph-name="Eacute" unicode="&#xc9;" horiz-adv-x="591" 
d="M441 935h107l-186 -140h-73zM93 748h459v-72h-378v-253h334v-72h-334v-278h378v-73h-459v748z" />
    <glyph glyph-name="Ecircumflex" unicode="&#xca;" horiz-adv-x="591" 
d="M326 888l-89 -93h-67l120 141h73l119 -141h-67zM93 748h459v-72h-378v-253h334v-72h-334v-278h378v-73h-459v748z" />
    <glyph glyph-name="Edieresis" unicode="&#xcb;" horiz-adv-x="591" 
d="M289.5 900q14.5 -14 14.5 -33q0 -20 -14.5 -33.5t-34.5 -13.5t-33.5 13.5t-13.5 33.5t14 33.5t33 13.5q20 0 34.5 -14zM93 748h459v-72h-378v-253h334v-72h-334v-278h378v-73h-459v748zM365 900.5q14 13.5 33 13.5q20 0 34 -13.5t14 -33.5t-14 -33.5t-34 -13.5
t-33.5 13.5t-13.5 33.5t14 33.5z" />
    <glyph glyph-name="Igrave" unicode="&#xcc;" horiz-adv-x="267" 
d="M-90 935h108l152 -140h-74zM93 748h81v-748h-81v748z" />
    <glyph glyph-name="Iacute" unicode="&#xcd;" horiz-adv-x="267" 
d="M249 935h108l-186 -140h-73zM93 748h81v-748h-81v748z" />
    <glyph glyph-name="Icircumflex" unicode="&#xce;" horiz-adv-x="267" 
d="M136 888l-89 -93h-67l120 141h73l119 -141h-67zM93 748h81v-748h-81v748z" />
    <glyph glyph-name="Idieresis" unicode="&#xcf;" horiz-adv-x="267" 
d="M99 900q14 -14 14 -33q0 -20 -14 -33.5t-34 -13.5t-34 13.5t-14 33.5t14 33.5t34 13.5t34 -14zM93 748h81v-748h-81v748zM174 900q14 14 34 14t34 -14t14 -33q0 -20 -14 -33.5t-34 -13.5t-34 13.5t-14 33.5q0 19 14 33z" />
    <glyph glyph-name="Eth" unicode="&#xd0;" horiz-adv-x="791" 
d="M586.5 703.5q81.5 -44.5 127.5 -129t46 -200.5q0 -115 -47 -199.5t-128.5 -129.5t-183.5 -45h-288v343h-110v62h110v343h289q103 0 184.5 -44.5zM401 70q81 0 144 35t98.5 103.5t35.5 165.5t-35 165.5t-97.5 103.5t-143.5 35h-209v-273h157v-62h-157v-273h207z" />
    <glyph glyph-name="Ntilde" unicode="&#xd1;" horiz-adv-x="748" 
d="M336 923.5q16 -8.5 40 -25.5q18 -14 31 -21t28 -7q24 0 37 15.5t14 39.5h45q2 -47 -22 -80.5t-65 -33.5q-22 0 -38 8.5t-40 25.5q-18 14 -31 21t-28 7q-24 0 -37 -15.5t-13 -39.5h-46q-2 47 22 80.5t65 33.5q22 0 38 -8.5zM93 748h68l412 -597v597h82v-748h-69l-412 596
v-596h-81v748z" />
    <glyph glyph-name="Ograve" unicode="&#xd2;" horiz-adv-x="864" 
d="M196 935h108l152 -140h-74zM106.5 577.5q49.5 86.5 135 133t191.5 46.5q105 0 190 -46.5t134 -133t49 -203.5t-49 -203.5t-134 -133t-190 -46.5q-106 0 -191.5 46.5t-135 133t-49.5 203.5t49.5 203.5zM179 208.5q38 -70.5 104.5 -108t149.5 -37.5q82 0 148 37.5t104 108
t38 165.5q0 96 -38 166t-104 107.5t-148 37.5q-83 0 -149.5 -37.5t-104.5 -107.5t-38 -166q0 -95 38 -165.5z" />
    <glyph glyph-name="Oacute" unicode="&#xd3;" horiz-adv-x="864" 
d="M536 935h108l-187 -140h-73zM106.5 577.5q49.5 86.5 135 133t191.5 46.5q105 0 190 -46.5t134 -133t49 -203.5t-49 -203.5t-134 -133t-190 -46.5q-106 0 -191.5 46.5t-135 133t-49.5 203.5t49.5 203.5zM179 208.5q38 -70.5 104.5 -108t149.5 -37.5q82 0 148 37.5t104 108
t38 165.5q0 96 -38 166t-104 107.5t-148 37.5q-83 0 -149.5 -37.5t-104.5 -107.5t-38 -166q0 -95 38 -165.5z" />
    <glyph glyph-name="Ocircumflex" unicode="&#xd4;" horiz-adv-x="864" 
d="M421 888l-88 -93h-67l120 141h72l119 -141h-66zM106.5 577.5q49.5 86.5 135 133t191.5 46.5q105 0 190 -46.5t134 -133t49 -203.5t-49 -203.5t-134 -133t-190 -46.5q-106 0 -191.5 46.5t-135 133t-49.5 203.5t49.5 203.5zM179 208.5q38 -70.5 104.5 -108t149.5 -37.5
q82 0 148 37.5t104 108t38 165.5q0 96 -38 166t-104 107.5t-148 37.5q-83 0 -149.5 -37.5t-104.5 -107.5t-38 -166q0 -95 38 -165.5z" />
    <glyph glyph-name="Otilde" unicode="&#xd5;" horiz-adv-x="864" 
d="M387 923.5q16 -8.5 40 -25.5q18 -14 31 -21t28 -7q24 0 37 15.5t13 39.5h46q2 -47 -22 -80.5t-65 -33.5q-22 0 -38 8.5t-40 25.5q-18 14 -31 21t-28 7q-24 0 -37.5 -15.5t-13.5 -39.5h-45q-2 47 22 80.5t65 33.5q22 0 38 -8.5zM106.5 577.5q49.5 86.5 135 133t191.5 46.5
q105 0 190 -46.5t134 -133t49 -203.5t-49 -203.5t-134 -133t-190 -46.5q-106 0 -191.5 46.5t-135 133t-49.5 203.5t49.5 203.5zM179 208.5q38 -70.5 104.5 -108t149.5 -37.5q82 0 148 37.5t104 108t38 165.5q0 96 -38 166t-104 107.5t-148 37.5q-83 0 -149.5 -37.5
t-104.5 -107.5t-38 -166q0 -95 38 -165.5z" />
    <glyph glyph-name="Odieresis" unicode="&#xd6;" horiz-adv-x="864" 
d="M384.5 900q14.5 -14 14.5 -33q0 -20 -14.5 -33.5t-34.5 -13.5t-33.5 13.5t-13.5 33.5t14 33.5t33 13.5q20 0 34.5 -14zM106.5 577.5q49.5 86.5 135 133t191.5 46.5q105 0 190 -46.5t134 -133t49 -203.5t-49 -203.5t-134 -133t-190 -46.5q-106 0 -191.5 46.5t-135 133
t-49.5 203.5t49.5 203.5zM179 208.5q38 -70.5 104.5 -108t149.5 -37.5q82 0 148 37.5t104 108t38 165.5q0 96 -38 166t-104 107.5t-148 37.5q-83 0 -149.5 -37.5t-104.5 -107.5t-38 -166q0 -95 38 -165.5zM460 900.5q14 13.5 34 13.5t33.5 -13.5t13.5 -33.5t-13.5 -33.5
t-33.5 -13.5t-34 13.5t-14 33.5t14 33.5z" />
    <glyph glyph-name="multiply" unicode="&#xd7;" horiz-adv-x="520" 
d="M469 212l-51 -51l-157 157l-158 -157l-51 51l158 157l-157 158l51 51l157 -158l154 154l51 -52l-154 -153z" />
    <glyph glyph-name="Oslash" unicode="&#xd8;" horiz-adv-x="844" 
d="M774 542q32 -75 32 -168q0 -117 -49 -203.5t-134 -133t-190 -46.5q-125 0 -217 63l-67 -87l-51 38l67 88q-52 51 -80 122.5t-28 158.5q0 117 49.5 203.5t135 133t191.5 46.5q113 0 201 -53l59 79l51 -38l-59 -77q57 -51 89 -126zM216 158l371 485q-68 42 -154 42
q-83 0 -149.5 -37.5t-104.5 -107.5t-38 -166q0 -133 75 -216zM433 63q82 0 148 37.5t104 108t38 165.5q0 73 -23 131t-65 99l-372 -488q70 -53 170 -53z" />
    <glyph glyph-name="Ugrave" unicode="&#xd9;" horiz-adv-x="763" 
d="M155 935h108l152 -140h-74zM86 748h81v-469q0 -106 56.5 -161t157.5 -55q100 0 156.5 55.5t56.5 160.5v469h82v-471q0 -138 -79 -212t-216 -74t-216 74t-79 212v471z" />
    <glyph glyph-name="Uacute" unicode="&#xda;" horiz-adv-x="763" 
d="M494 935h107l-186 -140h-73zM86 748h81v-469q0 -106 56.5 -161t157.5 -55q100 0 156.5 55.5t56.5 160.5v469h82v-471q0 -138 -79 -212t-216 -74t-216 74t-79 212v471z" />
    <glyph glyph-name="Ucircumflex" unicode="&#xdb;" horiz-adv-x="763" 
d="M380 888l-89 -93h-67l120 141h73l119 -141h-67zM86 748h81v-469q0 -106 56.5 -161t157.5 -55q100 0 156.5 55.5t56.5 160.5v469h82v-471q0 -138 -79 -212t-216 -74t-216 74t-79 212v471z" />
    <glyph glyph-name="Udieresis" unicode="&#xdc;" horiz-adv-x="763" 
d="M343 900q14 -14 14 -33q0 -20 -14 -33.5t-34 -13.5t-34 13.5t-14 33.5q0 19 14 33t34 14t34 -14zM86 748h81v-469q0 -106 56.5 -161t157.5 -55q100 0 156.5 55.5t56.5 160.5v469h82v-471q0 -138 -79 -212t-216 -74t-216 74t-79 212v471zM419 900.5q14 13.5 33 13.5
q20 0 34 -13.5t14 -33.5t-14 -33.5t-34 -13.5t-33.5 13.5t-13.5 33.5t14 33.5z" />
    <glyph glyph-name="Yacute" unicode="&#xdd;" horiz-adv-x="684" 
d="M456 935h108l-187 -140h-73zM113 748l229 -354l230 354h94l-283 -434v-314h-82v314l-283 434h95z" />
    <glyph glyph-name="Thorn" unicode="&#xde;" horiz-adv-x="632" 
d="M480.5 616.5q51.5 -25.5 81 -75.5t29.5 -120q0 -71 -29.5 -121.5t-80.5 -76t-116 -25.5h-191v-198h-81v748h81v-106h191q64 0 115.5 -25.5zM355 271q66 0 110 39t44 111t-44 110.5t-110 38.5h-181v-299h181z" />
    <glyph glyph-name="germandbls" unicode="&#xdf;" horiz-adv-x="630" 
d="M439.5 742q54.5 -43 54.5 -114q0 -36 -13 -59t-38 -49q-20 -21 -30 -37t-10 -39q0 -25 16 -43.5t52 -46.5q34 -26 56 -47.5t37.5 -54.5t15.5 -78q0 -86 -58.5 -134t-152.5 -48q-64 0 -100 17l15 63q41 -15 79 -15q61 0 99.5 33t38.5 91q0 33 -13 58.5t-32 44t-50 42.5
q-41 32 -61 56t-20 59q0 33 12.5 53.5t36.5 44.5q21 21 31 37t10 39q0 49 -31.5 76.5t-89.5 27.5t-94 -33.5t-36 -88.5v-597h-77v599q0 55 26 97t72.5 65.5t107.5 23.5q92 0 146.5 -43z" />
    <glyph glyph-name="agrave" unicode="&#xe0;" horiz-adv-x="540" 
d="M114 785h88l105 -191h-61zM247 282l130 7v35q0 61 -28 93.5t-84 32.5t-87 -33t-31 -79l-78 2q0 45 23.5 86t68 66.5t103.5 25.5q92 0 141.5 -51t49.5 -145v-322h-76v70q-26 -38 -67.5 -58.5t-93.5 -20.5q-75 0 -119 36.5t-44 104.5q0 140 192 150zM233 54
q62 0 103.5 37.5t41.5 116.5v24l-124 -7q-59 -4 -90.5 -24.5t-31.5 -64.5q0 -82 101 -82z" />
    <glyph glyph-name="aacute" unicode="&#xe1;" horiz-adv-x="540" 
d="M352 785h87l-131 -191h-62zM247 282l130 7v35q0 61 -28 93.5t-84 32.5t-87 -33t-31 -79l-78 2q0 45 23.5 86t68 66.5t103.5 25.5q92 0 141.5 -51t49.5 -145v-322h-76v70q-26 -38 -67.5 -58.5t-93.5 -20.5q-75 0 -119 36.5t-44 104.5q0 140 192 150zM233 54
q62 0 103.5 37.5t41.5 116.5v24l-124 -7q-59 -4 -90.5 -24.5t-31.5 -64.5q0 -82 101 -82z" />
    <glyph glyph-name="acircumflex" unicode="&#xe2;" horiz-adv-x="540" 
d="M278 710l-90 -115h-66l120 169h73l120 -169h-66zM247 282l130 7v35q0 61 -28 93.5t-84 32.5t-87 -33t-31 -79l-78 2q0 45 23.5 86t68 66.5t103.5 25.5q92 0 141.5 -51t49.5 -145v-322h-76v70q-26 -38 -67.5 -58.5t-93.5 -20.5q-75 0 -119 36.5t-44 104.5q0 140 192 150z
M233 54q62 0 103.5 37.5t41.5 116.5v24l-124 -7q-59 -4 -90.5 -24.5t-31.5 -64.5q0 -82 101 -82z" />
    <glyph glyph-name="atilde" unicode="&#xe3;" horiz-adv-x="540" 
d="M242.5 723.5q16.5 -8.5 37.5 -24.5q19 -15 32 -22t29 -7q23 0 36 15.5t14 39.5h45q2 -46 -22 -79.5t-65 -33.5q-22 0 -38.5 8.5t-39.5 24.5q-16 14 -29.5 21t-29.5 7q-24 0 -37 -15t-13 -39h-45q-3 46 21 79.5t66 33.5q22 0 38.5 -8.5zM247 282l130 7v35q0 61 -28 93.5
t-84 32.5t-87 -33t-31 -79l-78 2q0 45 23.5 86t68 66.5t103.5 25.5q92 0 141.5 -51t49.5 -145v-322h-76v70q-26 -38 -67.5 -58.5t-93.5 -20.5q-75 0 -119 36.5t-44 104.5q0 140 192 150zM233 54q62 0 103.5 37.5t41.5 116.5v24l-124 -7q-59 -4 -90.5 -24.5t-31.5 -64.5
q0 -82 101 -82z" />
    <glyph glyph-name="adieresis" unicode="&#xe4;" horiz-adv-x="540" 
d="M237.5 714.5q14.5 -13.5 14.5 -33.5t-14 -33t-35 -13q-20 0 -33.5 13t-13.5 33t13.5 33.5t33.5 13.5t34.5 -13.5zM247 282l130 7v35q0 61 -28 93.5t-84 32.5t-87 -33t-31 -79l-78 2q0 45 23.5 86t68 66.5t103.5 25.5q92 0 141.5 -51t49.5 -145v-322h-76v70
q-26 -38 -67.5 -58.5t-93.5 -20.5q-75 0 -119 36.5t-44 104.5q0 140 192 150zM233 54q62 0 103.5 37.5t41.5 116.5v24l-124 -7q-59 -4 -90.5 -24.5t-31.5 -64.5q0 -82 101 -82zM312.5 714.5q13.5 13.5 33.5 13.5t34 -13.5t14 -33.5t-14 -33t-34 -13t-33.5 13t-13.5 33
t13.5 33.5z" />
    <glyph glyph-name="aring" unicode="&#xe5;" horiz-adv-x="540" 
d="M356 765q32 -30 32 -75t-32 -74.5t-78 -29.5q-48 0 -80 29.5t-32 74.5t32 75t80 30q46 0 78 -30zM247 282l130 7v35q0 61 -28 93.5t-84 32.5t-87 -33t-31 -79l-78 2q0 45 23.5 86t68 66.5t103.5 25.5q92 0 141.5 -51t49.5 -145v-322h-76v70q-26 -38 -67.5 -58.5
t-93.5 -20.5q-75 0 -119 36.5t-44 104.5q0 140 192 150zM233 54q62 0 103.5 37.5t41.5 116.5v24l-124 -7q-59 -4 -90.5 -24.5t-31.5 -64.5q0 -82 101 -82zM233 648q17 -16 44 -16t44.5 16.5t17.5 41.5t-17.5 41.5t-44.5 16.5t-44 -16t-17 -42t17 -42z" />
    <glyph glyph-name="ae" unicode="&#xe6;" horiz-adv-x="913" 
d="M507.5 101.5q46.5 -46.5 118.5 -46.5q60 0 98.5 26t52.5 73l78 -5q-17 -72 -78 -115t-148 -43q-70 0 -125 29.5t-86 84.5q-29 -55 -79.5 -84.5t-115.5 -29.5q-77 0 -122.5 37t-45.5 105q0 139 192 149l130 7v23q0 66 -28 103t-84 37t-87 -34t-31 -80l-78 2q0 45 23.5 86
t67.5 66.5t103 25.5q119 0 164 -100q31 48 83 74t116 26q109 0 171.5 -68t62.5 -182v-39h-401q2 -81 48.5 -127.5zM159 74q27 -20 74 -20q62 0 103.5 37t41.5 117v25l-124 -7q-59 -5 -90.5 -25.5t-31.5 -64.5q0 -42 27 -62zM782 286q0 76 -40.5 122t-116.5 46
q-71 0 -117 -44t-49 -124h323z" />
    <glyph glyph-name="ccedilla" unicode="&#xe7;" horiz-adv-x="575" 
d="M203 -224l13 42q35 -20 76 -20q30 0 51 13t21 38q0 28 -21 41.5t-59 13.5q-15 0 -27 -3l24 90q-66 5 -117 38t-80 90.5t-29 134.5q0 82 32 141.5t88.5 91t127.5 31.5q91 0 153.5 -51t73.5 -138l-75 -7q-7 60 -48.5 94.5t-103.5 34.5q-76 0 -123 -52t-47 -145
q0 -92 48 -144t123 -52q63 0 103 32t49 88l75 -6q-13 -80 -69.5 -128t-142.5 -53l-11 -51q52 -2 83 -26.5t31 -67.5q0 -45 -35 -69.5t-86 -24.5q-58 0 -98 24z" />
    <glyph glyph-name="egrave" unicode="&#xe8;" horiz-adv-x="590" 
d="M225 785l105 -191h-61l-132 191h88zM87 395q32 60 88 91.5t128 31.5q109 0 171 -68t62 -182v-39h-400q2 -81 48 -127.5t119 -46.5q59 0 98 26t53 73l77 -5q-17 -72 -77.5 -115t-147.5 -43q-72 0 -129 31.5t-89.5 91t-32.5 140.5t32 141zM459 286q0 76 -40.5 122
t-116.5 46q-71 0 -117 -44t-49 -124h323z" />
    <glyph glyph-name="eacute" unicode="&#xe9;" horiz-adv-x="590" 
d="M375 785h87l-131 -191h-62zM87 395q32 60 88 91.5t128 31.5q109 0 171 -68t62 -182v-39h-400q2 -81 48 -127.5t119 -46.5q59 0 98 26t53 73l77 -5q-17 -72 -77.5 -115t-147.5 -43q-72 0 -129 31.5t-89.5 91t-32.5 140.5t32 141zM459 286q0 76 -40.5 122t-116.5 46
q-71 0 -117 -44t-49 -124h323z" />
    <glyph glyph-name="ecircumflex" unicode="&#xea;" horiz-adv-x="590" 
d="M265 764h72l121 -169h-66l-91 115l-90 -115h-66zM87 395q32 60 88 91.5t128 31.5q109 0 171 -68t62 -182v-39h-400q2 -81 48 -127.5t119 -46.5q59 0 98 26t53 73l77 -5q-17 -72 -77.5 -115t-147.5 -43q-72 0 -129 31.5t-89.5 91t-32.5 140.5t32 141zM459 286
q0 76 -40.5 122t-116.5 46q-71 0 -117 -44t-49 -124h323z" />
    <glyph glyph-name="edieresis" unicode="&#xeb;" horiz-adv-x="590" 
d="M193 648q-14 13 -14 33t14 33.5t34 13.5t34 -13.5t14 -33.5t-14 -33t-34 -13t-34 13zM87 395q32 60 88 91.5t128 31.5q109 0 171 -68t62 -182v-39h-400q2 -81 48 -127.5t119 -46.5q59 0 98 26t53 73l77 -5q-17 -72 -77.5 -115t-147.5 -43q-72 0 -129 31.5t-89.5 91
t-32.5 140.5t32 141zM459 286q0 76 -40.5 122t-116.5 46q-71 0 -117 -44t-49 -124h323zM336 714.5q14 13.5 34 13.5t34 -13.5t14 -33.5t-14 -33t-34 -13t-34 13t-14 33t14 33.5z" />
    <glyph glyph-name="igrave" unicode="&#xec;" 
d="M-34 785h88l105 -191h-61zM90 509h77v-509h-77v509z" />
    <glyph glyph-name="iacute" unicode="&#xed;" 
d="M204 785h87l-132 -191h-62zM90 509h77v-509h-77v509z" />
    <glyph glyph-name="icircumflex" unicode="&#xee;" 
d="M130 710l-90 -115h-67l120 169h73l121 -169h-66zM90 509h77v-509h-77v509z" />
    <glyph glyph-name="idieresis" unicode="&#xef;" 
d="M89.5 714.5q14.5 -13.5 14.5 -33.5t-14 -33t-35 -13q-20 0 -33.5 13t-13.5 33t13.5 33.5t33.5 13.5t34.5 -13.5zM90 509h77v-509h-77v509zM165 714.5q14 13.5 34 13.5t33.5 -13.5t13.5 -33.5t-13.5 -33t-33.5 -13t-34 13t-14 33t14 33.5z" />
    <glyph glyph-name="eth" unicode="&#xf0;" horiz-adv-x="604" 
d="M501 505.5q38 -110.5 38 -250.5q0 -85 -31.5 -144.5t-87 -89.5t-126.5 -30q-67 0 -122 29.5t-87 85t-32 130.5q0 74 32 130t86.5 86t121.5 30q45 0 84.5 -15t69.5 -42q-28 141 -110 215l-100 -76l-35 37l94 69q-70 45 -167 46v61q128 0 220 -63l104 77l34 -33l-98 -75
q74 -67 112 -177.5zM177 104.5q47 -48.5 120 -48.5q72 0 119 49t47 134q0 81 -45.5 130t-120.5 49q-74 0 -120.5 -49.5t-46.5 -132.5t47 -131.5z" />
    <glyph glyph-name="ntilde" unicode="&#xf1;" horiz-adv-x="607" 
d="M278.5 723q17.5 -9 37.5 -25q20 -14 32.5 -21t27.5 -7q24 0 36.5 15t13.5 40h46q2 -46 -22.5 -79.5t-65.5 -33.5q-22 0 -39 8.5t-38 24.5q-18 14 -31 21t-28 7q-24 0 -37.5 -15t-13.5 -39h-45q-2 47 22 80t65 33q22 0 39.5 -9zM90 509h73v-78q18 36 60.5 61.5t101.5 25.5
q57 0 101.5 -25.5t69.5 -72t25 -107.5v-313h-77v300q0 66 -37.5 106t-97.5 40q-41 0 -73.5 -19.5t-50.5 -53t-18 -73.5v-300h-77v509z" />
    <glyph glyph-name="ograve" unicode="&#xf2;" horiz-adv-x="630" 
d="M150 785h88l106 -191h-62zM89 393q34 60 93 92.5t132 32.5q74 0 133.5 -32.5t93.5 -92.5t34 -139t-34 -139t-93.5 -92t-133.5 -32q-73 0 -132 32t-93 92t-34 139t34 139zM155.5 149.5q23.5 -44.5 65 -68t93.5 -23.5t93.5 23.5t65.5 68t24 104.5t-24 104.5t-65.5 68
t-93.5 23.5t-93.5 -23.5t-65 -68t-23.5 -104.5t23.5 -104.5z" />
    <glyph glyph-name="oacute" unicode="&#xf3;" horiz-adv-x="630" 
d="M388 785h87l-131 -191h-62zM89 393q34 60 93 92.5t132 32.5q74 0 133.5 -32.5t93.5 -92.5t34 -139t-34 -139t-93.5 -92t-133.5 -32q-73 0 -132 32t-93 92t-34 139t34 139zM155.5 149.5q23.5 -44.5 65 -68t93.5 -23.5t93.5 23.5t65.5 68t24 104.5t-24 104.5t-65.5 68
t-93.5 23.5t-93.5 -23.5t-65 -68t-23.5 -104.5t23.5 -104.5z" />
    <glyph glyph-name="ocircumflex" unicode="&#xf4;" horiz-adv-x="630" 
d="M314 710l-90 -115h-66l120 169h73l120 -169h-66zM89 393q34 60 93 92.5t132 32.5q74 0 133.5 -32.5t93.5 -92.5t34 -139t-34 -139t-93.5 -92t-133.5 -32q-73 0 -132 32t-93 92t-34 139t34 139zM155.5 149.5q23.5 -44.5 65 -68t93.5 -23.5t93.5 23.5t65.5 68t24 104.5
t-24 104.5t-65.5 68t-93.5 23.5t-93.5 -23.5t-65 -68t-23.5 -104.5t23.5 -104.5z" />
    <glyph glyph-name="otilde" unicode="&#xf5;" horiz-adv-x="630" 
d="M279.5 723q17.5 -9 37.5 -25q20 -14 32.5 -21t27.5 -7q24 0 36.5 15t13.5 40h45q3 -46 -21.5 -79.5t-65.5 -33.5q-22 0 -39 8.5t-38 24.5q-20 15 -32.5 21.5t-27.5 6.5q-24 0 -37 -15t-13 -39h-45q-2 47 22 80t65 33q22 0 39.5 -9zM89 393q34 60 93 92.5t132 32.5
q74 0 133.5 -32.5t93.5 -92.5t34 -139t-34 -139t-93.5 -92t-133.5 -32q-73 0 -132 32t-93 92t-34 139t34 139zM155.5 149.5q23.5 -44.5 65 -68t93.5 -23.5t93.5 23.5t65.5 68t24 104.5t-24 104.5t-65.5 68t-93.5 23.5t-93.5 -23.5t-65 -68t-23.5 -104.5t23.5 -104.5z" />
    <glyph glyph-name="odieresis" unicode="&#xf6;" horiz-adv-x="630" 
d="M273.5 714.5q14.5 -13.5 14.5 -33.5t-14 -33t-35 -13q-20 0 -33.5 13t-13.5 33t13.5 33.5t33.5 13.5t34.5 -13.5zM89 393q34 60 93 92.5t132 32.5q74 0 133.5 -32.5t93.5 -92.5t34 -139t-34 -139t-93.5 -92t-133.5 -32q-73 0 -132 32t-93 92t-34 139t34 139zM155.5 149.5
q23.5 -44.5 65 -68t93.5 -23.5t93.5 23.5t65.5 68t24 104.5t-24 104.5t-65.5 68t-93.5 23.5t-93.5 -23.5t-65 -68t-23.5 -104.5t23.5 -104.5zM348.5 714.5q13.5 13.5 33.5 13.5t34 -13.5t14 -33.5t-14 -33t-34 -13t-33.5 13t-13.5 33t13.5 33.5z" />
    <glyph glyph-name="divide" unicode="&#xf7;" horiz-adv-x="546" 
d="M312.5 617.5q16.5 -15.5 16.5 -38.5t-16.5 -39t-40.5 -16q-22 0 -37.5 16t-15.5 39q0 22 15.5 38t37.5 16q24 0 40.5 -15.5zM33 406h479v-71h-479v71zM234.5 200.5q15.5 15.5 37.5 15.5q24 0 40.5 -15.5t16.5 -39.5q0 -22 -16.5 -37.5t-40.5 -15.5q-22 0 -37.5 15.5
t-15.5 37.5q0 24 15.5 39.5z" />
    <glyph glyph-name="oslash" unicode="&#xf8;" horiz-adv-x="630" 
d="M555 364.5q20 -49.5 20 -110.5q0 -79 -34 -139t-93.5 -92t-133.5 -32q-77 0 -136 35l-45 -58l-43 33l44 57q-38 35 -58.5 85t-20.5 111q0 79 34 139t93 92.5t132 32.5q78 0 140 -37l40 53l44 -33l-40 -52q37 -35 57 -84.5zM144.5 178.5q12.5 -34.5 35.5 -58.5l230 303
q-40 27 -96 27q-52 0 -93.5 -23.5t-65 -68t-23.5 -104.5q0 -41 12.5 -75.5zM314 58q52 0 93.5 23.5t65.5 68t24 104.5q0 79 -46 132l-230 -303q42 -25 93 -25z" />
    <glyph glyph-name="ugrave" unicode="&#xf9;" horiz-adv-x="589" 
d="M133 785h87l106 -191h-61zM86 509h76v-304q0 -65 33.5 -103.5t92.5 -38.5q61 0 97.5 42t36.5 102v302h77v-509h-72v78q-18 -36 -57 -61.5t-98 -25.5q-85 0 -135.5 54.5t-50.5 145.5v318z" />
    <glyph glyph-name="uacute" unicode="&#xfa;" horiz-adv-x="589" 
d="M371 785h87l-132 -191h-62zM86 509h76v-304q0 -65 33.5 -103.5t92.5 -38.5q61 0 97.5 42t36.5 102v302h77v-509h-72v78q-18 -36 -57 -61.5t-98 -25.5q-85 0 -135.5 54.5t-50.5 145.5v318z" />
    <glyph glyph-name="ucircumflex" unicode="&#xfb;" horiz-adv-x="589" 
d="M297 710l-91 -115h-66l120 169h73l121 -169h-66zM86 509h76v-304q0 -65 33.5 -103.5t92.5 -38.5q61 0 97.5 42t36.5 102v302h77v-509h-72v78q-18 -36 -57 -61.5t-98 -25.5q-85 0 -135.5 54.5t-50.5 145.5v318z" />
    <glyph glyph-name="udieresis" unicode="&#xfc;" horiz-adv-x="589" 
d="M256.5 714.5q14.5 -13.5 14.5 -33.5t-14 -33t-35 -13q-20 0 -33.5 13t-13.5 33t13.5 33.5t33.5 13.5t34.5 -13.5zM86 509h76v-304q0 -65 33.5 -103.5t92.5 -38.5q61 0 97.5 42t36.5 102v302h77v-509h-72v78q-18 -36 -57 -61.5t-98 -25.5q-85 0 -135.5 54.5t-50.5 145.5
v318zM332 714.5q14 13.5 34 13.5t33.5 -13.5t13.5 -33.5t-13.5 -33t-33.5 -13t-34 13t-14 33t14 33.5z" />
    <glyph glyph-name="yacute" unicode="&#xfd;" horiz-adv-x="524" 
d="M337 785h86l-131 -191h-62zM103 509l160 -397l159 397h85l-321 -764h-85l119 280l-202 484h85z" />
    <glyph glyph-name="thorn" unicode="&#xfe;" horiz-adv-x="646" 
d="M236 492q47 26 111 26q70 0 126 -32t88 -91.5t32 -140.5q0 -80 -32 -139.5t-88 -91.5t-126 -32q-64 0 -111 25.5t-69 68.5v-340h-77v1032h77v-354q22 43 69 69zM214.5 104.5q47.5 -46.5 123.5 -46.5q78 0 128 51.5t50 143.5q0 94 -50 145.5t-128 51.5q-77 0 -124 -46
t-47 -134v-32q0 -87 47.5 -133.5z" />
    <glyph glyph-name="ydieresis" unicode="&#xff;" horiz-adv-x="524" 
d="M221.5 714.5q14.5 -13.5 14.5 -33.5t-14 -33t-35 -13q-20 0 -33.5 13t-13.5 33t13.5 33.5t33.5 13.5t34.5 -13.5zM103 509l160 -397l159 397h85l-321 -764h-85l119 280l-202 484h85zM297 714.5q14 13.5 34 13.5t33.5 -13.5t13.5 -33.5t-13.5 -33t-33.5 -13t-34 13t-14 33
t14 33.5z" />
    <glyph glyph-name="Amacron" unicode="&#x100;" horiz-adv-x="726" 
d="M235 897h258v-60h-258v60zM328 748h70l312 -748h-90l-82 201h-349l-83 -201h-89zM509 267l-145 355l-147 -355h292z" />
    <glyph glyph-name="amacron" unicode="&#x101;" horiz-adv-x="540" 
d="M149 697h258v-60h-258v60zM247 282l130 7v35q0 61 -28 93.5t-84 32.5t-87 -33t-31 -79l-78 2q0 45 23.5 86t68 66.5t103.5 25.5q92 0 141.5 -51t49.5 -145v-322h-76v70q-26 -38 -67.5 -58.5t-93.5 -20.5q-75 0 -119 36.5t-44 104.5q0 140 192 150zM233 54
q62 0 103.5 37.5t41.5 116.5v24l-124 -7q-59 -4 -90.5 -24.5t-31.5 -64.5q0 -82 101 -82z" />
    <glyph glyph-name="Abreve" unicode="&#x102;" horiz-adv-x="726" 
d="M474.5 839.5q-41.5 -33.5 -110.5 -33.5q-70 0 -111.5 33.5t-41.5 94.5h64q0 -34 24 -54t65 -20q40 0 64 20t24 54h64q0 -61 -41.5 -94.5zM328 748h70l312 -748h-90l-82 201h-349l-83 -201h-89zM509 267l-145 355l-147 -355h292z" />
    <glyph glyph-name="abreve" unicode="&#x103;" horiz-adv-x="540" 
d="M388.5 632.5q-41.5 -33.5 -111.5 -33.5q-69 0 -110.5 33.5t-41.5 94.5h64q0 -34 23.5 -53.5t64.5 -19.5t65 19.5t24 53.5h64q0 -61 -41.5 -94.5zM247 282l130 7v35q0 61 -28 93.5t-84 32.5t-87 -33t-31 -79l-78 2q0 45 23.5 86t68 66.5t103.5 25.5q92 0 141.5 -51
t49.5 -145v-322h-76v70q-26 -38 -67.5 -58.5t-93.5 -20.5q-75 0 -119 36.5t-44 104.5q0 140 192 150zM233 54q62 0 103.5 37.5t41.5 116.5v24l-124 -7q-59 -4 -90.5 -24.5t-31.5 -64.5q0 -82 101 -82z" />
    <glyph glyph-name="Aogonek" unicode="&#x104;" horiz-adv-x="726" 
d="M538.5 -165.5q-29.5 21.5 -29.5 60.5q0 38 27 66t80 51l-78 189h-349l-83 -201h-89l311 748h70l312 -748h-46q-49 -24 -72.5 -45.5t-23.5 -51.5q0 -23 15.5 -35t41.5 -12q33 0 58 12l8 -41q-38 -14 -76 -14q-47 0 -76.5 21.5zM509 267l-145 355l-147 -355h292z" />
    <glyph glyph-name="aogonek" unicode="&#x105;" horiz-adv-x="540" 
d="M312.5 -164.5q-29.5 21.5 -29.5 60.5q0 35 24.5 62t71.5 50v62q-26 -38 -67.5 -58.5t-93.5 -20.5q-75 0 -119 36.5t-44 104.5q0 140 192 150l130 7v35q0 61 -28 93.5t-84 32.5t-87 -33t-31 -79l-78 2q0 45 23.5 86t68 66.5t103.5 25.5q92 0 141.5 -51t49.5 -145v-322h-19
q-49 -24 -72 -45.5t-23 -50.5q0 -23 16 -35t42 -12q31 0 58 12l7 -41q-37 -14 -75 -14q-47 0 -76.5 21.5zM233 54q62 0 103.5 37.5t41.5 116.5v24l-124 -7q-59 -4 -90.5 -24.5t-31.5 -64.5q0 -82 101 -82z" />
    <glyph glyph-name="Cacute" unicode="&#x106;" horiz-adv-x="805" 
d="M526 935h108l-186 -140h-73zM104 579.5q47 86.5 129.5 132t188.5 45.5q88 0 161 -33.5t120 -95.5t58 -145l-84 -9q-14 98 -85 154.5t-173 56.5q-82 0 -145 -37t-98.5 -107.5t-35.5 -166.5q0 -98 37 -168t101 -106.5t144 -36.5q101 0 169.5 52t85.5 146l85 -7
q-14 -81 -60.5 -140.5t-118 -91t-158.5 -31.5q-105 0 -188.5 45.5t-131.5 132t-48 205.5t47 205.5z" />
    <glyph glyph-name="cacute" unicode="&#x107;" horiz-adv-x="575" 
d="M369 785h87l-131 -191h-62zM87 395.5q32 59.5 88.5 91t127.5 31.5q91 0 153.5 -51t73.5 -138l-75 -7q-7 60 -48.5 94.5t-103.5 34.5q-76 0 -123 -52t-47 -145q0 -92 48 -144t123 -52q63 0 103 32t49 88l75 -6q-14 -84 -75 -132.5t-152 -48.5q-71 0 -128 31.5t-89 90.5
t-32 141t32 141.5z" />
    <glyph glyph-name="Ccircumflex" unicode="&#x108;" horiz-adv-x="805" 
d="M413 888l-89 -93h-67l120 141h73l119 -141h-67zM104 579.5q47 86.5 129.5 132t188.5 45.5q88 0 161 -33.5t120 -95.5t58 -145l-84 -9q-14 98 -85 154.5t-173 56.5q-82 0 -145 -37t-98.5 -107.5t-35.5 -166.5q0 -98 37 -168t101 -106.5t144 -36.5q101 0 169.5 52t85.5 146
l85 -7q-14 -81 -60.5 -140.5t-118 -91t-158.5 -31.5q-105 0 -188.5 45.5t-131.5 132t-48 205.5t47 205.5z" />
    <glyph glyph-name="ccircumflex" unicode="&#x109;" horiz-adv-x="575" 
d="M295 710l-90 -115h-66l120 169h73l120 -169h-66zM87 395.5q32 59.5 88.5 91t127.5 31.5q91 0 153.5 -51t73.5 -138l-75 -7q-7 60 -48.5 94.5t-103.5 34.5q-76 0 -123 -52t-47 -145q0 -92 48 -144t123 -52q63 0 103 32t49 88l75 -6q-14 -84 -75 -132.5t-152 -48.5
q-71 0 -128 31.5t-89 90.5t-32 141t32 141.5z" />
    <glyph glyph-name="Cdotaccent" unicode="&#x10a;" horiz-adv-x="805" 
d="M450.5 901.5q15.5 -15.5 15.5 -37.5t-15.5 -38t-37.5 -16t-38 16t-16 38t16 37.5t38 15.5t37.5 -15.5zM104 579.5q47 86.5 129.5 132t188.5 45.5q88 0 161 -33.5t120 -95.5t58 -145l-84 -9q-14 98 -85 154.5t-173 56.5q-82 0 -145 -37t-98.5 -107.5t-35.5 -166.5
q0 -98 37 -168t101 -106.5t144 -36.5q101 0 169.5 52t85.5 146l85 -7q-14 -81 -60.5 -140.5t-118 -91t-158.5 -31.5q-105 0 -188.5 45.5t-131.5 132t-48 205.5t47 205.5z" />
    <glyph glyph-name="cdotaccent" unicode="&#x10b;" horiz-adv-x="575" 
d="M333.5 718q15.5 -16 15.5 -38t-15.5 -37.5t-37.5 -15.5t-38 15.5t-16 37.5t16 38t38 16t37.5 -16zM87 395.5q32 59.5 88.5 91t127.5 31.5q91 0 153.5 -51t73.5 -138l-75 -7q-7 60 -48.5 94.5t-103.5 34.5q-76 0 -123 -52t-47 -145q0 -92 48 -144t123 -52q63 0 103 32
t49 88l75 -6q-14 -84 -75 -132.5t-152 -48.5q-71 0 -128 31.5t-89 90.5t-32 141t32 141.5z" />
    <glyph glyph-name="Ccaron" unicode="&#x10c;" horiz-adv-x="805" 
d="M257 936h67l89 -93l89 93h67l-119 -141h-73zM104 579.5q47 86.5 129.5 132t188.5 45.5q88 0 161 -33.5t120 -95.5t58 -145l-84 -9q-14 98 -85 154.5t-173 56.5q-82 0 -145 -37t-98.5 -107.5t-35.5 -166.5q0 -98 37 -168t101 -106.5t144 -36.5q101 0 169.5 52t85.5 146
l85 -7q-14 -81 -60.5 -140.5t-118 -91t-158.5 -31.5q-105 0 -188.5 45.5t-131.5 132t-48 205.5t47 205.5z" />
    <glyph glyph-name="ccaron" unicode="&#x10d;" horiz-adv-x="575" 
d="M139 761h66l90 -115l91 115h66l-120 -168h-73zM87 395.5q32 59.5 88.5 91t127.5 31.5q91 0 153.5 -51t73.5 -138l-75 -7q-7 60 -48.5 94.5t-103.5 34.5q-76 0 -123 -52t-47 -145q0 -92 48 -144t123 -52q63 0 103 32t49 88l75 -6q-14 -84 -75 -132.5t-152 -48.5
q-71 0 -128 31.5t-89 90.5t-32 141t32 141.5z" />
    <glyph glyph-name="Dcaron" unicode="&#x10e;" horiz-adv-x="798" 
d="M196 936h67l88 -93l90 93h66l-119 -141h-72zM93 748h289q103 0 184.5 -44.5t127.5 -129t46 -200.5q0 -115 -47 -199.5t-128.5 -129.5t-183.5 -45h-288v748zM381 70q81 0 144 35t98.5 103.5t35.5 165.5t-35 165.5t-97.5 103.5t-143.5 35h-209v-608h207z" />
    <glyph glyph-name="dcaron" unicode="&#x10f;" horiz-adv-x="746" 
d="M175 22.5q-56 31.5 -88 91t-32 139.5q0 81 32 141t88 92t126 32q64 0 111 -25.5t69 -66.5v351h77v-777h-73v87q-23 -43 -70.5 -69.5t-113.5 -26.5q-70 0 -126 31.5zM182 110q50 -52 128 -52q76 0 123 46.5t47 134.5v31q0 88 -47 134t-123 46q-78 0 -128 -51.5t-50 -144.5
q0 -92 50 -144zM622 535q51 40 56 103q-22 1 -37 16.5t-15 37.5t15 37.5t37 15.5q24 0 37.5 -17t13.5 -45q0 -120 -107 -183v35z" />
    <glyph glyph-name="Dcroat" unicode="&#x110;" horiz-adv-x="791" 
d="M586.5 703.5q81.5 -44.5 127.5 -129t46 -200.5q0 -115 -47 -199.5t-128.5 -129.5t-183.5 -45h-288v343h-110v62h110v343h289q103 0 184.5 -44.5zM401 70q81 0 144 35t98.5 103.5t35.5 165.5t-35 165.5t-97.5 103.5t-143.5 35h-209v-273h157v-62h-157v-273h207z" />
    <glyph glyph-name="dcroat" unicode="&#x111;" horiz-adv-x="641" 
d="M558 0h-73v87q-23 -43 -70.5 -69.5t-113.5 -26.5q-70 0 -126 31.5t-88 91t-32 139.5q0 81 32 141t88 92t126 32q64 0 111 -25.5t69 -66.5v188h-98v60h98v103h77v-103h83v-60h-83v-614zM182 110q50 -52 128 -52q76 0 123 46.5t47 134.5v31q0 88 -47 134t-123 46
q-78 0 -128 -51.5t-50 -144.5q0 -92 50 -144z" />
    <glyph glyph-name="Emacron" unicode="&#x112;" horiz-adv-x="591" 
d="M197 897h258v-60h-258v60zM93 748h459v-72h-378v-253h334v-72h-334v-278h378v-73h-459v748z" />
    <glyph glyph-name="emacron" unicode="&#x113;" horiz-adv-x="590" 
d="M172 697h258v-60h-258v60zM87 395q32 60 88 91.5t128 31.5q109 0 171 -68t62 -182v-39h-400q2 -81 48 -127.5t119 -46.5q59 0 98 26t53 73l77 -5q-17 -72 -77.5 -115t-147.5 -43q-72 0 -129 31.5t-89.5 91t-32.5 140.5t32 141zM459 286q0 76 -40.5 122t-116.5 46
q-71 0 -117 -44t-49 -124h323z" />
    <glyph glyph-name="Ebreve" unicode="&#x114;" horiz-adv-x="591" 
d="M436.5 839.5q-41.5 -33.5 -110.5 -33.5q-70 0 -111 33.5t-41 94.5h64q0 -34 24 -54t64 -20t64 20t24 54h64q0 -61 -41.5 -94.5zM93 748h459v-72h-378v-253h334v-72h-334v-278h378v-73h-459v748z" />
    <glyph glyph-name="ebreve" unicode="&#x115;" horiz-adv-x="590" 
d="M190 632.5q-41 33.5 -41 94.5h64q0 -34 23.5 -53.5t64.5 -19.5t64.5 19.5t23.5 53.5h64q0 -61 -41.5 -94.5t-110.5 -33.5q-70 0 -111 33.5zM87 395q32 60 88 91.5t128 31.5q109 0 171 -68t62 -182v-39h-400q2 -81 48 -127.5t119 -46.5q59 0 98 26t53 73l77 -5
q-17 -72 -77.5 -115t-147.5 -43q-72 0 -129 31.5t-89.5 91t-32.5 140.5t32 141zM459 286q0 76 -40.5 122t-116.5 46q-71 0 -117 -44t-49 -124h323z" />
    <glyph glyph-name="Edotaccent" unicode="&#x116;" horiz-adv-x="591" 
d="M365 901.5q15 -15.5 15 -37.5t-15 -38t-37 -16t-38.5 16t-16.5 38t16 37.5t39 15.5q22 0 37 -15.5zM93 748h459v-72h-378v-253h334v-72h-334v-278h378v-73h-459v748z" />
    <glyph glyph-name="edotaccent" unicode="&#x117;" horiz-adv-x="590" 
d="M264 642.5q-16 15.5 -16 37.5t16.5 38t38.5 16t37 -16t15 -38t-15 -37.5t-37 -15.5q-23 0 -39 15.5zM87 395q32 60 88 91.5t128 31.5q109 0 171 -68t62 -182v-39h-400q2 -81 48 -127.5t119 -46.5q59 0 98 26t53 73l77 -5q-17 -72 -77.5 -115t-147.5 -43q-72 0 -129 31.5
t-89.5 91t-32.5 140.5t32 141zM459 286q0 76 -40.5 122t-116.5 46q-71 0 -117 -44t-49 -124h323z" />
    <glyph glyph-name="Eogonek" unicode="&#x118;" horiz-adv-x="591" 
d="M416.5 -165.5q-29.5 21.5 -29.5 60.5q0 33 20.5 58.5t61.5 46.5h-376v748h459v-72h-378v-253h334v-72h-334v-278h378v-73h-10q-50 -24 -73.5 -45.5t-23.5 -51.5q0 -23 16 -35t42 -12q31 0 58 12l7 -41q-37 -14 -75 -14q-47 0 -76.5 21.5z" />
    <glyph glyph-name="eogonek" unicode="&#x119;" horiz-adv-x="590" 
d="M184 101.5q46 -46.5 119 -46.5q59 0 98 26t53 73l77 -5q-14 -59 -58 -99.5t-110 -53.5q-47 -23 -69.5 -44.5t-22.5 -49.5q0 -23 16 -35.5t42 -12.5q32 0 57 12l8 -40q-37 -15 -75 -15q-47 0 -76.5 21.5t-29.5 61.5q0 58 71 97q-67 5 -119 38t-81 90.5t-29 134.5
q0 81 32 141t88 91.5t128 31.5q109 0 171 -68t62 -182v-39h-400q2 -81 48 -127.5zM459 286q0 76 -40.5 122t-116.5 46q-71 0 -117 -44t-49 -124h323z" />
    <glyph glyph-name="Ecaron" unicode="&#x11a;" horiz-adv-x="591" 
d="M170 936h67l89 -93l89 93h67l-119 -141h-73zM93 748h459v-72h-378v-253h334v-72h-334v-278h378v-73h-459v748z" />
    <glyph glyph-name="ecaron" unicode="&#x11b;" horiz-adv-x="590" 
d="M211 761l90 -115l91 115h66l-121 -168h-72l-120 168h66zM87 395q32 60 88 91.5t128 31.5q109 0 171 -68t62 -182v-39h-400q2 -81 48 -127.5t119 -46.5q59 0 98 26t53 73l77 -5q-17 -72 -77.5 -115t-147.5 -43q-72 0 -129 31.5t-89.5 91t-32.5 140.5t32 141zM459 286
q0 76 -40.5 122t-116.5 46q-71 0 -117 -44t-49 -124h323z" />
    <glyph glyph-name="Gcircumflex" unicode="&#x11c;" horiz-adv-x="819" 
d="M380 936h72l119 -141h-66l-90 93l-88 -93h-67zM104 579.5q47 86.5 129 132t187 45.5q86 0 158 -31.5t119 -91t61 -142.5l-84 -14q-14 96 -83.5 151.5t-171.5 55.5q-82 0 -145 -36t-98.5 -106t-35.5 -169t36 -169t99 -106t144 -36q111 0 179.5 61t77.5 179h-253v73h341
v-29q0 -110 -42 -190.5t-119.5 -123t-181.5 -42.5t-186.5 45.5t-130 132.5t-47.5 205q0 119 47 205.5z" />
    <glyph glyph-name="gcircumflex" unicode="&#x11d;" horiz-adv-x="643" 
d="M316 710l-90 -115h-67l120 169h73l121 -169h-66zM87 394.5q32 59.5 88 91.5t126 32q66 0 113.5 -27t70.5 -70v88h73v-540q0 -72 -30.5 -124.5t-85 -80t-126.5 -27.5q-102 0 -165 48.5t-79 128.5l77 3q10 -53 55.5 -84.5t108.5 -31.5q76 0 122 42.5t46 120.5v119
q-22 -41 -69 -66.5t-111 -25.5q-70 0 -126 32t-88 91.5t-32 139.5q0 81 32 140.5zM182 109.5q50 -51.5 128 -51.5q76 0 123 46.5t47 133.5v32q0 88 -47 134t-123 46q-78 0 -128 -51.5t-50 -145.5q0 -92 50 -143.5z" />
    <glyph glyph-name="Gbreve" unicode="&#x11e;" horiz-adv-x="819" 
d="M304.5 839.5q-41.5 33.5 -41.5 94.5h64q0 -34 24 -54t64 -20q41 0 65 20t24 54h63q0 -61 -41 -94.5t-111 -33.5q-69 0 -110.5 33.5zM104 579.5q47 86.5 129 132t187 45.5q86 0 158 -31.5t119 -91t61 -142.5l-84 -14q-14 96 -83.5 151.5t-171.5 55.5q-82 0 -145 -36
t-98.5 -106t-35.5 -169t36 -169t99 -106t144 -36q111 0 179.5 61t77.5 179h-253v73h341v-29q0 -110 -42 -190.5t-119.5 -123t-181.5 -42.5t-186.5 45.5t-130 132.5t-47.5 205q0 119 47 205.5z" />
    <glyph glyph-name="gbreve" unicode="&#x11f;" horiz-adv-x="643" 
d="M426.5 632.5q-41.5 -33.5 -110.5 -33.5q-70 0 -111 33.5t-41 94.5h63q0 -34 24 -53.5t65 -19.5t64.5 19.5t23.5 53.5h64q0 -61 -41.5 -94.5zM87 394.5q32 59.5 88 91.5t126 32q66 0 113.5 -27t70.5 -70v88h73v-540q0 -72 -30.5 -124.5t-85 -80t-126.5 -27.5
q-102 0 -165 48.5t-79 128.5l77 3q10 -53 55.5 -84.5t108.5 -31.5q76 0 122 42.5t46 120.5v119q-22 -41 -69 -66.5t-111 -25.5q-70 0 -126 32t-88 91.5t-32 139.5q0 81 32 140.5zM182 109.5q50 -51.5 128 -51.5q76 0 123 46.5t47 133.5v32q0 88 -47 134t-123 46
q-78 0 -128 -51.5t-50 -145.5q0 -92 50 -143.5z" />
    <glyph glyph-name="Gdotaccent" unicode="&#x120;" horiz-adv-x="819" 
d="M379 826q-16 16 -16 38t16 37.5t38 15.5t37.5 -15.5t15.5 -37.5t-15.5 -38t-37.5 -16t-38 16zM104 579.5q47 86.5 129 132t187 45.5q86 0 158 -31.5t119 -91t61 -142.5l-84 -14q-14 96 -83.5 151.5t-171.5 55.5q-82 0 -145 -36t-98.5 -106t-35.5 -169t36 -169t99 -106
t144 -36q111 0 179.5 61t77.5 179h-253v73h341v-29q0 -110 -42 -190.5t-119.5 -123t-181.5 -42.5t-186.5 45.5t-130 132.5t-47.5 205q0 119 47 205.5z" />
    <glyph glyph-name="gdotaccent" unicode="&#x121;" horiz-adv-x="643" 
d="M354.5 718q15.5 -16 15.5 -38t-15.5 -37.5t-37.5 -15.5t-38 15.5t-16 37.5t16 38t38 16t37.5 -16zM87 394.5q32 59.5 88 91.5t126 32q66 0 113.5 -27t70.5 -70v88h73v-540q0 -72 -30.5 -124.5t-85 -80t-126.5 -27.5q-102 0 -165 48.5t-79 128.5l77 3q10 -53 55.5 -84.5
t108.5 -31.5q76 0 122 42.5t46 120.5v119q-22 -41 -69 -66.5t-111 -25.5q-70 0 -126 32t-88 91.5t-32 139.5q0 81 32 140.5zM182 109.5q50 -51.5 128 -51.5q76 0 123 46.5t47 133.5v32q0 88 -47 134t-123 46q-78 0 -128 -51.5t-50 -145.5q0 -92 50 -143.5z" />
    <glyph glyph-name="uni0122" unicode="&#x122;" horiz-adv-x="819" 
d="M234.5 36.5q-82.5 45.5 -130 132.5t-47.5 205q0 119 47 205.5t129 132t187 45.5q86 0 158 -31.5t119 -91t61 -142.5l-84 -14q-14 96 -83.5 151.5t-171.5 55.5q-82 0 -145 -36t-98.5 -106t-35.5 -169t36 -169t99 -106t144 -36q111 0 179.5 61t77.5 179h-253v73h341v-29
q0 -110 -42 -190.5t-119.5 -123t-181.5 -42.5t-186.5 45.5zM362 -256q50 39 55 103q-22 1 -37 16.5t-15 37.5t15 37.5t37 15.5q24 0 37.5 -16.5t13.5 -45.5q0 -120 -106 -183v35z" />
    <glyph glyph-name="uni0123" unicode="&#x123;" horiz-adv-x="643" 
d="M151 -214.5q-63 48.5 -79 128.5l77 3q10 -53 55.5 -84.5t108.5 -31.5q76 0 122 42.5t46 120.5v119q-22 -41 -69 -66.5t-111 -25.5q-70 0 -126 32t-88 91.5t-32 139.5q0 81 32 140.5t88 91.5t126 32q66 0 113.5 -27t70.5 -70v88h73v-540q0 -72 -30.5 -124.5t-85 -80
t-126.5 -27.5q-102 0 -165 48.5zM182 109.5q50 -51.5 128 -51.5q76 0 123 46.5t47 133.5v32q0 88 -47 134t-123 46q-78 0 -128 -51.5t-50 -145.5q0 -92 50 -143.5zM274 619q50 38 56 103q-22 1 -37.5 16t-15.5 37q0 23 15.5 38.5t37.5 15.5q24 0 37 -17t13 -45
q0 -58 -26 -105t-80 -78v35z" />
    <glyph glyph-name="Hcircumflex" unicode="&#x124;" horiz-adv-x="751" 
d="M375 888l-89 -93h-67l120 141h73l119 -141h-67zM93 748h81v-323h403v323h83v-748h-83v352h-403v-352h-81v748z" />
    <glyph glyph-name="hcircumflex" unicode="&#x125;" horiz-adv-x="601" 
d="M130 890l-90 -93h-67l120 141h73l119 -141h-67zM90 777h77v-342q18 34 59 58.5t99 24.5q57 0 101.5 -25.5t69.5 -72t25 -107.5v-313h-77v300q0 66 -37.5 106t-97.5 40q-41 0 -73.5 -19.5t-50.5 -53t-18 -73.5v-300h-77v777z" />
    <glyph glyph-name="Hbar" unicode="&#x126;" horiz-adv-x="761" 
d="M664 0h-81v352h-405v-352h-81v552h-89v63h89v133h81v-133h405v133h81v-133h89v-63h-89v-552zM583 425v127h-405v-127h405z" />
    <glyph glyph-name="hbar" unicode="&#x127;" horiz-adv-x="601" 
d="M426.5 492.5q44.5 -25.5 69.5 -72t25 -107.5v-313h-77v300q0 66 -37.5 106t-97.5 40q-41 0 -73.5 -19.5t-50.5 -53t-18 -73.5v-300h-77v614h-84v60h84v103h77v-103h96v-60h-96v-179q18 34 59 58.5t99 24.5q57 0 101.5 -25.5z" />
    <glyph glyph-name="Itilde" unicode="&#x128;" horiz-adv-x="267" 
d="M102.5 923q17.5 -9 37.5 -25q20 -14 32.5 -21t27.5 -7q24 0 36.5 15t13.5 40h45q3 -47 -21.5 -80.5t-65.5 -33.5q-22 0 -39.5 9t-37.5 25q-20 15 -32.5 21.5t-27.5 6.5q-24 0 -37 -15.5t-13 -39.5h-45q-3 47 21 80.5t66 33.5q22 0 39.5 -9zM93 748h81v-748h-81v748z" />
    <glyph glyph-name="itilde" unicode="&#x129;" 
d="M94 723.5q16 -8.5 40 -25.5q18 -14 31 -21t28 -7q24 0 37 15.5t13 39.5h46q2 -46 -22 -79.5t-65 -33.5q-22 0 -38.5 8.5t-39.5 24.5q-16 14 -29.5 21t-29.5 7q-24 0 -37.5 -15t-13.5 -39h-45q-2 47 22 80t65 33q22 0 38 -8.5zM90 509h77v-509h-77v509z" />
    <glyph glyph-name="Imacron" unicode="&#x12a;" horiz-adv-x="267" 
d="M7 897h258v-60h-258v60zM93 748h81v-748h-81v748z" />
    <glyph glyph-name="imacron" unicode="&#x12b;" 
d="M1 697h258v-60h-258v60zM90 509h77v-509h-77v509z" />
    <glyph glyph-name="Ibreve" unicode="&#x12c;" horiz-adv-x="267" 
d="M246.5 839.5q-41.5 -33.5 -110.5 -33.5q-70 0 -111.5 33.5t-41.5 94.5h64q0 -34 24 -54t65 -20q40 0 64 20t24 54h64q0 -61 -41.5 -94.5zM93 748h81v-748h-81v748z" />
    <glyph glyph-name="ibreve" unicode="&#x12d;" 
d="M240.5 632.5q-41.5 -33.5 -110.5 -33.5q-70 0 -111.5 33.5t-41.5 94.5h64q0 -34 24 -53.5t65 -19.5t64.5 19.5t23.5 53.5h64q0 -61 -41.5 -94.5zM90 509h77v-509h-77v509z" />
    <glyph glyph-name="Iogonek" unicode="&#x12e;" horiz-adv-x="267" 
d="M16.5 -164.5q-29.5 21.5 -29.5 60.5q0 37 27 65t79 51v736h81v-748h-34q-48 -24 -71 -45.5t-23 -50.5q0 -23 15.5 -35t41.5 -12q33 0 58 12l8 -41q-38 -14 -76 -14q-47 0 -76.5 21.5z" />
    <glyph glyph-name="iogonek" unicode="&#x12f;" 
d="M22.5 -164.5q-29.5 21.5 -29.5 60.5q0 36 24.5 63t72.5 49v501h77v-509h-20q-49 -24 -72 -45.5t-23 -50.5q0 -23 16 -35t42 -12q32 0 57 12l8 -41q-38 -14 -76 -14q-47 0 -76.5 21.5zM93 718q16 16 38 16t37.5 -16t15.5 -38t-15.5 -37.5t-37.5 -15.5t-38 15.5t-16 37.5
t16 38z" />
    <glyph glyph-name="Idotaccent" unicode="&#x130;" horiz-adv-x="267" 
d="M173.5 901.5q15.5 -15.5 15.5 -37.5t-15.5 -38t-37.5 -16t-38 16t-16 38t16 37.5t38 15.5t37.5 -15.5zM93 748h81v-748h-81v748z" />
    <glyph glyph-name="dotlessi" unicode="&#x131;" 
d="M90 509h77v-509h-77v509z" />
    <glyph glyph-name="Jcircumflex" unicode="&#x134;" horiz-adv-x="573" 
d="M450 888l-88 -93h-67l120 141h73l119 -141h-67zM106 233q4 -81 44.5 -125.5t108.5 -44.5q70 0 108.5 43t38.5 125v517h81v-515q0 -115 -60.5 -178.5t-167.5 -63.5q-105 0 -167 61t-68 168z" />
    <glyph glyph-name="jcircumflex" unicode="&#x135;" 
d="M127 710l-90 -115h-66l120 169h73l120 -169h-66zM-39 -179q3 -1 13.5 -7.5t26.5 -6.5q43 0 66.5 27t23.5 83v592h77v-589q0 -91 -42.5 -136t-116.5 -45q-43 0 -77 18z" />
    <glyph glyph-name="uni0136" unicode="&#x136;" horiz-adv-x="669" 
d="M93 748h81v-362l330 362h105l-291 -319l332 -429h-98l-287 365l-91 -100v-265h-81v748zM289 -251q50 38 56 103q-22 1 -37.5 16.5t-15.5 37.5t15.5 37.5t37.5 15.5q24 0 37 -17t13 -45q0 -120 -106 -183v35z" />
    <glyph glyph-name="uni0137" unicode="&#x137;" horiz-adv-x="531" 
d="M90 777h77v-498l232 230h97l-219 -222l243 -287h-97l-201 231l-55 -56v-175h-77v777zM229 -251q50 38 56 103q-22 1 -37.5 16.5t-15.5 37.5t15 37.5t37 15.5q24 0 37.5 -17t13.5 -45q0 -120 -106 -183v35z" />
    <glyph glyph-name="Lacute" unicode="&#x139;" horiz-adv-x="591" 
d="M251 935h107l-186 -140h-73zM93 748h81v-675h383v-73h-464v748z" />
    <glyph glyph-name="lacute" unicode="&#x13a;" 
d="M245 948h108l-187 -140h-73zM90 777h77v-777h-77v777z" />
    <glyph glyph-name="uni013B" unicode="&#x13b;" horiz-adv-x="591" 
d="M93 0v748h81v-675h383v-73h-464zM278 -251q50 39 55 103q-22 1 -37 16.5t-15 37.5t15 37.5t37 15.5q24 0 37.5 -17t13.5 -45q0 -120 -106 -183v35z" />
    <glyph glyph-name="uni013C" unicode="&#x13c;" 
d="M90 777h77v-777h-77v777zM73 -251q50 38 56 103q-22 1 -37.5 16.5t-15.5 37.5t15 37.5t38 15.5q24 0 37 -17t13 -45q0 -120 -106 -183v35z" />
    <glyph glyph-name="Lcaron" unicode="&#x13d;" horiz-adv-x="591" 
d="M93 748h81v-675h383v-73h-464v748zM464 535q51 40 56 103q-22 1 -37 16.5t-15 37.5t15 37.5t37 15.5q24 0 37.5 -17t13.5 -45q-2 -121 -107 -183v35z" />
    <glyph glyph-name="lcaron" unicode="&#x13e;" horiz-adv-x="361" 
d="M90 777h77v-777h-77v777zM241 535q50 39 55 103q-22 1 -37 16.5t-15 37.5t15 37.5t37 15.5q24 0 37.5 -17t13.5 -45q0 -120 -106 -183v35z" />
    <glyph glyph-name="Ldot" unicode="&#x13f;" horiz-adv-x="591" 
d="M557 0h-464v748h81v-675h383v-73zM399 419.5q15 15.5 38 15.5q24 0 39.5 -15.5t15.5 -38.5t-15.5 -38.5t-39.5 -15.5q-23 0 -38 15.5t-15 38.5t15 38.5z" />
    <glyph glyph-name="ldot" unicode="&#x140;" horiz-adv-x="379" 
d="M90 777h77v-777h-77v777zM260.5 329.5q15.5 15.5 38.5 15.5t39 -15.5t16 -38.5t-16 -38.5t-39 -15.5t-38.5 15.5t-15.5 38.5t15.5 38.5z" />
    <glyph glyph-name="Lslash" unicode="&#x141;" horiz-adv-x="601" 
d="M105 0v269l-98 -35l-11 63l109 37v414h82v-391l114 41l11 -62l-125 -44v-219h382v-73h-464z" />
    <glyph glyph-name="lslash" unicode="&#x142;" horiz-adv-x="278" 
d="M101 0v251l-100 -39l-14 62l114 44v459h78v-433l99 39l15 -62l-114 -44v-277h-78z" />
    <glyph glyph-name="Nacute" unicode="&#x143;" horiz-adv-x="748" 
d="M485 935h108l-187 -140h-73zM93 748h68l412 -597v597h82v-748h-69l-412 596v-596h-81v748z" />
    <glyph glyph-name="nacute" unicode="&#x144;" horiz-adv-x="607" 
d="M387 785h86l-131 -191h-62zM90 509h73v-78q18 36 60.5 61.5t101.5 25.5q57 0 101.5 -25.5t69.5 -72t25 -107.5v-313h-77v300q0 66 -37.5 106t-97.5 40q-41 0 -73.5 -19.5t-50.5 -53t-18 -73.5v-300h-77v509z" />
    <glyph glyph-name="uni0145" unicode="&#x145;" horiz-adv-x="748" 
d="M93 748h68l412 -597v597h82v-748h-69l-412 596v-596h-81v748zM325 -251q51 40 56 103q-22 1 -37 16.5t-15 37.5t15 37.5t37 15.5q24 0 37.5 -17t13.5 -45q0 -120 -107 -183v35z" />
    <glyph glyph-name="uni0146" unicode="&#x146;" horiz-adv-x="607" 
d="M426.5 492.5q44.5 -25.5 69.5 -72t25 -107.5v-313h-77v300q0 66 -37.5 106t-97.5 40q-41 0 -73.5 -19.5t-50.5 -53t-18 -73.5v-300h-77v509h73v-78q18 36 60.5 61.5t101.5 25.5q57 0 101.5 -25.5zM254 -251q51 40 56 103q-22 1 -37 16.5t-15 37.5t15 37.5t37 15.5
q24 0 37.5 -17t13.5 -45q-2 -121 -107 -183v35z" />
    <glyph glyph-name="Ncaron" unicode="&#x147;" horiz-adv-x="748" 
d="M216 936h67l88 -93l90 93h66l-119 -141h-72zM93 748h68l412 -597v597h82v-748h-69l-412 596v-596h-81v748z" />
    <glyph glyph-name="ncaron" unicode="&#x148;" horiz-adv-x="607" 
d="M156 761h66l90 -115l92 115h66l-121 -168h-73zM90 509h73v-78q18 36 60.5 61.5t101.5 25.5q57 0 101.5 -25.5t69.5 -72t25 -107.5v-313h-77v300q0 66 -37.5 106t-97.5 40q-41 0 -73.5 -19.5t-50.5 -53t-18 -73.5v-300h-77v509z" />
    <glyph glyph-name="Eng" unicode="&#x14a;" horiz-adv-x="748" 
d="M593.5 -195q-61.5 -60 -167.5 -60v72q69 0 108 43.5t39 124.5v34l-399 577v-596h-81v748h68l412 -597v597h82v-783q0 -100 -61.5 -160z" />
    <glyph glyph-name="eng" unicode="&#x14b;" horiz-adv-x="607" 
d="M418.5 -164q25.5 29 25.5 83v381q0 66 -37.5 106t-97.5 40q-41 0 -73.5 -19.5t-50.5 -53t-18 -73.5v-300h-77v509h73v-78q18 36 60.5 61.5t101.5 25.5q57 0 101.5 -25.5t69.5 -72t25 -107.5l1 -392q0 -86 -45.5 -133.5t-126.5 -47.5v67q43 0 68.5 29z" />
    <glyph glyph-name="Omacron" unicode="&#x14c;" horiz-adv-x="864" 
d="M293 897h258v-60h-258v60zM106.5 577.5q49.5 86.5 135 133t191.5 46.5q105 0 190 -46.5t134 -133t49 -203.5t-49 -203.5t-134 -133t-190 -46.5q-106 0 -191.5 46.5t-135 133t-49.5 203.5t49.5 203.5zM179 208.5q38 -70.5 104.5 -108t149.5 -37.5q82 0 148 37.5t104 108
t38 165.5q0 96 -38 166t-104 107.5t-148 37.5q-83 0 -149.5 -37.5t-104.5 -107.5t-38 -166q0 -95 38 -165.5z" />
    <glyph glyph-name="omacron" unicode="&#x14d;" horiz-adv-x="630" 
d="M185 697h258v-60h-258v60zM89 393q34 60 93 92.5t132 32.5q74 0 133.5 -32.5t93.5 -92.5t34 -139t-34 -139t-93.5 -92t-133.5 -32q-73 0 -132 32t-93 92t-34 139t34 139zM155.5 149.5q23.5 -44.5 65 -68t93.5 -23.5t93.5 23.5t65.5 68t24 104.5t-24 104.5t-65.5 68
t-93.5 23.5t-93.5 -23.5t-65 -68t-23.5 -104.5t23.5 -104.5z" />
    <glyph glyph-name="Obreve" unicode="&#x14e;" horiz-adv-x="864" 
d="M532 839.5q-41 -33.5 -111 -33.5q-69 0 -110.5 33.5t-41.5 94.5h64q0 -34 24 -54t64 -20q41 0 65 20t24 54h63q0 -61 -41 -94.5zM106.5 577.5q49.5 86.5 135 133t191.5 46.5q105 0 190 -46.5t134 -133t49 -203.5t-49 -203.5t-134 -133t-190 -46.5q-106 0 -191.5 46.5
t-135 133t-49.5 203.5t49.5 203.5zM179 208.5q38 -70.5 104.5 -108t149.5 -37.5q82 0 148 37.5t104 108t38 165.5q0 96 -38 166t-104 107.5t-148 37.5q-83 0 -149.5 -37.5t-104.5 -107.5t-38 -166q0 -95 38 -165.5z" />
    <glyph glyph-name="obreve" unicode="&#x14f;" horiz-adv-x="630" 
d="M424.5 632.5q-41.5 -33.5 -111.5 -33.5q-69 0 -110.5 33.5t-41.5 94.5h64q0 -34 24 -53.5t64 -19.5q41 0 65 19.5t24 53.5h64q0 -61 -41.5 -94.5zM89 393q34 60 93 92.5t132 32.5q74 0 133.5 -32.5t93.5 -92.5t34 -139t-34 -139t-93.5 -92t-133.5 -32q-73 0 -132 32
t-93 92t-34 139t34 139zM155.5 149.5q23.5 -44.5 65 -68t93.5 -23.5t93.5 23.5t65.5 68t24 104.5t-24 104.5t-65.5 68t-93.5 23.5t-93.5 -23.5t-65 -68t-23.5 -104.5t23.5 -104.5z" />
    <glyph glyph-name="Ohungarumlaut" unicode="&#x150;" horiz-adv-x="864" 
d="M363 943h73l-72 -145h-62zM106.5 577.5q49.5 86.5 135 133t191.5 46.5q105 0 190 -46.5t134 -133t49 -203.5t-49 -203.5t-134 -133t-190 -46.5q-106 0 -191.5 46.5t-135 133t-49.5 203.5t49.5 203.5zM179 208.5q38 -70.5 104.5 -108t149.5 -37.5q82 0 148 37.5t104 108
t38 165.5q0 96 -38 166t-104 107.5t-148 37.5q-83 0 -149.5 -37.5t-104.5 -107.5t-38 -166q0 -95 38 -165.5zM528 943h74l-72 -145h-62z" />
    <glyph glyph-name="ohungarumlaut" unicode="&#x151;" horiz-adv-x="630" 
d="M259 760h73l-74 -154h-62zM89 393q34 60 93 92.5t132 32.5q74 0 133.5 -32.5t93.5 -92.5t34 -139t-34 -139t-93.5 -92t-133.5 -32q-73 0 -132 32t-93 92t-34 139t34 139zM155.5 149.5q23.5 -44.5 65 -68t93.5 -23.5t93.5 23.5t65.5 68t24 104.5t-24 104.5t-65.5 68
t-93.5 23.5t-93.5 -23.5t-65 -68t-23.5 -104.5t23.5 -104.5zM424 760h74l-74 -154h-62z" />
    <glyph glyph-name="OE" unicode="&#x152;" horiz-adv-x="1222" 
d="M241.5 37.5q-85.5 46.5 -135 133t-49.5 203.5t49.5 203.5t135 133t191.5 46.5q91 0 167 -37t124 -105v133h459v-72h-378v-253h334v-72h-334v-278h378v-73h-459v133q-48 -68 -124 -105t-167 -37q-106 0 -191.5 46.5zM179 208.5q38 -70.5 104.5 -108t149.5 -37.5
q82 0 148 37.5t104 108t38 165.5q0 96 -38 166t-104 107.5t-148 37.5q-83 0 -149.5 -37.5t-104.5 -107.5t-38 -166q0 -95 38 -165.5z" />
    <glyph glyph-name="oe" unicode="&#x153;" horiz-adv-x="1032" 
d="M182 23q-59 32 -93 92t-34 139t34 139t93 92.5t132 32.5q71 0 129 -31.5t91 -87.5q31 57 86 88t125 31q109 0 171 -68t62 -182v-39h-400q2 -81 48 -127.5t119 -46.5q59 0 98 26t52 73l78 -5q-17 -72 -77.5 -115t-148.5 -43q-71 0 -126.5 31t-86.5 88q-33 -57 -90.5 -88
t-129.5 -31q-73 0 -132 32zM155.5 149.5q23.5 -44.5 65 -68t93.5 -23.5t93.5 23.5t65.5 68t24 104.5t-24 104.5t-65.5 68t-93.5 23.5t-93.5 -23.5t-65 -68t-23.5 -104.5t23.5 -104.5zM901 286q0 76 -40.5 122t-116.5 46q-72 0 -117.5 -44t-48.5 -124h323z" />
    <glyph glyph-name="Racute" unicode="&#x154;" horiz-adv-x="683" 
d="M93 748h284q64 0 115.5 -25t81.5 -75t30 -121q0 -81 -37.5 -134t-101.5 -74l179 -319h-92l-171 305l-17 -1h-190v-304h-81v748zM367 377q67 0 110.5 38.5t43.5 111.5t-43.5 111t-110.5 38h-193v-299h193zM427 935h108l-186 -140h-74z" />
    <glyph glyph-name="racute" unicode="&#x155;" horiz-adv-x="335" 
d="M265 785h87l-131 -191h-62zM90 509h74v-77q15 35 54 59t97 24v-74q-67 0 -107.5 -41t-40.5 -103v-297h-77v509z" />
    <glyph glyph-name="uni0156" unicode="&#x156;" horiz-adv-x="683" 
d="M93 748h284q64 0 115.5 -25t81.5 -75t30 -121q0 -81 -37.5 -134t-101.5 -74l179 -319h-92l-171 305l-17 -1h-190v-304h-81v748zM367 377q67 0 110.5 38.5t43.5 111.5t-43.5 111t-110.5 38h-193v-299h193zM297 -251q50 38 56 103q-22 1 -37.5 16.5t-15.5 37.5t15 37.5
t37 15.5q24 0 37.5 -17t13.5 -45q0 -120 -106 -183v35z" />
    <glyph glyph-name="uni0157" unicode="&#x157;" horiz-adv-x="335" 
d="M90 509h74v-77q15 35 54 59t97 24v-74q-67 0 -107.5 -41t-40.5 -103v-297h-77v509zM74 -251q51 40 56 103q-22 1 -37 16.5t-15 37.5t15 37.5t37 15.5q24 0 37.5 -17t13.5 -45q0 -120 -107 -183v35z" />
    <glyph glyph-name="Rcaron" unicode="&#x158;" horiz-adv-x="683" 
d="M93 748h284q64 0 115.5 -25t81.5 -75t30 -121q0 -81 -37.5 -134t-101.5 -74l179 -319h-92l-171 305l-17 -1h-190v-304h-81v748zM225 936l88 -93l90 93h67l-119 -141h-73l-120 141h67zM367 377q67 0 110.5 38.5t43.5 111.5t-43.5 111t-110.5 38h-193v-299h193z" />
    <glyph glyph-name="rcaron" unicode="&#x159;" horiz-adv-x="335" 
d="M35 761h66l90 -115l91 115h66l-121 -168h-72zM90 509h74v-77q15 35 54 59t97 24v-74q-67 0 -107.5 -41t-40.5 -103v-297h-77v509z" />
    <glyph glyph-name="Sacute" unicode="&#x15a;" horiz-adv-x="655" 
d="M441 935h108l-187 -140h-73zM140 210q6 -68 61.5 -108t138.5 -40q81 0 130.5 34t49.5 103q0 45 -23 71t-63 40.5t-118 32.5q-82 20 -131 40t-79.5 59t-30.5 106q0 59 28 106t84.5 75t138.5 28q110 0 180 -54t75 -149l-82 -5q-5 64 -51 100.5t-120 36.5q-82 0 -126 -38
t-44 -97q0 -45 22 -71t59 -39.5t106 -29.5q91 -21 145 -43.5t83.5 -61.5t29.5 -102q0 -106 -74 -159.5t-189 -53.5q-120 0 -198 56.5t-85 157.5z" />
    <glyph glyph-name="sacute" unicode="&#x15b;" horiz-adv-x="498" 
d="M315 785h87l-131 -191h-62zM126 144q7 -45 39 -68t84 -23t82.5 22t30.5 64q0 28 -13 44t-39.5 26t-80.5 22q-63 15 -95.5 27t-53 38t-20.5 73q0 68 47 108t133 40q83 0 130.5 -39.5t56.5 -107.5l-77 -5q-5 42 -32 66t-74 24q-53 0 -80 -22t-27 -61q0 -25 12.5 -39.5
t33 -21.5t58.5 -15l21 -5q61 -15 98.5 -31t58 -43t20.5 -71q0 -75 -51 -115t-140 -40q-85 0 -137 38t-62 110z" />
    <glyph glyph-name="Scircumflex" unicode="&#x15c;" horiz-adv-x="655" 
d="M327 888l-88 -93h-67l120 141h72l119 -141h-66zM140 210q6 -68 61.5 -108t138.5 -40q81 0 130.5 34t49.5 103q0 45 -23 71t-63 40.5t-118 32.5q-82 20 -131 40t-79.5 59t-30.5 106q0 59 28 106t84.5 75t138.5 28q110 0 180 -54t75 -149l-82 -5q-5 64 -51 100.5t-120 36.5
q-82 0 -126 -38t-44 -97q0 -45 22 -71t59 -39.5t106 -29.5q91 -21 145 -43.5t83.5 -61.5t29.5 -102q0 -106 -74 -159.5t-189 -53.5q-120 0 -198 56.5t-85 157.5z" />
    <glyph glyph-name="scircumflex" unicode="&#x15d;" horiz-adv-x="498" 
d="M241 710l-90 -115h-66l120 169h73l120 -169h-66zM126 144q7 -45 39 -68t84 -23t82.5 22t30.5 64q0 28 -13 44t-39.5 26t-80.5 22q-63 15 -95.5 27t-53 38t-20.5 73q0 68 47 108t133 40q83 0 130.5 -39.5t56.5 -107.5l-77 -5q-5 42 -32 66t-74 24q-53 0 -80 -22t-27 -61
q0 -25 12.5 -39.5t33 -21.5t58.5 -15l21 -5q61 -15 98.5 -31t58 -43t20.5 -71q0 -75 -51 -115t-140 -40q-85 0 -137 38t-62 110z" />
    <glyph glyph-name="Scedilla" unicode="&#x15e;" horiz-adv-x="655" 
d="M534.5 48.5q-68.5 -53.5 -177.5 -57.5l-11 -52q52 -2 83 -26.5t31 -67.5q0 -45 -35.5 -69.5t-85.5 -24.5q-57 0 -99 24l14 42q33 -20 76 -20q30 0 51 13t21 38q0 28 -21 41.5t-59 13.5q-15 0 -27 -3l25 91q-112 5 -184 61.5t-79 152.5l83 5q6 -68 61.5 -108t138.5 -40
q81 0 130.5 34t49.5 103q0 45 -23 71t-63 40.5t-118 32.5q-82 20 -131 40t-79.5 59t-30.5 106q0 59 28 106t84.5 75t138.5 28q110 0 180 -54t75 -149l-82 -5q-5 64 -51 100.5t-120 36.5q-82 0 -126 -38t-44 -97q0 -45 22 -71t59 -39.5t106 -29.5q91 -21 145 -43.5
t83.5 -61.5t29.5 -102q0 -102 -68.5 -155.5z" />
    <glyph glyph-name="scedilla" unicode="&#x15f;" horiz-adv-x="498" 
d="M393 36q-46 -40 -126 -45l-12 -52q52 -2 83.5 -26.5t31.5 -67.5q0 -45 -35.5 -69.5t-85.5 -24.5q-57 0 -99 24l14 42q33 -20 75 -20q30 0 51 13t21 38q0 28 -21 41.5t-59 13.5q-15 0 -26 -3l24 91q-77 5 -124 43t-56 105l77 5q7 -45 39 -68t84 -23t82.5 22t30.5 64
q0 28 -13 44t-39.5 26t-80.5 22q-63 15 -95.5 27t-53 38t-20.5 73q0 68 47 108t133 40q83 0 130.5 -39.5t56.5 -107.5l-77 -5q-5 42 -32 66t-74 24q-53 0 -80 -22t-27 -61q0 -25 12.5 -39.5t33 -21.5t58.5 -15l21 -5q61 -15 98.5 -31t58 -43t20.5 -71q0 -70 -46 -110z" />
    <glyph glyph-name="Scaron" unicode="&#x160;" horiz-adv-x="655" 
d="M172 936h67l88 -93l90 93h66l-119 -141h-72zM140 210q6 -68 61.5 -108t138.5 -40q81 0 130.5 34t49.5 103q0 45 -23 71t-63 40.5t-118 32.5q-82 20 -131 40t-79.5 59t-30.5 106q0 59 28 106t84.5 75t138.5 28q110 0 180 -54t75 -149l-82 -5q-5 64 -51 100.5t-120 36.5
q-82 0 -126 -38t-44 -97q0 -45 22 -71t59 -39.5t106 -29.5q91 -21 145 -43.5t83.5 -61.5t29.5 -102q0 -106 -74 -159.5t-189 -53.5q-120 0 -198 56.5t-85 157.5z" />
    <glyph glyph-name="scaron" unicode="&#x161;" horiz-adv-x="498" 
d="M85 761h66l90 -115l91 115h66l-120 -168h-73zM126 144q7 -45 39 -68t84 -23t82.5 22t30.5 64q0 28 -13 44t-39.5 26t-80.5 22q-63 15 -95.5 27t-53 38t-20.5 73q0 68 47 108t133 40q83 0 130.5 -39.5t56.5 -107.5l-77 -5q-5 42 -32 66t-74 24q-53 0 -80 -22t-27 -61
q0 -25 12.5 -39.5t33 -21.5t58.5 -15l21 -5q61 -15 98.5 -31t58 -43t20.5 -71q0 -75 -51 -115t-140 -40q-85 0 -137 38t-62 110z" />
    <glyph glyph-name="Tcaron" unicode="&#x164;" horiz-adv-x="681" 
d="M186 936h67l89 -93l89 93h67l-119 -141h-73zM18 748h645v-72h-282v-676h-81v676h-282v72z" />
    <glyph glyph-name="tcaron" unicode="&#x165;" horiz-adv-x="501" 
d="M147.5 32.5q-40.5 38.5 -40.5 119.5l1 290h-95v67h95l1 177h78l-1 -177h140v-67h-140l-2 -274q0 -55 25 -79.5t67 -24.5q21 0 51 5v-70q-27 -5 -68 -5q-71 0 -111.5 38.5zM380 535q50 38 56 103q-22 1 -37 16.5t-15 37.5t15 37.5t37 15.5q24 0 37 -17t13 -45
q0 -121 -106 -183v35z" />
    <glyph glyph-name="Tbar" unicode="&#x166;" horiz-adv-x="681" 
d="M525 403v-64h-144v-339h-81v339h-144v64h144v273h-282v72h645v-72h-282v-273h144z" />
    <glyph glyph-name="tbar" unicode="&#x167;" horiz-adv-x="350" 
d="M147.5 32.5q-40.5 38.5 -40.5 119.5v90h-94v56h95v144h-95v67h95l1 177h78l-1 -177h140v-67h-140l-1 -144h141v-56h-140l-1 -79q0 -52 25 -75.5t66 -23.5q21 0 51 5v-70q-27 -5 -68 -5q-71 0 -111.5 38.5z" />
    <glyph glyph-name="Utilde" unicode="&#x168;" horiz-adv-x="763" 
d="M346.5 923.5q16.5 -8.5 37.5 -24.5q19 -15 32 -22t29 -7q23 0 36 15.5t14 39.5h45q2 -47 -22 -80.5t-65 -33.5q-22 0 -38 8.5t-40 25.5q-18 14 -31 21t-28 7q-24 0 -37 -15.5t-13 -39.5h-45q-3 47 21 80.5t66 33.5q22 0 38.5 -8.5zM86 748h81v-469q0 -106 56.5 -161
t157.5 -55q100 0 156.5 55.5t56.5 160.5v469h82v-471q0 -138 -79 -212t-216 -74t-216 74t-79 212v471z" />
    <glyph glyph-name="utilde" unicode="&#x169;" horiz-adv-x="589" 
d="M262.5 723q17.5 -9 37.5 -25q20 -14 32.5 -21t27.5 -7q24 0 36.5 15t13.5 40h46q2 -46 -22.5 -79.5t-65.5 -33.5q-22 0 -39 8.5t-38 24.5q-18 14 -31 21t-28 7q-24 0 -37.5 -15t-13.5 -39h-45q-2 47 22 80t65 33q22 0 39.5 -9zM86 509h76v-304q0 -65 33.5 -103.5
t92.5 -38.5q61 0 97.5 42t36.5 102v302h77v-509h-72v78q-18 -36 -57 -61.5t-98 -25.5q-85 0 -135.5 54.5t-50.5 145.5v318z" />
    <glyph glyph-name="Umacron" unicode="&#x16a;" horiz-adv-x="763" 
d="M251 897h258v-60h-258v60zM86 748h81v-469q0 -106 56.5 -161t157.5 -55q100 0 156.5 55.5t56.5 160.5v469h82v-471q0 -138 -79 -212t-216 -74t-216 74t-79 212v471z" />
    <glyph glyph-name="umacron" unicode="&#x16b;" horiz-adv-x="589" 
d="M168 697h258v-60h-258v60zM86 509h76v-304q0 -65 33.5 -103.5t92.5 -38.5q61 0 97.5 42t36.5 102v302h77v-509h-72v78q-18 -36 -57 -61.5t-98 -25.5q-85 0 -135.5 54.5t-50.5 145.5v318z" />
    <glyph glyph-name="Ubreve" unicode="&#x16c;" horiz-adv-x="763" 
d="M490.5 839.5q-41.5 -33.5 -110.5 -33.5q-70 0 -111.5 33.5t-41.5 94.5h64q0 -34 24 -54t65 -20q40 0 64 20t24 54h64q0 -61 -41.5 -94.5zM86 748h81v-469q0 -106 56.5 -161t157.5 -55q100 0 156.5 55.5t56.5 160.5v469h82v-471q0 -138 -79 -212t-216 -74t-216 74t-79 212
v471z" />
    <glyph glyph-name="ubreve" unicode="&#x16d;" horiz-adv-x="589" 
d="M407.5 632.5q-41.5 -33.5 -110.5 -33.5q-70 0 -111.5 33.5t-41.5 94.5h64q0 -34 24 -53.5t65 -19.5t64.5 19.5t23.5 53.5h64q0 -61 -41.5 -94.5zM86 509h76v-304q0 -65 33.5 -103.5t92.5 -38.5q61 0 97.5 42t36.5 102v302h77v-509h-72v78q-18 -36 -57 -61.5t-98 -25.5
q-85 0 -135.5 54.5t-50.5 145.5v318z" />
    <glyph glyph-name="Uring" unicode="&#x16e;" horiz-adv-x="763" 
d="M451 958.5q29 -27.5 29 -69.5q0 -41 -29 -68.5t-71 -27.5q-44 0 -73 27t-29 69t29 69.5t73 27.5q42 0 71 -27.5zM86 748h81v-469q0 -106 56.5 -161t157.5 -55q100 0 156.5 55.5t56.5 160.5v469h82v-471q0 -138 -79 -212t-216 -74t-216 74t-79 212v471zM339 850
q16 -15 41 -15q24 0 39.5 15t15.5 39q0 25 -15.5 40t-39.5 15q-25 0 -41 -15t-16 -40q0 -24 16 -39z" />
    <glyph glyph-name="uring" unicode="&#x16f;" horiz-adv-x="589" 
d="M376 765q32 -30 32 -75t-32 -74.5t-78 -29.5q-48 0 -80 29.5t-32 74.5q0 46 32 75.5t80 29.5q46 0 78 -30zM86 509h76v-304q0 -65 33.5 -103.5t92.5 -38.5q61 0 97.5 42t36.5 102v302h77v-509h-72v78q-18 -36 -57 -61.5t-98 -25.5q-85 0 -135.5 54.5t-50.5 145.5v318z
M252 648q17 -16 45 -16q26 0 43.5 16.5t17.5 41.5t-17.5 41.5t-43.5 16.5q-28 0 -45 -16t-17 -42t17 -42z" />
    <glyph glyph-name="Uhungarumlaut" unicode="&#x170;" horiz-adv-x="763" 
d="M321 943h74l-72 -145h-62zM86 748h81v-469q0 -106 56.5 -161t157.5 -55q100 0 156.5 55.5t56.5 160.5v469h82v-471q0 -138 -79 -212t-216 -74t-216 74t-79 212v471zM486 943h74l-72 -145h-62z" />
    <glyph glyph-name="uhungarumlaut" unicode="&#x171;" horiz-adv-x="589" 
d="M242 760h73l-74 -154h-62zM86 509h76v-304q0 -65 33.5 -103.5t92.5 -38.5q61 0 97.5 42t36.5 102v302h77v-509h-72v78q-18 -36 -57 -61.5t-98 -25.5q-85 0 -135.5 54.5t-50.5 145.5v318zM408 760h73l-74 -154h-62z" />
    <glyph glyph-name="Uogonek" unicode="&#x172;" horiz-adv-x="763" 
d="M345.5 -164.5q-29.5 21.5 -29.5 60.5q0 30 16.5 52.5t48.5 42.5h-11q-132 3 -208 77t-76 209v471h81v-469q0 -106 56.5 -161t157.5 -55q100 0 156.5 55.5t56.5 160.5v469h82v-471q0 -113 -54.5 -184t-152.5 -93q-48 -24 -71 -45.5t-23 -50.5q0 -23 15.5 -35t41.5 -12
q33 0 58 12l8 -41q-38 -14 -76 -14q-47 0 -76.5 21.5z" />
    <glyph glyph-name="uogonek" unicode="&#x173;" horiz-adv-x="589" 
d="M358.5 -165.5q-29.5 21.5 -29.5 60.5q0 36 25 63t73 50v70q-18 -36 -57 -61.5t-98 -25.5q-85 0 -135.5 54.5t-50.5 145.5v318h76v-304q0 -65 33.5 -103.5t92.5 -38.5q61 0 97.5 42t36.5 102v302h77v-509h-15q-49 -24 -72.5 -45.5t-23.5 -51.5q0 -23 15.5 -35t41.5 -12
q33 0 58 12l8 -41q-38 -14 -76 -14q-47 0 -76.5 21.5z" />
    <glyph glyph-name="Wcircumflex" unicode="&#x174;" horiz-adv-x="1117" 
d="M558 888l-88 -93h-67l120 141h73l119 -141h-67zM111 748l208 -610l206 610h67l208 -610l208 610h87l-261 -748h-68l-208 601l-206 -601h-69l-262 748h90z" />
    <glyph glyph-name="wcircumflex" unicode="&#x175;" horiz-adv-x="815" 
d="M408 710l-90 -115h-66l120 169h73l120 -169h-66zM96 509l142 -390l142 390h55l144 -390l141 390h84l-192 -509h-62l-141 379l-143 -379h-61l-194 509h85z" />
    <glyph glyph-name="Ycircumflex" unicode="&#x176;" horiz-adv-x="684" 
d="M342 888l-88 -93h-67l120 141h73l119 -141h-67zM113 748l229 -354l230 354h94l-283 -434v-314h-82v314l-283 434h95z" />
    <glyph glyph-name="ycircumflex" unicode="&#x177;" horiz-adv-x="524" 
d="M262 710l-90 -115h-66l120 169h73l121 -169h-66zM103 509l160 -397l159 397h85l-321 -764h-85l119 280l-202 484h85z" />
    <glyph glyph-name="Ydieresis" unicode="&#x178;" horiz-adv-x="684" 
d="M305.5 900q14.5 -14 14.5 -33q0 -20 -14.5 -33.5t-34.5 -13.5t-33.5 13.5t-13.5 33.5t14 33.5t33 13.5q20 0 34.5 -14zM113 748l229 -354l230 354h94l-283 -434v-314h-82v314l-283 434h95zM381 900.5q14 13.5 34 13.5t33.5 -13.5t13.5 -33.5t-13.5 -33.5t-33.5 -13.5
t-34 13.5t-14 33.5t14 33.5z" />
    <glyph glyph-name="Zacute" unicode="&#x179;" horiz-adv-x="617" 
d="M423 935h107l-186 -140h-73zM37 62l433 614h-418v72h523v-62l-433 -613h440v-73h-545v62z" />
    <glyph glyph-name="zacute" unicode="&#x17a;" horiz-adv-x="447" 
d="M299 785h87l-131 -191h-62zM32 52l281 394h-274v63h364v-51l-279 -395h292v-63h-384v52z" />
    <glyph glyph-name="Zdotaccent" unicode="&#x17b;" horiz-adv-x="617" 
d="M347 901.5q15 -15.5 15 -37.5t-15 -38t-37 -16t-38.5 16t-16.5 38t16 37.5t39 15.5q22 0 37 -15.5zM37 62l433 614h-418v72h523v-62l-433 -613h440v-73h-545v62z" />
    <glyph glyph-name="zdotaccent" unicode="&#x17c;" horiz-adv-x="447" 
d="M264.5 718q15.5 -16 15.5 -38t-15.5 -37.5t-37.5 -15.5t-38 15.5t-16 37.5t16 38t38 16t37.5 -16zM32 52l281 394h-274v63h364v-51l-279 -395h292v-63h-384v52z" />
    <glyph glyph-name="Zcaron" unicode="&#x17d;" horiz-adv-x="617" 
d="M152 936h67l89 -93l89 93h67l-119 -141h-73zM37 62l433 614h-418v72h523v-62l-433 -613h440v-73h-545v62z" />
    <glyph glyph-name="zcaron" unicode="&#x17e;" horiz-adv-x="447" 
d="M69 761h66l90 -115l92 115h66l-121 -168h-73zM32 52l281 394h-274v63h364v-51l-279 -395h292v-63h-384v52z" />
    <glyph glyph-name="florin" unicode="&#x192;" horiz-adv-x="430" 
d="M466 741l-33 -63q-35 39 -90 39q-39 0 -62.5 -22.5t-31.5 -72.5l-20 -113h155v-66h-167l-103 -585h-79l104 585h-111v66h122l22 127q27 149 162 149q79 0 132 -44z" />
    <glyph glyph-name="Aringacute" unicode="&#x1fa;" horiz-adv-x="726" 
d="M296 799q-29 27 -29 69q0 26 12 47.5t33 33.5l135 112h100l-150 -102q32 -8 52 -32.5t20 -58.5q0 -42 -29 -69t-72 -27t-72 27zM328 748h70l312 -748h-90l-82 201h-349l-83 -201h-89zM509 267l-145 355l-147 -355h292zM331.5 832.5q14.5 -13.5 36.5 -13.5q21 0 35.5 14
t14.5 36q0 21 -14 34.5t-36 13.5t-36.5 -13.5t-14.5 -36.5q0 -21 14.5 -34.5z" />
    <glyph glyph-name="aringacute" unicode="&#x1fb;" horiz-adv-x="540" 
d="M199 611q-29 27 -29 69q0 27 12.5 48.5t34.5 33.5l134 109h100l-151 -100q32 -8 52 -32.5t20 -58.5q0 -42 -29 -69t-72 -27t-72 27zM247 282l130 7v35q0 61 -28 93.5t-84 32.5t-87 -33t-31 -79l-78 2q0 45 23.5 86t68 66.5t103.5 25.5q92 0 141.5 -51t49.5 -145v-322h-76
v70q-26 -38 -67.5 -58.5t-93.5 -20.5q-75 0 -119 36.5t-44 104.5q0 140 192 150zM233 54q62 0 103.5 37.5t41.5 116.5v24l-124 -7q-59 -4 -90.5 -24.5t-31.5 -64.5q0 -82 101 -82zM235 644.5q15 -13.5 38 -13.5q21 0 35 14t14 35q0 22 -15 36t-38 14q-21 0 -35 -13.5
t-14 -36.5q0 -22 15 -35.5z" />
    <glyph glyph-name="AEacute" unicode="&#x1fc;" horiz-adv-x="1014" 
d="M767 935h108l-186 -140h-74zM304 267l-114 -189h-18zM304 267l3 5l-3 -5h213v10h-207l276 396h341v-64h-279v-264h210v-23h-327l-2 -45h-12v341l-231 -351h18zM310 277l-3 -5zM806 44l85 81h-292v152h-70l-12 -233h289z" />
    <glyph glyph-name="aeacute" unicode="&#x1fd;" horiz-adv-x="913" 
d="M514 785h87l-131 -191h-62zM247 282l130 7v23q0 66 -28 103t-84 37t-87 -34t-31 -80l-78 2q0 45 23.5 86t67.5 66.5t103 25.5q119 0 164 -100q31 48 83 74t116 26q109 0 171.5 -68t62.5 -182v-39h-401q2 -81 48.5 -127.5t118.5 -46.5q60 0 98.5 26t52.5 73l78 -5
q-17 -72 -78 -115t-148 -43q-70 0 -125 29.5t-86 84.5q-29 -55 -79.5 -84.5t-115.5 -29.5q-77 0 -122.5 37t-45.5 105q0 139 192 149zM159 74q27 -20 74 -20q62 0 103.5 37t41.5 117v25l-124 -7q-59 -5 -90.5 -25.5t-31.5 -64.5q0 -42 27 -62zM782 286q0 76 -40.5 122
t-116.5 46q-71 0 -117 -44t-49 -124h323z" />
    <glyph glyph-name="Oslashacute" unicode="&#x1fe;" horiz-adv-x="844" 
d="M536 935h108l-187 -140h-73zM106.5 577.5q49.5 86.5 135 133t191.5 46.5q113 0 201 -53l59 79l51 -38l-59 -77q57 -51 89 -126t32 -168q0 -117 -49 -203.5t-134 -133t-190 -46.5q-125 0 -217 63l-67 -87l-51 38l67 88q-52 51 -80 122.5t-28 158.5q0 117 49.5 203.5z
M216 158l371 485q-68 42 -154 42q-83 0 -149.5 -37.5t-104.5 -107.5t-38 -166q0 -133 75 -216zM433 63q82 0 148 37.5t104 108t38 165.5q0 73 -23 131t-65 99l-372 -488q70 -53 170 -53z" />
    <glyph glyph-name="oslashacute" unicode="&#x1ff;" horiz-adv-x="630" 
d="M388 785h87l-131 -191h-62zM89 393q34 60 93 92.5t132 32.5q78 0 140 -37l40 53l44 -33l-40 -52q37 -35 57 -84.5t20 -110.5q0 -79 -34 -139t-93.5 -92t-133.5 -32q-77 0 -136 35l-45 -58l-43 33l44 57q-38 35 -58.5 85t-20.5 111q0 79 34 139zM144.5 178.5
q12.5 -34.5 35.5 -58.5l230 303q-40 27 -96 27q-52 0 -93.5 -23.5t-65 -68t-23.5 -104.5q0 -41 12.5 -75.5zM314 58q52 0 93.5 23.5t65.5 68t24 104.5q0 79 -46 132l-230 -303q42 -25 93 -25z" />
    <glyph glyph-name="uni0218" unicode="&#x218;" horiz-adv-x="655" 
d="M490 367.5q54 -22.5 83.5 -61.5t29.5 -102q0 -106 -74 -159.5t-189 -53.5q-120 0 -198 56.5t-85 157.5l83 5q6 -68 61.5 -108t138.5 -40q81 0 130.5 34t49.5 103q0 45 -23 71t-63 40.5t-118 32.5q-82 20 -131 40t-79.5 59t-30.5 106q0 59 28 106t84.5 75t138.5 28
q110 0 180 -54t75 -149l-82 -5q-5 64 -51 100.5t-120 36.5q-82 0 -126 -38t-44 -97q0 -45 22 -71t59 -39.5t106 -29.5q91 -21 145 -43.5zM282 -256q50 38 56 103q-22 1 -37.5 16.5t-15.5 37.5t15 37.5t38 15.5q24 0 37 -17t13 -45q0 -120 -106 -183v35z" />
    <glyph glyph-name="uni0219" unicode="&#x219;" horiz-adv-x="498" 
d="M111 29q-52 38 -62 110l77 5q7 -45 39 -68t84 -23t82.5 22t30.5 64q0 28 -13 44t-39.5 26t-80.5 22q-63 15 -95.5 27t-53 38t-20.5 73q0 68 47 108t133 40q83 0 130.5 -39.5t56.5 -107.5l-77 -5q-5 42 -32 66t-74 24q-53 0 -80 -22t-27 -61q0 -25 12.5 -39.5t33 -21.5
t58.5 -15l21 -5q61 -15 98.5 -31t58 -43t20.5 -71q0 -75 -51 -115t-140 -40q-85 0 -137 38zM192 -256q50 39 55 103q-22 1 -37 16.5t-15 37.5t15 37.5t37 15.5q24 0 37.5 -17t13.5 -45q0 -120 -106 -183v35z" />
    <glyph glyph-name="uni021A" unicode="&#x21a;" horiz-adv-x="681" 
d="M381 676v-676h-81v676h-282v72h645v-72h-282zM286 -251q50 39 55 103q-22 1 -37 16.5t-15 37.5t15 37.5t37 15.5q24 0 37.5 -16.5t13.5 -45.5q0 -120 -106 -183v35z" />
    <glyph glyph-name="uni021B" unicode="&#x21b;" horiz-adv-x="350" 
d="M147.5 32.5q-40.5 38.5 -40.5 119.5l1 290h-95v67h95l1 177h78l-1 -177h140v-67h-140l-2 -274q0 -55 25 -79.5t67 -24.5q21 0 51 5v-70q-27 -5 -68 -5q-71 0 -111.5 38.5zM153 -259q50 38 56 103q-22 1 -37.5 16.5t-15.5 37.5t15.5 37.5t37.5 15.5q24 0 37 -17t13 -45
q0 -120 -106 -183v35z" />
    <glyph glyph-name="uni0237" unicode="&#x237;" 
d="M125.5 -216q-42.5 -45 -116.5 -45q-43 0 -77 18l29 64q3 -1 13.5 -7.5t26.5 -6.5q43 0 66.5 27t23.5 83v592h77v-589q0 -91 -42.5 -136z" />
    <glyph glyph-name="circumflex" unicode="&#x2c6;" horiz-adv-x="348" 
d="M174 710l-90 -115h-67l120 169h73l121 -169h-66z" />
    <glyph glyph-name="caron" unicode="&#x2c7;" horiz-adv-x="348" 
d="M17 761h67l90 -115l91 115h66l-121 -168h-73z" />
    <glyph glyph-name="breve" unicode="&#x2d8;" horiz-adv-x="348" 
d="M283.5 632.5q-41.5 -33.5 -110.5 -33.5q-70 0 -111 33.5t-41 94.5h64q0 -34 23.5 -53.5t64.5 -19.5t64.5 19.5t23.5 53.5h64q0 -61 -41.5 -94.5z" />
    <glyph glyph-name="dotaccent" unicode="&#x2d9;" horiz-adv-x="148" 
d="M112.5 718q15.5 -16 15.5 -38t-15.5 -37.5t-37.5 -15.5t-38 15.5t-16 37.5t16 38t38 16t37.5 -16z" />
    <glyph glyph-name="ring" unicode="&#x2da;" horiz-adv-x="263" 
d="M211 765q32 -30 32 -75t-32 -74.5t-78 -29.5q-48 0 -80 29.5t-32 74.5t32 75t80 30q46 0 78 -30zM87 648q17 -16 45 -16q26 0 43.5 16.5t17.5 41.5t-17.5 41.5t-43.5 16.5q-28 0 -45 -16t-17 -42t17 -42z" />
    <glyph glyph-name="ogonek" unicode="&#x2db;" horiz-adv-x="231" 
d="M111.5 -42.5q-23.5 -21.5 -23.5 -51.5q0 -23 16 -35t42 -12q31 0 58 12l7 -41q-37 -14 -75 -14q-47 0 -76.5 21.5t-29.5 60.5q0 44 36.5 74.5t106.5 55.5l12 -25q-50 -24 -73.5 -45.5z" />
    <glyph glyph-name="tilde" unicode="&#x2dc;" horiz-adv-x="357" 
d="M144 723.5q16 -8.5 40 -25.5q18 -14 31 -21t28 -7q24 0 37 15.5t14 39.5h45q2 -46 -22 -79.5t-65 -33.5q-22 0 -38.5 8.5t-39.5 24.5q-16 14 -29.5 21t-29.5 7q-24 0 -37 -15t-13 -39h-46q-2 47 22 80t65 33q22 0 38 -8.5z" />
    <glyph glyph-name="hungarumlaut" unicode="&#x2dd;" horiz-adv-x="337" 
d="M82 760h73l-74 -154h-62zM247 760h74l-75 -154h-62z" />
    <glyph glyph-name="uni0326" unicode="&#x326;" horiz-adv-x="0" 
d="M99 -148q-22 1 -37 16.5t-15 37.5t15 37.5t37 15.5q24 0 37 -17t13 -45q0 -121 -106 -183v34q49 38 56 104z" />
    <glyph glyph-name="uni03A9" unicode="&#x3a9;" horiz-adv-x="781" 
d="M564 673q73 -45 111 -123t38 -176q0 -97 -44.5 -180t-99.5 -133h189v-61h-275v55q39 27 77 76t63 112t25 128q0 83 -30.5 148t-88.5 102t-138 37q-81 0 -139 -37t-88.5 -102t-30.5 -148q0 -65 25 -128t63 -112t77 -76v-55h-275v61h190q-56 50 -100.5 133t-44.5 180
q0 98 38 176t111 123t174 45q100 0 173 -45z" />
    <glyph glyph-name="uni03BC" unicode="&#x3bc;" horiz-adv-x="593" 
d="M90 509h77v-304q0 -65 33.5 -103.5t92.5 -38.5q61 0 97.5 42t36.5 102v302h77v-509h-72v78q-18 -35 -57.5 -61t-97.5 -26q-68 0 -110 42v-288h-77v764z" />
    <glyph glyph-name="pi" unicode="&#x3c0;" horiz-adv-x="651" 
d="M364 88q0 16 1 24l34 277h-129l-28 -223q-8 -55 -19.5 -92.5t-28.5 -73.5h-74q23 46 36 85t22 95l25 209h-39q-52 0 -97 -43l-35 52q29 28 62 43.5t84 15.5h269q45 0 70.5 16.5t43.5 49.5l60 -35q-20 -46 -51.5 -72.5t-83.5 -26.5h-26l-32 -274q-2 -12 -2 -18
q0 -39 42 -39q27 0 55 23l35 -47q-23 -21 -46.5 -31t-54.5 -10q-93 0 -93 95z" />
    <glyph glyph-name="uni10D0" unicode="&#x10d0;" horiz-adv-x="599" 
d="M350.5 663q12.5 -38 31 -68t51.5 -74q35 -47 56.5 -81.5t36.5 -81t15 -104.5q0 -82 -32 -141.5t-88.5 -90.5t-127.5 -31q-69 0 -125 31t-88 90t-32 140q0 63 16 118l79 -3q-13 -52 -13 -109q0 -93 45.5 -143.5t117.5 -50.5q75 0 119.5 47.5t45.5 142.5q0 66 -24.5 115.5
t-72.5 113.5q-35 48 -56 82t-34.5 80t-12.5 102h80q0 -46 12.5 -84z" />
    <glyph glyph-name="uni10D1" unicode="&#x10d1;" horiz-adv-x="616" 
d="M175 21q-59 30 -93 85t-34 128q0 69 30 122t82.5 84.5t119.5 37.5v81q0 24 -10 38.5t-32 33.5q-28 25 -42 49t-11 68h81q-1 -29 10 -46t34 -38q25 -22 38 -42.5t13 -55.5v-91q92 -16 149.5 -80.5t57.5 -160.5q0 -73 -34 -128t-93.5 -85t-132.5 -30q-74 0 -133 30z
M180.5 108.5q49.5 -46.5 127.5 -46.5q50 0 90 21t63 60t23 91q0 79 -50 125.5t-126 46.5q-78 0 -127.5 -46.5t-49.5 -125.5t49.5 -125.5z" />
    <glyph glyph-name="uni10D2" unicode="&#x10d2;" horiz-adv-x="625" 
d="M180 21q-59 30 -93 85t-34 128q0 70 31 123.5t86 84.5t125 37q63 5 90.5 32.5t27.5 77.5q0 42 -28.5 69.5t-78.5 27.5q-51 0 -81.5 -26t-32.5 -71l-82 4q3 45 27.5 82.5t68 59.5t99.5 22q57 0 100 -22t66.5 -58.5t23.5 -78.5q0 -99 -81 -136q71 -24 114.5 -84t43.5 -144
q0 -73 -34 -128t-93 -85t-132 -30q-74 0 -133 30zM185.5 108.5q49.5 -46.5 126.5 -46.5q50 0 90 21t63.5 60t23.5 91q0 53 -23.5 92t-63.5 59.5t-90 20.5q-77 0 -126.5 -46.5t-49.5 -125.5t49.5 -125.5z" />
    <glyph glyph-name="uni10D3" unicode="&#x10d3;" horiz-adv-x="898" 
d="M370 130h-226v65h91q-78 35 -128 116t-50 186q0 86 28 144.5t75.5 87t104.5 28.5q62 0 110 -32t65 -87q20 55 70.5 87t115.5 32t117 -29t81.5 -82.5t29.5 -124.5q0 -68 -30 -120.5t-82 -81.5t-118 -29q-65 0 -117.5 28.5t-82 80.5t-29.5 121v20q0 72 -35 109t-89 37
q-58 0 -94 -45.5t-36 -139.5q0 -129 69.5 -209.5t195.5 -91.5l27 -2q108 -10 168.5 -60t69.5 -138h-82q-22 130 -219 130zM517 405q41 -45 107 -45q65 0 106.5 44.5t41.5 118.5q0 73 -41 118t-107 45q-65 0 -106.5 -45t-41.5 -118t41 -118z" />
    <glyph glyph-name="uni10D4" unicode="&#x10d4;" horiz-adv-x="623" 
d="M170 20q-56 29 -86.5 80t-30.5 117q0 41 13 83l78 -3q-10 -44 -10 -70q0 -75 46 -119.5t120 -44.5t118.5 45t44.5 126v290q-1 79 -45 120t-111 41q-71 0 -111.5 -38.5t-40.5 -108.5q0 -25 4 -48l-81 -2q-6 29 -6 59q0 62 31 109.5t84.5 74t119.5 26.5t120 -27.5
t85.5 -79.5t31.5 -121v-297q0 -73 -30 -127.5t-85.5 -84t-129.5 -29.5q-73 0 -129 29z" />
    <glyph glyph-name="uni10D5" unicode="&#x10d5;" horiz-adv-x="622" 
d="M436.5 731.5q54.5 -25.5 85.5 -72t31 -108.5q0 -59 -30.5 -99t-84.5 -56q53 -13 89.5 -64.5t36.5 -120.5q0 -64 -31 -114t-88.5 -78t-133.5 -28q-79 0 -137.5 30t-89.5 82.5t-31 119.5q0 32 7 64l80 -5q-6 -25 -6 -50q0 -78 48 -124.5t128 -46.5q78 0 125.5 42t47.5 115
q0 68 -43 106.5t-123 38.5h-34v69h44q71 0 108 32.5t37 91.5q0 60 -43 95.5t-115 35.5q-74 0 -117 -39t-43 -109q0 -11 2 -33l-81 -3q-3 18 -3 40q0 65 31.5 113.5t86.5 74.5t124 26q68 0 122.5 -25.5z" />
    <glyph glyph-name="uni10D6" unicode="&#x10d6;" horiz-adv-x="641" 
d="M199.5 21q-59.5 30 -93.5 85t-34 128q0 115 92 179q-63 14 -100 58t-37 106q0 53 26 94t72 63.5t103 22.5t103.5 -22t73.5 -61t27 -89q0 -37 -12.5 -65t-41.5 -53q62 -6 110.5 -36.5t76 -81.5t27.5 -115q0 -73 -34 -128t-93 -85t-132 -30q-74 0 -133.5 30zM143 496
q36 -31 86 -31q51 0 86.5 31t35.5 79q0 49 -34.5 81t-87.5 32q-52 0 -87 -32t-35 -80q0 -49 36 -80zM204.5 108.5q49.5 -46.5 127.5 -46.5q50 0 90 21t63.5 60t23.5 91q0 53 -23.5 92t-63.5 59.5t-90 20.5q-78 0 -127.5 -46.5t-49.5 -125.5t49.5 -125.5z" />
    <glyph glyph-name="uni10D7" unicode="&#x10d7;" horiz-adv-x="947" 
d="M185 21.5q-53 30.5 -83 91.5t-30 149v225q0 88 30 149t82.5 91.5t119.5 30.5q145 0 194 -125q20 66 68.5 95.5t105.5 29.5q55 0 100.5 -26.5t73.5 -83t28 -142.5v-122q0 -117 -15.5 -205t-46.5 -179h-80q32 92 46.5 184.5t14.5 201.5v117q0 95 -36.5 138.5t-90.5 43.5
q-57 0 -92 -43t-35 -139v-242q0 -87 -31 -148t-84 -91.5t-119 -30.5q-67 0 -120 30.5zM193.5 114q40.5 -51 111.5 -51q70 0 111 51t41 153v215q0 101 -41 152t-111 51q-71 0 -111.5 -50.5t-40.5 -152.5v-215q0 -102 40.5 -153z" />
    <glyph glyph-name="uni10D8" unicode="&#x10d8;" horiz-adv-x="630" 
d="M87.5 178q-15.5 87 -15.5 197v112q0 87 32.5 148.5t87.5 92t123 30.5q67 0 122 -31t87.5 -92t32.5 -148v-112q0 -109 -15 -197t-46 -178h-80q31 92 45.5 181.5t14.5 194.5v104q0 101 -45 153t-116 52q-73 0 -117.5 -52t-44.5 -153v-104q0 -102 15 -193.5t46 -182.5h-80
q-31 91 -46.5 178z" />
    <glyph glyph-name="uni10D9" unicode="&#x10d9;" horiz-adv-x="602" 
d="M158 21q-58 30 -89 82.5t-31 119.5q0 32 7 64l81 -5q-6 -20 -6 -50q0 -78 47 -124.5t125 -46.5q77 0 124 43.5t47 116.5q0 71 -42 110t-119 39h-38v71h48q69 0 104.5 30.5t35.5 84.5q0 56 -38.5 89.5t-103.5 37.5l5 69q64 -2 113.5 -26.5t77 -68t27.5 -100.5
q0 -58 -31 -98t-83 -56q52 -12 88.5 -65t36.5 -126q0 -65 -31 -115t-88 -78t-132 -28q-77 0 -135 30z" />
    <glyph glyph-name="uni10DA" unicode="&#x10da;" horiz-adv-x="1163" 
d="M681 103.5q-68 33.5 -195 33.5h-323v66h92q-90 34 -144 114.5t-54 193.5q0 81 29.5 137t78 83t104.5 27q50 0 93 -24.5t65 -86.5q20 60 64.5 85.5t95.5 25.5q50 0 95.5 -26t65.5 -85q21 60 63.5 85.5t96.5 25.5q56 0 103 -28t75 -87t28 -147q0 -90 -33 -195l-81 4
q32 93 32 191q0 96 -35.5 142.5t-90.5 46.5q-51 0 -85 -37.5t-34 -115.5v-153h-81v164q0 73 -34 107.5t-85 34.5q-52 0 -85.5 -34t-33.5 -108v-164h-81v153q0 78 -34 115.5t-83 37.5q-54 0 -91.5 -44.5t-37.5 -132.5q0 -138 82.5 -214.5t221.5 -81.5l96 -3
q137 -5 214.5 -59.5t86.5 -149.5h-83q-10 70 -78 103.5z" />
    <glyph glyph-name="uni10DB" unicode="&#x10db;" horiz-adv-x="641" 
d="M176 21.5q-57 30.5 -88 85.5t-31 127t30.5 128t86 87t127.5 31q61 0 109 -23.5t72 -61.5l-1 140q-1 73 -48.5 113t-124.5 40q-48 0 -86 -17.5t-58.5 -47t-20.5 -63.5l-84 3q0 55 33 99.5t89.5 70t126.5 25.5q72 0 130 -28t91 -78t33 -115v-302q0 -72 -31 -127.5
t-88.5 -86t-134.5 -30.5q-75 0 -132 30.5zM188 109q47 -47 121 -47q51 0 90 20.5t60.5 56.5t21.5 81v28q0 75 -47 118t-125 43q-76 0 -122 -47t-46 -127q0 -79 47 -126z" />
    <glyph glyph-name="uni10DC" unicode="&#x10dc;" horiz-adv-x="641" 
d="M198 21.5q-58 30.5 -89 86t-31 127.5v330q0 86 59 134.5t157 48.5h243v-73h-242q-64 0 -99.5 -29.5t-35.5 -89.5l-1 -161q24 38 71.5 61.5t108.5 23.5q72 0 127.5 -31t86 -87t30.5 -128t-30.5 -127t-87.5 -85.5t-133 -30.5t-134 30.5zM207 106.5q47 -44.5 124 -44.5
q74 0 121.5 47t47.5 126q0 80 -46.5 127t-122.5 47q-77 0 -124 -43t-47 -118v-27q0 -70 47 -114.5z" />
    <glyph glyph-name="uni10DD" unicode="&#x10dd;" horiz-adv-x="897" 
d="M87.5 179q-15.5 88 -15.5 205v122q0 86 28.5 142.5t74.5 83t101 26.5q58 0 104 -28t68 -95q23 67 69.5 95t104.5 28q55 0 100.5 -26.5t73.5 -83t28 -142.5v-122q0 -117 -15.5 -205t-46.5 -179h-81q32 93 47 185.5t15 200.5v117q0 95 -36.5 138.5t-90.5 43.5
q-57 0 -92 -43t-35 -139v-274h-82v274q0 96 -35 139t-92 43q-54 0 -90.5 -43.5t-36.5 -138.5v-117q0 -109 14.5 -201.5t46.5 -184.5h-80q-31 91 -46.5 179z" />
    <glyph glyph-name="uni10DE" unicode="&#x10de;" horiz-adv-x="601" 
d="M158.5 18.5q-57.5 28.5 -89 78t-31.5 112.5q0 31 7 60l79 -4q-4 -32 -4 -45q0 -73 47 -116.5t123 -43.5q77 0 124 39.5t47 107.5q0 64 -42.5 100.5t-121.5 36.5h-37v69h47q70 0 101 21.5t31 64.5q0 36 -22.5 60t-69.5 52q-46 27 -72 59t-25 78h81q0 -27 18 -44t59 -44
q36 -25 58 -43t38.5 -47.5t16.5 -69.5q0 -45 -28 -77.5t-78 -45.5q53 -13 90.5 -61t37.5 -115q0 -61 -31 -109t-88.5 -75t-132.5 -27t-132.5 28.5z" />
    <glyph glyph-name="uni10DF" unicode="&#x10df;" horiz-adv-x="640" 
d="M168 18q-57 28 -88.5 77.5t-31.5 111.5q0 31 7 62l79 -4q-4 -21 -4 -45q0 -73 47 -116.5t123 -43.5q79 0 125 43t46 126v455l-252 -48q22 -4 44.5 -20t37.5 -43.5t15 -61.5q0 -64 -44.5 -99.5t-113.5 -35.5q-56 0 -102 22l19 60q14 -7 35 -11.5t41 -4.5q38 0 63 19t25 59
q0 41 -29.5 65t-68.5 24q-20 0 -36 -4l-3 74l367 69h84v-527q0 -107 -68.5 -169t-184.5 -62q-75 0 -132 28z" />
    <glyph glyph-name="uni10E0" unicode="&#x10e0;" horiz-adv-x="860" 
d="M709.5 451q46.5 -27 74 -82.5t27.5 -136.5q0 -64 -13.5 -118t-39.5 -114h-81q27 61 39.5 116t12.5 115q0 86 -36 130.5t-94 44.5q-57 0 -90.5 -36t-33.5 -113v-140h-81v140q0 78 -34 113.5t-89 35.5q-60 0 -96.5 -44t-36.5 -131q0 -59 12.5 -112.5t40.5 -118.5h-81
q-28 68 -40.5 130t-12.5 156q0 132 46 207.5t108.5 108t157.5 59.5q71 20 105 37t45 50h82q-6 -46 -35.5 -75t-70 -45t-109.5 -36q-73 -21 -120 -40t-85 -54.5t-52 -92.5q24 40 62 56.5t81 16.5q56 0 99 -25t63 -79q22 56 67.5 80t104.5 24q57 0 103.5 -27z" />
    <glyph glyph-name="uni10E1" unicode="&#x10e1;" horiz-adv-x="623" 
d="M202.5 20q-55.5 29 -86 83.5t-30.5 127.5v517h81v-516q0 -81 45 -125.5t117 -44.5q47 0 84 19t57.5 52t20.5 73q0 36 -10 61.5t-30 59.5q-24 41 -35.5 74.5t-9.5 83.5h80q-1 -39 9.5 -67t32.5 -66q23 -41 34.5 -72t11.5 -77q0 -57 -29.5 -105.5t-85 -77.5t-129.5 -29
q-72 0 -127.5 29z" />
    <glyph glyph-name="uni10E2" unicode="&#x10e2;" horiz-adv-x="822" 
d="M377 664q-107 -11 -172 -88.5t-65 -211.5q0 -94 35.5 -162t97 -104t139.5 -36q77 0 138.5 36t96.5 104.5t35 161.5q0 134 -65 211.5t-171 88.5q6 -33 6 -93v-274h-82v273q0 56 7 94zM97 550.5q40 79.5 111 125t162 54.5v47h82v-47q90 -8 160.5 -53.5t110.5 -125
t40 -187.5q0 -115 -46 -199.5t-125.5 -129t-179.5 -44.5q-101 0 -182 44.5t-127 129t-46 199.5q0 107 40 186.5z" />
    <glyph glyph-name="uni10E3" unicode="&#x10e3;" horiz-adv-x="636" 
d="M182.5 20q-56.5 29 -87 80t-30.5 117q0 42 14 83l78 -3q-10 -37 -10 -70q0 -75 46 -119.5t120 -44.5q73 0 118 45.5t45 126.5v344q0 52 -27.5 79t-71.5 27q-46 0 -73 -27.5t-27 -81.5v-141h-82v136q0 54 -27.5 80t-75.5 26h-44v75h52q101 0 137 -82q20 45 60 66t89 21
q77 0 124 -48t47 -124v-351q0 -74 -30 -129t-85.5 -84.5t-129.5 -29.5q-73 0 -129.5 29z" />
    <glyph glyph-name="uni10E4" unicode="&#x10e4;" horiz-adv-x="902" 
d="M390 15q-65 24 -101.5 68.5t-36.5 103.5q0 13 1 20l80 -3q-1 -4 -1 -13q0 -38 26.5 -67.5t74 -46t107.5 -16.5q94 0 146 41t52 110q0 60 -35 94.5t-103 35.5h-23v70h39q71 0 107.5 33t36.5 99q0 70 -35.5 106t-92.5 36q-55 0 -90 -36.5t-35 -108.5v-21q0 -69 -30 -121
t-82.5 -80.5t-117.5 -28.5q-66 0 -118 29t-81.5 81.5t-29.5 120.5q0 70 29.5 124t81.5 83t116 29q65 0 116 -32.5t70 -86.5q18 55 65.5 87t109.5 32q57 0 104 -24t75.5 -72t28.5 -115q0 -72 -38.5 -117t-97.5 -59q51 -13 81.5 -56.5t30.5 -106.5q0 -61 -33 -110t-96.5 -77.5
t-151.5 -28.5q-84 0 -149 24zM171 404.5q41 -44.5 106 -44.5q66 0 107 45t41 118q0 75 -41 119t-107 44q-65 0 -106 -45t-41 -118q0 -74 41 -118.5z" />
    <glyph glyph-name="uni10E5" unicode="&#x10e5;" horiz-adv-x="640" 
d="M167.5 18.5q-57.5 28.5 -88.5 78t-31 112.5q0 31 7 60l79 -4q-4 -21 -4 -45q0 -73 47 -116.5t123 -43.5q78 0 124.5 44t46.5 121v176q0 74 -44.5 117t-112.5 43q-61 0 -103 -34t-42 -99q0 -16 2 -29l-81 -4q-2 14 -2 36q0 61 30 107t79 70t106 24q53 0 98.5 -23.5
t69.5 -59.5v199h82v-530q0 -67 -31 -119t-88.5 -80.5t-133.5 -28.5q-75 0 -132.5 28.5z" />
    <glyph glyph-name="uni10E6" unicode="&#x10e6;" horiz-adv-x="861" 
d="M510.5 103.5q-53.5 33.5 -150.5 33.5h-224v65h89q-77 34 -122.5 113t-45.5 181q0 86 28 145t75 87.5t104 28.5q59 0 104.5 -25t66.5 -85q40 110 172 110q57 0 103.5 -28.5t74 -86.5t27.5 -144q0 -52 -8.5 -98t-25.5 -100l-81 4q17 49 25 94.5t8 97.5q0 94 -36 142t-94 48
q-56 0 -90 -38t-34 -119v-148h-81v148q0 81 -34 119t-89 38q-59 0 -95 -48t-36 -145q0 -126 64 -200t187 -84l27 -3q105 -8 166 -59.5t71 -146.5h-82q-10 70 -63.5 103.5z" />
    <glyph glyph-name="uni10E7" unicode="&#x10e7;" horiz-adv-x="647" 
d="M177.5 18.5q-57.5 28.5 -89 78t-31.5 112.5q0 31 7 60l79 -4q-4 -32 -4 -45q0 -73 47 -116.5t123 -43.5q78 0 124.5 44t46.5 121v181q-25 -40 -72 -64.5t-107 -24.5q-65 0 -118 28.5t-83.5 83.5t-30.5 132q0 50 8.5 91t29.5 96h82q-23 -55 -30 -97t-7 -87q0 -88 41 -131
t116 -43q74 0 122 44.5t48 121.5v192h81v-530q0 -67 -30.5 -119t-87.5 -80.5t-132 -28.5t-132.5 28.5z" />
    <glyph glyph-name="uni10E8" unicode="&#x10e8;" horiz-adv-x="642" 
d="M176 21.5q-57 30.5 -88 85.5t-31 126q0 72 30.5 127.5t86 86.5t127.5 31q61 0 109 -23.5t72 -61.5v191q0 50 -28.5 76t-71.5 26q-42 0 -70 -25.5t-28 -63.5v-51h-83v36q0 48 -28.5 74t-76.5 26q-22 0 -39 -3v70q15 5 49 5q46 0 82 -20t56 -63q20 43 60 63t88 20
q77 0 124 -46t47 -119l-1 -354q0 -72 -31 -127.5t-88.5 -86t-134.5 -30.5q-75 0 -132 30.5zM188 109q47 -47 121 -47q51 0 90 20.5t60.5 56t21.5 80.5v28q0 75 -47 117.5t-125 42.5q-76 0 -122 -47t-46 -126q0 -78 47 -125z" />
    <glyph glyph-name="uni10E9" unicode="&#x10e9;" horiz-adv-x="619" 
d="M112 668q26 42 72.5 65.5t105.5 23.5q83 0 133.5 -42t50.5 -109q0 -92 -103 -140q91 -10 140.5 -73t49.5 -162q0 -60 -13 -114t-39 -117h-82q27 65 39.5 118.5t12.5 113.5q0 82 -41.5 129t-113.5 47q-68 0 -112.5 -43t-44.5 -117v-248h-81v573q0 53 26 95zM206 438.5
q25 19.5 54 29.5q74 27 103.5 60t29.5 74q0 40 -28.5 63.5t-76.5 23.5q-54 0 -88 -30.5t-34 -87.5v-175q15 23 40 42.5z" />
    <glyph glyph-name="uni10EA" unicode="&#x10ea;" horiz-adv-x="711" 
d="M218.5 30.5q-73.5 39.5 -117.5 125t-44 217.5q0 108 25 199t71 177h81q-47 -91 -70.5 -181t-23.5 -195q0 -165 69.5 -238t173.5 -73q89 0 141 44t52 114q0 68 -43.5 107t-123.5 39h-65v70h88q133 0 133 89q0 27 -13 47.5t-41 47.5q-33 33 -49.5 60.5t-14.5 68.5h80
q0 -26 13.5 -45.5t40.5 -47.5q33 -34 50 -61.5t17 -67.5q0 -46 -32 -81t-85 -47q54 -13 90.5 -64t36.5 -122q0 -62 -33 -112.5t-95 -80t-146 -29.5q-92 0 -165.5 39.5z" />
    <glyph glyph-name="uni10EB" unicode="&#x10eb;" horiz-adv-x="639" 
d="M166 21.5q-57 30.5 -87.5 85.5t-30.5 127t30.5 128t86 87t127.5 31q61 0 108.5 -23.5t71.5 -61.5l-1 353h81v-513q0 -72 -31 -127.5t-88.5 -86t-133.5 -30.5t-133 30.5zM178 109q47 -47 122 -47q76 0 123.5 44.5t47.5 113.5v28q0 75 -47 118t-124 43q-76 0 -122.5 -47
t-46.5 -127q0 -79 47 -126z" />
    <glyph glyph-name="uni10EC" unicode="&#x10ec;" horiz-adv-x="642" 
d="M199.5 21.5q-57.5 30.5 -88.5 86t-31 127.5l-1 354q0 73 47 119t124 46q48 0 88 -20t60 -63q20 43 56 63t82 20q34 0 49 -5v-70q-16 3 -39 3q-48 0 -76.5 -26t-28.5 -74v-36h-83v51q0 38 -28 63.5t-70 25.5q-43 0 -71.5 -26t-28.5 -76v-191q24 38 72 61.5t109 23.5
q72 0 127.5 -31t86 -86.5t30.5 -127.5q0 -71 -31 -126t-88 -85.5t-132 -30.5q-77 0 -134.5 30.5zM182.5 138.5q21.5 -35.5 60.5 -56t90 -20.5q74 0 121 47t47 125q0 79 -46 126t-122 47q-78 0 -125 -42.5t-47 -117.5v-28q0 -45 21.5 -80.5z" />
    <glyph glyph-name="uni10ED" unicode="&#x10ed;" horiz-adv-x="717" 
d="M177.5 18.5q-57.5 28.5 -89 78t-31.5 112.5q0 31 7 60l80 -4q-5 -27 -5 -45q0 -73 47 -116.5t123 -43.5q78 0 124.5 44t46.5 121v195l-59 -38q-80 -49 -162 -49q-48 0 -89.5 19.5t-67 55.5t-25.5 84t25.5 84t67 55.5t89.5 19.5q85 0 160 -49l61 -39v185h79v-187l132 97
l8 -76l-140 -90l140 -90l-8 -76l-132 96v-204q0 -67 -30.5 -119t-87 -80.5t-131.5 -28.5t-132.5 28.5zM189.5 424.5q30.5 -23.5 80.5 -23.5q38 0 70 12.5t68 33.5l72 44l-72 44q-34 21 -66.5 34t-71.5 13q-50 0 -80.5 -23.5t-30.5 -66.5q0 -44 30.5 -67.5z" />
    <glyph glyph-name="uni10EE" unicode="&#x10ee;" horiz-adv-x="639" 
d="M206.5 21.5q-57.5 30.5 -88.5 86t-31 127.5v513h81l-1 -353q24 38 71.5 61.5t108.5 23.5q72 0 127.5 -31t86 -87t30.5 -128t-30.5 -127t-87.5 -85.5t-133 -30.5t-133.5 30.5zM215.5 106.5q47.5 -44.5 123.5 -44.5q75 0 122 47t47 126q0 80 -46.5 127t-122.5 47
q-77 0 -124 -43t-47 -118v-28q0 -69 47.5 -113.5z" />
    <glyph glyph-name="uni10EF" unicode="&#x10ef;" horiz-adv-x="608" 
d="M172.5 18.5q-57.5 28.5 -88.5 78t-31 112.5q0 29 6 60l80 -4q-5 -27 -5 -45q0 -73 47 -116.5t123 -43.5q77 0 124 43t48 118q-1 70 -43.5 109.5t-118.5 39.5h-50v174q-71 -11 -120 -11q-42 0 -84 7l5 69q41 -7 82 -7q47 0 117 11v135h79v-122q63 9 112 9q45 0 93 -7
l-5 -70q-45 7 -91 7q-48 0 -109 -9v-119q62 -2 110 -31t75 -78t27 -112q0 -68 -31 -119t-87.5 -79t-131.5 -28t-132.5 28.5z" />
    <glyph glyph-name="uni10F0" unicode="&#x10f0;" horiz-adv-x="601" 
d="M512.5 242.5q30.5 -33.5 30.5 -83.5q0 -48 -31 -86.5t-88 -60.5t-134 -22t-136 26t-89.5 73.5t-26.5 110.5l82 -2q-4 -62 43.5 -100t124.5 -38q78 0 125 27t47 76q0 44 -40 68t-113 24h-57v66h118q38 0 59.5 15.5t21.5 44.5q0 30 -21 45t-60 15h-118v66h94q42 0 64 13
t22 37q0 22 -20 37t-60 33q-36 17 -58.5 31t-37.5 36t-14 54h81q1 -22 20.5 -36.5t58.5 -32.5q54 -26 83 -51t29 -69q0 -70 -83 -84q50 -4 76.5 -29.5t26.5 -65.5q0 -79 -103 -94q53 -10 83.5 -43.5z" />
    <glyph glyph-name="uni1CB1" unicode="&#x1cb1;" horiz-adv-x="600" 
 />
    <glyph glyph-name="uni1CB2" unicode="&#x1cb2;" horiz-adv-x="600" 
 />
    <glyph glyph-name="uni1CB3" unicode="&#x1cb3;" horiz-adv-x="600" 
 />
    <glyph glyph-name="uni1CB4" unicode="&#x1cb4;" horiz-adv-x="600" 
 />
    <glyph glyph-name="uni1CB5" unicode="&#x1cb5;" horiz-adv-x="600" 
 />
    <glyph glyph-name="uni1CB6" unicode="&#x1cb6;" horiz-adv-x="600" 
 />
    <glyph glyph-name="uni1CB7" unicode="&#x1cb7;" horiz-adv-x="600" 
 />
    <glyph glyph-name="uni1CB8" unicode="&#x1cb8;" horiz-adv-x="600" 
 />
    <glyph glyph-name="Wgrave" unicode="&#x1e80;" horiz-adv-x="1117" 
d="M333 935h108l152 -140h-74zM111 748l208 -610l206 610h67l208 -610l208 610h87l-261 -748h-68l-208 601l-206 -601h-69l-262 748h90z" />
    <glyph glyph-name="wgrave" unicode="&#x1e81;" horiz-adv-x="815" 
d="M244 785h88l106 -191h-62zM96 509l142 -390l142 390h55l144 -390l141 390h84l-192 -509h-62l-141 379l-143 -379h-61l-194 509h85z" />
    <glyph glyph-name="Wacute" unicode="&#x1e82;" horiz-adv-x="1117" 
d="M672 935h108l-186 -140h-74zM111 748l208 -610l206 610h67l208 -610l208 610h87l-261 -748h-68l-208 601l-206 -601h-69l-262 748h90z" />
    <glyph glyph-name="wacute" unicode="&#x1e83;" horiz-adv-x="815" 
d="M482 785h87l-131 -191h-62zM96 509l142 -390l142 390h55l144 -390l141 390h84l-192 -509h-62l-141 379l-143 -379h-61l-194 509h85z" />
    <glyph glyph-name="Wdieresis" unicode="&#x1e84;" horiz-adv-x="1117" 
d="M522 900q14 -14 14 -33q0 -20 -14 -33.5t-34 -13.5t-34 13.5t-14 33.5t14 33.5t34 13.5t34 -14zM111 748l208 -610l206 610h67l208 -610l208 610h87l-261 -748h-68l-208 601l-206 -601h-69l-262 748h90zM597 900q14 14 34 14t34 -14t14 -33q0 -20 -14 -33.5t-34 -13.5
t-34 13.5t-14 33.5q0 19 14 33z" />
    <glyph glyph-name="wdieresis" unicode="&#x1e85;" horiz-adv-x="815" 
d="M368 714.5q14 -13.5 14 -33.5t-14 -33t-34 -13t-34 13t-14 33t14 33.5t34 13.5t34 -13.5zM96 509l142 -390l142 390h55l144 -390l141 390h84l-192 -509h-62l-141 379l-143 -379h-61l-194 509h85zM443.5 714.5q13.5 13.5 33.5 13.5t34 -13.5t14 -33.5t-14 -33t-34 -13
t-33.5 13t-13.5 33t13.5 33.5z" />
    <glyph glyph-name="Ygrave" unicode="&#x1ef2;" horiz-adv-x="684" 
d="M117 935h108l151 -140h-74zM113 748l229 -354l230 354h94l-283 -434v-314h-82v314l-283 434h95z" />
    <glyph glyph-name="ygrave" unicode="&#x1ef3;" horiz-adv-x="524" 
d="M99 785h87l106 -191h-61zM103 509l160 -397l159 397h85l-321 -764h-85l119 280l-202 484h85z" />
    <glyph glyph-name="endash" unicode="&#x2013;" horiz-adv-x="562" 
d="M45 298h472v-73h-472v73z" />
    <glyph glyph-name="emdash" unicode="&#x2014;" horiz-adv-x="794" 
d="M45 298h704v-73h-704v73z" />
    <glyph glyph-name="quoteleft" unicode="&#x2018;" horiz-adv-x="176" 
d="M54 517q-13 17 -13 45q0 58 26 105t80 78v-35q-51 -40 -56 -104q22 0 37.5 -15t15.5 -37q0 -23 -15 -38.5t-38 -15.5q-24 0 -37 17z" />
    <glyph glyph-name="quoteright" unicode="&#x2019;" horiz-adv-x="176" 
d="M85 638q-22 1 -37.5 16.5t-15.5 37.5q0 23 15 38t37 15q24 0 37.5 -16.5t13.5 -45.5q0 -120 -106 -183v34q49 38 56 104z" />
    <glyph glyph-name="quotesinglbase" unicode="&#x201a;" horiz-adv-x="176" 
d="M85 -8q-22 0 -37.5 15.5t-15.5 37.5q0 23 15 38.5t37 15.5q24 0 37.5 -17t13.5 -45q0 -121 -106 -184v35q50 38 56 104z" />
    <glyph glyph-name="quotedblleft" unicode="&#x201c;" horiz-adv-x="336" 
d="M208.5 517q-13.5 17 -13.5 45q0 121 106 183v-35q-49 -37 -56 -103q22 -1 37.5 -16t15.5 -37q0 -23 -15 -38.5t-37 -15.5q-24 0 -37.5 17zM141 745v-35q-49 -37 -56 -103q22 -1 37.5 -16t15.5 -37q0 -23 -15 -38.5t-37 -15.5q-24 0 -37.5 17t-13.5 45q0 121 106 183z" />
    <glyph glyph-name="quotedblright" unicode="&#x201d;" horiz-adv-x="336" 
d="M239 638q-22 1 -37 16.5t-15 37.5t15 37.5t37 15.5q24 0 37 -17t13 -45q0 -121 -106 -183v35q50 38 56 103zM23 535q50 38 56 103q-22 1 -37 16.5t-15 37.5t15 37.5t37 15.5q24 0 37 -17t13 -45q0 -121 -106 -183v35z" />
    <glyph glyph-name="quotedblbase" unicode="&#x201e;" horiz-adv-x="336" 
d="M246 -8q-22 0 -37.5 15.5t-15.5 37.5q0 23 14.5 38.5t37.5 15.5q24 0 37.5 -17t13.5 -46q0 -119 -107 -183v35q51 39 57 104zM29 -112q50 38 56 104q-22 0 -37.5 15.5t-15.5 37.5q0 23 15 38.5t37 15.5q24 0 37.5 -17t13.5 -45q0 -121 -106 -184v35z" />
    <glyph glyph-name="dagger" unicode="&#x2020;" horiz-adv-x="487" 
d="M465 469h-183v-536h-77v536h-184v70h184v209h77v-209h183v-70z" />
    <glyph glyph-name="daggerdbl" unicode="&#x2021;" horiz-adv-x="487" 
d="M465 469h-183v-256h183v-71h-183v-209h-77v209h-184v71h184v256h-184v70h184v209h77v-209h183v-70z" />
    <glyph glyph-name="bullet" unicode="&#x2022;" horiz-adv-x="349" 
d="M258.5 339q34.5 -35 34.5 -84q0 -50 -34.5 -85t-83.5 -35q-50 0 -85 35t-35 85t35 84.5t85 34.5q49 0 83.5 -35z" />
    <glyph glyph-name="ellipsis" unicode="&#x2026;" horiz-adv-x="600" 
d="M138.5 83.5q15.5 -15.5 15.5 -38.5t-15.5 -38.5t-39.5 -15.5q-23 0 -38 15.5t-15 38.5t15 38.5t38 15.5q24 0 39.5 -15.5zM257 83.5q15 15.5 38 15.5t39.5 -15.5t16.5 -38.5t-16.5 -38.5t-39.5 -15.5t-38 15.5t-15 38.5t15 38.5zM454 83.5q15 15.5 38 15.5t39 -15.5
t16 -38.5t-16 -38.5t-39 -15.5t-38 15.5t-15 38.5t15 38.5z" />
    <glyph glyph-name="perthousand" unicode="&#x2030;" horiz-adv-x="1217" 
d="M317 709q45 -48 45 -128t-45 -128t-116 -48q-70 0 -115.5 48t-45.5 128t45.5 128t115.5 48q71 0 116 -48zM126 492q29 -33 74 -33q46 0 75.5 33t29.5 89t-29 88.5t-76 32.5q-45 0 -74 -32.5t-29 -88.5t29 -89zM644 748h76l-533 -748h-76zM514.5 296.5
q45.5 47.5 115.5 47.5q71 0 116 -47.5t45 -128.5t-45 -129t-116 -48q-46 0 -82.5 21.5t-57.5 62t-21 93.5q0 81 45.5 128.5zM555.5 79q29.5 -33 74.5 -33t74 32.5t29 89.5q0 56 -29 88.5t-74 32.5q-46 0 -75 -32.5t-29 -88.5t29.5 -89zM900 296.5q45 47.5 116 47.5
t116 -47.5t45 -128.5q0 -80 -45.5 -128.5t-115.5 -48.5t-115.5 48.5t-45.5 128.5q0 81 45 128.5zM941.5 79q29.5 -33 74.5 -33t74 32.5t29 89.5q0 56 -29 88.5t-74 32.5q-46 0 -75 -32.5t-29 -88.5t29.5 -89z" />
    <glyph glyph-name="guilsinglleft" unicode="&#x2039;" horiz-adv-x="302" 
d="M281 87l-56 -49l-210 215l210 216l56 -49l-171 -167z" />
    <glyph glyph-name="guilsinglright" unicode="&#x203a;" horiz-adv-x="302" 
d="M21 87l171 166l-171 167l55 49l211 -216l-211 -215z" />
    <glyph glyph-name="fraction" unicode="&#x2044;" horiz-adv-x="193" 
d="M322 748h79l-530 -748h-79z" />
    <glyph glyph-name="Euro" unicode="&#x20ac;" horiz-adv-x="706" 
d="M560 8q-52 -17 -121 -17q-78 0 -144 32t-112.5 93t-65.5 146h-109l18 49h83q-4 27 -4 62q0 37 4 62h-101l18 50h91q28 128 115.5 200t207.5 72q64 0 114 -16t92 -48l-26 -67q-72 59 -176 59q-90 0 -154 -53t-88 -147h359l-19 -50h-350q-4 -38 -4 -62q0 -29 5 -62h297
l-19 -49h-269q25 -94 89 -146.5t153 -52.5q103 0 179 63l34 -66q-45 -35 -97 -52z" />
    <glyph glyph-name="uni20BE" unicode="&#x20be;" horiz-adv-x="848" 
d="M128 67h123q-91 38 -142.5 120.5t-51.5 192.5q0 136 68.5 230t182.5 129v126h55v-113q37 5 69 5t69 -5v113h55v-126q113 -36 180.5 -131.5t67.5 -233.5h-82q0 112 -44.5 185.5t-121.5 105.5v-291h-55v307q-31 7 -69 7q-36 0 -69 -6v-308h-55v291q-79 -31 -123.5 -104.5
t-44.5 -184.5q0 -92 39.5 -161t110.5 -105.5t162 -36.5h307v-73h-631v67z" />
    <glyph glyph-name="trademark" unicode="&#x2122;" horiz-adv-x="880" 
d="M223 389h-57v303h-133v56h324v-56h-134v-303zM411 748h48l152 -277l152 277h49v-359h-59v237l-129 -234h-26l-129 234v-237h-58v359z" />
    <glyph glyph-name="estimated" unicode="&#x212e;" horiz-adv-x="616" 
d="M447.5 507q56.5 -30 90 -87.5t33.5 -136.5h-416v-174q0 -39 25 -51q57 -48 142 -48q73 0 131.5 34.5t96.5 92.5l16 -11q-42 -64 -105.5 -100.5t-138.5 -36.5q-77 0 -139.5 34.5t-99 96.5t-36.5 141q0 81 36.5 143.5t99 97.5t139.5 35q69 0 125.5 -30zM469 302v122
q0 25 -5 37t-22 21q-53 36 -121 36q-41 0 -77 -12.5t-64 -34.5q-13 -6 -19.5 -19.5t-6.5 -30.5v-119h315z" />
    <glyph glyph-name="partialdiff" unicode="&#x2202;" horiz-adv-x="613" 
d="M501.5 623.5q58.5 -133.5 58.5 -346.5q0 -89 -32 -154t-91 -99t-136 -34q-71 0 -128.5 30.5t-90.5 87t-33 131.5q0 72 32 127.5t89 86t128 30.5q56 0 102 -23t77 -64q-7 134 -49 211.5t-136 77.5q-52 0 -92 -19t-78 -55l-44 66q48 40 97 60t116 20q152 0 210.5 -133.5z
M153.5 147q22.5 -40 62 -62.5t89.5 -22.5q49 0 89 22t62.5 62t22.5 92v6q-1 51 -24 90.5t-62 61.5t-88 22t-88.5 -22.5t-62.5 -63t-23 -92.5q0 -53 22.5 -93z" />
    <glyph glyph-name="product" unicode="&#x220f;" horiz-adv-x="640" 
d="M510 -164h-70v840h-239v-840h-70v840h-104v72h587v-72h-104v-840z" />
    <glyph glyph-name="summation" unicode="&#x2211;" horiz-adv-x="600" 
d="M371 374l-227 -301h408v-73h-503v60l237 314l-237 315v59h503v-72h-408z" />
    <glyph glyph-name="minus" unicode="&#x2212;" horiz-adv-x="546" 
d="M33 406h479v-72h-479v72z" />
    <glyph glyph-name="radical" unicode="&#x221a;" horiz-adv-x="627" 
d="M184 268l-114 -75l-39 62l182 115l112 -285l207 610l63 -28l-269 -744z" />
    <glyph glyph-name="infinity" unicode="&#x221e;" horiz-adv-x="789" 
d="M672 468q40 -25 62.5 -68t22.5 -94q0 -52 -22 -95t-62.5 -68t-91.5 -25q-100 0 -184 105l-22 29l-23 -28q-39 -43 -77.5 -67t-84.5 -24q-47 0 -83 23t-55.5 62t-19.5 87q0 47 19.5 86.5t55.5 63t83 23.5q48 0 87 -24t75 -69l22 -28l18 23q44 55 87.5 84t101.5 29
q51 0 91 -25zM121 228q27 -31 71 -31q66 0 123 76l24 31l-23 30q-30 39 -59.5 59.5t-64.5 20.5q-44 0 -71 -31.5t-27 -77.5t27 -77zM437 274q33 -40 67.5 -65.5t76.5 -25.5q49 0 80 36t31 87t-31 86t-80 35q-43 0 -76.5 -24t-70.5 -72l-21 -27z" />
    <glyph glyph-name="integral" unicode="&#x222b;" horiz-adv-x="340" 
d="M340 745l-13 -60q-27 10 -54 10q-37 0 -51.5 -21.5t-14.5 -73.5v-612q0 -84 -29 -121.5t-95 -37.5q-41 0 -82 13l12 58q34 -8 53 -8q40 0 56.5 22.5t16.5 76.5v611q0 81 28 118t92 37q40 0 81 -12z" />
    <glyph glyph-name="approxequal" unicode="&#x2248;" horiz-adv-x="535" 
d="M445 439.5q-34 -20.5 -82 -20.5q-33 0 -56 9t-51 26q-26 15 -43 22t-40 7q-37 0 -61.5 -13.5t-53.5 -45.5l-36 51q33 40 66 59.5t78 19.5q25 0 44 -7.5t47 -22.5q26 -15 48 -23.5t51 -8.5q40 0 66.5 14t54.5 47l35 -51q-33 -42 -67 -62.5zM88 301.5q33 19.5 78 19.5
q25 0 44 -7.5t47 -22.5q25 -16 47.5 -24.5t51.5 -8.5q40 0 66.5 14.5t54.5 47.5l35 -51q-33 -41 -67 -62t-82 -21q-33 0 -56 9t-51 26q-26 15 -43 22t-40 7q-37 0 -61.5 -13.5t-53.5 -45.5l-36 51q33 40 66 59.5z" />
    <glyph glyph-name="notequal" unicode="&#x2260;" horiz-adv-x="546" 
d="M512 285v-73h-264l-48 -133l-66 17l42 116h-143v73h167l62 166h-229v73h253l48 132l66 -17l-42 -115h154v-73h-178l-62 -166h240z" />
    <glyph glyph-name="lessequal" unicode="&#x2264;" horiz-adv-x="515" 
d="M483 317l-2 -79l-453 210l453 210l2 -78l-299 -132zM28 178h455v-73h-455v73z" />
    <glyph glyph-name="greaterequal" unicode="&#x2265;" horiz-adv-x="515" 
d="M33 317l299 131l-299 132l1 78l454 -210l-454 -210zM33 178h455v-73h-455v73z" />
    <glyph glyph-name="triagup" unicode="&#x25b2;" horiz-adv-x="930" 
d="M405 513q0 116 26 224q1 4 1 9q0 10 -7 10q-4 0 -9 -6q-17 -22 -81.5 -126.5t-119.5 -198.5q-3 -4 -16 -28q-125 -215 -155 -297q-4 -12 -4 -17q0 -8 4 -15q7 -13 23 -13q9 0 33 8q39 14 110 53q55 32 107 71t76 64q15 16 20.5 29t5.5 29q0 7 -2 27q-12 101 -12 177z
M79 10q28 -3 151.5 -7.5t230.5 -4.5h32q122 1 204 4t132 11q19 2 27 15q3 6 3 12q0 17 -27 39q-35 30 -101 69q-54 32 -114 57.5t-94 33.5q-13 4 -27 4q-16 0 -27.5 -6t-31.5 -20q-89 -66 -174.5 -113.5t-179.5 -74.5l-8 -2q-7 -2 -7 -8t11 -9zM450.5 455.5
q7.5 -64.5 17.5 -97.5q8 -28 20.5 -39t41.5 -24q102 -44 186 -95t154 -118l6 -6q3 -3 7 -3q5 0 6 5t-1 10q-9 24 -66.5 132t-113.5 205q-3 4 -16 28q-63 106 -105.5 175t-75.5 108q-14 16 -27 16q-15 0 -22 -12t-10 -34q-9 -45 -9 -122q0 -64 7.5 -128.5z" />
    <glyph glyph-name="lozenge" unicode="&#x25ca;" horiz-adv-x="533" 
d="M242 -55l-205 401l205 402h50l204 -402l-204 -401h-50zM267 56l149 290l-149 290l-150 -290z" />
    <glyph glyph-name="uni2605" unicode="&#x2605;" horiz-adv-x="850" 
d="M450 751q-11 7 -24 7t-24.5 -7t-17.5 -21l-83 -193q-5 -12 -15.5 -19t-22.5 -8l-191 -15q-19 -1 -30.5 -14.5t-11.5 -30.5q0 -22 17 -35l152 -121q17 -12 17 -34q0 -4 -2 -12l-50 -201q-1 -4 -1 -11q0 -19 13.5 -32t31.5 -13q13 0 24 7l169 108q11 7 25 7t24 -7l169 -108
q11 -7 24 -7q18 0 32 13t14 31q0 4 -2 12l-51 201q-1 3 -1 10q0 22 17 36l151 121q17 13 17 35q0 17 -11 30.5t-30 14.5l-191 15q-12 1 -22.5 8t-15.5 19l-83 193q-6 14 -17 21z" />
    <glyph glyph-name="fl" unicode="&#xfb02;" horiz-adv-x="594" 
d="M324 778v-67q-10 3 -27 3q-49 0 -78 -30t-29 -83v-92h133v-67h-133v-442h-77v442h-100v67h100v90q0 86 47.5 134.5t127.5 48.5q24 0 36 -4zM427 777h77v-777h-77v777z" />
    <glyph glyph-name="null" horiz-adv-x="600" 
 />
    <glyph glyph-name="n.001" horiz-adv-x="607" 
d="M467.5 463.5q53.5 -54.5 53.5 -146.5v-317h-77v300q0 66 -37.5 106t-97.5 40q-41 0 -73.5 -19.5t-50.5 -53t-18 -73.5v-300h-77v509h73v-95q14 43 58.5 73.5t105.5 30.5q87 0 140.5 -54.5z" />
    <glyph glyph-name="germandbls.cap" horiz-adv-x="687" 
d="M473 724.5q62 -31.5 109 -86.5l-127 -189q89 -21 138.5 -76t49.5 -146q0 -72 -33.5 -125t-94.5 -81.5t-140 -28.5q-57 0 -85 9l16 71q25 -7 66 -7q84 0 135.5 44t51.5 119q0 82 -53 125.5t-158 60.5l132 201q-60 69 -156 69q-67 0 -112 -40t-45 -104v-540h-81v539
q0 64 31.5 113.5t86.5 76.5t123 27q84 0 146 -31.5z" />
    <glyph glyph-name="a.sups" horiz-adv-x="439" 
d="M333 715q39 -40 39 -118v-256h-65v59q-17 -30 -51.5 -48.5t-79.5 -18.5q-61 0 -97 28.5t-36 83.5q0 59 43 88t117 34l101 7v27q0 47 -22.5 72.5t-64.5 25.5q-45 0 -70 -26.5t-25 -63.5l-67 3q0 36 19.5 69t56 53.5t86.5 20.5q77 0 116 -40zM192 387q46 0 79 29.5t33 90.5
v20l-94 -7q-48 -4 -72.5 -20t-24.5 -51q0 -62 79 -62z" />
    <glyph glyph-name="b.sups" horiz-adv-x="520" 
d="M193.5 737q36.5 18 84.5 18q56 0 101 -25.5t71 -73t26 -111.5t-26 -112t-71 -74t-101 -26q-50 0 -87.5 19.5t-54.5 51.5v-63h-67v622h70v-275q18 31 54.5 49zM175 429q36 -36 94 -36q61 0 99.5 40t38.5 111t-38.5 112t-99.5 41q-58 0 -94 -36.5t-36 -103.5v-25
q0 -67 36 -103z" />
    <glyph glyph-name="c.sups" horiz-adv-x="463" 
d="M367.5 714q50.5 -41 59.5 -111l-68 -5q-6 46 -37.5 72.5t-78.5 26.5q-58 0 -94.5 -40.5t-36.5 -112.5q0 -71 37 -111t95 -40q47 0 77.5 24.5t37.5 67.5l68 -6q-11 -68 -60 -107t-123 -39q-57 0 -103 25t-72.5 73t-26.5 113q0 66 26 113.5t71.5 72.5t103.5 25
q74 0 124.5 -41z" />
    <glyph glyph-name="d.sups" horiz-adv-x="520" 
d="M328.5 352.5q-37.5 -19.5 -87.5 -19.5q-56 0 -101.5 26t-71.5 74t-26 112t26 111.5t71.5 73t101.5 25.5q49 0 85.5 -18t54.5 -49v275h68v-622h-65v63q-18 -32 -55.5 -51.5zM151.5 433q38.5 -40 99.5 -40q58 0 94 36t36 103v25q0 67 -36 103.5t-94 36.5q-61 0 -99.5 -41
t-38.5 -112t38.5 -111z" />
    <glyph glyph-name="e.sups" horiz-adv-x="473" 
d="M152 425.5q35 -34.5 91 -34.5q45 0 75 20t39 56l70 -3q-13 -61 -62 -96t-120 -35q-58 0 -104 25.5t-72.5 73t-26.5 112.5q0 66 26 113.5t71.5 72.5t103.5 25q87 0 137.5 -54t50.5 -146v-33h-315q1 -62 36 -96.5zM361 572q-1 58 -31.5 93t-86.5 35q-54 0 -89 -34t-38 -94
h245z" />
    <glyph glyph-name="f.sups" horiz-adv-x="272" 
d="M265 963v-60q-5 1 -23 1q-38 0 -60 -22.5t-22 -63.5v-70h103v-61h-103v-346h-71v346h-79v61h79v69q0 70 39.5 109t105.5 39q15 0 31 -2z" />
    <glyph glyph-name="g.sups" horiz-adv-x="518" 
d="M328.5 736q37.5 -19 55.5 -51v63h65v-430q0 -87 -53 -137.5t-142 -50.5q-83 0 -134 39t-65 105l71 3q7 -41 41.5 -65t83.5 -24q59 0 94.5 32.5t35.5 92.5v88q-19 -31 -55.5 -49.5t-84.5 -18.5q-56 0 -101.5 26t-71.5 74t-26 112t26 111.5t71.5 73t101.5 25.5
q50 0 87.5 -19zM151.5 433q38.5 -40 99.5 -40q58 0 94 36.5t36 103.5v25q0 67 -36 103t-94 36q-61 0 -99.5 -40.5t-38.5 -111.5q0 -72 38.5 -112z" />
    <glyph glyph-name="h.sups" horiz-adv-x="481" 
d="M186 737.5q31 17.5 77 17.5q69 0 113 -43.5t44 -116.5v-254h-70v238q0 51 -28 81.5t-75 30.5t-77.5 -32.5t-30.5 -80.5v-237h-70v622h70v-268q16 25 47 42.5z" />
    <glyph glyph-name="i.sups" horiz-adv-x="210" 
d="M136.5 928.5q13.5 -13.5 13.5 -32.5q0 -18 -13.5 -31t-31.5 -13q-20 0 -33 12.5t-13 31.5t13.5 32.5t32.5 13.5q18 0 31.5 -13.5zM70 748h70v-407h-70v407z" />
    <glyph glyph-name="j.sups" horiz-adv-x="210" 
d="M136.5 928.5q13.5 -13.5 13.5 -32.5t-13.5 -31.5t-32.5 -12.5t-32 12.5t-13 31.5q0 20 13 33t32 13t32.5 -13.5zM-31 195q14 -2 24 -2q36 0 57 22.5t21 63.5v469h70v-467q0 -70 -37.5 -109.5t-102.5 -39.5q-12 0 -32 2v61z" />
    <glyph glyph-name="k.sups" horiz-adv-x="429" 
d="M406 748l-174 -178l189 -229h-85l-154 179l-43 -43v-136h-70v622h70v-394l177 179h90z" />
    <glyph glyph-name="l.sups" horiz-adv-x="208" 
d="M69 963h70v-622h-70v622z" />
    <glyph glyph-name="m.sups" horiz-adv-x="748" 
d="M639 711.5q42 -43.5 42 -116.5v-254h-68v238q0 51 -26.5 81.5t-72.5 30.5q-47 0 -75.5 -32.5t-28.5 -80.5v-237h-70v238q0 51 -26 81.5t-71 30.5q-48 0 -76 -32t-28 -81v-237h-70v407h67v-54q13 23 44.5 42t75.5 19q48 0 83 -20t53 -58q18 36 52.5 57t82.5 21
q70 0 112 -43.5z" />
    <glyph glyph-name="n.sups" horiz-adv-x="486" 
d="M376 711.5q44 -43.5 44 -116.5v-254h-70v238q0 51 -28 81.5t-75 30.5t-77.5 -32.5t-30.5 -80.5v-237h-70v407h67v-54q16 25 48.5 43t78.5 18q69 0 113 -43.5z" />
    <glyph glyph-name="o.sups" horiz-adv-x="505" 
d="M359 729q48 -26 75 -73.5t27 -111.5t-27 -111.5t-75 -73.5t-108 -26q-59 0 -106.5 26t-75 73.5t-27.5 111.5t27.5 111.5t75 73.5t106.5 26q60 0 108 -26zM152.5 434q39.5 -41 99.5 -41q61 0 100.5 40.5t39.5 110.5q0 71 -39.5 112t-100.5 41q-60 0 -99.5 -41.5
t-39.5 -111.5q0 -69 39.5 -110z" />
    <glyph glyph-name="p.sups" horiz-adv-x="520" 
d="M379 729.5q45 -25.5 71 -73t26 -111.5t-26 -112t-71 -74t-101 -26q-48 0 -84.5 19t-54.5 49v-264h-70v611h67v-63q17 32 54.5 51t87.5 19q56 0 101 -25.5zM175 429.5q36 -36.5 94 -36.5q61 0 99.5 40t38.5 112q0 71 -38.5 111.5t-99.5 40.5q-58 0 -94 -36t-36 -103v-25
q0 -67 36 -103.5z" />
    <glyph glyph-name="q.sups" horiz-adv-x="520" 
d="M328.5 736q37.5 -19 55.5 -51v63h65v-611h-68v264q-18 -30 -54.5 -49t-85.5 -19q-56 0 -101.5 26t-71.5 74t-26 112t26 111.5t71.5 73t101.5 25.5q50 0 87.5 -19zM151.5 433q38.5 -40 99.5 -40q58 0 94 36.5t36 103.5v25q0 67 -36 103t-94 36q-61 0 -99.5 -40.5
t-38.5 -111.5q0 -72 38.5 -112z" />
    <glyph glyph-name="r.sups" horiz-adv-x="269" 
d="M171.5 655q-32.5 -32 -32.5 -80v-234h-70v407h67v-54q16 26 45.5 43t75.5 17v-67q-53 0 -85.5 -32z" />
    <glyph glyph-name="s.sups" horiz-adv-x="399" 
d="M299 723q38 -32 46 -88l-70 -5q-4 34 -24.5 52.5t-55.5 18.5q-39 0 -59.5 -17t-20.5 -47q0 -27 18 -37.5t44.5 -16t35.5 -7.5q74 -18 107.5 -41.5t33.5 -75.5q0 -59 -42 -92.5t-114 -33.5q-69 0 -111 31.5t-49 89.5l68 5q5 -34 29 -52.5t63 -18.5q40 0 63.5 16.5
t23.5 49.5q0 30 -21.5 43t-80.5 27q-50 11 -77 21.5t-44 31.5t-17 58q0 56 39 88t111 32q66 0 104 -32z" />
    <glyph glyph-name="t.sups" horiz-adv-x="278" 
d="M113.5 367.5q-33.5 31.5 -32.5 96.5l1 223h-75v61h76l1 141h68l-1 -141h111v-61h-111l-1 -211q0 -41 19 -59.5t52 -18.5q12 0 42 3v-61q-19 -4 -57 -4q-59 0 -92.5 31.5z" />
    <glyph glyph-name="u.sups" horiz-adv-x="474" 
d="M291.5 351q-30.5 -18 -74.5 -18q-70 0 -110.5 42.5t-40.5 115.5v257h70v-241q0 -51 25 -79.5t71 -28.5q47 0 75 30.5t28 76.5v242h68v-407h-65v53q-16 -25 -46.5 -43z" />
    <glyph glyph-name="v.sups" horiz-adv-x="424" 
d="M8 748h77l128 -299l128 299h75l-176 -407h-55z" />
    <glyph glyph-name="w.sups" horiz-adv-x="658" 
d="M329 646l-112 -305h-52l-157 407h77l110 -298l110 298h49l109 -298l110 298h76l-156 -407h-53z" />
    <glyph glyph-name="x.sups" horiz-adv-x="412" 
d="M318 341l-112 159l-111 -159h-81l144 209l-138 198h81l105 -150l105 150h80l-137 -198l144 -209h-80z" />
    <glyph glyph-name="y.sups" horiz-adv-x="426" 
d="M175 366l-162 382h77l123 -299l123 299h76l-258 -611h-76z" />
    <glyph glyph-name="z.sups" horiz-adv-x="361" 
d="M335 397v-56h-309v48l218 302h-213v57h294v-49l-218 -302h228z" />
    <glyph glyph-name="zero.onum" horiz-adv-x="645" 
d="M463.5 564q60.5 -37 93 -105.5t32.5 -162.5q0 -93 -32.5 -162t-93 -106t-141.5 -37t-141 37t-92.5 106t-32.5 162q0 94 32.5 162.5t92.5 105.5t141 37t141.5 -37zM188 125q49 -62 134 -62q86 0 135 62t49 171t-49 171t-135 62q-85 0 -134 -62t-49 -171t49 -171z" />
    <glyph glyph-name="one.onum" horiz-adv-x="369" 
d="M195 484l-143 -112l-37 63l200 155h60v-590h-80v484z" />
    <glyph glyph-name="two.onum" horiz-adv-x="535" 
d="M433 547.5q54 -51.5 54 -144.5q0 -68 -38 -118t-108 -103l-145 -109h301v-73h-438v63l219 162q43 32 68.5 55t42.5 53.5t17 68.5q0 61 -33 93t-97 32q-66 0 -102 -40.5t-38 -112.5l-81 4q2 104 60.5 162.5t160.5 58.5q103 0 157 -51.5z" />
    <glyph glyph-name="three.onum" horiz-adv-x="555" 
d="M431 544.5q57 -54.5 57 -148.5q0 -63 -30.5 -106.5t-77.5 -59.5q57 -14 92 -60.5t35 -117.5q0 -101 -63 -160t-167 -59q-106 0 -166 57.5t-68 160.5l82 4q8 -71 46 -110.5t106 -39.5q69 0 108.5 39.5t39.5 108.5q0 68 -42 104t-113 36h-73v71h72q61 0 99 36t38 96
q0 62 -35.5 96.5t-95.5 34.5q-62 0 -98.5 -37.5t-40.5 -104.5l-81 5q5 98 62.5 153.5t157.5 55.5q99 0 156 -54.5z" />
    <glyph glyph-name="four.onum" horiz-adv-x="595" 
d="M569 27h-135v-185h-75v185h-333v66l343 497h65v-491h135v-72zM359 99v352l-246 -352h246z" />
    <glyph glyph-name="five.onum" horiz-adv-x="558" 
d="M402.5 271.5q50.5 -27.5 78.5 -79.5t28 -123q0 -70 -27.5 -123.5t-80 -83t-124.5 -29.5q-104 0 -164 56.5t-68 155.5l82 5q8 -69 45.5 -107t104.5 -38q72 0 112 45.5t40 117.5q0 71 -41 114.5t-108 43.5q-39 0 -70.5 -12t-61.5 -36h-76v412h409v-72h-328v-261
q58 42 134 42q65 0 115.5 -27.5z" />
    <glyph glyph-name="six.onum" horiz-adv-x="590" 
d="M169.5 20.5q-56.5 29.5 -89 84.5t-32.5 127q0 86 50 155l274 361h96l-212 -280q30 5 55 5q67 -2 120 -33t83.5 -84.5t30.5 -123.5q0 -72 -32.5 -127t-88.5 -84.5t-127 -29.5t-127.5 29.5zM177 109.5q46 -46.5 120 -46.5q72 0 118.5 47t46.5 124q0 79 -46.5 125t-118.5 46
q-87 0 -132 -59q-34 -42 -34 -112q0 -78 46 -124.5z" />
    <glyph glyph-name="seven.onum" horiz-adv-x="539" 
d="M66 -158l360 676h-402v72h492v-66l-360 -682h-90z" />
    <glyph glyph-name="eight.onum" horiz-adv-x="597" 
d="M411.5 733.5q50.5 -23.5 80 -68.5t29.5 -106q0 -59 -29 -102t-73 -63q52 -21 85.5 -70t33.5 -116q0 -66 -31 -115.5t-85.5 -75.5t-123.5 -26t-123.5 26t-85.5 75.5t-31 115.5q0 67 33 115.5t85 70.5q-45 20 -73 63t-28 102q0 61 28.5 106t79.5 68.5t115 23.5
q63 0 113.5 -23.5zM184.5 103q45.5 -40 113.5 -40q69 0 114 40t45 107q0 68 -44.5 107t-114.5 39q-69 0 -114 -39t-45 -107q0 -67 45.5 -107zM196.5 459.5q40.5 -35.5 102.5 -35.5q61 0 100.5 35.5t39.5 94.5q0 60 -39.5 95.5t-100.5 35.5q-62 0 -102.5 -35.5t-40.5 -95.5
q0 -59 40.5 -94.5z" />
    <glyph glyph-name="nine.onum" horiz-adv-x="590" 
d="M420.5 569.5q56.5 -29.5 89 -84t32.5 -126.5q0 -87 -51 -156l-273 -361h-96l212 280q-24 -3 -48 -3q-69 0 -124 29.5t-86 84t-31 126.5t32.5 126.5t89 84t126.5 29.5q71 0 127.5 -29.5zM174 231.5q46 -45.5 119 -45.5q86 0 132 58q34 45 34 112q0 78 -46.5 124.5
t-119.5 46.5q-72 0 -118.5 -46.5t-46.5 -124.5q0 -79 46 -124.5z" />
    <glyph glyph-name="zero.slash" horiz-adv-x="644" 
d="M463 712.5q60 -44.5 92.5 -130.5t32.5 -208q0 -121 -32.5 -207.5t-92.5 -131t-141 -44.5t-141.5 44.5t-93 131t-32.5 207.5q0 122 32.5 208t93 130.5t141.5 44.5t141 -44.5zM181 161l251 478q-43 46 -111 46q-89 0 -136 -79.5t-47 -231.5q0 -138 43 -213zM321 63
q90 0 137.5 79.5t47.5 231.5q0 135 -42 210l-251 -478q45 -43 108 -43z" />
    <glyph glyph-name="zero.subs" horiz-adv-x="370" 
d="M294.5 281q40.5 -55 40.5 -155t-40.5 -155.5t-109.5 -55.5t-109.5 55.5t-40.5 155.5t40.5 155t109.5 55t109.5 -55zM118.5 9q22.5 -40 66.5 -40t67 40t23 117t-23 116.5t-67 39.5q-89 0 -89 -156q0 -77 22.5 -117z" />
    <glyph glyph-name="one.subs" horiz-adv-x="220" 
d="M110 249l-73 -55l-27 47l122 90h39v-411h-61v329z" />
    <glyph glyph-name="two.subs" horiz-adv-x="313" 
d="M249 302.5q32 -33.5 32 -89.5q0 -43 -19 -79t-57 -75l-81 -85h162v-54h-253v42l128 134q32 32 46 58t14 61q0 30 -16.5 48.5t-46.5 18.5q-32 0 -50 -19t-19 -55l-58 4q1 58 34.5 91t91.5 33q60 0 92 -33.5z" />
    <glyph glyph-name="three.subs" horiz-adv-x="322" 
d="M248 306q32 -30 32 -83q0 -33 -16 -56.5t-38 -32.5q27 -8 45.5 -33.5t18.5 -63.5q0 -57 -35.5 -89.5t-94.5 -32.5q-61 0 -95 32.5t-36 88.5l60 5q3 -34 21 -53t49 -19q33 0 52 18.5t19 51.5t-21 50t-55 17h-40v50h40q28 0 48 18t20 46q0 29 -17.5 45.5t-45.5 16.5
q-29 0 -46.5 -17t-18.5 -49l-60 3q2 55 35 86t90 31t89 -30z" />
    <glyph glyph-name="four.subs" horiz-adv-x="345" 
d="M325 14h-66v-94h-59v94h-181v48l184 269h56v-263h66v-54zM200 68v180l-127 -180h127z" />
    <glyph glyph-name="five.subs" horiz-adv-x="320" 
d="M257.5 141q34.5 -34 34.5 -94t-35.5 -96t-97.5 -36q-58 0 -92 31.5t-37 86.5l59 3q4 -32 22 -49.5t49 -17.5q34 0 53 21t19 56q0 34 -20 54.5t-52 20.5q-34 0 -62 -23h-54v233h232v-54h-172v-119q31 17 63 17q56 0 90.5 -34z" />
    <glyph glyph-name="six.subs" horiz-adv-x="342" 
d="M71 -48q-40 37 -40 98q0 46 29 85l144 196h73l-112 -149q4 1 10 0.5t9 -0.5q56 -2 92 -38.5t36 -93.5q0 -61 -39.5 -98t-100.5 -37t-101 37zM114 -9q22 -22 57 -22q36 0 58 22t22 60t-22 59.5t-58 21.5q-37 0 -58 -22.5t-21 -58.5q0 -38 22 -60z" />
    <glyph glyph-name="seven.subs" horiz-adv-x="314" 
d="M41 -80l183 357h-204v54h274v-46l-186 -365h-67z" />
    <glyph glyph-name="eight.subs" horiz-adv-x="345" 
d="M263 306q36 -30 36 -81q0 -29 -13 -51t-33 -37q24 -15 40 -40.5t16 -60.5q0 -56 -38.5 -88.5t-98.5 -32.5q-59 0 -97.5 32.5t-38.5 88.5q0 35 15.5 60.5t39.5 40.5q-46 34 -46 88q0 51 36 81t91 30t91 -30zM117.5 -12.5q21.5 -18.5 54.5 -18.5t54.5 18.5t21.5 51.5
t-21.5 51.5t-54.5 18.5t-54.5 -18.5t-21.5 -51.5t21.5 -51.5zM122 171q20 -17 50 -17q31 0 50.5 17t19.5 47t-19.5 47t-50.5 17q-30 0 -50 -17t-20 -47t20 -47z" />
    <glyph glyph-name="nine.subs" horiz-adv-x="342" 
d="M272 299q40 -37 40 -98q0 -46 -29 -85l-144 -196h-73l112 149h-19q-56 2 -92 38.5t-36 93.5q0 61 39.5 98t99.5 37q62 0 102 -37zM114 140q22 -22 57 -22q38 0 59 23t21 59q0 38 -22 60t-58 22q-35 0 -57 -22t-22 -60t22 -60z" />
    <glyph glyph-name="zero.sups" horiz-adv-x="370" 
d="M294.5 763q40.5 -55 40.5 -155t-40.5 -155.5t-109.5 -55.5t-109.5 55.5t-40.5 155.5t40.5 155t109.5 55t109.5 -55zM185 452q44 0 67 39.5t23 116.5t-23 116.5t-67 39.5q-89 0 -89 -156t89 -156z" />
    <glyph glyph-name="one.sups" horiz-adv-x="220" 
d="M110 731l-73 -55l-27 47l122 90h39v-411h-61v329z" />
    <glyph glyph-name="two.sups" horiz-adv-x="313" 
d="M249 784.5q32 -33.5 32 -89.5q0 -43 -19 -79t-57 -75l-81 -85h162v-54h-253v42l128 134q32 32 46 58t14 61q0 30 -16.5 48.5t-46.5 18.5q-32 0 -50 -19t-19 -55l-58 4q1 58 34.5 91t91.5 33q60 0 92 -33.5z" />
    <glyph glyph-name="three.sups" horiz-adv-x="322" 
d="M248 788q32 -30 32 -83q0 -33 -16 -56.5t-38 -32.5q27 -8 45.5 -33.5t18.5 -63.5q0 -57 -35.5 -89.5t-94.5 -32.5q-61 0 -95 32.5t-36 88.5l60 5q3 -34 21 -52.5t49 -18.5q33 0 52 18t19 51t-21 50t-55 17h-40v50h40q28 0 48 18t20 46q0 29 -17.5 45.5t-45.5 16.5
q-29 0 -46.5 -17t-18.5 -49l-60 3q2 55 35 86t90 31t89 -30z" />
    <glyph glyph-name="four.sups" horiz-adv-x="345" 
d="M325 496h-66v-94h-59v94h-181v48l184 269h56v-263h66v-54zM200 550v180l-127 -180h127z" />
    <glyph glyph-name="five.sups" horiz-adv-x="320" 
d="M257.5 623q34.5 -34 34.5 -94q0 -59 -35.5 -95.5t-97.5 -36.5q-58 0 -92 31.5t-37 86.5l59 3q4 -32 22 -49t49 -17q34 0 53.5 21t19.5 55t-20 54.5t-53 20.5q-18 0 -32 -5.5t-30 -17.5h-54v233h232v-54h-172v-119q31 17 63 17q56 0 90.5 -34z" />
    <glyph glyph-name="six.sups" horiz-adv-x="342" 
d="M71 434q-40 37 -40 98q0 46 29 85l144 196h73l-112 -149h7q60 0 100 -36.5t40 -95.5q0 -61 -39.5 -98t-100.5 -37t-101 37zM114 473.5q22 -21.5 57 -21.5q36 0 58 21.5t22 59.5t-22 59.5t-58 21.5q-37 0 -58 -22.5t-21 -58.5q0 -38 22 -59.5z" />
    <glyph glyph-name="seven.sups" horiz-adv-x="314" 
d="M41 402l183 357h-204v54h274v-46l-186 -365h-67z" />
    <glyph glyph-name="eight.sups" horiz-adv-x="345" 
d="M263 788q36 -30 36 -81q0 -29 -13 -51t-33 -37q24 -15 40 -40.5t16 -60.5q0 -56 -38.5 -88.5t-98.5 -32.5q-59 0 -97.5 32.5t-38.5 88.5q0 35 15.5 60.5t39.5 40.5q-46 34 -46 88q0 51 36 81t91 30t91 -30zM117.5 470q21.5 -18 54.5 -18t54.5 18t21.5 51t-21.5 51.5
t-54.5 18.5t-54.5 -18.5t-21.5 -51.5t21.5 -51zM122 653q20 -17 50 -17q31 0 50.5 17t19.5 47t-19.5 47t-50.5 17q-30 0 -50 -17t-20 -47t20 -47z" />
    <glyph glyph-name="nine.sups" horiz-adv-x="342" 
d="M159 551q-56 3 -92 39t-36 93q0 61 39.5 98t99.5 37q62 0 102 -37t40 -98q0 -46 -29 -85l-144 -196h-73l112 149h-19zM114 622q22 -22 57 -22q38 0 59 23t21 59q0 38 -22 60t-58 22q-35 0 -57 -22t-22 -60t22 -60z" />
    <glyph glyph-name="zero.tnum" horiz-adv-x="650" 
d="M466 712.5q60 -44.5 92.5 -130.5t32.5 -208q0 -121 -32.5 -207.5t-92.5 -131t-141 -44.5q-82 0 -142 44.5t-92.5 131t-32.5 207.5q0 122 32.5 208t92.5 130.5t142 44.5q81 0 141 -44.5zM188 142.5q47 -79.5 136 -79.5t136.5 79.5t47.5 231.5t-47 231.5t-137 79.5
q-89 0 -136 -79.5t-47 -231.5t47 -231.5z" />
    <glyph glyph-name="one.tnum" horiz-adv-x="650" 
d="M561 0h-415v73h174v569l-154 -122l-38 62l213 166h60v-675h160v-73z" />
    <glyph glyph-name="two.tnum" horiz-adv-x="650" 
d="M483.5 701.5q55.5 -55.5 55.5 -153.5q0 -87 -36.5 -153.5t-111.5 -142.5l-175 -179h334v-73h-441v64l221 230q70 75 99 128t29 123q0 64 -33.5 102t-95.5 38q-68 0 -103.5 -41t-36.5 -116l-82 4q2 106 59.5 165.5t161.5 59.5q100 0 155.5 -55.5z" />
    <glyph glyph-name="three.tnum" horiz-adv-x="650" 
d="M479 702.5q57 -54.5 57 -148.5q0 -63 -30.5 -106.5t-77.5 -59.5q57 -14 92.5 -60t35.5 -118q0 -67 -29 -116.5t-81 -76t-120 -26.5q-107 0 -167 57.5t-67 160.5l81 4q8 -71 46.5 -110.5t106.5 -39.5t107.5 40t39.5 108t-42.5 104t-112.5 36h-73v71h71q61 0 99.5 36
t38.5 96q0 62 -35 96.5t-96 34.5q-62 0 -98 -37.5t-40 -104.5l-82 5q5 98 63 153.5t158 55.5q98 0 155 -54.5z" />
    <glyph glyph-name="four.tnum" horiz-adv-x="650" 
d="M593 185h-136v-185h-74v185h-333v66l343 497h64v-491h136v-72zM383 257v352l-246 -352h246z" />
    <glyph glyph-name="five.tnum" horiz-adv-x="650" 
d="M446 429.5q50 -27.5 78.5 -79.5t28.5 -123q0 -69 -27.5 -122.5t-80 -83.5t-124.5 -30q-104 0 -164 56.5t-68 155.5l81 5q8 -68 46 -106.5t105 -38.5q72 0 112 45.5t40 117.5q0 71 -41 114.5t-109 43.5q-38 0 -69.5 -12t-62.5 -36h-75v412h409v-72h-329v-261q60 42 135 42
q65 0 115 -27.5z" />
    <glyph glyph-name="six.tnum" horiz-adv-x="650" 
d="M194.5 20.5q-56.5 29.5 -89 84.5t-32.5 127q0 86 50 155l274 361h96l-211 -280q21 5 55 5q67 -3 120 -33.5t83 -84t30 -123.5q0 -72 -32.5 -127t-88.5 -84.5t-127 -29.5t-127.5 29.5zM202.5 109.5q46.5 -46.5 119.5 -46.5q72 0 118.5 47t46.5 124q0 79 -46.5 125
t-118.5 46q-77 0 -121.5 -47.5t-44.5 -123.5q0 -78 46.5 -124.5z" />
    <glyph glyph-name="seven.tnum" horiz-adv-x="650" 
d="M118 -1l360 676h-403v72h492v-66l-359 -682h-90z" />
    <glyph glyph-name="eight.tnum" horiz-adv-x="650" 
d="M438.5 733.5q50.5 -23.5 79.5 -68.5t29 -106q0 -59 -28.5 -102t-72.5 -63q52 -21 85.5 -70t33.5 -116q0 -66 -31.5 -115.5t-86 -75.5t-123.5 -26q-68 0 -122.5 26t-85.5 75.5t-31 115.5q0 67 33 115.5t85 70.5q-45 20 -73.5 63t-28.5 102q0 61 29 106t79.5 68.5
t114.5 23.5t114.5 -23.5zM211 103q45 -40 113 -40q69 0 114 40t45 107q0 68 -44.5 107t-114.5 39q-69 0 -113.5 -39t-44.5 -107q0 -67 45 -107zM223 459.5q40 -35.5 102 -35.5q61 0 101.5 35.5t40.5 94.5q0 60 -40.5 95.5t-101.5 35.5q-62 0 -102 -35.5t-40 -95.5
q0 -59 40 -94.5z" />
    <glyph glyph-name="nine.tnum" horiz-adv-x="650" 
d="M455.5 727.5q56.5 -29.5 89 -84t32.5 -126.5q0 -87 -50 -156l-273 -361h-96l210 280q-28 -4 -44 -4q-69 0 -124.5 30t-87.5 84.5t-32 126.5t32.5 126.5t89 84t126.5 29.5q71 0 127.5 -29.5zM209.5 390q46.5 -46 118.5 -46q77 0 122 47t45 123q0 78 -46.5 124.5
t-120.5 46.5q-72 0 -118.5 -47t-46.5 -124q0 -78 46.5 -124z" />
    <glyph glyph-name="zero.dnom" horiz-adv-x="370" 
d="M294.5 361q40.5 -55 40.5 -155t-40.5 -155.5t-109.5 -55.5t-109.5 55.5t-40.5 155.5t40.5 155t109.5 55t109.5 -55zM185 50q44 0 67 39.5t23 116.5t-23 116.5t-67 39.5q-89 0 -89 -156t89 -156z" />
    <glyph glyph-name="one.dnom" horiz-adv-x="220" 
d="M110 329l-73 -55l-27 47l122 90h39v-411h-61v329z" />
    <glyph glyph-name="two.dnom" horiz-adv-x="313" 
d="M249 382.5q32 -33.5 32 -89.5q0 -43 -19 -79t-57 -75l-81 -85h162v-54h-253v42l128 134q32 32 46 58t14 61q0 30 -16.5 48.5t-46.5 18.5q-32 0 -50 -19t-19 -55l-58 4q1 58 34.5 91t91.5 33q60 0 92 -33.5z" />
    <glyph glyph-name="three.dnom" horiz-adv-x="322" 
d="M248 386q32 -30 32 -83q0 -33 -16 -56.5t-38 -32.5q27 -8 45.5 -33.5t18.5 -63.5q0 -57 -35.5 -89.5t-94.5 -32.5q-61 0 -95 32.5t-36 88.5l60 5q3 -34 21 -52.5t49 -18.5q33 0 52 18t19 51t-21 50t-55 17h-40v50h40q28 0 48 18t20 46q0 29 -17.5 45.5t-45.5 16.5
q-29 0 -46.5 -17t-18.5 -49l-60 3q2 55 35 86t90 31t89 -30z" />
    <glyph glyph-name="four.dnom" horiz-adv-x="345" 
d="M325 94h-66v-94h-59v94h-181v48l184 269h56v-263h66v-54zM200 148v180l-127 -180h127z" />
    <glyph glyph-name="five.dnom" horiz-adv-x="320" 
d="M257.5 221q34.5 -34 34.5 -94q0 -59 -35.5 -95.5t-97.5 -36.5q-58 0 -92 31.5t-37 86.5l59 3q4 -32 22 -49t49 -17q34 0 53 21t19 55t-20 54.5t-52 20.5t-62 -23h-54v233h232v-54h-172v-119q31 17 63 17q56 0 90.5 -34z" />
    <glyph glyph-name="six.dnom" horiz-adv-x="342" 
d="M71 32q-40 37 -40 98q0 46 29 85l144 196h73l-112 -149h7q60 0 100 -36.5t40 -95.5q0 -61 -39.5 -98t-100.5 -37t-101 37zM114 71.5q22 -21.5 57 -21.5q36 0 58 21.5t22 59.5t-22 59.5t-58 21.5q-37 0 -58 -22.5t-21 -58.5q0 -38 22 -59.5z" />
    <glyph glyph-name="seven.dnom" horiz-adv-x="314" 
d="M41 0l183 357h-204v54h274v-46l-186 -365h-67z" />
    <glyph glyph-name="eight.dnom" horiz-adv-x="345" 
d="M263 386q36 -30 36 -81q0 -29 -13 -51t-33 -37q24 -15 40 -40.5t16 -60.5q0 -56 -38.5 -88.5t-98.5 -32.5q-59 0 -97.5 32.5t-38.5 88.5q0 35 15.5 60.5t39.5 40.5q-46 34 -46 88q0 51 36 81t91 30t91 -30zM117.5 68q21.5 -18 54.5 -18t54.5 18t21.5 51t-21.5 51.5
t-54.5 18.5t-54.5 -18.5t-21.5 -51.5t21.5 -51zM122 251q20 -17 50 -17q31 0 50.5 17t19.5 47t-19.5 47t-50.5 17q-30 0 -50 -17t-20 -47t20 -47z" />
    <glyph glyph-name="nine.dnom" horiz-adv-x="342" 
d="M272 379q40 -37 40 -98q0 -46 -29 -85l-144 -196h-73l112 149h-19q-56 2 -92 38.5t-36 93.5q0 61 39.5 98t99.5 37q62 0 102 -37zM114 220q22 -22 57 -22q38 0 59 23t21 59q0 38 -22 60t-58 22q-35 0 -57 -22t-22 -60t22 -60z" />
    <glyph glyph-name="zero.numr" horiz-adv-x="370" 
d="M294.5 682q40.5 -55 40.5 -155t-40.5 -155.5t-109.5 -55.5t-109.5 55.5t-40.5 155.5t40.5 155t109.5 55t109.5 -55zM185 371q44 0 67 39.5t23 116.5t-23 116.5t-67 39.5q-89 0 -89 -156t89 -156z" />
    <glyph glyph-name="one.numr" horiz-adv-x="220" 
d="M110 651l-73 -55l-27 47l122 90h39v-411h-61v329z" />
    <glyph glyph-name="two.numr" horiz-adv-x="313" 
d="M249 704.5q32 -33.5 32 -89.5q0 -44 -19 -79t-57 -75l-81 -85h162v-54h-253v42l128 133q31 31 45.5 58t14.5 61q0 31 -16.5 49.5t-46.5 18.5q-32 0 -50 -19t-19 -55l-58 4q1 58 34.5 91t91.5 33q60 0 92 -33.5z" />
    <glyph glyph-name="three.numr" horiz-adv-x="322" 
d="M248 708q32 -30 32 -83q0 -33 -16 -56.5t-38 -32.5q27 -8 45.5 -34t18.5 -64q0 -56 -35.5 -88.5t-94.5 -32.5q-61 0 -95 32.5t-36 88.5l60 5q3 -34 21 -53t49 -19q33 0 52 18.5t19 51.5t-21 50t-55 17h-40v50h40q28 0 48 17.5t20 46.5t-17.5 45.5t-45.5 16.5
q-29 0 -46.5 -17t-18.5 -49l-60 3q2 55 35 86t90 31t89 -30z" />
    <glyph glyph-name="four.numr" horiz-adv-x="345" 
d="M325 416h-66v-94h-59v94h-181v47l184 270h56v-263h66v-54zM200 470v179l-127 -179h127z" />
    <glyph glyph-name="five.numr" horiz-adv-x="320" 
d="M257.5 543q34.5 -34 34.5 -94q0 -59 -35.5 -95.5t-97.5 -36.5q-58 0 -92 31.5t-37 86.5l59 3q8 -66 71 -66q34 0 53 21t19 55t-20 54.5t-52 20.5q-34 0 -62 -23h-54v233h232v-54h-172v-119q31 17 63 17q56 0 90.5 -34z" />
    <glyph glyph-name="six.numr" horiz-adv-x="342" 
d="M71 354q-40 37 -40 98q0 46 29 85l144 196h73l-112 -149h19q56 -2 92 -38.5t36 -93.5q0 -61 -39.5 -98t-100.5 -37t-101 37zM114 393q22 -22 57 -22q36 0 58 22t22 60t-22 59.5t-58 21.5q-37 0 -58 -22.5t-21 -58.5q0 -38 22 -60z" />
    <glyph glyph-name="seven.numr" horiz-adv-x="314" 
d="M41 322l183 357h-204v54h274v-46l-186 -365h-67z" />
    <glyph glyph-name="eight.numr" horiz-adv-x="345" 
d="M263 707.5q36 -30.5 36 -81.5q0 -28 -13 -50.5t-33 -36.5q24 -15 40 -40.5t16 -60.5q0 -56 -38.5 -88.5t-98.5 -32.5q-59 0 -97.5 32.5t-38.5 88.5q0 35 15.5 60.5t39.5 40.5q-46 34 -46 87q0 51 36 81.5t91 30.5t91 -30.5zM117.5 389.5q21.5 -18.5 54.5 -18.5t54.5 18.5
t21.5 50.5q0 33 -21.5 51.5t-54.5 18.5t-54.5 -18.5t-21.5 -51.5q0 -32 21.5 -50.5zM122 573q20 -17 50 -17q31 0 50.5 17t19.5 47t-19.5 47t-50.5 17q-30 0 -50 -17t-20 -47t20 -47z" />
    <glyph glyph-name="nine.numr" horiz-adv-x="342" 
d="M272 701q40 -37 40 -98q0 -46 -29 -85l-144 -196h-73l112 149q-7 -1 -11.5 -0.5t-7.5 0.5q-56 2 -92 38.5t-36 93.5q0 61 39.5 98t99.5 37q62 0 102 -37zM114 542q22 -22 57 -22q38 0 59 23t21 59q0 38 -22 60t-58 22q-35 0 -57 -22t-22 -60t22 -60z" />
    <glyph glyph-name="periodcentered.cap" horiz-adv-x="209" 
d="M138.5 446.5q15.5 -15.5 15.5 -38.5t-15.5 -38.5t-39.5 -15.5q-23 0 -38 15.5t-15 38.5t15 38.5t38 15.5q24 0 39.5 -15.5z" />
    <glyph glyph-name="exclamdown.cap" horiz-adv-x="273" 
d="M98 664.5q-16 15.5 -16 38.5t16 38.5t39 15.5t38 -15.5t15 -38.5t-15.5 -38.5t-37.5 -15.5q-23 0 -39 15.5zM97 550h80l4 -550h-89z" />
    <glyph glyph-name="questiondown.cap" horiz-adv-x="497" 
d="M215 664.5q-16 15.5 -16 38.5t16 38.5t39 15.5t38.5 -15.5t15.5 -38.5q0 -22 -15.5 -38t-38.5 -16t-39 15.5zM47 303.5q26 38.5 80 77.5q47 35 65.5 65.5t18.5 76.5v27h82v-31q0 -51 -22 -88.5t-74 -78.5q-48 -35 -70.5 -67.5t-22.5 -79.5q0 -63 38 -103t106 -40
q67 0 105 35t44 98l81 -5q-6 -93 -67.5 -147t-162.5 -54q-71 0 -122 27.5t-78 76t-27 111.5q0 61 26 99.5z" />
    <glyph glyph-name="braceleft.cap" horiz-adv-x="243" 
d="M157.5 682.5q-18.5 -22.5 -18.5 -69.5q0 -36 8 -75q10 -50 10 -84q0 -33 -12 -54.5t-41 -27.5q29 -6 41 -26.5t12 -54.5q0 -35 -10 -85q-8 -39 -8 -75q0 -47 18.5 -69.5t56.5 -22.5h6v-64h-6q-71 0 -111 39.5t-40 113.5q0 38 8 73q14 60 14 85q0 28 -13 41.5t-43 13.5h-8
v64h8q30 0 43 13.5t13 40.5t-14 86q-8 35 -8 72q0 74 40 113t111 39h6v-64h-6q-38 0 -56.5 -22.5z" />
    <glyph glyph-name="braceright.cap" horiz-adv-x="243" 
d="M140 730.5q40 -38.5 40 -111.5q0 -33 -9 -74q-13 -63 -13 -85q0 -27 13 -41t43 -14h8v-64h-8q-30 0 -43 -14t-13 -42q0 -23 13 -84q9 -40 9 -74q0 -74 -40 -113t-111 -39h-6v64h6q39 0 57.5 23t18.5 70q0 29 -8 74q-11 55 -11 85q0 70 53 81q-53 12 -53 82q0 29 11 84
q8 45 8 74q0 47 -18.5 70t-57.5 23h-6v64h6q71 0 111 -38.5z" />
    <glyph glyph-name="bracketleft.cap" horiz-adv-x="258" 
d="M136 39h100v-64h-177v795h177v-64h-100v-667z" />
    <glyph glyph-name="bracketright.cap" horiz-adv-x="264" 
d="M23 39h100v667h-100v64h177v-795h-177v64z" />
    <glyph glyph-name="parenleft.cap" horiz-adv-x="249" 
d="M148.5 570.5q-30.5 -97.5 -30.5 -208.5q0 -110 30.5 -207t79.5 -175l-67 -25q-54 81 -87 185t-33 222t33 222t87 185l67 -24q-49 -77 -79.5 -174.5z" />
    <glyph glyph-name="parenright.cap" horiz-adv-x="246" 
d="M174.5 584.5q33.5 -104.5 33.5 -222.5t-33.5 -222.5t-87.5 -184.5l-66 25q49 78 79.5 175t30.5 207q0 111 -30.5 208.5t-79.5 174.5l66 24q54 -80 87.5 -184.5z" />
    <glyph glyph-name="emdash.cap" horiz-adv-x="794" 
d="M45 413h704v-73h-704v73z" />
    <glyph glyph-name="endash.cap" horiz-adv-x="562" 
d="M45 413h472v-73h-472v73z" />
    <glyph glyph-name="hyphen.cap" horiz-adv-x="402" 
d="M45 413h312v-73h-312v73z" />
    <glyph glyph-name="guillemotleft.cap" horiz-adv-x="523" 
d="M257 204l-61 -39l-181 217l181 217l61 -39l-154 -178zM441 599l61 -39l-154 -178l154 -178l-61 -39l-181 217z" />
    <glyph glyph-name="guillemotright.cap" horiz-adv-x="523" 
d="M21 204l154 178l-154 178l61 39l181 -217l-181 -217zM419 382l-154 178l61 39l182 -217l-182 -217l-61 39z" />
    <glyph glyph-name="guilsinglleft.cap" horiz-adv-x="302" 
d="M281 216l-56 -49l-210 215l210 216l56 -49l-171 -167z" />
    <glyph glyph-name="guilsinglright.cap" horiz-adv-x="302" 
d="M21 216l171 166l-171 167l55 49l211 -216l-211 -215z" />
    <glyph glyph-name="emdash_guilsinglright" horiz-adv-x="848" 
d="M528 76l156 150h-639v64h638l-155 149l55 49l230 -230l-230 -231z" />
    <glyph glyph-name="endash_guilsinglright" horiz-adv-x="588" 
d="M269 76l156 150h-380v64h378l-154 149l55 49l229 -230l-229 -231z" />
    <glyph glyph-name="guilsinglleft_emdash" horiz-adv-x="848" 
d="M803 290v-64h-641l157 -150l-54 -49l-230 231l230 230l54 -49l-155 -149h639z" />
    <glyph glyph-name="guilsinglleft_endash" horiz-adv-x="588" 
d="M543 290v-64h-381l157 -150l-54 -49l-230 231l230 230l54 -49l-155 -149h379z" />
    <glyph glyph-name="at.cap" horiz-adv-x="798" 
d="M216 63.5q-81 45.5 -127.5 126.5t-46.5 182t46 182t127.5 127.5t183.5 46.5q101 0 182.5 -46.5t128 -127.5t46.5 -182q0 -96 -37 -148.5t-101 -52.5q-37 0 -60.5 17.5t-30.5 49.5q-45 -70 -144 -70q-55 0 -97.5 25t-66.5 72t-24 110q0 97 52 152.5t136 55.5
q53 0 88.5 -19t53.5 -52v60h57v-298q0 -58 49 -58q37 0 58.5 41t21.5 115q0 89 -40.5 161t-112 113t-159.5 41q-90 0 -161 -41t-111.5 -113t-40.5 -161q0 -90 41 -161t112 -110.5t157 -39.5q57 0 101 12.5t85 38.5l13 -41q-43 -27 -89.5 -40t-109.5 -13q-99 0 -180 45.5z
M293.5 261.5q37.5 -40.5 98.5 -40.5q60 0 95 36.5t35 105.5v25q0 69 -35 105.5t-95 36.5q-61 0 -98.5 -40.5t-37.5 -114.5q0 -73 37.5 -113.5z" />
    <glyph glyph-name="acute.case" horiz-adv-x="299" 
d="M170 937h108l-187 -140h-73z" />
    <glyph glyph-name="breve.case" horiz-adv-x="348" 
d="M283.5 841.5q-41.5 -33.5 -110.5 -33.5q-70 0 -111 33.5t-41 94.5h64q0 -34 24 -54t64 -20t64 20t24 54h64q0 -61 -41.5 -94.5z" />
    <glyph glyph-name="caron.case" horiz-adv-x="351" 
d="M19 938h67l89 -93l89 93h67l-119 -141h-73z" />
    <glyph glyph-name="circumflex.case" horiz-adv-x="351" 
d="M175 890l-89 -93h-67l120 141h73l119 -141h-67z" />
    <glyph glyph-name="dieresis.case" horiz-adv-x="281" 
d="M103.5 902q14.5 -14 14.5 -33q0 -20 -14.5 -33.5t-34.5 -13.5t-33.5 13.5t-13.5 33.5t14 33.5t33 13.5q20 0 34.5 -14zM179 902.5q14 13.5 33 13.5q20 0 34 -13.5t14 -33.5t-14 -33.5t-34 -13.5t-33.5 13.5t-13.5 33.5t14 33.5z" />
    <glyph glyph-name="dotaccent.case" horiz-adv-x="148" 
d="M112.5 903.5q15.5 -15.5 15.5 -37.5t-15.5 -38t-37.5 -16t-38 16t-16 38t16 37.5t38 15.5t37.5 -15.5z" />
    <glyph glyph-name="grave.case" horiz-adv-x="299" 
d="M21 937h108l151 -140h-74z" />
    <glyph glyph-name="hungarumlaut.case" horiz-adv-x="335" 
d="M78 945h73l-72 -145h-62zM243 945h74l-72 -145h-62z" />
    <glyph glyph-name="macron.case" horiz-adv-x="291" 
d="M17 899h258v-60h-258v60z" />
    <glyph glyph-name="ring.case" horiz-adv-x="247" 
d="M196 960.5q29 -27.5 29 -69.5t-29 -69t-72 -27t-72.5 27t-29.5 69t29.5 69.5t72.5 27.5t72 -27.5zM84 852q16 -15 40 -15t40 15t16 39t-16 39.5t-40 15.5t-40 -15.5t-16 -39.5t16 -39z" />
    <glyph glyph-name="tilde.case" horiz-adv-x="357" 
d="M144 925.5q16 -8.5 40 -25.5q18 -14 31 -21t28 -7q24 0 37 15.5t14 39.5h45q2 -47 -22 -80.5t-65 -33.5q-22 0 -38 8.5t-40 25.5q-18 14 -31 21t-28 7q-24 0 -37 -15.5t-13 -39.5h-46q-2 47 22 80.5t65 33.5q22 0 38 -8.5z" />
    <glyph glyph-name="anneau" horiz-adv-x="581" 
d="M422.5 726q59.5 -33 93.5 -90.5t34 -128.5t-34 -128.5t-93.5 -91t-132.5 -33.5q-72 0 -131.5 33.5t-93.5 91t-34 128.5q0 70 34 128t93.5 91t131.5 33q73 0 132.5 -33zM92.5 393q29.5 -51 81.5 -80t116 -29t116 29t81.5 80t29.5 114t-29.5 113.5t-81.5 79.5t-116 29
t-116 -29t-81.5 -79.5t-29.5 -113.5t29.5 -114z" />
    </font>
</defs>
</svg>
