<svg width="80" height="56" viewBox="0 0 80 56" fill="none" xmlns="http://www.w3.org/2000/svg">
<path d="M70.8329 0.00467514H9.16709C6.81834 -0.0715011 4.53507 0.785789 2.81701 2.38891C1.09896 3.99203 0.0860539 6.2104 0 8.55849L0 47.4415C0.0860539 49.7896 1.09896 52.008 2.81701 53.6111C4.53507 55.2142 6.81834 56.0715 9.16709 55.9953H70.8329C73.1817 56.0715 75.4649 55.2142 77.183 53.6111C78.901 52.008 79.9139 49.7896 80 47.4415V8.55849C79.9139 6.2104 78.901 3.99203 77.183 2.38891C75.4649 0.785789 73.1817 -0.0715011 70.8329 0.00467514ZM24.9993 12.4464C27.1345 12.3782 29.2099 13.1581 30.7715 14.6156C32.3332 16.0731 33.2542 18.0896 33.333 20.2241C33.2537 22.3584 32.3325 24.3744 30.7709 25.8315C29.2093 27.2886 27.1342 28.0682 24.9993 28C22.8644 28.0682 20.7893 27.2886 19.2277 25.8315C17.6661 24.3744 16.7449 22.3584 16.6656 20.2241C16.7444 18.0896 17.6654 16.0731 19.2271 14.6156C20.7888 13.1581 22.8641 12.3782 24.9993 12.4464ZM40 41.2197C39.9769 41.8603 39.7008 42.4657 39.2322 42.9031C38.7636 43.3406 38.1407 43.5745 37.4999 43.5536H12.5006C11.8598 43.5745 11.2369 43.3406 10.7683 42.9031C10.2996 42.4657 10.0235 41.8603 10.0005 41.2197V39.6638C10.0865 37.3157 11.0994 35.0973 12.8175 33.4942C14.5355 31.8911 16.8188 31.0338 19.1676 31.11H30.8329C33.1817 31.0338 35.4649 31.8911 37.183 33.4942C38.901 35.0973 39.9139 37.3157 40 39.6638V41.2197ZM67.4994 43.5536H49.1652C48.8442 43.5775 48.5218 43.5349 48.218 43.4284C47.9142 43.322 47.6357 43.1541 47.3997 42.9351C47.1638 42.7162 46.9757 42.4509 46.847 42.1559C46.7183 41.8609 46.6519 41.5425 46.6519 41.2206C46.6519 40.8988 46.7183 40.5804 46.847 40.2854C46.9757 39.9904 47.1638 39.7251 47.3997 39.5061C47.6357 39.2872 47.9142 39.1192 48.218 39.0128C48.5218 38.9064 48.8442 38.8638 49.1652 38.8877H67.4994C67.8204 38.8638 68.1429 38.9064 68.4467 39.0128C68.7505 39.1192 69.029 39.2872 69.2649 39.5061C69.5008 39.7251 69.689 39.9904 69.8177 40.2854C69.9464 40.5804 70.0128 40.8988 70.0128 41.2206C70.0128 41.5425 69.9464 41.8609 69.8177 42.1559C69.689 42.4509 69.5008 42.7162 69.2649 42.9351C69.029 43.1541 68.7505 43.322 68.4467 43.4284C68.1429 43.5349 67.8204 43.5775 67.4994 43.5536ZM67.4994 31.11H49.1652C48.8442 31.1339 48.5218 31.0913 48.218 30.9849C47.9142 30.8784 47.6357 30.7105 47.3997 30.4915C47.1638 30.2726 46.9757 30.0073 46.847 29.7123C46.7183 29.4173 46.6519 29.0989 46.6519 28.777C46.6519 28.4552 46.7183 28.1368 46.847 27.8418C46.9757 27.5468 47.1638 27.2815 47.3997 27.0625C47.6357 26.8436 47.9142 26.6756 48.218 26.5692C48.5218 26.4628 48.8442 26.4202 49.1652 26.4441H67.4994C67.8204 26.4202 68.1429 26.4628 68.4467 26.5692C68.7505 26.6756 69.029 26.8436 69.2649 27.0625C69.5008 27.2815 69.689 27.5468 69.8177 27.8418C69.9464 28.1368 70.0128 28.4552 70.0128 28.777C70.0128 29.0989 69.9464 29.4173 69.8177 29.7123C69.689 30.0073 69.5008 30.2726 69.2649 30.4915C69.029 30.7105 68.7505 30.8784 68.4467 30.9849C68.1429 31.0913 67.8204 31.1339 67.4994 31.11ZM67.4994 18.6682H49.1652C48.5245 18.6891 47.9015 18.4552 47.4329 18.0178C46.9643 17.5803 46.6882 16.975 46.6651 16.3344C46.6882 15.6937 46.9643 15.0884 47.4329 14.6509C47.9015 14.2135 48.5245 13.9796 49.1652 14.0005H67.4994C68.1402 13.9796 68.7631 14.2135 69.2318 14.6509C69.7004 15.0884 69.9765 15.6937 69.9995 16.3344C69.9765 16.975 69.7004 17.5803 69.2318 18.0178C68.7631 18.4552 68.1402 18.6891 67.4994 18.6682Z" fill="url(#paint0_linear_43_113)"/>
<defs>
<linearGradient id="paint0_linear_43_113" x1="0" y1="0" x2="80" y2="56" gradientUnits="userSpaceOnUse">
<stop stop-color="#47BA47"/>
<stop offset="1" stop-color="#56E156"/>
</linearGradient>
</defs>
</svg>
