<svg width="18" height="19" viewBox="0 0 18 19" fill="none" xmlns="http://www.w3.org/2000/svg">
<path d="M0.00128471 9.21374C0.00128471 3.91737 3.9295 0 9.00064 0C14.0718 0 18 3.91737 18 9.21374C18 14.5071 14.0718 18.4275 9.00064 18.4275C8.09227 18.4275 7.21652 18.3004 6.39927 18.0624C6.23957 18.0165 6.06973 18.0308 5.91892 18.1028L4.1258 18.9344C4.01761 18.9852 3.89925 19.007 3.78116 18.998C3.66308 18.989 3.54891 18.9495 3.44873 18.8829C3.34856 18.8163 3.26546 18.7247 3.20678 18.6162C3.14809 18.5077 3.11563 18.3856 3.11225 18.2607L3.05938 16.5665C3.05598 16.4646 3.03322 16.3645 2.99245 16.2721C2.95167 16.1797 2.89372 16.0969 2.82202 16.0286C1.91976 15.1698 1.20141 14.1177 0.714909 12.9427C0.228403 11.7676 -0.015074 10.4966 0.000722252 9.21434L0.00128471 9.21374ZM6.24121 7.47915L3.60159 11.913C3.3378 12.3303 3.84176 12.8159 4.21692 12.5066L7.05847 10.2342C7.15176 10.1574 7.26667 10.1157 7.38498 10.1157C7.50328 10.1157 7.61819 10.1574 7.71148 10.2342L9.8089 11.8975C9.95839 12.0146 10.1291 12.0979 10.3105 12.1423C10.4918 12.1867 10.6799 12.1912 10.863 12.1555C11.046 12.1198 11.2201 12.0447 11.3745 11.9348C11.5288 11.825 11.6601 11.6828 11.7601 11.517L14.3997 7.0832C14.6635 6.66588 14.1595 6.18979 13.7844 6.48957L10.9428 8.76199C10.8511 8.83865 10.7375 8.88036 10.6205 8.88036C10.5035 8.88036 10.39 8.83865 10.2982 8.76199L8.19801 7.09864C8.04873 6.97953 7.87759 6.89451 7.69548 6.84899C7.51338 6.80347 7.32429 6.79844 7.14024 6.83423C6.95619 6.87002 6.78122 6.94584 6.62644 7.05687C6.47167 7.1679 6.34048 7.31171 6.24121 7.47915Z" fill="white" fill-opacity="0.8"/>
</svg>
