<svg width="57" height="56" viewBox="0 0 57 56" fill="none" xmlns="http://www.w3.org/2000/svg">
<path d="M54.7737 45.061C55.3611 45.0637 55.9257 44.8347 56.3431 44.4245C56.7606 44.0142 56.9969 43.4563 57 42.8732V40.5827C56.9843 38.072 55.9661 35.6699 54.1686 33.9032C52.3711 32.1365 49.9411 31.1494 47.4114 31.1584H46.0041C46.789 29.8318 47.2029 28.3212 47.2028 26.7828V11.5624C47.1997 10.9793 46.9634 10.4214 46.546 10.0111C46.1285 9.60087 45.564 9.37193 44.9765 9.37461H37.5159V8.49949C37.484 6.23443 36.555 4.07285 34.93 2.48229C33.3049 0.891715 31.1142 0 28.8319 0C26.5495 0 24.3589 0.891715 22.7338 2.48229C21.1087 4.07285 20.1798 6.23443 20.1479 8.49949V9.37461H12.0226C11.4351 9.37193 10.8706 9.60087 10.4531 10.0111C10.0357 10.4214 9.7994 10.9793 9.79626 11.5624V26.3301C8.52369 25.6714 7.07235 25.4335 5.65399 25.6512C4.23562 25.8689 2.92444 26.5307 1.91173 27.5401C1.29791 28.1529 0.812858 28.8807 0.484732 29.6811C0.156605 30.4815 -0.00805747 31.3387 0.000303127 32.2028C0.00866373 33.0669 0.189881 33.9207 0.533435 34.7147C0.876988 35.5087 1.37603 36.2271 2.0016 36.8281L2.04738 36.8719L13.3926 47.1949C19.3591 52.8506 27.2935 56.0045 35.5439 56H54.7737C55.3583 56 55.919 55.7695 56.3323 55.3592C56.7457 54.9489 56.978 54.3924 56.978 53.8122C56.978 53.232 56.7457 52.6755 56.3323 52.2652C55.919 51.8549 55.3583 51.6244 54.7737 51.6244H35.5439C28.4338 51.6439 21.5939 48.922 16.4667 44.0327L16.4311 43.9991L5.09946 33.6844C4.89481 33.4835 4.73207 33.2445 4.62054 32.9811C4.50901 32.7177 4.45088 32.4351 4.44946 32.1494C4.44804 31.8637 4.50337 31.5805 4.61228 31.316C4.7212 31.0515 4.88156 30.811 5.0842 30.6081C5.28937 30.4017 5.53349 30.2376 5.80261 30.125C6.07173 30.0124 6.36057 29.9535 6.65262 29.9517H6.67467C7.25663 29.9499 7.81609 30.1747 8.23292 30.5778L8.29057 30.6316L21.1432 42.1781C21.7702 42.8456 22.5291 43.3776 23.3725 43.741C24.2159 44.1044 25.1257 44.2914 26.0452 44.2902H37.1785C37.7631 44.2902 38.3237 44.0597 38.7371 43.6494C39.1505 43.2391 39.3827 42.6827 39.3827 42.1024C39.3827 41.5222 39.1505 40.9657 38.7371 40.5554C38.3237 40.1451 37.7631 39.9146 37.1785 39.9146H26.0503C25.6078 39.9152 25.1752 39.7852 24.8074 39.541L24.7684 39.5023L24.3174 39.0967C23.9983 38.7098 23.824 38.2252 23.8239 37.7251C23.828 37.1423 24.0645 36.5849 24.4818 36.1748C24.8991 35.7648 25.4631 35.5355 26.0503 35.5373H47.4148C48.7699 35.5324 50.0717 36.0612 51.0346 37.0077C51.9974 37.9542 52.5427 39.2411 52.5508 40.5861V42.8732C52.5539 43.4563 52.7902 44.0142 53.2076 44.4245C53.6251 44.8347 54.1896 45.0637 54.7771 45.061H54.7737ZM24.6039 8.49613C24.6721 7.42846 25.1474 6.42665 25.9333 5.69448C26.7192 4.96231 27.7566 4.55478 28.8344 4.55478C29.9123 4.55478 30.9497 4.96231 31.7356 5.69448C32.5215 6.42665 32.9968 7.42846 33.0649 8.49613V9.37125H24.6039V8.49613ZM14.2489 13.7586H20.1496V16.0491C20.1496 16.6351 20.3841 17.1972 20.8017 17.6116C21.2192 18.026 21.7854 18.2588 22.3759 18.2588C22.9664 18.2588 23.5326 18.026 23.9501 17.6116C24.3677 17.1972 24.6022 16.6351 24.6022 16.0491V13.7586H33.0616V16.0491C33.0616 16.6351 33.2961 17.1972 33.7136 17.6116C34.1311 18.026 34.6974 18.2588 35.2879 18.2588C35.8783 18.2588 36.4446 18.026 36.8621 17.6116C37.2796 17.1972 37.5142 16.6351 37.5142 16.0491V13.7586H42.7468V26.7844C42.7392 27.9502 42.2662 29.0654 41.4316 29.8856C40.5969 30.7058 39.4687 31.1641 38.2942 31.1601H18.7032C18.1402 31.196 17.5756 31.1187 17.0435 30.9325C16.5113 30.7464 16.0226 30.4554 15.6066 30.077C15.1907 29.6986 14.8562 29.2407 14.6231 28.7306C14.3901 28.2206 14.2634 27.6691 14.2506 27.1093L14.2489 13.7586Z" fill="url(#paint0_linear_43_76)"/>
<defs>
<linearGradient id="paint0_linear_43_76" x1="0" y1="0" x2="57" y2="56" gradientUnits="userSpaceOnUse">
<stop stop-color="#47BA47"/>
<stop offset="1" stop-color="#56E156"/>
</linearGradient>
</defs>
</svg>
