<svg width="56" height="56" viewBox="0 0 56 56" fill="none" xmlns="http://www.w3.org/2000/svg">
<path d="M51.9167 0H4.08307C3.00058 0.00132307 1.9628 0.431927 1.19737 1.19737C0.431927 1.9628 0.00132307 3.00058 0 4.08307V9.91603C0.00132307 10.9985 0.431927 12.0363 1.19737 12.8017C1.9628 13.5672 3.00058 13.9978 4.08307 13.9991H51.9133C52.9958 13.9978 54.0336 13.5672 54.7991 12.8017C55.5645 12.0363 55.9951 10.9985 55.9964 9.91603V4.08307C55.9951 3.00116 55.565 1.96388 54.8002 1.19854C54.0355 0.433198 52.9986 0.00220449 51.9167 0Z" fill="url(#paint0_linear_43_8)"/>
<path d="M51.9167 42.001H4.08307C3.00058 42.0023 1.9628 42.4329 1.19737 43.1983C0.431927 43.9638 0.00132307 45.0016 0 46.0841L0 51.917C0.00132307 52.9995 0.431927 54.0373 1.19737 54.8027C1.9628 55.5682 3.00058 55.9988 4.08307 56.0001H51.9133C52.9958 55.9988 54.0336 55.5682 54.7991 54.8027C55.5645 54.0373 55.9951 52.9995 55.9964 51.917V46.0841C55.9951 45.0021 55.565 43.9649 54.8002 43.1995C54.0355 42.4342 52.9986 42.0032 51.9167 42.001Z" fill="url(#paint1_linear_43_8)"/>
<path d="M51.9172 20.999H39.0847C38.002 20.9999 36.9638 21.4303 36.198 22.1958C35.4322 22.9613 35.0013 23.9993 35 25.0821V30.9151C35.0013 31.9975 35.4319 33.0353 36.1974 33.8008C36.9628 34.5662 38.0006 34.9968 39.0831 34.9981H51.9156C52.9981 34.9968 54.0359 34.5662 54.8013 33.8008C55.5667 33.0353 55.9973 31.9975 55.9987 30.9151V25.0821C55.9973 23.9999 55.567 22.9624 54.8019 22.197C54.0368 21.4316 52.9995 21.0008 51.9172 20.999Z" fill="url(#paint2_linear_43_8)"/>
<path d="M1.74989 25.6668H28.5815C29.0456 25.6668 29.4907 25.4824 29.8189 25.1542C30.147 24.8261 30.3314 24.381 30.3314 23.9169C30.3314 23.4528 30.147 23.0077 29.8189 22.6795C29.4907 22.3514 29.0456 22.167 28.5815 22.167H1.74989C1.28579 22.167 0.840698 22.3514 0.51253 22.6795C0.184363 23.0077 0 23.4528 0 23.9169C0 24.381 0.184363 24.8261 0.51253 25.1542C0.840698 25.4824 1.28579 25.6668 1.74989 25.6668Z" fill="url(#paint3_linear_43_8)"/>
<path d="M1.74989 32.6658H28.5815C29.0456 32.6658 29.4907 32.4814 29.8189 32.1533C30.147 31.8251 30.3314 31.38 30.3314 30.9159C30.3314 30.4518 30.147 30.0067 29.8189 29.6785C29.4907 29.3504 29.0456 29.166 28.5815 29.166H1.74989C1.28579 29.166 0.840698 29.3504 0.51253 29.6785C0.184363 30.0067 0 30.4518 0 30.9159C0 31.38 0.184363 31.8251 0.51253 32.1533C0.840698 32.4814 1.28579 32.6658 1.74989 32.6658Z" fill="url(#paint4_linear_43_8)"/>
<defs>
<linearGradient id="paint0_linear_43_8" x1="27.9982" y1="0" x2="27.9982" y2="13.9991" gradientUnits="userSpaceOnUse">
<stop stop-color="#47BA47"/>
<stop offset="1" stop-color="#56E156"/>
</linearGradient>
<linearGradient id="paint1_linear_43_8" x1="27.9982" y1="42.001" x2="27.9982" y2="56.0001" gradientUnits="userSpaceOnUse">
<stop stop-color="#47BA47"/>
<stop offset="1" stop-color="#56E156"/>
</linearGradient>
<linearGradient id="paint2_linear_43_8" x1="45.4993" y1="20.999" x2="45.4993" y2="34.9981" gradientUnits="userSpaceOnUse">
<stop stop-color="#47BA47"/>
<stop offset="1" stop-color="#56E156"/>
</linearGradient>
<linearGradient id="paint3_linear_43_8" x1="15.1657" y1="22.167" x2="15.1657" y2="25.6668" gradientUnits="userSpaceOnUse">
<stop stop-color="#47BA47"/>
<stop offset="1" stop-color="#56E156"/>
</linearGradient>
<linearGradient id="paint4_linear_43_8" x1="15.1657" y1="29.166" x2="15.1657" y2="32.6658" gradientUnits="userSpaceOnUse">
<stop stop-color="#47BA47"/>
<stop offset="1" stop-color="#56E156"/>
</linearGradient>
</defs>
</svg>
